<svg width="1218" height="84" viewBox="0 0 1218 84" fill="none" xmlns="http://www.w3.org/2000/svg">
<path d="M9.98001 53.3176C8.2337 53.3176 6.71338 53.0492 5.41903 52.5123C4.12469 51.9755 3.11609 51.1807 2.39323 50.1279C1.67037 49.075 1.2861 47.7748 1.2404 46.2271H5.59197C5.649 46.963 5.86799 47.5773 6.24894 48.07C6.62989 48.5627 7.13852 48.9318 7.77484 49.1774C8.41116 49.423 9.1304 49.5458 9.93254 49.5458C10.729 49.5458 11.4241 49.4295 12.0177 49.1969C12.6113 48.9643 13.0731 48.6381 13.4028 48.2183C13.7326 47.7984 13.8975 47.3135 13.8975 46.7636C13.8975 46.2608 13.7498 45.8412 13.4545 45.5046C13.1592 45.1679 12.7319 44.8791 12.1725 44.6381C11.6132 44.3971 10.9349 44.1824 10.1379 43.9939L7.73847 43.3971C5.891 42.9465 4.44339 42.2402 3.39563 41.2782C2.34787 40.3162 1.82399 39.0414 1.82399 37.4536C1.82399 36.1388 2.17975 34.9883 2.89128 34.0022C3.60281 33.016 4.57639 32.2493 5.81205 31.7019C7.0477 31.1545 8.45567 30.8809 10.036 30.8809C11.6508 30.8809 13.0588 31.1572 14.2599 31.7098C15.4609 32.2625 16.3971 33.0285 17.0684 34.008C17.7397 34.9875 18.087 36.1161 18.1102 37.3936H13.7876C13.7029 36.519 13.3282 35.8413 12.6637 35.3604C11.9992 34.8796 11.1098 34.6392 9.99553 34.6392C9.23734 34.6392 8.58994 34.7481 8.05333 34.9661C7.51672 35.1841 7.10848 35.484 6.8286 35.8659C6.54873 36.2478 6.40879 36.683 6.40879 37.1715C6.40879 37.7064 6.57177 38.1505 6.89774 38.5036C7.22371 38.8567 7.65338 39.1442 8.18677 39.3661C8.72016 39.588 9.29272 39.7721 9.90445 39.9186L11.8735 40.4005C12.7917 40.6095 13.647 40.8903 14.4393 41.2428C15.2317 41.5954 15.9251 42.0277 16.5196 42.5398C17.114 43.0519 17.5765 43.6584 17.9072 44.3593C18.2379 45.0602 18.4032 45.8683 18.4032 46.7838C18.4032 48.107 18.0694 49.259 17.4018 50.2398C16.7342 51.2206 15.7727 51.9787 14.5172 52.5143C13.2618 53.0498 11.7493 53.3176 9.98001 53.3176ZM21.515 59.123V36.623H25.8358V39.3796H26.0497C26.2511 38.9442 26.5389 38.4978 26.9131 38.0403C27.2873 37.5828 27.783 37.198 28.4001 36.886C29.0171 36.574 29.7894 36.418 30.7167 36.418C31.9309 36.418 33.0396 36.7308 34.0427 37.3563C35.0459 37.9819 35.8494 38.9191 36.4534 40.168C37.0574 41.4168 37.3594 42.974 37.3594 44.8396C37.3594 46.657 37.0665 48.1926 36.4805 49.4463C35.8946 50.7 35.0987 51.6511 34.093 52.2997C33.0872 52.9482 31.9535 53.2725 30.6918 53.2725C29.8043 53.2725 29.0524 53.1219 28.4361 52.8208C27.8198 52.5198 27.3196 52.1475 26.9356 51.7039C26.5517 51.2604 26.2563 50.8187 26.0497 50.3788H25.9079V59.123H21.515ZM29.3391 49.7512C30.106 49.7512 30.7494 49.5412 31.2691 49.1213C31.7888 48.7014 32.1825 48.1201 32.45 47.3773C32.7176 46.6345 32.8514 45.7842 32.8514 44.8262C32.8514 43.8674 32.7187 43.0211 32.4534 42.2873C32.1881 41.5536 31.7956 40.9788 31.2758 40.563C30.7561 40.1472 30.1105 39.9392 29.3391 39.9392C28.5864 39.9392 27.9473 40.1404 27.4219 40.5427C26.8966 40.9451 26.4974 41.5109 26.2246 42.2402C25.9517 42.9695 25.8153 43.8315 25.8153 44.8262C25.8153 45.8103 25.9529 46.6714 26.228 47.4092C26.5031 48.1471 26.9044 48.7219 27.432 49.1336C27.9597 49.5453 28.5953 49.7512 29.3391 49.7512ZM47.833 53.3199C46.1613 53.3199 44.7201 52.9776 43.5094 52.2929C42.2986 51.6083 41.3687 50.636 40.7196 49.3763C40.0704 48.1165 39.7459 46.623 39.7459 44.8959C39.7459 43.2109 40.0684 41.7328 40.7134 40.4614C41.3584 39.19 42.2707 38.1982 43.4503 37.4861C44.6299 36.774 46.0173 36.418 47.6124 36.418C48.682 36.418 49.6813 36.5884 50.6104 36.9292C51.5395 37.27 52.3549 37.784 53.0565 38.4711C53.7582 39.1582 54.3062 40.0216 54.7005 41.0613C55.0949 42.1009 55.292 43.3222 55.292 44.7251V45.9582H41.5488V43.1937H53.1513L51.0981 43.9349C51.0981 43.0822 50.9679 42.3412 50.7074 41.7119C50.447 41.0827 50.0612 40.5945 49.5501 40.2474C49.0389 39.9004 48.4036 39.7268 47.6441 39.7268C46.8845 39.7268 46.2402 39.9026 45.7111 40.2542C45.182 40.6057 44.7794 41.0827 44.5032 41.685C44.227 42.2873 44.089 42.9722 44.089 43.7395V45.6858C44.089 46.633 44.2475 47.4288 44.5646 48.0731C44.8817 48.7174 45.3277 49.2015 45.9025 49.5253C46.4774 49.8492 47.1443 50.0111 47.903 50.0111C48.4157 50.0111 48.8817 49.9381 49.3009 49.7921C49.7201 49.6461 50.0806 49.4299 50.3824 49.1436C50.6841 48.8573 50.9138 48.5044 51.0714 48.0848L55.0442 48.8196C54.7797 49.7243 54.321 50.5142 53.6681 51.1893C53.0152 51.8644 52.1971 52.3883 51.2139 52.7609C50.2307 53.1336 49.1037 53.3199 47.833 53.3199ZM62.6901 43.5178V53H58.2972V36.623H62.4452L62.5152 40.7114H62.2519C62.6813 39.3454 63.3338 38.2884 64.2092 37.5402C65.0846 36.792 66.2136 36.418 67.5962 36.418C68.7313 36.418 69.7206 36.6648 70.5638 37.1585C71.4071 37.6521 72.062 38.3594 72.5285 39.2804C72.995 40.2014 73.2282 41.3025 73.2282 42.5838V53H68.8353V43.3494C68.8353 42.3322 68.573 41.5344 68.0483 40.956C67.5236 40.3776 66.7981 40.0884 65.8717 40.0884C65.2539 40.0884 64.7051 40.2237 64.2251 40.4943C63.7451 40.7649 63.3693 41.1548 63.0976 41.6641C62.826 42.1733 62.6901 42.7913 62.6901 43.5178ZM82.9614 53.2725C81.7094 53.2725 80.5781 52.9482 79.5675 52.2997C78.5569 51.6511 77.7586 50.7 77.1726 49.4463C76.5867 48.1926 76.2937 46.657 76.2937 44.8396C76.2937 42.974 76.5957 41.4168 77.1997 40.168C77.8037 38.9191 78.6097 37.9819 79.6177 37.3563C80.6258 36.7308 81.732 36.418 82.9365 36.418C83.8638 36.418 84.636 36.574 85.2531 36.886C85.8702 37.198 86.3683 37.5828 86.7474 38.0403C87.1265 38.4978 87.4119 38.9442 87.6035 39.3796H87.7453V31.1738H92.1382V53H87.8173V50.3788H87.6035C87.4013 50.8187 87.1071 51.2604 86.7209 51.7039C86.3347 52.1475 85.8358 52.5198 85.2244 52.8208C84.613 53.1219 83.8586 53.2725 82.9614 53.2725ZM84.3141 49.7512C85.0623 49.7512 85.6991 49.5453 86.2245 49.1336C86.7499 48.7219 87.1501 48.1471 87.4252 47.4092C87.7003 46.6714 87.8378 45.8103 87.8378 44.8262C87.8378 43.8315 87.7014 42.9695 87.4286 42.2402C87.1557 41.5109 86.7566 40.9451 86.2312 40.5427C85.7059 40.1404 85.0668 39.9392 84.3141 39.9392C83.5479 39.9392 82.9036 40.1472 82.3813 40.563C81.8589 40.9788 81.4651 41.5536 81.1998 42.2873C80.9344 43.0211 80.8018 43.8674 80.8018 44.8262C80.8018 45.7842 80.9356 46.6345 81.2031 47.3773C81.4707 48.1201 81.8668 48.7014 82.3914 49.1213C82.916 49.5412 83.5569 49.7512 84.3141 49.7512ZM95.8851 53V36.623H100.278V53H95.8851ZM98.0804 34.4882C97.4189 34.4882 96.8521 34.2671 96.38 33.8248C95.9079 33.3825 95.6719 32.8518 95.6719 32.2326C95.6719 31.6008 95.9079 31.0663 96.38 30.6292C96.8521 30.1921 97.4189 29.9735 98.0804 29.9735C98.7449 29.9735 99.3136 30.1918 99.7864 30.6283C100.259 31.0649 100.496 31.5995 100.496 32.2322C100.496 32.8522 100.259 33.3832 99.7864 33.8252C99.3136 34.2672 98.7449 34.4882 98.0804 34.4882ZM108.408 43.5178V53H104.015V36.623H108.163L108.233 40.7114H107.97C108.399 39.3454 109.052 38.2884 109.927 37.5402C110.802 36.792 111.931 36.418 113.314 36.418C114.449 36.418 115.438 36.6648 116.282 37.1585C117.125 37.6521 117.78 38.3594 118.246 39.2804C118.713 40.2014 118.946 41.3025 118.946 42.5838V53H114.553V43.3494C114.553 42.3322 114.291 41.5344 113.766 40.956C113.241 40.3776 112.516 40.0884 111.589 40.0884C110.972 40.0884 110.423 40.2237 109.943 40.4943C109.463 40.7649 109.087 41.1548 108.815 41.6641C108.544 42.1733 108.408 42.7913 108.408 43.5178ZM129.968 59.4746C128.604 59.4746 127.416 59.3023 126.403 58.9578C125.39 58.6133 124.565 58.1383 123.929 57.5329C123.293 56.9276 122.855 56.2347 122.613 55.4544L126.389 54.4097C126.529 54.7117 126.741 55.007 127.027 55.2955C127.313 55.5841 127.695 55.8205 128.173 56.0046C128.65 56.1888 129.243 56.2809 129.952 56.2809C131.071 56.2809 131.951 56.0238 132.593 55.5095C133.235 54.9953 133.556 54.1962 133.556 53.1122V50.0999H133.212C133.016 50.539 132.732 50.9628 132.361 51.3714C131.99 51.78 131.503 52.1149 130.903 52.3761C130.302 52.6374 129.558 52.768 128.672 52.768C127.443 52.768 126.324 52.479 125.316 51.9011C124.308 51.3232 123.505 50.4438 122.908 49.2629C122.31 48.082 122.011 46.5897 122.011 44.7857C122.011 42.9381 122.316 41.3943 122.925 40.1545C123.534 38.9146 124.343 37.9819 125.354 37.3563C126.364 36.7308 127.474 36.418 128.684 36.418C129.606 36.418 130.379 36.5729 131.001 36.8826C131.623 37.1924 132.127 37.5771 132.514 38.0369C132.9 38.4967 133.194 38.9442 133.396 39.3796H133.573V36.623H137.901V52.8631C137.901 54.338 137.561 55.5656 136.882 56.5462C136.202 57.5268 135.266 58.26 134.074 58.7458C132.881 59.2317 131.513 59.4746 129.968 59.4746ZM130.045 49.4275C130.799 49.4275 131.437 49.2426 131.96 48.8729C132.482 48.5032 132.881 47.9689 133.156 47.2699C133.432 46.571 133.569 45.734 133.569 44.7588C133.569 43.7865 133.433 42.9403 133.16 42.22C132.887 41.4997 132.489 40.9395 131.966 40.5394C131.444 40.1393 130.803 39.9392 130.045 39.9392C129.279 39.9392 128.634 40.146 128.109 40.5596C127.585 40.9732 127.188 41.5412 126.921 42.2638C126.653 42.9863 126.52 43.818 126.52 44.7588C126.52 45.7078 126.654 46.5329 126.924 47.2341C127.194 47.9352 127.591 48.4761 128.116 48.8566C128.64 49.2372 129.284 49.4275 130.045 49.4275ZM158.443 53.293C156.515 53.293 154.781 52.8532 153.242 51.9736C151.703 51.094 150.487 49.8194 149.595 48.1499C148.702 46.4804 148.256 44.4643 148.256 42.1016C148.256 39.7238 148.702 37.6989 149.595 36.0267C150.487 34.3545 151.703 33.0789 153.242 32.1997C154.781 31.3205 156.515 30.8809 158.443 30.8809C160.372 30.8809 162.103 31.3205 163.637 32.1997C165.172 33.0789 166.385 34.3545 167.278 36.0267C168.171 37.6989 168.618 39.7238 168.618 42.1016C168.618 44.4695 168.171 46.4883 167.278 48.1578C166.385 49.8273 165.172 51.1006 163.637 51.9775C162.103 52.8545 160.372 53.293 158.443 53.293ZM158.443 49.3226C159.573 49.3226 160.561 49.0457 161.405 48.492C162.249 47.9383 162.906 47.1235 163.376 46.0476C163.845 44.9718 164.08 43.6564 164.08 42.1016C164.08 40.5324 163.845 39.2086 163.376 38.1301C162.906 37.0516 162.249 36.2355 161.405 35.6818C160.561 35.1281 159.573 34.8513 158.443 34.8513C157.314 34.8513 156.326 35.1292 155.48 35.6852C154.634 36.2411 153.974 37.0584 153.502 38.1369C153.029 39.2154 152.793 40.5369 152.793 42.1016C152.793 43.6564 153.029 44.9707 153.502 46.0443C153.974 47.1179 154.634 47.9327 155.48 48.4886C156.326 49.0446 157.314 49.3226 158.443 49.3226ZM176.479 53L170.454 36.623H175.12L177.87 45.1246C178.21 46.1832 178.503 47.2552 178.752 48.3406C179 49.4259 179.255 50.5481 179.517 51.7071H178.574C178.831 50.5481 179.082 49.4272 179.328 48.3445C179.573 47.2618 179.861 46.1885 180.191 45.1246L182.91 36.623H187.528L181.487 53H176.479ZM196.72 53.3199C195.048 53.3199 193.607 52.9776 192.396 52.2929C191.185 51.6083 190.255 50.636 189.606 49.3763C188.957 48.1165 188.633 46.623 188.633 44.8959C188.633 43.2109 188.955 41.7328 189.6 40.4614C190.245 39.19 191.157 38.1982 192.337 37.4861C193.517 36.774 194.904 36.418 196.499 36.418C197.569 36.418 198.568 36.5884 199.497 36.9292C200.426 37.27 201.242 37.784 201.943 38.4711C202.645 39.1582 203.193 40.0216 203.587 41.0613C203.982 42.1009 204.179 43.3222 204.179 44.7251V45.9582H190.436V43.1937H202.038L199.985 43.9349C199.985 43.0822 199.855 42.3412 199.594 41.7119C199.334 41.0827 198.948 40.5945 198.437 40.2474C197.926 39.9004 197.29 39.7268 196.531 39.7268C195.771 39.7268 195.127 39.9026 194.598 40.2542C194.069 40.6057 193.666 41.0827 193.39 41.685C193.114 42.2873 192.976 42.9722 192.976 43.7395V45.6858C192.976 46.633 193.134 47.4288 193.451 48.0731C193.768 48.7174 194.214 49.2015 194.789 49.5253C195.364 49.8492 196.031 50.0111 196.79 50.0111C197.302 50.0111 197.768 49.9381 198.188 49.7921C198.607 49.6461 198.967 49.4299 199.269 49.1436C199.571 48.8573 199.801 48.5044 199.958 48.0848L203.931 48.8196C203.666 49.7243 203.208 50.5142 202.555 51.1893C201.902 51.8644 201.084 52.3883 200.101 52.7609C199.117 53.1336 197.99 53.3199 196.72 53.3199ZM207.184 53V36.623H211.441V39.4748H211.617C211.915 38.4654 212.417 37.7014 213.125 37.1826C213.833 36.6639 214.646 36.4045 215.565 36.4045C215.792 36.4045 216.035 36.4173 216.296 36.4429C216.557 36.4685 216.786 36.5046 216.985 36.5513V40.4763C216.791 40.4093 216.507 40.3549 216.134 40.3132C215.761 40.2715 215.411 40.2507 215.086 40.2507C214.416 40.2507 213.814 40.3958 213.281 40.686C212.748 40.9763 212.331 41.378 212.029 41.8913C211.728 42.4046 211.577 43.0007 211.577 43.6796V53H207.184ZM224.482 53L218.457 36.623H223.122L225.873 45.1246C226.213 46.1832 226.506 47.2552 226.755 48.3406C227.003 49.4259 227.258 50.5481 227.52 51.7071H226.577C226.834 50.5481 227.085 49.4272 227.331 48.3445C227.576 47.2618 227.864 46.1885 228.194 45.1246L230.913 36.623H235.531L229.49 53H224.482ZM237.858 53V36.623H242.251V53H237.858ZM240.053 34.4882C239.392 34.4882 238.825 34.2671 238.353 33.8248C237.881 33.3825 237.645 32.8518 237.645 32.2326C237.645 31.6008 237.881 31.0663 238.353 30.6292C238.825 30.1921 239.392 29.9735 240.053 29.9735C240.718 29.9735 241.286 30.1918 241.759 30.6283C242.232 31.0649 242.468 31.5995 242.468 32.2322C242.468 32.8522 242.232 33.3832 241.759 33.8252C241.286 34.2672 240.718 34.4882 240.053 34.4882ZM253.395 53.3199C251.723 53.3199 250.282 52.9776 249.071 52.2929C247.86 51.6083 246.93 50.636 246.281 49.3763C245.632 48.1165 245.307 46.623 245.307 44.8959C245.307 43.2109 245.63 41.7328 246.275 40.4614C246.92 39.19 247.832 38.1982 249.012 37.4861C250.191 36.774 251.579 36.418 253.174 36.418C254.243 36.418 255.243 36.5884 256.172 36.9292C257.101 37.27 257.916 37.784 258.618 38.4711C259.32 39.1582 259.868 40.0216 260.262 41.0613C260.656 42.1009 260.854 43.3222 260.854 44.7251V45.9582H247.11V43.1937H258.713L256.66 43.9349C256.66 43.0822 256.529 42.3412 256.269 41.7119C256.008 41.0827 255.623 40.5945 255.112 40.2474C254.6 39.9004 253.965 39.7268 253.206 39.7268C252.446 39.7268 251.802 39.9026 251.273 40.2542C250.744 40.6057 250.341 41.0827 250.065 41.685C249.789 42.2873 249.65 42.9722 249.65 43.7395V45.6858C249.65 46.633 249.809 47.4288 250.126 48.0731C250.443 48.7174 250.889 49.2015 251.464 49.5253C252.039 49.8492 252.706 50.0111 253.465 50.0111C253.977 50.0111 254.443 49.9381 254.862 49.7921C255.282 49.6461 255.642 49.4299 255.944 49.1436C256.246 48.8573 256.475 48.5044 256.633 48.0848L260.606 48.8196C260.341 49.7243 259.883 50.5142 259.23 51.1893C258.577 51.8644 257.759 52.3883 256.775 52.7609C255.792 53.1336 254.665 53.3199 253.395 53.3199ZM266.864 53L262.033 36.623H266.642L268.065 42.6798C268.307 43.7618 268.569 44.9403 268.853 46.2152C269.136 47.4901 269.398 48.8983 269.637 50.4397H269.136C269.392 48.9297 269.671 47.5348 269.974 46.2551C270.277 44.9753 270.559 43.7835 270.821 42.6798L272.317 36.623H276.364L277.815 42.6798C278.067 43.7753 278.345 44.9605 278.648 46.2354C278.951 47.5103 279.231 48.9118 279.487 50.4397H278.994C279.233 48.9207 279.487 47.5238 279.755 46.2489C280.023 44.974 280.28 43.7843 280.526 42.6798L281.949 36.623H286.621L281.758 53H277.293L275.478 46.6796C275.3 46.0542 275.123 45.3575 274.947 44.5894C274.771 43.8213 274.599 43.039 274.433 42.2424C274.267 41.4459 274.097 40.7019 273.923 40.0105H274.699C274.536 40.6974 274.368 41.4402 274.197 42.2391C274.026 43.0379 273.853 43.8236 273.68 44.5961C273.507 45.3687 273.328 46.0632 273.145 46.6796L271.33 53H266.864Z" fill="#0F172A"/>
<path d="M4.40918 79H1.94824V77.8516H4.32715C5.15658 77.8516 5.84359 77.6932 6.38818 77.3765C6.93278 77.0597 7.33952 76.6051 7.6084 76.0127C7.87728 75.4202 8.01172 74.7116 8.01172 73.8867C8.01172 73.071 7.87842 72.3703 7.61182 71.7847C7.34521 71.1991 6.94873 70.749 6.42236 70.4346C5.896 70.1201 5.23861 69.9629 4.4502 69.9629H1.89355V68.8145H4.53906C5.53255 68.8145 6.38135 69.0173 7.08545 69.4229C7.78955 69.8285 8.32959 70.4106 8.70557 71.1694C9.08154 71.9282 9.26953 72.834 9.26953 73.8867C9.26953 74.9486 9.0804 75.8612 8.70215 76.6245C8.32389 77.3879 7.77246 77.9746 7.04785 78.3848C6.32324 78.7949 5.44368 79 4.40918 79ZM2.5293 68.8145V79H1.23047V68.8145H2.5293ZM14.3965 79.1641C13.6582 79.1641 13.0213 79 12.4858 78.6719C11.9504 78.3438 11.5379 77.8857 11.2485 77.2979C10.9591 76.71 10.8145 76.0241 10.8145 75.2402C10.8145 74.4564 10.9557 73.766 11.2383 73.1689C11.5208 72.5719 11.9207 72.1048 12.438 71.7676C12.9552 71.4303 13.5602 71.2617 14.2529 71.2617C14.6585 71.2617 15.0584 71.3289 15.4526 71.4634C15.8468 71.5978 16.2046 71.8143 16.5259 72.1128C16.8472 72.4113 17.1035 72.8044 17.2949 73.292C17.4863 73.7796 17.582 74.3766 17.582 75.083V75.5957H11.6484V74.5566H16.9189L16.3447 74.9395C16.3447 74.4382 16.2661 73.9927 16.1089 73.603C15.9517 73.2134 15.7181 72.908 15.4082 72.687C15.0983 72.466 14.7132 72.3555 14.2529 72.3555C13.7926 72.3555 13.3984 72.4683 13.0703 72.6938C12.7422 72.9194 12.4915 73.2134 12.3184 73.5757C12.1452 73.938 12.0586 74.3265 12.0586 74.7412V75.4316C12.0586 75.9967 12.1566 76.4764 12.3525 76.8706C12.5485 77.2648 12.8231 77.5633 13.1763 77.7661C13.5295 77.9689 13.9385 78.0703 14.4033 78.0703C14.7041 78.0703 14.9775 78.027 15.2236 77.9404C15.4697 77.8538 15.6816 77.7228 15.8594 77.5474C16.0371 77.3719 16.1738 77.1543 16.2695 76.8945L17.459 77.2227C17.3405 77.6055 17.14 77.9427 16.8574 78.2344C16.5749 78.526 16.2251 78.7539 15.8081 78.918C15.3911 79.082 14.9206 79.1641 14.3965 79.1641ZM22.3535 71.3574V72.4102H18.4023V71.3574H22.3535ZM19.5508 69.5391H20.7812V77.0176C20.7812 77.3594 20.8507 77.6089 20.9897 77.7661C21.1287 77.9233 21.36 78.002 21.6836 78.002C21.7611 78.002 21.8602 77.9928 21.981 77.9746C22.1017 77.9564 22.2122 77.9382 22.3125 77.9199L22.5654 78.959C22.4378 79.0046 22.2931 79.0387 22.1313 79.0615C21.9696 79.0843 21.8089 79.0957 21.6494 79.0957C20.9886 79.0957 20.4736 78.9214 20.1045 78.5728C19.7354 78.2241 19.5508 77.7376 19.5508 77.1133V69.5391ZM26.1338 79.1777C25.6507 79.1777 25.2121 79.0866 24.8179 78.9043C24.4237 78.722 24.1104 78.4554 23.8779 78.1045C23.6455 77.7536 23.5293 77.3275 23.5293 76.8262C23.5293 76.3887 23.6159 76.0332 23.7891 75.7598C23.9622 75.4863 24.1935 75.271 24.4829 75.1138C24.7723 74.9565 25.0924 74.8392 25.4434 74.7617C25.7943 74.6842 26.1475 74.6227 26.5029 74.5771C26.9587 74.5179 27.3301 74.4723 27.6172 74.4404C27.9043 74.4085 28.1174 74.3538 28.2563 74.2764C28.3953 74.1989 28.4648 74.0667 28.4648 73.8799V73.8389C28.4648 73.5199 28.4056 73.2498 28.2871 73.0288C28.1686 72.8078 27.9909 72.638 27.7539 72.5195C27.5169 72.401 27.2207 72.3418 26.8652 72.3418C26.5007 72.3418 26.1885 72.3988 25.9287 72.5127C25.6689 72.6266 25.4582 72.769 25.2964 72.9399C25.1346 73.1108 25.0127 73.2852 24.9307 73.4629L23.748 73.0732C23.944 72.6084 24.2083 72.245 24.541 71.9829C24.8737 71.7209 25.2406 71.5352 25.6416 71.4258C26.0426 71.3164 26.4391 71.2617 26.8311 71.2617C27.0863 71.2617 27.3768 71.2925 27.7026 71.354C28.0285 71.4155 28.3429 71.5374 28.646 71.7197C28.9491 71.902 29.1997 72.172 29.3979 72.5298C29.5962 72.8875 29.6953 73.3649 29.6953 73.9619V79H28.4854V77.9609H28.4033C28.3167 78.1387 28.1777 78.3221 27.9863 78.5112C27.7949 78.7004 27.5465 78.8587 27.2412 78.9863C26.9359 79.1139 26.5667 79.1777 26.1338 79.1777ZM26.3457 78.0908C26.8014 78.0908 27.1865 78.002 27.501 77.8242C27.8154 77.6465 28.0547 77.4152 28.2188 77.1304C28.3828 76.8455 28.4648 76.5482 28.4648 76.2383V75.1787C28.4147 75.238 28.3053 75.2915 28.1367 75.3394C27.9681 75.3872 27.7756 75.4294 27.5591 75.4658C27.3426 75.5023 27.133 75.533 26.9302 75.5581C26.7274 75.5832 26.5667 75.6025 26.4482 75.6162C26.152 75.6527 25.8752 75.7153 25.6177 75.8042C25.3602 75.8931 25.154 76.0229 24.999 76.1938C24.8441 76.3647 24.7666 76.596 24.7666 76.8877C24.7666 77.152 24.835 77.373 24.9717 77.5508C25.1084 77.7285 25.2952 77.863 25.5322 77.9541C25.7692 78.0452 26.0404 78.0908 26.3457 78.0908ZM31.8555 79V71.3574H33.0859V79H31.8555ZM32.4775 70.1064C32.2451 70.1064 32.0446 70.0267 31.876 69.8672C31.7074 69.7077 31.623 69.5163 31.623 69.293C31.623 69.0651 31.7074 68.8726 31.876 68.7153C32.0446 68.5581 32.2451 68.4795 32.4775 68.4795C32.7145 68.4795 32.9173 68.5581 33.0859 68.7153C33.2546 68.8726 33.3389 69.0651 33.3389 69.293C33.3389 69.5163 33.2546 69.7077 33.0859 69.8672C32.9173 70.0267 32.7145 70.1064 32.4775 70.1064ZM36.4766 68.8145V79H35.2461V68.8145H36.4766ZM41.8496 79.1641C41.1113 79.1641 40.4744 79 39.939 78.6719C39.4035 78.3438 38.991 77.8857 38.7017 77.2979C38.4123 76.71 38.2676 76.0241 38.2676 75.2402C38.2676 74.4564 38.4089 73.766 38.6914 73.1689C38.974 72.5719 39.3739 72.1048 39.8911 71.7676C40.4084 71.4303 41.0133 71.2617 41.7061 71.2617C42.1117 71.2617 42.5116 71.3289 42.9058 71.4634C43.3 71.5978 43.6577 71.8143 43.979 72.1128C44.3003 72.4113 44.5566 72.8044 44.748 73.292C44.9395 73.7796 45.0352 74.3766 45.0352 75.083V75.5957H39.1016V74.5566H44.3721L43.7979 74.9395C43.7979 74.4382 43.7192 73.9927 43.562 73.603C43.4048 73.2134 43.1712 72.908 42.8613 72.687C42.5514 72.466 42.1663 72.3555 41.7061 72.3555C41.2458 72.3555 40.8516 72.4683 40.5234 72.6938C40.1953 72.9194 39.9447 73.2134 39.7715 73.5757C39.5983 73.938 39.5117 74.3265 39.5117 74.7412V75.4316C39.5117 75.9967 39.6097 76.4764 39.8057 76.8706C40.0016 77.2648 40.2762 77.5633 40.6294 77.7661C40.9826 77.9689 41.3916 78.0703 41.8564 78.0703C42.1572 78.0703 42.4307 78.027 42.6768 77.9404C42.9229 77.8538 43.1348 77.7228 43.3125 77.5474C43.4902 77.3719 43.627 77.1543 43.7227 76.8945L44.9121 77.2227C44.7936 77.6055 44.5931 77.9427 44.3105 78.2344C44.028 78.526 43.6782 78.7539 43.2612 78.918C42.8442 79.082 42.3737 79.1641 41.8496 79.1641ZM49.6631 79.1641C49.0296 79.1641 48.4691 79.0023 47.9814 78.6787C47.4938 78.3551 47.1133 77.8971 46.8398 77.3047C46.5664 76.7122 46.4297 76.0104 46.4297 75.1992C46.4297 74.3926 46.5675 73.6942 46.8433 73.104C47.119 72.5138 47.5007 72.0592 47.9883 71.7402C48.4759 71.4212 49.0365 71.2617 49.6699 71.2617C50.1667 71.2617 50.5609 71.3438 50.8525 71.5078C51.1442 71.6719 51.3687 71.8576 51.5259 72.0649C51.6831 72.2723 51.8027 72.4443 51.8848 72.5811H51.9805V68.8145H53.2109V79H52.0215V77.8174H51.8848C51.8027 77.9587 51.6808 78.1353 51.519 78.3472C51.3573 78.5591 51.1294 78.7482 50.8354 78.9146C50.5415 79.0809 50.1507 79.1641 49.6631 79.1641ZM49.8477 78.0635C50.3125 78.0635 50.7044 77.9416 51.0234 77.6978C51.3424 77.4539 51.584 77.1156 51.748 76.6826C51.9121 76.2497 51.9941 75.7507 51.9941 75.1855C51.9941 74.6204 51.9132 74.1271 51.7515 73.7056C51.5897 73.284 51.3493 72.9548 51.0303 72.7178C50.7113 72.4808 50.3171 72.3623 49.8477 72.3623C49.3646 72.3623 48.9624 72.4876 48.6411 72.7383C48.3198 72.9889 48.0794 73.3273 47.9199 73.7534C47.7604 74.1795 47.6807 74.6569 47.6807 75.1855C47.6807 75.7188 47.7616 76.203 47.9233 76.6382C48.0851 77.0734 48.3278 77.4198 48.6514 77.6772C48.9749 77.9347 49.3737 78.0635 49.8477 78.0635ZM61.5166 79L58.5977 71.3574H59.9443L61.5713 75.8896C61.7445 76.359 61.8914 76.8273 62.0122 77.2944C62.133 77.7616 62.2594 78.2139 62.3916 78.6514H61.9404C62.0726 78.2139 62.1991 77.7616 62.3198 77.2944C62.4406 76.8273 62.5853 76.359 62.7539 75.8896L64.3809 71.3574H65.7275L62.8086 79H61.5166ZM67.1768 79V71.3574H68.4072V79H67.1768ZM67.7988 70.1064C67.5664 70.1064 67.3659 70.0267 67.1973 69.8672C67.0286 69.7077 66.9443 69.5163 66.9443 69.293C66.9443 69.0651 67.0286 68.8726 67.1973 68.7153C67.3659 68.5581 67.5664 68.4795 67.7988 68.4795C68.0358 68.4795 68.2386 68.5581 68.4072 68.7153C68.5758 68.8726 68.6602 69.0651 68.6602 69.293C68.6602 69.5163 68.5758 69.7077 68.4072 69.8672C68.2386 70.0267 68.0358 70.1064 67.7988 70.1064ZM73.7803 79.1641C73.042 79.1641 72.4051 79 71.8696 78.6719C71.3341 78.3438 70.9217 77.8857 70.6323 77.2979C70.3429 76.71 70.1982 76.0241 70.1982 75.2402C70.1982 74.4564 70.3395 73.766 70.6221 73.1689C70.9046 72.5719 71.3045 72.1048 71.8218 71.7676C72.339 71.4303 72.944 71.2617 73.6367 71.2617C74.0423 71.2617 74.4422 71.3289 74.8364 71.4634C75.2306 71.5978 75.5884 71.8143 75.9097 72.1128C76.231 72.4113 76.4873 72.8044 76.6787 73.292C76.8701 73.7796 76.9658 74.3766 76.9658 75.083V75.5957H71.0322V74.5566H76.3027L75.7285 74.9395C75.7285 74.4382 75.6499 73.9927 75.4927 73.603C75.3354 73.2134 75.1019 72.908 74.792 72.687C74.4821 72.466 74.097 72.3555 73.6367 72.3555C73.1764 72.3555 72.7822 72.4683 72.4541 72.6938C72.126 72.9194 71.8753 73.2134 71.7021 73.5757C71.529 73.938 71.4424 74.3265 71.4424 74.7412V75.4316C71.4424 75.9967 71.5404 76.4764 71.7363 76.8706C71.9323 77.2648 72.2069 77.5633 72.5601 77.7661C72.9132 77.9689 73.3223 78.0703 73.7871 78.0703C74.0879 78.0703 74.3613 78.027 74.6074 77.9404C74.8535 77.8538 75.0654 77.7228 75.2432 77.5474C75.4209 77.3719 75.5576 77.1543 75.6533 76.8945L76.8428 77.2227C76.7243 77.6055 76.5238 77.9427 76.2412 78.2344C75.9587 78.526 75.6089 78.7539 75.1919 78.918C74.7749 79.082 74.3044 79.1641 73.7803 79.1641ZM80.1924 79L77.875 71.3574H79.1807L80.1104 74.6934C80.238 75.1491 80.3747 75.6652 80.5205 76.2417C80.6663 76.8182 80.8099 77.471 80.9512 78.2002H80.7393C80.876 77.5029 81.015 76.8649 81.1562 76.2861C81.2975 75.7074 81.4342 75.1764 81.5664 74.6934L82.4824 71.3574H83.7949L84.6973 74.6934C84.8249 75.1628 84.9582 75.6857 85.0972 76.2622C85.2362 76.8387 85.374 77.4847 85.5107 78.2002H85.292C85.4378 77.4938 85.5825 76.8524 85.7261 76.2759C85.8696 75.6994 86.0075 75.1719 86.1396 74.6934L87.0693 71.3574H88.375L86.0576 79H84.834L83.8428 75.541C83.7425 75.1901 83.6445 74.8324 83.5488 74.4678C83.4531 74.1032 83.3597 73.7295 83.2686 73.3467C83.1774 72.9639 83.084 72.5742 82.9883 72.1777H83.2617C83.1706 72.5697 83.0783 72.9582 82.9849 73.3433C82.8914 73.7284 82.7969 74.1055 82.7012 74.4746C82.6055 74.8438 82.5075 75.1992 82.4072 75.541L81.416 79H80.1924ZM96.9814 79.1641C96.2887 79.1641 95.6815 79 95.1597 78.6719C94.6379 78.3438 94.2311 77.8835 93.9395 77.291C93.6478 76.6986 93.502 76.0104 93.502 75.2266C93.502 74.429 93.6478 73.7329 93.9395 73.1382C94.2311 72.5435 94.6379 72.082 95.1597 71.7539C95.6815 71.4258 96.2887 71.2617 96.9814 71.2617C97.6787 71.2617 98.2894 71.4258 98.8135 71.7539C99.3376 72.082 99.7454 72.5435 100.037 73.1382C100.329 73.7329 100.475 74.429 100.475 75.2266C100.475 76.0104 100.329 76.6986 100.037 77.291C99.7454 77.8835 99.3376 78.3438 98.8135 78.6719C98.2894 79 97.6787 79.1641 96.9814 79.1641ZM96.9814 78.0635C97.4964 78.0635 97.9202 77.9313 98.2529 77.667C98.5856 77.4027 98.8317 77.0552 98.9912 76.6245C99.1507 76.1938 99.2305 75.7279 99.2305 75.2266C99.2305 74.7207 99.1507 74.2502 98.9912 73.8149C98.8317 73.3797 98.5856 73.0288 98.2529 72.7622C97.9202 72.4956 97.4964 72.3623 96.9814 72.3623C96.471 72.3623 96.0518 72.4956 95.7236 72.7622C95.3955 73.0288 95.1517 73.3786 94.9922 73.8115C94.8327 74.2445 94.7529 74.7161 94.7529 75.2266C94.7529 75.7279 94.8327 76.1938 94.9922 76.6245C95.1517 77.0552 95.3955 77.4027 95.7236 77.667C96.0518 77.9313 96.471 78.0635 96.9814 78.0635ZM105.82 71.3574V72.4102H101.322V71.3574H105.82ZM102.826 79V70.3389C102.826 69.8968 102.93 69.5277 103.137 69.2314C103.345 68.9352 103.615 68.7119 103.947 68.5615C104.28 68.4111 104.631 68.3359 105 68.3359C105.292 68.3359 105.533 68.3599 105.725 68.4077C105.916 68.4556 106.057 68.5 106.148 68.541L105.807 69.5938C105.743 69.571 105.66 69.5459 105.557 69.5186C105.455 69.4912 105.317 69.4775 105.144 69.4775C104.765 69.4775 104.49 69.5744 104.316 69.7681C104.143 69.9618 104.057 70.2432 104.057 70.6123V79H102.826ZM111.262 81.7686L111.576 80.7021L111.706 80.7363C111.957 80.8001 112.185 80.8172 112.39 80.7876C112.595 80.758 112.779 80.6566 112.943 80.4834C113.107 80.3102 113.251 80.0413 113.374 79.6768L113.593 79.041L110.674 71.3574H112.021L113.647 75.8896C113.821 76.3636 113.966 76.833 114.085 77.2979C114.203 77.7627 114.329 78.2139 114.461 78.6514H114.01C114.142 78.2139 114.268 77.7616 114.389 77.2944C114.51 76.8273 114.655 76.359 114.823 75.8896L116.464 71.3574H117.804L114.447 80.1416C114.292 80.5472 114.107 80.881 113.89 81.1431C113.674 81.4051 113.422 81.5988 113.135 81.7241C112.848 81.8494 112.524 81.9121 112.164 81.9121C111.945 81.9121 111.756 81.8962 111.597 81.8643C111.437 81.8324 111.326 81.8005 111.262 81.7686ZM122.09 79.1641C121.397 79.1641 120.79 79 120.268 78.6719C119.746 78.3438 119.34 77.8835 119.048 77.291C118.756 76.6986 118.61 76.0104 118.61 75.2266C118.61 74.429 118.756 73.7329 119.048 73.1382C119.34 72.5435 119.746 72.082 120.268 71.7539C120.79 71.4258 121.397 71.2617 122.09 71.2617C122.787 71.2617 123.398 71.4258 123.922 71.7539C124.446 72.082 124.854 72.5435 125.146 73.1382C125.437 73.7329 125.583 74.429 125.583 75.2266C125.583 76.0104 125.437 76.6986 125.146 77.291C124.854 77.8835 124.446 78.3438 123.922 78.6719C123.398 79 122.787 79.1641 122.09 79.1641ZM122.09 78.0635C122.605 78.0635 123.029 77.9313 123.361 77.667C123.694 77.4027 123.94 77.0552 124.1 76.6245C124.259 76.1938 124.339 75.7279 124.339 75.2266C124.339 74.7207 124.259 74.2502 124.1 73.8149C123.94 73.3797 123.694 73.0288 123.361 72.7622C123.029 72.4956 122.605 72.3623 122.09 72.3623C121.579 72.3623 121.16 72.4956 120.832 72.7622C120.504 73.0288 120.26 73.3786 120.101 73.8115C119.941 74.2445 119.861 74.7161 119.861 75.2266C119.861 75.7279 119.941 76.1938 120.101 76.6245C120.26 77.0552 120.504 77.4027 120.832 77.667C121.16 77.9313 121.579 78.0635 122.09 78.0635ZM129.965 79.0957C129.45 79.0957 128.998 78.9897 128.608 78.7778C128.218 78.5659 127.915 78.2458 127.699 77.8174C127.482 77.389 127.374 76.8535 127.374 76.2109V71.3574H128.604V76.1084C128.604 76.6963 128.759 77.1566 129.069 77.4893C129.379 77.8219 129.801 77.9883 130.334 77.9883C130.699 77.9883 131.026 77.9085 131.315 77.749C131.604 77.5895 131.833 77.356 132.002 77.0483C132.171 76.7407 132.255 76.3704 132.255 75.9375V71.3574H133.492V79H132.303V77.1475H132.467C132.23 77.863 131.894 78.3665 131.458 78.6582C131.023 78.9499 130.525 79.0957 129.965 79.0957ZM135.652 79V71.3574H136.842V72.5332H136.924C137.065 72.1458 137.317 71.8348 137.679 71.6001C138.042 71.3654 138.451 71.248 138.906 71.248C138.997 71.248 139.106 71.2503 139.231 71.2549C139.356 71.2594 139.455 71.264 139.528 71.2686V72.5059C139.492 72.4967 139.401 72.4831 139.255 72.4648C139.109 72.4466 138.954 72.4375 138.79 72.4375C138.425 72.4375 138.098 72.5138 137.809 72.6665C137.52 72.8192 137.293 73.0288 137.129 73.2954C136.965 73.562 136.883 73.8685 136.883 74.2148V79H135.652ZM144.86 79V71.3574H146.057L146.063 73.0664H145.968C146.073 72.6517 146.238 72.3088 146.463 72.0376C146.689 71.7664 146.953 71.5625 147.256 71.4258C147.559 71.2891 147.875 71.2207 148.203 71.2207C148.759 71.2207 149.209 71.3916 149.553 71.7334C149.897 72.0752 150.119 72.5241 150.22 73.0801H150.056C150.147 72.6973 150.313 72.3669 150.555 72.0889C150.796 71.8109 151.089 71.5967 151.433 71.4463C151.777 71.2959 152.152 71.2207 152.558 71.2207C153 71.2207 153.403 71.3164 153.768 71.5078C154.132 71.6992 154.423 71.9886 154.639 72.376C154.856 72.7633 154.964 73.2533 154.964 73.8457V79H153.733V73.8799C153.733 73.3285 153.578 72.9342 153.269 72.6973C152.959 72.4603 152.599 72.3418 152.188 72.3418C151.847 72.3418 151.552 72.4136 151.303 72.5571C151.055 72.7007 150.863 72.8978 150.729 73.1484C150.595 73.3991 150.527 73.6862 150.527 74.0098V79H149.297V73.7568C149.297 73.333 149.156 72.9912 148.873 72.7314C148.59 72.4717 148.233 72.3418 147.8 72.3418C147.504 72.3418 147.224 72.4113 146.962 72.5503C146.7 72.6893 146.49 72.8955 146.33 73.1689C146.171 73.4424 146.091 73.7819 146.091 74.1875V79H144.86ZM157.124 79V71.3574H158.354V79H157.124ZM157.746 70.1064C157.514 70.1064 157.313 70.0267 157.145 69.8672C156.976 69.7077 156.892 69.5163 156.892 69.293C156.892 69.0651 156.976 68.8726 157.145 68.7153C157.313 68.5581 157.514 68.4795 157.746 68.4795C157.983 68.4795 158.186 68.5581 158.354 68.7153C158.523 68.8726 158.607 69.0651 158.607 69.293C158.607 69.5163 158.523 69.7077 158.354 69.8672C158.186 70.0267 157.983 70.1064 157.746 70.1064ZM163.112 79.1641C162.588 79.1641 162.122 79.0877 161.714 78.9351C161.306 78.7824 160.97 78.5557 160.706 78.2549C160.442 77.9541 160.264 77.585 160.173 77.1475L161.342 76.8672C161.451 77.2865 161.657 77.5941 161.96 77.79C162.264 77.986 162.643 78.084 163.099 78.084C163.632 78.084 164.057 77.9701 164.374 77.7422C164.69 77.5143 164.849 77.2432 164.849 76.9287C164.849 76.6644 164.756 76.4445 164.572 76.269C164.387 76.0936 164.106 75.9626 163.728 75.876L162.456 75.5752C161.763 75.4111 161.248 75.1571 160.911 74.813C160.574 74.4689 160.405 74.028 160.405 73.4902C160.405 73.0527 160.528 72.6665 160.774 72.3315C161.021 71.9966 161.357 71.7345 161.783 71.5454C162.209 71.3563 162.693 71.2617 163.235 71.2617C163.759 71.2617 164.205 71.3403 164.572 71.4976C164.939 71.6548 165.237 71.8713 165.467 72.147C165.697 72.4227 165.869 72.7406 165.983 73.1006L164.869 73.3877C164.764 73.1143 164.59 72.8659 164.346 72.6426C164.102 72.4193 163.734 72.3076 163.242 72.3076C162.786 72.3076 162.407 72.4124 162.104 72.6221C161.801 72.8317 161.649 73.096 161.649 73.415C161.649 73.6976 161.752 73.9243 161.957 74.0952C162.162 74.2661 162.488 74.404 162.935 74.5088L164.09 74.7822C164.783 74.9463 165.295 75.2004 165.628 75.5444C165.961 75.8885 166.127 76.3226 166.127 76.8467C166.127 77.2933 166 77.6909 165.748 78.0396C165.495 78.3882 165.141 78.6628 164.688 78.8633C164.235 79.0638 163.709 79.1641 163.112 79.1641ZM170.502 79.1641C169.978 79.1641 169.512 79.0877 169.104 78.9351C168.696 78.7824 168.36 78.5557 168.096 78.2549C167.831 77.9541 167.654 77.585 167.562 77.1475L168.731 76.8672C168.841 77.2865 169.047 77.5941 169.35 77.79C169.653 77.986 170.033 78.084 170.488 78.084C171.021 78.084 171.446 77.9701 171.763 77.7422C172.08 77.5143 172.238 77.2432 172.238 76.9287C172.238 76.6644 172.146 76.4445 171.961 76.269C171.777 76.0936 171.495 75.9626 171.117 75.876L169.846 75.5752C169.153 75.4111 168.638 75.1571 168.301 74.813C167.964 74.4689 167.795 74.028 167.795 73.4902C167.795 73.0527 167.918 72.6665 168.164 72.3315C168.41 71.9966 168.746 71.7345 169.172 71.5454C169.598 71.3563 170.083 71.2617 170.625 71.2617C171.149 71.2617 171.595 71.3403 171.961 71.4976C172.328 71.6548 172.627 71.8713 172.857 72.147C173.087 72.4227 173.259 72.7406 173.373 73.1006L172.259 73.3877C172.154 73.1143 171.98 72.8659 171.736 72.6426C171.492 72.4193 171.124 72.3076 170.632 72.3076C170.176 72.3076 169.797 72.4124 169.494 72.6221C169.191 72.8317 169.039 73.096 169.039 73.415C169.039 73.6976 169.142 73.9243 169.347 74.0952C169.552 74.2661 169.878 74.404 170.324 74.5088L171.479 74.7822C172.172 74.9463 172.685 75.2004 173.018 75.5444C173.35 75.8885 173.517 76.3226 173.517 76.8467C173.517 77.2933 173.39 77.6909 173.137 78.0396C172.884 78.3882 172.531 78.6628 172.078 78.8633C171.624 79.0638 171.099 79.1641 170.502 79.1641ZM175.294 79V71.3574H176.524V79H175.294ZM175.916 70.1064C175.684 70.1064 175.483 70.0267 175.314 69.8672C175.146 69.7077 175.062 69.5163 175.062 69.293C175.062 69.0651 175.146 68.8726 175.314 68.7153C175.483 68.5581 175.684 68.4795 175.916 68.4795C176.153 68.4795 176.356 68.5581 176.524 68.7153C176.693 68.8726 176.777 69.0651 176.777 69.293C176.777 69.5163 176.693 69.7077 176.524 69.8672C176.356 70.0267 176.153 70.1064 175.916 70.1064ZM181.795 79.1641C181.102 79.1641 180.495 79 179.973 78.6719C179.451 78.3438 179.045 77.8835 178.753 77.291C178.461 76.6986 178.315 76.0104 178.315 75.2266C178.315 74.429 178.461 73.7329 178.753 73.1382C179.045 72.5435 179.451 72.082 179.973 71.7539C180.495 71.4258 181.102 71.2617 181.795 71.2617C182.492 71.2617 183.103 71.4258 183.627 71.7539C184.151 72.082 184.559 72.5435 184.851 73.1382C185.142 73.7329 185.288 74.429 185.288 75.2266C185.288 76.0104 185.142 76.6986 184.851 77.291C184.559 77.8835 184.151 78.3438 183.627 78.6719C183.103 79 182.492 79.1641 181.795 79.1641ZM181.795 78.0635C182.31 78.0635 182.734 77.9313 183.066 77.667C183.399 77.4027 183.645 77.0552 183.805 76.6245C183.964 76.1938 184.044 75.7279 184.044 75.2266C184.044 74.7207 183.964 74.2502 183.805 73.8149C183.645 73.3797 183.399 73.0288 183.066 72.7622C182.734 72.4956 182.31 72.3623 181.795 72.3623C181.285 72.3623 180.865 72.4956 180.537 72.7622C180.209 73.0288 179.965 73.3786 179.806 73.8115C179.646 74.2445 179.566 74.7161 179.566 75.2266C179.566 75.7279 179.646 76.1938 179.806 76.6245C179.965 77.0552 180.209 77.4027 180.537 77.667C180.865 77.9313 181.285 78.0635 181.795 78.0635ZM188.31 74.4199V79H187.079V71.3574H188.262L188.269 73.21H188.098C188.33 72.5036 188.662 72.0023 189.092 71.7061C189.523 71.4098 190.028 71.2617 190.606 71.2617C191.121 71.2617 191.573 71.3677 191.96 71.5796C192.347 71.7915 192.649 72.1105 192.866 72.5366C193.082 72.9627 193.19 73.4993 193.19 74.1465V79H191.96V74.249C191.96 73.6611 191.806 73.2008 191.499 72.8682C191.191 72.5355 190.771 72.3691 190.237 72.3691C189.873 72.3691 189.545 72.4489 189.253 72.6084C188.961 72.7679 188.731 73.0003 188.562 73.3057C188.394 73.611 188.31 73.9824 188.31 74.4199ZM199.288 81.8574V71.3574H200.478V72.5811H200.614C200.701 72.4443 200.822 72.2723 200.977 72.0649C201.132 71.8576 201.355 71.6719 201.646 71.5078C201.938 71.3438 202.332 71.2617 202.829 71.2617C203.467 71.2617 204.029 71.4212 204.514 71.7402C205 72.0592 205.38 72.5138 205.656 73.104C205.931 73.6942 206.069 74.3926 206.069 75.1992C206.069 76.0104 205.933 76.7122 205.659 77.3047C205.386 77.8971 205.006 78.3551 204.521 78.6787C204.036 79.0023 203.474 79.1641 202.836 79.1641C202.353 79.1641 201.963 79.0809 201.667 78.9146C201.371 78.7482 201.143 78.5591 200.983 78.3472C200.824 78.1353 200.701 77.9587 200.614 77.8174H200.519V81.8574H199.288ZM202.651 78.0635C203.13 78.0635 203.53 77.9347 203.851 77.6772C204.172 77.4198 204.414 77.0734 204.576 76.6382C204.737 76.203 204.818 75.7188 204.818 75.1855C204.818 74.6569 204.739 74.1795 204.579 73.7534C204.42 73.3273 204.179 72.9889 203.858 72.7383C203.537 72.4876 203.134 72.3623 202.651 72.3623C202.182 72.3623 201.788 72.4808 201.469 72.7178C201.15 72.9548 200.909 73.284 200.748 73.7056C200.586 74.1271 200.505 74.6204 200.505 75.1855C200.505 75.7507 200.587 76.2497 200.751 76.6826C200.915 77.1156 201.158 77.4539 201.479 77.6978C201.8 77.9416 202.191 78.0635 202.651 78.0635ZM210.137 79.1777C209.654 79.1777 209.215 79.0866 208.821 78.9043C208.427 78.722 208.113 78.4554 207.881 78.1045C207.648 77.7536 207.532 77.3275 207.532 76.8262C207.532 76.3887 207.619 76.0332 207.792 75.7598C207.965 75.4863 208.196 75.271 208.486 75.1138C208.775 74.9565 209.095 74.8392 209.446 74.7617C209.797 74.6842 210.15 74.6227 210.506 74.5771C210.962 74.5179 211.333 74.4723 211.62 74.4404C211.907 74.4085 212.12 74.3538 212.259 74.2764C212.398 74.1989 212.468 74.0667 212.468 73.8799V73.8389C212.468 73.5199 212.409 73.2498 212.29 73.0288C212.172 72.8078 211.994 72.638 211.757 72.5195C211.52 72.401 211.224 72.3418 210.868 72.3418C210.504 72.3418 210.191 72.3988 209.932 72.5127C209.672 72.6266 209.461 72.769 209.299 72.9399C209.138 73.1108 209.016 73.2852 208.934 73.4629L207.751 73.0732C207.947 72.6084 208.211 72.245 208.544 71.9829C208.877 71.7209 209.243 71.5352 209.645 71.4258C210.046 71.3164 210.442 71.2617 210.834 71.2617C211.089 71.2617 211.38 71.2925 211.706 71.354C212.031 71.4155 212.346 71.5374 212.649 71.7197C212.952 71.902 213.203 72.172 213.401 72.5298C213.599 72.8875 213.698 73.3649 213.698 73.9619V79H212.488V77.9609H212.406C212.32 78.1387 212.181 78.3221 211.989 78.5112C211.798 78.7004 211.549 78.8587 211.244 78.9863C210.939 79.1139 210.57 79.1777 210.137 79.1777ZM210.349 78.0908C210.804 78.0908 211.189 78.002 211.504 77.8242C211.818 77.6465 212.058 77.4152 212.222 77.1304C212.386 76.8455 212.468 76.5482 212.468 76.2383V75.1787C212.418 75.238 212.308 75.2915 212.14 75.3394C211.971 75.3872 211.778 75.4294 211.562 75.4658C211.346 75.5023 211.136 75.533 210.933 75.5581C210.73 75.5832 210.57 75.6025 210.451 75.6162C210.155 75.6527 209.878 75.7153 209.621 75.8042C209.363 75.8931 209.157 76.0229 209.002 76.1938C208.847 76.3647 208.77 76.596 208.77 76.8877C208.77 77.152 208.838 77.373 208.975 77.5508C209.111 77.7285 209.298 77.863 209.535 77.9541C209.772 78.0452 210.043 78.0908 210.349 78.0908ZM215.53 81.7686L215.845 80.7021L215.975 80.7363C216.225 80.8001 216.453 80.8172 216.658 80.7876C216.863 80.758 217.048 80.6566 217.212 80.4834C217.376 80.3102 217.52 80.0413 217.643 79.6768L217.861 79.041L214.942 71.3574H216.289L217.916 75.8896C218.089 76.3636 218.235 76.833 218.354 77.2979C218.472 77.7627 218.597 78.2139 218.729 78.6514H218.278C218.41 78.2139 218.537 77.7616 218.658 77.2944C218.778 76.8273 218.923 76.359 219.092 75.8896L220.732 71.3574H222.072L218.716 80.1416C218.561 80.5472 218.375 80.881 218.159 81.1431C217.942 81.4051 217.69 81.5988 217.403 81.7241C217.116 81.8494 216.793 81.9121 216.433 81.9121C216.214 81.9121 216.025 81.8962 215.865 81.8643C215.706 81.8324 215.594 81.8005 215.53 81.7686ZM223.521 79V71.3574H224.718L224.725 73.0664H224.629C224.734 72.6517 224.899 72.3088 225.125 72.0376C225.35 71.7664 225.614 71.5625 225.917 71.4258C226.221 71.2891 226.536 71.2207 226.864 71.2207C227.42 71.2207 227.87 71.3916 228.214 71.7334C228.558 72.0752 228.781 72.5241 228.881 73.0801H228.717C228.808 72.6973 228.974 72.3669 229.216 72.0889C229.457 71.8109 229.75 71.5967 230.094 71.4463C230.438 71.2959 230.813 71.2207 231.219 71.2207C231.661 71.2207 232.064 71.3164 232.429 71.5078C232.793 71.6992 233.084 71.9886 233.3 72.376C233.517 72.7633 233.625 73.2533 233.625 73.8457V79H232.395V73.8799C232.395 73.3285 232.24 72.9342 231.93 72.6973C231.62 72.4603 231.26 72.3418 230.85 72.3418C230.508 72.3418 230.213 72.4136 229.964 72.5571C229.716 72.7007 229.525 72.8978 229.39 73.1484C229.256 73.3991 229.188 73.6862 229.188 74.0098V79H227.958V73.7568C227.958 73.333 227.817 72.9912 227.534 72.7314C227.252 72.4717 226.894 72.3418 226.461 72.3418C226.165 72.3418 225.886 72.4113 225.624 72.5503C225.361 72.6893 225.151 72.8955 224.991 73.1689C224.832 73.4424 224.752 73.7819 224.752 74.1875V79H223.521ZM238.998 79.1641C238.26 79.1641 237.623 79 237.087 78.6719C236.552 78.3438 236.139 77.8857 235.85 77.2979C235.561 76.71 235.416 76.0241 235.416 75.2402C235.416 74.4564 235.557 73.766 235.84 73.1689C236.122 72.5719 236.522 72.1048 237.04 71.7676C237.557 71.4303 238.162 71.2617 238.854 71.2617C239.26 71.2617 239.66 71.3289 240.054 71.4634C240.448 71.5978 240.806 71.8143 241.127 72.1128C241.449 72.4113 241.705 72.8044 241.896 73.292C242.088 73.7796 242.184 74.3766 242.184 75.083V75.5957H236.25V74.5566H241.521L240.946 74.9395C240.946 74.4382 240.868 73.9927 240.71 73.603C240.553 73.2134 240.32 72.908 240.01 72.687C239.7 72.466 239.315 72.3555 238.854 72.3555C238.394 72.3555 238 72.4683 237.672 72.6938C237.344 72.9194 237.093 73.2134 236.92 73.5757C236.747 73.938 236.66 74.3265 236.66 74.7412V75.4316C236.66 75.9967 236.758 76.4764 236.954 76.8706C237.15 77.2648 237.425 77.5633 237.778 77.7661C238.131 77.9689 238.54 78.0703 239.005 78.0703C239.306 78.0703 239.579 78.027 239.825 77.9404C240.071 77.8538 240.283 77.7228 240.461 77.5474C240.639 77.3719 240.775 77.1543 240.871 76.8945L242.061 77.2227C241.942 77.6055 241.742 77.9427 241.459 78.2344C241.176 78.526 240.827 78.7539 240.41 78.918C239.993 79.082 239.522 79.1641 238.998 79.1641ZM245.178 74.4199V79H243.947V71.3574H245.13L245.137 73.21H244.966C245.198 72.5036 245.53 72.0023 245.96 71.7061C246.391 71.4098 246.896 71.2617 247.475 71.2617C247.99 71.2617 248.441 71.3677 248.828 71.5796C249.215 71.7915 249.517 72.1105 249.734 72.5366C249.95 72.9627 250.059 73.4993 250.059 74.1465V79H248.828V74.249C248.828 73.6611 248.674 73.2008 248.367 72.8682C248.059 72.5355 247.639 72.3691 247.105 72.3691C246.741 72.3691 246.413 72.4489 246.121 72.6084C245.829 72.7679 245.599 73.0003 245.431 73.3057C245.262 73.611 245.178 73.9824 245.178 74.4199ZM255.227 71.3574V72.4102H251.275V71.3574H255.227ZM252.424 69.5391H253.654V77.0176C253.654 77.3594 253.724 77.6089 253.863 77.7661C254.002 77.9233 254.233 78.002 254.557 78.002C254.634 78.002 254.733 77.9928 254.854 77.9746C254.975 77.9564 255.085 77.9382 255.186 77.9199L255.438 78.959C255.311 79.0046 255.166 79.0387 255.004 79.0615C254.843 79.0843 254.682 79.0957 254.522 79.0957C253.862 79.0957 253.347 78.9214 252.978 78.5728C252.608 78.2241 252.424 77.7376 252.424 77.1133V69.5391ZM259.26 79.1641C258.736 79.1641 258.27 79.0877 257.862 78.9351C257.454 78.7824 257.118 78.5557 256.854 78.2549C256.589 77.9541 256.411 77.585 256.32 77.1475L257.489 76.8672C257.599 77.2865 257.805 77.5941 258.108 77.79C258.411 77.986 258.79 78.084 259.246 78.084C259.779 78.084 260.204 77.9701 260.521 77.7422C260.838 77.5143 260.996 77.2432 260.996 76.9287C260.996 76.6644 260.904 76.4445 260.719 76.269C260.535 76.0936 260.253 75.9626 259.875 75.876L258.604 75.5752C257.911 75.4111 257.396 75.1571 257.059 74.813C256.721 74.4689 256.553 74.028 256.553 73.4902C256.553 73.0527 256.676 72.6665 256.922 72.3315C257.168 71.9966 257.504 71.7345 257.93 71.5454C258.356 71.3563 258.84 71.2617 259.383 71.2617C259.907 71.2617 260.352 71.3403 260.719 71.4976C261.086 71.6548 261.385 71.8713 261.615 72.147C261.845 72.4227 262.017 72.7406 262.131 73.1006L261.017 73.3877C260.912 73.1143 260.737 72.8659 260.494 72.6426C260.25 72.4193 259.882 72.3076 259.39 72.3076C258.934 72.3076 258.555 72.4124 258.251 72.6221C257.948 72.8317 257.797 73.096 257.797 73.415C257.797 73.6976 257.899 73.9243 258.104 74.0952C258.31 74.2661 258.635 74.404 259.082 74.5088L260.237 74.7822C260.93 74.9463 261.443 75.2004 261.775 75.5444C262.108 75.8885 262.274 76.3226 262.274 76.8467C262.274 77.2933 262.148 77.6909 261.895 78.0396C261.642 78.3882 261.289 78.6628 260.835 78.8633C260.382 79.0638 259.857 79.1641 259.26 79.1641ZM270.129 79.1777C269.646 79.1777 269.207 79.0866 268.813 78.9043C268.419 78.722 268.105 78.4554 267.873 78.1045C267.641 77.7536 267.524 77.3275 267.524 76.8262C267.524 76.3887 267.611 76.0332 267.784 75.7598C267.957 75.4863 268.189 75.271 268.478 75.1138C268.767 74.9565 269.088 74.8392 269.438 74.7617C269.789 74.6842 270.143 74.6227 270.498 74.5771C270.954 74.5179 271.325 74.4723 271.612 74.4404C271.899 74.4085 272.112 74.3538 272.251 74.2764C272.39 74.1989 272.46 74.0667 272.46 73.8799V73.8389C272.46 73.5199 272.401 73.2498 272.282 73.0288C272.164 72.8078 271.986 72.638 271.749 72.5195C271.512 72.401 271.216 72.3418 270.86 72.3418C270.496 72.3418 270.184 72.3988 269.924 72.5127C269.664 72.6266 269.453 72.769 269.292 72.9399C269.13 73.1108 269.008 73.2852 268.926 73.4629L267.743 73.0732C267.939 72.6084 268.203 72.245 268.536 71.9829C268.869 71.7209 269.236 71.5352 269.637 71.4258C270.038 71.3164 270.434 71.2617 270.826 71.2617C271.081 71.2617 271.372 71.2925 271.698 71.354C272.024 71.4155 272.338 71.5374 272.641 71.7197C272.944 71.902 273.195 72.172 273.393 72.5298C273.591 72.8875 273.69 73.3649 273.69 73.9619V79H272.48V77.9609H272.398C272.312 78.1387 272.173 78.3221 271.981 78.5112C271.79 78.7004 271.542 78.8587 271.236 78.9863C270.931 79.1139 270.562 79.1777 270.129 79.1777ZM270.341 78.0908C270.797 78.0908 271.182 78.002 271.496 77.8242C271.811 77.6465 272.05 77.4152 272.214 77.1304C272.378 76.8455 272.46 76.5482 272.46 76.2383V75.1787C272.41 75.238 272.3 75.2915 272.132 75.3394C271.963 75.3872 271.771 75.4294 271.554 75.4658C271.338 75.5023 271.128 75.533 270.925 75.5581C270.722 75.5832 270.562 75.6025 270.443 75.6162C270.147 75.6527 269.87 75.7153 269.613 75.8042C269.355 75.8931 269.149 76.0229 268.994 76.1938C268.839 76.3647 268.762 76.596 268.762 76.8877C268.762 77.152 268.83 77.373 268.967 77.5508C269.104 77.7285 269.29 77.863 269.527 77.9541C269.764 78.0452 270.035 78.0908 270.341 78.0908ZM277.081 74.4199V79H275.851V71.3574H277.033L277.04 73.21H276.869C277.102 72.5036 277.433 72.0023 277.864 71.7061C278.294 71.4098 278.799 71.2617 279.378 71.2617C279.893 71.2617 280.344 71.3677 280.731 71.5796C281.119 71.7915 281.421 72.1105 281.637 72.5366C281.854 72.9627 281.962 73.4993 281.962 74.1465V79H280.731V74.249C280.731 73.6611 280.578 73.2008 280.27 72.8682C279.962 72.5355 279.542 72.3691 279.009 72.3691C278.644 72.3691 278.316 72.4489 278.024 72.6084C277.733 72.7679 277.503 73.0003 277.334 73.3057C277.165 73.611 277.081 73.9824 277.081 74.4199ZM286.986 79.1641C286.353 79.1641 285.792 79.0023 285.305 78.6787C284.817 78.3551 284.437 77.8971 284.163 77.3047C283.89 76.7122 283.753 76.0104 283.753 75.1992C283.753 74.3926 283.891 73.6942 284.167 73.104C284.442 72.5138 284.824 72.0592 285.312 71.7402C285.799 71.4212 286.36 71.2617 286.993 71.2617C287.49 71.2617 287.884 71.3438 288.176 71.5078C288.467 71.6719 288.692 71.8576 288.849 72.0649C289.006 72.2723 289.126 72.4443 289.208 72.5811H289.304V68.8145H290.534V79H289.345V77.8174H289.208C289.126 77.9587 289.004 78.1353 288.842 78.3472C288.681 78.5591 288.453 78.7482 288.159 78.9146C287.865 79.0809 287.474 79.1641 286.986 79.1641ZM287.171 78.0635C287.636 78.0635 288.028 77.9416 288.347 77.6978C288.666 77.4539 288.907 77.1156 289.071 76.6826C289.235 76.2497 289.317 75.7507 289.317 75.1855C289.317 74.6204 289.236 74.1271 289.075 73.7056C288.913 73.284 288.673 72.9548 288.354 72.7178C288.035 72.4808 287.64 72.3623 287.171 72.3623C286.688 72.3623 286.286 72.4876 285.964 72.7383C285.643 72.9889 285.403 73.3273 285.243 73.7534C285.084 74.1795 285.004 74.6569 285.004 75.1855C285.004 75.7188 285.085 76.203 285.247 76.6382C285.408 77.0734 285.651 77.4198 285.975 77.6772C286.298 77.9347 286.697 78.0635 287.171 78.0635ZM296.632 79V71.3574H297.821V72.5332H297.903C298.045 72.1458 298.296 71.8348 298.659 71.6001C299.021 71.3654 299.43 71.248 299.886 71.248C299.977 71.248 300.085 71.2503 300.21 71.2549C300.336 71.2594 300.435 71.264 300.508 71.2686V72.5059C300.471 72.4967 300.38 72.4831 300.234 72.4648C300.089 72.4466 299.934 72.4375 299.77 72.4375C299.405 72.4375 299.078 72.5138 298.789 72.6665C298.499 72.8192 298.272 73.0288 298.108 73.2954C297.944 73.562 297.862 73.8685 297.862 74.2148V79H296.632ZM304.883 79.1641C304.145 79.1641 303.508 79 302.972 78.6719C302.437 78.3438 302.024 77.8857 301.735 77.2979C301.445 76.71 301.301 76.0241 301.301 75.2402C301.301 74.4564 301.442 73.766 301.725 73.1689C302.007 72.5719 302.407 72.1048 302.924 71.7676C303.442 71.4303 304.047 71.2617 304.739 71.2617C305.145 71.2617 305.545 71.3289 305.939 71.4634C306.333 71.5978 306.691 71.8143 307.012 72.1128C307.333 72.4113 307.59 72.8044 307.781 73.292C307.973 73.7796 308.068 74.3766 308.068 75.083V75.5957H302.135V74.5566H307.405L306.831 74.9395C306.831 74.4382 306.752 73.9927 306.595 73.603C306.438 73.2134 306.204 72.908 305.895 72.687C305.585 72.466 305.2 72.3555 304.739 72.3555C304.279 72.3555 303.885 72.4683 303.557 72.6938C303.229 72.9194 302.978 73.2134 302.805 73.5757C302.632 73.938 302.545 74.3265 302.545 74.7412V75.4316C302.545 75.9967 302.643 76.4764 302.839 76.8706C303.035 77.2648 303.309 77.5633 303.663 77.7661C304.016 77.9689 304.425 78.0703 304.89 78.0703C305.19 78.0703 305.464 78.027 305.71 77.9404C305.956 77.8538 306.168 77.7228 306.346 77.5474C306.523 77.3719 306.66 77.1543 306.756 76.8945L307.945 77.2227C307.827 77.6055 307.626 77.9427 307.344 78.2344C307.061 78.526 306.711 78.7539 306.294 78.918C305.877 79.082 305.407 79.1641 304.883 79.1641ZM312.942 79.1641C312.25 79.1641 311.642 79 311.121 78.6719C310.599 78.3438 310.192 77.8835 309.9 77.291C309.609 76.6986 309.463 76.0104 309.463 75.2266C309.463 74.429 309.609 73.7329 309.9 73.1382C310.192 72.5435 310.599 72.082 311.121 71.7539C311.642 71.4258 312.25 71.2617 312.942 71.2617C313.312 71.2617 313.66 71.3096 313.988 71.4053C314.316 71.501 314.616 71.6388 314.887 71.8188C315.158 71.9989 315.392 72.2199 315.588 72.4819C315.784 72.744 315.934 73.0413 316.039 73.374L314.856 73.709C314.802 73.513 314.717 73.333 314.604 73.1689C314.49 73.0049 314.352 72.8625 314.19 72.7417C314.028 72.6209 313.842 72.5275 313.633 72.4614C313.423 72.3953 313.193 72.3623 312.942 72.3623C312.432 72.3623 312.013 72.4956 311.685 72.7622C311.356 73.0288 311.113 73.3786 310.953 73.8115C310.794 74.2445 310.714 74.7161 310.714 75.2266C310.714 75.7279 310.794 76.1938 310.953 76.6245C311.113 77.0552 311.356 77.4027 311.685 77.667C312.013 77.9313 312.432 78.0635 312.942 78.0635C313.198 78.0635 313.432 78.0293 313.646 77.9609C313.861 77.8926 314.051 77.7957 314.217 77.6704C314.384 77.5451 314.524 77.3958 314.638 77.2227C314.752 77.0495 314.836 76.8604 314.891 76.6553L316.066 76.9902C315.966 77.332 315.817 77.6362 315.619 77.9028C315.42 78.1694 315.185 78.3973 314.911 78.5864C314.638 78.7756 314.335 78.9191 314.002 79.0171C313.669 79.1151 313.316 79.1641 312.942 79.1641ZM320.421 79.0957C319.906 79.0957 319.454 78.9897 319.064 78.7778C318.674 78.5659 318.371 78.2458 318.155 77.8174C317.938 77.389 317.83 76.8535 317.83 76.2109V71.3574H319.061V76.1084C319.061 76.6963 319.215 77.1566 319.525 77.4893C319.835 77.8219 320.257 77.9883 320.79 77.9883C321.155 77.9883 321.482 77.9085 321.771 77.749C322.06 77.5895 322.289 77.356 322.458 77.0483C322.627 76.7407 322.711 76.3704 322.711 75.9375V71.3574H323.948V79H322.759V77.1475H322.923C322.686 77.863 322.35 78.3665 321.915 78.6582C321.479 78.9499 320.981 79.0957 320.421 79.0957ZM326.108 79V71.3574H327.298V72.5332H327.38C327.521 72.1458 327.773 71.8348 328.135 71.6001C328.498 71.3654 328.907 71.248 329.362 71.248C329.453 71.248 329.562 71.2503 329.687 71.2549C329.812 71.2594 329.911 71.264 329.984 71.2686V72.5059C329.948 72.4967 329.857 72.4831 329.711 72.4648C329.565 72.4466 329.41 72.4375 329.246 72.4375C328.882 72.4375 328.555 72.5138 328.265 72.6665C327.976 72.8192 327.749 73.0288 327.585 73.2954C327.421 73.562 327.339 73.8685 327.339 74.2148V79H326.108ZM331.598 79V71.3574H332.787V72.5332H332.869C333.01 72.1458 333.262 71.8348 333.625 71.6001C333.987 71.3654 334.396 71.248 334.852 71.248C334.943 71.248 335.051 71.2503 335.176 71.2549C335.302 71.2594 335.401 71.264 335.474 71.2686V72.5059C335.437 72.4967 335.346 72.4831 335.2 72.4648C335.054 72.4466 334.899 72.4375 334.735 72.4375C334.371 72.4375 334.044 72.5138 333.754 72.6665C333.465 72.8192 333.238 73.0288 333.074 73.2954C332.91 73.562 332.828 73.8685 332.828 74.2148V79H331.598ZM337.005 79V71.3574H338.235V79H337.005ZM337.627 70.1064C337.395 70.1064 337.194 70.0267 337.025 69.8672C336.857 69.7077 336.772 69.5163 336.772 69.293C336.772 69.0651 336.857 68.8726 337.025 68.7153C337.194 68.5581 337.395 68.4795 337.627 68.4795C337.864 68.4795 338.067 68.5581 338.235 68.7153C338.404 68.8726 338.488 69.0651 338.488 69.293C338.488 69.5163 338.404 69.7077 338.235 69.8672C338.067 70.0267 337.864 70.1064 337.627 70.1064ZM341.626 74.4199V79H340.396V71.3574H341.578L341.585 73.21H341.414C341.646 72.5036 341.978 72.0023 342.409 71.7061C342.839 71.4098 343.344 71.2617 343.923 71.2617C344.438 71.2617 344.889 71.3677 345.276 71.5796C345.664 71.7915 345.966 72.1105 346.182 72.5366C346.399 72.9627 346.507 73.4993 346.507 74.1465V79H345.276V74.249C345.276 73.6611 345.123 73.2008 344.815 72.8682C344.507 72.5355 344.087 72.3691 343.554 72.3691C343.189 72.3691 342.861 72.4489 342.569 72.6084C342.278 72.7679 342.048 73.0003 341.879 73.3057C341.71 73.611 341.626 73.9824 341.626 74.4199ZM351.764 82.0215C351.199 82.0215 350.71 81.9497 350.297 81.8062C349.885 81.6626 349.542 81.4723 349.269 81.2354C348.995 80.9984 348.779 80.7409 348.619 80.4629L349.617 79.8203C349.727 79.9661 349.862 80.1279 350.024 80.3057C350.186 80.4834 350.404 80.6349 350.68 80.7603C350.956 80.8856 351.317 80.9482 351.764 80.9482C352.374 80.9482 352.877 80.8024 353.271 80.5107C353.665 80.2191 353.862 79.7588 353.862 79.1299V77.5986H353.746C353.66 77.7445 353.538 77.9176 353.38 78.1182C353.223 78.3187 352.998 78.4953 352.704 78.6479C352.41 78.8006 352.017 78.877 351.524 78.877C350.914 78.877 350.365 78.7323 349.877 78.4429C349.389 78.1535 349.004 77.7308 348.722 77.1748C348.439 76.6188 348.298 75.9421 348.298 75.1445C348.298 74.3561 348.437 73.6714 348.715 73.0903C348.993 72.5093 349.377 72.0592 349.867 71.7402C350.357 71.4212 350.918 71.2617 351.552 71.2617C352.044 71.2617 352.437 71.3426 352.731 71.5044C353.025 71.6662 353.252 71.8519 353.411 72.0615C353.571 72.2712 353.694 72.4443 353.78 72.5811H353.896V71.3574H355.093V79.1982C355.093 79.8545 354.945 80.3911 354.648 80.8081C354.352 81.2251 353.952 81.5316 353.449 81.7275C352.945 81.9235 352.383 82.0215 351.764 82.0215ZM351.729 77.7832C352.194 77.7832 352.586 77.6772 352.905 77.4653C353.224 77.2534 353.466 76.9481 353.63 76.5493C353.794 76.1506 353.876 75.6732 353.876 75.1172C353.876 74.5749 353.795 74.0975 353.633 73.6851C353.472 73.2726 353.231 72.9491 352.912 72.7144C352.593 72.4797 352.199 72.3623 351.729 72.3623C351.246 72.3623 350.843 72.4865 350.52 72.7349C350.196 72.9832 349.953 73.3148 349.792 73.7295C349.63 74.1442 349.549 74.6068 349.549 75.1172C349.549 75.6413 349.631 76.1038 349.795 76.5049C349.959 76.9059 350.203 77.2192 350.526 77.4448C350.85 77.6704 351.251 77.7832 351.729 77.7832ZM364.403 79.1641C363.665 79.1641 363.028 79 362.493 78.6719C361.957 78.3438 361.545 77.8857 361.255 77.2979C360.966 76.71 360.821 76.0241 360.821 75.2402C360.821 74.4564 360.963 73.766 361.245 73.1689C361.528 72.5719 361.928 72.1048 362.445 71.7676C362.962 71.4303 363.567 71.2617 364.26 71.2617C364.665 71.2617 365.065 71.3289 365.459 71.4634C365.854 71.5978 366.211 71.8143 366.533 72.1128C366.854 72.4113 367.11 72.8044 367.302 73.292C367.493 73.7796 367.589 74.3766 367.589 75.083V75.5957H361.655V74.5566H366.926L366.352 74.9395C366.352 74.4382 366.273 73.9927 366.116 73.603C365.958 73.2134 365.725 72.908 365.415 72.687C365.105 72.466 364.72 72.3555 364.26 72.3555C363.799 72.3555 363.405 72.4683 363.077 72.6938C362.749 72.9194 362.498 73.2134 362.325 73.5757C362.152 73.938 362.065 74.3265 362.065 74.7412V75.4316C362.065 75.9967 362.163 76.4764 362.359 76.8706C362.555 77.2648 362.83 77.5633 363.183 77.7661C363.536 77.9689 363.945 78.0703 364.41 78.0703C364.711 78.0703 364.984 78.027 365.23 77.9404C365.477 77.8538 365.688 77.7228 365.866 77.5474C366.044 77.3719 366.181 77.1543 366.276 76.8945L367.466 77.2227C367.347 77.6055 367.147 77.9427 366.864 78.2344C366.582 78.526 366.232 78.7539 365.815 78.918C365.398 79.082 364.927 79.1641 364.403 79.1641ZM368.402 79L371.417 74.6045L371.41 75.5479L368.56 71.3574H369.995L370.945 72.8408C371.191 73.2236 371.404 73.5814 371.584 73.9141C371.764 74.2467 371.95 74.568 372.142 74.8779H371.499C371.695 74.568 371.874 74.2467 372.036 73.9141C372.197 73.5814 372.404 73.2236 372.654 72.8408L373.625 71.3574H375.033L372.169 75.6025V74.6934L375.156 79H373.728L372.606 77.2842C372.365 76.9105 372.156 76.563 371.981 76.2417C371.806 75.9204 371.624 75.6117 371.438 75.3154H372.087C371.9 75.6117 371.727 75.9204 371.567 76.2417C371.408 76.563 371.205 76.9105 370.959 77.2842L369.824 79H368.402ZM376.681 81.8574V71.3574H377.87V72.5811H378.007C378.093 72.4443 378.214 72.2723 378.369 72.0649C378.524 71.8576 378.747 71.6719 379.039 71.5078C379.331 71.3438 379.725 71.2617 380.222 71.2617C380.86 71.2617 381.421 71.4212 381.907 71.7402C382.392 72.0592 382.773 72.5138 383.048 73.104C383.324 73.6942 383.462 74.3926 383.462 75.1992C383.462 76.0104 383.325 76.7122 383.052 77.3047C382.778 77.8971 382.399 78.3551 381.914 78.6787C381.428 79.0023 380.867 79.1641 380.229 79.1641C379.745 79.1641 379.356 79.0809 379.06 78.9146C378.763 78.7482 378.535 78.5591 378.376 78.3472C378.216 78.1353 378.093 77.9587 378.007 77.8174H377.911V81.8574H376.681ZM380.044 78.0635C380.522 78.0635 380.922 77.9347 381.244 77.6772C381.565 77.4198 381.806 77.0734 381.968 76.6382C382.13 76.203 382.211 75.7188 382.211 75.1855C382.211 74.6569 382.131 74.1795 381.972 73.7534C381.812 73.3273 381.572 72.9889 381.25 72.7383C380.929 72.4876 380.527 72.3623 380.044 72.3623C379.575 72.3623 379.18 72.4808 378.861 72.7178C378.542 72.9548 378.302 73.284 378.14 73.7056C377.978 74.1271 377.897 74.6204 377.897 75.1855C377.897 75.7507 377.979 76.2497 378.144 76.6826C378.308 77.1156 378.55 77.4539 378.872 77.6978C379.193 77.9416 379.584 78.0635 380.044 78.0635ZM388.466 79.1641C387.728 79.1641 387.091 79 386.555 78.6719C386.02 78.3438 385.607 77.8857 385.318 77.2979C385.028 76.71 384.884 76.0241 384.884 75.2402C384.884 74.4564 385.025 73.766 385.308 73.1689C385.59 72.5719 385.99 72.1048 386.507 71.7676C387.025 71.4303 387.63 71.2617 388.322 71.2617C388.728 71.2617 389.128 71.3289 389.522 71.4634C389.916 71.5978 390.274 71.8143 390.595 72.1128C390.917 72.4113 391.173 72.8044 391.364 73.292C391.556 73.7796 391.651 74.3766 391.651 75.083V75.5957H385.718V74.5566H390.988L390.414 74.9395C390.414 74.4382 390.335 73.9927 390.178 73.603C390.021 73.2134 389.787 72.908 389.478 72.687C389.168 72.466 388.783 72.3555 388.322 72.3555C387.862 72.3555 387.468 72.4683 387.14 72.6938C386.812 72.9194 386.561 73.2134 386.388 73.5757C386.215 73.938 386.128 74.3265 386.128 74.7412V75.4316C386.128 75.9967 386.226 76.4764 386.422 76.8706C386.618 77.2648 386.892 77.5633 387.246 77.7661C387.599 77.9689 388.008 78.0703 388.473 78.0703C388.773 78.0703 389.047 78.027 389.293 77.9404C389.539 77.8538 389.751 77.7228 389.929 77.5474C390.106 77.3719 390.243 77.1543 390.339 76.8945L391.528 77.2227C391.41 77.6055 391.209 77.9427 390.927 78.2344C390.644 78.526 390.294 78.7539 389.877 78.918C389.46 79.082 388.99 79.1641 388.466 79.1641ZM394.646 74.4199V79H393.415V71.3574H394.598L394.604 73.21H394.434C394.666 72.5036 394.998 72.0023 395.428 71.7061C395.859 71.4098 396.364 71.2617 396.942 71.2617C397.457 71.2617 397.909 71.3677 398.296 71.5796C398.683 71.7915 398.985 72.1105 399.202 72.5366C399.418 72.9627 399.526 73.4993 399.526 74.1465V79H398.296V74.249C398.296 73.6611 398.142 73.2008 397.834 72.8682C397.527 72.5355 397.106 72.3691 396.573 72.3691C396.209 72.3691 395.881 72.4489 395.589 72.6084C395.297 72.7679 395.067 73.0003 394.898 73.3057C394.73 73.611 394.646 73.9824 394.646 74.4199ZM404.284 79.1641C403.76 79.1641 403.294 79.0877 402.886 78.9351C402.478 78.7824 402.142 78.5557 401.878 78.2549C401.614 77.9541 401.436 77.585 401.345 77.1475L402.514 76.8672C402.623 77.2865 402.829 77.5941 403.132 77.79C403.435 77.986 403.815 78.084 404.271 78.084C404.804 78.084 405.229 77.9701 405.545 77.7422C405.862 77.5143 406.021 77.2432 406.021 76.9287C406.021 76.6644 405.928 76.4445 405.744 76.269C405.559 76.0936 405.278 75.9626 404.899 75.876L403.628 75.5752C402.935 75.4111 402.42 75.1571 402.083 74.813C401.746 74.4689 401.577 74.028 401.577 73.4902C401.577 73.0527 401.7 72.6665 401.946 72.3315C402.192 71.9966 402.528 71.7345 402.955 71.5454C403.381 71.3563 403.865 71.2617 404.407 71.2617C404.931 71.2617 405.377 71.3403 405.744 71.4976C406.111 71.6548 406.409 71.8713 406.639 72.147C406.869 72.4227 407.041 72.7406 407.155 73.1006L406.041 73.3877C405.936 73.1143 405.762 72.8659 405.518 72.6426C405.274 72.4193 404.906 72.3076 404.414 72.3076C403.958 72.3076 403.579 72.4124 403.276 72.6221C402.973 72.8317 402.821 73.096 402.821 73.415C402.821 73.6976 402.924 73.9243 403.129 74.0952C403.334 74.2661 403.66 74.404 404.106 74.5088L405.262 74.7822C405.954 74.9463 406.467 75.2004 406.8 75.5444C407.132 75.8885 407.299 76.3226 407.299 76.8467C407.299 77.2933 407.172 77.6909 406.919 78.0396C406.667 78.3882 406.313 78.6628 405.86 78.8633C405.406 79.0638 404.881 79.1641 404.284 79.1641ZM412.289 79.1641C411.551 79.1641 410.914 79 410.378 78.6719C409.843 78.3438 409.431 77.8857 409.141 77.2979C408.852 76.71 408.707 76.0241 408.707 75.2402C408.707 74.4564 408.848 73.766 409.131 73.1689C409.413 72.5719 409.813 72.1048 410.331 71.7676C410.848 71.4303 411.453 71.2617 412.146 71.2617C412.551 71.2617 412.951 71.3289 413.345 71.4634C413.739 71.5978 414.097 71.8143 414.418 72.1128C414.74 72.4113 414.996 72.8044 415.188 73.292C415.379 73.7796 415.475 74.3766 415.475 75.083V75.5957H409.541V74.5566H414.812L414.237 74.9395C414.237 74.4382 414.159 73.9927 414.001 73.603C413.844 73.2134 413.611 72.908 413.301 72.687C412.991 72.466 412.606 72.3555 412.146 72.3555C411.685 72.3555 411.291 72.4683 410.963 72.6938C410.635 72.9194 410.384 73.2134 410.211 73.5757C410.038 73.938 409.951 74.3265 409.951 74.7412V75.4316C409.951 75.9967 410.049 76.4764 410.245 76.8706C410.441 77.2648 410.716 77.5633 411.069 77.7661C411.422 77.9689 411.831 78.0703 412.296 78.0703C412.597 78.0703 412.87 78.027 413.116 77.9404C413.362 77.8538 413.574 77.7228 413.752 77.5474C413.93 77.3719 414.066 77.1543 414.162 76.8945L415.352 77.2227C415.233 77.6055 415.033 77.9427 414.75 78.2344C414.467 78.526 414.118 78.7539 413.701 78.918C413.284 79.082 412.813 79.1641 412.289 79.1641ZM419.836 79.1641C419.312 79.1641 418.846 79.0877 418.438 78.9351C418.03 78.7824 417.694 78.5557 417.43 78.2549C417.165 77.9541 416.988 77.585 416.896 77.1475L418.065 76.8672C418.175 77.2865 418.381 77.5941 418.684 77.79C418.987 77.986 419.367 78.084 419.822 78.084C420.355 78.084 420.78 77.9701 421.097 77.7422C421.414 77.5143 421.572 77.2432 421.572 76.9287C421.572 76.6644 421.48 76.4445 421.295 76.269C421.111 76.0936 420.829 75.9626 420.451 75.876L419.18 75.5752C418.487 75.4111 417.972 75.1571 417.635 74.813C417.298 74.4689 417.129 74.028 417.129 73.4902C417.129 73.0527 417.252 72.6665 417.498 72.3315C417.744 71.9966 418.08 71.7345 418.506 71.5454C418.932 71.3563 419.417 71.2617 419.959 71.2617C420.483 71.2617 420.929 71.3403 421.295 71.4976C421.662 71.6548 421.961 71.8713 422.191 72.147C422.421 72.4227 422.593 72.7406 422.707 73.1006L421.593 73.3877C421.488 73.1143 421.314 72.8659 421.07 72.6426C420.826 72.4193 420.458 72.3076 419.966 72.3076C419.51 72.3076 419.131 72.4124 418.828 72.6221C418.525 72.8317 418.373 73.096 418.373 73.415C418.373 73.6976 418.476 73.9243 418.681 74.0952C418.886 74.2661 419.212 74.404 419.658 74.5088L420.813 74.7822C421.506 74.9463 422.019 75.2004 422.352 75.5444C422.684 75.8885 422.851 76.3226 422.851 76.8467C422.851 77.2933 422.724 77.6909 422.471 78.0396C422.218 78.3882 421.865 78.6628 421.412 78.8633C420.958 79.0638 420.433 79.1641 419.836 79.1641ZM425.564 79.0889C425.309 79.0889 425.092 78.9989 424.912 78.8188C424.732 78.6388 424.642 78.4212 424.642 78.166C424.642 77.9108 424.732 77.6932 424.912 77.5132C425.092 77.3332 425.309 77.2432 425.564 77.2432C425.82 77.2432 426.037 77.3332 426.217 77.5132C426.397 77.6932 426.487 77.9108 426.487 78.166C426.487 78.4212 426.397 78.6388 426.217 78.8188C426.037 78.9989 425.82 79.0889 425.564 79.0889Z" fill="#64748B"/>
<g filter="url(#filter0_d_3_2211)">
<rect x="926.98" y="23" width="133.213" height="38" rx="19" fill="white" shape-rendering="crispEdges"/>
<rect x="927.48" y="23.5" width="132.213" height="37" rx="18.5" stroke="#E2E8F0" shape-rendering="crispEdges"/>
<path d="M954.492 44.25V46.5H945.492V44.25H943.98V46.5C943.98 47.3086 944.683 48.0117 945.492 48.0117H954.492C955.3 48.0117 956.003 47.3086 956.003 46.5V44.25H954.492ZM953.753 41.2617L952.699 40.207L950.73 42.1406V35.9883H949.253V42.1406L947.285 40.207L946.23 41.2617L949.992 44.9883L953.753 41.2617Z" fill="#0F172A"/>
<path d="M965.032 47V36.8145H971.647V38.3517H966.857V41.0981H971.295V42.6157H966.857V45.4628H971.677V47H965.032ZM972.826 47L975.801 42.3879L975.797 43.7644L972.975 39.3574H974.93L975.708 40.6563C975.936 41.0456 976.139 41.4247 976.317 41.7935C976.494 42.1623 976.675 42.5188 976.858 42.8632H976.124C976.315 42.5205 976.495 42.1643 976.664 41.7947C976.834 41.4251 977.036 41.0456 977.272 40.6563L978.075 39.3574H979.993L977.134 43.7969V42.4448L980.106 47H978.163L977.224 45.4687C976.994 45.0836 976.79 44.7086 976.611 44.3438C976.432 43.9791 976.25 43.6289 976.065 43.2933H976.803C976.623 43.6289 976.45 43.9791 976.284 44.3438C976.117 44.7086 975.92 45.0836 975.69 45.4687L974.75 47H972.826ZM981.391 49.8574V39.3574H983.131V40.6229H983.244C983.335 40.4419 983.465 40.2456 983.633 40.0342C983.801 39.8227 984.03 39.6411 984.319 39.4894C984.608 39.3376 984.98 39.2617 985.434 39.2617C986.024 39.2617 986.556 39.4122 987.03 39.7132C987.504 40.0141 987.881 40.4572 988.161 41.0425C988.441 41.6277 988.581 42.345 988.581 43.1943C988.581 44.0301 988.444 44.7418 988.17 45.3293C987.897 45.9168 987.523 46.3654 987.048 46.675C986.574 46.9846 986.034 47.1395 985.428 47.1395C984.991 47.1395 984.627 47.0649 984.337 46.9158C984.046 46.7667 983.815 46.5878 983.642 46.3792C983.47 46.1705 983.337 45.9742 983.244 45.7903H983.168V49.8574H981.391ZM984.946 45.6771C985.344 45.6771 985.678 45.5689 985.946 45.3524C986.215 45.1359 986.418 44.8396 986.555 44.4635C986.693 44.0873 986.761 43.6613 986.761 43.1855C986.761 42.711 986.693 42.2886 986.558 41.9183C986.422 41.548 986.22 41.2563 985.951 41.0434C985.682 40.8305 985.347 40.724 984.946 40.724C984.555 40.724 984.225 40.8261 983.955 41.0303C983.686 41.2345 983.481 41.5203 983.342 41.8877C983.204 42.2551 983.134 42.6877 983.134 43.1855C983.134 43.6801 983.204 44.1143 983.345 44.4882C983.485 44.8621 983.691 45.1537 983.962 45.3631C984.233 45.5724 984.561 45.6771 984.946 45.6771ZM993.444 47.1542C992.702 47.1542 992.058 46.9897 991.51 46.6608C990.963 46.3319 990.54 45.8716 990.241 45.2799C989.942 44.6883 989.792 44.0006 989.792 43.2167C989.792 42.4241 989.942 41.7313 990.241 41.1382C990.54 40.5451 990.963 40.0841 991.51 39.7551C992.058 39.4262 992.702 39.2617 993.444 39.2617C994.189 39.2617 994.835 39.4262 995.382 39.7551C995.929 40.0841 996.352 40.5451 996.651 41.1382C996.95 41.7313 997.1 42.4241 997.1 43.2167C997.1 44.0006 996.95 44.6883 996.651 45.2799C996.352 45.8716 995.929 46.3319 995.382 46.6608C994.835 46.9897 994.189 47.1542 993.444 47.1542ZM993.444 45.7116C993.859 45.7116 994.204 45.5999 994.478 45.3766C994.753 45.1533 994.957 44.8526 995.092 44.4744C995.227 44.0962 995.295 43.6754 995.295 43.2118C995.295 42.7437 995.227 42.3203 995.092 41.9417C994.957 41.5631 994.753 41.2622 994.478 41.0391C994.204 40.8159 993.859 40.7044 993.444 40.7044C993.031 40.7044 992.688 40.8159 992.415 41.0391C992.143 41.2622 991.939 41.5623 991.804 41.9395C991.669 42.3167 991.602 42.7408 991.602 43.2118C991.602 43.6754 991.669 44.0962 991.804 44.4744C991.939 44.8526 992.143 45.1533 992.415 45.3766C992.688 45.5999 993.031 45.7116 993.444 45.7116ZM998.652 47V39.3574H1000.37V40.6366H1000.45C1000.59 40.1934 1000.83 39.852 1001.18 39.6124C1001.52 39.3728 1001.91 39.253 1002.34 39.253C1002.44 39.253 1002.56 39.2577 1002.68 39.2672C1002.8 39.2767 1002.91 39.2894 1002.99 39.3055V40.939C1002.92 40.9151 1002.8 40.8936 1002.64 40.8746C1002.47 40.8555 1002.31 40.846 1002.16 40.846C1001.83 40.846 1001.53 40.9166 1001.27 41.0578C1001 41.199 1000.8 41.3938 1000.65 41.6424C1000.5 41.8909 1000.43 42.1786 1000.43 42.5052V47H998.652ZM1008 39.3574V40.7498H1003.66V39.3574H1008ZM1004.74 37.5391H1006.52V44.8478C1006.52 45.124 1006.58 45.3267 1006.7 45.456C1006.81 45.5854 1007.01 45.6501 1007.28 45.6501C1007.36 45.6501 1007.47 45.6405 1007.6 45.6215C1007.74 45.6024 1007.84 45.5838 1007.93 45.5656L1008.21 46.9368C1008.01 46.9972 1007.81 47.04 1007.61 47.0652C1007.4 47.0905 1007.21 47.1031 1007.02 47.1031C1006.29 47.1031 1005.72 46.921 1005.33 46.5568C1004.94 46.1925 1004.74 45.6736 1004.74 45.0001V37.5391ZM1016.46 47H1013.88V45.4185H1016.37C1017.08 45.4185 1017.68 45.2884 1018.15 45.0283C1018.63 44.7681 1018.99 44.3767 1019.23 43.854C1019.47 43.3312 1019.59 42.6788 1019.59 41.8966C1019.59 41.1185 1019.47 40.4704 1019.23 39.952C1018.99 39.4337 1018.63 39.0447 1018.17 38.7852C1017.7 38.5257 1017.11 38.396 1016.42 38.396H1013.83V36.8145H1016.53C1017.54 36.8145 1018.41 37.0177 1019.14 37.4241C1019.86 37.8305 1020.42 38.4135 1020.81 39.1731C1021.2 39.9327 1021.39 40.8405 1021.39 41.8966C1021.39 42.9568 1021.2 43.8681 1020.81 44.6307C1020.42 45.3932 1019.85 45.9787 1019.12 46.3872C1018.38 46.7957 1017.49 47 1016.46 47ZM1014.84 36.8145V47H1013.01V36.8145H1014.84ZM1025.18 47.158C1024.69 47.158 1024.26 47.0706 1023.87 46.8957C1023.48 46.7208 1023.18 46.462 1022.95 46.1193C1022.73 45.7765 1022.62 45.3537 1022.62 44.8508C1022.62 44.4198 1022.7 44.0636 1022.86 43.7819C1023.02 43.5003 1023.24 43.2751 1023.52 43.1064C1023.79 42.9377 1024.11 42.8101 1024.45 42.7236C1024.8 42.6371 1025.16 42.5743 1025.53 42.5353C1025.97 42.4859 1026.34 42.4428 1026.61 42.406C1026.89 42.3692 1027.09 42.31 1027.22 42.2284C1027.35 42.1468 1027.42 42.02 1027.42 41.8479V41.8118C1027.42 41.5601 1027.37 41.347 1027.27 41.1728C1027.17 40.9985 1027.02 40.8648 1026.82 40.7718C1026.62 40.6787 1026.38 40.6322 1026.09 40.6322C1025.79 40.6322 1025.53 40.6777 1025.32 40.7686C1025.1 40.8596 1024.92 40.9778 1024.78 41.1233C1024.65 41.2687 1024.55 41.4262 1024.48 41.5958L1022.84 41.2578C1022.99 40.8061 1023.22 40.4332 1023.53 40.1392C1023.85 39.8451 1024.23 39.6254 1024.66 39.4799C1025.1 39.3345 1025.57 39.2617 1026.08 39.2617C1026.44 39.2617 1026.8 39.3044 1027.17 39.3897C1027.53 39.475 1027.87 39.617 1028.18 39.8157C1028.48 40.0144 1028.73 40.2828 1028.92 40.6208C1029.1 40.9589 1029.2 41.3821 1029.2 41.8905V47H1027.5V45.9462H1027.42C1027.31 46.1633 1027.16 46.3639 1026.96 46.5481C1026.76 46.7323 1026.51 46.8801 1026.22 46.9912C1025.92 47.1024 1025.58 47.158 1025.18 47.158ZM1025.63 45.8374C1026 45.8374 1026.32 45.7649 1026.59 45.62C1026.85 45.475 1027.06 45.2823 1027.21 45.0418C1027.36 44.8012 1027.43 44.54 1027.43 44.258V43.3534C1027.37 43.4012 1027.27 43.4453 1027.14 43.4858C1027 43.5262 1026.84 43.5622 1026.67 43.5938C1026.5 43.6253 1026.33 43.6524 1026.17 43.675C1026 43.6976 1025.86 43.7166 1025.74 43.7319C1025.48 43.7667 1025.24 43.8261 1025.02 43.91C1024.81 43.994 1024.64 44.1099 1024.52 44.2578C1024.4 44.4058 1024.34 44.5968 1024.34 44.8311C1024.34 45.0511 1024.39 45.2357 1024.51 45.3847C1024.62 45.5337 1024.77 45.6464 1024.97 45.7228C1025.16 45.7992 1025.38 45.8374 1025.63 45.8374ZM1034.62 39.3574V40.7498H1030.28V39.3574H1034.62ZM1031.36 37.5391H1033.14V44.8478C1033.14 45.124 1033.2 45.3267 1033.31 45.456C1033.43 45.5854 1033.63 45.6501 1033.9 45.6501C1033.98 45.6501 1034.09 45.6405 1034.22 45.6215C1034.35 45.6024 1034.46 45.5838 1034.55 45.5656L1034.83 46.9368C1034.63 46.9972 1034.43 47.04 1034.23 47.0652C1034.02 47.0905 1033.83 47.1031 1033.64 47.1031C1032.9 47.1031 1032.34 46.921 1031.95 46.5568C1031.56 46.1925 1031.36 45.6736 1031.36 45.0001V37.5391ZM1038.23 47.158C1037.74 47.158 1037.31 47.0706 1036.92 46.8957C1036.53 46.7208 1036.23 46.462 1036 46.1193C1035.78 45.7765 1035.67 45.3537 1035.67 44.8508C1035.67 44.4198 1035.75 44.0636 1035.91 43.7819C1036.07 43.5003 1036.29 43.2751 1036.57 43.1064C1036.84 42.9377 1037.16 42.8101 1037.5 42.7236C1037.85 42.6371 1038.21 42.5743 1038.58 42.5353C1039.02 42.4859 1039.39 42.4428 1039.66 42.406C1039.94 42.3692 1040.14 42.31 1040.27 42.2284C1040.4 42.1468 1040.47 42.02 1040.47 41.8479V41.8118C1040.47 41.5601 1040.42 41.347 1040.32 41.1728C1040.22 40.9985 1040.07 40.8648 1039.87 40.7718C1039.67 40.6787 1039.43 40.6322 1039.14 40.6322C1038.84 40.6322 1038.58 40.6777 1038.37 40.7686C1038.15 40.8596 1037.97 40.9778 1037.83 41.1233C1037.7 41.2687 1037.6 41.4262 1037.53 41.5958L1035.89 41.2578C1036.04 40.8061 1036.27 40.4332 1036.58 40.1392C1036.9 39.8451 1037.27 39.6254 1037.71 39.4799C1038.15 39.3345 1038.62 39.2617 1039.13 39.2617C1039.49 39.2617 1039.85 39.3044 1040.22 39.3897C1040.58 39.475 1040.92 39.617 1041.23 39.8157C1041.53 40.0144 1041.78 40.2828 1041.97 40.6208C1042.15 40.9589 1042.25 41.3821 1042.25 41.8905V47H1040.55V45.9462H1040.47C1040.36 46.1633 1040.21 46.3639 1040.01 46.5481C1039.81 46.7323 1039.56 46.8801 1039.27 46.9912C1038.97 47.1024 1038.63 47.158 1038.23 47.158ZM1038.68 45.8374C1039.05 45.8374 1039.37 45.7649 1039.64 45.62C1039.9 45.475 1040.11 45.2823 1040.26 45.0418C1040.41 44.8012 1040.48 44.54 1040.48 44.258V43.3534C1040.42 43.4012 1040.32 43.4453 1040.19 43.4858C1040.05 43.5262 1039.89 43.5622 1039.72 43.5938C1039.55 43.6253 1039.38 43.6524 1039.22 43.675C1039.05 43.6976 1038.91 43.7166 1038.79 43.7319C1038.53 43.7667 1038.29 43.8261 1038.07 43.91C1037.86 43.994 1037.69 44.1099 1037.57 44.2578C1037.45 44.4058 1037.39 44.5968 1037.39 44.8311C1037.39 45.0511 1037.44 45.2357 1037.56 45.3847C1037.67 45.5337 1037.82 45.6464 1038.02 45.7228C1038.21 45.7992 1038.43 45.8374 1038.68 45.8374Z" fill="#0F172A"/>
</g>
<g filter="url(#filter1_d_3_2211)">
<rect x="1072.19" y="24" width="143.807" height="36" rx="18" fill="#FF7F00" shape-rendering="crispEdges"/>
<path d="M1095.67 42.7383H1091.17V47.2383H1089.69V42.7383H1085.19V41.2617H1089.69V36.7617H1091.17V41.2617H1095.67V42.7383Z" fill="white"/>
<path d="M1109.52 40.2536H1107.66C1107.61 39.9486 1107.51 39.6785 1107.37 39.4432C1107.23 39.2045 1107.05 39.0024 1106.84 38.8366C1106.63 38.6709 1106.39 38.5466 1106.11 38.4638C1105.85 38.3776 1105.56 38.3345 1105.24 38.3345C1104.69 38.3345 1104.2 38.4737 1103.77 38.7521C1103.34 39.0272 1103.01 39.4316 1102.77 39.9652C1102.53 40.4955 1102.4 41.1435 1102.4 41.9091C1102.4 42.688 1102.53 43.3442 1102.77 43.8778C1103.01 44.4081 1103.35 44.8092 1103.77 45.081C1104.2 45.3494 1104.69 45.4837 1105.24 45.4837C1105.54 45.4837 1105.83 45.4439 1106.09 45.3643C1106.36 45.2815 1106.6 45.1605 1106.81 45.0014C1107.03 44.8423 1107.21 44.6468 1107.36 44.4148C1107.51 44.1828 1107.61 43.9176 1107.66 43.6193L1109.52 43.6293C1109.45 44.1132 1109.3 44.5672 1109.07 44.9915C1108.84 45.4157 1108.54 45.7902 1108.17 46.1151C1107.8 46.4366 1107.37 46.6884 1106.87 46.8707C1106.37 47.0497 1105.82 47.1392 1105.21 47.1392C1104.32 47.1392 1103.52 46.9321 1102.82 46.5178C1102.11 46.1035 1101.56 45.5052 1101.16 44.723C1100.75 43.9408 1100.55 43.0028 1100.55 41.9091C1100.55 40.812 1100.75 39.8741 1101.16 39.0952C1101.57 38.313 1102.12 37.7147 1102.83 37.3004C1103.53 36.8861 1104.33 36.679 1105.21 36.679C1105.78 36.679 1106.31 36.7585 1106.79 36.9176C1107.28 37.0767 1107.72 37.3104 1108.1 37.6186C1108.48 37.9235 1108.79 38.2981 1109.04 38.7422C1109.29 39.183 1109.45 39.6868 1109.52 40.2536ZM1111.13 47V39.3636H1112.88V40.6364H1112.96C1113.1 40.1955 1113.34 39.8558 1113.67 39.6172C1114.02 39.3752 1114.41 39.2543 1114.84 39.2543C1114.94 39.2543 1115.05 39.2592 1115.18 39.2692C1115.3 39.2758 1115.41 39.2874 1115.49 39.304V40.9595C1115.41 40.933 1115.29 40.9098 1115.13 40.8899C1114.96 40.8667 1114.81 40.8551 1114.65 40.8551C1114.33 40.8551 1114.03 40.9264 1113.77 41.0689C1113.51 41.2081 1113.31 41.402 1113.16 41.6506C1113.01 41.8991 1112.93 42.1858 1112.93 42.5107V47H1111.13ZM1119.75 47.1491C1118.99 47.1491 1118.32 46.9901 1117.77 46.6719C1117.21 46.3504 1116.79 45.8963 1116.49 45.3097C1116.19 44.7197 1116.04 44.0253 1116.04 43.2266C1116.04 42.4411 1116.19 41.7517 1116.49 41.1584C1116.79 40.5618 1117.21 40.0978 1117.75 39.7663C1118.29 39.4316 1118.93 39.2642 1119.66 39.2642C1120.13 39.2642 1120.57 39.3404 1120.99 39.4929C1121.41 39.642 1121.78 39.8741 1122.1 40.1889C1122.43 40.5038 1122.68 40.9048 1122.87 41.392C1123.05 41.8759 1123.15 42.4527 1123.15 43.1222V43.674H1116.89V42.4609H1121.42C1121.42 42.1162 1121.34 41.8097 1121.2 41.5412C1121.05 41.2694 1120.85 41.0556 1120.59 40.8999C1120.33 40.7441 1120.03 40.6662 1119.68 40.6662C1119.31 40.6662 1118.99 40.7557 1118.71 40.9347C1118.43 41.1103 1118.22 41.3423 1118.06 41.6307C1117.91 41.9157 1117.83 42.2289 1117.83 42.5703V43.6293C1117.83 44.0734 1117.91 44.4545 1118.07 44.7727C1118.23 45.0876 1118.46 45.3295 1118.75 45.4986C1119.04 45.6643 1119.38 45.7472 1119.78 45.7472C1120.04 45.7472 1120.27 45.7107 1120.49 45.6378C1120.7 45.5616 1120.88 45.4505 1121.04 45.3047C1121.19 45.1589 1121.31 44.9782 1121.39 44.7628L1123.07 44.9517C1122.97 45.3958 1122.76 45.7836 1122.47 46.1151C1122.17 46.4432 1121.79 46.6984 1121.33 46.8807C1120.87 47.0597 1120.34 47.1491 1119.75 47.1491ZM1126.87 47.1541C1126.38 47.1541 1125.95 47.0679 1125.56 46.8956C1125.17 46.7199 1124.87 46.4614 1124.64 46.12C1124.42 45.7786 1124.31 45.3577 1124.31 44.8572C1124.31 44.4264 1124.39 44.0701 1124.55 43.7884C1124.71 43.5066 1124.93 43.2812 1125.2 43.1122C1125.48 42.9432 1125.79 42.8156 1126.13 42.7294C1126.48 42.6399 1126.84 42.5753 1127.21 42.5355C1127.66 42.4891 1128.02 42.4477 1128.3 42.4112C1128.58 42.3714 1128.78 42.3118 1128.9 42.2322C1129.03 42.1494 1129.1 42.0218 1129.1 41.8494V41.8196C1129.1 41.4451 1128.99 41.1551 1128.77 40.9496C1128.54 40.7441 1128.22 40.6413 1127.81 40.6413C1127.37 40.6413 1127.02 40.7375 1126.76 40.9297C1126.5 41.1219 1126.33 41.349 1126.24 41.6108L1124.56 41.3722C1124.69 40.9081 1124.91 40.5204 1125.22 40.2088C1125.52 39.8939 1125.89 39.6586 1126.33 39.5028C1126.78 39.3438 1127.26 39.2642 1127.8 39.2642C1128.16 39.2642 1128.53 39.3073 1128.89 39.3935C1129.26 39.4796 1129.59 39.6222 1129.89 39.821C1130.2 40.0166 1130.44 40.2834 1130.62 40.6214C1130.81 40.9595 1130.9 41.3821 1130.9 41.8892V47H1129.17V45.951H1129.11C1129 46.1631 1128.84 46.362 1128.65 46.5476C1128.45 46.7299 1128.2 46.8774 1127.91 46.9901C1127.61 47.0994 1127.26 47.1541 1126.87 47.1541ZM1127.33 45.8317C1127.69 45.8317 1128.01 45.7604 1128.27 45.6179C1128.54 45.4721 1128.74 45.2798 1128.88 45.0412C1129.03 44.8026 1129.1 44.5424 1129.1 44.2607V43.3608C1129.05 43.4072 1128.95 43.4503 1128.82 43.4901C1128.68 43.5298 1128.53 43.5646 1128.37 43.5945C1128.2 43.6243 1128.04 43.6508 1127.88 43.674C1127.71 43.6972 1127.57 43.7171 1127.45 43.7337C1127.18 43.7701 1126.94 43.8298 1126.73 43.9126C1126.52 43.9955 1126.35 44.1115 1126.23 44.2607C1126.11 44.4065 1126.05 44.5954 1126.05 44.8274C1126.05 45.1589 1126.17 45.4091 1126.41 45.5781C1126.65 45.7472 1126.96 45.8317 1127.33 45.8317ZM1136.52 39.3636V40.7557H1132.13V39.3636H1136.52ZM1133.22 37.5341H1135.01V44.7031C1135.01 44.9451 1135.05 45.1307 1135.12 45.2599C1135.2 45.3859 1135.3 45.4721 1135.42 45.5185C1135.55 45.5649 1135.68 45.5881 1135.83 45.5881C1135.94 45.5881 1136.05 45.5798 1136.14 45.5632C1136.23 45.5466 1136.31 45.5317 1136.36 45.5185L1136.66 46.9254C1136.56 46.9586 1136.43 46.995 1136.25 47.0348C1136.07 47.0746 1135.86 47.0978 1135.6 47.1044C1135.15 47.1177 1134.74 47.0497 1134.38 46.9006C1134.02 46.7481 1133.74 46.5128 1133.52 46.1946C1133.31 45.8764 1133.21 45.4787 1133.22 45.0014V37.5341ZM1141.32 47.1491C1140.56 47.1491 1139.9 46.9901 1139.34 46.6719C1138.79 46.3504 1138.36 45.8963 1138.06 45.3097C1137.77 44.7197 1137.62 44.0253 1137.62 43.2266C1137.62 42.4411 1137.77 41.7517 1138.06 41.1584C1138.37 40.5618 1138.79 40.0978 1139.33 39.7663C1139.87 39.4316 1140.5 39.2642 1141.23 39.2642C1141.7 39.2642 1142.15 39.3404 1142.56 39.4929C1142.98 39.642 1143.35 39.8741 1143.68 40.1889C1144 40.5038 1144.26 40.9048 1144.44 41.392C1144.63 41.8759 1144.72 42.4527 1144.72 43.1222V43.674H1138.46V42.4609H1143C1142.99 42.1162 1142.92 41.8097 1142.77 41.5412C1142.63 41.2694 1142.42 41.0556 1142.16 40.8999C1141.9 40.7441 1141.6 40.6662 1141.26 40.6662C1140.89 40.6662 1140.56 40.7557 1140.29 40.9347C1140.01 41.1103 1139.79 41.3423 1139.63 41.6307C1139.48 41.9157 1139.4 42.2289 1139.4 42.5703V43.6293C1139.4 44.0734 1139.48 44.4545 1139.64 44.7727C1139.81 45.0876 1140.03 45.3295 1140.33 45.4986C1140.62 45.6643 1140.96 45.7472 1141.35 45.7472C1141.61 45.7472 1141.85 45.7107 1142.06 45.6378C1142.27 45.5616 1142.46 45.4505 1142.61 45.3047C1142.77 45.1589 1142.89 44.9782 1142.97 44.7628L1144.65 44.9517C1144.54 45.3958 1144.34 45.7836 1144.04 46.1151C1143.74 46.4432 1143.37 46.6984 1142.91 46.8807C1142.45 47.0597 1141.92 47.1491 1141.32 47.1491ZM1149.8 36.8182H1152.05L1155.08 44.196H1155.19L1158.22 36.8182H1160.47V47H1158.7V40.005H1158.61L1155.8 46.9702H1154.47L1151.66 39.9901H1151.57V47H1149.8V36.8182ZM1162.4 47V39.3636H1164.2V47H1162.4ZM1163.31 38.2798C1163.02 38.2798 1162.78 38.1854 1162.57 37.9964C1162.37 37.8042 1162.26 37.5739 1162.26 37.3054C1162.26 37.0336 1162.37 36.8033 1162.57 36.6143C1162.78 36.4221 1163.02 36.326 1163.31 36.326C1163.6 36.326 1163.84 36.4221 1164.04 36.6143C1164.25 36.8033 1164.35 37.0336 1164.35 37.3054C1164.35 37.5739 1164.25 37.8042 1164.04 37.9964C1163.84 38.1854 1163.6 38.2798 1163.31 38.2798ZM1172.09 41.3821L1170.45 41.5611C1170.4 41.3954 1170.32 41.2396 1170.2 41.0938C1170.09 40.9479 1169.94 40.8303 1169.75 40.7408C1169.56 40.6513 1169.32 40.6065 1169.04 40.6065C1168.67 40.6065 1168.35 40.6877 1168.1 40.8501C1167.85 41.0125 1167.72 41.223 1167.72 41.4815C1167.72 41.7036 1167.8 41.8842 1167.97 42.0234C1168.14 42.1626 1168.42 42.277 1168.8 42.3665L1170.11 42.6449C1170.83 42.8007 1171.36 43.0476 1171.72 43.3857C1172.07 43.7237 1172.25 44.1662 1172.25 44.7131C1172.25 45.1937 1172.11 45.6179 1171.83 45.9858C1171.56 46.3504 1171.17 46.6354 1170.68 46.8409C1170.19 47.0464 1169.63 47.1491 1168.99 47.1491C1168.06 47.1491 1167.3 46.9536 1166.73 46.5625C1166.16 46.1681 1165.82 45.6196 1165.72 44.9169L1167.47 44.7479C1167.55 45.0926 1167.72 45.3527 1167.98 45.5284C1168.24 45.7041 1168.57 45.7919 1168.99 45.7919C1169.41 45.7919 1169.76 45.7041 1170.02 45.5284C1170.28 45.3527 1170.41 45.1357 1170.41 44.8771C1170.41 44.6584 1170.32 44.4777 1170.16 44.3352C1169.99 44.1927 1169.73 44.0833 1169.38 44.0071L1168.08 43.7337C1167.34 43.5812 1166.8 43.3243 1166.45 42.9631C1166.1 42.5985 1165.93 42.1378 1165.93 41.581C1165.93 41.1103 1166.05 40.7027 1166.31 40.358C1166.57 40.0099 1166.94 39.7415 1167.4 39.5526C1167.87 39.3603 1168.41 39.2642 1169.02 39.2642C1169.91 39.2642 1170.62 39.4548 1171.13 39.8359C1171.65 40.2171 1171.97 40.7325 1172.09 41.3821ZM1179.77 41.3821L1178.13 41.5611C1178.09 41.3954 1178 41.2396 1177.89 41.0938C1177.78 40.9479 1177.62 40.8303 1177.43 40.7408C1177.24 40.6513 1177 40.6065 1176.73 40.6065C1176.35 40.6065 1176.04 40.6877 1175.78 40.8501C1175.53 41.0125 1175.4 41.223 1175.41 41.4815C1175.4 41.7036 1175.49 41.8842 1175.65 42.0234C1175.82 42.1626 1176.1 42.277 1176.49 42.3665L1177.79 42.6449C1178.51 42.8007 1179.05 43.0476 1179.4 43.3857C1179.75 43.7237 1179.93 44.1662 1179.94 44.7131C1179.93 45.1937 1179.79 45.6179 1179.51 45.9858C1179.24 46.3504 1178.86 46.6354 1178.37 46.8409C1177.88 47.0464 1177.31 47.1491 1176.68 47.1491C1175.74 47.1491 1174.99 46.9536 1174.42 46.5625C1173.85 46.1681 1173.51 45.6196 1173.4 44.9169L1175.15 44.7479C1175.23 45.0926 1175.4 45.3527 1175.66 45.5284C1175.92 45.7041 1176.26 45.7919 1176.67 45.7919C1177.1 45.7919 1177.44 45.7041 1177.7 45.5284C1177.96 45.3527 1178.09 45.1357 1178.09 44.8771C1178.09 44.6584 1178.01 44.4777 1177.84 44.3352C1177.67 44.1927 1177.41 44.0833 1177.06 44.0071L1175.76 43.7337C1175.03 43.5812 1174.49 43.3243 1174.13 42.9631C1173.78 42.5985 1173.61 42.1378 1173.61 41.581C1173.61 41.1103 1173.74 40.7027 1174 40.358C1174.26 40.0099 1174.62 39.7415 1175.08 39.5526C1175.55 39.3603 1176.09 39.2642 1176.7 39.2642C1177.6 39.2642 1178.3 39.4548 1178.81 39.8359C1179.33 40.2171 1179.65 40.7325 1179.77 41.3821ZM1181.42 47V39.3636H1183.22V47H1181.42ZM1182.33 38.2798C1182.04 38.2798 1181.8 38.1854 1181.59 37.9964C1181.38 37.8042 1181.28 37.5739 1181.28 37.3054C1181.28 37.0336 1181.38 36.8033 1181.59 36.6143C1181.8 36.4221 1182.04 36.326 1182.33 36.326C1182.61 36.326 1182.86 36.4221 1183.06 36.6143C1183.27 36.8033 1183.37 37.0336 1183.37 37.3054C1183.37 37.5739 1183.27 37.8042 1183.06 37.9964C1182.86 38.1854 1182.61 38.2798 1182.33 38.2798ZM1188.4 47.1491C1187.66 47.1491 1187.01 46.9851 1186.46 46.657C1185.92 46.3288 1185.49 45.8698 1185.19 45.2798C1184.89 44.6899 1184.74 44.0005 1184.74 43.2116C1184.74 42.4228 1184.89 41.7318 1185.19 41.1385C1185.49 40.5452 1185.92 40.0845 1186.46 39.7564C1187.01 39.4283 1187.66 39.2642 1188.4 39.2642C1189.15 39.2642 1189.79 39.4283 1190.34 39.7564C1190.89 40.0845 1191.31 40.5452 1191.61 41.1385C1191.91 41.7318 1192.06 42.4228 1192.06 43.2116C1192.06 44.0005 1191.91 44.6899 1191.61 45.2798C1191.31 45.8698 1190.89 46.3288 1190.34 46.657C1189.79 46.9851 1189.15 47.1491 1188.4 47.1491ZM1188.41 45.7074C1188.82 45.7074 1189.15 45.5964 1189.43 45.3743C1189.7 45.1489 1189.9 44.8473 1190.03 44.4695C1190.17 44.0916 1190.24 43.6707 1190.24 43.2067C1190.24 42.7393 1190.17 42.3168 1190.03 41.9389C1189.9 41.5578 1189.7 41.2545 1189.43 41.0291C1189.15 40.8037 1188.82 40.6911 1188.41 40.6911C1188 40.6911 1187.65 40.8037 1187.38 41.0291C1187.11 41.2545 1186.9 41.5578 1186.77 41.9389C1186.63 42.3168 1186.57 42.7393 1186.57 43.2067C1186.57 43.6707 1186.63 44.0916 1186.77 44.4695C1186.9 44.8473 1187.11 45.1489 1187.38 45.3743C1187.65 45.5964 1188 45.7074 1188.41 45.7074ZM1195.39 42.5256V47H1193.59V39.3636H1195.31V40.6612H1195.4C1195.57 40.2337 1195.85 39.8939 1196.24 39.642C1196.63 39.3902 1197.11 39.2642 1197.68 39.2642C1198.2 39.2642 1198.66 39.3769 1199.05 39.6023C1199.45 39.8277 1199.75 40.1541 1199.97 40.5817C1200.19 41.0092 1200.29 41.5279 1200.29 42.1378V47H1198.49V42.4162C1198.49 41.9058 1198.36 41.5064 1198.09 41.218C1197.83 40.9297 1197.47 40.7855 1197 40.7855C1196.69 40.7855 1196.41 40.8551 1196.16 40.9943C1195.92 41.1302 1195.73 41.3274 1195.59 41.5859C1195.46 41.8445 1195.39 42.1577 1195.39 42.5256Z" fill="white"/>
</g>
<defs>
<filter id="filter0_d_3_2211" x="924.98" y="22" width="137.213" height="42" filterUnits="userSpaceOnUse" color-interpolation-filters="sRGB">
<feFlood flood-opacity="0" result="BackgroundImageFix"/>
<feColorMatrix in="SourceAlpha" type="matrix" values="0 0 0 0 0 0 0 0 0 0 0 0 0 0 0 0 0 0 127 0" result="hardAlpha"/>
<feOffset dy="1"/>
<feGaussianBlur stdDeviation="1"/>
<feComposite in2="hardAlpha" operator="out"/>
<feColorMatrix type="matrix" values="0 0 0 0 0 0 0 0 0 0 0 0 0 0 0 0 0 0 0.05 0"/>
<feBlend mode="normal" in2="BackgroundImageFix" result="effect1_dropShadow_3_2211"/>
<feBlend mode="normal" in="SourceGraphic" in2="effect1_dropShadow_3_2211" result="shape"/>
</filter>
<filter id="filter1_d_3_2211" x="1070.19" y="23" width="147.807" height="40" filterUnits="userSpaceOnUse" color-interpolation-filters="sRGB">
<feFlood flood-opacity="0" result="BackgroundImageFix"/>
<feColorMatrix in="SourceAlpha" type="matrix" values="0 0 0 0 0 0 0 0 0 0 0 0 0 0 0 0 0 0 127 0" result="hardAlpha"/>
<feOffset dy="1"/>
<feGaussianBlur stdDeviation="1"/>
<feComposite in2="hardAlpha" operator="out"/>
<feColorMatrix type="matrix" values="0 0 0 0 0 0 0 0 0 0 0 0 0 0 0 0 0 0 0.05 0"/>
<feBlend mode="normal" in2="BackgroundImageFix" result="effect1_dropShadow_3_2211"/>
<feBlend mode="normal" in="SourceGraphic" in2="effect1_dropShadow_3_2211" result="shape"/>
</filter>
</defs>
</svg>
