<svg width="674" height="629" viewBox="0 0 674 629" fill="none" xmlns="http://www.w3.org/2000/svg">
<path d="M331.009 123.322C474.798 94.0279 540.182 126.165 540.182 126.165C539.716 126.165 539.279 126.206 538.867 126.279C546.083 128.167 553.404 130.527 560.735 133.372C590.894 145.072 615.14 162.588 629.294 180.975C656.789 203.695 667.681 246.816 671.531 268.165C678.571 303.21 670.501 334.033 647.951 346.199C646.49 346.987 644.992 347.681 643.463 348.288C618.573 382.899 623.601 431.154 640.096 461.561C656.748 492.258 658.5 518.692 603.285 574.118C548.07 629.543 417.484 649.156 180.85 603.962C-35.0849 562.722 -1.06238 416.04 6.54199 390.694C7.86013 367.386 18.7313 339.066 38.2812 312.667C39.952 310.411 41.6556 308.209 43.3896 306.063C84.7583 237.774 195.902 150.848 331.009 123.322Z" fill="#D9DCB9"/>
<path d="M350.989 423.771C350.989 425.854 347.862 427.544 344.007 427.544C340.151 427.544 337.023 425.854 337.023 423.771C337.023 421.685 340.151 419.996 344.007 419.996C347.862 419.996 350.989 421.685 350.989 423.771Z" fill="#F9F2E2"/>
<path d="M350.989 374.585C350.989 376.669 347.862 378.359 344.007 378.359C340.151 378.359 337.023 376.669 337.023 374.585C337.023 372.501 340.151 370.811 344.007 370.811C347.862 370.811 350.989 372.501 350.989 374.585Z" fill="#F9F2E2"/>
<path d="M130.94 361.717C130.928 361.713 131.011 361.715 130.949 361.771C130.908 361.812 130.839 361.868 130.746 361.936C130.556 362.068 130.275 362.263 129.907 362.517C129.173 363.022 128.094 363.764 126.721 364.708C123.991 366.611 120.199 369.488 115.938 373.262C111.671 377.027 107.038 381.812 102.697 387.421C101.612 388.824 100.552 390.282 99.5266 391.789C99.0134 392.543 98.5127 393.311 98.0178 394.088L97.2682 395.28L96.4993 396.453C95.9841 397.236 95.468 398.024 94.9509 398.813C94.4348 399.602 94.0016 400.425 93.5212 401.232C93.0552 402.047 92.57 402.85 92.1185 403.676L90.8228 406.199C89.0603 409.545 87.5341 413.015 86.1294 416.467C85.4184 418.19 84.829 419.946 84.1816 421.656C83.5874 423.383 83.0539 425.109 82.5001 426.797C82.0168 428.506 81.5421 430.188 81.0762 431.834C80.6671 433.494 80.2677 435.118 79.8789 436.701C79.5567 438.296 79.2162 439.846 78.9345 441.353C78.6913 442.867 78.456 444.33 78.2311 445.733C78.0652 447.147 77.907 448.499 77.7562 449.787C77.6601 451.081 77.5697 452.307 77.4842 453.46C77.4069 454.614 77.4352 455.695 77.4057 456.697C77.3654 457.7 77.4284 458.616 77.4767 459.446C77.5313 460.274 77.5396 461.019 77.6104 461.661C77.6941 462.301 77.7657 462.846 77.8233 463.288C77.939 464.173 78.0012 464.645 78.0012 464.645C78.0012 464.645 77.9126 464.177 77.7461 463.3C77.662 462.861 77.5595 462.319 77.4389 461.681C77.3266 461.042 77.2844 460.297 77.1948 459.466C77.1118 458.635 77.0093 457.712 77.0063 456.705C76.9924 455.699 76.917 454.607 76.9461 453.443C76.9818 452.278 77.0206 451.039 77.061 449.733C77.1759 448.431 77.2964 447.062 77.4227 445.633C77.6131 444.212 77.8108 442.731 78.0156 441.199C78.2612 439.673 78.5621 438.102 78.8467 436.483C79.1756 434.873 79.5586 433.229 79.9262 431.541C80.3439 429.866 80.8282 428.169 81.2971 426.439C81.8412 424.73 82.3641 422.982 82.9506 421.231C83.5883 419.498 84.17 417.72 84.8733 415.972C86.2635 412.47 87.7743 408.944 89.5368 405.539L90.873 402.993C91.3399 402.156 91.8445 401.335 92.3278 400.507C92.8237 399.69 93.2848 398.84 93.8067 398.054C94.3315 397.269 94.8544 396.488 95.3754 395.708L96.1549 394.542L96.9026 393.376C97.4119 392.59 97.9271 391.815 98.4548 391.054C99.5093 389.533 100.598 388.064 101.709 386.65C106.158 380.994 111.034 376.347 115.406 372.648C119.788 368.945 123.765 366.284 126.566 364.475C127.969 363.571 129.1 362.912 129.865 362.451C130.247 362.219 130.538 362.04 130.735 361.919C130.83 361.857 130.903 361.807 130.945 361.767C131.009 361.716 130.93 361.715 130.94 361.717Z" fill="#71C94C"/>
<path d="M99.9562 398.344C91.0769 400.529 80.2333 417.153 77.7782 426.486C75.326 435.818 77.407 459.973 77.407 459.973C77.407 459.973 87.0067 442.597 94.1283 429.139C101.251 415.68 119.21 402.859 119.21 402.859C119.21 402.859 111.385 395.526 99.9562 398.344Z" fill="#77CB4C"/>
<path d="M113.578 391.02C113.578 391.02 124.587 390.527 129.845 400.438C135.107 410.348 135.428 423.531 135.428 423.531C135.428 423.531 121.452 407.73 112.069 405.146C102.685 402.564 95.2695 400.563 95.2695 400.563C95.2695 400.563 99.7488 397.527 104.981 395.253C108.454 393.746 110.545 390.84 113.578 391.02Z" fill="#85D054"/>
<path d="M131.026 413.461C131.026 413.461 129.931 411.727 128.216 409.217C127.78 408.597 127.309 407.925 126.809 407.215C126.298 406.513 125.742 405.791 125.165 405.049C123.987 403.591 122.68 402.066 121.176 400.837C120.82 400.494 120.406 400.265 120.026 399.974C119.651 399.711 119.177 399.515 118.845 399.316C117.897 398.993 116.977 398.633 116.08 398.308C115.186 397.956 114.32 397.688 113.496 397.447C112.669 397.201 111.891 396.95 111.171 396.715C109.713 396.287 108.488 395.929 107.637 395.655C106.781 395.395 106.292 395.245 106.292 395.245C106.292 395.245 106.801 395.291 107.694 395.372C108.138 395.432 108.677 395.504 109.294 395.586C109.912 395.677 110.609 395.759 111.366 395.908C112.124 396.057 112.947 396.221 113.814 396.414C114.249 396.509 114.697 396.605 115.152 396.705C115.61 396.803 116.044 396.972 116.505 397.106C117.413 397.397 118.362 397.675 119.309 397.998C119.858 398.272 120.325 398.471 120.789 398.774C121.221 399.089 121.706 399.357 122.093 399.719C122.911 400.403 123.65 401.154 124.33 401.925C125.018 402.689 125.611 403.503 126.182 404.287C126.749 405.073 127.245 405.867 127.706 406.62C128.162 407.379 128.571 408.106 128.926 408.79C130.366 411.513 131.026 413.461 131.026 413.461Z" fill="#9CD752"/>
<path d="M102.721 484.388C102.721 484.388 108.122 523.211 111.724 530.792C114.57 536.781 120.726 534.873 122.528 530.792C124.328 526.71 121.326 484.388 121.326 484.388H102.721Z" fill="#FFAF45"/>
<path d="M343.279 484.388C343.279 484.388 337.878 523.211 334.276 530.792C331.431 536.781 325.273 534.873 323.472 530.792C321.671 526.71 324.673 484.388 324.673 484.388H343.279Z" fill="#FFAF45"/>
<path d="M347.882 336.886C334.909 318.577 250.011 317.978 223 317.978C195.99 317.978 111.089 318.577 98.118 336.886C87.2484 352.228 90.0075 373.504 92.403 399.303C94.7984 425.102 101.985 480.029 121.147 485.022C137.548 489.296 199.902 486.254 223 485.288C246.098 486.254 308.451 489.296 324.853 485.022C344.016 480.029 351.201 425.102 353.598 399.303C355.992 373.504 358.751 352.228 347.882 336.886Z" fill="#E4CBA4"/>
<path d="M333.197 395.286C337.001 391.227 351.739 391.357 356.88 392.205C366.978 393.869 375.705 408.226 381.171 416.236C386.636 424.246 381.171 438.417 378.134 446.427C374.595 455.761 361.41 498.384 356.273 504.938C351.134 511.492 344.885 510.802 339.876 511.1C324.267 512.025 322.151 461.914 320.416 448.031C318.681 434.148 321.924 407.317 333.197 395.286Z" fill="#D5BD99"/>
<path d="M112.803 395.286C109 391.227 94.2607 391.357 89.1206 392.205C79.0228 393.869 70.2946 408.226 64.8296 416.236C59.3641 424.246 64.8296 438.417 67.8666 446.427C71.4044 455.761 84.5893 498.384 89.7265 504.938C94.8656 511.492 101.115 510.802 106.123 511.1C121.732 512.025 123.85 461.914 125.584 448.031C127.318 434.148 124.077 407.317 112.803 395.286Z" fill="#D5BD99"/>
<path d="M323.135 422.545C323.135 422.545 303.129 415.016 223 415.016C142.872 415.016 122.862 422.545 122.862 422.545C122.862 422.545 83.5879 464.479 88.5708 475.418C93.5536 486.357 92.7239 511.932 110.165 514.666C125.546 517.078 184.716 516.135 223 516.135C261.284 516.135 320.452 517.078 335.833 514.666C353.274 511.932 352.446 486.357 357.43 475.418C362.411 464.479 323.135 422.545 323.135 422.545Z" fill="#D5BD99"/>
<path d="M98.4082 473.54H347.592" stroke="#E6CFB0" stroke-width="2.66667" stroke-miterlimit="10"/>
<path d="M206.813 464.178C202.06 459.491 193.971 463.672 188.242 466.685C182.513 469.699 177.312 479.22 180.701 484.58C184.09 489.939 190.874 491.402 195.796 489.827C203.559 487.344 217.561 478.972 217.561 478.972C217.561 478.972 211.566 468.864 206.813 464.178Z" fill="#4F201B"/>
<path d="M299.696 402.577C290.481 391.864 238.919 421.565 238.919 421.565L222.491 423.809L206.039 421.769C206.039 421.769 154.155 392.718 145.059 403.551C135.962 414.379 138.84 437.861 156.75 448.524C174.661 459.185 207.685 471.217 216.367 468.715C218.257 468.168 220.443 465.835 222.704 462.516C225.001 465.805 227.209 468.117 229.106 468.634C237.818 471.027 270.707 458.581 288.498 447.698C306.293 436.812 308.91 413.293 299.696 402.577Z" fill="#E6CFB0"/>
<path d="M236.135 510.319C236.135 510.319 228.099 492.911 225.372 484.514C222.643 476.116 222.267 471.94 226.934 465.503C231.599 459.061 236.849 459.465 238.985 464.162C241.123 468.858 249.385 496.377 247.043 502.736C244.701 509.097 236.135 510.319 236.135 510.319Z" fill="#4F201B"/>
<path d="M210.362 474.074C210.362 474.074 220.423 484.241 222.075 487.95C223.723 491.66 228.12 506.864 228.12 506.864C228.12 506.864 239.048 507.027 241.679 499.917C244.307 492.81 239.147 485.636 238.77 481.104C238.394 476.573 238.948 472.5 235.085 467.992C231.22 463.482 224.608 465.732 220.981 461.918C217.354 458.105 211.764 456.512 211.764 456.512L202.996 467.262L210.362 474.074Z" fill="#F78F79"/>
<path d="M243.663 482.03C243.663 482.03 236.534 477.62 229.811 481.688C223.086 485.756 223.332 489.583 222.763 493.326C222.193 497.068 227.654 509.899 231.511 512.084C236.653 514.995 244.292 511.718 246.503 504.758C248.715 497.798 243.663 482.03 243.663 482.03Z" fill="#4F201B"/>
<path d="M169.301 417.464C169.301 417.464 195.043 434.068 203.991 441.914C212.941 449.76 222.243 460.029 222.243 460.029C222.243 460.029 219.836 464.468 216.9 468.595C214.73 471.648 212.27 474.529 210.286 475.31C205.618 477.15 152.293 448.83 149.03 435.861C145.767 422.892 169.301 417.464 169.301 417.464Z" fill="#E6CFB0"/>
<path d="M217.465 454.978L216.961 454.154C217.28 453.96 248.934 434.595 255.704 428.926C262.531 423.212 275.368 415.528 275.497 415.451L275.992 416.279C275.864 416.356 263.09 424.001 256.323 429.666C249.499 435.38 218.769 454.181 217.465 454.978Z" fill="#D5BD99"/>
<path d="M260.646 425.924L259.703 425.721C260.74 420.886 267.679 414.893 267.973 414.641L268.601 415.373C268.53 415.433 261.615 421.406 260.646 425.924Z" fill="#D5BD99"/>
<path d="M221.02 460.981C194.043 427.831 187.434 425.655 169.768 419.842L170.069 418.925C187.428 424.638 194.613 427.002 221.768 460.372L221.02 460.981Z" fill="#D5BD99"/>
<path d="M186.74 426.376C185.102 423.099 179.442 417.088 179.386 417.028L180.086 416.365C180.323 416.616 185.901 422.54 187.603 425.945L186.74 426.376Z" fill="#D5BD99"/>
<path d="M184.048 409.426C184.048 409.426 177.218 348.709 181.414 339.441C187.053 326.981 212.328 326.805 222.464 326.805C232.599 326.805 257.876 326.981 263.514 339.441C267.711 348.709 260.88 409.426 260.88 409.426C260.88 409.426 261.884 414.287 260.954 417.688C260.026 421.09 248.856 424.732 245.253 426.102C241.649 427.472 231.523 430.554 221.671 430.554C211.817 430.554 198.393 424.839 195.139 423.706C191.885 422.572 186.908 419.771 185.184 415.257C184.254 412.828 184.048 409.426 184.048 409.426Z" fill="#889782"/>
<path d="M212.692 312.545L208.302 334.465C208.302 334.465 212.661 340.968 222.423 340.91C232.19 340.85 234.755 334.655 234.755 334.655L230.923 313.075L212.692 312.545Z" fill="#F78F79"/>
<path d="M195.37 300.368C196.939 298.853 200.12 300.853 200.652 301.235C200.725 297.611 200.973 294.33 201.434 292.413C203.171 285.152 214.131 276.79 222.463 276.79C230.797 276.79 241.756 285.152 243.493 292.413C243.955 294.33 244.204 297.611 244.276 301.235C244.808 300.853 247.99 298.853 249.558 300.368C251.857 302.591 251.645 305.966 250.28 308.621C249.238 310.652 246.206 313.194 243.824 314.018C243.548 316.635 237.114 330.845 222.463 330.845C207.814 330.845 201.379 316.635 201.102 314.018C198.72 313.194 195.69 310.652 194.647 308.621C193.284 305.966 193.072 302.591 195.37 300.368Z" fill="#F78F79"/>
<path d="M210.752 309.028C210.752 310.36 211.831 311.441 213.164 311.441C214.497 311.441 215.576 310.36 215.576 309.028C215.576 307.696 214.497 306.616 213.164 306.616C211.831 306.616 210.752 307.696 210.752 309.028Z" fill="#2F1010"/>
<path d="M229.18 309.028C229.18 310.36 230.259 311.441 231.592 311.441C232.925 311.441 234.003 310.36 234.003 309.028C234.003 307.696 232.925 306.616 231.592 306.616C230.259 306.616 229.18 307.696 229.18 309.028Z" fill="#2F1010"/>
<path d="M215.444 302.767C214.548 302.523 213.616 302.31 212.687 302.259C211.622 302.201 210.835 302.541 209.996 303.184C209.803 303.332 209.869 303.607 210.118 303.633C210.85 303.71 211.62 303.604 212.359 303.6C213.282 303.593 214.208 303.792 215.1 304.017C215.91 304.223 216.251 302.987 215.444 302.767Z" fill="#612322"/>
<path d="M229.656 304.017C230.436 303.82 231.262 303.631 232.068 303.602C232.923 303.57 233.793 303.721 234.637 303.633C234.886 303.607 234.953 303.332 234.759 303.184C234.043 302.635 233.313 302.24 232.395 302.251C231.352 302.262 230.314 302.494 229.311 302.767C228.505 302.987 228.845 304.223 229.656 304.017Z" fill="#612322"/>
<path d="M222.233 305.48C222.642 306.417 222.936 307.363 223.181 308.313C223.424 309.265 223.613 310.22 223.762 311.179L223.451 310.522C223.639 310.69 223.768 310.813 223.912 310.969C224.048 311.122 224.178 311.279 224.304 311.444C224.547 311.779 224.774 312.143 224.944 312.57C225.113 312.991 225.236 313.483 225.211 314.029C225.197 314.575 224.977 315.157 224.637 315.577L224.506 315.726L224.414 315.826L224.365 315.869L224.164 316.042C224.005 316.163 223.798 316.33 223.626 316.43C223.272 316.651 222.89 316.807 222.51 316.924C221.742 317.139 220.949 317.182 220.206 316.971C220.853 316.571 221.416 316.177 221.89 315.742C222.125 315.527 222.347 315.314 222.528 315.083C222.633 314.967 222.676 314.886 222.768 314.764L222.923 314.549L222.962 314.496C222.922 314.54 222.958 314.49 222.953 314.492L222.98 314.433C223.04 314.275 223.039 314.16 223.03 314.003C223.008 313.847 222.959 313.644 222.862 313.42C222.768 313.196 222.637 312.952 222.484 312.71C222.409 312.587 222.327 312.466 222.241 312.346L221.997 312.012L221.691 311.591L221.687 311.355C221.671 310.385 221.697 309.411 221.776 308.433C221.857 307.455 221.987 306.472 222.233 305.48Z" fill="#D95361"/>
<path d="M231.56 329.424C225.198 332.689 216.888 332.639 211.193 328.744" stroke="#DA6450" stroke-width="2" stroke-miterlimit="10"/>
<path d="M214.42 319.254C213.312 321.269 216.272 325.484 222.525 325.549C228.782 325.614 230.52 320.352 229.889 318.822C229.259 317.291 226.227 318.132 222.233 318.901C218.242 319.67 215.525 317.238 214.42 319.254Z" fill="#F9F2E2"/>
<path d="M200.409 307.547C200.409 307.547 196.518 292.877 199.435 288.841C202.354 284.808 204.949 288.475 206.569 290.309C208.191 292.142 204.948 299.846 204.3 304.248C203.65 308.648 201.706 312.683 200.409 307.547Z" fill="#612322"/>
<path d="M244.52 307.547C244.52 307.547 248.412 292.877 245.493 288.841C242.574 284.808 239.98 288.475 238.359 290.309C236.737 292.142 239.981 299.846 240.629 304.248C241.278 308.648 243.223 312.683 244.52 307.547Z" fill="#612322"/>
<path d="M199.984 289.298C199.984 289.298 199.984 275.359 212.139 271.326C224.295 267.29 230.054 274.992 235.173 274.628C240.291 274.26 242.211 273.526 242.211 273.526C242.211 273.526 242.85 276.461 239.971 278.294C239.971 278.294 243.171 282.329 246.05 282.329C248.928 282.329 245.73 289.665 241.252 291.499C236.772 293.334 230.375 294.801 222.056 294.068C213.739 293.334 206.382 294.434 203.822 293.7C201.263 292.967 199.984 289.298 199.984 289.298Z" fill="#612322"/>
<path d="M183.101 325.315C182.58 322.138 176.996 313.86 174.575 308.997C172.443 304.717 167.072 292.511 167.072 292.511C167.072 292.511 170.501 281.186 171.103 273.67C171.706 266.153 170.866 251.459 170.866 251.459L160.776 246.988C157.124 250.786 144.455 284.35 143.411 290.401C142.368 296.454 146.756 312.279 149.682 319.825C152.606 327.371 161.069 342.208 168.776 343.583C176.484 344.958 184.483 333.737 183.101 325.315Z" fill="#F78F79"/>
<path d="M165.571 230.057C165.571 230.057 166.342 228.222 167.965 227.608C169.587 226.993 170.349 228.419 170.349 228.419C170.349 228.419 171.046 226.84 172.692 226.623C174.34 226.405 175.13 227.411 175.13 227.411C175.13 227.411 176.609 225.945 177.952 226.257C179.296 226.568 180.812 228.786 182.834 231.251C185.345 234.31 182.697 235.869 182.697 235.869C182.697 235.869 182.234 240.349 181.717 243.044C181.198 245.739 177.525 250.208 174.355 252.109C171.185 254.01 165.317 253.795 162.333 250.283C159.35 246.77 158.898 246.068 160.806 237.48C162.714 228.895 165.571 230.057 165.571 230.057Z" fill="#F78F79"/>
<path d="M163.202 234.808C163.202 234.808 165.49 236.464 164.737 238.955C163.988 241.443 163.249 243.784 165.506 243.514C167.762 243.243 167.639 242.413 167.639 242.413C167.639 242.413 167.74 244.19 169.915 242.968C172.087 241.749 172.956 240.424 172.956 240.424C172.956 240.424 174.579 242.497 175.99 241.295C177.399 240.094 178.711 238.489 178.711 238.489C178.711 238.489 179.973 240.482 182.088 238.68C184.203 236.877 185.677 235.312 182.918 231.022C181.355 228.587 178.803 227.111 177.415 227.369C176.027 227.627 163.202 234.808 163.202 234.808Z" fill="#F78F79"/>
<path d="M170.554 228.829C170.554 228.829 174.253 233.13 173.934 236.34C173.613 239.548 171.884 241.548 171.884 241.548C171.884 241.548 169.88 244.08 167.639 242.413" stroke="#DA6450" stroke-width="2" stroke-miterlimit="10"/>
<path d="M162.345 236.256L164.302 237.506C164.302 237.506 163.947 238.034 163.447 239.415C162.951 240.798 163.623 243.372 165.506 243.514C167.388 243.656 168.21 241.114 168.996 238.018C169.781 234.921 165.708 230.357 165.708 230.357" stroke="#DA6450" stroke-width="2" stroke-miterlimit="10"/>
<path d="M177.332 237.306C177.332 237.306 176.556 239.218 175.642 239.859" stroke="#DA6450" stroke-width="2" stroke-miterlimit="10"/>
<path d="M169.445 246.816C169.576 246.604 170.596 241.924 173.855 240.514C176.78 239.247 179.42 238.882 179.42 238.882C179.42 238.882 175.266 236.439 176.649 233.783C178.033 231.126 179.54 233.106 181.373 233.902C182.963 234.591 186.733 236.04 184.61 240.14C182.488 244.24 178.432 250.955 174.246 251.034C170.06 251.113 167.827 249.454 169.445 246.816Z" fill="#F78F79"/>
<path d="M170.215 250.381C168.112 249.572 168.545 246.673 169.594 244.963C169.724 244.751 170.596 241.924 173.855 240.514C176.78 239.247 179.421 238.882 179.421 238.882C179.421 238.882 175.267 236.439 176.65 233.783C178.033 231.126 179.54 233.106 181.373 233.902C181.87 234.118 183.437 235.076 184.114 235.499" stroke="#DA6450" stroke-width="2" stroke-miterlimit="10"/>
<path d="M182.16 369.991C187.436 373.718 195.16 360.589 198.24 355.52C201.678 349.864 206.275 333.293 201.777 329.794C198.883 327.543 185.864 322.542 183.443 321.054C181.103 319.619 180.489 316.491 178.122 315.082C176.413 318.825 173.313 323.378 170.259 327.433C165.91 333.203 162.273 339.784 162.273 339.784C162.273 339.784 167.753 350.057 170.96 354.097C172.757 356.363 176.885 366.266 182.16 369.991Z" fill="#889782"/>
<path d="M249.479 333.637C254.357 330.792 264.792 333.361 271.23 342.615C277.668 351.87 279.593 366.378 279.593 366.378C279.593 366.378 274.03 367.37 267.073 370.091C260.571 372.633 253.787 375.719 253.787 375.719C253.787 375.719 246.347 364.709 244.423 355.084C242.496 345.46 244.601 336.483 249.479 333.637Z" fill="#889782"/>
<path d="M258.18 398.923C258.18 398.923 263.86 396.007 268.923 396.304C273.984 396.601 283.165 398.542 284.576 403.254C285.988 407.966 280.449 416.761 271.876 416.603C263.3 416.446 257.107 413.041 257.107 413.041L258.18 398.923Z" fill="#F78F79"/>
<path d="M256.003 371.094L260.088 388.247L265.179 403.389C265.179 403.389 270.212 406.409 276.138 407.17C282.063 407.933 287.832 408.21 284.532 398.52C282.598 392.843 282.171 383.176 281.528 378.995C280.885 374.815 279.739 366.765 277.348 364.524C274.462 361.822 268.734 361.877 262.877 364.846C258.32 367.157 256.003 371.094 256.003 371.094Z" fill="#F78F79"/>
<path d="M260.806 399.125C260.806 399.125 259.573 391.969 254.329 391.579C249.087 391.19 246.379 389.096 244.716 390.967C243.053 392.839 245.879 395.307 249.095 397.06C252.31 398.814 255.409 400.194 255.409 400.194C255.409 400.194 256.855 402.836 254.662 406.27C252.468 409.705 252.678 411.672 248.555 411.584C244.431 411.495 240.664 406.046 239.638 407.338C238.612 408.631 238.929 411.582 240.896 413.273C240.896 413.273 240.76 416.352 242.349 418.145C243.939 419.938 250.294 421.284 254.052 420.864C257.811 420.444 258.245 420.883 259.802 418.027C261.359 415.172 261.868 414.831 263.425 411.975C264.981 409.12 265.017 407.288 263.818 404.78C262.744 402.537 260.806 399.125 260.806 399.125Z" fill="#F78F79"/>
<path d="M248.572 417.763C248.572 417.763 251.155 418.537 254.315 417.005C257.476 415.475 257.043 415.796 258.414 413.841" stroke="#DA6450" stroke-width="2" stroke-miterlimit="10"/>
<path d="M262.575 415.237C262.575 415.237 266.43 409.261 266.211 406.606" stroke="#DA6450" stroke-width="2" stroke-miterlimit="10"/>
<path d="M262.743 397.908C262.743 397.908 271.598 393.424 278.03 397.444" stroke="#DA6450" stroke-width="2" stroke-miterlimit="10"/>
<path d="M459.864 254.862C465.416 255.301 472.3 256.489 476.331 260.333C482.216 265.947 478.606 274.723 474.233 278.003C473.173 278.798 471.948 279.345 470.703 279.799C459.529 283.88 443.253 280.946 439.654 268.593C438.635 265.097 439.266 263.426 441.188 260.39C442.42 258.443 442.92 253.523 459.864 254.862Z" fill="#E6CFB0"/>
<path d="M460.624 281.927C456.223 281.927 451.88 281.003 448.291 279.187C443.712 276.868 440.592 273.244 439.269 268.705C438.184 264.981 438.956 263.165 440.849 260.175C440.971 259.983 441.083 259.761 441.209 259.519C442.413 257.17 444.426 253.239 459.895 254.462C467.863 255.092 473.33 256.918 476.606 260.043C478.874 262.206 479.974 265.028 479.785 268.203C479.523 272.638 476.928 276.481 474.472 278.322C473.528 279.03 472.408 279.602 470.84 280.175C467.629 281.348 464.108 281.927 460.624 281.927ZM454.493 255.031C444.413 255.031 442.886 258.006 441.92 259.885C441.784 260.151 441.659 260.394 441.526 260.604C439.724 263.45 439.039 265.055 440.039 268.481C441.297 272.802 444.276 276.257 448.654 278.473C454.894 281.632 463.497 282.005 470.565 279.423C472.056 278.879 473.113 278.342 473.993 277.683C476.722 275.636 478.775 271.719 478.987 268.156C479.16 265.224 478.146 262.618 476.054 260.623C472.915 257.63 467.61 255.876 459.833 255.261C457.828 255.102 456.057 255.031 454.493 255.031Z" fill="#E6CFB0"/>
<path d="M432.767 270.59C431.296 270.976 430.793 272.713 431.655 273.967C452.636 304.482 490.887 281.485 481.353 275.755C472.653 270.528 467.172 272.418 472.512 250.361C472.836 249.021 472.782 248.041 470.293 247.482C452.397 243.466 450.963 242.088 449.061 242.968C448.967 243.012 448.089 260.666 443.483 264.912C440.252 267.891 436.095 269.716 432.767 270.59Z" fill="#FBA584"/>
<path d="M471.12 256.785C470.537 260.589 469.775 264.481 470.836 267.757C470.817 267.751 463.474 262.15 457.681 260.459C456.564 260.133 455.393 259.853 454.47 259.144C453.211 258.176 448.338 254.594 448.629 247.446C452.711 255.806 460.667 262.97 471.12 256.785Z" fill="#503712"/>
<path d="M465.475 259.655C456.524 260.215 450.81 254.973 447.844 245.906C446.08 240.513 443.55 222.235 450.007 215.095C459.376 204.733 484.786 208.624 483.535 227.912C482.962 236.743 476.635 258.958 465.475 259.655Z" fill="#FBA584"/>
<path d="M472.357 237.177C473.564 237.428 475.463 233.034 472.535 232.425C470.971 232.1 470.382 236.766 472.357 237.177Z" fill="#382823"/>
<path d="M455.786 234.479C457.013 234.596 458.417 230.02 455.44 229.737C453.851 229.585 453.777 234.288 455.786 234.479Z" fill="#382823"/>
<path d="M463.602 242.691C463.566 242.691 463.53 242.686 463.493 242.677C461.854 242.252 460.987 242.001 460.696 241.371C460.428 240.789 460.736 240.158 461.295 239.011C461.917 237.735 462.858 235.805 463.723 232.609C463.786 232.376 464.026 232.24 464.258 232.301C464.492 232.364 464.629 232.604 464.566 232.837C463.68 236.113 462.717 238.088 462.08 239.394C461.696 240.179 461.394 240.799 461.49 241.005C461.62 241.289 462.78 241.589 463.712 241.831C463.946 241.891 464.086 242.13 464.026 242.363C463.974 242.56 463.797 242.691 463.602 242.691Z" fill="#4C3B22"/>
<path d="M457.754 228.505C458.351 228.552 458.961 228.404 459.351 228.046C460.329 227.149 459.183 226.087 458.052 225.61C455.759 224.643 452.683 225.277 450.242 226.404C449.725 226.642 449.805 227.41 450.358 227.541C451.555 227.827 453.756 228.193 457.754 228.505Z" fill="#4D3930"/>
<path d="M473.406 231.289C472.841 231.089 472.345 230.706 472.134 230.22C471.605 229.003 473.084 228.499 474.31 228.523C476.799 228.571 479.352 230.4 481.125 232.422C481.499 232.849 481.114 233.519 480.556 233.415C479.346 233.188 477.186 232.629 473.406 231.289Z" fill="#4D3930"/>
<path d="M439.709 218.782C439.525 218.782 439.354 218.665 439.293 218.482C439.218 218.252 439.343 218.005 439.572 217.931C442.631 216.924 443.841 214.066 445.122 211.039C445.558 210.008 446.01 208.942 446.54 207.949C450.587 200.377 456.998 198.694 461.645 199.644C466.339 200.602 469.626 204.103 470.019 208.563C470.041 208.803 469.862 209.015 469.623 209.037C469.384 209.057 469.171 208.881 469.15 208.64C468.791 204.574 465.776 201.379 461.47 200.499C457.125 199.612 451.131 201.213 447.311 208.361C446.799 209.319 446.355 210.367 445.927 211.38C444.626 214.453 443.28 217.63 439.845 218.76C439.8 218.775 439.754 218.782 439.709 218.782Z" fill="#4D3930"/>
<path d="M486.138 213.529C485.996 213.529 485.858 213.461 485.773 213.335C482.327 208.162 478.491 205.422 474.91 205.6C472.483 205.727 470.369 207.277 468.958 209.965C468.845 210.18 468.58 210.261 468.367 210.149C468.154 210.037 468.072 209.773 468.184 209.559C469.744 206.587 472.117 204.871 474.865 204.728C478.746 204.529 482.874 207.41 486.5 212.85C486.634 213.051 486.58 213.322 486.379 213.456C486.305 213.506 486.22 213.529 486.138 213.529Z" fill="#4D3930"/>
<path d="M492.474 229.111C492.782 232.636 486.261 242.771 480.683 241.141C479.631 240.834 485.722 235.545 482.299 235.049C477.474 234.351 480.706 229.54 475.724 224.555C476.07 226.787 476.882 227.414 469.488 226.236C466.072 225.691 471.384 222.864 468.706 218.787C466.978 221.113 464.294 224.07 460.103 222.565C451.217 219.376 449.723 232.832 446.017 233.827C442.171 234.859 438.509 225.591 437.269 221.696C437.183 221.428 437.33 221.14 437.592 221.034C447.117 217.172 444.781 211.656 450.496 205.768C456.035 200.063 463.988 198.022 468.901 206.134C470.184 208.252 470.146 207.322 472.421 206.158C479.628 202.473 491.725 220.541 492.474 229.111Z" fill="#4D3930"/>
<path d="M468.89 217.811C468.842 217.811 468.792 217.803 468.745 217.785C468.517 217.705 468.398 217.456 468.478 217.228C469.897 213.222 469.861 210.108 469.196 208.799C469.087 208.584 469.172 208.321 469.387 208.212C469.6 208.105 469.864 208.188 469.975 208.403C470.889 210.204 470.625 213.781 469.302 217.52C469.238 217.699 469.07 217.811 468.89 217.811Z" fill="#382823"/>
<path d="M487.256 238.03C487.167 238.03 487.078 238.003 487 237.947C486.805 237.806 486.761 237.533 486.902 237.338C490.81 231.931 490.676 225.476 488.524 221.894C488.4 221.688 488.467 221.42 488.673 221.295C488.882 221.171 489.148 221.239 489.273 221.445C491.572 225.272 491.739 232.136 487.61 237.849C487.525 237.967 487.391 238.03 487.256 238.03Z" fill="#382823"/>
<path d="M483.8 230.564C483.674 230.564 483.549 230.51 483.463 230.405C483.31 230.218 483.336 229.943 483.522 229.79C484.883 228.669 485.33 226.769 484.928 223.809C484.896 223.57 485.063 223.35 485.302 223.318C485.531 223.281 485.761 223.452 485.794 223.692C486.075 225.761 486.202 228.715 484.077 230.464C483.996 230.531 483.898 230.564 483.8 230.564Z" fill="#382823"/>
<path d="M482.16 214.173C482.013 214.173 481.87 214.099 481.787 213.965C481.058 212.778 478.455 208.869 475.598 208.406C474.663 208.253 473.832 208.5 473.052 209.155C472.869 209.308 472.592 209.286 472.437 209.1C472.282 208.916 472.306 208.641 472.491 208.485C473.463 207.668 474.557 207.352 475.737 207.543C478.961 208.065 481.753 212.24 482.532 213.507C482.658 213.713 482.594 213.982 482.389 214.108C482.317 214.152 482.238 214.173 482.16 214.173Z" fill="#382823"/>
<path d="M476.957 214.818C476.838 214.818 476.718 214.769 476.632 214.673C475.469 213.375 473.74 212.603 471.997 212.603C471.982 212.603 471.966 212.605 471.949 212.603C471.709 212.603 471.514 212.41 471.512 212.17C471.51 211.929 471.704 211.732 471.946 211.73C471.963 211.73 471.98 211.73 471.997 211.73C473.984 211.73 475.956 212.61 477.283 214.09C477.444 214.27 477.429 214.546 477.249 214.707C477.165 214.781 477.061 214.818 476.957 214.818Z" fill="#382823"/>
<path d="M475.039 222.111C474.798 222.111 474.602 221.915 474.602 221.674C474.604 220.417 473.129 216.838 470.388 215.906C470.16 215.828 470.038 215.58 470.115 215.351C470.193 215.123 470.44 215.001 470.669 215.079C473.844 216.159 475.478 220.192 475.476 221.675C475.476 221.916 475.28 222.111 475.039 222.111Z" fill="#382823"/>
<path d="M467.619 208.721C467.421 208.721 467.243 208.586 467.194 208.386C466.912 207.215 465.324 204.521 462.931 203.597C461.518 203.052 460.097 203.255 458.708 204.2C458.509 204.336 458.237 204.283 458.102 204.084C457.966 203.885 458.018 203.613 458.218 203.478C459.836 202.377 461.573 202.136 463.245 202.782C465.761 203.754 467.648 206.542 468.044 208.181C468.1 208.416 467.956 208.652 467.721 208.708C467.687 208.716 467.652 208.721 467.619 208.721Z" fill="#382823"/>
<path d="M467.497 212.389C467.366 212.389 467.235 212.329 467.149 212.216C466.293 211.087 464.541 210.747 463.325 211.473C463.117 211.597 462.85 211.528 462.726 211.321C462.602 211.114 462.67 210.846 462.877 210.722C464.484 209.765 466.713 210.196 467.845 211.688C467.991 211.881 467.952 212.154 467.761 212.3C467.682 212.36 467.589 212.389 467.497 212.389Z" fill="#382823"/>
<path d="M461.219 219.637C460.278 219.637 459.374 219.374 458.653 218.868C458.456 218.729 458.407 218.457 458.546 218.259C458.684 218.062 458.957 218.014 459.155 218.152C460.019 218.759 461.229 218.926 462.386 218.601C463.662 218.242 465.481 217.133 466.9 213.883C466.997 213.661 467.255 213.562 467.476 213.657C467.696 213.754 467.797 214.011 467.701 214.232C466.145 217.796 464.08 219.033 462.622 219.442C462.156 219.573 461.683 219.637 461.219 219.637Z" fill="#382823"/>
<path d="M448.154 228.847C448.135 228.847 448.114 228.846 448.094 228.843C447.855 228.81 447.688 228.59 447.721 228.351C448.473 222.837 454.093 218.671 455.685 218.851C455.925 218.878 456.098 219.094 456.071 219.334C456.045 219.574 455.832 219.747 455.589 219.719C454.698 219.649 449.305 223.207 448.586 228.469C448.556 228.689 448.369 228.847 448.154 228.847Z" fill="#382823"/>
<path d="M438.796 222.5C438.556 222.5 438.359 222.304 438.359 222.063C438.359 221.822 438.555 221.627 438.796 221.627C444.194 221.625 445.61 218.554 447.755 213.907C448.067 213.233 448.39 212.532 448.741 211.812C448.846 211.596 449.109 211.506 449.324 211.611C449.541 211.716 449.631 211.978 449.525 212.195C449.178 212.909 448.858 213.604 448.549 214.273C446.428 218.868 444.753 222.498 438.796 222.5Z" fill="#382823"/>
<path d="M442.422 228.529C442.388 228.529 442.355 228.525 442.32 228.517C442.086 228.46 441.941 228.225 441.997 227.99C442.318 226.647 443.399 226.081 444.371 226.122C445.39 226.164 446.173 226.834 446.32 227.79C446.356 228.029 446.193 228.252 445.954 228.288C445.724 228.325 445.493 228.162 445.457 227.923C445.356 227.268 444.789 227.013 444.335 226.995C443.8 226.979 443.068 227.273 442.846 228.193C442.799 228.394 442.62 228.529 442.422 228.529Z" fill="#382823"/>
<path d="M473.823 225.999C472.696 225.999 471.083 225.612 470.128 225.352C469.931 225.299 469.771 225.161 469.688 224.975C469.606 224.794 469.611 224.588 469.7 224.411C470.082 223.644 470.073 222.032 469.811 221.21C469.738 220.98 469.864 220.735 470.094 220.662C470.329 220.589 470.569 220.715 470.643 220.945C470.944 221.889 470.977 223.534 470.582 224.57C471.919 224.92 473.521 225.229 474.246 225.095C474.478 225.051 474.711 225.208 474.754 225.446C474.797 225.683 474.64 225.911 474.403 225.954C474.232 225.985 474.036 225.999 473.823 225.999Z" fill="#382823"/>
<path d="M486.247 236.628C486.022 236.628 485.831 236.455 485.812 236.227C485.744 235.385 485.404 234.727 484.855 234.375C484.36 234.056 483.72 234.015 483.058 234.256C482.831 234.341 482.58 234.221 482.498 233.995C482.416 233.768 482.532 233.518 482.759 233.436C483.686 233.099 484.597 233.171 485.326 233.639C486.11 234.142 486.591 235.036 486.683 236.156C486.703 236.396 486.523 236.607 486.283 236.627C486.271 236.628 486.259 236.628 486.247 236.628Z" fill="#382823"/>
<path d="M480.328 232.781C480.07 232.772 479.882 232.568 479.892 232.328C479.987 229.854 478.817 226.92 476.91 224.851C476.747 224.674 476.759 224.398 476.935 224.235C477.113 224.072 477.389 224.082 477.553 224.259C479.639 226.523 480.87 229.628 480.764 232.361C480.756 232.597 480.562 232.781 480.328 232.781Z" fill="#382823"/>
<path d="M445.366 229.008C449.051 228.566 448.037 235.955 447.433 239.606C446.243 246.803 439.564 229.705 445.366 229.008Z" fill="#FBA584"/>
<path d="M446.277 237.512C446.164 237.512 446.051 237.469 445.966 237.383C444.621 236.02 444.361 234.137 445.273 232.344C445.383 232.128 445.646 232.044 445.86 232.152C446.075 232.261 446.161 232.524 446.051 232.739C445.308 234.202 445.503 235.671 446.587 236.769C446.756 236.941 446.755 237.217 446.583 237.386C446.499 237.471 446.388 237.512 446.277 237.512Z" fill="black"/>
<path d="M483.42 235.24C480.046 233.696 478.759 241.043 478.222 244.704C477.163 251.922 488.735 237.672 483.42 235.24Z" fill="#FBA584"/>
<path d="M480.095 243.084C479.938 243.084 479.786 242.998 479.708 242.849C479.596 242.635 479.679 242.372 479.893 242.26C481.26 241.544 481.894 240.205 481.631 238.585C481.592 238.347 481.754 238.123 481.992 238.084C482.226 238.045 482.455 238.207 482.493 238.445C482.816 240.43 481.995 242.146 480.298 243.034C480.233 243.067 480.164 243.084 480.095 243.084Z" fill="black"/>
<path d="M465.603 248.766C465.577 248.876 465.51 248.976 465.406 249.039C463.777 250.044 461.883 249.873 460.341 248.582C460.155 248.426 460.133 248.15 460.286 247.967C460.441 247.782 460.716 247.757 460.901 247.912C462.16 248.966 463.634 249.106 464.948 248.297C465.154 248.17 465.422 248.234 465.549 248.439C465.612 248.54 465.628 248.658 465.603 248.766Z" fill="black"/>
<path d="M586.773 411.584C584.282 404.348 579.389 403.41 579.389 403.41L556.355 423.748L569.108 434.289C569.108 434.289 581.916 414.45 586.773 411.584Z" fill="#FBA584"/>
<path d="M581.84 393.223C582.219 392.539 583.074 392.287 583.764 392.655C589.24 395.575 611.015 407.188 611.054 407.212C611.834 407.685 612.107 408.68 611.687 409.49C610.78 411.239 608.495 412.331 606.403 412.361C601.752 412.43 595.014 407.764 585.919 414.589C585.331 415.031 584.474 414.803 584.207 414.118C583.445 412.171 583.25 409.977 582.372 408.058C580.916 404.878 577.706 405.689 577.458 402.239C577.394 401.358 580.441 395.748 581.84 393.223Z" fill="#514342"/>
<path d="M585.244 415.254C585.1 415.254 584.954 415.233 584.811 415.192C584.344 415.06 583.975 414.727 583.8 414.277C583.443 413.364 583.206 412.395 582.977 411.459C582.711 410.371 582.436 409.247 581.975 408.239C581.368 406.915 580.426 406.344 579.514 405.792C578.363 405.096 577.174 404.376 577.023 402.269C577.003 401.996 576.943 401.163 581.458 393.011C581.948 392.124 583.077 391.793 583.97 392.27C584.242 392.415 611.217 406.8 611.279 406.837C612.25 407.426 612.599 408.679 612.074 409.691C611.145 411.485 608.815 412.762 606.41 412.798C605.154 412.804 603.722 412.497 602.219 412.158C597.992 411.205 592.732 410.021 586.181 414.938C585.905 415.145 585.578 415.254 585.244 415.254ZM582.222 393.434C579.018 399.22 577.888 401.777 577.894 402.21C578.012 403.863 578.875 404.385 579.967 405.045C580.943 405.637 582.051 406.307 582.77 407.875C583.265 408.959 583.55 410.124 583.826 411.251C584.048 412.16 584.278 413.1 584.613 413.96C584.689 414.152 584.848 414.295 585.05 414.352C585.259 414.412 585.481 414.372 585.656 414.239C592.531 409.08 598.24 410.365 602.412 411.306C603.925 411.647 605.226 411.953 606.397 411.924C608.462 411.893 610.523 410.785 611.299 409.29C611.613 408.684 611.406 407.935 610.828 407.585C610.628 407.476 589.842 396.391 583.559 393.041C583.084 392.786 582.484 392.963 582.222 393.434Z" fill="#463C3A"/>
<path d="M610.632 409.39C610.449 409.39 610.263 409.346 610.089 409.255L582.547 394.739C581.979 394.439 581.761 393.735 582.06 393.166C582.36 392.597 583.064 392.379 583.634 392.679L611.176 407.195C611.745 407.495 611.962 408.199 611.663 408.768C611.454 409.164 611.05 409.39 610.632 409.39Z" fill="#F9F2E2"/>
<path d="M591.746 411.389C591.544 411.389 591.362 411.247 591.32 411.04C591.052 409.732 589.944 408.621 588.832 407.596C588.655 407.432 588.644 407.156 588.807 406.978C588.972 406.802 589.247 406.791 589.425 406.954C590.641 408.076 591.855 409.302 592.175 410.865C592.224 411.101 592.071 411.331 591.835 411.38C591.805 411.386 591.776 411.389 591.746 411.389Z" fill="#F9F2E2"/>
<path d="M595.637 410.909C595.618 410.909 595.599 410.908 595.58 410.905C595.341 410.875 595.172 410.656 595.203 410.417C595.342 409.329 594.452 408.195 593.447 407.033C593.29 406.851 593.309 406.575 593.492 406.417C593.672 406.26 593.949 406.278 594.108 406.462C595.247 407.78 596.254 409.081 596.069 410.527C596.041 410.748 595.853 410.909 595.637 410.909Z" fill="#F9F2E2"/>
<path d="M599.527 411.075C599.487 411.075 599.446 411.069 599.405 411.057C599.173 410.99 599.04 410.746 599.108 410.515C599.235 410.08 598.617 408.825 597.701 407.657C597.553 407.467 597.586 407.193 597.775 407.043C597.966 406.896 598.238 406.928 598.389 407.118C598.837 407.69 600.274 409.642 599.947 410.761C599.891 410.951 599.717 411.075 599.527 411.075Z" fill="#F9F2E2"/>
<path d="M437.138 593.715C442.378 599.292 447.225 598.141 447.225 598.141L449.011 577.127L436.632 578.235C436.632 578.235 437.047 590.177 437.138 593.715Z" fill="#FBA584"/>
<path d="M449.528 607.102C449.541 607.883 448.926 608.529 448.144 608.554C441.942 608.757 417.277 609.564 417.231 609.563C416.319 609.543 415.586 608.816 415.546 607.904C415.458 605.936 416.894 603.851 418.691 602.779C422.687 600.398 430.854 601.079 435.328 590.624C435.618 589.948 436.473 589.718 437.047 590.177C438.679 591.485 439.944 593.288 441.662 594.513C444.511 596.541 446.888 594.237 448.825 597.103C449.319 597.833 449.48 604.216 449.528 607.102Z" fill="#514342"/>
<path d="M417.224 610C416.088 609.974 415.16 609.063 415.11 607.924C415.02 605.906 416.401 603.636 418.467 602.404C419.558 601.754 420.948 601.323 422.418 600.866C426.555 599.581 431.704 597.983 434.926 590.452C435.121 589.998 435.507 589.668 435.987 589.548C436.457 589.429 436.943 589.535 437.32 589.837C438.085 590.449 438.773 591.169 439.439 591.867C440.212 592.676 441.013 593.513 441.916 594.157C443.103 595.002 444.204 595.025 445.269 595.049C446.614 595.078 448.004 595.108 449.187 596.857C449.341 597.086 449.81 597.781 449.965 607.095C449.982 608.106 449.171 608.958 448.158 608.99L441.148 609.219C419.607 609.924 417.272 610 417.224 610ZM436.365 590.375C436.31 590.375 436.255 590.382 436.2 590.395C435.987 590.449 435.816 590.595 435.73 590.796C432.349 598.698 426.759 600.434 422.677 601.7C421.196 602.161 419.917 602.558 418.915 603.155C417.142 604.212 415.908 606.202 415.982 607.886C416.013 608.567 416.565 609.111 417.241 609.127C417.412 609.122 431.679 608.656 441.12 608.348L448.13 608.119C448.669 608.101 449.1 607.648 449.091 607.11C448.982 600.499 448.684 597.718 448.462 597.345C447.534 595.972 446.526 595.95 445.251 595.922C444.109 595.897 442.815 595.869 441.41 594.868C440.439 594.177 439.61 593.31 438.808 592.47C438.162 591.795 437.494 591.095 436.775 590.519C436.656 590.424 436.514 590.375 436.365 590.375Z" fill="#463C3A"/>
<path d="M417.091 609.64C416.468 609.64 415.952 609.146 415.928 608.519C415.903 607.876 416.405 607.335 417.048 607.311L448.159 606.141C448.814 606.138 449.342 606.619 449.367 607.262C449.391 607.904 448.889 608.445 448.246 608.469L417.135 609.639C417.121 609.639 417.106 609.64 417.091 609.64Z" fill="#F9F2E2"/>
<path d="M436.201 599.001C436.168 599.001 436.136 598.997 436.104 598.99C434.49 598.624 432.826 598.169 431.768 596.973C431.608 596.793 431.625 596.517 431.806 596.357C431.985 596.198 432.261 596.214 432.422 596.395C433.307 597.395 434.822 597.804 436.296 598.138C436.531 598.191 436.679 598.425 436.626 598.66C436.58 598.863 436.4 599.001 436.201 599.001Z" fill="#F9F2E2"/>
<path d="M432.434 601.778C432.387 601.778 432.338 601.771 432.29 601.753C430.646 601.18 429.123 600.553 428.561 599.209C428.468 598.987 428.573 598.731 428.796 598.639C429.016 598.545 429.274 598.65 429.367 598.873C429.79 599.885 431.127 600.423 432.578 600.929C432.806 601.008 432.926 601.258 432.846 601.485C432.784 601.665 432.615 601.778 432.434 601.778Z" fill="#F9F2E2"/>
<path d="M428.415 603.354C428.36 603.354 428.305 603.344 428.251 603.322C427.578 603.051 425.359 602.077 425.084 600.943C425.027 600.709 425.17 600.473 425.405 600.416C425.643 600.359 425.877 600.504 425.933 600.737C426.04 601.178 427.201 601.958 428.578 602.513C428.802 602.603 428.91 602.857 428.819 603.081C428.751 603.251 428.588 603.354 428.415 603.354Z" fill="#F9F2E2"/>
<path d="M434.556 586.27C441.851 586.556 443.122 589.539 450.219 589.914C451.595 589.986 452.782 588.952 452.894 587.579C457 537.547 461.984 481.53 463.869 429.724C463.891 429.126 464.701 428.966 464.952 429.51C479.089 460.149 493.079 491.511 499.634 499.554C507.287 508.944 522.629 508.339 532.658 501.543C545.308 492.972 555.851 473.986 582.514 422.92C582.889 422.202 582.907 421.341 582.56 420.609C579.607 414.395 576.042 411.22 570.888 407.411C569.939 406.709 568.628 406.743 567.72 407.498C552.661 420.04 538.068 434.424 528.575 451.508C527.992 452.557 526.584 452.758 525.694 451.954C517.43 444.482 517.306 430.933 512.915 420.281C507.483 407.107 494.846 389.65 482.856 349.705C482.493 348.497 481.305 347.747 480.054 347.911C470.659 349.145 431.146 343.683 429.67 347.428C425.667 357.577 422.399 384.629 421.895 397.036C419.23 462.678 424.126 522.018 432.145 584.039C432.304 585.266 433.319 586.222 434.556 586.27Z" fill="#E6CFB0"/>
<path d="M450.36 590.354C450.306 590.354 450.251 590.353 450.197 590.35C446.636 590.162 444.487 589.32 442.408 588.507C440.23 587.654 438.174 586.85 434.54 586.707C433.09 586.651 431.901 585.552 431.712 584.095C422.191 510.461 419.125 454.513 421.459 397.018C421.999 383.722 425.387 357.098 429.264 347.268C430.183 344.937 440.694 345.499 457.895 346.703C467.292 347.36 476.169 347.982 479.998 347.478C481.479 347.286 482.851 348.169 483.275 349.58C491.811 378.019 500.608 394.911 507.03 407.246C509.564 412.113 511.753 416.316 513.319 420.116C514.827 423.774 515.847 427.811 516.832 431.715C518.788 439.469 520.637 446.793 525.988 451.63C526.322 451.933 526.769 452.066 527.205 451.991C527.626 451.922 527.987 451.668 528.194 451.296C536.27 436.761 548.742 422.738 567.441 407.164C568.506 406.276 570.03 406.234 571.148 407.06C576.727 411.184 580.085 414.383 582.955 420.422C583.359 421.275 583.339 422.284 582.9 423.123C556.024 474.598 545.496 493.372 532.903 501.905C523.015 508.606 507.353 509.719 499.296 499.83C493.545 492.774 482.089 467.841 469.962 441.444C468.172 437.55 466.365 433.616 464.555 429.694C464.526 429.63 464.479 429.605 464.408 429.618C464.342 429.631 464.307 429.673 464.305 429.741C462.649 475.249 458.69 522.957 454.861 569.094C454.342 575.344 453.829 581.523 453.33 587.615C453.202 589.179 451.912 590.354 450.36 590.354ZM437.181 346.53C433.191 346.53 430.384 346.807 430.077 347.588C426.232 357.336 422.869 383.817 422.332 397.054C420 454.496 423.064 510.4 432.578 583.983C432.713 585.015 433.551 585.795 434.574 585.835C438.355 585.983 440.577 586.853 442.726 587.694C444.833 588.519 446.823 589.297 450.242 589.478C451.401 589.539 452.365 588.688 452.459 587.543C452.96 581.452 453.473 575.272 453.991 569.021C457.819 522.895 461.778 475.198 463.433 429.71C463.45 429.235 463.773 428.854 464.237 428.761C464.702 428.671 465.149 428.896 465.348 429.328C467.159 433.25 468.966 437.185 470.756 441.08C482.86 467.425 494.292 492.308 499.973 499.278C507.721 508.784 522.844 507.667 532.414 501.183C544.839 492.763 555.326 474.05 582.127 422.719C582.439 422.121 582.454 421.403 582.165 420.797C579.376 414.925 576.092 411.8 570.63 407.763C569.837 407.177 568.755 407.205 568.001 407.834C549.386 423.338 536.98 437.283 528.957 451.72C528.62 452.327 528.034 452.739 527.348 452.853C526.645 452.971 525.935 452.76 525.403 452.278C519.855 447.263 517.888 439.468 515.985 431.929C515.008 428.055 513.997 424.048 512.513 420.449C510.96 416.685 508.781 412.498 506.256 407.65C499.817 395.285 491 378.35 482.438 349.831C482.139 348.833 481.172 348.205 480.112 348.345C476.194 348.859 467.277 348.235 457.834 347.574C451.111 347.103 442.922 346.53 437.181 346.53Z" fill="#D5BD99"/>
<path d="M449.052 586.174C448.789 586.162 448.604 585.957 448.616 585.716C451.559 525.74 455.56 476.299 461.205 430.123C461.235 429.883 461.455 429.724 461.692 429.742C461.932 429.772 462.102 429.99 462.072 430.229C456.429 476.383 452.43 525.805 449.488 585.759C449.477 585.992 449.284 586.174 449.052 586.174Z" fill="#D5BD99"/>
<path d="M463.556 426.867C463.412 426.867 463.268 426.82 463.145 426.729C459.991 424.371 456.593 422.302 453.048 420.58C452.831 420.475 452.741 420.213 452.845 419.996C452.952 419.78 453.211 419.69 453.429 419.794C456.878 421.469 460.19 423.469 463.279 425.741C462.439 420.394 464.756 414.217 469.404 409.5C471.292 407.583 473.438 405.944 475.784 404.63C475.994 404.509 476.26 404.587 476.378 404.797C476.496 405.008 476.421 405.274 476.211 405.391C473.937 406.666 471.856 408.254 470.026 410.112C465.439 414.768 463.214 420.875 464.219 426.049C464.275 426.332 464.155 426.611 463.914 426.763C463.804 426.833 463.679 426.867 463.556 426.867Z" fill="#D5BD99"/>
<path d="M461.64 423.54C461.473 423.54 461.314 423.444 461.242 423.282C449.55 397.304 449.823 363.899 451.367 337.699C451.382 337.457 451.605 337.262 451.829 337.289C452.07 337.303 452.253 337.51 452.239 337.751C450.701 363.851 450.425 397.119 462.038 422.924C462.137 423.144 462.039 423.403 461.819 423.501C461.761 423.528 461.7 423.54 461.64 423.54Z" fill="#D5BD99"/>
<path d="M527.041 458.298C526.581 458.298 526.116 458.245 525.651 458.127C524.438 457.816 523.384 457.085 522.425 456.343C511.806 448.108 506.51 435.207 501.387 422.73C500.588 420.784 499.793 418.846 498.98 416.933C496.966 412.19 494.735 407.396 492.578 402.76C485.524 387.601 478.231 371.927 477.056 355.103C477.039 354.862 477.22 354.654 477.461 354.637C477.677 354.63 477.91 354.801 477.927 355.042C479.091 371.705 486.349 387.305 493.369 402.391C495.529 407.034 497.764 411.835 499.784 416.592C500.598 418.507 501.395 420.449 502.195 422.399C507.274 434.769 512.525 447.56 522.959 455.653C523.982 456.444 524.868 457.024 525.868 457.281C527.826 457.783 529.869 456.88 531.236 456.035C536.085 453.038 538.863 447.711 541.55 442.559C542.094 441.516 542.636 440.476 543.193 439.46C549.098 428.673 557.634 419.377 567.877 412.577C568.078 412.443 568.349 412.498 568.482 412.699C568.616 412.9 568.561 413.171 568.36 413.304C558.234 420.027 549.797 429.217 543.959 439.879C543.405 440.891 542.865 441.925 542.324 442.964C539.582 448.221 536.747 453.656 531.696 456.778C530.495 457.519 528.813 458.298 527.041 458.298Z" fill="#D5BD99"/>
<path d="M453.782 397.008C453.654 397.008 453.526 396.952 453.44 396.843C447.116 388.903 440.51 375.417 445.599 341.328C445.636 341.089 445.869 340.928 446.095 340.961C446.335 340.996 446.499 341.219 446.464 341.457C441.424 375.213 447.91 388.498 454.123 396.299C454.273 396.487 454.242 396.763 454.054 396.913C453.973 396.977 453.877 397.008 453.782 397.008Z" fill="#D5BD99"/>
<path d="M436.913 509.029C436.858 509.029 436.802 509.018 436.748 508.996C428.754 505.711 425.736 497.808 423.072 490.836C422.858 490.277 422.646 489.722 422.434 489.174C422.347 488.95 422.458 488.697 422.683 488.609C422.906 488.52 423.161 488.634 423.248 488.858C423.461 489.408 423.674 489.964 423.888 490.524C426.616 497.663 429.436 505.046 437.079 508.187C437.303 508.28 437.409 508.534 437.318 508.757C437.248 508.926 437.085 509.029 436.913 509.029Z" fill="#D5BD99"/>
<path d="M356.726 188.476C350.716 178.592 353.219 173.808 355.675 174.136C355.537 173.606 355.562 173.037 355.732 172.517C355.881 172.059 356.394 171.83 356.856 171.967C359.213 172.671 358.453 170.047 359.537 169.759C359.93 169.654 360.328 169.922 360.735 169.92C361.631 169.916 362.006 168.75 362.771 168.283C365.273 166.755 366.553 171.872 367.371 172.827C375.068 181.813 364.195 179.305 373.288 213.244C374.137 216.413 374.312 218.43 366.094 219.824C363.093 220.332 362.652 218.825 362.393 216.162C360.346 195.118 361.721 196.692 356.726 188.476Z" fill="#FBA584"/>
<path d="M367.437 173.251C363.574 171.685 362.496 172.832 361.595 175.037C360.394 177.978 363.533 179.488 365.82 175.265L367.437 173.251Z" fill="#FBA584"/>
<path d="M353.746 177.79C356.194 182.364 358.335 184.393 357.044 179.391C356.734 178.187 356.424 176.984 356.113 175.781C354.998 176.129 354.386 176.591 353.746 177.79Z" fill="#FBA584"/>
<path d="M356.164 175.671C356.048 175.827 356.038 176.043 356.131 176.214C358.515 180.587 360.54 182.43 359.277 177.532C358.966 176.329 358.656 175.126 358.346 173.923C357.427 174.428 356.806 174.813 356.164 175.671Z" fill="#FBA584"/>
<path d="M357.673 174.548C360.121 179.122 362.261 181.151 360.971 176.149L360.194 173.138C360.117 172.838 359.772 172.696 359.506 172.855C358.854 173.245 358.281 173.64 357.673 174.548Z" fill="#FBA584"/>
<path d="M373.437 194.219C379.969 228.211 381.919 237.673 382.893 240.83C383.265 242.034 384.142 243.009 385.293 243.522C390.858 245.997 412.604 255.909 429.216 266.814C452.709 282.235 428.013 303.303 423.953 302.627C417.149 301.495 412.8 287.498 406.923 283.889C370.069 261.261 362.877 269.717 360.467 250.752C360.031 247.322 357.036 206.793 357.975 195.958C358.05 195.099 358.573 194.338 359.361 193.989C363.117 192.326 367.577 191.968 371.294 192.288C372.36 192.38 373.235 193.168 373.437 194.219Z" fill="#D5BD99"/>
<path d="M424.136 303.077C424.045 303.077 423.96 303.071 423.88 303.058C419.835 302.385 416.697 297.502 413.661 292.78C411.345 289.177 409.157 285.774 406.694 284.261C392.378 275.471 382.361 271.304 375.733 268.547C365.115 264.129 361.538 262.64 360.033 250.807C359.585 247.287 356.609 206.655 357.539 195.92C357.629 194.893 358.259 194 359.184 193.59C363.76 191.562 368.758 191.63 371.33 191.853C372.586 191.961 373.628 192.9 373.865 194.136C380.095 226.555 382.302 237.434 383.31 240.701C383.642 241.777 384.43 242.66 385.471 243.122C391.625 245.86 412.983 255.636 429.455 266.448C441.026 274.044 440.692 282.701 438.374 288.625C435.277 296.544 427.004 303.077 424.136 303.077ZM368.788 192.619C366.195 192.619 362.751 192.965 359.538 194.389C358.904 194.67 358.471 195.286 358.41 195.996C357.483 206.683 360.453 247.187 360.899 250.697C362.339 262.029 365.523 263.353 376.069 267.741C382.722 270.508 392.776 274.691 407.151 283.517C409.784 285.134 412.024 288.618 414.395 292.308C417.329 296.87 420.361 301.587 424.024 302.196C425.863 302.499 434.299 296.645 437.562 288.308C439.761 282.684 440.058 274.453 428.975 267.179C412.56 256.402 391.255 246.652 385.116 243.921C383.845 243.356 382.883 242.276 382.476 240.959C381.444 237.617 379.321 227.152 373.008 194.301C372.844 193.447 372.123 192.798 371.256 192.723C370.585 192.666 369.744 192.619 368.788 192.619Z" fill="#E6CFB0"/>
<path d="M424.123 300.382C424.105 300.382 424.087 300.381 424.069 300.379C423.83 300.349 423.659 300.131 423.689 299.892C424.429 293.854 421.112 287.634 413.546 280.877C405.09 273.326 396.69 270.024 389.279 267.11C371.854 260.259 359.263 255.309 360.894 203.902C360.902 203.661 361.122 203.488 361.344 203.479C361.585 203.486 361.774 203.688 361.766 203.929C360.156 254.721 372.505 259.577 389.599 266.297C397.078 269.238 405.555 272.571 414.127 280.226C421.923 287.188 425.334 293.656 424.555 299.998C424.528 300.219 424.34 300.382 424.123 300.382Z" fill="#E6CFB0"/>
<path d="M596.902 223.507C608.019 220.307 609.418 215.092 607.389 213.67C607.849 213.373 608.216 212.938 608.444 212.44C608.644 212.002 608.422 211.486 607.989 211.275C605.778 210.195 608.115 208.781 607.512 207.834C607.294 207.491 606.82 207.418 606.522 207.141C605.866 206.531 606.38 205.419 606.134 204.558C605.328 201.738 600.92 204.637 599.672 204.785C587.922 206.18 597.62 211.702 567.94 230.508C565.169 232.263 563.674 233.629 568.775 240.221C570.639 242.628 571.983 241.817 573.978 240.034C589.74 225.941 587.662 226.167 596.902 223.507Z" fill="#FBA584"/>
<path d="M599.336 205.051C603.238 206.517 603.254 208.09 602.423 210.322C601.315 213.299 597.983 212.284 599.161 207.628L599.336 205.051Z" fill="#FBA584"/>
<path d="M606.333 217.664C601.433 219.37 598.484 219.413 602.822 216.608C603.865 215.933 604.909 215.258 605.952 214.583C606.537 215.594 606.674 216.349 606.333 217.664Z" fill="#FBA584"/>
<path d="M605.989 214.467C605.97 214.661 605.83 214.827 605.646 214.889C600.931 216.492 598.192 216.475 602.439 213.728C603.482 213.053 604.526 212.378 605.569 211.704C605.902 212.698 606.098 213.402 605.989 214.467Z" fill="#FBA584"/>
<path d="M605.639 212.619C600.74 214.326 597.791 214.369 602.128 211.563L604.739 209.875C604.999 209.706 605.349 209.836 605.437 210.133C605.654 210.861 605.807 211.539 605.639 212.619Z" fill="#FBA584"/>
<path d="M588.889 226.927C589.535 228.194 589.369 229.728 588.504 230.857C558.319 270.292 540.72 282.356 519.13 294.79C494.404 309.029 495.026 321.571 488.261 321.401C474.808 321.063 466.755 289.381 487.294 278.683C503.75 270.111 518.028 270.899 531.815 258.48C545.879 245.813 564.935 225.799 578.166 219.014C579.238 218.464 580.515 218.483 581.582 219.042C584.52 220.582 587.13 223.473 588.889 226.927Z" fill="#D5BD99"/>
<path d="M488.403 321.84C488.352 321.84 488.301 321.839 488.25 321.838C482.417 321.691 477.155 315.796 475.157 307.168C472.997 297.842 474.827 284.685 487.092 278.296C493.606 274.903 499.75 272.978 505.692 271.117C514.714 268.291 523.236 265.621 531.522 258.156C535.079 254.953 538.917 251.314 542.981 247.463C554.722 236.335 568.03 223.721 577.966 218.626C579.157 218.016 580.585 218.028 581.784 218.656C584.716 220.193 587.448 223.135 589.278 226.729C589.991 228.128 589.824 229.853 588.851 231.123C558.33 270.995 540.792 282.818 519.347 295.168C504.852 303.516 499.209 311.151 495.474 316.204C492.888 319.704 491.31 321.84 488.403 321.84ZM579.839 219.049C579.331 219.049 578.825 219.167 578.365 219.403C568.54 224.441 555.28 237.009 543.582 248.096C539.514 251.952 535.672 255.594 532.107 258.805C523.678 266.397 515.069 269.094 505.954 271.95C500.047 273.8 493.941 275.713 487.495 279.071C475.674 285.229 473.919 297.949 476.008 306.971C477.915 315.205 482.843 320.828 488.273 320.965C488.314 320.966 488.355 320.966 488.397 320.966C490.869 320.966 492.267 319.075 494.773 315.685C498.55 310.574 504.259 302.85 518.911 294.412C540.268 282.113 557.736 270.335 588.157 230.592C588.927 229.588 589.061 228.227 588.5 227.125C586.75 223.689 584.155 220.884 581.38 219.43C580.896 219.176 580.366 219.049 579.839 219.049Z" fill="#E6CFB0"/>
<path d="M485.148 317.296C485.123 317.296 485.099 317.294 485.075 317.29C484.837 317.251 484.676 317.026 484.716 316.788C485.77 310.441 490.994 306.997 502.442 299.45C514.442 291.539 532.576 279.584 560.119 255.481C567.928 248.648 576.824 240.538 583.567 230.753C583.702 230.555 583.973 230.504 584.174 230.641C584.372 230.778 584.423 231.05 584.286 231.249C577.486 241.117 568.543 249.271 560.694 256.139C533.105 280.28 514.942 292.255 502.922 300.179C491.694 307.581 486.569 310.96 485.577 316.931C485.543 317.145 485.357 317.296 485.148 317.296Z" fill="#E6CFB0"/>
<path d="M429.215 266.814C431.977 265.997 436.943 265.332 442.58 264.967C443.059 264.936 443.482 265.3 443.507 265.779C443.882 272.743 447.067 286.22 452.941 287.441C458.815 288.662 467.377 277.629 472.578 271.99C472.822 271.725 473.204 271.629 473.54 271.759C481.247 274.717 483.055 275.884 487.293 278.683C489.221 317.214 493.14 354.757 486.488 360.848C483.855 363.258 464.942 357.651 454.356 356.855C443.37 356.028 431.202 361.445 421.68 360.873C418.264 352.179 423.414 269.362 429.215 266.814Z" fill="#889782"/>
<path d="M483.749 361.878C480.744 361.878 475.847 360.984 469.272 359.703C463.975 358.671 458.499 357.604 454.323 357.29C448.622 356.864 442.578 358.137 436.733 359.37C431.337 360.509 426.247 361.584 421.654 361.308L421.375 361.292L421.274 361.032C417.979 352.648 422.553 269.264 429.039 266.414L429.092 266.395C431.82 265.588 436.727 264.908 442.553 264.531C442.899 264.508 443.245 264.625 443.51 264.86C443.771 265.092 443.925 265.41 443.944 265.756C444.299 272.372 447.422 285.847 453.031 287.013C457.801 288.01 464.701 280.196 469.746 274.495C470.644 273.482 471.487 272.529 472.257 271.694C472.627 271.292 473.191 271.156 473.697 271.351C481.549 274.365 483.424 275.604 487.534 278.318L487.719 278.44L487.73 278.661C488.098 286.025 488.539 293.351 488.966 300.435C490.839 331.537 492.318 356.102 486.783 361.169C486.245 361.662 485.225 361.878 483.749 361.878ZM451.99 356.332C452.794 356.332 453.594 356.359 454.389 356.419C458.615 356.737 464.117 357.809 469.438 358.845C476.975 360.314 484.765 361.831 486.194 360.526C491.421 355.74 489.879 330.135 488.094 300.488C487.672 293.472 487.235 286.22 486.868 278.926C482.822 276.254 481.031 275.102 473.384 272.167C473.218 272.103 473.024 272.151 472.9 272.286C472.133 273.117 471.293 274.066 470.4 275.074C465.212 280.935 458.103 288.961 452.852 287.869C446.709 286.591 443.451 272.867 443.072 265.803C443.066 265.692 443.015 265.589 442.93 265.514C442.841 265.434 442.729 265.394 442.609 265.403C436.866 265.775 432.044 266.438 429.368 267.224C427.037 268.353 424.251 286.147 422.427 311.57C420.734 335.186 420.559 355.941 421.995 360.452C426.383 360.658 431.33 359.618 436.553 358.516C441.652 357.44 446.901 356.332 451.99 356.332Z" fill="#889782"/>
<path d="M438.414 288.459C438.335 288.459 438.254 288.444 438.175 288.414C437.822 288.28 437.6 287.885 437.544 287.574C435.276 275.114 435.892 272.808 437.929 265.166C437.991 264.934 438.23 264.795 438.464 264.856C438.697 264.918 438.835 265.158 438.773 265.391C436.779 272.87 436.203 275.031 438.224 286.423C438.745 281.37 440.633 279.431 442.199 278.704C443.83 277.947 445.66 278.308 446.625 279.056C446.816 279.204 446.851 279.478 446.704 279.668C446.555 279.859 446.281 279.893 446.091 279.746C445.478 279.272 444.035 278.815 442.566 279.497C441.071 280.19 439.236 282.227 438.986 287.991L438.977 288.193L438.819 288.316C438.698 288.411 438.558 288.459 438.414 288.459Z" fill="#889782"/>
<path d="M464.714 293.984C464.636 293.984 464.558 293.974 464.482 293.951C464.254 293.882 464.09 293.711 464.032 293.481L463.982 293.286L464.097 293.121C467.416 288.401 467.204 285.668 466.442 284.206C465.694 282.773 464.276 282.254 463.502 282.254C463.255 282.254 463.059 282.059 463.059 281.819C463.058 281.574 463.242 281.369 463.503 281.381C464.722 281.381 466.387 282.211 467.216 283.803C468.014 285.333 468.328 288.021 465.659 292.343C474.209 284.548 475.071 282.485 478.053 275.342C478.146 275.12 478.403 275.015 478.623 275.108C478.846 275.201 478.951 275.456 478.858 275.679C475.812 282.976 474.893 285.179 465.495 293.67C465.31 293.837 465.01 293.984 464.714 293.984Z" fill="#889782"/>
<path d="M451.324 357.035C451.303 357.035 451.283 357.034 451.261 357.031C451.023 356.996 450.857 356.775 450.892 356.536C451.865 349.773 451.003 345.497 450.004 340.545C448.168 331.437 445.882 320.101 452.514 287.354C452.562 287.117 452.79 286.967 453.028 287.013C453.264 287.061 453.417 287.292 453.369 287.528C446.772 320.101 449.04 331.341 450.86 340.373C451.875 345.403 452.751 349.748 451.756 356.661C451.725 356.878 451.538 357.035 451.324 357.035Z" fill="#889782"/>
<path d="M414.596 402.418C411.864 404.029 408.372 402.544 407.595 399.47C401.323 374.654 411.101 347.711 414.185 323.87C417.051 301.722 422.413 268.73 426.756 265.23C426.861 265.145 440.357 262.721 441.128 263.213C441.128 263.213 435.63 279.039 435.735 307.359C436.005 380.329 447.95 382.748 414.596 402.418Z" fill="#D5BD99"/>
<path d="M412.204 403.514C411.533 403.514 410.859 403.381 410.214 403.113C408.688 402.476 407.578 401.187 407.171 399.577C402.631 381.61 406.425 362.701 410.093 344.415C411.532 337.244 412.891 330.471 413.752 323.814C414.926 314.741 421.058 269.261 426.482 264.89C426.563 264.825 440.311 262.173 441.364 262.845L441.654 263.031L441.541 263.356C441.487 263.514 436.069 279.452 436.172 307.358C436.241 325.938 437.055 339.737 437.709 350.824C439.61 383.048 439.903 388.001 414.817 402.794C414.006 403.272 413.108 403.514 412.204 403.514ZM426.964 265.626C423.221 268.921 418.075 297.211 414.618 323.925C413.752 330.613 412.391 337.4 410.949 344.586C407.3 362.777 403.526 381.588 408.018 399.362C408.357 400.703 409.28 401.777 410.55 402.307C411.808 402.83 413.2 402.733 414.373 402.042C438.999 387.519 438.711 382.637 436.837 350.875C436.182 339.777 435.367 325.966 435.298 307.361C435.204 281.996 439.658 266.436 440.559 263.555C438.393 263.57 428.104 265.358 426.964 265.626Z" fill="#E6CFB0"/>
<path d="M470.855 338.471C470.801 381.607 489.276 404.806 494.38 405.008C495.768 405.063 497.024 404.267 498.275 403.661C508.748 398.587 521.97 406.17 532.651 401.55C535.141 400.472 535.457 399.198 534.896 396.972C528.299 370.818 494.777 372.615 490.819 324.911C487.993 290.849 492.57 292.314 490.207 277.249C483.58 273.976 483.118 272.175 474.812 270.39C472.429 311.315 470.855 322.538 470.855 338.471Z" fill="#D5BD99"/>
<path d="M494.52 405.447C494.467 405.447 494.415 405.446 494.362 405.444C491.396 405.327 485.321 398.78 480.288 388.025C475.769 378.371 470.388 361.937 470.417 338.47C470.417 328.995 470.985 321.031 471.924 307.837C472.585 298.548 473.408 286.987 474.376 270.365L474.405 269.856L474.903 269.963C480.613 271.19 482.659 272.423 485.49 274.129C486.802 274.919 488.288 275.815 490.4 276.857L490.603 276.958L490.639 277.181C491.693 283.9 491.379 287.334 490.945 292.087C490.412 297.925 489.682 305.922 491.255 324.875C493.594 353.074 506.379 363.908 517.661 373.466C525.349 379.981 532.612 386.135 535.319 396.865C535.881 399.096 535.66 400.724 532.824 401.951C527.47 404.266 521.461 403.574 515.651 402.906C509.766 402.228 503.681 401.529 498.465 404.055C498.256 404.156 498.046 404.263 497.836 404.37C496.797 404.9 495.724 405.447 494.52 405.447ZM475.219 270.926C474.264 287.281 473.45 298.702 472.795 307.899C471.857 321.074 471.291 329.026 471.291 338.471C471.237 381.929 489.97 404.397 494.397 404.571C495.427 404.609 496.41 404.116 497.44 403.592C497.655 403.482 497.87 403.372 498.085 403.268C503.528 400.63 509.741 401.346 515.751 402.038C521.448 402.694 527.339 403.371 532.478 401.148C534.809 400.14 534.977 399.078 534.473 397.079C531.835 386.62 524.676 380.554 517.096 374.132C505.687 364.464 492.754 353.506 490.384 324.947C488.806 305.918 489.54 297.878 490.076 292.006C490.499 287.369 490.807 284.005 489.811 277.539C487.774 276.523 486.324 275.65 485.04 274.876C482.365 273.265 480.41 272.087 475.219 270.926Z" fill="#E6CFB0"/>
<path d="M437.667 279.717C439.858 270.972 442.201 268.516 444.239 263.147C444.563 262.294 445.822 255.894 444.767 256.326C442.922 257.08 433.921 261.719 437.667 279.717Z" fill="#D5BD99"/>
<path d="M437.627 281.671L437.239 279.806C433.428 261.494 442.703 256.697 444.601 255.922C444.849 255.82 445.11 255.866 445.295 256.047C446.199 256.928 444.825 262.834 444.647 263.302C443.93 265.193 443.19 266.694 442.407 268.283C440.98 271.178 439.506 274.172 438.09 279.822L437.627 281.671ZM444.719 256.821C442.633 257.756 435.152 262.25 437.739 277.74C439.023 273.175 440.342 270.497 441.623 267.897C442.397 266.327 443.128 264.844 443.831 262.992C444.177 262.08 444.903 257.863 444.719 256.821Z" fill="#E6CFB0"/>
<path d="M473.884 285.579C473.921 284.996 472.169 256.454 476.331 260.333C477.586 261.503 478.459 263.329 478.731 264.028C481.536 271.249 478.851 279.427 473.884 285.579Z" fill="#D5BD99"/>
<path d="M473.361 286.921L473.447 285.556C473.449 285.464 473.431 285.073 473.403 284.452C472.478 263.36 473.965 260.185 475.164 259.633C475.485 259.485 476.002 259.43 476.628 260.014C477.881 261.181 478.794 262.988 479.137 263.871C481.749 270.59 479.912 278.808 474.223 285.854L473.361 286.921ZM475.606 260.409C475.579 260.409 475.553 260.415 475.529 260.426C474.851 260.738 473.37 263.7 474.275 284.364C479.188 277.785 480.706 270.316 478.323 264.187C478.029 263.428 477.172 261.715 476.033 260.653C475.908 260.536 475.74 260.409 475.606 260.409Z" fill="#E6CFB0"/>
<path d="M530.727 394.911C530.619 394.911 530.511 394.871 530.426 394.791C526.077 390.662 522.105 387.043 518.264 383.543C496.655 363.858 484.753 353.014 487.147 321.938C487.166 321.697 487.384 321.516 487.616 321.536C487.857 321.554 488.037 321.765 488.018 322.005C485.657 352.655 496.75 362.762 518.852 382.898C522.697 386.4 526.672 390.023 531.029 394.157C531.203 394.323 531.211 394.6 531.044 394.775C530.958 394.865 530.843 394.911 530.727 394.911Z" fill="#E6CFB0"/>
<path d="M414.181 393.592C413.998 393.592 413.829 393.477 413.767 393.295C409.42 380.332 408.144 366.326 410.078 352.791C410.112 352.552 410.336 352.386 410.572 352.421C410.81 352.455 410.977 352.676 410.942 352.915C409.028 366.315 410.291 380.183 414.595 393.016C414.672 393.245 414.548 393.493 414.32 393.57C414.274 393.585 414.227 393.592 414.181 393.592Z" fill="#E6CFB0"/>
<path d="M431.203 312.27C432.792 312.27 434.079 310.983 434.079 309.394C434.079 307.806 432.792 306.518 431.203 306.518C429.615 306.518 428.327 307.806 428.327 309.394C428.327 310.983 429.615 312.27 431.203 312.27Z" fill="#E6CFB0"/>
<path d="M434.079 333.112C434.079 334.7 432.791 335.988 431.203 335.988C429.614 335.988 428.326 334.7 428.326 333.112C428.326 331.523 429.614 330.235 431.203 330.235C432.791 330.235 434.079 331.523 434.079 333.112Z" fill="#E6CFB0"/>
<path d="M434.079 356.828C434.079 358.417 432.791 359.705 431.203 359.705C429.614 359.705 428.326 358.417 428.326 356.828C428.326 355.24 429.614 353.952 431.203 353.952C432.791 353.952 434.079 355.24 434.079 356.828Z" fill="#E6CFB0"/>
<path d="M558.011 138.385C544.842 153.764 530.753 145.875 526.633 140.386C496.891 154.372 481.302 128.79 481.756 115.387C463.642 117.059 464.95 98.9025 471.953 94.6755C456.724 86.0023 466.995 70.7651 476.212 72.202C473.611 58.9683 483.769 55.9 489.173 56.02C493.123 42.2082 507.922 44.7082 510.817 50.5744C523.936 35.7373 534.978 47.4813 537.635 55.1924C562.233 35.4186 574.968 63.1194 570.873 71.9174C576.217 72.9096 576.683 78.5869 576.248 81.3015C597.514 74.6306 604.359 102.81 590.315 110.14C598.619 136.527 571.316 146.042 558.011 138.385Z" fill="#F9F2E2"/>
<path d="M503.613 157.446C505.266 160.717 502.191 167.248 497.51 168.311C492.829 169.373 488.126 166.321 487.126 161.916C486.126 157.512 487.79 153.562 492.29 152.541C496.791 151.519 502.613 153.041 503.613 157.446Z" fill="#F9F2E2"/>
<path d="M491.075 178.521C491.815 180.177 490.291 183.257 487.897 183.8C485.504 184.343 483.361 182.286 482.926 180.371C482.492 178.456 483.101 176.32 486.127 175.998C488.554 175.447 490.855 176.748 491.075 178.521Z" fill="#F9F2E2"/>
<path d="M526.105 73.3747C525.356 74.7355 524.464 75.7685 523.427 76.4737C522.393 77.1748 521.298 77.5503 520.141 77.6002C518.99 77.6483 517.865 77.3699 516.766 76.7652C515.662 76.1582 514.821 75.3548 514.241 74.3552C513.668 73.3536 513.402 72.2264 513.443 70.9735C513.484 69.7206 513.877 68.4158 514.623 67.0592C515.372 65.6985 516.263 64.6675 517.297 63.9664C518.334 63.2612 519.427 62.8846 520.577 62.8365C521.734 62.7866 522.864 63.0651 523.968 63.6721C525.067 64.2769 525.904 65.08 526.477 66.0816C527.056 67.0812 527.326 68.2075 527.285 69.4604C527.247 70.7092 526.853 72.014 526.105 73.3747ZM524.2 72.3273C524.771 71.2901 525.083 70.3244 525.137 69.4301C525.198 68.534 525.038 67.7437 524.658 67.0591C524.285 66.3727 523.733 65.8286 523.003 65.427C522.268 65.0231 521.511 64.8471 520.732 64.8992C519.954 64.947 519.201 65.2353 518.473 65.7641C517.75 66.2909 517.104 67.0729 516.534 68.1101C515.963 69.1472 515.648 70.1139 515.587 71.01C515.533 71.9043 515.692 72.6946 516.066 73.381C516.442 74.0633 516.997 74.6064 517.731 75.0103C518.461 75.412 519.215 75.5889 519.993 75.541C520.777 75.4912 521.53 75.2029 522.252 74.6761C522.98 74.1474 523.63 73.3644 524.2 72.3273ZM529.83 76.3318L526.708 82.0071L524.847 80.9836L530.105 71.4252L531.891 72.4076L531.035 73.9633L531.154 74.0283C531.652 73.6432 532.22 73.426 532.858 73.3769C533.499 73.33 534.179 73.504 534.897 73.8988C535.548 74.2571 536.043 74.7078 536.382 75.2508C536.723 75.7898 536.882 76.401 536.857 77.0845C536.832 77.768 536.603 78.5039 536.17 79.2921L532.825 85.3719L530.965 84.3484L534.186 78.4927C534.567 77.7998 534.684 77.1592 534.538 76.5707C534.393 75.978 534.006 75.5082 533.376 75.1614C532.944 74.924 532.509 74.8063 532.07 74.8081C531.636 74.8123 531.222 74.9412 530.828 75.1948C530.441 75.4467 530.108 75.8256 529.83 76.3318ZM543.972 91.7546C543.03 91.2366 542.33 90.5892 541.871 89.8125C541.418 89.034 541.209 88.176 541.244 87.2386C541.285 86.2993 541.578 85.334 542.124 84.3424C542.662 83.3634 543.319 82.6008 544.095 82.0549C544.875 81.5113 545.71 81.2113 546.6 81.1552C547.495 81.1013 548.386 81.3185 549.273 81.8069C549.813 82.1035 550.286 82.4803 550.694 82.9371C551.102 83.3939 551.403 83.9238 551.595 84.5268C551.788 85.1299 551.832 85.8002 551.729 86.5378C551.628 87.2713 551.339 88.0716 550.862 88.9387L550.5 89.5983L542.901 85.4188L543.668 84.0248L549.443 87.2014C549.712 86.7119 549.851 86.2236 549.86 85.7365C549.871 85.2453 549.756 84.7905 549.516 84.3721C549.28 83.9559 548.922 83.6155 548.44 83.3508C547.918 83.0633 547.391 82.9408 546.859 82.9835C546.334 83.0244 545.853 83.192 545.415 83.4863C544.984 83.7788 544.637 84.1635 544.375 84.6406L543.776 85.7296C543.425 86.3685 543.238 86.9736 543.215 87.5449C543.197 88.1185 543.326 88.6353 543.603 89.0954C543.881 89.5514 544.292 89.9288 544.836 90.2278C545.189 90.4218 545.537 90.5488 545.883 90.609C546.23 90.665 546.565 90.6496 546.889 90.5627C547.212 90.4758 547.512 90.3138 547.788 90.0767L549.375 91.3628C548.949 91.8038 548.446 92.1189 547.866 92.308C547.293 92.4953 546.673 92.5462 546.007 92.4607C545.347 92.3733 544.669 92.138 543.972 91.7546ZM561.38 91.6681L559.529 91.0392C559.577 90.7847 559.578 90.5177 559.532 90.2383C559.49 89.9611 559.375 89.6896 559.186 89.4237C558.997 89.1577 558.71 88.9186 558.324 88.7064C557.797 88.4166 557.292 88.2929 556.81 88.3354C556.329 88.3738 555.987 88.5776 555.784 88.9468C555.609 89.2662 555.585 89.5885 555.715 89.9135C555.844 90.2386 556.138 90.6083 556.596 91.0226L557.923 92.2063C558.69 92.8933 559.174 93.5671 559.372 94.2276C559.571 94.8881 559.484 95.5565 559.112 96.2327C558.797 96.8052 558.351 97.2242 557.772 97.4897C557.201 97.7533 556.55 97.8496 555.822 97.7786C555.098 97.7099 554.35 97.4634 553.578 97.0389C552.508 96.4501 551.76 95.7416 551.335 94.9133C550.912 94.0808 550.857 93.1992 551.169 92.2684L553.118 92.9839C552.972 93.5143 553.007 93.9957 553.223 94.428C553.442 94.8561 553.831 95.2243 554.391 95.5323C555.001 95.8678 555.558 96.0094 556.062 95.9571C556.569 95.9008 556.923 95.6879 557.127 95.3187C557.291 95.02 557.317 94.7074 557.205 94.3809C557.097 94.0567 556.843 93.7172 556.444 93.3624L555.021 92.1177C554.241 91.4238 553.759 90.7374 553.576 90.0584C553.397 89.3818 553.495 88.7032 553.869 88.0229C554.179 87.4586 554.608 87.0517 555.156 86.802C555.705 86.5522 556.322 86.462 557.008 86.5313C557.696 86.5965 558.399 86.8265 559.117 87.2213C560.15 87.7895 560.839 88.4608 561.186 89.2352C561.535 90.0054 561.6 90.8164 561.38 91.6681ZM569.358 93.0169L568.536 94.5104L563.315 91.6385L564.137 90.1449L569.358 93.0169ZM566.797 88.6251L568.657 89.6486L563.684 98.6905C563.485 99.0514 563.39 99.3528 563.397 99.5947C563.407 99.8324 563.478 100.031 563.612 100.191C563.752 100.349 563.924 100.484 564.127 100.596C564.276 100.678 564.413 100.74 564.536 100.781C564.66 100.821 564.756 100.853 564.825 100.875L564.315 102.596C564.185 102.579 564.008 102.536 563.786 102.468C563.562 102.404 563.3 102.292 562.999 102.132C562.505 101.871 562.096 101.532 561.773 101.117C561.451 100.702 561.264 100.231 561.212 99.706C561.161 99.1806 561.294 98.6295 561.611 98.0528L566.797 88.6251ZM498.713 98.6683L505.943 85.5255L507.76 86.525L506.908 88.0745L507.063 88.1601C507.281 88.0203 507.563 87.8756 507.91 87.7261C508.257 87.5765 508.664 87.5035 509.133 87.5071C509.603 87.5065 510.135 87.6694 510.728 87.9957C511.5 88.4201 512.081 88.9939 512.472 89.7171C512.864 90.4402 513.029 91.2637 512.97 92.1874C512.914 93.1134 512.603 94.0929 512.034 95.1259C511.466 96.1589 510.807 96.9499 510.056 97.499C509.308 98.0439 508.524 98.35 507.703 98.4174C506.885 98.4806 506.09 98.3 505.318 97.8755C504.737 97.5561 504.316 97.1973 504.054 96.7992C503.796 96.4034 503.635 96.0177 503.572 95.6423C503.508 95.2668 503.476 94.9466 503.476 94.6817L503.364 94.6201L500.574 99.6918L498.713 98.6683ZM505.137 91.3076C504.768 91.9797 504.541 92.6225 504.458 93.2358C504.374 93.8492 504.438 94.4006 504.65 94.89C504.864 95.3752 505.239 95.765 505.774 96.0593C506.33 96.3651 506.875 96.4734 507.411 96.3843C507.949 96.291 508.453 96.0416 508.925 95.6363C509.4 95.2333 509.814 94.7124 510.165 94.0735C510.512 93.4429 510.728 92.8241 510.814 92.2171C510.903 91.6125 510.839 91.0611 510.621 90.563C510.407 90.0672 510.021 89.6653 509.461 89.3572C508.921 89.0606 508.388 88.9485 507.862 89.0211C507.34 89.096 506.847 89.3298 506.382 89.7227C505.917 90.1155 505.502 90.6439 505.137 91.3076ZM511.5 101.033L516.758 91.4747L518.557 92.464L517.721 93.9824L517.821 94.0372C518.278 93.6186 518.808 93.383 519.41 93.3303C520.018 93.2758 520.602 93.4025 521.162 93.7106C521.278 93.7745 521.413 93.854 521.566 93.949C521.723 94.0463 521.844 94.1263 521.928 94.1889L520.949 95.9687C520.886 95.9068 520.766 95.811 520.589 95.6811C520.414 95.5471 520.231 95.4276 520.04 95.3227C519.6 95.0808 519.157 94.9585 518.71 94.9557C518.269 94.9511 517.859 95.058 517.48 95.2762C517.103 95.4902 516.8 95.8047 516.572 96.2195L513.361 102.057L511.5 101.033ZM521.897 107.003C520.955 106.485 520.255 105.838 519.796 105.061C519.343 104.283 519.134 103.425 519.169 102.487C519.21 101.548 519.504 100.583 520.049 99.5912C520.587 98.6121 521.245 97.8496 522.021 97.3037C522.801 96.76 523.636 96.4601 524.526 96.4039C525.42 96.35 526.311 96.5673 527.199 97.0556C527.738 97.3523 528.212 97.729 528.62 98.1858C529.028 98.6426 529.328 99.1725 529.521 99.7756C529.713 100.379 529.758 101.049 529.655 101.787C529.554 102.52 529.265 103.32 528.788 104.187L528.425 104.847L520.827 100.668L521.594 99.2736L527.368 102.45C527.638 101.961 527.777 101.472 527.785 100.985C527.796 100.494 527.681 100.039 527.441 99.6208C527.206 99.2047 526.847 98.8643 526.366 98.5995C525.843 98.312 525.316 98.1896 524.784 98.2323C524.259 98.2731 523.778 98.4407 523.341 98.7351C522.91 99.0275 522.563 99.4123 522.3 99.8894L521.701 100.978C521.35 101.617 521.163 102.222 521.141 102.794C521.122 103.367 521.251 103.884 521.528 104.344C521.807 104.8 522.218 105.178 522.761 105.477C523.114 105.671 523.463 105.798 523.808 105.858C524.155 105.914 524.491 105.898 524.814 105.811C525.138 105.725 525.438 105.563 525.714 105.325L527.3 106.612C526.874 107.053 526.371 107.368 525.792 107.557C525.218 107.744 524.599 107.795 523.932 107.709C523.272 107.622 522.594 107.387 521.897 107.003ZM528.967 96.6991L528.609 94.3297L526.41 95.2923L524.73 94.368L524.781 94.2747L528.417 92.8377L529.966 93.69L530.705 97.5334L530.654 97.6268L528.967 96.6991ZM537.888 103.098L537.067 104.591L531.846 101.719L532.667 100.226L537.888 103.098ZM535.327 98.7059L537.188 99.7294L532.214 108.771C532.015 109.132 531.92 109.434 531.927 109.676C531.937 109.913 532.009 110.112 532.142 110.272C532.282 110.43 532.454 110.565 532.657 110.677C532.807 110.759 532.943 110.821 533.066 110.861C533.19 110.902 533.286 110.934 533.355 110.955L532.846 112.677C532.715 112.659 532.539 112.617 532.317 112.548C532.093 112.485 531.83 112.373 531.529 112.212C531.035 111.951 530.626 111.613 530.304 111.198C529.981 110.783 529.794 110.312 529.742 109.787C529.691 109.261 529.824 108.71 530.141 108.134L535.327 98.7059ZM545.671 110.419L543.821 109.79C543.869 109.535 543.87 109.268 543.824 108.989C543.781 108.712 543.666 108.44 543.477 108.174C543.289 107.908 543.001 107.669 542.615 107.457C542.089 107.167 541.584 107.043 541.101 107.086C540.621 107.124 540.279 107.328 540.076 107.697C539.9 108.017 539.877 108.339 540.006 108.664C540.135 108.989 540.429 109.359 540.887 109.773L542.214 110.957C542.982 111.644 543.465 112.318 543.664 112.978C543.862 113.639 543.776 114.307 543.404 114.983C543.089 115.556 542.642 115.975 542.064 116.24C541.492 116.504 540.842 116.6 540.114 116.529C539.389 116.46 538.641 116.214 537.87 115.789C536.799 115.201 536.052 114.492 535.627 113.664C535.204 112.831 535.148 111.95 535.46 111.019L537.409 111.734C537.263 112.265 537.299 112.746 537.515 113.179C537.733 113.607 538.122 113.975 538.682 114.283C539.292 114.618 539.849 114.76 540.354 114.708C540.86 114.651 541.215 114.438 541.418 114.069C541.582 113.771 541.608 113.458 541.496 113.131C541.388 112.807 541.134 112.468 540.735 112.113L539.312 110.868C538.532 110.174 538.051 109.488 537.867 108.809C537.688 108.132 537.786 107.454 538.16 106.773C538.471 106.209 538.9 105.802 539.448 105.552C539.996 105.303 540.613 105.213 541.299 105.282C541.987 105.347 542.69 105.577 543.408 105.972C544.441 106.54 545.131 107.211 545.478 107.986C545.827 108.756 545.891 109.567 545.671 110.419ZM557.924 109.968L552.768 118.959L551.044 118.011L555.877 108.842L557.924 109.968ZM549.828 122.27C549.484 122.08 549.255 121.798 549.143 121.423C549.033 121.043 549.074 120.683 549.268 120.341C549.451 119.998 549.731 119.774 550.108 119.668C550.487 119.558 550.849 119.598 551.194 119.787C551.53 119.972 551.753 120.254 551.863 120.633C551.975 121.009 551.94 121.367 551.757 121.71C551.627 121.936 551.452 122.112 551.231 122.239C551.016 122.364 550.785 122.431 550.536 122.441C550.288 122.45 550.052 122.393 549.828 122.27Z" fill="black"/>
<path d="M315.882 164.333C314.504 186.195 296.596 189.149 289.211 187.341C272.091 219.299 240.899 208.418 232.257 196.857C217.209 210.573 206.12 194.44 209.521 186.131C190.065 189.201 188.951 169.427 198.152 164.369C186.897 155.026 193.897 145.545 198.804 141.973C193.008 127.692 207.912 119.732 214.457 122.689C216.157 101.315 233.946 103.67 241.524 108.338C250.143 75.0166 280.216 89.6167 282.499 99.7862C287.941 96.9873 292.19 101.437 293.634 104.011C308.123 83.9557 333.258 102.961 325.665 118.662C350.893 135.171 332.934 161.718 315.882 164.333Z" fill="#F9F2E2"/>
<path d="M242.283 218.058C244.612 221.24 242.19 228.754 237.158 230.736C232.127 232.717 226.448 230.322 224.672 225.813C222.897 221.304 224.144 216.796 228.982 214.891C233.819 212.986 240.507 213.549 242.283 218.058Z" fill="#F9F2E2"/>
<path d="M231.567 242.777C232.638 244.405 231.414 247.962 228.841 248.975C226.268 249.989 223.58 248.187 222.808 246.227C222.036 244.266 222.388 241.882 225.696 240.989C228.305 239.962 231.054 240.929 231.567 242.777Z" fill="#F9F2E2"/>
<path d="M212.555 146.826L218.677 160.02L216.686 160.944L210.564 147.749L212.555 146.826ZM220.622 151.977L223.348 157.853L221.422 158.747L216.83 148.851L218.679 147.993L219.426 149.604L219.549 149.547C219.533 148.917 219.695 148.331 220.032 147.788C220.375 147.243 220.917 146.798 221.66 146.453C222.335 146.14 222.991 146.008 223.629 146.056C224.266 146.1 224.852 146.335 225.388 146.759C225.924 147.184 226.382 147.804 226.76 148.62L229.681 154.914L227.755 155.808L224.942 149.746C224.609 149.029 224.162 148.555 223.601 148.324C223.038 148.09 222.43 148.124 221.777 148.427C221.331 148.634 220.978 148.915 220.72 149.27C220.466 149.622 220.325 150.032 220.296 150.5C220.27 150.961 220.379 151.453 220.622 151.977ZM236.209 142.795L234.607 143.915C234.43 143.725 234.216 143.566 233.963 143.438C233.715 143.308 233.428 143.24 233.101 143.235C232.775 143.23 232.413 143.32 232.013 143.505C231.468 143.758 231.069 144.092 230.818 144.506C230.564 144.916 230.526 145.312 230.704 145.694C230.857 146.025 231.103 146.235 231.441 146.323C231.78 146.411 232.252 146.393 232.857 146.269L234.596 145.9C235.605 145.688 236.434 145.698 237.084 145.929C237.734 146.159 238.221 146.625 238.546 147.325C238.821 147.918 238.894 148.526 238.766 149.149C238.64 149.766 238.333 150.347 237.844 150.892C237.36 151.435 236.719 151.892 235.92 152.262C234.812 152.777 233.798 152.96 232.879 152.812C231.957 152.66 231.214 152.183 230.649 151.381L232.379 150.233C232.72 150.665 233.129 150.921 233.605 151.003C234.08 151.081 234.607 150.985 235.187 150.716C235.818 150.423 236.262 150.058 236.518 149.62C236.773 149.179 236.811 148.767 236.634 148.384C236.49 148.075 236.254 147.869 235.924 147.766C235.599 147.661 235.175 147.665 234.653 147.777L232.807 148.187C231.786 148.405 230.948 148.387 230.292 148.132C229.641 147.876 229.152 147.396 228.825 146.691C228.554 146.107 228.48 145.52 228.603 144.931C228.726 144.341 229.019 143.79 229.481 143.279C229.941 142.762 230.542 142.332 231.285 141.987C232.355 141.491 233.304 141.332 234.134 141.511C234.961 141.686 235.653 142.114 236.209 142.795ZM246.252 147.468C245.294 147.913 244.369 148.078 243.476 147.966C242.586 147.846 241.777 147.488 241.051 146.891C240.325 146.293 239.732 145.498 239.272 144.506C238.805 143.501 238.583 142.527 238.604 141.582C238.623 140.634 238.876 139.783 239.362 139.031C239.848 138.278 240.557 137.685 241.489 137.253C242.24 136.904 242.975 136.733 243.693 136.739C244.409 136.741 245.063 136.907 245.655 137.238C246.251 137.567 246.738 138.048 247.116 138.682L245.241 139.552C244.923 139.136 244.501 138.846 243.976 138.683C243.456 138.517 242.889 138.577 242.274 138.862C241.737 139.111 241.333 139.471 241.061 139.941C240.791 140.406 240.665 140.95 240.683 141.573C240.698 142.192 240.87 142.854 241.196 143.558C241.531 144.28 241.93 144.852 242.392 145.274C242.854 145.697 243.352 145.959 243.885 146.061C244.422 146.162 244.963 146.085 245.509 145.832C245.874 145.663 246.174 145.443 246.408 145.172C246.645 144.895 246.806 144.583 246.89 144.236C246.979 143.887 246.981 143.516 246.897 143.121L248.772 142.251C249 142.923 249.057 143.591 248.942 144.255C248.827 144.919 248.545 145.53 248.094 146.089C247.648 146.646 247.034 147.106 246.252 147.468ZM252.285 144.427L247.693 134.531L249.555 133.667L250.284 135.239L250.388 135.191C250.321 134.575 250.444 134.009 250.758 133.492C251.074 132.97 251.522 132.574 252.102 132.305C252.222 132.249 252.366 132.188 252.533 132.121C252.705 132.052 252.841 132.001 252.941 131.971L253.796 133.813C253.709 133.827 253.56 133.868 253.351 133.934C253.139 133.995 252.935 134.072 252.737 134.163C252.282 134.375 251.921 134.66 251.654 135.018C251.39 135.371 251.233 135.764 251.184 136.199C251.134 136.63 251.208 137.06 251.407 137.49L254.211 143.533L252.285 144.427ZM259.247 141.196L254.656 131.3L256.582 130.406L261.174 140.302L259.247 141.196ZM254.92 129.322C254.585 129.477 254.246 129.499 253.902 129.387C253.56 129.269 253.316 129.054 253.171 128.74C253.023 128.422 253.016 128.097 253.148 127.764C253.283 127.425 253.518 127.177 253.853 127.022C254.188 126.866 254.527 126.848 254.868 126.966C255.213 127.077 255.458 127.292 255.606 127.61C255.751 127.924 255.757 128.25 255.622 128.589C255.489 128.922 255.255 129.166 254.92 129.322ZM265.487 142.811L259.174 129.204L261.055 128.331L261.799 129.935L261.96 129.86C261.976 129.603 262.027 129.289 262.112 128.921C262.197 128.553 262.379 128.181 262.659 127.806C262.937 127.426 263.383 127.094 263.997 126.809C264.796 126.438 265.603 126.31 266.417 126.422C267.232 126.535 267.994 126.889 268.703 127.484C269.416 128.077 270.021 128.908 270.517 129.977C271.014 131.047 271.261 132.046 271.259 132.976C271.255 133.902 271.038 134.715 270.606 135.417C270.173 136.114 269.557 136.647 268.758 137.018C268.156 137.297 267.618 137.424 267.142 137.4C266.67 137.373 266.264 137.275 265.924 137.104C265.584 136.933 265.307 136.769 265.093 136.612L264.977 136.666L267.413 141.917L265.487 142.811ZM263.357 133.276C263.68 133.972 264.064 134.535 264.509 134.965C264.954 135.395 265.436 135.67 265.956 135.789C266.474 135.904 267.01 135.833 267.564 135.576C268.139 135.308 268.55 134.933 268.795 134.448C269.038 133.96 269.136 133.406 269.088 132.786C269.045 132.164 268.87 131.522 268.563 130.861C268.26 130.208 267.889 129.667 267.45 129.239C267.016 128.809 266.534 128.535 266.003 128.415C265.477 128.294 264.924 128.368 264.344 128.637C263.786 128.896 263.38 129.259 263.127 129.726C262.879 130.191 262.775 130.727 262.817 131.334C262.858 131.942 263.038 132.589 263.357 133.276ZM274.99 121.865L275.708 123.411L270.302 125.919L269.585 124.373L274.99 121.865ZM269.934 121.33L271.861 120.436L276.204 129.797C276.378 130.171 276.564 130.426 276.763 130.563C276.961 130.696 277.163 130.756 277.371 130.743C277.582 130.724 277.792 130.665 278.002 130.568C278.157 130.496 278.287 130.422 278.393 130.347C278.499 130.272 278.582 130.213 278.64 130.17L279.726 131.6C279.635 131.695 279.496 131.811 279.309 131.95C279.125 132.093 278.879 132.238 278.572 132.386C278.069 132.63 277.555 132.759 277.029 132.773C276.503 132.787 276.014 132.66 275.56 132.39C275.106 132.121 274.74 131.687 274.463 131.09L269.934 121.33ZM281.713 130.772L277.121 120.876L279.047 119.983L283.639 129.878L281.713 130.772ZM277.385 118.898C277.05 119.054 276.711 119.076 276.367 118.964C276.025 118.846 275.781 118.63 275.636 118.316C275.488 117.999 275.481 117.673 275.613 117.34C275.748 117.001 275.983 116.754 276.318 116.598C276.653 116.443 276.992 116.424 277.334 116.542C277.678 116.654 277.924 116.869 278.071 117.186C278.217 117.5 278.222 117.826 278.087 118.166C277.954 118.499 277.721 118.743 277.385 118.898ZM290.492 126.942C289.564 127.372 288.656 127.535 287.767 127.431C286.878 127.326 286.065 126.981 285.328 126.394C284.591 125.806 283.985 125.002 283.511 123.98C283.035 122.953 282.809 121.967 282.835 121.02C282.861 120.074 283.12 119.228 283.615 118.482C284.109 117.736 284.82 117.148 285.748 116.717C286.675 116.287 287.584 116.124 288.472 116.228C289.361 116.333 290.175 116.68 290.914 117.272C291.653 117.863 292.261 118.672 292.737 119.699C293.211 120.721 293.435 121.703 293.407 122.645C293.379 123.587 293.119 124.431 292.624 125.177C292.13 125.923 291.419 126.511 290.492 126.942ZM289.748 125.322C290.349 125.043 290.773 124.653 291.021 124.151C291.269 123.65 291.365 123.092 291.308 122.476C291.257 121.858 291.083 121.231 290.788 120.595C290.495 119.964 290.13 119.429 289.691 118.99C289.255 118.545 288.765 118.253 288.22 118.115C287.676 117.976 287.103 118.046 286.501 118.325C285.896 118.606 285.468 119 285.218 119.508C284.972 120.013 284.876 120.577 284.93 121.199C284.986 121.815 285.161 122.439 285.454 123.07C285.749 123.706 286.113 124.244 286.547 124.685C286.986 125.123 287.476 125.41 288.019 125.544C288.566 125.677 289.142 125.603 289.748 125.322ZM296.362 116.835L299.088 122.71L297.162 123.604L292.57 113.708L294.419 112.85L295.167 114.461L295.289 114.404C295.274 113.775 295.435 113.188 295.773 112.645C296.115 112.1 296.657 111.655 297.4 111.31C298.075 110.998 298.731 110.865 299.369 110.914C300.006 110.958 300.592 111.192 301.128 111.616C301.665 112.041 302.122 112.661 302.501 113.477L305.421 119.772L303.495 120.665L300.682 114.603C300.349 113.886 299.902 113.412 299.341 113.182C298.778 112.947 298.17 112.981 297.518 113.284C297.071 113.491 296.718 113.772 296.46 114.127C296.206 114.48 296.065 114.89 296.037 115.357C296.01 115.818 296.119 116.311 296.362 116.835ZM228.858 169.728L229.575 171.274L224.17 173.782L223.453 172.236L228.858 169.728ZM223.802 169.192L225.728 168.299L230.072 177.66C230.245 178.033 230.432 178.289 230.631 178.426C230.828 178.559 231.031 178.619 231.239 178.606C231.449 178.586 231.66 178.528 231.87 178.43C232.025 178.359 232.155 178.285 232.261 178.21C232.367 178.134 232.449 178.075 232.508 178.033L233.594 179.463C233.502 179.557 233.363 179.674 233.177 179.813C232.993 179.956 232.747 180.101 232.44 180.249C231.937 180.492 231.423 180.621 230.897 180.636C230.371 180.65 229.881 180.522 229.427 180.253C228.973 179.983 228.608 179.55 228.331 178.953L223.802 169.192ZM239.832 176.905C238.857 177.357 237.92 177.539 237.023 177.449C236.127 177.353 235.312 177.013 234.577 176.43C233.844 175.841 233.24 175.034 232.764 174.007C232.293 172.993 232.068 172.012 232.087 171.064C232.11 170.113 232.363 169.263 232.845 168.512C233.331 167.759 234.033 167.17 234.952 166.743C235.511 166.484 236.095 166.326 236.704 166.267C237.314 166.209 237.919 166.28 238.519 166.482C239.119 166.684 239.686 167.045 240.219 167.565C240.75 168.08 241.224 168.787 241.641 169.684L241.958 170.367L234.091 174.017L233.422 172.574L239.401 169.8C239.165 169.293 238.854 168.892 238.467 168.597C238.077 168.298 237.643 168.121 237.163 168.066C236.688 168.01 236.202 168.098 235.704 168.329C235.162 168.58 234.752 168.932 234.472 169.386C234.194 169.833 234.044 170.32 234.022 170.847C234.003 171.368 234.107 171.875 234.337 172.369L234.86 173.496C235.167 174.158 235.544 174.667 235.991 175.023C236.442 175.377 236.935 175.579 237.47 175.629C238.002 175.674 238.55 175.566 239.113 175.305C239.478 175.135 239.787 174.929 240.039 174.687C240.29 174.44 240.476 174.16 240.598 173.848C240.719 173.536 240.766 173.199 240.739 172.836L242.714 172.318C242.817 172.923 242.774 173.515 242.583 174.094C242.395 174.667 242.069 175.196 241.605 175.683C241.144 176.163 240.553 176.57 239.832 176.905ZM246.122 173.744L241.53 163.848L243.392 162.984L244.122 164.556L244.225 164.508C244.158 163.892 244.281 163.326 244.595 162.809C244.911 162.287 245.359 161.891 245.939 161.622C246.059 161.566 246.203 161.505 246.37 161.438C246.542 161.369 246.678 161.319 246.778 161.288L247.633 163.13C247.546 163.145 247.398 163.185 247.188 163.251C246.976 163.312 246.772 163.389 246.574 163.481C246.119 163.692 245.758 163.977 245.491 164.335C245.227 164.688 245.07 165.082 245.021 165.516C244.971 165.947 245.045 166.377 245.244 166.807L248.048 172.85L246.122 173.744ZM253.085 170.513L248.493 160.617L250.342 159.759L251.089 161.37L251.212 161.313C251.165 160.672 251.305 160.09 251.631 159.568C251.956 159.042 252.445 158.627 253.098 158.324C253.759 158.017 254.385 157.915 254.975 158.017C255.57 158.117 256.1 158.388 256.566 158.829L256.669 158.781C256.66 158.143 256.84 157.548 257.21 156.995C257.578 156.438 258.119 155.995 258.832 155.664C259.729 155.247 260.592 155.189 261.42 155.488C262.252 155.786 262.932 156.502 263.458 157.636L266.537 164.271L264.61 165.165L261.615 158.71C261.304 158.04 260.897 157.639 260.392 157.508C259.887 157.377 259.382 157.428 258.875 157.664C258.248 157.955 257.85 158.374 257.681 158.922C257.511 159.466 257.565 160.038 257.844 160.64L260.771 166.947L258.851 167.838L255.799 161.26C255.55 160.723 255.182 160.369 254.695 160.198C254.209 160.027 253.697 160.066 253.16 160.315C252.795 160.485 252.503 160.738 252.283 161.074C252.066 161.405 251.942 161.784 251.91 162.211C251.883 162.636 251.973 163.071 252.18 163.518L255.011 169.619L253.085 170.513ZM269.119 163.073L264.527 153.178L266.453 152.284L271.045 162.18L269.119 163.073ZM264.791 151.199C264.456 151.355 264.117 151.377 263.773 151.265C263.431 151.147 263.187 150.931 263.042 150.618C262.894 150.3 262.887 149.974 263.019 149.641C263.154 149.302 263.389 149.055 263.724 148.899C264.059 148.744 264.398 148.725 264.74 148.843C265.084 148.955 265.329 149.17 265.477 149.488C265.622 149.801 265.628 150.128 265.493 150.467C265.36 150.8 265.126 151.044 264.791 151.199ZM272.836 154.208L275.563 160.083L273.636 160.977L269.045 151.081L270.894 150.224L271.641 151.834L271.764 151.777C271.748 151.148 271.909 150.561 272.247 150.018C272.589 149.473 273.132 149.028 273.875 148.684C274.549 148.371 275.206 148.239 275.844 148.287C276.48 148.331 277.067 148.565 277.603 148.99C278.139 149.414 278.597 150.035 278.975 150.851L281.896 157.145L279.969 158.039L277.157 151.976C276.824 151.259 276.377 150.785 275.816 150.555C275.253 150.32 274.645 150.354 273.992 150.657C273.545 150.864 273.193 151.145 272.935 151.5C272.681 151.853 272.54 152.263 272.511 152.73C272.485 153.191 272.593 153.684 272.836 154.208ZM288.837 154.167C287.862 154.619 286.926 154.801 286.028 154.711C285.132 154.615 284.317 154.275 283.582 153.693C282.85 153.103 282.245 152.296 281.769 151.269C281.298 150.255 281.073 149.274 281.092 148.326C281.116 147.375 281.368 146.525 281.85 145.774C282.336 145.022 283.038 144.432 283.958 144.005C284.516 143.746 285.1 143.588 285.71 143.529C286.319 143.471 286.924 143.542 287.524 143.744C288.124 143.946 288.691 144.307 289.224 144.827C289.756 145.342 290.23 146.049 290.646 146.946L290.963 147.629L283.097 151.279L282.427 149.836L288.406 147.062C288.171 146.555 287.859 146.154 287.472 145.859C287.082 145.56 286.648 145.383 286.169 145.328C285.694 145.272 285.207 145.36 284.709 145.591C284.168 145.842 283.757 146.194 283.477 146.648C283.199 147.095 283.049 147.582 283.027 148.109C283.008 148.63 283.113 149.137 283.342 149.631L283.865 150.758C284.172 151.42 284.549 151.929 284.996 152.285C285.448 152.639 285.941 152.841 286.475 152.891C287.008 152.936 287.555 152.828 288.118 152.567C288.483 152.397 288.792 152.191 289.045 151.949C289.296 151.702 289.482 151.422 289.603 151.11C289.724 150.798 289.771 150.461 289.744 150.098L291.72 149.58C291.823 150.185 291.779 150.777 291.588 151.356C291.4 151.929 291.074 152.458 290.611 152.945C290.15 153.425 289.558 153.832 288.837 154.167ZM282.535 143.217L282.664 139.548L284.694 138.606L284.075 142.503L282.535 143.217ZM299.485 149.227C298.51 149.679 297.573 149.86 296.676 149.77C295.78 149.674 294.965 149.335 294.23 148.752C293.498 148.163 292.893 147.355 292.417 146.328C291.946 145.315 291.721 144.334 291.74 143.385C291.764 142.435 292.016 141.584 292.498 140.834C292.984 140.081 293.686 139.491 294.605 139.065C295.164 138.806 295.748 138.647 296.358 138.589C296.967 138.53 297.572 138.602 298.172 138.804C298.772 139.006 299.339 139.366 299.872 139.886C300.404 140.402 300.878 141.108 301.294 142.006L301.611 142.689L293.745 146.339L293.075 144.896L299.054 142.122C298.819 141.615 298.507 141.214 298.12 140.919C297.73 140.619 297.296 140.442 296.817 140.388C296.342 140.332 295.855 140.419 295.357 140.65C294.816 140.901 294.405 141.254 294.125 141.707C293.847 142.155 293.697 142.642 293.675 143.169C293.656 143.689 293.761 144.196 293.99 144.69L294.513 145.818C294.82 146.479 295.197 146.988 295.644 147.344C296.096 147.699 296.588 147.9 297.123 147.95C297.656 147.995 298.203 147.887 298.766 147.626C299.131 147.457 299.44 147.251 299.693 147.008C299.943 146.761 300.13 146.482 300.251 146.17C300.372 145.858 300.419 145.52 300.392 145.157L302.367 144.64C302.471 145.244 302.427 145.836 302.236 146.415C302.048 146.988 301.722 147.518 301.259 148.004C300.798 148.484 300.206 148.892 299.485 149.227ZM306.883 129.516L311.077 138.993L309.292 139.822L304.764 130.5L306.883 129.516ZM312.005 143.323C311.649 143.488 311.286 143.505 310.917 143.374C310.546 143.238 310.28 142.991 310.119 142.632C309.951 142.282 309.936 141.924 310.074 141.557C310.21 141.186 310.456 140.918 310.813 140.753C311.161 140.591 311.52 140.578 311.891 140.714C312.26 140.846 312.528 141.087 312.696 141.437C312.801 141.675 312.84 141.921 312.811 142.174C312.785 142.421 312.702 142.648 312.563 142.853C312.423 143.059 312.237 143.215 312.005 143.323Z" fill="black"/>
</svg>
