<svg width="25" height="48" viewBox="0 0 25 48" fill="none" xmlns="http://www.w3.org/2000/svg">
<path d="M20.915 8.32039L20.915 42.3532C20.915 43.1536 20.2511 43.8029 19.4321 43.8029L5.29108 43.8029C4.47257 43.8029 3.80863 43.1536 3.80863 42.3532L3.80863 8.32039C3.80863 7.51946 4.47257 6.87016 5.29108 6.87016L19.4321 6.87016C20.2511 6.87016 20.915 7.51946 20.915 8.32039Z" fill="#40B93C"/>
<path d="M8.86942 3.04303L15.8335 3.04303C15.8748 3.04303 15.9083 3.00976 15.9083 2.96935L15.9083 2.36712C15.9083 2.32672 15.8748 2.29344 15.8335 2.29344L8.86942 2.29344C8.82762 2.29344 8.79408 2.32672 8.79408 2.36712L8.79408 2.96935C8.79408 3.00976 8.82762 3.04303 8.86942 3.04303ZM2.30682 25.3186C2.3073 25.3186 2.30779 25.3186 2.30779 25.3186C2.30779 26.6928 2.30828 28.067 2.30779 29.4416C2.30731 34.2766 2.30828 39.1116 2.30196 43.9466C2.30099 44.3806 2.35251 44.8165 2.74961 45.0375C3.05242 45.2057 3.44369 45.2951 3.79558 45.2961C9.51927 45.308 15.2425 45.3008 20.9657 45.2965C21.9533 45.2961 22.4219 44.835 22.4219 43.8744C22.4189 31.5055 22.4165 19.1366 22.4136 6.76768C22.4136 5.79184 21.9898 5.37069 21.0016 5.37117C15.2527 5.37307 9.50371 5.37592 3.75427 5.3783C2.69566 5.37877 2.30731 5.7557 2.30731 6.80236C2.30633 12.9745 2.30682 19.1465 2.30682 25.3186ZM6.39544 3.09958C6.43724 3.09958 6.47127 3.06585 6.47127 3.02544C6.47127 2.65754 6.46932 2.3424 6.47175 2.02726C6.48099 0.873175 7.35782 0.00998109 8.5287 0.0080775C11.1101 0.00332428 13.6915 0.00142826 16.2729 1.44979e-06C17.3558 -0.000475435 18.2312 0.844652 18.2632 1.92507C18.2734 2.27633 18.2657 2.62807 18.2647 3.02307C18.2647 3.06347 18.2987 3.09721 18.3405 3.09721C18.5456 3.09721 18.7352 3.09673 18.9252 3.09721C19.7428 3.09863 20.5632 3.06252 21.3778 3.10957C23.2535 3.2189 24.7165 4.74659 24.717 6.57801C24.7209 19.0634 24.7213 31.5482 24.7179 44.0336C24.7175 46.039 23.1524 47.5828 21.1052 47.5852C15.3037 47.5933 9.50177 47.5895 3.69983 47.5857C1.48492 47.5843 0.00198757 46.1322 0.0015011 43.9557C-0.00190195 36.2326 0.00247126 28.509 0.0029573 20.7855C0.00295709 16.0489 0.00149967 11.3122 0.000526716 6.57564C-0.000446117 4.64202 1.52866 3.12145 3.50541 3.10101C4.45077 3.09151 5.39613 3.09911 6.39544 3.09958Z" fill="#231F20"/>
<path d="M13.3171 25.7982C13.2699 25.7882 13.2291 25.831 13.2422 25.8762L13.2981 26.0682C13.4988 26.7536 13.703 27.4381 13.9027 28.1235C13.9057 28.134 13.9081 28.1444 13.91 28.1553C13.9266 28.2599 13.8284 28.3464 13.7244 28.3179C11.4297 27.6781 9.13657 27.0326 6.84097 26.3966C6.57511 26.323 6.46866 26.2075 6.47498 25.9208C6.49491 25.0039 6.48082 24.0866 6.48033 23.1692C6.48033 22.8745 6.50172 22.8612 6.76953 22.9809C8.04054 23.5485 9.31203 24.116 10.5835 24.6826L10.7862 24.7729C10.8625 24.8071 10.9481 24.7458 10.9383 24.6641C10.8854 24.2154 10.8353 23.7942 10.7867 23.3731C10.7537 23.086 10.7216 22.7989 10.6963 22.5113L10.6958 22.5023C10.6875 22.4025 10.7877 22.326 10.8834 22.3602C10.8961 22.3649 10.9077 22.3702 10.9189 22.3763C12.6215 23.3793 14.3227 24.3851 16.0248 25.3899C16.6863 25.7801 17.3488 26.1685 18.0098 26.5597C18.0584 26.5887 18.1085 26.6153 18.1557 26.6471C18.1853 26.6666 18.2495 26.7084 18.2475 26.7493C18.2441 26.8216 18.1318 26.7921 18.0896 26.7835C18.0166 26.7683 17.9437 26.7531 17.8708 26.7384C17.7192 26.707 17.568 26.6757 17.4164 26.6443C17.1131 26.582 16.8093 26.5193 16.506 26.4565C15.443 26.2369 14.38 26.0178 13.3171 25.7982Z" fill="#231F20"/>
</svg>
