<svg width="674" height="681" viewBox="0 0 674 681" fill="none" xmlns="http://www.w3.org/2000/svg">
<path d="M331.008 175.322C474.797 146.028 540.18 178.164 540.18 178.164C539.716 178.164 539.279 178.205 538.869 178.278C546.085 180.166 553.406 182.526 560.738 185.37C590.904 197.073 615.154 214.595 629.307 232.988C656.752 255.678 667.649 298.698 671.513 320.073C678.584 355.156 670.518 386.022 647.949 398.198C646.488 398.987 644.99 399.682 643.46 400.288C618.571 434.9 623.599 483.154 640.093 513.561C656.745 544.258 658.498 570.692 603.283 626.117C548.069 681.543 417.482 701.156 180.849 655.962C-35.1777 614.704 -1.03322 467.915 6.55176 442.661C7.87798 419.36 18.7472 391.054 38.2881 364.667C39.948 362.426 41.6409 360.237 43.3633 358.105C84.7117 289.809 195.873 202.853 331.008 175.322Z" fill="#D9DCB9"/>
<path d="M130.01 553.893L123.508 555.486L123.915 455.955L128.918 458.51L130.01 553.893Z" fill="#331832"/>
<path d="M149.226 558.701C149.226 558.701 114.798 559.309 103.321 559.396C102.053 559.405 101.143 557.691 101.143 556.444C101.143 555.197 102.995 553.717 104.262 553.724C115.503 553.782 149.226 554.187 149.226 554.187C150.494 554.187 151.521 555.197 151.521 556.444C151.521 557.691 150.494 558.701 149.226 558.701Z" fill="#331832"/>
<path d="M102.789 562.753C103.209 560.276 105.415 558.701 107.967 558.701C110.52 558.701 113.146 560.358 113.146 562.868C113.146 565.994 109.932 568.193 107.379 568.193C104.826 568.193 102.259 565.878 102.789 562.753Z" fill="#331832"/>
<path d="M139.508 562.753C139.928 560.276 142.134 558.701 144.687 558.701C147.239 558.701 149.865 560.358 149.865 562.868C149.865 565.994 146.651 568.193 144.098 568.193C141.546 568.193 138.978 565.878 139.508 562.753Z" fill="#331832"/>
<path d="M111.943 455.955C111.943 455.955 110.707 464.029 123.419 466.633C136.13 469.238 141.604 455.955 141.604 455.955H111.943Z" fill="#331832"/>
<path d="M151.507 448.647C151.642 433.529 150.964 368.519 129.458 362.853C105.107 356.438 73.8863 344.785 64.7147 365.845C55.5431 386.905 86.2653 451.775 86.2653 451.775C86.2653 451.775 87.9712 457.537 94.1948 458.181C100.418 458.826 177.073 461.084 177.193 458.181C177.27 456.331 162.344 451.737 151.507 448.647Z" fill="#D5BD99"/>
<path d="M234.381 547.071C234.381 547.071 234.153 554.654 239.244 557.069C244.336 559.485 259.324 562.222 253.413 566.788C250.022 569.408 234.869 566.784 230.562 566.553C226.256 566.322 222.11 567.951 219.067 564.944C215.72 561.637 220.101 546.305 220.101 546.305C220.101 546.305 223.712 548.408 227.059 548.502C231.882 548.637 234.381 547.071 234.381 547.071Z" fill="#331832"/>
<path d="M277.06 543.364C277.06 543.364 276.833 550.946 281.924 553.362C287.015 555.777 302.004 558.515 296.093 563.08C292.701 565.7 277.548 563.077 273.242 562.846C268.935 562.614 264.79 564.243 261.747 561.237C258.399 557.929 262.781 542.597 262.781 542.597C262.781 542.597 266.392 544.701 269.739 544.795C274.562 544.93 277.06 543.364 277.06 543.364Z" fill="#331832"/>
<path d="M286.879 534.496C283.067 484.82 282.168 451.301 266.185 429.766C248.691 406.198 201.792 389.528 183.708 388.488C154.218 386.792 140.322 391.11 140.322 391.11C118.186 436.381 152.859 442.387 178.506 443.625C179.353 443.666 180.204 443.713 181.058 443.766C196.586 444.728 224.195 448.607 234.644 463.781C242.919 475.797 248.662 492.667 251.083 536.18C251.548 544.53 258.67 551.006 267.169 550.777C267.169 550.777 288.25 552.363 286.879 534.496Z" fill="#E6CFB0"/>
<path d="M245.023 537.055C245.525 487.24 247.097 461.808 231.895 439.732C222.128 425.55 207.44 414.844 188.239 407.913C174.536 402.967 158.417 399.931 140.334 398.891C110.843 397.195 97.5918 393.692 97.5918 393.692C73.7243 451.644 161.029 439.341 183.758 464.031C193.661 474.79 205.932 495.25 208.353 538.763C208.818 547.113 215.94 553.589 224.439 553.36C224.439 553.359 244.839 555.269 245.023 537.055Z" fill="#E6CFB0"/>
<path d="M244.874 488.127L245.213 488.111C245.198 487.813 243.697 458.195 238.633 447.813C232.225 434.676 213.647 420.965 194.458 415.21L194.359 415.529C213.465 421.259 231.957 434.897 238.327 447.957C243.362 458.279 244.86 487.83 244.874 488.127Z" fill="#020202"/>
<path d="M195.26 344.822C195.26 344.822 198.945 333.523 211.108 329.367C216.006 327.694 238.164 332.174 241.705 336.187C241.705 336.187 236.266 321.799 231.221 310.636C231.221 310.636 238.56 289.805 250.767 306.541C258.159 316.675 277.01 336.274 280.484 343.124C282.935 347.956 284.47 352.076 285.176 355.719C287.038 365.331 283.043 374.548 280.456 377.061C261.476 395.503 195.385 344.902 195.26 344.822Z" fill="#FFB27D"/>
<path d="M250.933 360.531C251.002 360.531 251.072 360.51 251.133 360.467C251.287 360.358 251.321 360.147 251.211 359.996C251.126 359.881 242.747 348.331 242.05 336.169C242.039 335.983 241.883 335.84 241.688 335.851C241.499 335.861 241.354 336.021 241.365 336.207C242.073 348.569 250.568 360.274 250.654 360.391C250.721 360.482 250.826 360.531 250.933 360.531Z" fill="#E9845C"/>
<path d="M165.285 298.331C180.95 292.724 210.492 293.085 227.871 312.872C234.348 320.247 240.325 341.966 231.825 360.02C226.439 371.461 220.849 383.077 215.857 398.168C212.387 408.659 200.77 411.203 187.471 411.203C164.181 411.203 137.717 435.699 94.1038 405.173C86.8934 400.126 93.3748 379.884 103.881 363.131C121.788 334.578 140.912 307.056 165.285 298.331Z" fill="#889782"/>
<path d="M174.692 321.452C164.873 321.452 156.914 319.498 156.914 317.088C156.914 314.678 164.873 312.724 174.692 312.724C184.511 312.724 192.471 314.678 192.471 317.088C192.471 319.498 184.511 321.452 174.692 321.452Z" fill="#331832"/>
<path d="M251.604 312.86C251.604 312.86 267.176 300.72 267.251 293.213C267.327 285.706 261.652 276.06 260.601 280.704C259.549 285.347 259.872 291.646 259.872 291.646C259.872 291.646 255.481 279.888 252.424 281.554C249.367 283.22 254.389 293.115 254.389 293.115C254.389 293.115 250.559 279.218 248.189 281.712C245.819 284.206 248.353 294.382 248.353 294.382C248.353 294.382 247.137 280.316 244.454 283.277C241.77 286.237 245.18 294.783 242.123 296.449C239.065 298.115 228.943 304.998 232.616 313.921L251.604 312.86Z" fill="#FFB27D"/>
<path d="M256.295 287.047C256.295 287.047 248.407 299.074 251.36 307.342C253.623 313.681 243.672 316.714 239.727 313.054C235.781 309.394 232.111 317.978 226.95 308.933C223.414 302.737 256.295 287.047 256.295 287.047Z" fill="#75332F"/>
<path d="M220.663 302.52L226.743 299.528L228.431 297.714L238.357 287.047L232.81 299.722L229.479 307.329L228.54 309.472C227.763 311.246 228.164 315.764 226.007 316.179C222.19 316.913 218.382 311.281 216.376 304.957C216.376 304.957 218.796 304.526 220.663 302.52Z" fill="#FFB27D"/>
<path d="M226.807 299.308C226.784 299.38 226.763 299.454 226.745 299.528C225.578 303.826 229.444 307.342 229.444 307.342L229.48 307.329L232.811 299.722C231.595 298.743 229.792 297.549 228.432 297.714C227.722 297.8 227.132 298.257 226.807 299.308Z" fill="#331832"/>
<path d="M232.909 304.392C226.05 302.046 222.875 293.399 225.817 285.077C228.76 276.754 236.705 271.909 243.564 274.255C250.422 276.6 253.597 285.248 250.655 293.57C247.713 301.892 239.768 306.737 232.909 304.392Z" fill="#FFB27D"/>
<path d="M226.658 287.926C227.597 289.728 229.516 290.536 230.944 289.731C232.372 288.925 232.768 286.812 231.828 285.01C230.888 283.207 228.969 282.4 227.541 283.205C226.113 284.01 225.718 286.124 226.658 287.926Z" fill="#FFB27D"/>
<path d="M238.797 290.944C238.884 290.97 238.982 290.956 239.06 290.899C239.193 290.802 239.221 290.619 239.123 290.488C239.066 290.411 237.897 288.505 235.376 289.209C235.217 289.254 235.12 289.411 235.162 289.569C235.205 289.726 235.362 289.785 235.528 289.778C237.182 289.716 238.594 290.774 238.642 290.838C238.682 290.891 238.737 290.927 238.797 290.944Z" fill="#080435"/>
<path d="M235.361 292.438C235.203 292.842 235.583 293.36 236.209 293.596C236.834 293.832 237.469 293.697 237.627 293.293C237.784 292.89 237.404 292.371 236.779 292.135C236.153 291.899 235.518 292.035 235.361 292.438Z" fill="#080435"/>
<path d="M248.597 295.394C248.679 295.434 248.777 295.437 248.864 295.394C249.011 295.321 249.071 295.145 248.998 295C248.954 294.914 248.135 292.839 245.528 293.109C245.364 293.126 245.241 293.265 245.255 293.427C245.269 293.589 245.415 293.673 245.579 293.695C247.219 293.912 248.426 295.192 248.463 295.263C248.493 295.322 248.541 295.367 248.597 295.394Z" fill="#080435"/>
<path d="M244.067 296.033C243.902 296.452 244.276 296.985 244.902 297.223C245.528 297.461 246.169 297.315 246.334 296.897C246.499 296.478 246.125 295.945 245.499 295.707C244.873 295.468 244.232 295.615 244.067 296.033Z" fill="#080435"/>
<path d="M247.859 278.797C247.859 278.797 245.742 283.934 238.788 282.555C231.834 281.177 226.279 282.374 225.508 287.382C224.736 292.391 231.439 309.411 222.238 310.502C213.037 311.592 217.751 301.513 208.647 300.232C199.542 298.95 197.353 288.107 210.132 282.735C218.737 279.118 222.517 259.029 243.749 268.525C269.793 280.172 250.643 293.578 250.643 293.578C250.643 293.578 245.804 284.566 247.859 278.797Z" fill="#75332F"/>
<path d="M220.722 310.674C222.381 310.594 223.624 309.984 224.416 308.862C227.151 304.986 224.094 295.543 221.862 288.648C221.436 287.331 221.033 286.087 220.7 284.977C219.546 281.133 220.6 277.542 223.518 275.37C226.719 272.989 231.189 273.05 235.186 275.527C239.168 277.997 242.464 278.124 244.528 277.795C246.769 277.439 248.046 276.509 248.1 276.47L247.986 276.321C247.935 276.358 242.8 280.027 235.287 275.37C231.222 272.849 226.669 272.793 223.404 275.222C220.465 277.408 219.359 281.167 220.518 285.03C220.852 286.142 221.255 287.387 221.682 288.705C223.902 295.563 226.942 304.955 224.26 308.756C223.504 309.828 222.31 310.411 220.713 310.488L220.722 310.674Z" fill="#916216"/>
<path d="M243.636 292.858C243.823 293.045 243.941 293.198 243.985 293.27C243.29 294.489 242.795 295.769 242.524 297.012C242.442 297.039 242.359 297.073 242.277 297.1C242.481 295.693 242.933 294.231 243.636 292.858ZM243.585 292.81C243.771 292.494 243.968 292.181 244.176 291.879C244.183 291.881 244.183 291.881 244.183 291.881C244.194 291.865 244.2 291.847 244.21 291.837C244.309 291.691 244.414 291.546 244.525 291.404C245.878 289.634 247.509 288.373 249.11 287.821C249.319 287.748 249.524 287.686 249.725 287.636C250.099 287.547 250.465 287.501 250.826 287.494C251.139 287.491 251.449 287.52 251.743 287.576C252.406 287.706 253.004 287.999 253.51 288.459C253.662 288.59 253.806 288.745 253.94 288.91C256.036 291.453 255.303 296.722 252.3 300.661C251.246 302.052 250.018 303.129 248.767 303.793C248.343 304.023 247.915 304.2 247.497 304.328C246.989 304.487 246.491 304.571 246.004 304.58C245.502 304.591 245.035 304.514 244.59 304.366C243.943 304.143 243.376 303.749 242.908 303.189C242.898 303.179 242.894 303.172 242.884 303.162C241.751 301.78 241.451 299.586 241.894 297.246C241.987 296.758 242.109 296.266 242.262 295.777C242.576 294.775 243.019 293.767 243.585 292.81ZM252.549 299.274C254.793 295.705 255.252 291.411 253.488 289.269C253.391 289.154 253.292 289.046 253.19 288.949C252.888 288.662 252.551 288.448 252.172 288.301C252.166 288.299 252.166 288.299 252.16 288.297C252.018 288.241 251.872 288.197 251.715 288.169C251.439 288.098 251.149 288.068 250.836 288.071C250.361 288.084 249.876 288.171 249.38 288.334C247.862 288.833 246.296 290.035 244.99 291.76C244.854 291.941 244.725 292.117 244.601 292.302C244.375 292.618 244.174 292.942 243.985 293.27C243.29 294.489 242.795 295.769 242.524 297.012C242.008 299.31 242.249 301.48 243.339 302.81C243.363 302.837 243.382 302.862 243.409 302.883C244.063 303.63 244.955 304.006 245.99 304.007C246.457 303.999 246.943 303.911 247.433 303.747C247.833 303.614 248.235 303.435 248.639 303.205C249.76 302.573 250.868 301.584 251.83 300.316C252.08 299.987 252.319 299.648 252.534 299.302C252.544 299.292 252.546 299.286 252.549 299.274Z" fill="#764678"/>
<g opacity="0.3">
<path d="M232.656 296.13C229.547 295.02 228.375 290.471 230.037 285.97C231.699 281.468 235.566 278.719 238.674 279.829C241.783 280.939 242.955 285.488 241.293 289.99C239.631 294.491 235.764 297.241 232.656 296.13Z" fill="white"/>
</g>
<g opacity="0.3">
<path d="M244.28 291.729C241.753 295.709 241.427 300.851 243.551 303.213C245.675 305.575 249.445 304.263 251.972 300.282C254.499 296.302 254.826 291.16 252.702 288.798C250.578 286.436 246.807 287.748 244.28 291.729Z" fill="white"/>
</g>
<path d="M230.688 283.616C230.821 283.362 230.973 283.109 231.132 282.856C231.286 282.622 231.445 282.39 231.607 282.171C233.124 280.111 235.099 278.812 237.11 278.58C238.665 278.406 240.052 278.873 241.155 279.927C241.894 280.641 242.438 281.57 242.769 282.631C243.531 284.984 243.303 287.971 242.091 290.665C241.94 290.998 241.777 291.327 241.596 291.651C241.469 291.886 241.329 292.118 241.186 292.342C239.608 294.808 237.426 296.365 235.193 296.627C234.836 296.662 234.489 296.668 234.16 296.639C233.75 296.613 233.357 296.533 232.985 296.407C232.32 296.178 231.701 295.801 231.163 295.272C231.081 295.195 231.001 295.112 230.929 295.025C229.773 293.779 229.169 291.963 229.106 289.965C229.073 288.675 229.264 287.304 229.686 285.962C229.936 285.164 230.27 284.377 230.688 283.616ZM237.078 295.444C238.425 294.769 239.709 293.579 240.697 292.038C240.814 291.858 240.924 291.676 241.022 291.49C241.21 291.168 241.379 290.841 241.532 290.502C242.729 287.875 242.952 284.966 242.195 282.725C241.891 281.79 241.406 280.97 240.749 280.333C240.274 279.881 239.734 279.548 239.146 279.349C238.535 279.138 237.873 279.067 237.183 279.151C236.17 279.268 235.143 279.707 234.189 280.397C233.794 280.682 233.405 281.014 233.042 281.387C233.034 281.391 233.032 281.397 233.03 281.403C232.812 281.611 232.606 281.842 232.411 282.083C232.132 282.423 231.867 282.78 231.619 283.168C231.446 283.442 231.278 283.724 231.128 284.011C230.094 285.95 229.613 288.096 229.691 290.046C229.752 291.84 230.294 293.474 231.319 294.608C231.397 294.697 231.483 294.782 231.569 294.867C232.363 295.617 233.335 296.03 234.409 296.076C234.638 296.087 234.879 296.082 235.119 296.057C235.754 295.982 236.393 295.784 237.014 295.477C237.036 295.47 237.06 295.458 237.078 295.444Z" fill="#764678"/>
<path d="M243.741 294.197C243.643 294.163 243.558 294.097 243.501 294.004C243.468 293.948 242.652 292.702 240.589 292.403C240.349 292.358 240.164 292.139 240.198 291.893C240.233 291.646 240.466 291.475 240.714 291.516C243.221 291.834 244.239 293.466 244.286 293.534C244.413 293.747 244.345 294.027 244.128 294.152C244.007 294.229 243.864 294.239 243.741 294.197Z" fill="#764678"/>
<path d="M239.738 301.522C239.77 301.522 239.801 301.513 239.83 301.495C239.906 301.446 239.927 301.344 239.877 301.269C239.798 301.152 237.911 298.39 234.605 298.168C234.513 298.163 234.435 298.23 234.428 298.319C234.422 298.409 234.491 298.487 234.582 298.493C237.726 298.705 239.581 301.421 239.6 301.448C239.631 301.496 239.684 301.522 239.738 301.522Z" fill="#331832"/>
<path d="M194.88 578.885L193.902 578.799C193.14 578.732 192.569 577.62 192.625 576.316L199.771 411.435L214.166 405.172L197.148 575.568C197.025 577.518 196.022 578.986 194.88 578.885Z" fill="#331832"/>
<path d="M397.63 574.049L396.65 574.109C395.886 574.155 395.152 573.14 395.008 571.842L376.913 407.774L390.189 399.458L399.365 570.435C399.542 572.381 398.774 573.98 397.63 574.049Z" fill="#331832"/>
<path d="M300.266 437.557C226.406 437.557 166.53 427.066 166.53 414.123C166.53 401.181 226.406 390.689 300.266 390.689C374.127 390.689 434.003 401.181 434.003 414.123C434.003 427.066 374.127 437.557 300.266 437.557Z" fill="#D5BD99"/>
<path d="M166.53 403.317H434.003V414.124H166.53V403.317Z" fill="#D5BD99"/>
<path d="M300.266 426.751C226.406 426.751 166.53 416.26 166.53 403.317C166.53 390.375 226.406 379.883 300.266 379.883C374.127 379.883 434.003 390.375 434.003 403.317C434.003 416.26 374.127 426.751 300.266 426.751Z" fill="#E6CFB0"/>
<path d="M282.826 348.19C282.826 348.19 294.14 375.286 272.853 381.106C254.851 386.028 228.364 367.385 228.364 367.385L245.326 365.84L282.826 348.19Z" fill="#FFB27D"/>
<path d="M239.174 334.474C239.174 334.474 233.456 318.092 229.297 314.633L228.36 367.384C228.36 367.384 239.31 349.943 239.174 334.474Z" fill="#889782"/>
<path d="M242.913 382.728C242.913 382.728 264.56 381.221 270.248 387.216C275.935 393.21 278.592 405.097 274.265 402.117C269.937 399.138 265.476 393.828 265.476 393.828C265.476 393.828 270.751 406.486 267.039 407.36C263.326 408.233 259.957 396.62 259.957 396.62C259.957 396.62 267.286 410.595 263.508 410.303C259.729 410.012 254.144 399.975 254.144 399.975C254.144 399.975 263.706 412.19 259.325 411.75C254.944 411.31 251.286 401.952 247.574 402.826C243.861 403.699 227.134 398.727 221.248 395.657L242.913 382.728Z" fill="#FFB27D"/>
<path d="M265.232 393.904L265.725 393.752C265.689 393.638 264.8 390.953 260.923 389.601L260.75 390.079C264.37 391.343 265.223 393.878 265.232 393.904Z" fill="#F69B6E"/>
<path d="M259.746 396.769L260.162 396.468C260.039 396.304 257.112 392.43 253.809 392.023L253.745 392.527C256.829 392.908 259.717 396.731 259.746 396.769Z" fill="#F69B6E"/>
<path d="M253.893 400.039L254.393 399.91C254.357 399.775 253.467 396.59 249.013 395.259L248.862 395.745C253.027 396.99 253.885 400.008 253.893 400.039Z" fill="#F69B6E"/>
<path d="M236.79 399.974L242.912 382.727C215.945 374.415 205.966 359.857 197.042 342.326C192.349 333.106 190.647 319.579 190.661 319.459C190.661 319.459 188.849 315.524 181.223 314.985C167.767 314.034 164.156 317.36 164.156 317.36C164.066 318.046 162.047 334.367 170.518 352.694C175.478 363.427 182.987 372.722 192.837 380.32C204.748 389.509 218.476 396.051 236.79 399.974Z" fill="#FFB27D"/>
<path d="M189.454 369.488C189.988 369.488 190.503 369.372 190.974 369.128C193.12 368.017 193.55 364.655 191.932 361.634C191.16 360.192 190.04 359.035 188.78 358.376C187.474 357.694 186.17 357.621 185.107 358.172C182.961 359.283 182.531 362.645 184.148 365.666C185.411 368.024 187.554 369.488 189.454 369.488ZM186.644 358.507C187.213 358.507 187.826 358.67 188.446 358.994C189.582 359.588 190.596 360.641 191.302 361.96C192.737 364.64 192.441 367.577 190.642 368.509C188.845 369.44 186.213 368.019 184.778 365.34C183.343 362.66 183.64 359.723 185.438 358.791C185.804 358.601 186.212 358.507 186.644 358.507Z" fill="#E9845C"/>
<path d="M463.956 329.47L419.993 297.483L412.195 305.512C412.195 305.512 465.861 363.344 469.068 363.308C476.252 363.229 488.671 343.549 488.671 343.549L463.956 329.47Z" fill="#F29076"/>
<path d="M572.859 640.054C572.859 640.054 573.966 641.061 572.871 643.59C571.776 646.118 561.928 647.586 553.206 647.12C544.484 646.652 531.907 644.609 530.176 642.835C528.446 641.06 530.45 638.55 530.45 638.55L572.859 640.054Z" fill="#452E2F"/>
<path d="M572.855 640.055C572.166 637.388 569.807 627.377 558.269 626.364L554.858 616.952L534.18 620.435C534.18 620.435 528.934 632.177 530.446 638.549C531.959 644.921 573.656 643.16 572.855 640.055Z" fill="#674546"/>
<path d="M425.211 642.768C425.211 642.768 423.325 643.802 423.28 645.104C423.235 646.407 424.741 647.401 424.741 647.401C424.741 647.401 455.688 648.287 460.035 647.783C464.382 647.278 473.823 645.799 473.823 645.799C473.823 645.799 473.564 647.59 475.559 647.657C477.556 647.725 484.595 646.973 487.107 646.25C489.62 645.527 485.78 640.924 485.78 640.924C485.78 640.924 470.802 634.765 425.211 642.768Z" fill="#452E2F"/>
<path d="M463.089 622.601C463.089 622.601 460.042 628.313 454.313 629.097C448.584 629.881 436.198 629.787 433.404 629.692C430.61 629.597 423.558 637.182 425.21 642.768C425.21 642.768 449.996 645.154 461.932 642.884C467.099 641.901 479.026 639.715 485.779 640.922C485.779 640.922 490.288 632.744 484.932 622.221L463.089 622.601Z" fill="#674546"/>
<path d="M438.187 629.754L444.718 643.84" stroke="#0D0000" stroke-width="0.75" stroke-miterlimit="10"/>
<path d="M450.684 629.438C450.684 629.438 455.238 634.034 460.538 632.902C465.838 631.77 471.606 626.778 472.284 622.44" stroke="#0D0000" stroke-width="0.75" stroke-miterlimit="10"/>
<path d="M487.14 628.495C487.14 628.495 476.495 633.05 476.715 640.748" stroke="#0D0000" stroke-width="0.75" stroke-miterlimit="10"/>
<path d="M494.793 269.59C488.907 268.973 463.746 318.804 463.746 318.804C463.746 318.804 479.19 338.437 485.144 339.158C491.098 339.88 498.486 269.978 494.793 269.59Z" fill="#D5BD99"/>
<path d="M462.712 313.658C462.302 314.739 460.851 319.579 460.851 319.579C460.851 319.579 456.352 321.656 456.288 323.874C456.224 326.091 482.199 343.135 484.368 342.574C488.919 341.397 488.451 335.307 488.503 333.434C488.519 332.928 463.85 310.664 462.712 313.658Z" fill="#E6CFB0"/>
<path d="M586.496 291.072C586.496 291.072 613.415 330.485 615.733 336.854C619.141 346.22 577.83 382.767 577.83 382.767L574.264 372.518L594.419 341.466L569.17 306.321L586.496 291.072Z" fill="#F29076"/>
<path d="M558.039 392.95C558.039 392.95 565.599 403.112 565.55 430.933C565.532 440.767 565.083 585.056 564.574 590.966C564.066 596.875 556.045 603.79 556.045 603.79L554.861 616.952C554.861 616.952 540.253 622.746 532.362 619.983L530.879 607.601C530.879 607.601 531.27 604.379 528.183 601.66C525.097 598.943 522.736 484.858 522.258 477.52C521.78 470.181 520.22 443.345 520.22 443.345C495.495 590.621 495.203 593.484 495.615 600.256C495.877 604.561 487.603 609.05 487.603 609.05L484.933 622.221C484.933 622.221 472.82 625.624 462.292 621.965L462.293 611.319C462.293 611.319 456.549 605.888 455.621 602.114C454.693 598.341 486.765 389.535 486.765 389.535L558.039 392.95Z" fill="#D5BD99"/>
<path d="M501.584 436.722C501.584 436.722 520.421 445.422 541.12 445.898" stroke="#0D0000" stroke-width="0.75" stroke-miterlimit="10"/>
<path d="M506.714 449.765L519.903 443.381L530.487 451.686" stroke="#0D0000" stroke-width="0.75" stroke-miterlimit="10"/>
<path d="M522.545 260.605C522.545 260.605 498.046 267.714 494.794 269.589C491.543 271.465 482.357 373.106 480.924 381.071C479.489 389.036 499.264 397.389 505.511 398.293C511.758 399.197 527.114 399.738 535.29 396.895L558.04 392.95C558.04 392.95 566.374 382.436 567.056 378.782C567.738 375.127 566.762 274.869 565.128 271.867C563.496 268.866 540.944 261.807 540.944 261.807L522.545 260.605Z" fill="#D5BD99"/>
<path d="M543.834 261.864C543.834 261.864 564.396 264.273 571.007 266.896C577.618 269.52 604.261 316.046 604.261 316.046C606.444 314.075 587.709 337.109 580.153 333.747C577.475 332.556 542.589 287.307 543.834 261.864Z" fill="#D5BD99"/>
<path d="M527.444 287.665C512.166 377.212 511.047 368.698 520.213 443.346" stroke="#0D0000" stroke-width="0.75" stroke-miterlimit="10"/>
<path d="M542.038 385.455C542.038 385.455 540.856 382.115 539.81 381.957C538.765 381.799 532.901 396.31 530.048 395.869C527.196 395.427 523.251 391.283 523.251 391.283" stroke="#0D0000" stroke-width="0.75" stroke-miterlimit="10"/>
<path d="M496.631 218.339L531.765 218.167C531.765 218.167 523.918 210.593 513.272 210.526C502.626 210.46 496.631 218.339 496.631 218.339Z" fill="#070019"/>
<path d="M520.569 253.59L520.379 262.234L523.554 269.852L513.236 275.243C513.236 275.243 510.993 264.579 511.668 263.685C512.342 262.79 517.392 252.875 517.392 252.875L520.569 253.59Z" fill="#E6CFB0"/>
<path d="M520.374 262.234L520.857 240.274L538.274 240.657L538.433 261.085L527.446 287.665L520.374 262.234Z" fill="#F29076"/>
<path d="M533.21 273.737C533.21 273.737 526.829 276.845 521.088 273.737L527.454 287.665L533.21 273.737Z" fill="#F4F4F4"/>
<path d="M520.856 240.274L520.373 262.235C520.373 262.235 536.49 266.029 535.856 244.371L520.856 240.274Z" fill="#D8755A"/>
<path d="M509.508 231.621C509.508 231.621 501.4 224.481 502.024 218.017C502.36 214.536 511.584 207.622 511.584 207.622C511.584 207.622 538.15 203.048 540.526 206.789C542.248 206.294 544.543 205.947 545.953 208.684C546.823 210.374 548.754 242.869 536.785 242.505L509.508 231.621Z" fill="#75332F"/>
<path d="M512.762 230.494C512.762 230.494 506.087 227.042 505.155 233.056C504.223 239.069 507.621 241.815 513.272 240.106L512.762 230.494Z" fill="#E38066"/>
<path d="M507.863 228.398C507.503 235.185 508.201 253.515 520.389 255.269C535.747 257.478 539.281 233.936 539.538 232.325C539.621 231.788 539.707 231.219 539.78 230.631C540.478 225.267 540.161 216.715 529.302 212.827C521.556 210.061 510.423 215.788 508.271 224.379C508.271 224.379 507.994 225.954 507.863 228.398Z" fill="#F29076"/>
<path d="M510.276 209.809C510.276 209.809 503.831 222.055 507.894 223.215C511.924 224.367 537.261 213.086 537.261 213.086C537.261 213.086 524.736 200.378 510.276 209.809Z" fill="#75332F"/>
<path d="M538.001 232.646C538.001 232.646 545.152 230.336 545.084 236.42C545.017 242.505 541.214 244.656 535.92 242.044L538.001 232.646Z" fill="#F29076"/>
<path d="M543.835 237.504C543.835 237.504 542.876 235.716 541.803 235.929C540.73 236.142 538.55 238.175 537.723 239.665" stroke="#0D0000" stroke-width="0.5" stroke-miterlimit="10"/>
<path d="M535.951 211.929C535.951 211.929 528.637 216.754 529.605 221.526C530.133 224.125 536.002 228.29 536.002 228.29C536.002 228.29 536.533 233.993 538.183 234.072C539.833 234.151 541.035 230.168 541.604 226.033C542.173 221.901 547.449 214.538 535.951 211.929Z" fill="#75332F"/>
<path d="M516.387 234.154C516.31 235.118 515.821 235.867 515.294 235.824C514.768 235.782 514.404 234.966 514.482 234.002C514.559 233.037 515.048 232.289 515.573 232.331C516.101 232.374 516.465 233.189 516.387 234.154Z" fill="#0D0000"/>
<path d="M523.904 234.775C523.821 235.739 524.182 236.557 524.707 236.602C525.233 236.646 525.725 235.902 525.808 234.937C525.89 233.973 525.53 233.154 525.004 233.11C524.478 233.065 523.985 233.81 523.904 234.775Z" fill="#0D0000"/>
<path d="M510.825 228.179C510.794 226.927 519.012 227.153 518.584 228.994C518.155 230.834 510.865 229.813 510.825 228.179Z" fill="#75332F"/>
<path d="M531.338 229.874C531.572 228.645 523.429 227.518 523.549 229.405C523.671 231.29 531.03 231.479 531.338 229.874Z" fill="#75332F"/>
<path d="M519.699 251.988C519.671 251.537 522.242 251.807 522.064 252.192C521.886 252.576 519.734 252.521 519.699 251.988Z" fill="#E08067"/>
<path d="M517.999 247.757C520.105 250.836 524.499 247.757 526.999 247.982" stroke="#0D0000" stroke-width="0.5" stroke-miterlimit="10"/>
<path d="M508.867 240.348C508.867 239.242 514.487 239.401 514.468 240.642C514.447 241.882 508.866 242.068 508.867 240.348Z" fill="#E88064"/>
<path d="M533.204 241.953C533.32 240.852 527.713 240.423 527.604 241.659C527.494 242.896 533.025 243.663 533.204 241.953Z" fill="#E88064"/>
<path d="M519.973 234.049C519.973 234.049 520.762 240.057 517.151 240.599C517.151 240.599 516.892 242.558 519.959 242.72" stroke="#0D0000" stroke-width="0.5" stroke-miterlimit="10"/>
<path d="M538.369 252.526C538.369 252.526 545.61 254.657 546.244 255.433C546.878 256.208 548.305 263.974 548.621 264.925C548.938 265.875 541.899 276.334 541.899 276.334L533.206 270.244L538.436 261.085L538.369 252.526Z" fill="#E6CFB0"/>
<path d="M533.204 270.244L527.446 287.665L538.433 273.907L533.204 270.244Z" fill="#674546"/>
<path d="M522.6 270.244L527.444 287.665L517.142 273.176L522.6 270.244Z" fill="#674546"/>
<path d="M505.226 210.217C505.226 210.217 506.87 202.172 508.516 200.112C510.163 198.054 519.719 195.935 523.956 196.002C527.8 196.062 545.032 202.699 546.315 207.358C547.093 210.186 546.271 221.544 546.628 219.918L529.092 218.127C529.092 218.127 520.229 208.96 505.226 210.217Z" fill="#D5BD99"/>
<path d="M531.766 218.168C531.766 218.168 533.693 209.338 533.563 208.21C533.433 207.082 528.435 196.069 523.952 196.003C520.065 195.945 514.906 200.166 512.89 202.218C511.743 203.387 511.624 211.445 511.624 211.445L531.766 218.168Z" fill="#E6CFB0"/>
<path d="M496.635 218.339C496.635 218.339 492.604 210.527 505.954 207.085C512.434 205.415 528.829 208.923 532.647 218.181C532.647 218.181 528.9 218.937 527.28 218.101C520.76 214.741 508.958 208.974 496.635 218.339Z" fill="#674546"/>
<path d="M558.037 392.95C558.037 392.95 509.723 400.442 486.764 389.536L485.536 403.826C485.536 403.826 531.376 420.466 562.483 403.826C562.483 403.826 561.942 396.811 558.037 392.95Z" fill="#674546"/>
<path d="M545.298 383.794L550.441 400.302L550.083 402.408L552.358 403.315L553.155 407.067L543.968 410.084L542.366 406.822L543.425 405.052L541.229 403.171L535.283 386.912C535.285 386.915 538.044 383.077 545.298 383.794Z" fill="#DE6B5D"/>
<path d="M545.816 385.455C544.394 385.642 543.486 387.064 543.912 388.433L546.679 397.314C547.059 398.532 548.354 399.212 549.573 398.832L549.948 398.715L545.816 385.455Z" fill="#CD6356"/>
<path d="M536.016 388.91C537.378 388.485 538.835 389.21 539.318 390.554L542.088 398.264C542.535 399.51 542.001 400.896 540.833 401.518L540.66 401.611L536.016 388.91Z" fill="#CD6356"/>
<path d="M542.415 388.278L545.941 398.521C546.187 399.235 545.794 400.01 545.073 400.235L545.052 400.241C544.36 400.458 543.622 400.082 543.386 399.396L539.88 389.146C539.636 388.432 540.028 387.659 540.748 387.435C541.441 387.22 542.179 387.594 542.415 388.278Z" fill="#CD6356"/>
<path d="M552.721 405.031L543.084 408.288L543.394 408.92L552.917 405.953L552.721 405.031Z" fill="white"/>
<path d="M547.163 386.205L548.505 390.128C548.714 390.739 549.379 391.066 549.991 390.856L552.772 389.905C553.383 389.695 553.71 389.03 553.501 388.418L552.159 384.496C554.604 384.821 556.744 386.653 557.235 389.353C557.706 391.941 556.339 394.598 553.965 395.731C550.695 397.291 546.899 395.629 545.761 392.303C545.006 390.097 545.628 387.758 547.163 386.205Z" fill="#D6D7D9"/>
<path d="M550.132 394.024L554.593 392.498L560.852 410.794L556.392 412.32L550.132 394.024Z" fill="#D6D7D9"/>
<path d="M538.638 406.993C538.638 406.993 539.431 409.745 540.441 413.23C541.979 418.53 544.071 425.524 544.756 427.134C545.898 429.813 564.65 435.231 565.899 432.202C566.753 430.111 566.135 414.563 564.128 407.245C563.239 404 562.398 401.368 561.868 400.383L538.638 406.993Z" fill="#674546"/>
<path d="M538.638 406.993C538.638 406.993 539.431 409.745 540.441 413.23C547.58 412.545 557.951 409.337 564.128 407.246C563.239 404.001 562.398 401.37 561.868 400.385L538.638 406.993Z" fill="#452E2F"/>
<path d="M500.175 393.839L496.134 408.92L492.568 406.975L496.372 392.801L500.175 393.839Z" fill="#452E2F"/>
<path d="M509.92 392.801L531.401 393.839V414.83L507.5 413.23L509.92 392.801ZM528.223 410.659V396.322L513.297 395.869L512.52 409.593L528.223 410.659Z" fill="#D6D7D9"/>
<path d="M509.444 391.345C506.671 388.057 506.249 394.549 502.498 393.838C498.748 393.128 496.371 388.788 496.371 388.788" stroke="#0D0000" stroke-width="0.75" stroke-miterlimit="10"/>
<path d="M571.296 368.599C571.296 368.599 568.852 357.523 567.481 357.146C566.112 356.77 566.053 369.487 566.053 369.487L571.296 368.599Z" fill="#F29076"/>
<path d="M569.45 385.906C571.687 386.907 577.831 382.767 577.831 382.767L574.265 372.518C574.265 372.518 568.768 365.06 567.635 364.343C566.503 363.627 555.884 365.675 555.118 366.944C554.353 368.213 564.361 368.724 564.361 368.724C564.361 368.724 553.474 372.375 553.989 373.95C554.504 375.524 563.476 373.296 563.476 373.296C563.476 373.296 558.261 376.991 558.926 378.041C559.591 379.09 565.447 376.333 565.447 376.333C565.447 376.333 564.462 383.675 569.45 385.906Z" fill="#F29076"/>
<path d="M594.417 341.466L599.171 336.854" stroke="#0D0000" stroke-width="0.75" stroke-miterlimit="10"/>
<path d="M566.741 316.64C566.741 316.64 562.653 304.463 561.461 275.244" stroke="#0D0000" stroke-width="0.75" stroke-miterlimit="10"/>
<path d="M551.836 295.94C551.836 295.94 560.392 310.479 565.897 313.522" stroke="#0D0000" stroke-width="0.75" stroke-miterlimit="10"/>
<path d="M583.729 282.537C580.725 282.685 572.947 289.726 572.471 291.072C571.996 292.419 575.799 294.947 576.512 295.942C577.225 296.936 586.258 296.374 587.209 295.942C588.159 295.509 590.535 292.007 590.299 291.072C589.902 289.501 584.435 282.501 583.729 282.537Z" fill="#E6CFB0"/>
<path d="M607.626 312.686C608.005 313.778 609.316 318.658 609.316 318.658C609.316 318.658 613.753 320.864 613.753 323.083C613.753 325.301 587.013 340.245 584.859 339.621C580.345 338.314 577.541 333.625 577.544 331.752C577.545 331.245 606.576 309.66 607.626 312.686Z" fill="#E6CFB0"/>
<path d="M497.71 331.193L543.042 369.598" stroke="#0D0000" stroke-width="0.75" stroke-miterlimit="10"/>
<path d="M501.728 352.272L514.312 369.072" stroke="#0D0000" stroke-width="0.75" stroke-miterlimit="10"/>
<path d="M492.272 280.701C492.272 280.701 484.259 327.029 485.142 339.159" stroke="#0D0000" stroke-width="0.75" stroke-miterlimit="10"/>
<path d="M482.228 299.312C481.891 307.441 483.378 315.639 486.55 323.129" stroke="#0D0000" stroke-width="0.75" stroke-miterlimit="10"/>
<path d="M402.012 299.656C402.012 299.656 403.087 306.642 405.44 307.766C410.574 310.216 416.698 310.544 416.698 310.544L424.222 300.785C424.222 300.785 413.936 290.929 410.808 288.452L402.012 299.656Z" fill="#F29076"/>
<path d="M414.145 266.559L429.417 269.636L432.507 267.539L434.293 257.1C434.293 257.1 436.336 258.015 437.232 260.168C438.127 262.323 440.324 267.809 438.466 272.148C436.606 276.481 424.212 282.885 421.683 284.423C419.155 285.962 405.947 313.431 403.869 317.492C401.79 321.56 398.236 322.177 395.689 320.808C393.142 319.44 392.179 315.399 393.782 313.132C395.382 310.869 411.245 286.685 413.118 281.303C414.989 275.918 414.145 266.559 414.145 266.559ZM396.596 318.624C398.025 319.541 399.929 319.124 400.846 317.695C401.762 316.266 401.346 314.362 399.917 313.446C398.488 312.529 396.584 312.946 395.667 314.375C394.751 315.804 395.167 317.709 396.596 318.624Z" fill="#9FA0A1"/>
<path d="M419.857 259.69C419.262 261.724 416.901 267.113 416.901 267.113L423.058 268.355L425.559 268.86L427.765 256.598C427.765 256.598 426.503 256.474 424.977 256.634C422.96 256.843 420.483 257.546 419.857 259.69Z" fill="#B8B9BA"/>
<path d="M416.91 286.502L404.035 310.599C403.559 311.491 402.435 311.805 401.566 311.29L400.759 310.814C399.921 310.319 399.638 309.24 400.126 308.397L413.808 284.775C414.303 283.922 415.399 283.635 416.248 284.137C417.066 284.621 417.359 285.663 416.91 286.502Z" fill="#858687"/>
<path d="M424.976 256.634L423.058 268.356L425.559 268.862L427.765 256.6C427.765 256.6 426.501 256.474 424.976 256.634Z" fill="white"/>
<path d="M425.538 271.343L424.64 276.053L416.813 274.549L417.861 269.996L425.538 271.343Z" fill="#B8B9BA"/>
<path d="M424.237 271.812L423.41 275.096L421.703 274.884L422.483 271.392L424.237 271.812Z" fill="#929394"/>
<path d="M409.517 284.95C410.516 285.05 415.611 287.858 413.692 290.878C413.1 291.808 409.883 290.989 409.883 290.989C409.883 290.989 412.185 293.06 411.473 294.553C410.761 296.047 408.461 294.268 408.461 294.268C408.461 294.268 411.052 296.478 410.3 297.871C409.606 299.153 406.635 297.598 406.635 297.598C406.635 297.598 409.379 300.212 408.52 301.461C407.662 302.711 402.014 299.657 402.014 299.657C400.983 298.142 400.649 295.66 401.899 294.322C402.244 293.953 402.657 293.648 402.948 293.237C403.686 292.199 403.527 290.681 404.373 289.729C404.836 289.206 405.543 288.934 405.963 288.375C406.404 287.784 407.29 285.102 409.517 284.95Z" fill="#E07E64"/>
<path d="M419.494 289.945C419.312 289.733 416.703 286.479 415.9 286.068C415.097 285.657 411.488 287.956 410.83 288.749C410.173 289.541 410.749 293.429 411.461 294.198C412.172 294.967 414.511 293.088 414.283 290.562C414.283 290.562 414.378 298.765 416.425 300.498C418.472 302.233 422.075 302.025 424.222 300.785C424.222 300.785 421.838 292.687 419.494 289.945Z" fill="#F29076"/>
<path d="M558.269 626.365C558.269 626.365 541.068 625.293 535.757 631.922" stroke="#0D0000" stroke-width="0.75" stroke-miterlimit="10"/>
<path d="M463.326 610.98C463.326 610.98 468.946 613.248 478.792 610.98" stroke="#0D0000" stroke-width="0.75" stroke-miterlimit="10"/>
<path d="M557.077 603.451C557.077 603.451 550.384 608.618 536.598 607.905" stroke="#0D0000" stroke-width="0.75" stroke-miterlimit="10"/>
<path d="M548.776 512.671C548.776 512.671 546.384 511.317 540.951 511.153C535.519 510.988 533.491 513.133 533.491 513.133C533.491 513.133 534.593 520.608 541.418 520.73C548.243 520.853 548.56 513.445 548.776 512.671Z" fill="#E6CFB0"/>
<path d="M490.78 511.912C490.78 511.912 488.638 510.111 483.317 508.885C477.995 507.658 475.66 509.373 475.66 509.373C475.66 509.373 475.564 516.948 482.264 518.405C488.963 519.862 490.444 512.632 490.78 511.912Z" fill="#E6CFB0"/>
<path d="M342.993 210.923C334.744 229.413 318.992 225.859 313.481 221.768C288.947 243.637 266.724 223.548 263.346 210.57C246.457 217.325 242.545 199.547 248.057 193.502C230.989 189.52 236.501 171.99 245.745 170.746C239.488 158.799 248.353 152.968 253.568 151.545C253.425 137.18 268.324 135.367 272.768 140.167C281.124 122.211 295.051 130.329 299.791 136.965C317.748 111.011 337.837 133.944 336.415 143.543C341.819 142.974 343.882 148.284 344.237 151.01C362.727 138.565 377.305 163.633 365.927 174.656C381.394 197.59 357.927 214.479 342.993 210.923Z" fill="white"/>
<path d="M264.731 232.381C265.62 235.936 261.176 241.625 256.375 241.625C251.575 241.625 247.664 237.608 247.664 233.092C247.664 228.575 250.161 225.092 254.775 225.092C259.39 225.092 264.731 227.864 264.731 232.381Z" fill="white"/>
<path d="M247.84 250.159C248.196 251.937 246.028 254.604 243.573 254.604C241.119 254.604 239.484 252.123 239.484 250.159C239.484 248.195 240.551 246.248 243.573 246.603C246.062 246.603 248.018 248.381 247.84 250.159Z" fill="white"/>
<path d="M292.653 149.454V164H290.635L283.242 153.332H283.107V164H280.912V149.454H282.944L290.344 160.136H290.479V149.454H292.653ZM300.279 164.22C299.256 164.22 298.363 163.986 297.601 163.517C296.839 163.048 296.247 162.392 295.825 161.549C295.404 160.707 295.193 159.722 295.193 158.595C295.193 157.463 295.404 156.474 295.825 155.626C296.247 154.779 296.839 154.12 297.601 153.652C298.363 153.183 299.256 152.949 300.279 152.949C301.301 152.949 302.194 153.183 302.956 153.652C303.718 154.12 304.31 154.779 304.732 155.626C305.153 156.474 305.364 157.463 305.364 158.595C305.364 159.722 305.153 160.707 304.732 161.549C304.31 162.392 303.718 163.048 302.956 163.517C302.194 163.986 301.301 164.22 300.279 164.22ZM300.286 162.437C300.949 162.437 301.498 162.262 301.933 161.912C302.369 161.561 302.691 161.095 302.899 160.513C303.112 159.93 303.219 159.289 303.219 158.588C303.219 157.892 303.112 157.253 302.899 156.67C302.691 156.083 302.369 155.612 301.933 155.257C301.498 154.902 300.949 154.724 300.286 154.724C299.618 154.724 299.064 154.902 298.624 155.257C298.188 155.612 297.864 156.083 297.651 156.67C297.442 157.253 297.338 157.892 297.338 158.588C297.338 159.289 297.442 159.93 297.651 160.513C297.864 161.095 298.188 161.561 298.624 161.912C299.064 162.262 299.618 162.437 300.286 162.437ZM312.827 153.091V154.795H306.868V153.091H312.827ZM308.466 150.477H310.589V160.797C310.589 161.209 310.651 161.519 310.774 161.727C310.897 161.931 311.056 162.07 311.25 162.146C311.449 162.217 311.664 162.253 311.896 162.253C312.067 162.253 312.216 162.241 312.344 162.217C312.471 162.193 312.571 162.174 312.642 162.16L313.025 163.915C312.902 163.962 312.727 164.009 312.5 164.057C312.273 164.109 311.988 164.137 311.648 164.142C311.089 164.151 310.568 164.052 310.085 163.844C309.602 163.635 309.211 163.313 308.913 162.878C308.615 162.442 308.466 161.895 308.466 161.237V150.477ZM320.469 164V153.091H322.592V164H320.469ZM321.541 151.407C321.172 151.407 320.854 151.284 320.589 151.038C320.329 150.787 320.199 150.489 320.199 150.143C320.199 149.793 320.329 149.495 320.589 149.248C320.854 148.997 321.172 148.872 321.541 148.872C321.91 148.872 322.225 148.997 322.486 149.248C322.751 149.495 322.883 149.793 322.883 150.143C322.883 150.489 322.751 150.787 322.486 151.038C322.225 151.284 321.91 151.407 321.541 151.407ZM327.573 157.522V164H325.449V153.091H327.487V154.866H327.622C327.873 154.289 328.266 153.825 328.801 153.474C329.341 153.124 330.021 152.949 330.84 152.949C331.583 152.949 332.234 153.105 332.793 153.417C333.352 153.725 333.785 154.184 334.093 154.795C334.4 155.406 334.554 156.161 334.554 157.061V164H332.431V157.317C332.431 156.526 332.225 155.908 331.813 155.463C331.401 155.013 330.835 154.788 330.115 154.788C329.623 154.788 329.185 154.895 328.801 155.108C328.423 155.321 328.122 155.633 327.899 156.045C327.682 156.452 327.573 156.945 327.573 157.522ZM266.943 188V177.091H268.982V178.866H269.116C269.344 178.265 269.715 177.796 270.232 177.46C270.748 177.119 271.366 176.949 272.085 176.949C272.814 176.949 273.425 177.119 273.918 177.46C274.415 177.801 274.782 178.27 275.018 178.866H275.132C275.393 178.284 275.807 177.82 276.375 177.474C276.943 177.124 277.62 176.949 278.406 176.949C279.396 176.949 280.203 177.259 280.828 177.879C281.458 178.499 281.773 179.434 281.773 180.684V188H279.649V180.883C279.649 180.145 279.448 179.61 279.045 179.278C278.643 178.947 278.162 178.781 277.604 178.781C276.912 178.781 276.375 178.994 275.991 179.42C275.608 179.842 275.416 180.384 275.416 181.047V188H273.3V180.748C273.3 180.156 273.115 179.681 272.746 179.321C272.376 178.961 271.896 178.781 271.304 178.781C270.902 178.781 270.53 178.888 270.189 179.101C269.853 179.309 269.58 179.6 269.372 179.974C269.169 180.348 269.067 180.781 269.067 181.274V188H266.943ZM289.214 188.22C288.191 188.22 287.299 187.986 286.537 187.517C285.774 187.048 285.182 186.392 284.761 185.549C284.34 184.707 284.129 183.722 284.129 182.595C284.129 181.463 284.34 180.474 284.761 179.626C285.182 178.779 285.774 178.12 286.537 177.652C287.299 177.183 288.191 176.949 289.214 176.949C290.237 176.949 291.129 177.183 291.892 177.652C292.654 178.12 293.246 178.779 293.667 179.626C294.089 180.474 294.299 181.463 294.299 182.595C294.299 183.722 294.089 184.707 293.667 185.549C293.246 186.392 292.654 187.048 291.892 187.517C291.129 187.986 290.237 188.22 289.214 188.22ZM289.221 186.437C289.884 186.437 290.433 186.262 290.869 185.912C291.305 185.561 291.627 185.095 291.835 184.513C292.048 183.93 292.154 183.289 292.154 182.588C292.154 181.892 292.048 181.253 291.835 180.67C291.627 180.083 291.305 179.612 290.869 179.257C290.433 178.902 289.884 178.724 289.221 178.724C288.554 178.724 288 178.902 287.559 179.257C287.124 179.612 286.799 180.083 286.586 180.67C286.378 181.253 286.274 181.892 286.274 182.588C286.274 183.289 286.378 183.93 286.586 184.513C286.799 185.095 287.124 185.561 287.559 185.912C288 186.262 288.554 186.437 289.221 186.437ZM301.265 188.22C300.242 188.22 299.35 187.986 298.587 187.517C297.825 187.048 297.233 186.392 296.812 185.549C296.39 184.707 296.18 183.722 296.18 182.595C296.18 181.463 296.39 180.474 296.812 179.626C297.233 178.779 297.825 178.12 298.587 177.652C299.35 177.183 300.242 176.949 301.265 176.949C302.288 176.949 303.18 177.183 303.942 177.652C304.705 178.12 305.297 178.779 305.718 179.626C306.139 180.474 306.35 181.463 306.35 182.595C306.35 183.722 306.139 184.707 305.718 185.549C305.297 186.392 304.705 187.048 303.942 187.517C303.18 187.986 302.288 188.22 301.265 188.22ZM301.272 186.437C301.935 186.437 302.484 186.262 302.92 185.912C303.355 185.561 303.677 185.095 303.886 184.513C304.099 183.93 304.205 183.289 304.205 182.588C304.205 181.892 304.099 181.253 303.886 180.67C303.677 180.083 303.355 179.612 302.92 179.257C302.484 178.902 301.935 178.724 301.272 178.724C300.604 178.724 300.05 178.902 299.61 179.257C299.174 179.612 298.85 180.083 298.637 180.67C298.429 181.253 298.325 181.892 298.325 182.588C298.325 183.289 298.429 183.93 298.637 184.513C298.85 185.095 299.174 185.561 299.61 185.912C300.05 186.262 300.604 186.437 301.272 186.437ZM312.804 188.213C311.924 188.213 311.138 187.988 310.446 187.538C309.76 187.084 309.22 186.437 308.827 185.599C308.439 184.756 308.245 183.745 308.245 182.567C308.245 181.388 308.441 180.379 308.834 179.541C309.232 178.703 309.776 178.061 310.468 177.616C311.159 177.171 311.943 176.949 312.819 176.949C313.496 176.949 314.04 177.062 314.452 177.29C314.869 177.512 315.191 177.772 315.418 178.071C315.65 178.369 315.83 178.632 315.958 178.859H316.086V173.454H318.209V188H316.135V186.302H315.958C315.83 186.534 315.645 186.799 315.404 187.098C315.167 187.396 314.84 187.656 314.424 187.879C314.007 188.102 313.467 188.213 312.804 188.213ZM313.273 186.402C313.884 186.402 314.4 186.241 314.821 185.919C315.248 185.592 315.569 185.14 315.787 184.562C316.01 183.985 316.121 183.312 316.121 182.545C316.121 181.788 316.012 181.125 315.794 180.557C315.577 179.988 315.257 179.546 314.836 179.228C314.414 178.911 313.893 178.753 313.273 178.753C312.634 178.753 312.101 178.918 311.675 179.25C311.249 179.581 310.927 180.033 310.709 180.606C310.496 181.179 310.39 181.826 310.39 182.545C310.39 183.274 310.498 183.93 310.716 184.513C310.934 185.095 311.256 185.557 311.682 185.897C312.113 186.234 312.643 186.402 313.273 186.402ZM331.625 177.091V178.795H325.667V177.091H331.625ZM327.265 174.477H329.388V184.797C329.388 185.209 329.45 185.519 329.573 185.727C329.696 185.931 329.855 186.07 330.049 186.146C330.248 186.217 330.463 186.253 330.695 186.253C330.865 186.253 331.015 186.241 331.142 186.217C331.27 186.193 331.37 186.174 331.441 186.16L331.824 187.915C331.701 187.962 331.526 188.009 331.299 188.057C331.071 188.109 330.787 188.137 330.446 188.142C329.888 188.151 329.367 188.052 328.884 187.844C328.401 187.635 328.01 187.313 327.712 186.878C327.414 186.442 327.265 185.895 327.265 185.237V174.477ZM338.452 188.22C337.43 188.22 336.537 187.986 335.775 187.517C335.013 187.048 334.421 186.392 333.999 185.549C333.578 184.707 333.367 183.722 333.367 182.595C333.367 181.463 333.578 180.474 333.999 179.626C334.421 178.779 335.013 178.12 335.775 177.652C336.537 177.183 337.43 176.949 338.452 176.949C339.475 176.949 340.368 177.183 341.13 177.652C341.892 178.12 342.484 178.779 342.906 179.626C343.327 180.474 343.538 181.463 343.538 182.595C343.538 183.722 343.327 184.707 342.906 185.549C342.484 186.392 341.892 187.048 341.13 187.517C340.368 187.986 339.475 188.22 338.452 188.22ZM338.46 186.437C339.122 186.437 339.672 186.262 340.107 185.912C340.543 185.561 340.865 185.095 341.073 184.513C341.286 183.93 341.393 183.289 341.393 182.588C341.393 181.892 341.286 181.253 341.073 180.67C340.865 180.083 340.543 179.612 340.107 179.257C339.672 178.902 339.122 178.724 338.46 178.724C337.792 178.724 337.238 178.902 336.798 179.257C336.362 179.612 336.038 180.083 335.825 180.67C335.616 181.253 335.512 181.892 335.512 182.588C335.512 183.289 335.616 183.93 335.825 184.513C336.038 185.095 336.362 185.561 336.798 185.912C337.238 186.262 337.792 186.437 338.46 186.437ZM285.275 212L282.065 201.091H284.259L286.397 209.102H286.504L288.649 201.091H290.843L292.974 209.067H293.08L295.204 201.091H297.399L294.195 212H292.029L289.813 204.123H289.65L287.434 212H285.275ZM303.677 212.22C302.654 212.22 301.762 211.986 300.999 211.517C300.237 211.048 299.645 210.392 299.224 209.549C298.802 208.707 298.592 207.722 298.592 206.595C298.592 205.463 298.802 204.474 299.224 203.626C299.645 202.779 300.237 202.12 300.999 201.652C301.762 201.183 302.654 200.949 303.677 200.949C304.7 200.949 305.592 201.183 306.355 201.652C307.117 202.12 307.709 202.779 308.13 203.626C308.552 204.474 308.762 205.463 308.762 206.595C308.762 207.722 308.552 208.707 308.13 209.549C307.709 210.392 307.117 211.048 306.355 211.517C305.592 211.986 304.7 212.22 303.677 212.22ZM303.684 210.437C304.347 210.437 304.896 210.262 305.332 209.912C305.767 209.561 306.089 209.095 306.298 208.513C306.511 207.93 306.617 207.289 306.617 206.588C306.617 205.892 306.511 205.253 306.298 204.67C306.089 204.083 305.767 203.612 305.332 203.257C304.896 202.902 304.347 202.724 303.684 202.724C303.017 202.724 302.463 202.902 302.022 203.257C301.587 203.612 301.262 204.083 301.049 204.67C300.841 205.253 300.737 205.892 300.737 206.588C300.737 207.289 300.841 207.93 301.049 208.513C301.262 209.095 301.587 209.561 302.022 209.912C302.463 210.262 303.017 210.437 303.684 210.437ZM311.133 212V201.091H313.185V202.824H313.299C313.498 202.236 313.848 201.775 314.35 201.439C314.857 201.098 315.43 200.927 316.069 200.927C316.201 200.927 316.358 200.932 316.537 200.942C316.722 200.951 316.867 200.963 316.971 200.977V203.008C316.885 202.985 316.734 202.959 316.516 202.93C316.298 202.897 316.081 202.88 315.863 202.88C315.361 202.88 314.913 202.987 314.52 203.2C314.132 203.408 313.824 203.7 313.597 204.074C313.37 204.443 313.256 204.864 313.256 205.338V212H311.133ZM320.762 208.299L320.747 205.707H321.117L325.463 201.091H328.006L323.048 206.346H322.715L320.762 208.299ZM318.808 212V197.454H320.932V212H318.808ZM325.698 212L321.791 206.815L323.254 205.331L328.304 212H325.698Z" fill="black"/>
<path d="M601.009 138.385C587.841 153.764 573.751 145.875 569.631 140.386C539.89 154.372 524.3 128.79 524.754 115.387C506.64 117.059 507.948 98.9024 514.951 94.6754C499.722 86.0022 509.993 70.765 519.21 72.2019C516.609 58.9683 526.767 55.8999 532.171 56.02C536.121 42.2082 550.92 44.7081 553.815 50.5743C566.934 35.7372 577.976 47.4812 580.633 55.1923C605.231 35.4185 617.966 63.1194 613.872 71.9174C619.215 72.9095 619.681 78.5868 619.246 81.3015C640.512 74.6305 647.357 102.81 633.313 110.14C641.617 136.527 614.314 146.042 601.009 138.385Z" fill="white"/>
<path d="M546.611 157.446C548.264 160.717 545.189 167.248 540.508 168.311C535.827 169.373 531.124 166.321 530.124 161.916C529.124 157.512 530.788 153.562 535.289 152.541C539.789 151.519 545.611 153.041 546.611 157.446Z" fill="white"/>
<path d="M534.073 178.521C534.813 180.176 533.289 183.257 530.895 183.8C528.502 184.343 526.359 182.286 525.924 180.371C525.49 178.456 526.099 176.32 529.125 175.998C531.552 175.447 533.853 176.748 534.073 178.521Z" fill="white"/>
<path d="M552.794 68.4438C552.882 68.0001 552.906 67.573 552.867 67.1625C552.834 66.7501 552.737 66.3616 552.576 65.9972C552.416 65.6285 552.189 65.2901 551.894 64.9818C551.603 64.6758 551.246 64.4065 550.823 64.1737C550.105 63.7789 549.356 63.6075 548.577 63.6596C547.797 63.7116 547.043 64.002 546.314 64.5307C545.592 65.0575 544.948 65.8354 544.382 66.8642C543.814 67.8972 543.501 68.863 543.445 69.7614C543.389 70.6598 543.551 71.4545 543.933 72.1455C544.315 72.8365 544.879 73.3873 545.626 73.7981C546.319 74.1792 547 74.3702 547.67 74.3711C548.343 74.3742 548.963 74.1962 549.528 73.8369C550.099 73.4758 550.578 72.9447 550.964 72.2435L551.41 72.6107L547.763 70.6048L548.636 69.018L553.646 71.7735L552.848 73.2235C552.259 74.2938 551.52 75.0976 550.63 75.6348C549.747 76.1702 548.787 76.4313 547.751 76.4182C546.72 76.4073 545.69 76.1189 544.661 75.553C543.507 74.9186 542.641 74.0962 542.062 73.086C541.487 72.078 541.225 70.9531 541.276 69.7112C541.329 68.4651 541.725 67.17 542.465 65.8258C543.024 64.8094 543.667 63.9743 544.394 63.3205C545.121 62.6667 545.895 62.198 546.716 61.9145C547.543 61.6291 548.385 61.5276 549.242 61.61C550.106 61.6905 550.95 61.9579 551.776 62.412C552.464 62.7908 553.049 63.245 553.531 63.7746C554.016 64.3065 554.389 64.887 554.648 65.5159C554.911 66.1472 555.055 66.8044 555.079 67.4877C555.106 68.1669 555.001 68.8473 554.767 69.5289L552.794 68.4438ZM556.27 81.9633C555.374 81.4704 554.705 80.8349 554.263 80.0568C553.821 79.2787 553.619 78.4188 553.655 77.4773C553.692 76.5357 553.983 75.5712 554.526 74.5839C555.071 73.5923 555.733 72.8268 556.51 72.2873C557.288 71.7478 558.124 71.4564 559.018 71.4131C559.912 71.3698 560.806 71.5946 561.703 72.0875C562.599 72.5804 563.268 73.216 563.71 73.9941C564.152 74.7722 564.353 75.6341 564.314 76.5798C564.275 77.5255 563.982 78.4941 563.437 79.4857C562.894 80.473 562.234 81.2344 561.459 81.7698C560.684 82.3051 559.849 82.5944 558.955 82.6378C558.061 82.6811 557.166 82.4563 556.27 81.9633ZM557.136 80.4048C557.716 80.7243 558.282 80.8355 558.833 80.7384C559.383 80.6414 559.89 80.3879 560.353 79.9781C560.821 79.5705 561.223 79.0597 561.561 78.4457C561.896 77.8358 562.111 77.2244 562.205 76.6115C562.306 75.9966 562.251 75.4286 562.04 74.9076C561.83 74.3865 561.434 73.9662 560.853 73.6467C560.268 73.3249 559.697 73.2135 559.14 73.3124C558.587 73.4136 558.076 73.6701 557.606 74.0818C557.143 74.4917 556.744 75.0016 556.408 75.6114C556.071 76.2254 555.853 76.8377 555.755 77.4484C555.661 78.0614 555.72 78.6264 555.933 79.1433C556.15 79.6625 556.551 80.083 557.136 80.4048ZM572.629 78.2597L571.807 79.7532L566.586 76.8812L567.407 75.3877L572.629 78.2597ZM570.067 73.8679L571.928 74.8914L566.954 83.9333C566.756 84.2942 566.66 84.5956 566.668 84.8375C566.677 85.0752 566.749 85.274 566.883 85.434C567.023 85.5921 567.194 85.727 567.398 85.8388C567.547 85.921 567.683 85.9825 567.807 86.0234C567.93 86.0642 568.026 86.0956 568.095 86.1174L567.586 87.8393C567.455 87.8214 567.279 87.7785 567.057 87.7104C566.833 87.6465 566.57 87.5345 566.269 87.3743C565.775 87.1133 565.367 86.7752 565.044 86.3599C564.721 85.9446 564.534 85.4742 564.483 84.9488C564.431 84.4233 564.564 83.8723 564.881 83.2956L570.067 73.8679ZM580.243 78.298L582.427 79.4995L582.57 87.1244L582.707 87.1997L589.223 83.2375L591.407 84.439L582.525 89.637L579.773 94.6402L577.856 93.5859L580.608 88.5827L580.243 78.298ZM588.409 99.6417C587.512 99.1487 586.843 98.5132 586.401 97.7351C585.959 96.957 585.757 96.0971 585.794 95.1556C585.831 94.214 586.121 93.2496 586.664 92.2622C587.209 91.2707 587.871 90.5052 588.649 89.9657C589.426 89.4261 590.262 89.1347 591.156 89.0914C592.05 89.0481 592.945 89.2729 593.841 89.7659C594.737 90.2588 595.406 90.8943 595.848 91.6724C596.29 92.4505 596.492 93.3124 596.452 94.2582C596.413 95.2039 596.121 96.1725 595.575 97.164C595.032 98.1514 594.373 98.9127 593.597 99.4481C592.822 99.9834 591.987 100.273 591.094 100.316C590.2 100.359 589.305 100.135 588.409 99.6417ZM589.274 98.0831C589.855 98.4026 590.42 98.5138 590.971 98.4168C591.522 98.3197 592.028 98.0663 592.492 97.6564C592.959 97.2488 593.362 96.738 593.699 96.124C594.035 95.5142 594.25 94.9028 594.344 94.2898C594.444 93.6749 594.389 93.107 594.178 92.5859C593.968 92.0648 593.572 91.6445 592.991 91.325C592.406 91.0032 591.836 90.8918 591.279 90.9907C590.726 91.0919 590.214 91.3484 589.745 91.7601C589.282 92.17 588.882 92.6799 588.547 93.2897C588.209 93.9037 587.991 94.5161 587.893 95.1268C587.799 95.7397 587.858 96.3047 588.071 96.8216C588.288 97.3409 588.689 97.7614 589.274 98.0831ZM603.283 102.409L606.36 96.8143L608.227 97.8412L602.969 107.4L601.139 106.393L602.05 104.738L601.95 104.683C601.45 105.073 600.863 105.304 600.191 105.377C599.525 105.448 598.833 105.287 598.115 104.892C597.501 104.554 597.032 104.12 596.707 103.59C596.389 103.059 596.242 102.451 596.267 101.768C596.296 101.086 596.527 100.352 596.961 99.5635L600.305 93.4837L602.166 94.5071L598.945 100.363C598.586 101.014 598.482 101.632 598.63 102.216C598.779 102.801 599.142 103.252 599.718 103.569C600.067 103.761 600.461 103.864 600.901 103.879C601.346 103.897 601.779 103.792 602.201 103.565C602.627 103.34 602.988 102.954 603.283 102.409ZM543.122 90.6689L541.181 89.6009C541.334 89.1449 541.396 88.7034 541.366 88.2763C541.337 87.8492 541.235 87.4447 541.061 87.0628C540.888 86.6809 540.649 86.3335 540.346 86.0207C540.046 85.7101 539.693 85.443 539.287 85.2194C538.552 84.8155 537.793 84.6384 537.009 84.6881C536.23 84.7401 535.476 85.0305 534.747 85.5592C534.023 86.0902 533.377 86.8702 532.811 87.899C532.241 88.9362 531.925 89.9028 531.865 90.799C531.808 91.6974 531.97 92.4889 532.35 93.1734C532.73 93.858 533.283 94.3999 534.009 94.7993C534.411 95.0207 534.823 95.1767 535.243 95.2673C535.67 95.3561 536.09 95.3737 536.503 95.32C536.916 95.2663 537.31 95.1398 537.684 94.9404C538.065 94.7392 538.407 94.457 538.709 94.0938L540.648 95.1681C540.199 95.7374 539.681 96.2034 539.092 96.566C538.51 96.9267 537.882 97.1701 537.207 97.2962C536.539 97.4204 535.851 97.4231 535.144 97.3042C534.437 97.1853 533.732 96.933 533.031 96.5473C531.928 95.9403 531.088 95.1381 530.513 94.1407C529.94 93.1392 529.674 92.0119 529.714 90.759C529.759 89.5084 530.155 88.2048 530.901 86.8482C531.65 85.4874 532.541 84.4565 533.575 83.7554C534.611 83.0502 535.705 82.6735 536.855 82.6255C538.008 82.5732 539.134 82.8495 540.233 83.4542C540.91 83.8262 541.487 84.2706 541.964 84.7873C542.448 85.3022 542.822 85.8753 543.086 86.5065C543.351 87.1336 543.49 87.7992 543.503 88.5032C543.518 89.2031 543.391 89.925 543.122 90.6689ZM544.463 102.86C543.567 102.367 542.898 101.732 542.456 100.954C542.014 100.175 541.812 99.3156 541.849 98.374C541.886 97.4325 542.176 96.468 542.719 95.4806C543.264 94.4891 543.926 93.7236 544.704 93.1841C545.481 92.6446 546.317 92.3532 547.211 92.3099C548.105 92.2666 549 92.4914 549.896 92.9843C550.792 93.4772 551.461 94.1127 551.903 94.8909C552.345 95.669 552.546 96.5309 552.507 97.4766C552.468 98.4223 552.176 99.3909 551.63 100.382C551.087 101.37 550.428 102.131 549.652 102.667C548.877 103.202 548.042 103.491 547.148 103.535C546.255 103.578 545.36 103.353 544.463 102.86ZM545.329 101.302C545.91 101.621 546.475 101.732 547.026 101.635C547.576 101.538 548.083 101.285 548.547 100.875C549.014 100.467 549.416 99.9565 549.754 99.3425C550.09 98.7326 550.304 98.1212 550.398 97.5082C550.499 96.8934 550.444 96.3254 550.233 95.8043C550.023 95.2832 549.627 94.8629 549.046 94.5435C548.461 94.2217 547.89 94.1103 547.333 94.2092C546.781 94.3104 546.269 94.5669 545.8 94.9786C545.336 95.3885 544.937 95.8983 544.602 96.5082C544.264 97.1222 544.046 97.7345 543.948 98.3452C543.854 98.9582 543.913 99.5231 544.126 100.04C544.343 100.559 544.744 100.98 545.329 101.302ZM564.212 101.021L555.488 108.673L553.496 107.578L555.282 96.1091L557.279 97.2079L555.654 105.895L555.754 105.95L562.214 99.9223L564.212 101.021ZM564.391 113.822C563.449 113.304 562.749 112.656 562.29 111.88C561.837 111.101 561.628 110.243 561.663 109.306C561.704 108.366 561.997 107.401 562.543 106.409C563.081 105.43 563.738 104.668 564.514 104.122C565.294 103.578 566.129 103.278 567.019 103.222C567.914 103.168 568.805 103.386 569.693 103.874C570.232 104.171 570.706 104.547 571.114 105.004C571.522 105.461 571.822 105.991 572.014 106.594C572.207 107.197 572.251 107.867 572.148 108.605C572.047 109.338 571.759 110.139 571.282 111.006L570.919 111.665L563.321 107.486L564.087 106.092L569.862 109.268C570.131 108.779 570.27 108.291 570.279 107.803C570.29 107.312 570.175 106.857 569.935 106.439C569.699 106.023 569.341 105.683 568.86 105.418C568.337 105.13 567.81 105.008 567.278 105.051C566.753 105.091 566.272 105.259 565.834 105.553C565.403 105.846 565.057 106.231 564.794 106.708L564.195 107.797C563.844 108.436 563.657 109.041 563.634 109.612C563.616 110.185 563.745 110.702 564.022 111.162C564.3 111.618 564.712 111.996 565.255 112.295C565.608 112.489 565.957 112.616 566.302 112.676C566.649 112.732 566.985 112.717 567.308 112.63C567.631 112.543 567.931 112.381 568.208 112.144L569.794 113.43C569.368 113.871 568.865 114.186 568.285 114.375C567.712 114.562 567.092 114.613 566.426 114.528C565.766 114.44 565.088 114.205 564.391 113.822ZM570.662 117.02L575.92 107.462L577.719 108.451L576.883 109.969L576.983 110.024C577.44 109.605 577.97 109.37 578.571 109.317C579.18 109.263 579.764 109.389 580.324 109.697C580.44 109.761 580.575 109.841 580.728 109.936C580.885 110.033 581.006 110.113 581.09 110.176L580.111 111.956C580.048 111.894 579.928 111.798 579.751 111.668C579.576 111.534 579.393 111.415 579.202 111.31C578.762 111.068 578.319 110.945 577.872 110.943C577.431 110.938 577.021 111.045 576.642 111.263C576.265 111.477 575.962 111.792 575.734 112.206L572.523 118.044L570.662 117.02ZM581.059 122.99C580.117 122.472 579.417 121.825 578.958 121.048C578.505 120.27 578.296 119.412 578.331 118.474C578.372 117.535 578.665 116.57 579.211 115.578C579.749 114.599 580.407 113.836 581.182 113.291C581.962 112.747 582.797 112.447 583.688 112.391C584.582 112.337 585.473 112.554 586.361 113.043C586.9 113.339 587.374 113.716 587.782 114.173C588.19 114.63 588.49 115.159 588.682 115.762C588.875 116.365 588.92 117.036 588.816 117.773C588.716 118.507 588.427 119.307 587.95 120.174L587.587 120.834L579.989 116.654L580.755 115.26L586.53 118.437C586.8 117.947 586.939 117.459 586.947 116.972C586.958 116.481 586.843 116.026 586.603 115.608C586.367 115.192 586.009 114.851 585.528 114.586C585.005 114.299 584.478 114.176 583.946 114.219C583.421 114.26 582.94 114.428 582.503 114.722C582.072 115.014 581.725 115.399 581.462 115.876L580.863 116.965C580.512 117.604 580.325 118.209 580.303 118.781C580.284 119.354 580.413 119.871 580.69 120.331C580.969 120.787 581.38 121.164 581.923 121.463C582.276 121.657 582.625 121.784 582.97 121.845C583.317 121.901 583.653 121.885 583.976 121.798C584.3 121.711 584.599 121.549 584.876 121.312L586.462 122.598C586.036 123.039 585.533 123.354 584.953 123.544C584.38 123.731 583.761 123.782 583.094 123.696C582.434 123.609 581.756 123.374 581.059 122.99ZM590.806 128.344C590.034 127.919 589.454 127.343 589.065 126.616C588.683 125.887 588.521 125.06 588.581 124.137C588.647 123.211 588.964 122.232 589.532 121.199C590.1 120.166 590.759 119.377 591.507 118.832C592.259 118.289 593.046 117.99 593.866 117.933C594.686 117.876 595.48 118.059 596.247 118.481C596.841 118.807 597.263 119.169 597.514 119.567C597.772 119.963 597.929 120.346 597.984 120.717C598.044 121.09 598.075 121.407 598.077 121.668L598.189 121.729L600.794 116.994L602.655 118.017L595.644 130.762L593.827 129.762L594.645 128.275L594.49 128.189C594.266 128.331 593.976 128.474 593.621 128.619C593.27 128.767 592.858 128.837 592.386 128.832C591.913 128.826 591.387 128.663 590.806 128.344ZM592.09 126.983C592.625 127.277 593.155 127.385 593.679 127.306C594.21 127.225 594.71 126.984 595.179 126.583C595.652 126.184 596.074 125.648 596.444 124.976C596.809 124.312 597.033 123.679 597.116 123.076C597.199 122.474 597.132 121.932 596.916 121.451C596.7 120.97 596.32 120.58 595.776 120.281C595.216 119.973 594.67 119.861 594.136 119.946C593.603 120.031 593.103 120.272 592.636 120.669C592.174 121.068 591.769 121.583 591.422 122.214C591.07 122.853 590.85 123.48 590.76 124.095C590.67 124.71 590.73 125.27 590.939 125.774C591.154 126.276 591.538 126.679 592.09 126.983ZM607.656 120.769L602.5 129.759L600.777 128.811L605.609 119.642L607.656 120.769ZM599.56 133.07C599.216 132.881 598.988 132.598 598.875 132.223C598.765 131.844 598.807 131.483 599 131.141C599.183 130.798 599.464 130.574 599.841 130.468C600.22 130.358 600.582 130.398 600.926 130.587C601.262 130.772 601.485 131.054 601.596 131.433C601.708 131.809 601.673 132.168 601.49 132.51C601.36 132.736 601.185 132.912 600.963 133.039C600.749 133.164 600.517 133.232 600.269 133.241C600.021 133.25 599.784 133.193 599.56 133.07Z" fill="black"/>
</svg>
