<svg width="674" height="681" viewBox="0 0 674 681" fill="none" xmlns="http://www.w3.org/2000/svg">
<path d="M331.008 175.319C474.797 146.026 540.18 178.162 540.18 178.162C539.716 178.162 539.279 178.203 538.869 178.275C546.085 180.164 553.406 182.524 560.738 185.368C590.904 197.071 615.154 214.593 629.307 232.985C656.752 255.676 667.649 298.696 671.513 320.071C678.584 355.154 670.518 386.02 647.949 398.196C646.488 398.985 644.99 399.679 643.46 400.286C618.571 434.898 623.599 483.152 640.093 513.559C656.745 544.256 658.498 570.69 603.283 626.115C548.069 681.541 417.482 701.153 180.849 655.96C-35.1777 614.702 -1.03322 467.913 6.55176 442.659C7.87798 419.358 18.7472 391.052 38.2881 364.665C39.948 362.424 41.6409 360.235 43.3633 358.103C84.7117 289.807 195.873 202.851 331.008 175.319Z" fill="#D9DCB9"/>
<path d="M130.01 553.891L123.508 555.483L123.915 455.953L128.918 458.508L130.01 553.891Z" fill="#331832"/>
<path d="M149.226 558.699C149.226 558.699 114.798 559.307 103.321 559.394C102.053 559.403 101.143 557.688 101.143 556.442C101.143 555.195 102.995 553.715 104.262 553.721C115.503 553.779 149.226 554.184 149.226 554.184C150.494 554.184 151.521 555.195 151.521 556.442C151.521 557.689 150.494 558.699 149.226 558.699Z" fill="#331832"/>
<path d="M102.789 562.75C103.209 560.274 105.415 558.699 107.967 558.699C110.52 558.699 113.146 560.355 113.146 562.866C113.146 565.991 109.932 568.191 107.379 568.191C104.826 568.191 102.259 565.876 102.789 562.75Z" fill="#331832"/>
<path d="M139.508 562.75C139.928 560.274 142.134 558.699 144.687 558.699C147.239 558.699 149.865 560.355 149.865 562.866C149.865 565.991 146.651 568.191 144.098 568.191C141.546 568.191 138.978 565.876 139.508 562.75Z" fill="#331832"/>
<path d="M111.943 455.952C111.943 455.952 110.707 464.027 123.419 466.631C136.13 469.235 141.604 455.952 141.604 455.952H111.943Z" fill="#331832"/>
<path d="M151.507 448.645C151.642 433.527 150.964 368.517 129.458 362.851C105.107 356.436 73.8863 344.783 64.7147 365.843C55.5431 386.903 86.2653 451.773 86.2653 451.773C86.2653 451.773 87.9712 457.535 94.1948 458.179C100.418 458.823 177.073 461.082 177.193 458.179C177.27 456.329 162.344 451.734 151.507 448.645Z" fill="#D5BD99"/>
<path d="M234.381 547.069C234.381 547.069 234.153 554.652 239.244 557.067C244.336 559.483 259.324 562.22 253.413 566.786C250.022 569.406 234.869 566.782 230.562 566.551C226.256 566.32 222.11 567.948 219.067 564.942C215.72 561.635 220.101 546.302 220.101 546.302C220.101 546.302 223.712 548.406 227.059 548.5C231.882 548.635 234.381 547.069 234.381 547.069Z" fill="#331832"/>
<path d="M277.06 543.361C277.06 543.361 276.833 550.944 281.924 553.36C287.015 555.775 302.004 558.513 296.093 563.078C292.701 565.698 277.548 563.074 273.242 562.843C268.935 562.612 264.79 564.241 261.747 561.235C258.399 557.927 262.781 542.595 262.781 542.595C262.781 542.595 266.392 544.698 269.739 544.792C274.562 544.928 277.06 543.361 277.06 543.361Z" fill="#331832"/>
<path d="M286.879 534.494C283.067 484.818 282.168 451.299 266.185 429.764C248.691 406.195 201.792 389.526 183.708 388.486C154.218 386.79 140.322 391.107 140.322 391.107C118.186 436.379 152.859 442.385 178.506 443.623C179.353 443.664 180.204 443.711 181.058 443.763C196.586 444.725 224.195 448.605 234.644 463.778C242.919 475.795 248.662 492.664 251.083 536.178C251.548 544.528 258.67 551.004 267.169 550.774C267.169 550.774 288.25 552.361 286.879 534.494Z" fill="#E6CFB0"/>
<path d="M245.023 537.053C245.525 487.238 247.097 461.805 231.895 439.73C222.128 425.548 207.44 414.842 188.239 407.911C174.536 402.965 158.417 399.929 140.334 398.889C110.843 397.193 97.5918 393.69 97.5918 393.69C73.7243 451.641 161.029 439.339 183.758 464.029C193.661 474.787 205.932 495.247 208.353 538.761C208.818 547.111 215.94 553.587 224.439 553.357C224.439 553.357 244.839 555.267 245.023 537.053Z" fill="#E6CFB0"/>
<path d="M244.874 488.125L245.213 488.109C245.198 487.811 243.697 458.193 238.633 447.811C232.225 434.674 213.647 420.963 194.458 415.208L194.359 415.527C213.465 421.257 231.957 434.895 238.327 447.955C243.362 458.277 244.86 487.828 244.874 488.125Z" fill="#020202"/>
<path d="M195.26 344.82C195.26 344.82 198.945 333.521 211.108 329.365C216.006 327.691 238.164 332.172 241.705 336.185C241.705 336.185 236.266 321.797 231.221 310.633C231.221 310.633 238.56 289.803 250.767 306.538C258.159 316.673 277.01 336.272 280.484 343.122C282.935 347.954 284.47 352.074 285.176 355.717C287.038 365.329 283.043 374.546 280.456 377.059C261.476 395.501 195.385 344.9 195.26 344.82Z" fill="#FFB27D"/>
<path d="M250.933 360.529C251.002 360.529 251.072 360.508 251.133 360.465C251.287 360.356 251.321 360.145 251.211 359.994C251.126 359.879 242.747 348.329 242.05 336.167C242.039 335.981 241.883 335.838 241.688 335.848C241.499 335.859 241.354 336.018 241.365 336.204C242.073 348.567 250.568 360.272 250.654 360.389C250.721 360.48 250.826 360.529 250.933 360.529Z" fill="#E9845C"/>
<path d="M165.285 298.329C180.95 292.722 210.492 293.083 227.871 312.87C234.348 320.245 240.325 341.964 231.825 360.018C226.439 371.459 220.849 383.075 215.857 398.166C212.387 408.657 200.77 411.201 187.471 411.201C164.181 411.201 137.717 435.697 94.1038 405.171C86.8934 400.124 93.3748 379.882 103.881 363.129C121.788 334.576 140.912 307.053 165.285 298.329Z" fill="#889782"/>
<path d="M174.692 321.45C164.873 321.45 156.914 319.496 156.914 317.086C156.914 314.675 164.873 312.721 174.692 312.721C184.511 312.721 192.471 314.675 192.471 317.086C192.471 319.496 184.511 321.45 174.692 321.45Z" fill="#331832"/>
<path d="M251.604 312.858C251.604 312.858 267.176 300.718 267.251 293.21C267.327 285.703 261.652 276.058 260.601 280.702C259.549 285.345 259.872 291.644 259.872 291.644C259.872 291.644 255.481 279.886 252.424 281.552C249.367 283.218 254.389 293.113 254.389 293.113C254.389 293.113 250.559 279.216 248.189 281.71C245.819 284.204 248.353 294.379 248.353 294.379C248.353 294.379 247.137 280.314 244.454 283.274C241.77 286.235 245.18 294.78 242.123 296.447C239.065 298.113 228.943 304.996 232.616 313.919L251.604 312.858Z" fill="#FFB27D"/>
<path d="M256.295 287.045C256.295 287.045 248.407 299.072 251.36 307.34C253.623 313.679 243.672 316.712 239.727 313.052C235.781 309.391 232.111 317.976 226.95 308.931C223.414 302.735 256.295 287.045 256.295 287.045Z" fill="#75332F"/>
<path d="M220.663 302.518L226.743 299.526L228.431 297.711L238.357 287.045L232.81 299.719L229.479 307.326L228.54 309.469C227.763 311.243 228.164 315.762 226.007 316.177C222.19 316.911 218.382 311.279 216.376 304.955C216.376 304.955 218.796 304.524 220.663 302.518Z" fill="#FFB27D"/>
<path d="M226.807 299.306C226.784 299.378 226.763 299.452 226.745 299.526C225.578 303.824 229.444 307.34 229.444 307.34L229.48 307.327L232.811 299.72C231.595 298.741 229.792 297.546 228.432 297.711C227.722 297.798 227.132 298.255 226.807 299.306Z" fill="#331832"/>
<path d="M232.909 304.389C226.05 302.044 222.875 293.396 225.817 285.074C228.76 276.752 236.705 271.907 243.564 274.253C250.422 276.598 253.597 285.246 250.655 293.568C247.713 301.89 239.768 306.735 232.909 304.389Z" fill="#FFB27D"/>
<path d="M226.658 287.924C227.597 289.726 229.516 290.534 230.944 289.729C232.372 288.923 232.768 286.809 231.828 285.007C230.888 283.205 228.969 282.397 227.541 283.203C226.113 284.008 225.718 286.122 226.658 287.924Z" fill="#FFB27D"/>
<path d="M238.797 290.942C238.884 290.968 238.982 290.954 239.06 290.897C239.193 290.8 239.221 290.617 239.123 290.486C239.066 290.409 237.897 288.502 235.376 289.207C235.217 289.251 235.12 289.409 235.162 289.567C235.205 289.724 235.362 289.782 235.528 289.776C237.182 289.714 238.594 290.772 238.642 290.835C238.682 290.889 238.737 290.925 238.797 290.942Z" fill="#080435"/>
<path d="M235.361 292.436C235.203 292.84 235.583 293.358 236.209 293.594C236.834 293.83 237.469 293.695 237.627 293.291C237.784 292.887 237.404 292.369 236.779 292.133C236.153 291.897 235.518 292.032 235.361 292.436Z" fill="#080435"/>
<path d="M248.596 295.392C248.678 295.432 248.776 295.434 248.863 295.391C249.01 295.319 249.071 295.142 248.997 294.997C248.953 294.912 248.134 292.836 245.527 293.106C245.363 293.123 245.24 293.262 245.254 293.424C245.268 293.586 245.414 293.671 245.578 293.693C247.218 293.909 248.425 295.19 248.462 295.261C248.492 295.32 248.54 295.364 248.596 295.392Z" fill="#080435"/>
<path d="M244.067 296.031C243.902 296.45 244.276 296.983 244.902 297.221C245.528 297.459 246.169 297.313 246.334 296.894C246.499 296.475 246.125 295.943 245.499 295.704C244.873 295.466 244.232 295.612 244.067 296.031Z" fill="#080435"/>
<path d="M247.859 278.795C247.859 278.795 245.742 283.932 238.788 282.553C231.834 281.174 226.279 282.371 225.508 287.38C224.736 292.388 231.439 309.409 222.238 310.5C213.037 311.59 217.751 301.511 208.647 300.23C199.542 298.948 197.353 288.105 210.132 282.733C218.737 279.116 222.517 259.027 243.749 268.522C269.793 280.17 250.643 293.576 250.643 293.576C250.643 293.576 245.804 284.564 247.859 278.795Z" fill="#75332F"/>
<path d="M220.722 310.672C222.381 310.592 223.624 309.982 224.416 308.86C227.151 304.984 224.094 295.541 221.862 288.646C221.436 287.329 221.033 286.085 220.7 284.975C219.546 281.131 220.6 277.539 223.518 275.368C226.719 272.987 231.189 273.048 235.186 275.525C239.168 277.994 242.464 278.122 244.528 277.793C246.769 277.436 248.046 276.507 248.1 276.468L247.986 276.318C247.935 276.356 242.8 280.025 235.287 275.368C231.222 272.847 226.669 272.791 223.404 275.219C220.465 277.406 219.359 281.165 220.518 285.028C220.852 286.14 221.255 287.385 221.682 288.703C223.902 295.561 226.942 304.953 224.26 308.753C223.504 309.826 222.31 310.409 220.713 310.486L220.722 310.672Z" fill="#916216"/>
<path d="M243.636 292.856C243.823 293.043 243.941 293.196 243.985 293.268C243.29 294.487 242.795 295.767 242.524 297.01C242.442 297.037 242.359 297.071 242.277 297.098C242.481 295.691 242.933 294.229 243.636 292.856ZM243.585 292.808C243.771 292.492 243.968 292.179 244.176 291.877C244.183 291.879 244.183 291.879 244.183 291.879C244.194 291.863 244.2 291.845 244.21 291.835C244.309 291.689 244.414 291.544 244.525 291.402C245.878 289.632 247.509 288.371 249.11 287.819C249.319 287.746 249.524 287.684 249.725 287.634C250.099 287.545 250.465 287.499 250.826 287.492C251.139 287.489 251.449 287.518 251.743 287.574C252.406 287.704 253.004 287.997 253.51 288.457C253.662 288.588 253.806 288.743 253.94 288.908C256.036 291.451 255.303 296.72 252.3 300.659C251.246 302.05 250.018 303.127 248.767 303.791C248.343 304.021 247.915 304.198 247.497 304.326C246.989 304.485 246.491 304.569 246.004 304.578C245.502 304.589 245.035 304.512 244.59 304.364C243.943 304.141 243.376 303.747 242.908 303.187C242.898 303.177 242.894 303.17 242.884 303.16C241.751 301.778 241.451 299.584 241.894 297.244C241.987 296.756 242.109 296.264 242.262 295.775C242.576 294.773 243.019 293.765 243.585 292.808ZM252.549 299.272C254.793 295.703 255.252 291.409 253.488 289.267C253.391 289.152 253.292 289.044 253.19 288.947C252.888 288.66 252.551 288.446 252.172 288.299C252.166 288.297 252.166 288.297 252.16 288.295C252.018 288.239 251.872 288.195 251.715 288.166C251.439 288.096 251.149 288.066 250.836 288.069C250.361 288.082 249.876 288.169 249.38 288.332C247.862 288.831 246.296 290.033 244.99 291.758C244.854 291.939 244.725 292.115 244.601 292.3C244.375 292.616 244.174 292.94 243.985 293.268C243.29 294.487 242.795 295.767 242.524 297.01C242.008 299.308 242.249 301.478 243.339 302.808C243.363 302.835 243.382 302.86 243.409 302.881C244.063 303.628 244.955 304.004 245.99 304.005C246.457 303.997 246.943 303.909 247.433 303.745C247.833 303.612 248.235 303.433 248.639 303.203C249.76 302.571 250.868 301.582 251.83 300.314C252.08 299.985 252.319 299.646 252.534 299.3C252.544 299.29 252.546 299.284 252.549 299.272Z" fill="#764678"/>
<g opacity="0.3">
<path d="M232.656 296.128C229.547 295.018 228.375 290.469 230.037 285.968C231.699 281.466 235.566 278.717 238.674 279.827C241.783 280.937 242.955 285.486 241.293 289.988C239.631 294.489 235.764 297.238 232.656 296.128Z" fill="white"/>
</g>
<g opacity="0.3">
<path d="M244.28 291.727C241.753 295.707 241.427 300.849 243.551 303.211C245.675 305.573 249.445 304.261 251.972 300.28C254.499 296.3 254.826 291.158 252.702 288.796C250.578 286.434 246.807 287.746 244.28 291.727Z" fill="white"/>
</g>
<path d="M230.688 283.614C230.821 283.36 230.973 283.106 231.132 282.854C231.286 282.62 231.445 282.388 231.607 282.169C233.124 280.109 235.099 278.809 237.11 278.578C238.665 278.404 240.052 278.871 241.155 279.924C241.894 280.638 242.438 281.568 242.769 282.628C243.531 284.982 243.303 287.969 242.091 290.663C241.94 290.996 241.777 291.325 241.596 291.648C241.469 291.884 241.329 292.116 241.186 292.34C239.608 294.806 237.426 296.363 235.193 296.625C234.836 296.66 234.489 296.666 234.16 296.637C233.75 296.611 233.357 296.531 232.985 296.404C232.32 296.176 231.701 295.799 231.163 295.27C231.081 295.193 231.001 295.11 230.929 295.022C229.773 293.777 229.169 291.961 229.106 289.963C229.073 288.673 229.264 287.302 229.686 285.96C229.936 285.162 230.27 284.375 230.688 283.614ZM237.078 295.441C238.425 294.767 239.709 293.577 240.697 292.035C240.814 291.855 240.924 291.674 241.022 291.488C241.21 291.166 241.379 290.839 241.532 290.5C242.729 287.873 242.952 284.963 242.195 282.722C241.891 281.788 241.406 280.968 240.749 280.33C240.274 279.879 239.734 279.546 239.146 279.347C238.535 279.136 237.873 279.065 237.183 279.149C236.17 279.266 235.143 279.705 234.189 280.394C233.794 280.679 233.405 281.011 233.042 281.384C233.034 281.389 233.032 281.395 233.03 281.401C232.812 281.609 232.606 281.84 232.411 282.081C232.132 282.421 231.867 282.778 231.619 283.166C231.446 283.44 231.278 283.722 231.128 284.009C230.094 285.948 229.613 288.094 229.691 290.043C229.752 291.838 230.294 293.472 231.319 294.606C231.397 294.695 231.483 294.78 231.569 294.865C232.363 295.615 233.335 296.028 234.409 296.074C234.638 296.085 234.879 296.08 235.119 296.054C235.754 295.98 236.393 295.782 237.014 295.475C237.036 295.468 237.06 295.456 237.078 295.441Z" fill="#764678"/>
<path d="M243.741 294.194C243.643 294.161 243.558 294.095 243.501 294.002C243.468 293.946 242.652 292.7 240.589 292.401C240.349 292.356 240.164 292.137 240.198 291.891C240.233 291.644 240.466 291.473 240.714 291.514C243.221 291.832 244.239 293.464 244.286 293.532C244.413 293.745 244.345 294.024 244.128 294.149C244.007 294.227 243.864 294.237 243.741 294.194Z" fill="#764678"/>
<path d="M239.738 301.52C239.77 301.52 239.801 301.511 239.83 301.493C239.906 301.443 239.927 301.342 239.877 301.267C239.798 301.15 237.911 298.388 234.605 298.166C234.513 298.161 234.435 298.227 234.428 298.317C234.422 298.407 234.491 298.485 234.582 298.491C237.726 298.703 239.581 301.419 239.6 301.446C239.631 301.494 239.684 301.52 239.738 301.52Z" fill="#331832"/>
<path d="M194.88 578.883L193.902 578.797C193.14 578.73 192.569 577.618 192.625 576.314L199.771 411.433L214.166 405.17L197.148 575.566C197.025 577.516 196.022 578.983 194.88 578.883Z" fill="#331832"/>
<path d="M397.631 574.047L396.651 574.106C395.887 574.153 395.153 573.138 395.009 571.84L376.914 407.772L390.19 399.455L399.366 570.433C399.543 572.379 398.775 573.978 397.631 574.047Z" fill="#331832"/>
<path d="M300.266 437.555C226.406 437.555 166.53 427.064 166.53 414.121C166.53 401.179 226.406 390.687 300.266 390.687C374.127 390.687 434.003 401.179 434.003 414.121C434.003 427.064 374.127 437.555 300.266 437.555Z" fill="#D5BD99"/>
<path d="M166.53 403.315H434.003V414.121H166.53V403.315Z" fill="#D5BD99"/>
<path d="M300.266 426.749C226.406 426.749 166.53 416.257 166.53 403.315C166.53 390.373 226.406 379.881 300.266 379.881C374.127 379.881 434.003 390.373 434.003 403.315C434.003 416.257 374.127 426.749 300.266 426.749Z" fill="#E6CFB0"/>
<path d="M282.826 348.188C282.826 348.188 294.14 375.283 272.853 381.104C254.851 386.026 228.364 367.383 228.364 367.383L245.326 365.838L282.826 348.188Z" fill="#FFB27D"/>
<path d="M239.174 334.472C239.174 334.472 233.456 318.09 229.297 314.631L228.36 367.382C228.36 367.382 239.31 349.941 239.174 334.472Z" fill="#889782"/>
<path d="M242.913 382.725C242.913 382.725 264.56 381.219 270.248 387.214C275.935 393.208 278.592 405.094 274.265 402.115C269.937 399.136 265.476 393.826 265.476 393.826C265.476 393.826 270.751 406.484 267.039 407.357C263.326 408.231 259.957 396.617 259.957 396.617C259.957 396.617 267.286 410.592 263.508 410.301C259.729 410.009 254.144 399.973 254.144 399.973C254.144 399.973 263.706 412.188 259.325 411.748C254.944 411.308 251.286 401.95 247.574 402.823C243.861 403.697 227.134 398.725 221.248 395.655L242.913 382.725Z" fill="#FFB27D"/>
<path d="M265.232 393.901L265.725 393.75C265.689 393.636 264.8 390.951 260.923 389.598L260.75 390.077C264.37 391.34 265.223 393.876 265.232 393.901Z" fill="#F69B6E"/>
<path d="M259.746 396.767L260.162 396.466C260.039 396.301 257.112 392.428 253.809 392.021L253.745 392.525C256.829 392.905 259.717 396.729 259.746 396.767Z" fill="#F69B6E"/>
<path d="M253.893 400.036L254.393 399.908C254.357 399.773 253.467 396.588 249.013 395.257L248.862 395.743C253.027 396.988 253.885 400.006 253.893 400.036Z" fill="#F69B6E"/>
<path d="M236.79 399.972L242.912 382.725C215.945 374.413 205.966 359.855 197.042 342.324C192.349 333.103 190.647 319.577 190.661 319.456C190.661 319.456 188.849 315.522 181.223 314.983C167.767 314.031 164.156 317.358 164.156 317.358C164.066 318.044 162.047 334.365 170.518 352.692C175.478 363.425 182.987 372.719 192.837 380.318C204.748 389.506 218.476 396.049 236.79 399.972Z" fill="#FFB27D"/>
<path d="M189.454 369.486C189.988 369.486 190.503 369.37 190.974 369.126C193.12 368.015 193.55 364.653 191.932 361.632C191.16 360.19 190.04 359.033 188.78 358.374C187.474 357.692 186.17 357.619 185.107 358.169C182.961 359.281 182.531 362.643 184.148 365.664C185.411 368.022 187.554 369.486 189.454 369.486ZM186.644 358.505C187.213 358.505 187.826 358.668 188.446 358.992C189.582 359.586 190.596 360.639 191.302 361.958C192.737 364.637 192.441 367.575 190.642 368.507C188.845 369.438 186.213 368.017 184.778 365.337C183.343 362.658 183.64 359.721 185.438 358.789C185.804 358.599 186.212 358.505 186.644 358.505Z" fill="#E9845C"/>
<path d="M463.956 329.468L419.993 297.481L412.195 305.51C412.195 305.51 465.861 363.342 469.068 363.306C476.252 363.227 488.671 343.547 488.671 343.547L463.956 329.468Z" fill="#F29076"/>
<path d="M572.859 640.052C572.859 640.052 573.966 641.059 572.871 643.588C571.776 646.116 561.928 647.584 553.206 647.118C544.484 646.65 531.907 644.607 530.176 642.833C528.446 641.058 530.45 638.548 530.45 638.548L572.859 640.052Z" fill="#452E2F"/>
<path d="M572.855 640.052C572.166 637.385 569.807 627.375 558.269 626.361L554.858 616.949L534.18 620.432C534.18 620.432 528.934 632.175 530.446 638.547C531.959 644.919 573.656 643.158 572.855 640.052Z" fill="#674546"/>
<path d="M425.211 642.766C425.211 642.766 423.325 643.8 423.28 645.102C423.235 646.404 424.741 647.399 424.741 647.399C424.741 647.399 455.688 648.285 460.035 647.781C464.382 647.276 473.823 645.797 473.823 645.797C473.823 645.797 473.564 647.588 475.559 647.655C477.556 647.723 484.595 646.971 487.107 646.248C489.62 645.525 485.78 640.922 485.78 640.922C485.78 640.922 470.802 634.763 425.211 642.766Z" fill="#452E2F"/>
<path d="M463.089 622.599C463.089 622.599 460.042 628.311 454.313 629.095C448.584 629.879 436.198 629.785 433.404 629.69C430.61 629.595 423.558 637.18 425.21 642.766C425.21 642.766 449.996 645.152 461.932 642.882C467.099 641.899 479.026 639.713 485.779 640.92C485.779 640.92 490.288 632.742 484.932 622.219L463.089 622.599Z" fill="#674546"/>
<path d="M438.187 629.752L444.718 643.838" stroke="#0D0000" stroke-width="0.75" stroke-miterlimit="10"/>
<path d="M450.684 629.436C450.684 629.436 455.238 634.032 460.538 632.9C465.838 631.768 471.606 626.776 472.284 622.438" stroke="#0D0000" stroke-width="0.75" stroke-miterlimit="10"/>
<path d="M487.14 628.493C487.14 628.493 476.495 633.048 476.715 640.746" stroke="#0D0000" stroke-width="0.75" stroke-miterlimit="10"/>
<path d="M494.793 269.588C488.907 268.971 463.746 318.802 463.746 318.802C463.746 318.802 479.19 338.435 485.144 339.156C491.098 339.878 498.486 269.976 494.793 269.588Z" fill="#D5BD99"/>
<path d="M462.712 313.656C462.302 314.737 460.851 319.577 460.851 319.577C460.851 319.577 456.352 321.654 456.288 323.872C456.224 326.089 482.199 343.133 484.368 342.572C488.919 341.395 488.451 335.305 488.503 333.432C488.519 332.926 463.85 310.662 462.712 313.656Z" fill="#E6CFB0"/>
<path d="M586.496 291.07C586.496 291.07 613.415 330.483 615.733 336.852C619.141 346.218 577.83 382.765 577.83 382.765L574.264 372.516L594.419 341.464L569.17 306.319L586.496 291.07Z" fill="#F29076"/>
<path d="M558.039 392.948C558.039 392.948 565.599 403.11 565.55 430.931C565.532 440.765 565.083 585.054 564.574 590.964C564.066 596.873 556.045 603.788 556.045 603.788L554.861 616.95C554.861 616.95 540.253 622.744 532.362 619.981L530.879 607.599C530.879 607.599 531.27 604.377 528.183 601.658C525.097 598.941 522.736 484.856 522.258 477.518C521.78 470.179 520.22 443.343 520.22 443.343C495.495 590.619 495.203 593.482 495.615 600.254C495.877 604.559 487.603 609.048 487.603 609.048L484.933 622.219C484.933 622.219 472.82 625.622 462.292 621.963L462.293 611.317C462.293 611.317 456.549 605.886 455.621 602.112C454.693 598.339 486.765 389.533 486.765 389.533L558.039 392.948Z" fill="#D5BD99"/>
<path d="M501.584 436.72C501.584 436.72 520.421 445.42 541.12 445.896" stroke="#0D0000" stroke-width="0.75" stroke-miterlimit="10"/>
<path d="M506.714 449.763L519.903 443.379L530.487 451.684" stroke="#0D0000" stroke-width="0.75" stroke-miterlimit="10"/>
<path d="M522.545 260.603C522.545 260.603 498.046 267.712 494.794 269.587C491.543 271.463 482.357 373.104 480.924 381.069C479.489 389.034 499.264 397.387 505.511 398.291C511.758 399.195 527.114 399.736 535.29 396.893L558.04 392.948C558.04 392.948 566.374 382.434 567.056 378.78C567.738 375.125 566.762 274.867 565.128 271.865C563.496 268.864 540.944 261.805 540.944 261.805L522.545 260.603Z" fill="#D5BD99"/>
<path d="M543.834 261.862C543.834 261.862 564.396 264.271 571.007 266.894C577.618 269.518 604.261 316.044 604.261 316.044C606.444 314.073 587.709 337.107 580.153 333.745C577.475 332.554 542.589 287.305 543.834 261.862Z" fill="#D5BD99"/>
<path d="M527.444 287.663C512.166 377.21 511.047 368.696 520.213 443.344" stroke="#0D0000" stroke-width="0.75" stroke-miterlimit="10"/>
<path d="M542.038 385.453C542.038 385.453 540.856 382.113 539.81 381.955C538.765 381.797 532.901 396.308 530.048 395.867C527.196 395.425 523.251 391.281 523.251 391.281" stroke="#0D0000" stroke-width="0.75" stroke-miterlimit="10"/>
<path d="M496.631 218.337L531.765 218.165C531.765 218.165 523.918 210.591 513.272 210.524C502.626 210.458 496.631 218.337 496.631 218.337Z" fill="#070019"/>
<path d="M520.569 253.588L520.379 262.232L523.554 269.85L513.236 275.241C513.236 275.241 510.993 264.577 511.668 263.683C512.342 262.788 517.392 252.872 517.392 252.872L520.569 253.588Z" fill="#E6CFB0"/>
<path d="M520.374 262.232L520.857 240.272L538.274 240.655L538.433 261.083L527.446 287.663L520.374 262.232Z" fill="#F29076"/>
<path d="M533.21 273.735C533.21 273.735 526.829 276.843 521.088 273.735L527.454 287.663L533.21 273.735Z" fill="#F4F4F4"/>
<path d="M520.856 240.272L520.373 262.233C520.373 262.233 536.49 266.027 535.856 244.369L520.856 240.272Z" fill="#D8755A"/>
<path d="M509.508 231.619C509.508 231.619 501.4 224.479 502.024 218.015C502.36 214.534 511.584 207.62 511.584 207.62C511.584 207.62 538.15 203.046 540.526 206.787C542.248 206.292 544.543 205.945 545.953 208.682C546.823 210.372 548.754 242.867 536.785 242.503L509.508 231.619Z" fill="#75332F"/>
<path d="M512.762 230.492C512.762 230.492 506.087 227.04 505.155 233.054C504.223 239.067 507.621 241.813 513.272 240.104L512.762 230.492Z" fill="#E38066"/>
<path d="M507.863 228.396C507.503 235.183 508.201 253.513 520.389 255.267C535.747 257.476 539.281 233.934 539.538 232.323C539.621 231.786 539.707 231.217 539.78 230.629C540.478 225.265 540.161 216.713 529.302 212.825C521.556 210.059 510.423 215.786 508.271 224.377C508.271 224.377 507.994 225.952 507.863 228.396Z" fill="#F29076"/>
<path d="M510.276 209.807C510.276 209.807 503.831 222.053 507.894 223.213C511.924 224.364 537.261 213.084 537.261 213.084C537.261 213.084 524.736 200.376 510.276 209.807Z" fill="#75332F"/>
<path d="M538.001 232.644C538.001 232.644 545.152 230.334 545.084 236.418C545.017 242.503 541.214 244.654 535.92 242.042L538.001 232.644Z" fill="#F29076"/>
<path d="M543.835 237.502C543.835 237.502 542.876 235.714 541.803 235.927C540.73 236.14 538.55 238.173 537.723 239.663" stroke="#0D0000" stroke-width="0.5" stroke-miterlimit="10"/>
<path d="M535.951 211.927C535.951 211.927 528.637 216.752 529.605 221.524C530.133 224.123 536.002 228.288 536.002 228.288C536.002 228.288 536.533 233.991 538.183 234.07C539.833 234.149 541.035 230.166 541.604 226.031C542.173 221.899 547.449 214.536 535.951 211.927Z" fill="#75332F"/>
<path d="M516.387 234.152C516.31 235.116 515.821 235.865 515.294 235.822C514.768 235.78 514.404 234.964 514.482 234C514.559 233.035 515.048 232.287 515.573 232.329C516.101 232.372 516.465 233.187 516.387 234.152Z" fill="#0D0000"/>
<path d="M523.904 234.773C523.821 235.737 524.182 236.555 524.707 236.6C525.233 236.644 525.725 235.9 525.808 234.935C525.89 233.97 525.53 233.152 525.004 233.108C524.478 233.063 523.985 233.808 523.904 234.773Z" fill="#0D0000"/>
<path d="M510.825 228.177C510.794 226.925 519.012 227.151 518.584 228.991C518.155 230.832 510.865 229.811 510.825 228.177Z" fill="#75332F"/>
<path d="M531.338 229.872C531.572 228.643 523.429 227.516 523.549 229.403C523.671 231.288 531.03 231.477 531.338 229.872Z" fill="#75332F"/>
<path d="M519.699 251.986C519.671 251.535 522.242 251.805 522.064 252.19C521.886 252.574 519.734 252.519 519.699 251.986Z" fill="#E08067"/>
<path d="M517.999 247.755C520.105 250.834 524.499 247.755 526.999 247.98" stroke="#0D0000" stroke-width="0.5" stroke-miterlimit="10"/>
<path d="M508.867 240.346C508.867 239.24 514.487 239.399 514.468 240.64C514.447 241.88 508.866 242.066 508.867 240.346Z" fill="#E88064"/>
<path d="M533.204 241.951C533.32 240.85 527.713 240.421 527.604 241.657C527.494 242.894 533.025 243.661 533.204 241.951Z" fill="#E88064"/>
<path d="M519.973 234.047C519.973 234.047 520.762 240.055 517.151 240.596C517.151 240.596 516.892 242.556 519.959 242.718" stroke="#0D0000" stroke-width="0.5" stroke-miterlimit="10"/>
<path d="M538.369 252.524C538.369 252.524 545.61 254.655 546.244 255.431C546.878 256.206 548.305 263.972 548.621 264.923C548.938 265.873 541.899 276.332 541.899 276.332L533.206 270.242L538.436 261.083L538.369 252.524Z" fill="#E6CFB0"/>
<path d="M533.204 270.242L527.446 287.663L538.433 273.905L533.204 270.242Z" fill="#674546"/>
<path d="M522.6 270.242L527.444 287.663L517.142 273.174L522.6 270.242Z" fill="#674546"/>
<path d="M505.226 210.215C505.226 210.215 506.87 202.17 508.516 200.11C510.163 198.052 519.719 195.933 523.956 196C527.8 196.06 545.032 202.697 546.315 207.356C547.093 210.184 546.271 221.542 546.628 219.916L529.092 218.125C529.092 218.125 520.229 208.958 505.226 210.215Z" fill="#D5BD99"/>
<path d="M531.766 218.166C531.766 218.166 533.693 209.336 533.563 208.208C533.433 207.08 528.435 196.067 523.952 196.001C520.065 195.943 514.906 200.163 512.89 202.216C511.743 203.385 511.624 211.443 511.624 211.443L531.766 218.166Z" fill="#E6CFB0"/>
<path d="M496.635 218.337C496.635 218.337 492.604 210.525 505.954 207.083C512.434 205.413 528.829 208.921 532.647 218.179C532.647 218.179 528.9 218.935 527.28 218.099C520.76 214.739 508.958 208.972 496.635 218.337Z" fill="#674546"/>
<path d="M558.037 392.948C558.037 392.948 509.723 400.44 486.764 389.534L485.536 403.824C485.536 403.824 531.376 420.464 562.483 403.824C562.483 403.824 561.942 396.809 558.037 392.948Z" fill="#674546"/>
<path d="M545.298 383.792L550.441 400.3L550.083 402.406L552.358 403.313L553.155 407.065L543.968 410.082L542.366 406.82L543.425 405.05L541.229 403.169L535.283 386.91C535.285 386.913 538.044 383.075 545.298 383.792Z" fill="#DE6B5D"/>
<path d="M545.816 385.453C544.394 385.64 543.486 387.062 543.912 388.431L546.679 397.312C547.059 398.53 548.354 399.21 549.573 398.83L549.948 398.713L545.816 385.453Z" fill="#CD6356"/>
<path d="M536.016 388.908C537.378 388.483 538.835 389.208 539.318 390.552L542.088 398.262C542.535 399.508 542.001 400.894 540.833 401.516L540.66 401.609L536.016 388.908Z" fill="#CD6356"/>
<path d="M542.415 388.276L545.941 398.519C546.187 399.232 545.794 400.008 545.073 400.232L545.052 400.239C544.36 400.456 543.622 400.08 543.386 399.394L539.88 389.144C539.636 388.43 540.028 387.657 540.748 387.433C541.441 387.218 542.179 387.592 542.415 388.276Z" fill="#CD6356"/>
<path d="M552.721 405.029L543.084 408.286L543.394 408.918L552.917 405.951L552.721 405.029Z" fill="white"/>
<path d="M547.163 386.203L548.505 390.126C548.714 390.737 549.379 391.064 549.991 390.854L552.772 389.903C553.383 389.693 553.71 389.028 553.501 388.416L552.159 384.494C554.604 384.819 556.744 386.651 557.235 389.351C557.706 391.939 556.339 394.596 553.965 395.729C550.695 397.289 546.899 395.627 545.761 392.301C545.006 390.095 545.628 387.756 547.163 386.203Z" fill="#D6D7D9"/>
<path d="M550.132 394.022L554.593 392.496L560.852 410.792L556.392 412.318L550.132 394.022Z" fill="#D6D7D9"/>
<path d="M538.638 406.991C538.638 406.991 539.431 409.743 540.441 413.228C541.979 418.528 544.071 425.522 544.756 427.132C545.898 429.811 564.65 435.229 565.899 432.2C566.753 430.109 566.135 414.561 564.128 407.243C563.239 403.998 562.398 401.366 561.868 400.381L538.638 406.991Z" fill="#674546"/>
<path d="M538.638 406.991C538.638 406.991 539.431 409.743 540.441 413.228C547.58 412.543 557.951 409.335 564.128 407.244C563.239 403.999 562.398 401.368 561.868 400.383L538.638 406.991Z" fill="#452E2F"/>
<path d="M500.175 393.837L496.134 408.918L492.568 406.973L496.372 392.799L500.175 393.837Z" fill="#452E2F"/>
<path d="M509.92 392.799L531.401 393.837V414.828L507.5 413.228L509.92 392.799ZM528.223 410.657V396.32L513.297 395.867L512.52 409.591L528.223 410.657Z" fill="#D6D7D9"/>
<path d="M509.444 391.343C506.671 388.055 506.249 394.547 502.498 393.836C498.748 393.126 496.371 388.786 496.371 388.786" stroke="#0D0000" stroke-width="0.75" stroke-miterlimit="10"/>
<path d="M571.296 368.597C571.296 368.597 568.852 357.521 567.481 357.144C566.112 356.768 566.053 369.485 566.053 369.485L571.296 368.597Z" fill="#F29076"/>
<path d="M569.45 385.904C571.687 386.905 577.831 382.765 577.831 382.765L574.265 372.516C574.265 372.516 568.768 365.058 567.635 364.341C566.503 363.625 555.884 365.673 555.118 366.942C554.353 368.211 564.361 368.722 564.361 368.722C564.361 368.722 553.474 372.373 553.989 373.948C554.504 375.522 563.476 373.294 563.476 373.294C563.476 373.294 558.261 376.989 558.926 378.039C559.591 379.088 565.447 376.331 565.447 376.331C565.447 376.331 564.462 383.673 569.45 385.904Z" fill="#F29076"/>
<path d="M594.417 341.464L599.171 336.852" stroke="#0D0000" stroke-width="0.75" stroke-miterlimit="10"/>
<path d="M566.741 316.638C566.741 316.638 562.653 304.461 561.461 275.242" stroke="#0D0000" stroke-width="0.75" stroke-miterlimit="10"/>
<path d="M551.836 295.938C551.836 295.938 560.392 310.477 565.897 313.52" stroke="#0D0000" stroke-width="0.75" stroke-miterlimit="10"/>
<path d="M583.729 282.535C580.725 282.683 572.947 289.724 572.471 291.07C571.996 292.417 575.799 294.945 576.512 295.94C577.225 296.934 586.258 296.372 587.209 295.94C588.159 295.507 590.535 292.005 590.299 291.07C589.902 289.499 584.435 282.499 583.729 282.535Z" fill="#E6CFB0"/>
<path d="M607.626 312.684C608.005 313.776 609.316 318.656 609.316 318.656C609.316 318.656 613.753 320.862 613.753 323.081C613.753 325.299 587.013 340.243 584.859 339.619C580.345 338.312 577.541 333.623 577.544 331.75C577.545 331.243 606.576 309.658 607.626 312.684Z" fill="#E6CFB0"/>
<path d="M497.71 331.191L543.042 369.596" stroke="#0D0000" stroke-width="0.75" stroke-miterlimit="10"/>
<path d="M501.728 352.27L514.312 369.07" stroke="#0D0000" stroke-width="0.75" stroke-miterlimit="10"/>
<path d="M492.272 280.699C492.272 280.699 484.259 327.027 485.142 339.157" stroke="#0D0000" stroke-width="0.75" stroke-miterlimit="10"/>
<path d="M482.228 299.311C481.891 307.439 483.378 315.637 486.55 323.128" stroke="#0D0000" stroke-width="0.75" stroke-miterlimit="10"/>
<path d="M402.012 299.654C402.012 299.654 403.087 306.64 405.44 307.764C410.574 310.214 416.698 310.542 416.698 310.542L424.222 300.783C424.222 300.783 413.936 290.927 410.808 288.45L402.012 299.654Z" fill="#F29076"/>
<path d="M414.145 266.557L429.417 269.634L432.507 267.537L434.293 257.098C434.293 257.098 436.336 258.013 437.232 260.166C438.127 262.321 440.324 267.807 438.466 272.146C436.606 276.479 424.212 282.883 421.683 284.421C419.155 285.96 405.947 313.429 403.869 317.49C401.79 321.558 398.236 322.175 395.689 320.806C393.142 319.438 392.179 315.397 393.782 313.13C395.382 310.867 411.245 286.683 413.118 281.301C414.989 275.916 414.145 266.557 414.145 266.557ZM396.596 318.622C398.025 319.539 399.929 319.122 400.846 317.693C401.762 316.264 401.346 314.36 399.917 313.444C398.488 312.527 396.584 312.944 395.667 314.373C394.751 315.802 395.167 317.707 396.596 318.622Z" fill="#9FA0A1"/>
<path d="M419.857 259.688C419.262 261.722 416.901 267.111 416.901 267.111L423.058 268.353L425.559 268.858L427.765 256.596C427.765 256.596 426.503 256.472 424.977 256.632C422.96 256.841 420.483 257.544 419.857 259.688Z" fill="#B8B9BA"/>
<path d="M416.91 286.5L404.035 310.597C403.559 311.489 402.435 311.803 401.566 311.288L400.759 310.812C399.921 310.317 399.638 309.238 400.126 308.395L413.808 284.773C414.303 283.92 415.399 283.633 416.248 284.135C417.066 284.619 417.359 285.661 416.91 286.5Z" fill="#858687"/>
<path d="M424.976 256.632L423.058 268.354L425.559 268.86L427.765 256.598C427.765 256.598 426.501 256.472 424.976 256.632Z" fill="white"/>
<path d="M425.538 271.341L424.64 276.051L416.813 274.547L417.861 269.994L425.538 271.341Z" fill="#B8B9BA"/>
<path d="M424.237 271.81L423.41 275.094L421.703 274.882L422.483 271.39L424.237 271.81Z" fill="#929394"/>
<path d="M409.517 284.948C410.516 285.048 415.611 287.856 413.692 290.876C413.1 291.806 409.883 290.987 409.883 290.987C409.883 290.987 412.185 293.058 411.473 294.551C410.761 296.045 408.461 294.266 408.461 294.266C408.461 294.266 411.052 296.476 410.3 297.869C409.606 299.151 406.635 297.596 406.635 297.596C406.635 297.596 409.379 300.21 408.52 301.459C407.662 302.709 402.014 299.655 402.014 299.655C400.983 298.14 400.649 295.658 401.899 294.32C402.244 293.951 402.657 293.646 402.948 293.235C403.686 292.197 403.527 290.679 404.373 289.727C404.836 289.204 405.543 288.932 405.963 288.373C406.404 287.782 407.29 285.1 409.517 284.948Z" fill="#E07E64"/>
<path d="M419.494 289.943C419.312 289.731 416.703 286.477 415.9 286.066C415.097 285.655 411.488 287.954 410.83 288.747C410.173 289.54 410.749 293.427 411.461 294.196C412.172 294.965 414.511 293.086 414.283 290.56C414.283 290.56 414.378 298.763 416.425 300.496C418.472 302.231 422.075 302.024 424.222 300.783C424.222 300.783 421.838 292.685 419.494 289.943Z" fill="#F29076"/>
<path d="M558.269 626.363C558.269 626.363 541.068 625.291 535.757 631.92" stroke="#0D0000" stroke-width="0.75" stroke-miterlimit="10"/>
<path d="M463.326 610.978C463.326 610.978 468.946 613.246 478.792 610.978" stroke="#0D0000" stroke-width="0.75" stroke-miterlimit="10"/>
<path d="M557.077 603.449C557.077 603.449 550.384 608.616 536.598 607.903" stroke="#0D0000" stroke-width="0.75" stroke-miterlimit="10"/>
<path d="M548.776 512.669C548.776 512.669 546.384 511.315 540.951 511.15C535.519 510.986 533.491 513.131 533.491 513.131C533.491 513.131 534.593 520.606 541.418 520.728C548.243 520.851 548.56 513.443 548.776 512.669Z" fill="#E6CFB0"/>
<path d="M490.78 511.91C490.78 511.91 488.638 510.109 483.317 508.883C477.995 507.656 475.66 509.371 475.66 509.371C475.66 509.371 475.564 516.946 482.264 518.403C488.963 519.86 490.444 512.63 490.78 511.91Z" fill="#E6CFB0"/>
<path d="M342.993 210.921C334.744 229.411 318.992 225.857 313.481 221.766C288.947 243.635 266.724 223.545 263.346 210.567C246.457 217.323 242.545 199.545 248.057 193.5C230.989 189.518 236.501 171.988 245.745 170.744C239.488 158.797 248.353 152.965 253.568 151.543C253.425 137.178 268.324 135.365 272.768 140.165C281.124 122.209 295.051 130.326 299.791 136.963C317.748 111.008 337.837 133.942 336.415 143.541C341.819 142.972 343.882 148.282 344.237 151.008C362.727 138.563 377.305 163.63 365.927 174.653C381.394 197.587 357.927 214.477 342.993 210.921Z" fill="white"/>
<path d="M264.731 232.379C265.62 235.934 261.176 241.623 256.375 241.623C251.575 241.623 247.664 237.606 247.664 233.09C247.664 228.573 250.161 225.089 254.775 225.089C259.39 225.089 264.731 227.862 264.731 232.379Z" fill="white"/>
<path d="M247.84 250.157C248.196 251.935 246.028 254.601 243.573 254.601C241.119 254.601 239.484 252.121 239.484 250.157C239.484 248.193 240.551 246.245 243.573 246.601C246.062 246.601 248.018 248.379 247.84 250.157Z" fill="white"/>
<path d="M289.194 153.998V139.452H294.378C295.51 139.452 296.448 139.658 297.191 140.07C297.934 140.482 298.491 141.045 298.86 141.76C299.229 142.471 299.414 143.271 299.414 144.161C299.414 145.056 299.227 145.861 298.853 146.576C298.483 147.286 297.925 147.849 297.177 148.266C296.433 148.678 295.498 148.884 294.371 148.884H290.806V147.023H294.172C294.887 147.023 295.467 146.9 295.912 146.654C296.358 146.403 296.684 146.062 296.893 145.631C297.101 145.2 297.205 144.71 297.205 144.161C297.205 143.612 297.101 143.124 296.893 142.698C296.684 142.272 296.355 141.938 295.905 141.696C295.46 141.455 294.873 141.334 294.144 141.334H291.388V153.998H289.194ZM304.893 154.239C304.202 154.239 303.577 154.111 303.018 153.856C302.46 153.595 302.017 153.219 301.69 152.726C301.368 152.234 301.207 151.63 301.207 150.915C301.207 150.3 301.326 149.793 301.562 149.395C301.799 148.998 302.119 148.683 302.521 148.451C302.924 148.219 303.373 148.043 303.871 147.925C304.368 147.807 304.874 147.717 305.39 147.655C306.044 147.579 306.574 147.518 306.981 147.471C307.389 147.418 307.684 147.336 307.869 147.222C308.054 147.108 308.146 146.924 308.146 146.668V146.618C308.146 145.998 307.971 145.517 307.621 145.177C307.275 144.836 306.759 144.665 306.072 144.665C305.357 144.665 304.794 144.824 304.382 145.141C303.975 145.454 303.693 145.802 303.537 146.185L301.541 145.731C301.778 145.068 302.123 144.533 302.578 144.125C303.037 143.713 303.565 143.415 304.162 143.231C304.758 143.041 305.386 142.946 306.044 142.946C306.479 142.946 306.941 142.999 307.429 143.103C307.921 143.202 308.381 143.387 308.807 143.657C309.238 143.927 309.59 144.312 309.865 144.814C310.14 145.311 310.277 145.958 310.277 146.753V153.998H308.203V152.506H308.118C307.98 152.781 307.774 153.051 307.5 153.316C307.225 153.581 306.872 153.801 306.442 153.976C306.011 154.151 305.495 154.239 304.893 154.239ZM305.355 152.534C305.942 152.534 306.444 152.418 306.861 152.186C307.282 151.954 307.602 151.651 307.819 151.277C308.042 150.899 308.153 150.494 308.153 150.063V148.657C308.077 148.732 307.931 148.803 307.713 148.87C307.5 148.931 307.256 148.986 306.981 149.033C306.707 149.076 306.439 149.116 306.179 149.154C305.918 149.187 305.701 149.215 305.525 149.239C305.113 149.291 304.737 149.379 304.396 149.502C304.06 149.625 303.79 149.802 303.586 150.034C303.388 150.262 303.288 150.565 303.288 150.944C303.288 151.469 303.482 151.867 303.871 152.137C304.259 152.402 304.754 152.534 305.355 152.534ZM321.28 145.752L319.355 146.093C319.275 145.847 319.147 145.612 318.972 145.39C318.801 145.167 318.569 144.985 318.276 144.843C317.982 144.701 317.615 144.63 317.175 144.63C316.574 144.63 316.072 144.765 315.669 145.034C315.267 145.3 315.066 145.643 315.066 146.064C315.066 146.429 315.2 146.722 315.47 146.945C315.74 147.168 316.176 147.35 316.777 147.492L318.51 147.89C319.514 148.122 320.262 148.479 320.754 148.962C321.247 149.445 321.493 150.072 321.493 150.844C321.493 151.498 321.304 152.08 320.925 152.591C320.551 153.098 320.028 153.496 319.355 153.784C318.688 154.073 317.914 154.218 317.033 154.218C315.811 154.218 314.815 153.957 314.043 153.436C313.271 152.911 312.798 152.165 312.622 151.199L314.675 150.887C314.803 151.422 315.066 151.827 315.463 152.101C315.861 152.371 316.379 152.506 317.019 152.506C317.715 152.506 318.271 152.362 318.688 152.073C319.104 151.779 319.313 151.422 319.313 151C319.313 150.659 319.185 150.373 318.929 150.141C318.678 149.909 318.292 149.734 317.771 149.615L315.925 149.211C314.907 148.979 314.154 148.609 313.666 148.103C313.183 147.596 312.942 146.954 312.942 146.178C312.942 145.534 313.122 144.971 313.482 144.488C313.842 144.005 314.339 143.628 314.973 143.358C315.608 143.084 316.334 142.946 317.154 142.946C318.333 142.946 319.261 143.202 319.938 143.713C320.615 144.22 321.062 144.9 321.28 145.752ZM265.617 178.211C264.736 178.211 263.95 177.986 263.259 177.536C262.572 177.081 262.033 176.435 261.64 175.597C261.251 174.754 261.057 173.743 261.057 172.564C261.057 171.385 261.254 170.377 261.647 169.539C262.044 168.701 262.589 168.059 263.28 167.614C263.971 167.169 264.755 166.946 265.631 166.946C266.308 166.946 266.853 167.06 267.265 167.287C267.681 167.51 268.003 167.77 268.23 168.069C268.462 168.367 268.642 168.63 268.77 168.857H268.898V163.452H271.022V177.998H268.948V176.3H268.77C268.642 176.532 268.458 176.797 268.216 177.096C267.98 177.394 267.653 177.654 267.236 177.877C266.819 178.099 266.28 178.211 265.617 178.211ZM266.086 176.4C266.696 176.4 267.212 176.239 267.634 175.917C268.06 175.59 268.382 175.138 268.6 174.56C268.822 173.982 268.934 173.31 268.934 172.543C268.934 171.785 268.825 171.123 268.607 170.554C268.389 169.986 268.069 169.543 267.648 169.226C267.227 168.909 266.706 168.75 266.086 168.75C265.446 168.75 264.914 168.916 264.488 169.248C264.061 169.579 263.739 170.031 263.522 170.604C263.309 171.177 263.202 171.823 263.202 172.543C263.202 173.272 263.311 173.928 263.529 174.51C263.747 175.093 264.069 175.554 264.495 175.895C264.926 176.231 265.456 176.4 266.086 176.4ZM275.665 163.452V168.63H273.903V163.452H275.665ZM280.532 171.52V177.998H278.408V163.452H280.503V168.864H280.638C280.894 168.277 281.284 167.811 281.81 167.465C282.336 167.119 283.022 166.946 283.87 166.946C284.618 166.946 285.271 167.1 285.83 167.408C286.393 167.716 286.829 168.175 287.137 168.786C287.449 169.392 287.605 170.15 287.605 171.059V177.998H285.482V171.314C285.482 170.514 285.276 169.894 284.864 169.454C284.452 169.008 283.879 168.786 283.145 168.786C282.643 168.786 282.194 168.892 281.796 169.106C281.403 169.319 281.093 169.631 280.865 170.043C280.643 170.45 280.532 170.943 280.532 171.52ZM297.35 173.473V167.088H299.48V177.998H297.392V176.108H297.279C297.028 176.691 296.625 177.176 296.071 177.564C295.522 177.948 294.838 178.14 294.019 178.14C293.318 178.14 292.698 177.986 292.158 177.678C291.623 177.365 291.202 176.904 290.894 176.293C290.591 175.682 290.439 174.927 290.439 174.027V167.088H292.563V173.772C292.563 174.515 292.769 175.107 293.181 175.547C293.593 175.988 294.128 176.208 294.786 176.208C295.184 176.208 295.579 176.108 295.972 175.909C296.37 175.711 296.699 175.41 296.959 175.008C297.224 174.605 297.355 174.094 297.35 173.473ZM302.334 177.998V167.088H304.372V168.864H304.507C304.734 168.263 305.106 167.794 305.622 167.458C306.138 167.117 306.756 166.946 307.476 166.946C308.205 166.946 308.816 167.117 309.308 167.458C309.805 167.799 310.172 168.267 310.409 168.864H310.523C310.783 168.282 311.197 167.818 311.766 167.472C312.334 167.122 313.011 166.946 313.797 166.946C314.786 166.946 315.594 167.257 316.219 167.877C316.848 168.497 317.163 169.432 317.163 170.682V177.998H315.04V170.881C315.04 170.142 314.839 169.607 314.436 169.276C314.034 168.945 313.553 168.779 312.994 168.779C312.303 168.779 311.766 168.992 311.382 169.418C310.999 169.839 310.807 170.382 310.807 171.044V177.998H308.69V170.746C308.69 170.154 308.506 169.678 308.136 169.319C307.767 168.959 307.286 168.779 306.695 168.779C306.292 168.779 305.92 168.885 305.58 169.098C305.243 169.307 304.971 169.598 304.763 169.972C304.559 170.346 304.457 170.779 304.457 171.272V177.998H302.334ZM324.711 178.218C323.636 178.218 322.711 177.988 321.934 177.529C321.163 177.065 320.566 176.414 320.145 175.576C319.728 174.733 319.52 173.746 319.52 172.614C319.52 171.497 319.728 170.512 320.145 169.659C320.566 168.807 321.153 168.142 321.906 167.664C322.663 167.186 323.549 166.946 324.562 166.946C325.178 166.946 325.774 167.048 326.352 167.252C326.93 167.455 327.448 167.775 327.907 168.211C328.367 168.646 328.729 169.212 328.994 169.908C329.259 170.599 329.392 171.44 329.392 172.429V173.182H320.72V171.591H327.311C327.311 171.033 327.197 170.538 326.97 170.107C326.743 169.671 326.423 169.328 326.011 169.077C325.604 168.826 325.126 168.701 324.576 168.701C323.98 168.701 323.459 168.847 323.014 169.141C322.574 169.43 322.233 169.809 321.991 170.277C321.754 170.741 321.636 171.246 321.636 171.79V173.033C321.636 173.762 321.764 174.383 322.02 174.894C322.28 175.405 322.642 175.796 323.106 176.066C323.57 176.331 324.112 176.463 324.733 176.463C325.135 176.463 325.502 176.407 325.833 176.293C326.165 176.175 326.451 175.999 326.693 175.767C326.934 175.535 327.119 175.249 327.247 174.908L329.257 175.27C329.096 175.862 328.807 176.381 328.39 176.826C327.978 177.266 327.46 177.609 326.835 177.856C326.215 178.097 325.507 178.218 324.711 178.218ZM338.658 173.473V167.088H340.789V177.998H338.701V176.108H338.587C338.336 176.691 337.934 177.176 337.38 177.564C336.831 177.948 336.147 178.14 335.327 178.14C334.627 178.14 334.006 177.986 333.467 177.678C332.932 177.365 332.51 176.904 332.202 176.293C331.899 175.682 331.748 174.927 331.748 174.027V167.088H333.871V173.772C333.871 174.515 334.077 175.107 334.489 175.547C334.901 175.988 335.436 176.208 336.094 176.208C336.492 176.208 336.888 176.108 337.281 175.909C337.678 175.711 338.007 175.41 338.268 175.008C338.533 174.605 338.663 174.094 338.658 173.473ZM343.642 177.998V167.088H345.695V168.821H345.809C346.007 168.234 346.358 167.773 346.86 167.436C347.366 167.096 347.939 166.925 348.578 166.925C348.711 166.925 348.867 166.93 349.047 166.939C349.232 166.949 349.376 166.961 349.48 166.975V169.006C349.395 168.982 349.244 168.956 349.026 168.928C348.808 168.895 348.59 168.878 348.373 168.878C347.871 168.878 347.423 168.985 347.03 169.198C346.642 169.406 346.334 169.697 346.107 170.071C345.88 170.441 345.766 170.862 345.766 171.336V177.998H343.642ZM259.874 202.239C259.182 202.239 258.557 202.111 257.999 201.856C257.44 201.595 256.997 201.219 256.671 200.726C256.349 200.234 256.188 199.63 256.188 198.915C256.188 198.3 256.306 197.793 256.543 197.395C256.78 196.998 257.099 196.683 257.502 196.451C257.904 196.219 258.354 196.043 258.851 195.925C259.348 195.807 259.855 195.717 260.371 195.655C261.024 195.579 261.555 195.518 261.962 195.471C262.369 195.418 262.665 195.336 262.85 195.222C263.034 195.108 263.127 194.924 263.127 194.668V194.618C263.127 193.998 262.951 193.517 262.601 193.177C262.255 192.836 261.739 192.665 261.053 192.665C260.338 192.665 259.774 192.824 259.362 193.141C258.955 193.454 258.673 193.802 258.517 194.185L256.521 193.731C256.758 193.068 257.104 192.533 257.558 192.125C258.018 191.713 258.546 191.415 259.142 191.231C259.739 191.041 260.366 190.946 261.024 190.946C261.46 190.946 261.922 190.999 262.409 191.103C262.902 191.202 263.361 191.387 263.787 191.657C264.218 191.927 264.571 192.312 264.845 192.814C265.12 193.311 265.257 193.958 265.257 194.753V201.998H263.183V200.506H263.098C262.961 200.781 262.755 201.051 262.48 201.316C262.206 201.581 261.853 201.801 261.422 201.976C260.991 202.151 260.475 202.239 259.874 202.239ZM260.335 200.534C260.923 200.534 261.424 200.418 261.841 200.186C262.262 199.954 262.582 199.651 262.8 199.277C263.022 198.899 263.134 198.494 263.134 198.063V196.657C263.058 196.732 262.911 196.803 262.693 196.87C262.48 196.931 262.236 196.986 261.962 197.033C261.687 197.076 261.42 197.116 261.159 197.154C260.899 197.187 260.681 197.215 260.506 197.239C260.094 197.291 259.718 197.379 259.377 197.502C259.04 197.625 258.771 197.802 258.567 198.034C258.368 198.262 258.269 198.565 258.269 198.944C258.269 199.469 258.463 199.867 258.851 200.137C259.239 200.402 259.734 200.534 260.335 200.534ZM260.307 189.633L258.112 186.358H260.35L262.004 189.633H260.307ZM278.471 191.088V192.793H272.512V191.088H278.471ZM274.11 188.475H276.234V198.794C276.234 199.206 276.295 199.516 276.419 199.725C276.542 199.928 276.7 200.068 276.894 200.144C277.093 200.215 277.309 200.25 277.541 200.25C277.711 200.25 277.86 200.239 277.988 200.215C278.116 200.191 278.215 200.172 278.286 200.158L278.67 201.912C278.547 201.96 278.372 202.007 278.144 202.054C277.917 202.106 277.633 202.135 277.292 202.14C276.733 202.149 276.213 202.05 275.73 201.841C275.247 201.633 274.856 201.311 274.558 200.875C274.259 200.44 274.11 199.893 274.11 199.235V188.475ZM280.82 201.998V191.088H282.873V192.821H282.986C283.185 192.234 283.536 191.773 284.037 191.436C284.544 191.096 285.117 190.925 285.756 190.925C285.889 190.925 286.045 190.93 286.225 190.939C286.41 190.949 286.554 190.961 286.658 190.975V193.006C286.573 192.982 286.421 192.956 286.204 192.928C285.986 192.895 285.768 192.878 285.55 192.878C285.048 192.878 284.601 192.985 284.208 193.198C283.82 193.406 283.512 193.697 283.285 194.071C283.057 194.441 282.944 194.862 282.944 195.336V201.998H280.82ZM291.573 202.239C290.882 202.239 290.257 202.111 289.698 201.856C289.139 201.595 288.697 201.219 288.37 200.726C288.048 200.234 287.887 199.63 287.887 198.915C287.887 198.3 288.005 197.793 288.242 197.395C288.479 196.998 288.798 196.683 289.201 196.451C289.603 196.219 290.053 196.043 290.55 195.925C291.047 195.807 291.554 195.717 292.07 195.655C292.724 195.579 293.254 195.518 293.661 195.471C294.068 195.418 294.364 195.336 294.549 195.222C294.733 195.108 294.826 194.924 294.826 194.668V194.618C294.826 193.998 294.651 193.517 294.3 193.177C293.955 192.836 293.439 192.665 292.752 192.665C292.037 192.665 291.474 192.824 291.062 193.141C290.654 193.454 290.373 193.802 290.216 194.185L288.221 193.731C288.457 193.068 288.803 192.533 289.258 192.125C289.717 191.713 290.245 191.415 290.841 191.231C291.438 191.041 292.065 190.946 292.724 190.946C293.159 190.946 293.621 190.999 294.108 191.103C294.601 191.202 295.06 191.387 295.486 191.657C295.917 191.927 296.27 192.312 296.545 192.814C296.819 193.311 296.956 193.958 296.956 194.753V201.998H294.883V200.506H294.797C294.66 200.781 294.454 201.051 294.18 201.316C293.905 201.581 293.552 201.801 293.121 201.976C292.69 202.151 292.174 202.239 291.573 202.239ZM292.035 200.534C292.622 200.534 293.124 200.418 293.54 200.186C293.962 199.954 294.281 199.651 294.499 199.277C294.722 198.899 294.833 198.494 294.833 198.063V196.657C294.757 196.732 294.61 196.803 294.393 196.87C294.18 196.931 293.936 196.986 293.661 197.033C293.386 197.076 293.119 197.116 292.858 197.154C292.598 197.187 292.38 197.215 292.205 197.239C291.793 197.291 291.417 197.379 291.076 197.502C290.74 197.625 290.47 197.802 290.266 198.034C290.067 198.262 289.968 198.565 289.968 198.944C289.968 199.469 290.162 199.867 290.55 200.137C290.939 200.402 291.433 200.534 292.035 200.534ZM308.727 191.088L304.771 201.998H302.498L298.535 191.088H300.815L303.578 199.483H303.691L306.447 191.088H308.727ZM313.585 202.239C312.893 202.239 312.268 202.111 311.71 201.856C311.151 201.595 310.708 201.219 310.382 200.726C310.06 200.234 309.899 199.63 309.899 198.915C309.899 198.3 310.017 197.793 310.254 197.395C310.49 196.998 310.81 196.683 311.213 196.451C311.615 196.219 312.065 196.043 312.562 195.925C313.059 195.807 313.566 195.717 314.082 195.655C314.735 195.579 315.266 195.518 315.673 195.471C316.08 195.418 316.376 195.336 316.561 195.222C316.745 195.108 316.838 194.924 316.838 194.668V194.618C316.838 193.998 316.662 193.517 316.312 193.177C315.966 192.836 315.45 192.665 314.764 192.665C314.049 192.665 313.485 192.824 313.073 193.141C312.666 193.454 312.384 193.802 312.228 194.185L310.232 193.731C310.469 193.068 310.815 192.533 311.269 192.125C311.729 191.713 312.257 191.415 312.853 191.231C313.45 191.041 314.077 190.946 314.735 190.946C315.171 190.946 315.633 190.999 316.12 191.103C316.613 191.202 317.072 191.387 317.498 191.657C317.929 191.927 318.282 192.312 318.556 192.814C318.831 193.311 318.968 193.958 318.968 194.753V201.998H316.894V200.506H316.809C316.672 200.781 316.466 201.051 316.191 201.316C315.917 201.581 315.564 201.801 315.133 201.976C314.702 202.151 314.186 202.239 313.585 202.239ZM314.046 200.534C314.633 200.534 315.135 200.418 315.552 200.186C315.973 199.954 316.293 199.651 316.511 199.277C316.733 198.899 316.845 198.494 316.845 198.063V196.657C316.769 196.732 316.622 196.803 316.404 196.87C316.191 196.931 315.947 196.986 315.673 197.033C315.398 197.076 315.131 197.116 314.87 197.154C314.61 197.187 314.392 197.215 314.217 197.239C313.805 197.291 313.428 197.379 313.088 197.502C312.751 197.625 312.481 197.802 312.278 198.034C312.079 198.262 311.98 198.565 311.98 198.944C311.98 199.469 312.174 199.867 312.562 200.137C312.95 200.402 313.445 200.534 314.046 200.534ZM321.797 201.998V191.088H323.92V201.998H321.797ZM322.869 189.405C322.5 189.405 322.183 189.282 321.917 189.036C321.657 188.785 321.527 188.487 321.527 188.141C321.527 187.791 321.657 187.492 321.917 187.246C322.183 186.995 322.5 186.87 322.869 186.87C323.238 186.87 323.553 186.995 323.814 187.246C324.079 187.492 324.211 187.791 324.211 188.141C324.211 188.487 324.079 188.785 323.814 189.036C323.553 189.282 323.238 189.405 322.869 189.405ZM328.901 187.452V201.998H326.777V187.452H328.901ZM333.881 187.452V201.998H331.758V187.452H333.881ZM341.44 202.218C340.365 202.218 339.439 201.988 338.663 201.529C337.891 201.065 337.294 200.414 336.873 199.576C336.456 198.733 336.248 197.746 336.248 196.614C336.248 195.497 336.456 194.512 336.873 193.659C337.294 192.807 337.882 192.142 338.634 191.664C339.392 191.186 340.277 190.946 341.291 190.946C341.906 190.946 342.503 191.048 343.08 191.252C343.658 191.455 344.177 191.775 344.636 192.211C345.095 192.646 345.457 193.212 345.722 193.908C345.988 194.599 346.12 195.44 346.12 196.429V197.182H337.448V195.591H344.039C344.039 195.033 343.926 194.538 343.698 194.107C343.471 193.671 343.151 193.328 342.74 193.077C342.332 192.826 341.854 192.701 341.305 192.701C340.708 192.701 340.187 192.847 339.742 193.141C339.302 193.43 338.961 193.809 338.72 194.277C338.483 194.741 338.365 195.246 338.365 195.79V197.033C338.365 197.762 338.492 198.383 338.748 198.894C339.008 199.405 339.371 199.796 339.835 200.066C340.299 200.331 340.841 200.463 341.461 200.463C341.864 200.463 342.231 200.407 342.562 200.293C342.893 200.175 343.18 199.999 343.421 199.767C343.663 199.535 343.847 199.249 343.975 198.908L345.985 199.27C345.824 199.862 345.535 200.381 345.119 200.826C344.707 201.266 344.188 201.609 343.563 201.856C342.943 202.097 342.235 202.218 341.44 202.218ZM348.476 201.998V191.088H350.529V192.821H350.643C350.841 192.234 351.192 191.773 351.694 191.436C352.2 191.096 352.773 190.925 353.412 190.925C353.545 190.925 353.701 190.93 353.881 190.939C354.066 190.949 354.21 190.961 354.314 190.975V193.006C354.229 192.982 354.078 192.956 353.86 192.928C353.642 192.895 353.424 192.878 353.206 192.878C352.705 192.878 352.257 192.985 351.864 193.198C351.476 193.406 351.168 193.697 350.941 194.071C350.714 194.441 350.6 194.862 350.6 195.336V201.998H348.476Z" fill="black"/>
<path d="M601.008 138.385C587.84 153.764 573.75 145.875 569.63 140.386C539.889 154.372 524.299 128.79 524.753 115.387C506.639 117.059 507.947 98.9025 514.95 94.6754C499.721 86.0022 509.992 70.765 519.209 72.202C516.608 58.9683 526.766 55.9 532.17 56.02C536.12 42.2082 550.919 44.7082 553.814 50.5743C566.933 35.7373 577.975 47.4812 580.632 55.1924C605.23 35.4186 617.965 63.1194 613.871 71.9174C619.214 72.9095 619.68 78.5869 619.245 81.3015C640.511 74.6306 647.356 102.81 633.312 110.14C641.616 136.527 614.313 146.042 601.008 138.385Z" fill="white"/>
<path d="M546.61 157.446C548.263 160.717 545.188 167.248 540.507 168.311C535.826 169.373 531.123 166.321 530.123 161.916C529.123 157.512 530.787 153.562 535.288 152.541C539.788 151.519 545.61 153.041 546.61 157.446Z" fill="white"/>
<path d="M534.072 178.521C534.812 180.176 533.288 183.257 530.894 183.8C528.501 184.343 526.358 182.286 525.923 180.371C525.489 178.456 526.098 176.32 529.124 175.998C531.551 175.447 533.852 176.748 534.072 178.521Z" fill="white"/>
<path d="M547.833 65.4116L549.84 66.2835L545.729 75.7415C545.358 76.597 544.87 77.2551 544.267 77.7159C543.669 78.1785 542.996 78.4385 542.248 78.4956C541.502 78.5484 540.721 78.3974 539.905 78.0427C539.154 77.7162 538.538 77.286 538.058 76.752C537.582 76.2199 537.283 75.6178 537.162 74.9457C537.047 74.2712 537.153 73.5583 537.48 72.807L539.479 73.676C539.319 74.0451 539.265 74.4011 539.317 74.744C539.374 75.0887 539.519 75.4021 539.753 75.6843C539.993 75.9641 540.308 76.1889 540.699 76.3587C541.124 76.5436 541.523 76.6112 541.896 76.5615C542.275 76.5093 542.619 76.3413 542.928 76.0575C543.237 75.7737 543.502 75.3778 543.723 74.8697L547.833 65.4116ZM551.04 82.9047C550.054 82.4763 549.297 81.8968 548.768 81.1661C548.245 80.4329 547.957 79.598 547.905 78.6615C547.858 77.7224 548.061 76.734 548.512 75.6961C548.957 74.6713 549.541 73.851 550.263 73.2355C550.989 72.6217 551.792 72.2456 552.673 72.1071C553.559 71.9704 554.466 72.104 555.395 72.5078C555.96 72.7531 556.467 73.0843 556.915 73.5012C557.364 73.9182 557.712 74.4179 557.96 75.0005C558.207 75.5831 558.314 76.2464 558.28 76.9904C558.247 77.7301 558.034 78.5537 557.64 79.4613L557.34 80.1518L549.386 76.6956L550.02 75.2365L556.065 77.8633C556.288 77.3509 556.381 76.8518 556.344 76.366C556.309 75.876 556.153 75.4337 555.875 75.0394C555.602 74.647 555.213 74.3413 554.709 74.1224C554.162 73.8846 553.626 73.8117 553.101 73.9035C552.582 73.9929 552.118 74.2044 551.71 74.5381C551.308 74.8693 550.998 75.2846 550.781 75.784L550.286 76.9239C549.995 77.5927 549.865 78.2125 549.896 78.7834C549.931 79.3562 550.108 79.8588 550.426 80.2913C550.746 80.7194 551.19 81.0571 551.759 81.3043C552.128 81.4647 552.487 81.5588 552.836 81.5867C553.188 81.6102 553.52 81.5637 553.834 81.4472C554.148 81.3306 554.431 81.1415 554.685 80.8798L556.384 82.0131C556 82.4917 555.529 82.8521 554.969 83.0942C554.416 83.3339 553.803 83.4421 553.132 83.4188C552.467 83.3931 551.77 83.2217 551.04 82.9047ZM562.436 87.6167L566.784 77.6115L568.653 78.4239L567.945 80.0523L568.069 80.1061C568.517 79.6452 569.045 79.3634 569.652 79.2608C570.262 79.1538 570.896 79.2437 571.556 79.5306C572.225 79.8212 572.717 80.221 573.033 80.7299C573.353 81.2407 573.503 81.8168 573.482 82.4584L573.586 82.5037C574.057 82.0733 574.622 81.8129 575.281 81.7223C575.942 81.6274 576.633 81.7366 577.354 82.0498C578.261 82.4442 578.878 83.0504 579.204 83.8684C579.534 84.6882 579.45 85.6714 578.952 86.8178L576.037 93.5271L574.089 92.6807L576.925 86.1539C577.22 85.4764 577.248 84.9055 577.011 84.4411C576.774 83.9767 576.4 83.6332 575.887 83.4105C575.253 83.135 574.675 83.1163 574.154 83.3542C573.634 83.5879 573.242 84.0087 572.978 84.6166L570.207 90.9937L568.266 90.1501L571.156 83.4995C571.392 82.9567 571.412 82.4467 571.217 81.9694C571.021 81.4922 570.652 81.1357 570.109 80.8998C569.74 80.7394 569.357 80.689 568.959 80.7485C568.568 80.8056 568.202 80.9641 567.862 81.2242C567.526 81.4861 567.26 81.8429 567.064 82.2945L564.383 88.4631L562.436 87.6167ZM585.923 81.9637L583.859 86.7122L582.244 86.0103L584.307 81.2617L585.923 81.9637ZM586.866 98.4731C585.88 98.0447 585.123 97.4652 584.594 96.7345C584.071 96.0013 583.783 95.1665 583.731 94.2299C583.684 93.2908 583.887 92.3024 584.338 91.2645C584.783 90.2397 585.367 89.4195 586.089 88.8039C586.815 88.1901 587.618 87.814 588.499 87.6755C589.385 87.5388 590.292 87.6724 591.221 88.0762C591.786 88.3215 592.293 88.6527 592.741 89.0696C593.19 89.4866 593.538 89.9863 593.786 90.5689C594.033 91.1515 594.14 91.8148 594.106 92.5588C594.073 93.2985 593.86 94.1221 593.466 95.0297L593.166 95.7202L585.212 92.264L585.846 90.8049L591.891 93.4317C592.114 92.9193 592.207 92.4202 592.17 91.9345C592.135 91.4444 591.979 91.0021 591.701 90.6078C591.428 90.2154 591.039 89.9097 590.535 89.6908C589.988 89.453 589.452 89.3801 588.927 89.4719C588.408 89.5613 587.944 89.7728 587.536 90.1065C587.134 90.4377 586.824 90.853 586.607 91.3524L586.112 92.4924C585.821 93.1611 585.691 93.7809 585.722 94.3518C585.757 94.9246 585.934 95.4272 586.252 95.8597C586.572 96.2878 587.016 96.6255 587.585 96.8727C587.954 97.0331 588.313 97.1272 588.662 97.1551C589.014 97.1786 589.346 97.1321 589.66 97.0156C589.974 96.899 590.257 96.7099 590.511 96.4482L592.21 97.5815C591.826 98.0601 591.355 98.4205 590.795 98.6627C590.242 98.9023 589.629 99.0105 588.958 98.9872C588.293 98.9615 587.596 98.7901 586.866 98.4731ZM597.937 95.9814L595.355 101.922L593.407 101.076L597.755 91.0704L599.625 91.8828L598.917 93.5112L599.041 93.565C599.501 93.1352 600.047 92.8663 600.677 92.7582C601.312 92.652 602.005 92.7621 602.756 93.0885C603.438 93.3848 603.972 93.7876 604.36 94.2969C604.75 94.8018 604.964 95.3957 605.003 96.0786C605.042 96.7614 604.882 97.5154 604.524 98.3405L601.758 104.704L599.81 103.858L602.474 97.7286C602.789 97.0034 602.847 96.3546 602.646 95.7822C602.448 95.2055 602.018 94.7737 601.358 94.4869C600.907 94.2906 600.463 94.2138 600.026 94.2564C599.594 94.3008 599.193 94.4676 598.825 94.7567C598.463 95.0433 598.167 95.4516 597.937 95.9814ZM531.256 100.476C530.318 100.068 529.593 99.4974 529.081 98.7637C528.568 98.0299 528.287 97.1926 528.236 96.2517C528.186 95.3108 528.385 94.3235 528.834 93.29C529.285 92.2521 529.873 91.4285 530.597 90.8191C531.321 90.2098 532.127 89.8421 533.013 89.716C533.899 89.5899 534.81 89.7306 535.748 90.1382C536.686 90.5458 537.412 91.1165 537.924 91.8502C538.436 92.584 538.717 93.4235 538.765 94.3687C538.814 95.314 538.613 96.3056 538.162 97.3434C537.713 98.377 537.127 99.1962 536.405 99.8013C535.682 100.406 534.878 100.772 533.992 100.898C533.106 101.024 532.194 100.883 531.256 100.476ZM531.973 98.8435C532.581 99.1077 533.155 99.1659 533.694 99.0182C534.233 98.8705 534.714 98.5711 535.137 98.12C535.565 97.6707 535.918 97.1248 536.198 96.4821C536.475 95.8437 536.632 95.215 536.669 94.596C536.712 93.9745 536.604 93.4141 536.346 92.9148C536.088 92.4155 535.655 92.0337 535.047 91.7695C534.435 91.5034 533.856 91.4455 533.311 91.5957C532.77 91.7478 532.285 92.0506 531.855 92.5041C531.432 92.9552 531.082 93.5 530.804 94.1383C530.525 94.781 530.365 95.411 530.324 96.0281C530.287 96.6472 530.399 97.2042 530.659 97.6991C530.923 98.196 531.361 98.5775 531.973 98.8435ZM542.309 105.279C541.34 104.858 540.602 104.276 540.093 103.534C539.591 102.789 539.322 101.947 539.286 101.007C539.251 100.067 539.451 99.096 539.887 98.0929C540.328 97.0767 540.909 96.263 541.629 95.6517C542.351 95.0361 543.154 94.66 544.04 94.5233C544.925 94.3867 545.839 94.5231 546.781 94.9326C547.541 95.2628 548.157 95.6984 548.63 96.2391C549.104 96.7756 549.414 97.3749 549.56 98.0372C549.71 98.7013 549.673 99.3851 549.45 100.088L547.555 99.2646C547.654 98.7503 547.591 98.2427 547.365 97.7417C547.143 97.2426 546.721 96.8581 546.101 96.5882C545.558 96.3523 545.02 96.289 544.487 96.3982C543.961 96.505 543.47 96.772 543.016 97.1994C542.564 97.6223 542.183 98.1899 541.874 98.9021C541.557 99.6316 541.394 100.309 541.385 100.935C541.376 101.562 541.51 102.108 541.788 102.574C542.07 103.043 542.486 103.397 543.038 103.636C543.407 103.797 543.771 103.875 544.129 103.87C544.493 103.863 544.833 103.776 545.148 103.609C545.468 103.443 545.748 103.198 545.987 102.873L547.882 103.697C547.532 104.314 547.07 104.8 546.497 105.155C545.925 105.51 545.28 105.705 544.563 105.739C543.85 105.776 543.099 105.622 542.309 105.279ZM552.716 109.801C551.748 109.38 551.009 108.799 550.501 108.056C549.998 107.311 549.729 106.469 549.694 105.53C549.658 104.59 549.858 103.619 550.294 102.615C550.736 101.599 551.316 100.786 552.036 100.174C552.758 99.5588 553.562 99.1826 554.447 99.046C555.333 98.9093 556.246 99.0457 557.189 99.4552C557.949 99.7855 558.565 100.221 559.037 100.762C559.511 101.298 559.821 101.898 559.967 102.56C560.117 103.224 560.081 103.908 559.858 104.611L557.962 103.787C558.062 103.273 557.999 102.765 557.772 102.264C557.55 101.765 557.129 101.381 556.508 101.111C555.965 100.875 555.427 100.812 554.895 100.921C554.368 101.028 553.878 101.295 553.424 101.722C552.971 102.145 552.59 102.713 552.281 103.425C551.964 104.154 551.801 104.832 551.792 105.458C551.784 106.084 551.918 106.63 552.195 107.097C552.477 107.565 552.894 107.919 553.445 108.159C553.814 108.319 554.178 108.397 554.536 108.393C554.9 108.386 555.24 108.299 555.556 108.131C555.876 107.966 556.155 107.72 556.394 107.396L558.29 108.22C557.939 108.836 557.477 109.322 556.905 109.678C556.332 110.033 555.688 110.228 554.971 110.262C554.258 110.298 553.506 110.145 552.716 109.801ZM567.138 110.895L569.683 105.039L571.637 105.889L567.289 115.894L565.374 115.062L566.127 113.329L566.023 113.284C565.56 113.718 564.998 114.002 564.335 114.138C563.678 114.271 562.974 114.174 562.223 113.847C561.58 113.568 561.073 113.18 560.701 112.682C560.334 112.182 560.132 111.591 560.093 110.908C560.059 110.227 560.221 109.474 560.579 108.649L563.345 102.285L565.292 103.132L562.629 109.261C562.332 109.943 562.285 110.568 562.488 111.136C562.69 111.704 563.093 112.119 563.697 112.381C564.061 112.54 564.464 112.606 564.903 112.58C565.347 112.557 565.769 112.412 566.168 112.147C566.572 111.883 566.895 111.466 567.138 110.895ZM568.275 120.783L574.254 107.026L576.156 107.852L575.451 109.474L575.614 109.545C575.817 109.386 576.085 109.215 576.416 109.034C576.748 108.853 577.147 108.743 577.614 108.703C578.082 108.658 578.627 108.771 579.248 109.041C580.055 109.392 580.688 109.909 581.144 110.593C581.601 111.277 581.842 112.081 581.869 113.007C581.9 113.934 581.68 114.938 581.21 116.019C580.74 117.101 580.157 117.949 579.461 118.566C578.766 119.178 578.014 119.555 577.203 119.699C576.394 119.838 575.586 119.732 574.778 119.381C574.17 119.116 573.717 118.798 573.419 118.426C573.126 118.056 572.93 117.687 572.832 117.319C572.734 116.951 572.672 116.635 572.647 116.372L572.53 116.321L570.223 121.629L568.275 120.783ZM573.988 112.858C573.683 113.561 573.517 114.222 573.491 114.841C573.464 115.459 573.58 116.002 573.836 116.47C574.094 116.933 574.503 117.286 575.063 117.53C575.645 117.783 576.199 117.84 576.723 117.701C577.25 117.559 577.729 117.264 578.161 116.816C578.597 116.371 578.961 115.814 579.251 115.145C579.538 114.485 579.696 113.849 579.725 113.236C579.758 112.626 579.642 112.083 579.379 111.607C579.121 111.133 578.698 110.769 578.112 110.514C577.547 110.269 577.006 110.207 576.489 110.328C575.976 110.451 575.507 110.73 575.081 111.164C574.654 111.598 574.29 112.163 573.988 112.858ZM585.451 124.026C584.466 123.598 583.708 123.019 583.179 122.288C582.656 121.555 582.368 120.72 582.316 119.783C582.27 118.844 582.472 117.856 582.923 116.818C583.368 115.793 583.952 114.973 584.674 114.357C585.4 113.743 586.204 113.367 587.085 113.229C587.97 113.092 588.877 113.226 589.807 113.63C590.371 113.875 590.878 114.206 591.326 114.623C591.775 115.04 592.123 115.54 592.371 116.122C592.618 116.705 592.725 117.368 592.691 118.112C592.659 118.852 592.445 119.675 592.051 120.583L591.751 121.273L583.797 117.817L584.431 116.358L590.476 118.985C590.699 118.473 590.792 117.974 590.755 117.488C590.72 116.998 590.564 116.555 590.286 116.161C590.013 115.769 589.624 115.463 589.121 115.244C588.573 115.006 588.037 114.933 587.512 115.025C586.993 115.115 586.529 115.326 586.121 115.66C585.719 115.991 585.41 116.406 585.192 116.906L584.697 118.046C584.407 118.714 584.277 119.334 584.307 119.905C584.342 120.478 584.519 120.981 584.837 121.413C585.157 121.841 585.601 122.179 586.17 122.426C586.539 122.586 586.898 122.681 587.248 122.708C587.599 122.732 587.931 122.685 588.245 122.569C588.559 122.452 588.843 122.263 589.096 122.002L590.795 123.135C590.411 123.613 589.94 123.974 589.38 124.216C588.827 124.456 588.215 124.564 587.543 124.541C586.878 124.515 586.181 124.343 585.451 124.026ZM605.1 116.465L600.801 125.895L598.996 125.111L602.957 115.534L605.1 116.465ZM598.181 129.465C597.82 129.308 597.567 129.049 597.42 128.685C597.275 128.318 597.283 127.955 597.444 127.596C597.594 127.238 597.852 126.989 598.218 126.848C598.586 126.704 598.95 126.709 599.31 126.866C599.662 127.019 599.91 127.279 600.055 127.647C600.202 128.01 600.2 128.371 600.05 128.728C599.941 128.965 599.783 129.157 599.575 129.304C599.373 129.449 599.148 129.537 598.902 129.569C598.656 129.602 598.415 129.567 598.181 129.465Z" fill="black"/>
</svg>
