<svg width="25" height="48" viewBox="0 0 25 48" fill="none" xmlns="http://www.w3.org/2000/svg">
<path d="M4.32617 39.8852L4.32617 42.3123C4.32617 43.1781 4.98455 43.8799 5.79675 43.8799L19.5418 43.8799C20.354 43.8799 21.0128 43.1781 21.0128 42.3123L21.0128 39.8852C21.0128 39.0195 20.354 38.3177 19.5418 38.3177L5.79675 38.3177C4.98455 38.3177 4.32617 39.0195 4.32617 39.8852Z" fill="#ED1A32"/>
<path d="M15.8514 3.04241L8.88707 3.04242C8.84576 3.04242 8.81222 3.00962 8.81222 2.96922L8.81222 2.36701C8.81222 2.32661 8.84576 2.29334 8.88707 2.29334L15.8514 2.29334C15.8932 2.29334 15.9268 2.32661 15.9268 2.36701L15.9268 2.96921C15.9268 3.00962 15.8932 3.04241 15.8514 3.04241ZM22.4143 25.317C22.4138 25.317 22.4133 25.317 22.4133 25.317C22.4133 26.6916 22.4128 28.0657 22.4133 29.4398C22.4138 34.2751 22.4128 39.1099 22.4191 43.9447C22.4201 44.3786 22.3686 44.814 21.9715 45.0355C21.6687 45.2037 21.2774 45.2931 20.9255 45.2941C15.2016 45.3059 9.47813 45.2988 3.7547 45.2945C2.76702 45.2936 2.29845 44.833 2.29845 43.8719C2.30137 31.5036 2.3038 19.1352 2.30671 6.76689C2.30671 5.79157 2.73056 5.37045 3.71873 5.37093C9.46792 5.37235 15.2171 5.37568 20.9668 5.37806C22.0254 5.37853 22.4138 5.75545 22.4138 6.80207C22.4148 12.9739 22.4143 19.1457 22.4143 25.317ZM18.3255 3.09945C18.2837 3.09945 18.2497 3.0657 18.2497 3.02531C18.2497 2.65742 18.2516 2.34229 18.2492 2.02717C18.24 0.87313 17.3631 0.00997467 16.1922 0.00807501C13.6107 0.00332201 11.0292 0.000949378 8.44767 -4.18396e-06C7.36471 -0.000477159 6.48931 0.844612 6.45723 1.92498C6.44702 2.27623 6.4548 2.62795 6.45577 3.02293C6.45577 3.06333 6.42174 3.09707 6.37994 3.09707C6.17482 3.09707 5.98526 3.0966 5.79521 3.09707C4.97764 3.0985 4.15717 3.06237 3.34252 3.10943C1.46679 3.21875 0.00373221 4.74591 0.00324622 6.57772C-0.000641761 19.0625 -0.00112823 31.5469 0.00227478 44.0312C0.00276093 46.037 1.56789 47.5803 3.6152 47.5831C9.41688 47.5912 15.2191 47.5874 21.0212 47.5836C23.2362 47.5817 24.7192 46.1301 24.7197 43.9537C24.7231 36.2305 24.7187 28.5078 24.7182 20.7846C24.7182 16.0481 24.7197 11.3117 24.7207 6.57535C24.7216 4.64181 23.1925 3.12084 21.2156 3.10088C20.2702 3.09137 19.3249 3.09898 18.3255 3.09945Z" fill="#231F20"/>
<path d="M11.7161 25.8153C11.7631 25.805 11.8039 25.8493 11.7908 25.896L11.735 26.0947C11.5348 26.8041 11.3312 27.5125 11.1319 28.2218C11.129 28.2327 11.1266 28.2435 11.1247 28.2548C11.1082 28.3625 11.2061 28.4526 11.3099 28.423C13.5986 27.7609 15.8858 27.0929 18.1755 26.4347C18.4407 26.3584 18.5468 26.2389 18.5405 25.9422C18.5207 24.9933 18.5347 24.0434 18.5352 23.094C18.5352 22.789 18.5139 22.7757 18.2468 22.8997C16.979 23.487 15.7108 24.0739 14.4426 24.6608L14.2404 24.7542C14.1643 24.7897 14.079 24.7262 14.0887 24.6416C14.1415 24.1767 14.1915 23.7414 14.2399 23.3055C14.2729 23.0084 14.3049 22.7113 14.3301 22.4136L14.3306 22.4043C14.3388 22.301 14.239 22.2213 14.1435 22.2572C14.1309 22.2616 14.1192 22.2675 14.1081 22.2739C12.4099 23.3119 10.7131 24.3528 9.01534 25.3928C8.35554 25.7966 7.69477 26.198 7.03545 26.6034C6.98697 26.6329 6.93704 26.661 6.89001 26.6934C6.86044 26.7141 6.79644 26.7574 6.79838 26.7997C6.80178 26.8744 6.91376 26.8439 6.95594 26.8351C7.02866 26.8193 7.10138 26.8036 7.1741 26.7884C7.32535 26.7559 7.47612 26.7234 7.62738 26.691C7.92989 26.626 8.23289 26.5616 8.5354 26.4966C9.59564 26.2694 10.6559 26.0421 11.7161 25.8153Z" fill="#231F20"/>
</svg>
