<svg width="149" height="144" viewBox="0 0 149 144" fill="none" xmlns="http://www.w3.org/2000/svg">
<path d="M73.1748 28.8074C104.962 22.1343 119.417 29.4548 119.417 29.4548C119.316 29.4548 119.221 29.4662 119.132 29.4822C120.725 29.9121 122.342 30.4492 123.961 31.0964C130.631 33.7628 135.993 37.7556 139.121 41.946C145.178 47.1077 147.588 56.8843 148.445 61.7605C150.016 69.7614 148.236 76.8026 143.242 79.5789C142.92 79.7582 142.589 79.9154 142.251 80.0535C136.747 87.9381 137.858 98.931 141.505 105.858C145.186 112.851 145.573 118.873 133.367 131.499C121.161 144.125 92.2919 148.593 39.9795 138.298C-7.75794 128.903 -0.234572 95.4874 1.44629 89.7146C1.73775 84.4052 4.14108 77.9538 8.46289 71.9402C8.83308 71.4251 9.2105 70.9222 9.59473 70.4324C18.7419 54.8768 43.3096 35.0773 73.1748 28.8074Z" fill="#D9DCB9"/>
<path d="M74.6507 90.2426L78.0279 93.7688L83.0264 89.5886L79.4085 84.9967L74.6507 90.2426Z" fill="#FF9981"/>
<path d="M29.129 95.1213H62.0992C63.9542 95.1213 65.458 93.5716 65.458 91.6599V59.9072C65.458 57.9957 63.9542 56.4461 62.0992 56.4461H29.129C27.274 56.4461 25.7702 57.9957 25.7702 59.9072V91.6599C25.7702 93.5716 27.274 95.1213 29.129 95.1213Z" fill="#D5BD99"/>
<path d="M36.1251 95.1213H69.0953C70.9503 95.1213 72.4541 93.5716 72.4541 91.6599V59.9072C72.4541 57.9957 70.9503 56.4461 69.0953 56.4461H36.1251C34.2701 56.4461 32.7663 57.9957 32.7663 59.9072V91.6599C32.7663 93.5716 34.2701 95.1213 36.1251 95.1213Z" fill="#F3E1CA"/>
<path d="M25.8299 93.7648V96.0903C25.8299 96.701 25.8667 97.2957 25.9403 97.8637C26.3071 100.741 27.5475 102.86 29.0215 102.86H64.9725C66.4466 102.86 67.6884 100.741 68.0566 97.8637C68.1288 97.2957 68.167 96.701 68.167 96.0903V93.7648C68.167 90.0273 66.7368 86.9957 64.9725 86.9957H29.0215C27.2586 86.9957 25.8299 90.0273 25.8299 93.7648Z" fill="#D5BD99"/>
<path d="M45.5413 78.8323C45.5413 78.8323 60.5863 72.9258 65.919 72.9273C71.2517 72.9273 81.1396 85.2481 81.1396 85.2481L73.5782 90.949L62.1779 83.1163L45.5413 78.8323Z" fill="#E6CFB0"/>
<path d="M77.0163 83.99C77.0758 83.99 77.1268 83.9418 77.131 83.8806C77.1409 83.7784 77.3279 81.3709 76.0096 80.1029C74.8711 79.01 73.7085 79.2916 73.3857 79.4025C73.1818 79.1414 72.4257 78.3024 71.2645 78.4264C69.9009 78.5708 69.4237 81.0732 69.4039 81.1797C69.3926 81.2439 69.4336 81.3067 69.4959 81.3198C69.5582 81.3315 69.6205 81.2892 69.6319 81.225C69.6375 81.2002 70.0963 78.7912 71.2886 78.6642C72.5007 78.5402 73.2427 79.6039 73.2498 79.6141C73.2823 79.6608 73.3404 79.6768 73.3914 79.655C73.4423 79.6316 74.6332 79.1092 75.8495 80.2795C77.0857 81.4657 76.9016 83.8353 76.9002 83.8601C76.8946 83.9258 76.9413 83.9827 77.005 83.9885C77.0092 83.99 77.0121 83.99 77.0163 83.99Z" fill="#FCF9F5"/>
<path d="M60.5494 68.1614C60.5494 68.1614 64.054 66.3025 63.4027 63.4324C62.7513 60.5608 59.8868 63.1479 59.8868 63.1479L58.6109 66.7956L60.5494 68.1614Z" fill="#FF9981"/>
<path d="M62.4866 66.2965L59.7835 65.437C59.496 65.3451 59.3346 65.0314 59.4238 64.7352L61.1471 58.9804C61.2363 58.6842 61.5421 58.5179 61.8296 58.6098L64.5328 59.4693C64.8202 59.5612 64.9816 59.8749 64.8924 60.1725L63.1677 65.9258C63.0799 66.222 62.7741 66.3884 62.4866 66.2965Z" fill="#E6CFB0"/>
<path d="M62.0756 66.1666L59.3738 65.3072C59.0864 65.2153 58.925 64.9001 59.0142 64.6039L60.7375 58.8491C60.8267 58.5529 61.1325 58.3866 61.42 58.4785L64.1217 59.3379C64.4106 59.4298 64.5706 59.745 64.4828 60.0412L62.7581 65.7945C62.6689 66.0922 62.3645 66.2585 62.0756 66.1666Z" fill="#80BAFF"/>
<path d="M61.4082 64.9554C61.3303 65.2181 61.0825 65.3728 60.856 65.2998C60.628 65.2283 60.5076 64.9569 60.5869 64.6943C60.6648 64.4316 60.9126 64.2784 61.1406 64.3499C61.3672 64.4229 61.4875 64.6943 61.4082 64.9554Z" fill="#E6CFB0"/>
<path d="M57.3272 64.757C57.3272 64.757 58.426 62.1539 58.8905 61.8256C59.3563 61.4973 61.9618 60.4716 62.4276 60.8889C62.8921 61.3062 60.938 62.5333 60.938 62.5333C60.938 62.5333 60.5656 66.4831 59.0774 66.7706C57.5877 67.058 57.3272 64.757 57.3272 64.757Z" fill="#FF9981"/>
<path d="M48.3613 63.3463C48.3613 63.3463 53.7988 66.5578 54.1089 66.3988C54.419 66.2397 57.057 64.337 57.057 64.337L61.71 67.9177C61.71 67.9177 58.1954 77.0518 53.1616 76.8358C48.1277 76.6213 46.4738 70.4741 46.4738 70.4741L48.3613 63.3463Z" fill="#889782"/>
<path d="M30.9288 93.861V96.1865C30.9288 96.797 30.967 97.3918 31.0421 97.9598C31.4187 100.837 32.6875 102.956 34.1984 102.956H71.023C72.5324 102.956 73.804 100.837 74.1821 97.9598C74.2557 97.3918 74.2939 96.797 74.2939 96.1865V93.861C74.2939 90.1233 72.8298 87.0917 71.023 87.0917H34.1984C32.393 87.0917 30.9288 90.1233 30.9288 93.861Z" fill="#D5BD99"/>
<path d="M65.5696 86.3664C65.5696 89.9464 68.3861 92.8484 71.8595 92.8484C75.3344 92.8484 78.1494 89.9464 78.1494 86.3664C78.1494 82.786 75.3344 79.8839 71.8595 79.8839C68.3861 79.8839 65.5696 82.786 65.5696 86.3664Z" fill="#F3E1CA"/>
<path d="M69.0666 86.3666C69.0666 87.956 70.317 89.2444 71.859 89.2444C73.401 89.2444 74.6514 87.956 74.6514 86.3666C74.6514 84.7779 73.401 83.4895 71.859 83.4895C70.317 83.4895 69.0666 84.7779 69.0666 86.3666Z" fill="#D5BD99"/>
<path d="M67.6609 109.294H67.9257C68.5742 109.294 69.1236 108.8 69.21 108.137L70.1318 101.09H66.0721L66.3667 108.017C66.3964 108.732 66.9671 109.294 67.6609 109.294Z" fill="#D7D7E2"/>
<path d="M59.7058 109.294H59.9706C60.6191 109.294 61.1686 108.8 61.2549 108.137L62.1768 101.09H58.1171L58.4116 108.017C58.4413 108.732 59.012 109.294 59.7058 109.294Z" fill="#D5BD99"/>
<path d="M37.3776 109.294H37.1128C36.4643 109.294 35.9149 108.8 35.8285 108.137L34.9081 101.09H38.9678L38.6718 108.017C38.6421 108.732 38.0714 109.294 37.3776 109.294Z" fill="#D5BD99"/>
<path d="M29.338 108.807H29.0732C28.4247 108.807 27.8753 108.312 27.7889 107.65L26.8671 100.603H30.9268L30.6322 107.53C30.6011 108.244 30.0304 108.807 29.338 108.807Z" fill="#364568"/>
<path d="M39.7706 89.3829C39.7706 90.396 44.3316 91.2173 49.9588 91.2173C55.5846 91.2173 60.1455 90.396 60.1455 89.3829C60.1455 88.37 55.5846 87.5486 49.9588 87.5486C44.3316 87.5486 39.7706 88.37 39.7706 89.3829Z" fill="#D5BD99"/>
<path d="M61.7107 104.782L62.1766 109.713H68.6123V103.8L61.7107 104.782Z" fill="#FF9981"/>
<path d="M38.0811 79.6943C38.0811 79.6943 37.4184 86.6736 39.2805 87.5668C41.1411 88.46 53.6402 89.8238 54.3312 90.3821C55.0208 90.9403 59.6525 106.461 59.6525 106.461L70.9834 105.417C70.9834 105.417 66.8968 84.9778 62.9221 81.5722C60.1467 79.1939 48.9815 78.9852 48.9815 78.9852L38.0811 79.6943Z" fill="#E6CFB0"/>
<path d="M55.5472 87.8397C55.577 87.8397 55.6308 87.8566 55.7058 87.9542C55.8106 88.0915 55.8502 88.2501 55.829 88.4392C55.7554 89.0601 55.0389 89.7908 54.6509 90.1455C54.8491 89.1453 55.2102 87.9247 55.5231 87.8432C55.5288 87.8419 55.5359 87.8397 55.5472 87.8397ZM54.4753 90.575C54.5008 90.575 54.5263 90.5665 54.5461 90.5496C54.6042 90.504 55.948 89.419 56.0598 88.4683C56.0896 88.2163 56.0315 87.9932 55.8885 87.8057C55.7271 87.5956 55.5699 87.5836 55.4651 87.6108C54.8449 87.7721 54.4357 89.991 54.3606 90.4341C54.3521 90.4832 54.3734 90.5321 54.4144 90.5579C54.4343 90.5693 54.4541 90.575 54.4753 90.575Z" fill="white"/>
<path d="M64.455 79.8009C64.5229 79.8009 64.6135 79.8271 64.7141 79.9585C64.8104 80.084 64.8373 80.2036 64.799 80.3262C64.656 80.7756 63.7116 81.1827 63.1438 81.3767C63.427 80.8048 63.9806 79.8578 64.4167 79.8038C64.428 79.8023 64.4408 79.8009 64.455 79.8009ZM62.9214 81.6919C62.9328 81.6919 62.9427 81.6904 62.9526 81.6875C63.1395 81.6335 64.7849 81.1433 65.02 80.4006C65.0823 80.2007 65.0398 79.9979 64.8967 79.8111C64.7197 79.5776 64.5229 79.5499 64.3898 79.566C63.662 79.6564 62.9002 81.3315 62.8166 81.5226C62.7968 81.565 62.8039 81.6146 62.8336 81.651C62.8563 81.6773 62.8889 81.6919 62.9214 81.6919Z" fill="#FCF9F5"/>
<path d="M39.5678 55.5488C39.5678 55.5488 35.5464 52.6787 32.6577 59.0872C29.7691 65.4971 33.3869 69.1011 37.5104 67.0962C41.6338 65.0914 39.936 57.326 39.936 57.326L39.5678 55.5488Z" fill="black"/>
<path d="M45.31 57.4672C45.31 57.4672 45.8707 55.779 45.688 55.0714C45.5054 54.3651 42.5912 52.4698 40.3639 53.7961C38.1365 55.121 38.2484 58.2829 38.8827 59.5363C40.5168 62.7667 43.1888 60.9706 43.1888 60.9706C43.1888 60.9706 47.5359 59.1642 45.31 57.4672Z" fill="black"/>
<path d="M38.7209 80.1919C38.7209 80.1919 36.8192 67.2364 37.4323 66.2442C39.3241 63.183 45.5984 61.8172 48.5777 63.4558C50.4425 64.4816 49.8549 68.0097 50.628 73.801C51.0628 77.0592 51.1123 78.2527 51.1123 78.2527L38.7209 80.1919Z" fill="#889782"/>
<path d="M45.2307 61.293L45.2378 61.3587L45.3397 62.5858L45.4219 63.5474C45.4219 63.5474 45.5295 63.7589 44.4392 63.8304C42.9793 63.9224 42.4313 63.3431 42.4313 63.3431L42.0872 61.1106L42.5375 61.1369L45.2307 61.293Z" fill="#FF9981"/>
<path d="M45.2389 61.3586L45.3408 62.5858C44.6257 62.5916 43.3046 62.4486 42.6447 61.3776C42.5923 61.2901 42.5555 61.2098 42.5385 61.1427L45.2332 61.3397L45.2389 61.3586Z" fill="black"/>
<path d="M44.9625 55.4596C44.9625 55.4596 46.7085 58.4552 46.4494 60.3039C46.1888 62.1526 44.576 62.084 43.5876 61.8651C42.6006 61.6463 42.0881 61.1079 42.0881 61.1079C42.0881 61.1079 41.2455 61.5339 40.5488 60.7693C39.8522 60.0033 40.0929 58.9848 40.5687 58.6945C41.0445 58.4041 41.6901 58.6988 41.6901 58.6988L41.1039 57.8394C41.1039 57.8394 42.4874 52.8843 44.9625 55.4596Z" fill="#FF9981"/>
<path d="M41.6885 58.6987C41.6885 58.6987 42.9488 57.8174 43.3169 56.7567C43.6851 55.6959 43.6426 55.1925 43.6426 55.1925C43.6426 55.1925 43.9187 55.8228 44.4271 55.9147C44.9369 56.0067 45.2441 55.9848 45.2441 55.9848L45.6689 56.8763L45.1988 54.6818C45.1988 54.6818 43.7814 54.1186 43.6044 54.1405C43.426 54.1638 41.2298 54.8627 41.1165 55.0188C41.0032 55.175 40.509 57.0631 40.509 57.0631L40.5572 57.8816L41.6885 58.6987Z" fill="black"/>
<path d="M52.0792 89.9746C52.0877 89.9746 52.0962 89.9739 52.1033 89.972C52.167 89.9583 52.2067 89.8947 52.1939 89.8299C51.9914 88.8396 50.9407 88.6313 50.6009 88.5896C50.5726 88.2181 50.4182 86.9764 49.6366 86.2762C48.7077 85.4417 47.3384 86.2283 47.279 86.2623C47.2237 86.295 47.2039 86.3681 47.2351 86.4256C47.2691 86.4831 47.3384 86.5031 47.3937 86.4707C47.4078 86.463 48.6794 85.7335 49.4837 86.4568C50.3135 87.2005 50.3743 88.6885 50.3743 88.7037C50.3772 88.7657 50.4253 88.8158 50.4848 88.8191C50.4975 88.8199 51.7649 88.901 51.9659 89.8793C51.9773 89.936 52.0254 89.9746 52.0792 89.9746Z" fill="white"/>
<path d="M25.7703 92.8484H41.958V79.8839H25.7703V92.8484Z" fill="#D5BD99"/>
<path d="M35.6698 86.3664C35.6698 89.9464 38.4862 92.8484 41.9597 92.8484C45.4345 92.8484 48.251 89.9464 48.251 86.3664C48.251 82.786 45.4345 79.8839 41.9597 79.8839C38.4862 79.8839 35.6698 82.786 35.6698 86.3664Z" fill="#F3E1CA"/>
<path d="M39.1668 86.3666C39.1668 87.956 40.4171 89.2444 41.9591 89.2444C43.5026 89.2444 44.7529 87.956 44.7529 86.3666C44.7529 84.7779 43.5026 83.4895 41.9591 83.4895C40.4171 83.4895 39.1668 84.7779 39.1668 86.3666Z" fill="#D5BD99"/>
<path d="M44.202 63.9807C45.1946 63.9807 45.8658 63.597 45.9069 63.5722C45.9635 63.5386 45.9819 63.4656 45.9508 63.4087C45.9182 63.3504 45.8488 63.3314 45.7922 63.3635C45.778 63.3723 44.2898 64.22 42.4858 63.3241C42.4263 63.2949 42.3584 63.3212 42.33 63.3796C42.3031 63.4394 42.3272 63.5109 42.3853 63.5401C43.0522 63.8713 43.6724 63.9807 44.202 63.9807Z" fill="#FCA235"/>
<path d="M50.7002 74.4153C50.781 74.4036 50.8248 74.3423 50.8163 74.2767L50.3845 71.3467C50.4425 71.1702 50.7073 70.2801 50.5105 68.9567C50.2967 67.5064 49.1242 65.878 49.0747 65.8094C49.0364 65.7554 48.9628 65.7452 48.9118 65.7846C48.8608 65.824 48.8495 65.8984 48.8878 65.9524C48.9005 65.9685 50.0758 67.6027 50.2811 68.9932C50.4864 70.3779 50.1593 71.2826 50.1551 71.2913C50.148 71.3103 50.1466 71.3322 50.1494 71.3526L50.5855 74.3131C50.594 74.373 50.6436 74.4153 50.7002 74.4153Z" fill="black"/>
<path d="M17.1722 86.2089C18.7567 89.4953 21.3706 91.4785 23.0117 90.6389C24.6515 89.7994 24.6982 86.4545 23.1137 83.1684C21.5292 79.8825 18.9153 77.8981 17.2741 78.7385C15.6344 79.5775 15.5891 82.9233 17.1722 86.2089Z" fill="white"/>
<path d="M34.0969 85.9727C30.9944 87.7728 29.2074 90.5653 30.1052 92.21C31.0043 93.8549 34.2484 93.7288 37.3509 91.9287C40.4548 90.1286 42.2417 87.3361 41.3426 85.6914C40.4448 84.047 37.2008 84.1725 34.0969 85.9727Z" fill="white"/>
<path d="M34.7458 99.2556C37.3555 98.8498 39.3082 97.3992 39.1057 96.0153C38.9032 94.6318 36.622 93.8391 34.0123 94.2449C31.4012 94.6509 29.4499 96.1016 29.6524 97.4851C29.8549 98.8688 32.1347 99.6614 34.7458 99.2556Z" fill="white"/>
<path d="M19.68 89.7792C16.8366 87.5705 13.6379 87.0021 12.5348 88.5093C11.4331 90.0166 12.8435 93.0288 15.6883 95.2375C18.5316 97.4461 21.7303 98.0146 22.8334 96.5073C23.9351 95.0002 22.5247 91.988 19.68 89.7792Z" fill="white"/>
<path d="M26.6947 101.751C26.7443 101.751 26.791 101.718 26.8066 101.667C28.6785 95.4224 35.1426 96.3633 35.2063 96.3735C35.2686 96.3815 35.3295 96.3386 35.3394 96.2731C35.3493 96.2077 35.3055 96.1467 35.2417 96.1365C35.1752 96.1253 28.5157 95.1576 26.5843 101.596C26.5645 101.659 26.5999 101.726 26.6608 101.746C26.6721 101.749 26.6834 101.751 26.6947 101.751Z" fill="#DDD7E0"/>
<path d="M26.1548 101.281C26.2087 101.281 26.2554 101.244 26.2681 101.189C27.9957 93.5509 34.4626 89.2153 34.5277 89.1721C34.5815 89.1367 34.5971 89.0624 34.5631 89.0067C34.5277 88.9509 34.4555 88.9347 34.4017 88.9703C34.3365 89.0137 27.7917 93.3992 26.0416 101.134C26.0274 101.199 26.0656 101.263 26.1279 101.278C26.1364 101.28 26.1463 101.281 26.1548 101.281Z" fill="#DDD7E0"/>
<path d="M26.5913 104.36C26.6493 104.36 26.6989 104.316 26.7074 104.256C27.6363 96.7601 20.0423 83.291 19.9658 83.1568C19.9332 83.0999 19.8624 83.0809 19.8072 83.113C19.752 83.1466 19.7336 83.221 19.7647 83.2779C19.8412 83.4121 27.3942 96.8106 26.4766 104.225C26.4681 104.291 26.5134 104.351 26.5771 104.359C26.5828 104.36 26.587 104.36 26.5913 104.36Z" fill="#DDD7E0"/>
<path d="M25.8305 100.731C25.9098 100.721 25.9537 100.66 25.9452 100.595C25.9382 100.539 25.1225 94.9678 16.39 90.8375C16.332 90.8096 16.2626 90.8362 16.2357 90.8963C16.2088 90.9564 16.2357 91.0276 16.2937 91.0553C24.8988 95.1257 25.7088 100.572 25.7144 100.627C25.7229 100.687 25.7725 100.731 25.8305 100.731Z" fill="#DDD7E0"/>
<path d="M21.6154 112.325H28.9574C29.3553 112.325 29.6881 112.033 29.7277 111.65L30.8506 100.629C30.8959 100.189 30.5377 99.8071 30.0803 99.8071H20.4925C20.0352 99.8071 19.6784 100.189 19.7223 100.629L20.8451 111.65C20.8848 112.033 21.2176 112.325 21.6154 112.325Z" fill="#D5BD99"/>
<path d="M23.2407 112.325H30.5812C30.9805 112.325 31.3133 112.033 31.3515 111.65L32.4758 100.629C32.5197 100.189 32.1629 99.8071 31.7055 99.8071H22.1178C21.6604 99.8071 21.3021 100.189 21.3474 100.629L22.4704 111.65C22.51 112.033 22.8428 112.325 23.2407 112.325Z" fill="#F3E1CA"/>
<path d="M41.8418 60.26C41.8758 60.26 41.9084 60.2454 41.9324 60.2162C41.9721 60.1652 41.965 60.0893 41.9154 60.047L40.8676 59.1613C40.818 59.119 40.7444 59.1263 40.7033 59.1773C40.6637 59.2284 40.6708 59.3043 40.7204 59.3466L41.7682 60.2323C41.7894 60.2513 41.8163 60.26 41.8418 60.26Z" fill="black"/>
<path d="M40.7853 60.1125C40.8051 60.1111 41.5287 59.9754 41.5287 59.9754C41.5924 59.9637 41.6335 59.9024 41.6221 59.8368C41.6108 59.7711 41.5542 59.7288 41.4876 59.7405L40.7641 59.8747C40.7003 59.8864 40.6593 59.9491 40.6706 60.0148C40.6805 60.0717 40.7287 60.1125 40.7853 60.1125Z" fill="black"/>
<path d="M43.2206 57.1128C43.2333 57.1128 43.2461 57.1113 43.2588 57.107L44.0107 56.8399C44.0716 56.8181 44.1027 56.7495 44.0829 56.6867C44.0603 56.624 43.9937 56.5919 43.9342 56.6123L43.1823 56.8793C43.1215 56.9012 43.0903 56.9698 43.1101 57.0325C43.1271 57.0822 43.1724 57.1128 43.2206 57.1128Z" fill="black"/>
<path d="M60.5615 80.5581C60.6124 80.5581 60.6592 80.5231 60.6733 80.4691C60.679 80.4472 61.2539 78.2294 59.4471 77.5056C57.9065 76.8884 56.7269 78.0411 56.4211 78.3811C56.1817 78.1943 55.4879 77.7274 54.5746 77.7114C54.559 77.7099 54.5434 77.7099 54.5279 77.7099C53.4021 77.7099 53.2011 78.4716 53.1926 78.5051C53.177 78.5693 53.2152 78.6335 53.2775 78.6496C53.3384 78.6671 53.4021 78.6277 53.4191 78.5635C53.4248 78.5387 53.5905 77.9507 54.5279 77.9507C54.542 77.9507 54.5562 77.9507 54.5703 77.9507C55.6012 77.9696 56.3531 78.6292 56.3602 78.6364C56.3843 78.6583 56.4154 78.6671 56.4466 78.6642C56.4791 78.6612 56.5074 78.6452 56.5273 78.6204C56.5768 78.5562 57.7379 77.0781 59.3635 77.7289C60.9721 78.3738 60.4708 80.3232 60.4482 80.4049C60.4326 80.4691 60.468 80.5348 60.5303 80.5523C60.5402 80.5566 60.5515 80.5581 60.5615 80.5581Z" fill="#FCF9F5"/>
<path d="M44.964 56.7683C44.9725 56.7683 45.5474 56.7231 45.5474 56.7231C45.6111 56.7187 45.6593 56.6603 45.655 56.5947C45.6493 56.529 45.5955 56.475 45.5304 56.4838L44.9555 56.529C44.8918 56.5334 44.8436 56.5918 44.8479 56.6574C44.8536 56.7202 44.9031 56.7683 44.964 56.7683Z" fill="black"/>
<path d="M45.115 59.3728C45.166 59.3728 45.2127 59.3392 45.2269 59.2867C45.445 58.4988 44.8729 57.8086 44.8488 57.7794C44.8078 57.7298 44.7327 57.724 44.6846 57.7678C44.6364 57.8115 44.6308 57.886 44.6732 57.937C44.6789 57.9429 45.1858 58.5586 45.0032 59.221C44.9862 59.2838 45.0216 59.3509 45.0839 59.3684C45.0938 59.3713 45.1051 59.3728 45.115 59.3728Z" fill="black"/>
<path d="M43.7859 58.4668C43.7944 58.4668 43.8043 58.4653 43.8142 58.4624C43.8765 58.4464 43.9148 58.3807 43.8978 58.3165L43.7661 57.781L43.9912 57.53C44.0351 57.4804 44.0323 57.4045 43.9856 57.3608C43.9374 57.3155 43.8638 57.3185 43.8199 57.3666L43.5523 57.6657C43.5254 57.6949 43.514 57.7372 43.5239 57.7766L43.6726 58.3763C43.6854 58.4303 43.7335 58.4668 43.7859 58.4668Z" fill="black"/>
<path d="M45.6004 58.1121C45.6103 58.1121 45.6188 58.1106 45.6287 58.1077C45.691 58.0916 45.7292 58.0274 45.7122 57.9632L45.5805 57.4263L45.8057 57.1753C45.8496 57.1272 45.8467 57.0513 45.8 57.0061C45.7519 56.9608 45.6797 56.9637 45.6344 57.0119L45.3667 57.311C45.3398 57.3402 45.3299 57.3825 45.3398 57.4219L45.4871 58.0216C45.5012 58.0756 45.548 58.1121 45.6004 58.1121Z" fill="black"/>
<path d="M69.9666 108.124C69.9666 108.124 69.5801 105.94 68.5733 105.836C67.5679 105.732 66.1264 108.124 66.1264 108.124C66.1264 108.124 62.1956 107.812 61.9181 108.124C61.6405 108.437 61.6405 115.302 61.9181 115.406C62.1956 115.51 78.4952 115.51 79.2372 115.406C79.9778 115.302 78.9172 111.765 77.4559 111.141C75.996 110.517 74.4214 110.515 74.4214 110.515L69.9666 108.124Z" fill="#FFAF45"/>
<path d="M82.6844 87.0474C82.6844 87.0474 81.0589 85.5907 80.2093 86.1567C79.3611 86.7226 79.6853 89.5187 79.6853 89.5187C79.6853 89.5187 76.4271 91.8039 76.3988 92.2263C76.3705 92.649 80.5307 98.011 80.8111 97.9135C81.0914 97.8159 93.8213 87.3273 94.3382 86.7693C94.8536 86.2114 91.8814 84.1315 90.3634 84.5839C88.8426 85.0362 87.6135 86.0477 87.6135 86.0477L82.6844 87.0474Z" fill="#FFAF45"/>
<path d="M64.9956 84.3896C65.0169 84.3896 65.0381 84.3838 65.0579 84.3707C65.1117 84.3371 65.1287 84.2627 65.0947 84.2058C65.0197 84.0818 63.244 81.1533 61.7459 80.6674C60.2803 80.1932 54.0981 79.1208 53.8347 79.0755C53.7724 79.0653 53.7115 79.1091 53.7016 79.1733C53.6903 79.239 53.7327 79.3002 53.7964 79.3119C53.8616 79.3236 60.2265 80.4267 61.6751 80.8965C63.0925 81.3561 64.8795 84.3036 64.8965 84.3327C64.9192 84.3692 64.9574 84.3896 64.9956 84.3896Z" fill="#D5BD99"/>
<path d="M53.4427 85.8428C55.0329 85.8431 55.7395 83.809 55.8825 83.3407C56.1827 83.348 57.1952 83.3027 57.5647 82.5177C57.998 81.6 56.6302 80.1671 56.5707 80.1073C56.5268 80.0606 56.4518 80.0591 56.4064 80.1058C56.3611 80.1525 56.3611 80.2284 56.4064 80.2765C56.7718 80.6559 57.6554 81.778 57.3552 82.4141C56.9927 83.1802 55.816 83.097 55.8061 83.097C55.748 83.0956 55.6984 83.1306 55.6843 83.1846C55.6772 83.2108 54.9961 85.7424 53.2941 85.5965C51.6062 85.4476 51.4872 82.9774 51.4858 82.9526C51.4844 82.9044 51.4547 82.8606 51.4108 82.8446C51.364 82.8285 51.3145 82.8402 51.2848 82.8767C51.2791 82.8811 50.7934 83.4224 50.2199 83.4428C49.9438 83.4559 49.7073 83.348 49.485 83.1306C48.6354 82.2974 49.924 80.278 49.9367 80.2576C49.9721 80.2021 49.9594 80.1277 49.9056 80.0912C49.8518 80.0548 49.7795 80.0693 49.7441 80.1248C49.6861 80.2153 48.3352 82.3353 49.325 83.3042C49.5955 83.5683 49.9098 83.6952 50.2298 83.6836C50.6773 83.6661 51.0625 83.3961 51.2777 83.2108C51.3612 83.8835 51.7294 85.6986 53.2728 85.8358C53.3309 85.8401 53.3875 85.8428 53.4427 85.8428Z" fill="white"/>
<path d="M48.5011 76.4594C48.5011 76.4594 50.0233 76.7877 50.778 76.922C51.9179 77.1248 54.1637 78.0805 55.0657 78.4672C55.9677 78.8524 57.7872 80.8806 57.4063 81.0819C57.0268 81.2818 55.0714 80.0591 55.0714 80.0591C55.0714 80.0591 56.231 82.2726 55.8544 82.4987C55.4791 82.7264 54.9552 82.1237 54.9552 82.1237C54.9552 82.1237 55.3305 82.7935 54.7528 82.8008C54.175 82.8095 52.6825 80.6792 52.6825 80.6792C52.6825 80.6792 53.0804 82.5162 52.6712 82.5571C52.262 82.5965 51.3487 80.7434 51.3487 80.7434C51.3487 80.7434 49.2105 81.4555 48.4926 80.1496C47.7732 78.8451 47.7605 78.0017 47.7605 78.0017L48.5011 76.4594Z" fill="#FF9981"/>
<path d="M39.4697 64.3371C39.4697 64.3371 31.6193 69.2762 34.3806 76.9468C36.421 82.617 47.7618 80.0591 47.7618 80.0591L50.8076 75.2061C50.8076 75.2061 43.6497 71.7903 43.0904 71.5802C42.0086 71.1745 39.4697 64.3371 39.4697 64.3371Z" fill="#889782"/>
<path d="M44.2592 73.8708C44.3088 73.8708 44.3555 73.8373 44.3711 73.7862C44.3895 73.722 44.3541 73.6564 44.2932 73.6359C44.2706 73.6286 41.9469 72.9064 38.431 72.1403C38.3658 72.1272 38.3064 72.1681 38.2936 72.2323C38.2795 72.2979 38.3205 72.3607 38.3828 72.3753C41.8888 73.1384 44.2026 73.8592 44.2253 73.8665C44.2366 73.8694 44.2479 73.8708 44.2592 73.8708Z" fill="black"/>
<path d="M39.3699 71.2607C39.7282 71.2607 40.3441 71.9159 40.8143 72.5374C39.9335 71.9844 39.2637 71.4504 39.2623 71.284C39.2652 71.284 39.2736 71.2797 39.2892 71.2738C39.3147 71.2651 39.3416 71.2607 39.3699 71.2607ZM41.2419 73.054C41.2745 73.054 41.3056 73.0408 41.3268 73.016C41.3637 72.9752 41.3693 72.9124 41.3382 72.8672C41.1966 72.6542 39.9363 70.804 39.2156 71.0462C39.0683 71.0973 39.0372 71.2009 39.0315 71.2578C38.989 71.7072 40.5226 72.6527 41.1852 73.0394C41.2022 73.0496 41.2221 73.054 41.2419 73.054Z" fill="black"/>
<path d="M54.9546 82.2434C54.9745 82.2434 54.9943 82.239 55.0113 82.2288C55.0679 82.1967 55.0877 82.1238 55.0566 82.0654L53.6689 79.4871C53.6363 79.4288 53.5655 79.4083 53.5103 79.4404C53.4537 79.4725 53.4339 79.5455 53.465 79.6024L54.8541 82.1821C54.8753 82.2215 54.915 82.2434 54.9546 82.2434Z" fill="black"/>
<path d="M55.0718 80.1787C55.0916 80.1787 55.1101 80.1729 55.1285 80.1627C55.1851 80.1306 55.2049 80.0576 55.1738 80.0007L54.6739 79.0727C54.6428 79.0143 54.572 78.9939 54.5167 79.026C54.4601 79.0581 54.4403 79.1311 54.4714 79.1894L54.9699 80.116C54.9911 80.1554 55.0308 80.1787 55.0718 80.1787Z" fill="black"/>
<path d="M54.1685 66.9329C54.4857 67.9076 54.7788 69.1391 54.5692 69.4849C54.5423 69.5301 54.5097 69.552 54.463 69.5564C54.4163 69.5622 54.3766 69.5462 54.3384 69.5053C54.0368 69.1828 54.0892 67.82 54.1685 66.9329ZM54.4474 69.7971C54.4602 69.7971 54.4729 69.7957 54.4857 69.7942C54.6046 69.7825 54.7023 69.7198 54.7675 69.6118C55.1526 68.9742 54.3157 66.6221 54.218 66.3565C54.1996 66.3054 54.1543 66.2748 54.0963 66.2792C54.0425 66.2865 54.0014 66.3288 53.9943 66.3828C53.9575 66.6615 53.6573 69.1215 54.1713 69.6716C54.2478 69.7533 54.3426 69.7971 54.4474 69.7971Z" fill="black"/>
<path d="M59.4065 66.0002C60.5251 65.7872 60.923 63.4658 60.9386 63.3665C60.9499 63.3009 60.9075 63.2396 60.8437 63.2279C60.7814 63.2162 60.7205 63.2615 60.7106 63.3257C60.7064 63.349 60.3241 65.5815 59.3838 65.7624C59.3215 65.7741 59.2791 65.8368 59.2918 65.9025C59.3017 65.9594 59.3513 66.0002 59.4065 66.0002Z" fill="black"/>
<path d="M59.653 106.676C59.6841 106.676 59.7153 106.663 59.7394 106.637C59.8059 106.561 61.3819 104.763 61.1639 102.671C60.9826 100.935 59.6672 100.503 59.1687 100.401C59.5383 99.7975 60.698 97.5997 59.5086 95.4824C58.1039 92.9829 55.7703 94.1142 55.7463 94.126C55.6882 94.1549 55.6641 94.2265 55.6924 94.2861C55.7208 94.3458 55.7916 94.3694 55.8482 94.3418C55.936 94.2978 58.0118 93.2987 59.3061 95.6026C60.6187 97.9369 58.8954 100.395 58.8784 100.419C58.853 100.455 58.8487 100.501 58.8657 100.541C58.8841 100.581 58.9209 100.607 58.9634 100.61C59.0356 100.616 60.7306 100.763 60.9331 102.697C61.1398 104.679 59.5836 106.457 59.5666 106.475C59.5241 106.524 59.527 106.6 59.5737 106.644C59.5964 106.666 59.6247 106.676 59.653 106.676Z" fill="white"/>
<path d="M63.6907 91.3951C63.6822 91.3951 63.6736 91.3959 63.6652 91.3978C63.6227 91.4078 63.5901 91.4407 63.5788 91.4836C63.5703 91.5121 62.8113 94.3269 61.2169 93.971C60.8813 93.8961 60.6264 93.7111 60.4579 93.421C59.9326 92.5179 60.3786 90.8851 60.3829 90.8688C60.3928 90.8316 60.3857 90.7914 60.3616 90.7609C60.3376 90.7304 60.3007 90.7151 60.2639 90.7161C60.2441 90.7167 58.1286 90.8243 57.32 89.9539C57.0836 89.6983 56.9859 89.3907 57.0213 89.0132C57.2054 87.1034 60.4891 86.8324 60.5216 86.8301C60.5853 86.8253 60.6321 86.7692 60.6293 86.7042C60.6009 86.1319 60.6363 84.5487 61.1447 84.1066C61.2664 84.0001 61.4081 83.9666 61.5794 84.006C62.7264 84.2671 62.8127 86.3696 62.8127 86.3906C62.8141 86.4274 62.8326 86.4613 62.8609 86.4831C62.8892 86.5048 62.9274 86.5107 62.96 86.5021C62.9784 86.4968 64.7881 86.001 65.4125 87.3371C66.0327 88.6629 64.6096 89.5364 64.5502 89.5731C64.5162 89.5928 64.4949 89.6281 64.4921 89.667C64.4893 89.7063 64.5048 89.7444 64.5346 89.7693C64.5516 89.7839 66.2536 91.241 65.758 92.2892C65.6745 92.4636 65.564 92.5578 65.4196 92.5765C64.8971 92.6445 64.0602 91.7769 63.7799 91.4372C63.7572 91.4102 63.7246 91.3951 63.6907 91.3951ZM61.5043 94.2434C62.8368 94.2436 63.5406 92.3883 63.7416 91.7527C64.0602 92.1026 64.8433 92.8949 65.4493 92.8143C65.6745 92.785 65.8486 92.6438 65.9662 92.3944C66.4646 91.3438 65.2044 90.063 64.7994 89.6892C65.1817 89.4077 66.214 88.4971 65.6221 87.2331C65.0217 85.9502 63.5038 86.1456 63.0365 86.2388C62.9954 85.7263 62.7731 84.0322 61.629 83.771C61.3882 83.7156 61.1744 83.7667 60.9946 83.9228C60.38 84.4597 60.38 86.1398 60.3928 86.6014C59.7825 86.6662 56.9745 87.0689 56.7905 88.9898C56.7466 89.4347 56.8684 89.8148 57.153 90.1199C57.9077 90.9331 59.5984 90.9699 60.1195 90.9605C60.0161 91.4121 59.7768 92.716 60.2583 93.5439C60.4607 93.8932 60.7666 94.116 61.1688 94.2052C61.2849 94.2311 61.3967 94.2434 61.5043 94.2434Z" fill="white"/>
<path d="M70.0054 105.713C70.0493 105.713 70.0931 105.713 70.137 105.711C70.2008 105.708 70.2517 105.653 70.2489 105.586C70.2461 105.52 70.1965 105.473 70.1286 105.471C69.4489 105.499 68.9391 105.313 68.6134 104.927C68.0258 104.229 68.2155 103.084 68.2169 103.072C68.2283 103.009 68.1886 102.948 68.1263 102.934C68.1008 102.928 65.494 102.343 65.1074 101.148C64.7279 99.9702 66.6225 98.4958 66.6424 98.4809C66.6693 98.4606 66.6862 98.4295 66.6877 98.3952C66.6905 98.3614 66.6792 98.3275 66.6565 98.3029C66.6494 98.2941 65.8763 97.4411 65.923 96.8019C65.9358 96.6293 66.008 96.4919 66.1439 96.3825C66.7599 95.8866 68.4152 96.8897 69 97.3181C69.0524 97.3556 69.126 97.3435 69.1628 97.2894C69.1997 97.2355 69.1869 97.1607 69.1345 97.1223C69.0439 97.0552 66.8802 95.4875 66.0009 96.1934C65.8126 96.3447 65.7092 96.5435 65.6908 96.7841C65.6455 97.395 66.1878 98.1105 66.403 98.3691C65.991 98.7088 64.5042 100.039 64.8865 101.224C65.2717 102.416 67.4565 103.017 67.972 103.144C67.9351 103.471 67.8856 104.427 68.4364 105.083C68.789 105.501 69.3172 105.713 70.0054 105.713Z" fill="white"/>
<path d="M63.1552 76.9731C63.2204 76.9731 63.2869 76.9688 63.3549 76.9586C64.499 76.7995 64.887 76.0714 65.0031 75.7592C65.5044 75.9941 67.3679 76.7835 67.9116 75.8453C68.5077 74.818 67.6751 73.1546 67.6397 73.0846C67.6086 73.0262 67.5392 73.0029 67.4811 73.0335C67.4245 73.0642 67.4032 73.1371 67.433 73.1955C67.4415 73.2115 68.2415 74.8107 67.712 75.7227C67.2914 76.4493 65.6007 75.7985 64.9833 75.4863C64.9521 75.4688 64.9139 75.4688 64.8828 75.4848C64.8502 75.5009 64.8261 75.5315 64.819 75.5666C64.8105 75.6074 64.5897 76.5442 63.3237 76.7222C62.0649 76.89 61.3626 74.9683 61.3555 74.9493C61.3428 74.9129 61.313 74.8852 61.2776 74.8749C61.2408 74.8647 61.2026 74.872 61.1728 74.8968C61.17 74.8997 60.8769 75.1332 60.4875 75.0632C60.1349 75.0004 59.805 74.7203 59.5048 74.2315C59.4708 74.176 59.3986 74.1585 59.3448 74.1935C59.2895 74.23 59.274 74.303 59.308 74.3599C59.645 74.9114 60.0301 75.2266 60.4521 75.2995C60.7806 75.3564 61.0426 75.2499 61.1898 75.1682C61.3753 75.6147 62.0309 76.9731 63.1552 76.9731Z" fill="#FCF9F5"/>
<path d="M79.6812 96.8701C79.7066 96.8701 79.7322 96.862 79.7534 96.8449L93.6203 85.6883C93.6713 85.6475 93.6798 85.5731 93.6401 85.5205C93.6005 85.468 93.5283 85.4578 93.4773 85.5001L79.6089 96.6556C79.5594 96.6963 79.5495 96.7718 79.5891 96.824C79.6132 96.8542 79.6472 96.8701 79.6812 96.8701Z" fill="white"/>
<path d="M61.747 113.964H79.297C79.3607 113.964 79.4131 113.91 79.4131 113.844C79.4131 113.778 79.3607 113.724 79.297 113.724H61.747C61.6819 113.724 61.6295 113.778 61.6295 113.844C61.6295 113.91 61.6819 113.964 61.747 113.964Z" fill="white"/>
<path d="M47.762 80.1787C47.7974 80.1787 47.8328 80.1626 47.8555 80.1305C47.8937 80.0795 47.8838 80.0036 47.8342 79.9628C47.8286 79.9598 47.3627 79.5863 47.4307 79.2157C47.4392 79.1632 47.4646 79.1252 47.51 79.0946C47.6884 78.972 48.0877 79.0275 48.225 79.0581C48.2831 79.0698 48.3369 79.0391 48.3581 78.9851C48.3794 78.9297 48.3581 78.8684 48.3086 78.8378C48.3001 78.8319 47.408 78.2891 47.4533 77.6792C47.4576 77.6223 47.4831 77.5771 47.5326 77.5392C47.8682 77.2853 48.9769 77.4691 49.3763 77.5625C49.4258 77.5727 49.4782 77.5508 49.5037 77.5041C49.5292 77.4589 49.5221 77.402 49.4867 77.3626C49.2488 77.1029 48.6612 76.315 48.7943 75.8145C48.8127 75.743 48.8552 75.6919 48.9231 75.6584C49.2701 75.4818 50.1069 75.7693 50.4 75.8947C50.4595 75.921 50.5275 75.8904 50.553 75.8291C50.577 75.7678 50.5487 75.6978 50.4892 75.6729C50.3717 75.6219 49.3225 75.19 48.8212 75.4424C48.6938 75.5066 48.606 75.6146 48.5691 75.7517C48.4332 76.2639 48.8353 76.9074 49.1015 77.2634C48.6173 77.1788 47.7521 77.0752 47.3953 77.3466C47.2905 77.4253 47.231 77.5348 47.2211 77.6617C47.1871 78.1243 47.5411 78.5285 47.83 78.778C47.6742 78.7823 47.5057 78.8101 47.3825 78.8932C47.2848 78.9603 47.2225 79.0567 47.2013 79.1719C47.1078 79.687 47.6685 80.1349 47.6926 80.1539C47.7124 80.17 47.7379 80.1787 47.762 80.1787Z" fill="black"/>
<path d="M60.2596 68.6443C60.9492 68.6443 61.7407 68.0431 61.7804 68.0139C61.8313 67.9731 61.8427 67.8987 61.8044 67.8461C61.7662 67.7922 61.6926 67.7819 61.6416 67.8213C61.6303 67.8301 60.5711 68.6326 59.9608 68.3437C59.8603 68.297 59.7937 68.2211 59.7583 68.1132C59.6337 67.7382 59.9013 67.0757 60.016 66.851C60.0358 66.8102 60.033 66.7606 60.0061 66.7241C59.9792 66.6876 59.9367 66.6686 59.89 66.6774C59.5388 66.7489 58.5434 66.8875 58.1695 66.6891C58.1228 66.6643 58.0959 66.6278 58.0832 66.5723C58.0152 66.2761 58.3791 65.6721 58.5264 65.4649C58.5547 65.424 58.5561 65.3686 58.5278 65.3263C58.4995 65.2839 58.4499 65.265 58.4018 65.2781C57.9274 65.4123 57.1826 65.5013 57.0877 65.2708C56.9291 64.8914 57.1599 64.3939 57.1614 64.388C57.1897 64.3297 57.1656 64.2567 57.1075 64.229C57.0509 64.1998 56.9815 64.2246 56.9532 64.2844C56.9404 64.3078 56.6742 64.8856 56.8739 65.3656C57.0339 65.7509 57.7462 65.6691 58.1738 65.5801C58.0067 65.8647 57.7844 66.317 57.8566 66.6278C57.8849 66.7504 57.9557 66.8452 58.0633 66.9021C58.4598 67.1122 59.3108 67.0145 59.7144 66.9517C59.5912 67.2508 59.4085 67.7995 59.5374 68.1905C59.5955 68.3627 59.7045 68.4882 59.8645 68.5626C59.9877 68.6195 60.1222 68.6443 60.2596 68.6443Z" fill="black"/>
<path d="M44.8043 60.5293C44.7429 60.5293 44.6855 60.4891 44.6648 60.4257C44.6392 60.3467 44.6809 60.261 44.7578 60.234L45.5846 59.9502C45.6622 59.9244 45.7449 59.9668 45.7706 60.0462C45.7962 60.1255 45.7545 60.211 45.6776 60.2377L44.8508 60.5217C44.8352 60.5269 44.8198 60.5293 44.8043 60.5293Z" fill="black"/>
<path d="M127.801 115.844L131.162 118.315L133.14 118.009L133.735 115.844L129.729 112.712L127.801 115.844Z" fill="#EDEDED"/>
<path d="M106.497 125.395L106.25 122.811L102.432 121.982L102.889 125.062L106.3 125.395" fill="#EDEDED"/>
<path d="M101.086 53.6694C99.2298 54.1205 98.2075 65.9596 97.4272 66.7477C96.9901 67.1892 87.3439 69.7898 87.0663 69.8319C86.252 69.9548 86.7905 72.7921 87.5884 72.7485C87.8289 72.7357 99.364 70.806 100.12 70.3718C100.877 69.9376 103.024 64.0117 103.135 60.3016C103.181 58.7509 103.169 54.2982 101.086 53.6694Z" fill="#FFA383"/>
<path d="M101.317 63.4051C101.317 63.4051 99.4118 63.3379 98.3076 62.3647C98.3271 62.1296 98.3577 61.8576 98.3982 61.5588C98.4124 61.4546 98.1017 61.1431 98.1184 61.0329C98.5036 58.4683 99.5336 54.3361 100.851 53.5798L102.919 57.0743L101.317 63.4051Z" fill="#E6CFB0"/>
<path d="M132.839 114.783C133.19 114.332 133.418 115.068 133.692 115.258C133.881 115.388 135.289 115.893 136.148 116.197C136.537 116.333 136.598 116.575 136.593 116.91C136.562 118.874 133.993 125.24 131.536 125.058C130.816 125.006 130.558 123.454 130.99 121.559C131.26 120.379 130.802 119.745 130.206 118.31C129.99 117.788 130.494 117.51 132.207 117.665C133.449 117.777 132.489 115.233 132.839 114.783Z" fill="black"/>
<path d="M108.43 87.9753C108.987 92.6207 113.069 104.313 114.151 106.102C114.992 107.493 122.846 112.411 126.295 114.87C126.438 114.972 126.569 115.434 126.697 115.524C127.314 115.963 127.739 116.259 127.877 116.352C128.728 116.93 130.944 113.529 130.305 112.685C130.215 112.567 129.958 112.288 129.58 111.892C129.467 111.775 129.122 111.738 128.989 111.599C126.377 108.891 121.222 102.075 119.118 100.898C118.185 92.0983 118.241 84.572 116.779 79.3242C116.779 79.3242 109.577 81.7407 101.265 80.4516C100.293 89.3935 99.7483 99.5054 99.8061 103.781C99.8299 105.548 101.548 114.553 102.278 119.697C102.305 119.887 102.048 120.046 102.073 120.224C102.176 120.966 102.261 121.607 102.32 122.11C102.538 122.568 106.924 123.886 106.806 123.126C106.709 122.503 106.629 121.873 106.561 121.24C106.546 121.1 106.19 120.81 106.177 120.671C105.659 115.396 106.798 109.293 106.117 104.853L108.43 87.9753Z" fill="#E6CFB0"/>
<path d="M107.042 51.3049L111.334 51.2944L116.323 53.0751L116.897 63.5614C117.265 69.8765 116.598 76.724 118.208 82.8315C118.478 83.8582 100.621 83.9382 100.8 82.7847C101.38 79.0434 101.455 73.5723 101.319 69.8001C101.158 65.3573 101.075 60.911 100.938 56.4673C100.932 56.2685 100.719 53.6272 100.852 53.5803C100.853 53.5797 104.864 52.1771 104.864 52.1771L107.042 51.3049Z" fill="#E6CFB0"/>
<path d="M101.211 65.9713L100.994 61.6843L101.581 58.2896C101.581 58.2896 101.295 69.2692 101.407 72.7051L101.211 65.9713Z" fill="#EDEDED"/>
<path d="M106.934 125.481C106.938 125.943 106.934 125.481 106.91 125.802C106.894 126.023 107.145 127.453 107.302 128.323C107.374 128.716 107.245 129.009 106.942 129.031C105.54 129.134 101.793 129.421 100.917 129.437C99.852 129.457 97.8485 129.421 97.6525 128.996C97.3604 128.36 97.5116 127.166 99.6254 126.456C100.684 126.102 101.913 124.874 101.917 125.112C101.917 125.112 102.162 123.053 102.98 123.207C103.897 123.38 104.129 124.8 105.302 124.671C106.611 124.528 106.928 124.677 106.934 125.481Z" fill="black"/>
<path d="M101.906 128.525C102.456 128.864 103.171 128.991 104.039 128.134C104.907 127.278 107.205 127.782 107.157 127.505C107.207 127.795 107.258 128.081 107.302 128.323C107.374 128.716 107.245 129.009 106.942 129.031C105.54 129.134 101.793 129.421 100.917 129.437C99.852 129.457 97.8485 129.421 97.6525 128.996C97.5304 128.731 97.4884 128.367 97.6318 127.984C97.595 128.449 101.378 128.198 101.906 128.525Z" fill="#EDEDED"/>
<path d="M133.107 122.455C133.812 121.368 134.493 121.449 134.797 120.697C135.1 119.944 134.229 119.307 134.443 118.603C134.656 117.9 135.554 115.988 135.162 115.844C135.508 115.97 135.859 116.094 136.148 116.197C136.537 116.333 136.598 116.575 136.593 116.91C136.562 118.874 133.993 125.24 131.536 125.058C131.221 125.035 130.994 124.724 130.875 124.223C131.38 124.494 132.401 123.542 133.107 122.455Z" fill="#EDEDED"/>
<path opacity="0.5" d="M111.707 51.4278C111.707 51.4278 112.409 52.0187 112.105 54.0552C111.801 56.091 110.335 56.5873 109.487 56.3009C108.211 55.8696 108.181 54.3387 108.181 54.3387C108.181 54.3387 108.26 56.2624 106.984 56.4287C105.834 56.5787 104.277 54.4703 105.637 51.9827L108.795 51.2717L111.707 51.4278Z" fill="#C1C1C1"/>
<path d="M110.89 46.3907C110.577 48.4309 110.563 49.8714 111.335 51.2944C111.335 51.2944 110.503 54.2954 108.182 54.339C105.862 54.3824 105.979 52.0659 105.977 51.732L106.393 51.5654C106.393 51.5654 106.457 51.2931 106.33 50.1033C106.192 48.818 107.259 45.801 107.259 45.801L110.89 46.3907Z" fill="#FFA383"/>
<path d="M106.33 50.1029C107.001 50.1077 109.237 48.4573 109.369 48.0161C109.5 47.5746 109.823 46.6865 109.823 46.6865C109.823 46.6865 109.925 48.7746 109.101 49.8252C108.213 50.9563 106.408 51.3328 106.408 51.3328C106.408 51.3328 106.353 50.3463 106.33 50.1029Z" fill="#E5886E"/>
<path d="M111.552 44.0919C111.427 46.2468 109.63 47.8889 107.54 47.7602C105.448 47.6312 103.814 45.5686 103.939 43.4137C103.966 42.9486 103.974 42.1924 104.142 41.7878C105.165 39.3337 108.933 38.8788 110.876 41.1625C111.554 41.9595 111.608 43.1216 111.552 44.0919Z" fill="#FFA383"/>
<path d="M103.997 44.2988C103.996 46.363 104.895 49.8546 106.661 50.2725C107.49 50.4684 109.589 49.1035 109.778 47.6719C109.966 46.2416 110.163 44.6789 110.163 44.6789" fill="#FFA383"/>
<path d="M107.101 45.4181C107.114 45.7045 107.295 45.9284 107.501 45.9176C107.708 45.9064 107.863 45.6653 107.85 45.3789C107.836 45.0916 107.657 44.868 107.45 44.8788C107.244 44.8899 107.087 45.1308 107.101 45.4181Z" fill="black"/>
<path d="M104.302 45.5815C104.316 45.8676 104.496 46.0918 104.702 46.0807C104.91 46.0698 105.065 45.8281 105.051 45.542C105.037 45.2547 104.858 45.0311 104.651 45.0419C104.445 45.053 104.289 45.2942 104.302 45.5815Z" fill="black"/>
<path d="M105.296 47.4746C105.365 47.5084 105.738 47.6432 105.857 47.6202C105.978 47.5986 106.484 47.3906 106.51 47.3278C106.538 47.266 105.165 47.4103 105.296 47.4746Z" fill="#E5886E"/>
<path d="M107.129 44.154C107.126 44.1559 107.16 44.1451 107.192 44.147C107.224 44.1461 107.271 44.1432 107.328 44.1371C107.354 44.1317 107.383 44.1301 107.413 44.1301C107.442 44.1289 107.471 44.1183 107.502 44.1206C107.562 44.1253 107.624 44.104 107.686 44.1174C107.718 44.1209 107.749 44.1218 107.782 44.119C107.814 44.1247 107.844 44.1381 107.876 44.1429C107.908 44.1486 107.94 44.1537 107.97 44.1588C108.001 44.1626 108.028 44.1808 108.056 44.1897C108.166 44.2273 108.257 44.2477 108.257 44.2477L108.298 44.2569C108.382 44.2757 108.465 44.2203 108.484 44.1333C108.493 44.0881 108.483 44.0428 108.46 44.0075C108.46 44.0075 108.402 43.9212 108.29 43.7992C108.26 43.7718 108.232 43.7354 108.192 43.7087C108.15 43.6851 108.105 43.6603 108.058 43.6345C108.011 43.6093 107.96 43.5857 107.907 43.5653C107.852 43.552 107.793 43.5421 107.735 43.5348C107.676 43.5274 107.618 43.5156 107.56 43.5268C107.502 43.5357 107.446 43.5446 107.392 43.5532C107.288 43.5886 107.195 43.6297 107.127 43.6845C107.06 43.7364 107.008 43.7896 106.976 43.8367C106.94 43.8807 106.942 43.9033 106.938 43.9036C106.871 43.9578 106.859 44.0581 106.912 44.1273C106.965 44.1964 107.062 44.2085 107.129 44.154Z" fill="black"/>
<path d="M105.007 44.0075C105.007 44.0075 104.993 43.996 104.969 43.9757C104.946 43.9588 104.862 43.926 104.788 43.9088C104.726 43.9008 104.651 43.8842 104.57 43.8887C104.489 43.8887 104.401 43.9059 104.316 43.9352C104.272 43.9454 104.23 43.9674 104.19 43.9922C104.15 44.0167 104.109 44.0381 104.074 44.0658C104.01 44.1327 103.954 44.2002 103.92 44.2633C103.863 44.4003 103.856 44.4927 103.856 44.4927C103.849 44.5783 103.911 44.6535 103.994 44.6605C104.024 44.6631 104.052 44.6564 104.077 44.6427L104.145 44.6057C104.145 44.6057 104.205 44.5723 104.251 44.52C104.263 44.507 104.286 44.5019 104.302 44.492C104.32 44.4834 104.334 44.47 104.35 44.4576C104.394 44.4439 104.427 44.4146 104.475 44.3984C104.523 44.3824 104.57 44.3601 104.621 44.3515C104.67 44.3308 104.718 44.3286 104.76 44.3187C104.79 44.3152 104.795 44.2907 104.83 44.2948C104.862 44.2971 104.881 44.2983 104.881 44.2983L104.898 44.2993C104.986 44.305 105.061 44.2365 105.067 44.1464C105.071 44.091 105.046 44.04 105.007 44.0075Z" fill="black"/>
<path d="M105.29 48.4201C105.344 48.2892 107.167 48.2175 107.295 48.2822C107.424 48.3472 106.762 49.1021 106.352 49.1356C106.034 49.1611 105.225 48.5753 105.29 48.4201Z" fill="white"/>
<path d="M110.961 50.428C111.346 50.7554 111.826 51.2314 111.86 52.3326C111.888 53.2025 111.751 55.0616 110.495 55.6509C108.842 56.4265 108.182 54.3388 108.182 54.3388C108.182 54.3388 111.564 53.8699 110.961 50.428Z" fill="#E6CFB0"/>
<path d="M106.397 51.1287C106.397 51.1287 105.957 51.38 105.638 51.983C105.309 52.6077 104.97 55.1694 106.319 55.8674C107.667 56.5656 108.183 54.339 108.183 54.339C108.183 54.339 106.636 54.4291 106.195 53.0024C105.974 52.2888 106.108 51.6473 106.393 51.5654C106.408 51.3329 106.397 51.1287 106.397 51.1287Z" fill="#E6CFB0"/>
<path opacity="0.5" d="M114.003 56.1196L111.298 62.5842L111.491 66.3545C111.491 66.3545 110.571 71.0697 110.259 71.3557C109.947 71.6415 101.533 72.9099 101.533 72.9099L110.646 72.0514L115.068 60.8602L114.003 56.1196Z" fill="#C1C1C1"/>
<path d="M98.1183 61.033C98.1183 61.033 100.118 62.1211 101.007 62.3842C101.007 62.3842 98.6203 61.6691 98.398 61.5589C98.4101 61.4528 98.0988 61.1604 98.1183 61.033Z" fill="#EDEDED"/>
<path d="M109.815 46.2324C109.332 46.1174 109.675 43.4327 108.897 43.0055C108.897 43.0055 111.096 41.6287 111.487 44.647C111.673 45.0318 110.741 47.5308 110.741 47.5308L110.611 46.4286C110.611 46.4286 111.521 45.5771 111.435 44.984C111.358 44.4514 110.897 44.3233 110.689 44.4237C110.161 44.6788 110.051 45.694 110.031 45.9922C110.011 46.2903 109.815 46.2324 109.815 46.2324Z" fill="#102B51"/>
<path d="M111.544 45.7383C111.414 46.427 110.84 47.2852 110.354 46.986C109.964 46.7446 110.277 44.6657 110.82 44.5874C111.404 44.5036 111.674 45.0486 111.544 45.7383Z" fill="#E5886E"/>
<path d="M111.488 44.6472C111.393 43.8795 111.104 42.7309 109.216 43.0246C104.789 43.7133 102.348 43.4441 101.924 43.0914C101.35 42.612 104.141 41.7876 104.141 41.7876C104.141 41.7876 104.617 39.1201 107.91 38.9886C109.473 38.9258 110.676 39.8674 111.306 40.8616C112.004 41.9619 111.986 43.5849 111.488 44.6472Z" fill="#E6CFB0"/>
<path opacity="0.5" d="M104.143 41.7877C103.912 42.5172 107.214 42.7437 109.37 42.3783C109.37 42.3783 103.954 41.9253 104.695 40.5696C104.695 40.5696 104.156 41.3421 104.143 41.7877Z" fill="#C1C1C1"/>
<path d="M81.1348 64.5046H100.228V81.3124H81.1348V64.5046Z" fill="#EF9E62"/>
<path d="M94.9283 64.5046H106.884V81.3124H94.9283V64.5046Z" fill="#FFBC80"/>
<path opacity="0.5" d="M117.027 65.8143C117.027 65.8143 114.149 74.9254 113.206 75.4095C112.264 75.8937 98.0548 76.7701 98.0548 76.7701L112.536 73.1348L115.739 64.9067L117.027 65.8143Z" fill="#C1C1C1"/>
<path d="M114.419 57.2539C112.563 57.705 111.039 70.5676 110.259 71.3557C109.822 71.7975 98.6209 73.496 98.3433 73.538C98.1591 73.5661 97.3723 73.5613 97.1402 73.4839C96.9711 74.0961 97.2749 76.2915 97.9124 76.8089C98.4119 76.6658 98.9517 76.64 99.0729 76.6333C99.3134 76.6203 112.196 75.4143 112.952 74.9801C113.709 74.5459 116.358 67.5962 116.468 63.8864C116.514 62.3354 116.502 57.8827 114.419 57.2539Z" fill="#FFA383"/>
<path d="M116.322 53.0748C115.238 52.5046 112.87 58.2448 111.902 62.4598C111.861 62.6388 112.041 63.2075 112.005 63.3788C111.94 63.6802 111.883 63.9688 111.834 64.2408C111.828 65.2162 116.775 67.1533 116.845 66.0072C116.902 65.7217 117.097 65.3675 117.176 64.8808C117.2 64.7355 117.891 63.9873 117.914 63.8277C118.427 60.4329 118.922 54.4426 116.322 53.0748Z" fill="#E6CFB0"/>
<path opacity="0.5" d="M117.916 63.8283C116.766 64.014 112.396 62.9596 111.898 62.5305C111.898 62.5305 113.63 64.0092 115.132 64.4297C116.616 64.8454 117.178 64.8814 117.178 64.8814C117.178 64.8814 117.174 64.8403 117.227 64.7696C117.419 64.51 117.906 63.8929 117.916 63.8283Z" fill="#C1C1C1"/>
<path d="M90 66.0005H100V69.0005H90V66.0005Z" fill="white"/>
<path d="M91.1734 68.0005V66.4137H91.739C91.8624 66.4137 91.9647 66.4362 92.0458 66.4811C92.1269 66.5261 92.1876 66.5875 92.2278 66.6655C92.2681 66.743 92.2883 66.8303 92.2883 66.9274C92.2883 67.025 92.2679 67.1128 92.2271 67.1908C92.1868 67.2683 92.1258 67.3298 92.0442 67.3752C91.9631 67.4202 91.8611 67.4426 91.7382 67.4426H91.3492V67.2396H91.7165C91.7945 67.2396 91.8578 67.2262 91.9063 67.1994C91.9549 67.172 91.9905 67.1348 92.0132 67.0878C92.036 67.0408 92.0473 66.9873 92.0473 66.9274C92.0473 66.8675 92.036 66.8143 92.0132 66.7678C91.9905 66.7213 91.9546 66.6849 91.9055 66.6585C91.857 66.6322 91.7929 66.619 91.7134 66.619H91.4128V68.0005H91.1734ZM92.5347 68.0005H92.2805L92.8516 66.4137H93.1282L93.6992 68.0005H93.445L92.9964 66.7019H92.984L92.5347 68.0005ZM92.5773 67.3791H93.4017V67.5806H92.5773V67.3791ZM93.9283 68.0005V66.4137H94.4939C94.6169 66.4137 94.7189 66.4349 94.8 66.4772C94.8816 66.5196 94.9425 66.5782 94.9828 66.6531C95.0231 66.7275 95.0433 66.8135 95.0433 66.9111C95.0433 67.0082 95.0228 67.0937 94.982 67.1676C94.9418 67.2409 94.8808 67.298 94.7992 67.3388C94.7181 67.3796 94.6161 67.4 94.4931 67.4H94.0647V67.1939H94.4715C94.5489 67.1939 94.6119 67.1828 94.6605 67.1606C94.7096 67.1384 94.7455 67.1061 94.7682 67.0638C94.7909 67.0214 94.8023 66.9705 94.8023 66.9111C94.8023 66.8512 94.7907 66.7993 94.7674 66.7554C94.7447 66.7115 94.7088 66.6779 94.6597 66.6547C94.6112 66.6309 94.5474 66.619 94.4684 66.619H94.1677V68.0005H93.9283ZM94.7116 67.2846L95.1037 68.0005H94.831L94.4467 67.2846H94.7116ZM96.6525 66.9297H96.4108C96.4015 66.8781 96.3842 66.8326 96.3589 66.7934C96.3335 66.7541 96.3025 66.7208 96.2659 66.6934C96.2292 66.666 96.1881 66.6454 96.1427 66.6314C96.0977 66.6175 96.05 66.6105 95.9993 66.6105C95.9079 66.6105 95.8261 66.6335 95.7537 66.6795C95.6819 66.7254 95.6251 66.7928 95.5833 66.8817C95.542 66.9705 95.5213 67.079 95.5213 67.2071C95.5213 67.3362 95.542 67.4452 95.5833 67.5341C95.6251 67.6229 95.6822 67.6901 95.7545 67.7355C95.8268 67.781 95.9082 67.8037 95.9986 67.8037C96.0487 67.8037 96.0962 67.797 96.1411 67.7835C96.1866 67.7696 96.2277 67.7492 96.2643 67.7223C96.301 67.6955 96.332 67.6627 96.3573 67.6239C96.3831 67.5847 96.4009 67.5397 96.4108 67.4891L96.6525 67.4899C96.6396 67.5679 96.6145 67.6397 96.5773 67.7053C96.5407 67.7704 96.4934 67.8267 96.4356 67.8742C96.3782 67.9212 96.3126 67.9576 96.2388 67.9834C96.1649 68.0093 96.0843 68.0222 95.997 68.0222C95.8596 68.0222 95.7372 67.9896 95.6298 67.9246C95.5223 67.859 95.4376 67.7652 95.3756 67.6433C95.3142 67.5214 95.2834 67.376 95.2834 67.2071C95.2834 67.0377 95.3144 66.8923 95.3764 66.7709C95.4384 66.649 95.5231 66.5555 95.6305 66.4904C95.738 66.4248 95.8601 66.392 95.997 66.392C96.0812 66.392 96.1597 66.4042 96.2326 66.4284C96.3059 66.4522 96.3718 66.4873 96.4301 66.5338C96.4885 66.5798 96.5368 66.6361 96.575 66.7027C96.6132 66.7688 96.6391 66.8445 96.6525 66.9297ZM96.939 68.0005V66.4137H97.9338V66.6198H97.1784V67.1033H97.8819V67.3086H97.1784V67.7944H97.9431V68.0005H96.939ZM98.2536 68.0005V66.4137H98.493V67.7944H99.212V68.0005H98.2536Z" fill="black"/>
<path opacity="0.5" d="M100.844 83.7888C101.116 84.0835 104.805 86.0215 108.784 85.0923C113.157 84.0713 116.438 83.3737 117.539 83.5684L117.429 83.045L100.974 82.9851L100.844 83.7888Z" fill="#C1C1C1"/>
<path d="M128.155 29.3564C125.361 32.6188 122.372 30.9454 121.498 29.7809C115.189 32.7477 111.882 27.321 111.978 24.4778C108.136 24.8325 108.413 20.9809 109.899 20.0842C106.668 18.2443 108.847 15.012 110.802 15.3168C110.251 12.5095 112.406 11.8586 113.552 11.884C114.39 8.95409 117.529 9.48442 118.143 10.7288C120.926 7.58139 123.269 10.0727 123.832 11.7085C129.05 7.51378 131.752 13.3901 130.883 15.2564C132.017 15.4669 132.116 16.6712 132.024 17.2471C136.535 15.832 137.987 21.8097 135.008 23.3647C136.769 28.9622 130.977 30.9808 128.155 29.3564Z" fill="white"/>
<path d="M116.615 33.3998C116.966 34.0936 116.314 35.4792 115.321 35.7046C114.328 35.9299 113.33 35.2825 113.118 34.3482C112.906 33.4138 113.259 32.5759 114.213 32.3593C115.168 32.1426 116.403 32.4654 116.615 33.3998Z" fill="white"/>
<path d="M113.955 37.8706C114.112 38.2217 113.789 38.8751 113.281 38.9904C112.773 39.1056 112.319 38.6691 112.227 38.2629C112.134 37.8566 112.264 37.4037 112.906 37.3353C113.42 37.2185 113.908 37.4945 113.955 37.8706Z" fill="white"/>
<path d="M117.942 14.4931C117.96 14.399 117.965 14.3084 117.957 14.2213C117.95 14.1338 117.93 14.0514 117.895 13.9741C117.862 13.8959 117.813 13.8241 117.751 13.7587C117.689 13.6938 117.613 13.6366 117.523 13.5873C117.371 13.5035 117.212 13.4672 117.047 13.4782C116.882 13.4892 116.722 13.5508 116.567 13.663C116.414 13.7747 116.277 13.9398 116.157 14.158C116.037 14.3772 115.97 14.582 115.958 14.7726C115.946 14.9632 115.981 15.1318 116.062 15.2783C116.143 15.4249 116.263 15.5418 116.421 15.6289C116.568 15.7098 116.713 15.7503 116.855 15.7505C116.998 15.7511 117.129 15.7134 117.249 15.6372C117.37 15.5605 117.472 15.4479 117.553 15.2991L117.648 15.377L116.875 14.9515L117.06 14.6149L118.122 15.1994L117.953 15.507C117.828 15.7341 117.671 15.9046 117.483 16.0186C117.295 16.1321 117.092 16.1875 116.872 16.1847C116.653 16.1824 116.435 16.1212 116.216 16.0012C115.972 15.8666 115.788 15.6922 115.665 15.4779C115.543 15.264 115.487 15.0254 115.498 14.7619C115.51 14.4976 115.594 14.2229 115.75 13.9377C115.869 13.7221 116.005 13.545 116.16 13.4063C116.314 13.2676 116.478 13.1682 116.652 13.108C116.828 13.0475 117.006 13.0259 117.188 13.0434C117.371 13.0605 117.55 13.1172 117.726 13.2135C117.872 13.2939 117.996 13.3903 118.098 13.5026C118.201 13.6154 118.28 13.7386 118.335 13.872C118.391 14.0059 118.421 14.1453 118.426 14.2903C118.432 14.4344 118.41 14.5787 118.36 14.7233L117.942 14.4931ZM118.679 17.361C118.489 17.2565 118.347 17.1217 118.253 16.9566C118.16 16.7915 118.117 16.6091 118.124 16.4094C118.132 16.2097 118.194 16.0051 118.309 15.7956C118.425 15.5853 118.565 15.4229 118.73 15.3084C118.895 15.194 119.072 15.1322 119.262 15.123C119.452 15.1138 119.641 15.1615 119.831 15.266C120.022 15.3706 120.163 15.5054 120.257 15.6705C120.351 15.8356 120.394 16.0184 120.385 16.219C120.377 16.4196 120.315 16.6251 120.199 16.8354C120.084 17.0449 119.944 17.2064 119.78 17.32C119.615 17.4335 119.438 17.4949 119.249 17.5041C119.059 17.5133 118.869 17.4656 118.679 17.361ZM118.863 17.0304C118.986 17.0982 119.106 17.1218 119.223 17.1012C119.339 17.0806 119.447 17.0268 119.545 16.9399C119.644 16.8534 119.73 16.7451 119.801 16.6148C119.873 16.4855 119.918 16.3558 119.938 16.2257C119.959 16.0953 119.948 15.9748 119.903 15.8643C119.858 15.7537 119.774 15.6646 119.651 15.5968C119.527 15.5285 119.406 15.5049 119.288 15.5259C119.171 15.5474 119.062 15.6018 118.963 15.6891C118.864 15.7761 118.78 15.8842 118.708 16.0136C118.637 16.1438 118.591 16.2737 118.57 16.4033C118.55 16.5333 118.562 16.6532 118.607 16.7628C118.654 16.873 118.739 16.9622 118.863 17.0304ZM122.149 16.5754L121.975 16.8922L120.867 16.283L121.042 15.9661L122.149 16.5754ZM121.606 15.6437L122.001 15.8608L120.946 17.7789C120.903 17.8555 120.883 17.9194 120.885 17.9707C120.887 18.0212 120.902 18.0634 120.93 18.0973C120.96 18.1308 120.996 18.1594 121.04 18.1832C121.071 18.2006 121.1 18.2136 121.126 18.2223C121.153 18.231 121.173 18.2376 121.188 18.2422L121.08 18.6075C121.052 18.6037 121.014 18.5946 120.967 18.5802C120.92 18.5666 120.864 18.5429 120.8 18.5089C120.695 18.4535 120.609 18.3818 120.54 18.2937C120.472 18.2056 120.432 18.1058 120.421 17.9944C120.41 17.8829 120.438 17.766 120.506 17.6437L121.606 15.6437ZM123.765 16.5835L124.228 16.8384L124.258 18.4559L124.287 18.4719L125.669 17.6313L126.133 17.8862L124.249 18.9889L123.665 20.0502L123.258 19.8266L123.842 18.7652L123.765 16.5835ZM125.497 21.1112C125.307 21.0066 125.165 20.8718 125.071 20.7068C124.977 20.5417 124.934 20.3593 124.942 20.1596C124.95 19.9598 125.011 19.7552 125.127 19.5458C125.242 19.3354 125.383 19.173 125.548 19.0586C125.713 18.9442 125.89 18.8823 126.08 18.8732C126.269 18.864 126.459 18.9117 126.649 19.0162C126.839 19.1208 126.981 19.2556 127.075 19.4207C127.169 19.5857 127.211 19.7686 127.203 19.9692C127.195 20.1698 127.133 20.3753 127.017 20.5856C126.902 20.7951 126.762 20.9566 126.597 21.0701C126.433 21.1837 126.256 21.2451 126.066 21.2543C125.877 21.2635 125.687 21.2158 125.497 21.1112ZM125.68 20.7806C125.803 20.8484 125.923 20.872 126.04 20.8514C126.157 20.8308 126.265 20.777 126.363 20.6901C126.462 20.6036 126.547 20.4952 126.619 20.365C126.69 20.2356 126.736 20.1059 126.756 19.9759C126.777 19.8455 126.765 19.725 126.721 19.6144C126.676 19.5039 126.592 19.4147 126.469 19.347C126.345 19.2787 126.224 19.2551 126.106 19.2761C125.988 19.2975 125.88 19.3519 125.78 19.4393C125.682 19.5262 125.597 19.6344 125.526 19.7638C125.454 19.894 125.408 20.0239 125.387 20.1534C125.367 20.2835 125.38 20.4033 125.425 20.513C125.471 20.6231 125.556 20.7123 125.68 20.7806ZM128.652 21.6982L129.305 20.5114L129.701 20.7293L128.585 22.7569L128.197 22.5435L128.391 22.1923L128.369 22.1807C128.263 22.2633 128.139 22.3123 127.996 22.3279C127.855 22.343 127.708 22.3087 127.556 22.2249C127.426 22.1533 127.326 22.0613 127.257 21.9489C127.19 21.8361 127.158 21.7072 127.164 21.5622C127.17 21.4177 127.219 21.2618 127.311 21.0946L128.02 19.8049L128.415 20.022L127.732 21.2642C127.656 21.4024 127.634 21.5335 127.665 21.6574C127.697 21.7814 127.774 21.877 127.896 21.9443C127.97 21.985 128.053 22.0069 128.147 22.0101C128.241 22.0138 128.333 21.9916 128.423 21.9434C128.513 21.8957 128.589 21.814 128.652 21.6982ZM115.934 19.1279L115.522 18.9013C115.555 18.8046 115.568 18.7109 115.561 18.6203C115.555 18.5297 115.534 18.4439 115.497 18.3629C115.46 18.2819 115.409 18.2082 115.345 18.1418C115.281 18.0759 115.207 18.0193 115.12 17.9718C114.964 17.8862 114.803 17.8486 114.637 17.8591C114.472 17.8702 114.312 17.9318 114.157 18.0439C114.004 18.1566 113.867 18.322 113.747 18.5403C113.626 18.7603 113.559 18.9654 113.546 19.1555C113.534 19.346 113.568 19.5139 113.649 19.6592C113.729 19.8044 113.847 19.9193 114.001 20.0041C114.086 20.051 114.173 20.0841 114.262 20.1034C114.353 20.1222 114.442 20.1259 114.53 20.1145C114.617 20.1031 114.701 20.0763 114.78 20.034C114.861 19.9913 114.934 19.9315 114.998 19.8544L115.409 20.0823C115.314 20.2031 115.204 20.3019 115.079 20.3788C114.956 20.4554 114.822 20.507 114.679 20.5337C114.537 20.5601 114.392 20.5607 114.241 20.5354C114.091 20.5102 113.942 20.4567 113.793 20.3749C113.559 20.2461 113.381 20.0759 113.259 19.8644C113.137 19.6519 113.081 19.4128 113.09 19.147C113.099 18.8817 113.183 18.6051 113.341 18.3174C113.5 18.0287 113.689 17.81 113.909 17.6613C114.128 17.5117 114.36 17.4318 114.604 17.4216C114.849 17.4105 115.088 17.4691 115.321 17.5974C115.465 17.6763 115.587 17.7706 115.688 17.8802C115.791 17.9894 115.87 18.111 115.926 18.2449C115.982 18.3779 116.012 18.5191 116.015 18.6685C116.018 18.8169 115.991 18.9701 115.934 19.1279ZM116.218 21.714C116.028 21.6095 115.886 21.4747 115.793 21.3096C115.699 21.1445 115.656 20.9621 115.664 20.7624C115.672 20.5627 115.733 20.3581 115.848 20.1486C115.964 19.9383 116.104 19.7759 116.269 19.6614C116.434 19.547 116.612 19.4852 116.801 19.476C116.991 19.4668 117.181 19.5145 117.371 19.619C117.561 19.7236 117.703 19.8584 117.797 20.0235C117.89 20.1886 117.933 20.3714 117.925 20.572C117.916 20.7726 117.854 20.9781 117.739 21.1884C117.623 21.3979 117.484 21.5594 117.319 21.673C117.155 21.7865 116.978 21.8479 116.788 21.8571C116.598 21.8663 116.409 21.8186 116.218 21.714ZM116.402 21.3834C116.525 21.4512 116.645 21.4748 116.762 21.4542C116.879 21.4336 116.986 21.3798 117.085 21.2929C117.184 21.2064 117.269 21.0981 117.341 20.9678C117.412 20.8385 117.457 20.7088 117.477 20.5787C117.499 20.4483 117.487 20.3278 117.442 20.2173C117.398 20.1067 117.314 20.0176 117.191 19.9498C117.067 19.8815 116.945 19.8579 116.827 19.8789C116.71 19.9004 116.602 19.9548 116.502 20.0421C116.404 20.129 116.319 20.2372 116.248 20.3666C116.176 20.4968 116.13 20.6267 116.109 20.7563C116.089 20.8863 116.102 21.0062 116.147 21.1158C116.193 21.226 116.278 21.3152 116.402 21.3834ZM120.408 21.3239L118.557 22.9471L118.135 22.7148L118.513 20.2819L118.937 20.515L118.592 22.3578L118.613 22.3694L119.984 21.0908L120.408 21.3239ZM120.446 24.0393C120.246 23.9294 120.097 23.7921 120 23.6274C119.904 23.4622 119.86 23.2802 119.867 23.0813C119.876 22.8821 119.938 22.6773 120.054 22.467C120.168 22.2593 120.307 22.0975 120.472 21.9817C120.637 21.8664 120.814 21.8028 121.003 21.7908C121.193 21.7794 121.382 21.8255 121.57 21.9291C121.685 21.992 121.785 22.0719 121.872 22.1688C121.958 22.2657 122.022 22.3782 122.063 22.5061C122.104 22.634 122.113 22.7762 122.091 22.9327C122.07 23.0883 122.009 23.258 121.907 23.442L121.83 23.5819L120.219 22.6953L120.381 22.3996L121.606 23.0734C121.663 22.9696 121.693 22.866 121.695 22.7627C121.697 22.6585 121.673 22.562 121.622 22.4733C121.572 22.385 121.496 22.3128 121.394 22.2566C121.283 22.1956 121.171 22.1696 121.058 22.1787C120.947 22.1874 120.845 22.2229 120.752 22.2854C120.66 22.3474 120.587 22.429 120.531 22.5302L120.404 22.7612C120.33 22.8968 120.29 23.0251 120.285 23.1463C120.281 23.268 120.309 23.3776 120.367 23.4752C120.427 23.572 120.514 23.652 120.629 23.7154C120.704 23.7566 120.778 23.7835 120.851 23.7963C120.925 23.8082 120.996 23.8049 121.065 23.7865C121.133 23.7681 121.197 23.7337 121.255 23.6834L121.592 23.9562C121.501 24.0498 121.395 24.1166 121.272 24.1567C121.15 24.1965 121.019 24.2073 120.877 24.1891C120.737 24.1706 120.594 24.1207 120.446 24.0393ZM121.776 24.7178L122.891 22.6902L123.273 22.9L123.096 23.2221L123.117 23.2337C123.214 23.1449 123.326 23.095 123.454 23.0838C123.583 23.0722 123.707 23.0991 123.826 23.1645C123.85 23.178 123.879 23.1949 123.911 23.215C123.945 23.2357 123.97 23.2526 123.988 23.2659L123.781 23.6435C123.767 23.6304 123.742 23.61 123.704 23.5825C123.667 23.5541 123.628 23.5287 123.588 23.5064C123.494 23.4551 123.4 23.4292 123.305 23.4286C123.212 23.4276 123.125 23.4503 123.045 23.4966C122.965 23.542 122.9 23.6087 122.852 23.6967L122.171 24.935L121.776 24.7178ZM123.982 25.9843C123.782 25.8744 123.633 25.7371 123.536 25.5723C123.44 25.4072 123.396 25.2252 123.403 25.0263C123.412 24.8271 123.474 24.6223 123.59 24.4119C123.704 24.2042 123.843 24.0425 124.008 23.9267C124.173 23.8114 124.35 23.7477 124.539 23.7358C124.729 23.7244 124.918 23.7705 125.106 23.8741C125.221 23.937 125.321 24.0169 125.408 24.1138C125.494 24.2107 125.558 24.3231 125.599 24.4511C125.64 24.579 125.649 24.7212 125.627 24.8777C125.606 25.0333 125.544 25.203 125.443 25.387L125.366 25.5269L123.755 24.6403L123.917 24.3446L125.142 25.0184C125.199 24.9146 125.229 24.811 125.231 24.7077C125.233 24.6035 125.209 24.507 125.158 24.4182C125.108 24.33 125.032 24.2577 124.93 24.2016C124.819 24.1406 124.707 24.1146 124.594 24.1237C124.483 24.1323 124.381 24.1679 124.288 24.2303C124.196 24.2924 124.123 24.374 124.067 24.4752L123.94 24.7062C123.866 24.8417 123.826 24.9701 123.821 25.0913C123.817 25.213 123.845 25.3226 123.903 25.4202C123.962 25.5169 124.05 25.597 124.165 25.6604C124.24 25.7016 124.314 25.7285 124.387 25.7413C124.461 25.7532 124.532 25.7499 124.6 25.7315C124.669 25.713 124.733 25.6787 124.791 25.6284L125.128 25.9012C125.037 25.9947 124.931 26.0616 124.808 26.1017C124.686 26.1414 124.555 26.1522 124.413 26.1341C124.273 26.1156 124.129 26.0656 123.982 25.9843ZM126.049 27.1199C125.886 27.0299 125.762 26.9077 125.68 26.7535C125.599 26.5988 125.565 26.4235 125.577 26.2275C125.591 26.0312 125.658 25.8234 125.779 25.6043C125.9 25.3851 126.039 25.2178 126.198 25.1022C126.358 24.9871 126.524 24.9235 126.698 24.9115C126.872 24.8994 127.041 24.9382 127.204 25.0277C127.329 25.097 127.419 25.1737 127.472 25.2581C127.527 25.3421 127.56 25.4234 127.572 25.5021C127.585 25.5812 127.591 25.6485 127.592 25.7038L127.615 25.7169L128.168 24.7123L128.563 24.9294L127.076 27.6329L126.69 27.4209L126.864 27.1054L126.831 27.0872C126.783 27.1173 126.722 27.1477 126.646 27.1785C126.572 27.2097 126.485 27.2247 126.384 27.2235C126.284 27.2222 126.172 27.1877 126.049 27.1199ZM126.322 26.8312C126.435 26.8937 126.547 26.9165 126.659 26.8998C126.771 26.8826 126.877 26.8315 126.977 26.7464C127.077 26.6618 127.167 26.5482 127.245 26.4056C127.323 26.2648 127.37 26.1305 127.388 26.0026C127.405 25.8747 127.391 25.7598 127.345 25.6577C127.299 25.5557 127.219 25.4729 127.104 25.4095C126.985 25.3442 126.869 25.3205 126.756 25.3385C126.643 25.3566 126.537 25.4077 126.438 25.4919C126.339 25.5766 126.253 25.6859 126.18 25.8196C126.105 25.9552 126.059 26.0882 126.039 26.2187C126.02 26.3492 126.033 26.4679 126.077 26.5749C126.123 26.6814 126.204 26.7669 126.322 26.8312ZM129.624 25.513L128.53 27.4202L128.164 27.219L129.189 25.2741L129.624 25.513ZM127.906 28.1226C127.833 28.0824 127.785 28.0225 127.761 27.9429C127.738 27.8624 127.746 27.7859 127.788 27.7133C127.826 27.6407 127.886 27.5931 127.966 27.5706C128.046 27.5473 128.123 27.5557 128.196 27.5959C128.267 27.6351 128.315 27.6949 128.338 27.7754C128.362 27.855 128.354 27.9311 128.316 28.0038C128.288 28.0517 128.251 28.0891 128.204 28.1161C128.158 28.1426 128.109 28.1568 128.057 28.1588C128.004 28.1608 127.954 28.1487 127.906 28.1226Z" fill="black"/>
<path d="M65.4333 38.6039C63.6096 42.8223 60.1273 42.0114 58.9088 41.0781C53.4849 46.0675 48.5718 41.4841 47.825 38.5231C44.0911 40.0645 43.2264 36.0083 44.4448 34.6293C40.6716 33.7207 41.8901 29.7213 43.9339 29.4374C42.5504 26.7117 44.5103 25.3813 45.6632 25.0568C45.6318 21.7794 48.9255 21.3657 49.9081 22.4609C51.7554 18.3642 54.8342 20.2162 55.8824 21.7303C59.8521 15.8088 64.2935 21.041 63.9791 23.2311C65.1739 23.1013 65.6298 24.3128 65.7085 24.9347C69.7961 22.0954 73.0191 27.8145 70.5036 30.3294C73.9231 35.5618 68.7349 39.4151 65.4333 38.6039Z" fill="white"/>
<path d="M48.1337 43.4989C48.3302 44.3102 47.3478 45.6081 46.2868 45.6081C45.2258 45.6081 44.3613 44.6917 44.3613 43.6612C44.3613 42.6307 44.9131 41.8359 45.9332 41.8359C46.9532 41.8359 48.1337 42.4685 48.1337 43.4989Z" fill="white"/>
<path d="M44.3977 47.5553C44.4763 47.9609 43.9971 48.5693 43.4546 48.5693C42.912 48.5693 42.5508 48.0033 42.5508 47.5553C42.5508 47.1072 42.7866 46.6629 43.4546 46.744C44.0047 46.744 44.437 47.1496 44.3977 47.5553Z" fill="white"/>
<path d="M54.2808 25.313V28.5632H53.8301L52.178 26.1795H52.1478V28.5632H51.6574V25.313H52.1113L53.765 27.6999H53.7952V25.313H54.2808ZM55.9849 28.6124C55.7564 28.6124 55.5569 28.5601 55.3866 28.4553C55.2163 28.3506 55.084 28.204 54.9898 28.0157C54.8957 27.8274 54.8486 27.6073 54.8486 27.3555C54.8486 27.1026 54.8957 26.8815 54.9898 26.6921C55.084 26.5027 55.2163 26.3557 55.3866 26.2509C55.5569 26.1462 55.7564 26.0938 55.9849 26.0938C56.2134 26.0938 56.4129 26.1462 56.5832 26.2509C56.7536 26.3557 56.8858 26.5027 56.98 26.6921C57.0742 26.8815 57.1212 27.1026 57.1212 27.3555C57.1212 27.6073 57.0742 27.8274 56.98 28.0157C56.8858 28.204 56.7536 28.3506 56.5832 28.4553C56.4129 28.5601 56.2134 28.6124 55.9849 28.6124ZM55.9865 28.2141C56.1346 28.2141 56.2574 28.1749 56.3547 28.0966C56.452 28.0183 56.524 27.9141 56.5705 27.784C56.6181 27.6539 56.6419 27.5105 56.6419 27.3539C56.6419 27.1984 56.6181 27.0555 56.5705 26.9254C56.524 26.7942 56.452 26.6889 56.3547 26.6096C56.2574 26.5302 56.1346 26.4906 55.9865 26.4906C55.8373 26.4906 55.7135 26.5302 55.6151 26.6096C55.5178 26.6889 55.4453 26.7942 55.3977 26.9254C55.3512 27.0555 55.3279 27.1984 55.3279 27.3539C55.3279 27.5105 55.3512 27.6539 55.3977 27.784C55.4453 27.9141 55.5178 28.0183 55.6151 28.0966C55.7135 28.1749 55.8373 28.2141 55.9865 28.2141ZM58.7888 26.1255V26.5064H57.4573V26.1255H58.7888ZM57.8144 25.5415H58.2889V27.8475C58.2889 27.9395 58.3027 28.0088 58.3302 28.0554C58.3577 28.1009 58.3931 28.1321 58.4365 28.149C58.4809 28.1649 58.5291 28.1728 58.5809 28.1728C58.619 28.1728 58.6523 28.1702 58.6809 28.1649C58.7095 28.1596 58.7317 28.1554 58.7476 28.1522L58.8333 28.5442C58.8057 28.5548 58.7666 28.5653 58.7158 28.5759C58.665 28.5876 58.6015 28.5939 58.5254 28.595C58.4005 28.5971 58.2841 28.5749 58.1762 28.5283C58.0683 28.4818 57.981 28.4098 57.9144 28.3125C57.8477 28.2151 57.8144 28.0929 57.8144 27.9459V25.5415ZM60.4965 28.5632V26.1255H60.971V28.5632H60.4965ZM60.7361 25.7494C60.6536 25.7494 60.5827 25.7219 60.5235 25.6669C60.4653 25.6108 60.4362 25.5441 60.4362 25.4669C60.4362 25.3886 60.4653 25.322 60.5235 25.2669C60.5827 25.2109 60.6536 25.1828 60.7361 25.1828C60.8187 25.1828 60.889 25.2109 60.9472 25.2669C61.0065 25.322 61.0361 25.3886 61.0361 25.4669C61.0361 25.5441 61.0065 25.6108 60.9472 25.6669C60.889 25.7219 60.8187 25.7494 60.7361 25.7494ZM62.0839 27.1158V28.5632H61.6094V26.1255H62.0649V26.5223H62.095C62.1511 26.3932 62.2389 26.2895 62.3585 26.2112C62.4791 26.1329 62.6309 26.0938 62.814 26.0938C62.9801 26.0938 63.1256 26.1287 63.2504 26.1985C63.3752 26.2673 63.4721 26.3699 63.5408 26.5064C63.6096 26.6429 63.644 26.8117 63.644 27.0127V28.5632H63.1695V27.0698C63.1695 26.8931 63.1234 26.7551 63.0314 26.6556C62.9393 26.5551 62.8129 26.5048 62.6521 26.5048C62.542 26.5048 62.4442 26.5286 62.3585 26.5763C62.2738 26.6239 62.2067 26.6937 62.1569 26.7857C62.1083 26.8767 62.0839 26.9868 62.0839 27.1158ZM48.5359 33.5632V31.1255H48.9914V31.5223H49.0216C49.0723 31.3879 49.1554 31.2832 49.2707 31.2081C49.386 31.1319 49.5241 31.0938 49.6849 31.0938C49.8479 31.0938 49.9844 31.1319 50.0944 31.2081C50.2055 31.2842 50.2875 31.389 50.3404 31.5223H50.3658C50.424 31.3922 50.5166 31.2885 50.6435 31.2112C50.7705 31.1329 50.9218 31.0938 51.0974 31.0938C51.3185 31.0938 51.4989 31.1631 51.6386 31.3017C51.7793 31.4403 51.8497 31.6493 51.8497 31.9286V33.5632H51.3751V31.973C51.3751 31.808 51.3302 31.6884 51.2402 31.6143C51.1503 31.5403 51.0429 31.5032 50.9181 31.5032C50.7636 31.5032 50.6435 31.5509 50.5578 31.6461C50.4721 31.7402 50.4293 31.8614 50.4293 32.0095V33.5632H49.9563V31.9429C49.9563 31.8106 49.9151 31.7043 49.8325 31.6239C49.75 31.5435 49.6426 31.5032 49.5104 31.5032C49.4204 31.5032 49.3374 31.5271 49.2612 31.5747C49.1861 31.6212 49.1252 31.6863 49.0787 31.7699C49.0332 31.8535 49.0104 31.9503 49.0104 32.0603V33.5632H48.5359ZM53.5125 33.6124C53.284 33.6124 53.0845 33.5601 52.9142 33.4553C52.7438 33.3506 52.6116 33.204 52.5174 33.0157C52.4233 32.8274 52.3762 32.6073 52.3762 32.3555C52.3762 32.1026 52.4233 31.8815 52.5174 31.6921C52.6116 31.5027 52.7438 31.3557 52.9142 31.2509C53.0845 31.1462 53.284 31.0938 53.5125 31.0938C53.741 31.0938 53.9405 31.1462 54.1108 31.2509C54.2812 31.3557 54.4134 31.5027 54.5076 31.6921C54.6017 31.8815 54.6488 32.1026 54.6488 32.3555C54.6488 32.6073 54.6017 32.8274 54.5076 33.0157C54.4134 33.204 54.2812 33.3506 54.1108 33.4553C53.9405 33.5601 53.741 33.6124 53.5125 33.6124ZM53.5141 33.2141C53.6622 33.2141 53.7849 33.1749 53.8823 33.0966C53.9796 33.0183 54.0516 32.9141 54.0981 32.784C54.1457 32.6539 54.1695 32.5105 54.1695 32.3539C54.1695 32.1984 54.1457 32.0555 54.0981 31.9254C54.0516 31.7942 53.9796 31.6889 53.8823 31.6096C53.7849 31.5302 53.6622 31.4906 53.5141 31.4906C53.3649 31.4906 53.2411 31.5302 53.1427 31.6096C53.0454 31.6889 52.9729 31.7942 52.9253 31.9254C52.8787 32.0555 52.8555 32.1984 52.8555 32.3539C52.8555 32.5105 52.8787 32.6539 52.9253 32.784C52.9729 32.9141 53.0454 33.0183 53.1427 33.0966C53.2411 33.1749 53.3649 33.2141 53.5141 33.2141ZM56.2053 33.6124C55.9768 33.6124 55.7773 33.5601 55.607 33.4553C55.4367 33.3506 55.3044 33.204 55.2102 33.0157C55.1161 32.8274 55.069 32.6073 55.069 32.3555C55.069 32.1026 55.1161 31.8815 55.2102 31.6921C55.3044 31.5027 55.4367 31.3557 55.607 31.2509C55.7773 31.1462 55.9768 31.0938 56.2053 31.0938C56.4338 31.0938 56.6333 31.1462 56.8036 31.2509C56.974 31.3557 57.1062 31.5027 57.2004 31.6921C57.2946 31.8815 57.3416 32.1026 57.3416 32.3555C57.3416 32.6073 57.2946 32.8274 57.2004 33.0157C57.1062 33.204 56.974 33.3506 56.8036 33.4553C56.6333 33.5601 56.4338 33.6124 56.2053 33.6124ZM56.2069 33.2141C56.355 33.2141 56.4778 33.1749 56.5751 33.0966C56.6724 33.0183 56.7444 32.9141 56.7909 32.784C56.8385 32.6539 56.8623 32.5105 56.8623 32.3539C56.8623 32.1984 56.8385 32.0555 56.7909 31.9254C56.7444 31.7942 56.6724 31.6889 56.5751 31.6096C56.4778 31.5302 56.355 31.4906 56.2069 31.4906C56.0577 31.4906 55.9339 31.5302 55.8355 31.6096C55.7382 31.6889 55.6657 31.7942 55.6181 31.9254C55.5716 32.0555 55.5483 32.1984 55.5483 32.3539C55.5483 32.5105 55.5716 32.6539 55.6181 32.784C55.6657 32.9141 55.7382 33.0183 55.8355 33.0966C55.9339 33.1749 56.0577 33.2141 56.2069 33.2141ZM58.7839 33.6108C58.5871 33.6108 58.4114 33.5606 58.257 33.4601C58.1035 33.3585 57.9829 33.2141 57.8951 33.0268C57.8084 32.8385 57.765 32.6126 57.765 32.3491C57.765 32.0857 57.8089 31.8603 57.8967 31.6731C57.9856 31.4858 58.1073 31.3424 58.2617 31.243C58.4162 31.1435 58.5913 31.0938 58.787 31.0938C58.9383 31.0938 59.06 31.1192 59.1521 31.17C59.2452 31.2197 59.3171 31.2779 59.3679 31.3445C59.4197 31.4112 59.4599 31.4699 59.4885 31.5207H59.5171V30.313H59.9916V33.5632H59.5282V33.1839H59.4885C59.4599 33.2358 59.4187 33.295 59.3647 33.3617C59.3118 33.4283 59.2388 33.4865 59.1457 33.5363C59.0526 33.586 58.932 33.6108 58.7839 33.6108ZM58.8886 33.2061C59.0251 33.2061 59.1404 33.1702 59.2346 33.0982C59.3298 33.0252 59.4018 32.9242 59.4504 32.7951C59.5001 32.666 59.525 32.5158 59.525 32.3444C59.525 32.1751 59.5007 32.027 59.452 31.9C59.4033 31.773 59.3319 31.6741 59.2378 31.6032C59.1436 31.5323 59.0272 31.4969 58.8886 31.4969C58.7458 31.4969 58.6267 31.5339 58.5315 31.608C58.4363 31.6821 58.3644 31.7831 58.3157 31.9111C58.2681 32.0391 58.2443 32.1836 58.2443 32.3444C58.2443 32.5073 58.2686 32.6539 58.3173 32.784C58.3659 32.9141 58.4379 33.0173 58.5331 33.0935C58.6294 33.1686 58.7479 33.2061 58.8886 33.2061ZM62.9895 31.1255V31.5064H61.658V31.1255H62.9895ZM62.0151 30.5415H62.4896V32.8475C62.4896 32.9395 62.5034 33.0088 62.5309 33.0554C62.5584 33.1009 62.5938 33.1321 62.6372 33.149C62.6816 33.1649 62.7298 33.1728 62.7816 33.1728C62.8197 33.1728 62.853 33.1702 62.8816 33.1649C62.9102 33.1596 62.9324 33.1554 62.9483 33.1522L63.034 33.5442C63.0065 33.5548 62.9673 33.5653 62.9165 33.5759C62.8657 33.5876 62.8023 33.5939 62.7261 33.595C62.6012 33.5971 62.4848 33.5749 62.3769 33.5283C62.269 33.4818 62.1817 33.4098 62.1151 33.3125C62.0484 33.2151 62.0151 33.0929 62.0151 32.9459V30.5415ZM64.5151 33.6124C64.2865 33.6124 64.0871 33.5601 63.9168 33.4553C63.7464 33.3506 63.6142 33.204 63.52 33.0157C63.4258 32.8274 63.3788 32.6073 63.3788 32.3555C63.3788 32.1026 63.4258 31.8815 63.52 31.6921C63.6142 31.5027 63.7464 31.3557 63.9168 31.2509C64.0871 31.1462 64.2865 31.0938 64.5151 31.0938C64.7436 31.0938 64.943 31.1462 65.1134 31.2509C65.2837 31.3557 65.416 31.5027 65.5102 31.6921C65.6043 31.8815 65.6514 32.1026 65.6514 32.3555C65.6514 32.6073 65.6043 32.8274 65.5102 33.0157C65.416 33.204 65.2837 33.3506 65.1134 33.4553C64.943 33.5601 64.7436 33.6124 64.5151 33.6124ZM64.5167 33.2141C64.6648 33.2141 64.7875 33.1749 64.8849 33.0966C64.9822 33.0183 65.0541 32.9141 65.1007 32.784C65.1483 32.6539 65.1721 32.5105 65.1721 32.3539C65.1721 32.1984 65.1483 32.0555 65.1007 31.9254C65.0541 31.7942 64.9822 31.6889 64.8849 31.6096C64.7875 31.5302 64.6648 31.4906 64.5167 31.4906C64.3675 31.4906 64.2437 31.5302 64.1453 31.6096C64.048 31.6889 63.9755 31.7942 63.9279 31.9254C63.8813 32.0555 63.858 32.1984 63.858 32.3539C63.858 32.5105 63.8813 32.6539 63.9279 32.784C63.9755 32.9141 64.048 33.0183 64.1453 33.0966C64.2437 33.1749 64.3675 33.2141 64.5167 33.2141ZM52.6323 38.5632L51.9149 36.1255H52.4053L52.883 37.9157H52.9068L53.3861 36.1255H53.8765L54.3526 37.9078H54.3764L54.851 36.1255H55.3414L54.6256 38.5632H54.1416L53.6464 36.8032H53.6099L53.1147 38.5632H52.6323ZM56.7443 38.6124C56.5158 38.6124 56.3163 38.5601 56.146 38.4553C55.9757 38.3506 55.8434 38.204 55.7492 38.0157C55.6551 37.8274 55.608 37.6073 55.608 37.3555C55.608 37.1026 55.6551 36.8815 55.7492 36.6921C55.8434 36.5027 55.9757 36.3557 56.146 36.2509C56.3163 36.1462 56.5158 36.0938 56.7443 36.0938C56.9728 36.0938 57.1723 36.1462 57.3426 36.2509C57.513 36.3557 57.6452 36.5027 57.7394 36.6921C57.8336 36.8815 57.8806 37.1026 57.8806 37.3555C57.8806 37.6073 57.8336 37.8274 57.7394 38.0157C57.6452 38.204 57.513 38.3506 57.3426 38.4553C57.1723 38.5601 56.9728 38.6124 56.7443 38.6124ZM56.7459 38.2141C56.894 38.2141 57.0168 38.1749 57.1141 38.0966C57.2114 38.0183 57.2834 37.9141 57.3299 37.784C57.3775 37.6539 57.4013 37.5105 57.4013 37.3539C57.4013 37.1984 57.3775 37.0555 57.3299 36.9254C57.2834 36.7942 57.2114 36.6889 57.1141 36.6096C57.0168 36.5302 56.894 36.4906 56.7459 36.4906C56.5967 36.4906 56.4729 36.5302 56.3745 36.6096C56.2772 36.6889 56.2047 36.7942 56.1571 36.9254C56.1106 37.0555 56.0873 37.1984 56.0873 37.3539C56.0873 37.5105 56.1106 37.6539 56.1571 37.784C56.2047 37.9141 56.2772 38.0183 56.3745 38.0966C56.4729 38.1749 56.5967 38.2141 56.7459 38.2141ZM58.4103 38.5632V36.1255H58.869V36.5128H58.8944C58.9388 36.3816 59.0171 36.2784 59.1292 36.2033C59.2425 36.1271 59.3705 36.089 59.5133 36.089C59.5429 36.089 59.5778 36.0901 59.6181 36.0922C59.6593 36.0943 59.6916 36.097 59.7149 36.1001V36.554C59.6958 36.5487 59.662 36.5429 59.6133 36.5366C59.5646 36.5292 59.516 36.5255 59.4673 36.5255C59.3551 36.5255 59.2551 36.5493 59.1673 36.5969C59.0806 36.6434 59.0118 36.7085 58.961 36.7921C58.9102 36.8746 58.8848 36.9688 58.8848 37.0746V38.5632H58.4103ZM60.5619 37.7364L60.5588 37.1571H60.6413L61.6126 36.1255H62.1807L61.073 37.2999H60.9984L60.5619 37.7364ZM60.1255 38.5632V35.313H60.6V38.5632H60.1255ZM61.6649 38.5632L60.7921 37.4047L61.119 37.073L62.2474 38.5632H61.6649Z" fill="black"/>
</svg>
