<svg width="149" height="152" viewBox="0 0 149 152" fill="none" xmlns="http://www.w3.org/2000/svg">
<path d="M73.1758 36.8066C104.963 30.1336 119.418 37.4541 119.418 37.4541C119.316 37.4541 119.221 37.4662 119.131 37.4824C120.725 37.9124 122.342 38.4493 123.962 39.0967C130.63 41.7622 135.989 45.7533 139.118 49.9424C145.207 55.1281 147.613 64.9771 148.46 69.8301C150.007 77.8018 148.221 84.81 143.242 87.5781C142.92 87.7571 142.59 87.9139 142.253 88.0518C136.748 95.9364 137.859 106.93 141.506 113.857C145.187 120.85 145.575 126.872 133.368 139.498C121.162 152.124 92.2924 156.592 39.9795 146.297C-7.75572 136.903 -0.235093 103.49 1.44629 97.7148C1.73752 92.4052 4.1398 85.9534 8.46191 79.9395C8.83221 79.4242 9.21038 78.9216 9.59473 78.4316C18.7421 62.8761 43.3102 43.0765 73.1758 36.8066Z" fill="#D9DCB9"/>
<path d="M48.3434 61.5492L40.4854 74.5481H56.7504L55.2375 60.9871L48.3434 61.5492Z" fill="black"/>
<path d="M94.6208 115.952C94.6208 117.427 76.6566 118.621 54.4965 118.621C32.3364 118.621 14.3721 117.427 14.3721 115.952C14.3721 114.48 32.3364 113.285 54.4965 113.285C76.6566 113.285 94.6208 114.48 94.6208 115.952Z" fill="#D5BD99"/>
<path d="M85.4002 116.509H76.0273C74.9336 116.509 74.0104 115.626 73.8725 114.446L71.8643 97.2756H89.5631L87.5548 114.446C87.4171 115.626 86.4939 116.509 85.4002 116.509Z" fill="#FFAF45"/>
<path d="M89.5641 97.2757C89.5641 97.4603 89.0057 97.6392 88.0476 97.7869C86.4547 98.0357 83.7627 98.1951 80.7121 98.1951C78.1788 98.1951 75.8982 98.0862 74.2878 97.9074C72.7889 97.7344 71.8662 97.5186 71.8662 97.2757C71.8662 97.0444 72.6949 96.8345 74.0585 96.6692C74.5346 96.6109 75.0812 96.5662 75.675 96.5157C75.7397 96.5157 75.8043 96.5079 75.8689 96.5021C76.5743 96.4574 77.3501 96.4185 78.1788 96.3932C78.9665 96.368 79.8012 96.3563 80.6651 96.3563H80.7121C81.2941 96.3563 81.8641 96.3621 82.4168 96.3738C83.2691 96.3874 84.0859 96.4185 84.8326 96.4574C84.9677 96.471 85.097 96.4768 85.2263 96.4826C86.2549 96.5468 87.1483 96.6304 87.8537 96.7314C88.9292 96.885 89.5641 97.0774 89.5641 97.2757Z" fill="#DBD3E0"/>
<path d="M58.3065 73.6518C58.3065 73.6518 61.3109 81.4127 62.9838 88.1438C64.6568 94.873 65.3649 98.5836 65.3649 98.5836L58.2029 98.9062L53.7471 91.9438L58.3065 73.6518Z" fill="#889782"/>
<path d="M43.2906 111.07H51.0913L51.1963 92.5677H42.3818L43.2906 111.07Z" fill="#E6CFB0"/>
<path d="M60.1287 95.4524C60.3966 96.2843 61.1494 98.2611 62.2769 98.3563C62.4562 98.3699 62.6009 98.3096 62.7139 98.1697C63.2025 97.5652 63.0383 95.6973 62.8779 94.6477L62.3835 95.5768C62.3587 95.6254 62.3129 95.6545 62.2625 95.6565C62.2111 95.6526 62.1643 95.6331 62.136 95.5884L61.4556 94.5252L60.9962 95.7439C60.9804 95.7847 60.9497 95.8178 60.911 95.8333C60.8722 95.8489 60.8291 95.845 60.7928 95.8256L60.1287 95.4524ZM62.331 98.679C62.3057 98.679 62.2803 98.677 62.2542 98.6751C60.6281 98.5371 59.7724 95.3124 59.737 95.1764C59.7211 95.1142 59.74 95.0481 59.7855 95.0092C59.8307 94.9684 59.8937 94.9606 59.9457 94.9917L60.7849 95.4621L61.2861 94.1326C61.3065 94.0781 61.3526 94.0412 61.4061 94.0354C61.4623 94.0296 61.5123 94.0548 61.5427 94.1015L62.2449 95.1997L62.8225 94.1131C62.8529 94.0548 62.9131 94.0257 62.9727 94.0354C63.0328 94.0451 63.0809 94.0956 63.0934 94.1598C63.1188 94.292 63.711 97.4214 62.935 98.3816C62.7754 98.5779 62.5728 98.679 62.331 98.679Z" fill="#F3E1CA"/>
<path d="M57.8009 95.2888C57.8009 95.2888 75.8401 100.457 76.8935 107.946C77.9468 115.436 65.9849 117.241 59.9279 117.71C53.8709 118.176 51.197 115.29 51.197 115.29L47.7803 92.5676L57.8009 95.2888Z" fill="#E6CFB0"/>
<path d="M35.9088 95.2888C35.9088 95.2888 17.8696 100.457 16.8162 107.946C15.7629 115.436 29.0024 117.241 35.0592 117.71C41.1164 118.176 41.846 114.672 41.846 114.672L45.9293 92.5675L35.9088 95.2888Z" fill="#E6CFB0"/>
<path d="M37.9619 94.5522C37.9619 94.5522 39.5577 72.4036 44.1575 70.7472C49.1877 68.9358 56.8324 70.4984 58.3071 73.6517C59.7816 76.805 56.9052 94.9021 56.9052 94.9021C56.9052 94.9021 46.3575 96.6359 37.9619 94.5522Z" fill="#889782"/>
<path d="M58.6322 115.123C58.6322 115.123 54.7938 118.146 54.694 118.534C54.594 118.925 53.0676 126.91 51.9603 127.868C50.8529 128.828 49.8269 128.191 49.8269 128.191C49.8269 128.191 47.3417 110.369 47.5639 109.721C47.786 109.074 54.7643 107.572 54.7643 107.572L58.6322 115.123Z" fill="#FF9981"/>
<path d="M50.4149 128.379L48.5911 109.179L46.208 109.581L48.4042 128.74L50.4149 128.379Z" fill="#FFAF45"/>
<path d="M53.3532 124.357L54.0139 121.693L49.7076 120.923L49.4521 123.366L53.3532 124.357Z" fill="#FFAF45"/>
<path d="M34.9463 114.95C34.9463 114.95 38.7847 117.974 38.8845 118.363C38.9845 118.752 40.5109 126.738 41.6184 127.697C42.7257 128.657 43.7516 128.017 43.7516 128.017C43.7516 128.017 46.2368 110.197 46.0147 109.55C45.7925 108.903 38.8143 107.4 38.8143 107.4L34.9463 114.95Z" fill="#FF9981"/>
<path d="M43.167 128.208L44.9906 109.008L47.3739 109.41L45.1775 128.569L43.167 128.208Z" fill="#FFAF45"/>
<path d="M40.2279 124.187L39.5674 121.522L43.8735 120.752L44.129 123.195L40.2279 124.187Z" fill="#FFAF45"/>
<path d="M44.7707 105.968L38.8847 118.363L30.6455 114.847L34.0874 105.968H44.7707Z" fill="#E6CFB0"/>
<path d="M48.5674 106.565L55.0071 118.96L62.6121 115.445L59.1702 106.565H48.5674Z" fill="#E6CFB0"/>
<path d="M37.9719 103.056H62.2021C62.6528 103.056 63.0185 102.66 63.0185 102.17V101.894C63.0185 101.402 62.6528 101.006 62.2021 101.006H37.9719C37.5209 101.006 37.1553 101.402 37.1553 101.894V102.17C37.1553 102.66 37.5209 103.056 37.9719 103.056Z" fill="#BDB2C2"/>
<path d="M43.792 103.052H61.6648L66.7694 90.5038H49.6014C49.1729 90.5038 48.785 90.7798 48.6116 91.2055L43.792 103.052Z" fill="#DDD7E0"/>
<path d="M45.3447 103.052H63.2176L67.773 91.8527C68.0317 91.2191 67.6037 90.5038 66.9646 90.5038H50.4493L45.3447 103.052Z" fill="#CCC5D6"/>
<path d="M55.0791 96.7785C55.0791 97.6901 55.7586 98.4287 56.5971 98.4287C57.4354 98.4287 58.115 97.6901 58.115 96.7785C58.115 95.8669 57.4354 95.1283 56.5971 95.1283C55.7586 95.1283 55.0791 95.8669 55.0791 96.7785Z" fill="white"/>
<path d="M28.7661 101.138C28.7561 101.138 28.7461 101.138 28.7362 101.138C28.6574 101.144 28.6246 101.179 28.6069 101.204C28.4851 101.375 28.4547 101.528 28.5107 101.686C28.7561 102.376 30.4796 102.928 31.5402 103.184C30.7378 102.386 29.3571 101.138 28.7661 101.138ZM32.0165 103.612C31.6487 103.542 28.6386 102.932 28.2365 101.801C28.1718 101.62 28.143 101.334 28.3744 101.009C28.4538 100.897 28.5719 100.831 28.7155 100.821C29.652 100.737 31.8686 103.072 32.1188 103.338C32.1651 103.387 32.1766 103.462 32.1472 103.525C32.1216 103.579 32.0709 103.612 32.0165 103.612Z" fill="white"/>
<path d="M43.1753 105.802C43.1624 105.802 43.1492 105.802 43.136 105.799C43.066 105.777 36.0273 103.674 26.4495 103.048C26.3685 103.042 26.307 102.967 26.3118 102.879C26.3163 102.792 26.3789 102.728 26.4674 102.729C36.0781 103.355 43.1446 105.468 43.2147 105.49C43.293 105.513 43.3386 105.602 43.3168 105.686C43.2987 105.758 43.2397 105.802 43.1753 105.802Z" fill="white"/>
<path d="M49.8276 106.724C49.7677 106.724 49.7112 106.685 49.6895 106.619C49.6618 106.538 49.7013 106.446 49.7775 106.415C49.855 106.384 57.6277 103.358 67.244 102.73C67.3286 102.728 67.3948 102.792 67.3996 102.879C67.4044 102.967 67.3427 103.043 67.2619 103.049C57.6898 103.672 49.9548 106.685 49.8779 106.716C49.8612 106.722 49.8444 106.724 49.8276 106.724Z" fill="white"/>
<path d="M64.937 101.116C64.3492 101.116 62.9779 102.391 62.1829 103.204C63.2405 102.932 64.9568 102.352 65.1933 101.66C65.2473 101.501 65.2147 101.349 65.0908 101.178C65.0727 101.155 65.0396 101.122 64.9606 101.116C64.9527 101.116 64.945 101.116 64.937 101.116ZM61.7106 103.639C61.6567 103.639 61.6066 103.606 61.5807 103.554C61.5503 103.491 61.5609 103.416 61.6066 103.367C61.8535 103.097 64.0468 100.729 64.9772 100.797C65.121 100.807 65.2401 100.869 65.321 100.98C65.5563 101.303 65.5311 101.589 65.4687 101.771C65.0813 102.906 62.0794 103.565 61.7383 103.635C61.7288 103.639 61.7197 103.639 61.7106 103.639Z" fill="white"/>
<path d="M30.283 93.2852C30.283 93.2852 28.8148 97.0171 27.5053 97.0152C25.9774 97.0113 24.2893 97.0191 24.148 97.058C23.8856 97.1299 20.9794 100.804 21.0511 101.431C21.1228 102.059 21.9885 101.618 21.9885 101.618C21.9885 101.618 21.4922 102.685 21.9744 102.837C22.4562 102.986 25.1505 101.323 25.1505 101.323C25.1505 101.323 30.9809 103.183 32.5373 101.029C36.1096 96.088 30.283 93.2852 30.283 93.2852Z" fill="#FF9981"/>
<path d="M24.1473 97.0576C24.1473 97.0576 21.303 99.0907 20.9724 99.8916C20.6421 100.69 21.4309 100.552 21.4309 100.552L23.5605 98.7603L24.1473 97.0576Z" fill="#FF9981"/>
<path d="M29.8166 101.579C29.8166 101.579 27.0753 102.667 26.4293 102.973C25.7834 103.276 24.7382 103.898 24.6026 103.079C24.467 102.263 27.8619 100.275 27.8619 100.275L29.8166 101.579Z" fill="#FF9981"/>
<path d="M25.0542 103.645C24.9399 103.645 24.8346 103.624 24.7428 103.569C24.5913 103.484 24.496 103.328 24.4595 103.109C24.3125 102.222 27.2112 100.477 27.7939 100.135C27.8653 100.094 27.9544 100.123 27.993 100.201C28.0315 100.277 28.0048 100.374 27.9333 100.416C26.3455 101.346 24.6768 102.617 24.7487 103.052C24.7784 103.229 24.8544 103.272 24.8795 103.287C25.1316 103.433 25.7163 103.145 26.1431 102.936C26.2234 102.897 26.3007 102.858 26.3726 102.825C27.0152 102.523 29.656 101.474 29.7678 101.429C29.8447 101.398 29.9286 101.441 29.9563 101.524C29.9842 101.608 29.9449 101.699 29.8689 101.729C29.8413 101.74 27.1239 102.819 26.4892 103.118C26.4183 103.151 26.3429 103.188 26.2642 103.227C25.8583 103.425 25.4117 103.645 25.0542 103.645Z" fill="black"/>
<path d="M21.9898 101.777C21.9539 101.777 21.9183 101.763 21.8898 101.734C21.8305 101.676 21.8267 101.575 21.8818 101.509L24.1374 98.8593C24.1924 98.7952 24.2854 98.7913 24.3452 98.8496C24.4046 98.9099 24.4083 99.0109 24.3532 99.077L22.0977 101.726C22.0687 101.759 22.0293 101.777 21.9898 101.777Z" fill="black"/>
<path d="M45.893 70.2729C45.893 70.2729 39.7266 70.947 36.3872 76.3494C34.0087 80.1978 26.667 95.7379 26.667 95.7379L33.9429 99.6428L38.804 91.7591L45.893 70.2729Z" fill="#889782"/>
<path d="M55.5409 67.2878L49.2048 64.2109L48.9056 64.0659L48.1006 63.6758C48.1006 63.6758 48.2142 61.2275 49.2022 59.8774C50.1891 58.5306 51.215 59.5936 51.215 59.5936C51.215 59.5936 51.9102 59.2838 53.0327 59.1947C53.4089 59.166 53.8254 59.1627 54.2801 59.2029C54.7689 59.2443 55.2999 59.3384 55.8642 59.504C58.5494 60.2941 57.095 61.9356 57.095 61.9356C57.095 61.9356 57.5428 62.5966 57.35 64.0984C57.0658 66.3173 55.5409 67.2878 55.5409 67.2878Z" fill="black"/>
<path d="M53.0597 60.4766C53.0597 60.4766 52.3557 52.9715 48.2692 55.1864C44.8505 57.0395 47.5375 62.7554 50.2166 62.3642C52.8957 61.9729 53.0597 60.4766 53.0597 60.4766Z" fill="black"/>
<path d="M49.0375 67.6651L48.0986 71.2067C48.0986 71.2067 48.4165 72.4089 50.2785 73.1742C51.6654 73.7443 52.3254 73.0924 52.3254 73.0924L52.8029 69.8854L49.5783 67.9846L49.0375 67.6651Z" fill="#FF9981"/>
<path d="M49.0982 67.4505C49.0809 67.5498 49.0845 67.6744 49.1023 67.8219C49.3628 69.8195 51.7339 71.3591 52.533 71.6958L52.8015 69.8854L49.0982 67.4505Z" fill="black"/>
<path d="M55.669 62.04C55.669 62.04 56.2024 67.0163 54.874 69.2724C53.5456 71.5287 51.5864 70.455 50.4827 69.568C49.3791 68.6809 49.0363 67.6657 49.0363 67.6657C49.0363 67.6657 47.7609 67.7087 47.3153 66.2843C46.87 64.8599 47.7224 63.6762 48.4688 63.5876C49.215 63.4989 49.8546 64.2768 49.8546 64.2768L49.5975 62.797C49.5975 62.797 54.0053 57.1694 55.669 62.04Z" fill="#FF9981"/>
<path d="M49.8557 64.2765C49.8557 64.2765 51.478 65.2505 53.2894 63.5678C55.1009 61.8853 55.2402 60.9869 55.2402 60.9869L55.8115 63.561C55.8115 63.561 56.5148 62.1532 56.2406 61.0079C55.966 59.8627 55.3356 59.8644 55.3356 59.8644L51.2147 59.5921L49.2432 62.5746L49.8557 64.2765Z" fill="black"/>
<path d="M53.9585 67.5771C53.9295 67.5771 53.9005 67.568 53.8753 67.5492C53.8084 67.4992 53.7914 67.3993 53.8374 67.327C54.294 66.6059 53.9921 65.5498 53.9889 65.5393C53.9645 65.455 54.0069 65.3652 54.0842 65.3386C54.1625 65.3115 54.2443 65.3584 54.2688 65.442C54.2834 65.4911 54.619 66.6566 54.0797 67.508C54.0509 67.5529 54.0051 67.5771 53.9585 67.5771Z" fill="black"/>
<path d="M49.1327 66.2935C49.0784 66.2935 49.0261 66.2602 49.0006 66.2037L48.268 64.5705C48.2322 64.4912 48.2624 64.3958 48.3356 64.3571C48.4077 64.3178 48.4962 64.3509 48.532 64.4308L49.2646 66.0637C49.3001 66.143 49.2701 66.2386 49.1969 66.2771C49.1762 66.2884 49.1544 66.2935 49.1327 66.2935Z" fill="black"/>
<path d="M48.8636 65.6946C48.8409 65.6926 48.0475 65.5603 48.0475 65.5603C47.9672 65.5472 47.9122 65.4656 47.9246 65.3783C47.9369 65.2916 48.0101 65.2318 48.0922 65.2448L48.8858 65.377C48.9657 65.39 49.021 65.4718 49.0085 65.5593C48.9974 65.6378 48.9348 65.6946 48.8636 65.6946Z" fill="black"/>
<path d="M55.7734 64.2581C55.7505 64.2581 55.7274 64.2524 55.706 64.2398L55.0297 63.8594C54.9574 63.8188 54.9294 63.7228 54.9667 63.6442C55.0043 63.5657 55.0935 63.5346 55.1647 63.5762L55.841 63.9566C55.9131 63.9972 55.9413 64.0934 55.9039 64.172C55.8778 64.2268 55.8265 64.2581 55.7734 64.2581Z" fill="black"/>
<path d="M52.6515 63.749C52.581 63.749 52.5186 63.6936 52.5068 63.6157C52.4938 63.5282 52.548 63.4458 52.6281 63.4314L53.9887 63.1875C54.0668 63.1758 54.1444 63.2326 54.1575 63.3193C54.1707 63.4065 54.1164 63.489 54.0364 63.5031L52.6757 63.7471C52.6676 63.7484 52.6596 63.749 52.6515 63.749Z" fill="black"/>
<path d="M55.2515 66.0554C55.1692 66.0546 55.104 65.9823 55.1045 65.8945L55.1106 65.0274C55.1109 64.9737 55.1358 64.9244 55.1773 64.8952L55.4869 64.675C55.554 64.6256 55.6455 64.6468 55.6901 64.721C55.7344 64.7947 55.7156 64.8938 55.6475 64.9419L55.4039 65.1152L55.3984 65.897C55.3978 65.9849 55.3322 66.0554 55.2515 66.0554Z" fill="black"/>
<path d="M52.8746 65.469C52.7921 65.4684 52.727 65.3961 52.7275 65.3081L52.7334 64.441C52.7338 64.386 52.7603 64.3356 52.803 64.3068L53.2253 64.0217C53.2943 63.9743 53.385 63.998 53.4276 64.0728C53.4703 64.1478 53.4491 64.2464 53.3802 64.2925L53.0269 64.5313L53.0214 65.3104C53.0209 65.3984 52.9552 65.469 52.8746 65.469Z" fill="black"/>
<path d="M53.7457 68.5847C53.6843 68.5847 53.6269 68.5423 53.6062 68.4755C53.5806 68.3921 53.6223 68.3017 53.6992 68.2733L54.526 67.974C54.6036 67.9468 54.6863 67.9915 54.712 68.0753C54.7376 68.1588 54.6959 68.249 54.619 68.2772L53.7922 68.5767C53.7766 68.5822 53.7612 68.5847 53.7457 68.5847Z" fill="black"/>
<path d="M51.5198 73.5491C51.1235 73.5491 50.6327 73.4653 50.0553 73.2111C47.9321 72.2765 47.6531 70.7969 47.6422 70.734C47.6273 70.6477 47.6792 70.5647 47.7586 70.5482C47.8386 70.5324 47.9151 70.588 47.9309 70.6745C47.9332 70.6875 48.202 72.0507 50.1655 72.9152C51.6668 73.5753 52.4965 72.9976 52.5312 72.9726C52.5987 72.924 52.6899 72.944 52.7348 73.0171C52.7799 73.09 52.7625 73.1885 52.6956 73.2377C52.6699 73.2565 52.2603 73.5491 51.5198 73.5491Z" fill="#F3E1CA"/>
<path d="M39.7488 90.1985C39.7307 90.1985 39.7114 90.2004 39.6905 90.2082C39.3294 90.3384 38.8436 91.3725 38.5166 92.2511C39.1764 91.6194 39.9187 90.7719 39.9055 90.3657C39.9035 90.3054 39.8831 90.2646 39.8373 90.2315C39.8078 90.2082 39.7797 90.1985 39.7488 90.1985ZM38.1811 92.9275C38.1516 92.9275 38.1217 92.9158 38.0962 92.8983C38.0429 92.8556 38.021 92.7817 38.0421 92.7137C38.1251 92.4552 38.8719 90.1655 39.5986 89.905C39.7413 89.8545 39.8819 89.8758 40.0038 89.9672C40.1265 90.0585 40.194 90.1927 40.199 90.354C40.2256 91.1762 38.4728 92.7176 38.2727 92.8925C38.246 92.9139 38.2135 92.9275 38.1811 92.9275Z" fill="#F3E1CA"/>
<path d="M57.0294 88.5725C56.9266 88.563 56.8713 88.5059 56.8835 88.4448L57.6762 84.4522C57.6786 84.44 57.6838 84.4278 57.6915 84.4169C57.7065 84.3938 59.2229 82.2026 59.4165 80.7014C59.6098 79.2044 57.7013 75.4373 57.682 75.3994C57.6529 75.3419 57.6906 75.2773 57.7665 75.255C57.8422 75.2329 57.9274 75.2617 57.957 75.3193C58.0368 75.4758 59.91 79.1745 59.7101 80.7232C59.5176 82.2134 58.1181 84.2797 57.9641 84.5038L57.1748 88.4774C57.1637 88.5331 57.1009 88.5725 57.0294 88.5725Z" fill="#F3E1CA"/>
<path d="M21.433 100.712C21.3985 100.712 21.3638 100.698 21.3359 100.671C21.2752 100.613 21.2692 100.512 21.3225 100.446L23.3341 97.9596C23.3881 97.8935 23.4807 97.8877 23.5415 97.946C23.6025 98.0043 23.6084 98.1054 23.5551 98.1715L21.5435 100.657C21.5142 100.692 21.4738 100.712 21.433 100.712Z" fill="black"/>
<path d="M88.0464 97.7869C86.4535 98.0357 83.7615 98.1951 80.711 98.1951C78.1776 98.1951 75.897 98.0862 74.2866 97.9074C74.2866 97.9074 73.8282 97.2174 74.0573 96.6692C74.0984 96.5604 74.175 96.4515 74.2866 96.3563C74.7627 95.9598 75.3681 96.2922 75.6738 96.5157C75.7913 96.6051 75.8677 96.6751 75.8677 96.6751C75.8677 96.6751 75.8677 96.6109 75.8677 96.5021C75.8795 95.9792 75.9795 94.4903 76.7554 94.8285C77.4372 95.122 77.9483 95.952 78.1776 96.3932C78.2658 96.5604 78.3128 96.6751 78.3128 96.6751C78.3128 96.6751 79.3944 96.3563 80.6639 96.3563H80.711C82.0041 96.368 82.0041 97.3651 82.0041 97.3651C82.0041 97.3651 82.1686 96.9044 82.4156 96.3738C82.7918 95.5633 83.362 94.5797 83.8379 94.8285C84.4317 95.1356 84.7256 96.0434 84.8315 96.4574C84.8608 96.5915 84.8785 96.6751 84.8785 96.6751C84.8785 96.6751 85.0076 96.5915 85.2251 96.4826C85.6131 96.2844 86.2949 95.9987 86.971 95.9714C87.4412 95.9598 87.7055 96.3233 87.8525 96.7314C88.023 97.1921 88.0464 97.7091 88.0464 97.7869Z" fill="#FCAD4F"/>
<path d="M42.5738 89.1565C42.4132 90.2061 42.2492 92.0759 42.7377 92.6785C42.8509 92.8204 42.9965 92.8787 43.1746 92.8651C44.3021 92.7698 45.0551 90.7931 45.3229 89.9631L44.6588 90.3343C44.6217 90.3557 44.5788 90.3596 44.5405 90.3421C44.5017 90.3266 44.471 90.2955 44.4552 90.2527L43.9957 89.034L43.3155 90.0972C43.2869 90.1419 43.2338 90.1633 43.1889 90.1652C43.1385 90.1633 43.0929 90.1341 43.068 90.0856L42.5738 89.1565ZM43.1202 93.1877C42.8788 93.1877 42.6761 93.0867 42.5169 92.8904C41.7405 91.9302 42.3325 88.8027 42.3581 88.6686C42.3705 88.6044 42.4188 88.5558 42.4787 88.5442C42.5393 88.5364 42.599 88.5656 42.6291 88.6219L43.2066 89.7085L43.9088 88.6103C43.9392 88.5636 43.99 88.5364 44.0455 88.5442C44.0988 88.55 44.1451 88.5869 44.1655 88.6414L44.6665 89.9709L45.5056 89.5005C45.5577 89.4694 45.6205 89.4791 45.6661 89.518C45.7115 89.5588 45.7305 89.6249 45.7147 89.6851C45.6791 89.8232 44.8235 93.0478 43.1977 93.1839C43.1712 93.1858 43.1454 93.1877 43.1202 93.1877Z" fill="#F3E1CA"/>
<path d="M44.4253 76.034C44.2649 77.0834 44.1007 78.9523 44.5891 79.556C44.7025 79.6964 44.8483 79.7556 45.0262 79.7418C46.1538 79.6472 46.9069 77.6702 47.1747 76.8389L46.5104 77.2113C46.4734 77.2317 46.4308 77.2356 46.392 77.2193C46.3534 77.2037 46.3226 77.1713 46.3069 77.1301L45.8477 75.9117L45.1672 76.9747C45.1384 77.0196 45.0874 77.0366 45.0406 77.0436C44.9901 77.0408 44.9445 77.0111 44.9195 76.9635L44.4253 76.034ZM44.9715 80.0637C44.7304 80.0637 44.5274 79.964 44.3682 79.7669C43.5922 78.8069 44.1842 75.6792 44.2098 75.5463C44.2221 75.482 44.2702 75.432 44.3303 75.4215C44.3908 75.4116 44.4503 75.4421 44.4806 75.4995L45.0581 76.5862L45.7606 75.4884C45.7914 75.4408 45.8418 75.4178 45.8973 75.4209C45.9506 75.4271 45.9969 75.4645 46.0173 75.5189L46.5181 76.8476L47.3575 76.3772C47.4093 76.3467 47.4725 76.3553 47.5179 76.3953C47.5633 76.4354 47.5823 76.5009 47.5664 76.5625C47.531 76.6989 46.6753 79.9242 45.049 80.0598C45.0228 80.0618 44.9969 80.0637 44.9715 80.0637Z" fill="#F3E1CA"/>
<path d="M36.9507 80.1648C36.6055 81.16 36.1099 82.9579 36.4807 83.6557C36.5667 83.8151 36.6962 83.9065 36.8765 83.9298C37.995 84.0756 39.0918 82.2951 39.5037 81.5351L38.7849 81.7606C38.7453 81.7742 38.7028 81.7684 38.6675 81.7431C38.6323 81.7198 38.608 81.6829 38.5998 81.6381L38.3676 80.3456L37.5103 81.2455C37.4742 81.2844 37.4229 81.2999 37.3735 81.2844C37.3247 81.2727 37.2853 81.2319 37.2691 81.1814L36.9507 80.1648ZM37.0061 84.2563C36.9516 84.2563 36.8965 84.2544 36.8414 84.2466C36.567 84.2116 36.3601 84.0659 36.2263 83.8151C35.6368 82.7091 36.7777 79.7661 36.8264 79.6415C36.8504 79.5803 36.9031 79.5442 36.9671 79.5442C37.028 79.5465 37.0811 79.5896 37.1008 79.6526L37.4728 80.8412L38.3579 79.9121C38.3968 79.8717 38.4524 79.8573 38.5042 79.8748C38.5556 79.8923 38.5942 79.9391 38.6044 79.9965L38.8577 81.4068L39.7654 81.1211C39.8215 81.1036 39.8822 81.125 39.9195 81.1736C39.9567 81.2222 39.9637 81.2902 39.9369 81.3485C39.8797 81.471 38.5559 84.2563 37.0061 84.2563Z" fill="#F3E1CA"/>
<path d="M31.3941 91.2905C31.0487 92.2877 30.5531 94.0856 30.924 94.7815C31.0101 94.9428 31.1396 95.0322 31.3197 95.0555C32.4402 95.2033 33.5353 93.4209 33.9465 92.6628L33.2282 92.8883C33.1889 92.9019 33.1465 92.8941 33.1109 92.8708C33.0755 92.8475 33.0512 92.8086 33.0435 92.7639L32.8106 91.4713L31.9534 92.3713C31.9172 92.4101 31.8646 92.4257 31.8167 92.4121C31.7677 92.3985 31.7284 92.3596 31.7121 92.3071L31.3941 91.2905ZM31.4492 95.384C31.3946 95.384 31.3399 95.3801 31.2848 95.3724C31.0102 95.3374 30.8035 95.1916 30.6697 94.9409C30.0802 93.8349 31.2209 90.8921 31.2698 90.7677C31.2934 90.7074 31.3504 90.6666 31.4103 90.6705C31.4713 90.6724 31.5243 90.7171 31.5441 90.7793L31.9158 91.967L32.801 91.0379C32.84 90.997 32.8956 90.9834 32.9473 91.0009C32.9986 91.0184 33.0369 91.0651 33.0472 91.1214L33.3009 92.5326L34.2087 92.2488C34.2649 92.2294 34.3255 92.2507 34.3627 92.2993C34.4001 92.3499 34.4069 92.4179 34.3803 92.4743C34.3229 92.5967 32.999 95.384 31.4492 95.384Z" fill="#F3E1CA"/>
<path d="M48.0144 82.8841C48.0491 83.9473 48.2303 85.8152 48.8193 86.3012C48.9554 86.4139 49.1071 86.4431 49.2818 86.3886C50.3693 86.0524 50.7458 83.9531 50.8563 83.0785L50.2732 83.5897C50.241 83.6169 50.1986 83.6285 50.1587 83.6227C50.118 83.6149 50.0817 83.5897 50.0588 83.5527L49.3857 82.4584L48.9135 83.646C48.8939 83.6966 48.8517 83.7316 48.8019 83.7413C48.7535 83.7491 48.7021 83.7296 48.6685 83.6888L48.0144 82.8841ZM49.1156 86.7346C48.9448 86.7346 48.7862 86.6763 48.6413 86.5558C47.705 85.7822 47.7131 82.5886 47.7139 82.4545C47.7143 82.3865 47.7524 82.3282 47.8093 82.3049C47.8662 82.2815 47.9309 82.299 47.9711 82.3496L48.7354 83.2884L49.223 82.0619C49.2442 82.0075 49.2909 81.9705 49.3446 81.9667C49.3991 81.9589 49.4501 81.988 49.4802 82.0366L50.214 83.2301L50.9507 82.5867C50.9962 82.5478 51.0595 82.542 51.1112 82.5712C51.1632 82.6003 51.1938 82.6606 51.1895 82.7247C51.1795 82.8666 50.9309 86.2098 49.3621 86.6957C49.2775 86.723 49.1954 86.7346 49.1156 86.7346Z" fill="#F3E1CA"/>
<path d="M53.6933 77.3878C53.9608 78.2191 54.714 80.1959 55.8415 80.2911C56.0218 80.3047 56.1654 80.2444 56.2788 80.1045C56.7669 79.5012 56.6027 77.6323 56.4423 76.5829L55.9481 77.5125C55.9232 77.56 55.8776 77.5897 55.827 77.5924C55.7744 77.5872 55.7288 77.5687 55.7004 77.5236L55.0202 76.4606L54.5611 77.6789C54.5453 77.7201 54.5146 77.7526 54.4758 77.7681C54.4377 77.7845 54.3942 77.7806 54.3575 77.7602L53.6933 77.3878ZM55.8962 80.6118C55.871 80.6118 55.8451 80.6118 55.8188 80.6099C54.1926 80.4738 53.337 77.2478 53.3014 77.1114C53.2856 77.0497 53.3044 76.984 53.3498 76.9442C53.3949 76.9038 53.4579 76.895 53.5103 76.9261L54.3498 77.3965L54.8506 76.0678C54.871 76.0135 54.9172 75.976 54.9707 75.9698C55.0272 75.9649 55.0769 75.9898 55.1073 76.0372L55.8095 77.1351L56.387 76.0483C56.4174 75.9908 56.4773 75.9616 56.5373 75.9704C56.5974 75.9811 56.6455 76.031 56.6578 76.0952C56.6834 76.2279 57.2756 79.3558 56.4995 80.3164C56.3402 80.5127 56.1375 80.6118 55.8962 80.6118Z" fill="#F3E1CA"/>
<path d="M58.9764 86.9738C59.2442 87.8038 59.9972 89.7806 61.1249 89.8758C61.3035 89.8894 61.4486 89.8292 61.562 89.6912C62.0506 89.0867 61.8863 87.2168 61.7255 86.1672L61.2313 87.0982C61.2062 87.1449 61.1606 87.174 61.1102 87.1779C61.0585 87.1702 61.012 87.1527 60.9836 87.108L60.3034 86.0447L59.8442 87.2654C59.8285 87.3062 59.7977 87.3373 59.7591 87.3529C59.7205 87.3684 59.6777 87.3665 59.6407 87.3451L58.9764 86.9738ZM61.1792 90.1985C61.154 90.1985 61.1283 90.1965 61.1018 90.1946C59.4758 90.0585 58.6201 86.8339 58.5846 86.6959C58.5688 86.6356 58.5878 86.5695 58.6332 86.5287C58.6785 86.4898 58.7414 86.4801 58.7935 86.5112L59.633 86.9816L60.1338 85.6521C60.1542 85.5977 60.2004 85.5607 60.2538 85.5549C60.3109 85.551 60.3599 85.5744 60.3903 85.6229L61.0927 86.7192L61.6702 85.6327C61.7006 85.5763 61.7616 85.5471 61.8204 85.5549C61.8805 85.5666 61.9286 85.6152 61.941 85.6793C61.9666 85.8134 62.5589 88.9409 61.7825 89.9011C61.6233 90.0974 61.4209 90.1985 61.1792 90.1985Z" fill="#F3E1CA"/>
<path d="M79.3236 100.187C77.2748 100.187 75.1276 100.018 74.9924 100.006C74.9116 100.001 74.8509 99.9229 74.8568 99.8354C74.8627 99.748 74.9311 99.6761 75.0142 99.6877C75.0636 99.6916 80.0253 100.084 82.0855 99.6897C82.1637 99.6741 82.2418 99.7324 82.2556 99.8199C82.2698 99.9074 82.2163 99.989 82.1365 100.005C81.4211 100.141 80.3855 100.187 79.3236 100.187Z" fill="#FC97BC"/>
<path d="M72.5115 42.2661C70.6878 46.7081 67.2057 45.8543 65.9872 44.8715C60.5635 50.1255 55.6507 45.299 54.9039 42.181C51.1701 43.8041 50.3055 39.5329 51.5238 38.0806C47.7507 37.1239 48.9692 32.9124 51.0129 32.6135C49.6295 29.7432 51.5893 28.3422 52.7422 28.0005C52.7107 24.5494 56.0044 24.1137 56.9869 25.2669C58.8341 20.953 61.9128 22.9032 62.9609 24.4977C66.9305 18.2621 71.3717 23.7718 71.0573 26.078C72.2521 25.9413 72.708 27.2171 72.7866 27.872C76.8741 24.8821 80.0969 30.9045 77.5815 33.5527C81.0009 39.0626 75.8129 43.1203 72.5115 42.2661Z" fill="white"/>
<path d="M55.2096 47.4211C55.4061 48.2754 54.4235 49.6422 53.3624 49.6422C52.3012 49.6422 51.4365 48.6771 51.4365 47.592C51.4365 46.5069 51.9884 45.6699 53.0086 45.6699C54.0288 45.6699 55.2096 46.336 55.2096 47.4211Z" fill="white"/>
<path d="M51.4771 51.692C51.5557 52.1192 51.0765 52.7599 50.5338 52.7599C49.9912 52.7599 49.6299 52.1638 49.6299 51.692C49.6299 51.2203 49.8657 50.7524 50.5338 50.8378C51.0841 50.8378 51.5164 51.2649 51.4771 51.692Z" fill="white"/>
<path d="M59.6223 30.707H58.5518V27.4002H59.6562C59.9802 27.4002 60.2585 27.4664 60.491 27.5988C60.7235 27.7301 60.9017 27.919 61.0255 28.1655C61.1504 28.4109 61.2128 28.7054 61.2128 29.0487C61.2128 29.3932 61.1498 29.6892 61.0239 29.9368C60.899 30.1844 60.7182 30.3749 60.4813 30.5084C60.2445 30.6408 59.9582 30.707 59.6223 30.707ZM59.0507 30.2711H59.5949C59.8468 30.2711 60.0561 30.2237 60.223 30.129C60.3898 30.0332 60.5147 29.8948 60.5976 29.714C60.6805 29.5321 60.7219 29.3103 60.7219 29.0487C60.7219 28.7893 60.6805 28.5692 60.5976 28.3883C60.5158 28.2075 60.3936 28.0702 60.2311 27.9766C60.0685 27.8829 59.8667 27.8361 59.6255 27.8361H59.0507V30.2711ZM62.8392 30.7571C62.6067 30.7571 62.4038 30.7038 62.2304 30.5972C62.0571 30.4907 61.9226 30.3416 61.8268 30.15C61.731 29.9584 61.6831 29.7345 61.6831 29.4783C61.6831 29.221 61.731 28.996 61.8268 28.8033C61.9226 28.6106 62.0571 28.461 62.2304 28.3544C62.4038 28.2479 62.6067 28.1946 62.8392 28.1946C63.0717 28.1946 63.2746 28.2479 63.4479 28.3544C63.6212 28.461 63.7558 28.6106 63.8516 28.8033C63.9474 28.996 63.9953 29.221 63.9953 29.4783C63.9953 29.7345 63.9474 29.9584 63.8516 30.15C63.7558 30.3416 63.6212 30.4907 63.4479 30.5972C63.2746 30.7038 63.0717 30.7571 62.8392 30.7571ZM62.8408 30.3518C62.9915 30.3518 63.1164 30.312 63.2154 30.2323C63.3144 30.1527 63.3876 30.0466 63.435 29.9142C63.4834 29.7818 63.5077 29.636 63.5077 29.4766C63.5077 29.3184 63.4834 29.1731 63.435 29.0407C63.3876 28.9072 63.3144 28.8001 63.2154 28.7194C63.1164 28.6386 62.9915 28.5982 62.8408 28.5982C62.689 28.5982 62.5631 28.6386 62.463 28.7194C62.3639 28.8001 62.2902 28.9072 62.2417 29.0407C62.1944 29.1731 62.1707 29.3184 62.1707 29.4766C62.1707 29.636 62.1944 29.7818 62.2417 29.9142C62.2902 30.0466 62.3639 30.1527 62.463 30.2323C62.5631 30.312 62.689 30.3518 62.8408 30.3518ZM65.017 29.2344V30.707H64.5342V28.2269H64.9976V28.6305H65.0283C65.0853 28.4992 65.1747 28.3937 65.2963 28.3141C65.419 28.2344 65.5735 28.1946 65.7597 28.1946C65.9288 28.1946 66.0768 28.2301 66.2038 28.3011C66.3308 28.3711 66.4293 28.4755 66.4993 28.6144C66.5692 28.7533 66.6042 28.925 66.6042 29.1295V30.707H66.1214V29.1876C66.1214 29.0078 66.0746 28.8674 65.981 28.7662C65.8873 28.6639 65.7587 28.6128 65.595 28.6128C65.4831 28.6128 65.3835 28.637 65.2963 28.6854C65.2102 28.7339 65.1419 28.8049 65.0913 28.8986C65.0417 28.9912 65.017 29.1031 65.017 29.2344ZM67.6667 27.4002V27.7102C67.6667 27.8017 67.6495 27.898 67.615 27.9992C67.5817 28.0993 67.5343 28.1957 67.4729 28.2882C67.4116 28.3808 67.3395 28.4605 67.2566 28.5272L67.0176 28.356C67.0811 28.2635 67.136 28.165 67.1823 28.0606C67.2297 27.9561 67.2533 27.841 67.2533 27.715V27.4002H67.6667ZM69.3863 28.2269V28.6144H68.0316V28.2269H69.3863ZM68.3949 27.6327H68.8777V29.9788C68.8777 30.0725 68.8917 30.143 68.9197 30.1903C68.9477 30.2366 68.9837 30.2684 69.0279 30.2856C69.0731 30.3017 69.1221 30.3098 69.1748 30.3098C69.2136 30.3098 69.2475 30.3071 69.2765 30.3017C69.3056 30.2964 69.3282 30.2921 69.3444 30.2888L69.4315 30.6877C69.4036 30.6984 69.3637 30.7092 69.3121 30.7199C69.2604 30.7318 69.1958 30.7382 69.1183 30.7393C68.9913 30.7415 68.8729 30.7189 68.7631 30.6715C68.6533 30.6241 68.5645 30.5509 68.4966 30.4519C68.4288 30.3529 68.3949 30.2285 68.3949 30.0789V27.6327ZM57.5721 36.707L56.8422 34.2269H57.3412L57.8272 36.0482H57.8514L58.339 34.2269H58.838L59.3224 36.0402H59.3466L59.8294 34.2269H60.3283L59.6001 36.707H59.1076L58.6039 34.9163H58.5667L58.0629 36.707H57.5721ZM61.5083 36.7619C61.3511 36.7619 61.209 36.7329 61.082 36.6747C60.955 36.6155 60.8543 36.53 60.7801 36.418C60.7069 36.3061 60.6703 36.1688 60.6703 36.0063C60.6703 35.8663 60.6972 35.7511 60.751 35.6607C60.8048 35.5703 60.8775 35.4987 60.969 35.446C61.0605 35.3932 61.1627 35.3534 61.2758 35.3265C61.3888 35.2996 61.504 35.2791 61.6213 35.2651C61.7699 35.2479 61.8904 35.2339 61.983 35.2231C62.0756 35.2113 62.1428 35.1925 62.1848 35.1666C62.2268 35.1408 62.2478 35.0988 62.2478 35.0407V35.0294C62.2478 34.8884 62.208 34.7791 62.1283 34.7016C62.0497 34.6241 61.9324 34.5853 61.7763 34.5853C61.6138 34.5853 61.4857 34.6214 61.392 34.6935C61.2994 34.7646 61.2354 34.8437 61.1999 34.9309L60.7461 34.8275C60.8 34.6768 60.8785 34.5552 60.9819 34.4626C61.0863 34.369 61.2063 34.3011 61.342 34.2592C61.4776 34.2161 61.6202 34.1946 61.7699 34.1946C61.8689 34.1946 61.9738 34.2064 62.0847 34.2301C62.1967 34.2527 62.3011 34.2947 62.398 34.356C62.4959 34.4174 62.5761 34.5051 62.6386 34.6192C62.701 34.7323 62.7322 34.8792 62.7322 35.06V36.707H62.2607V36.3679H62.2413C62.2101 36.4304 62.1633 36.4917 62.1009 36.552C62.0384 36.6123 61.9582 36.6624 61.8603 36.7022C61.7623 36.742 61.645 36.7619 61.5083 36.7619ZM61.6132 36.3744C61.7467 36.3744 61.8608 36.348 61.9555 36.2953C62.0513 36.2425 62.124 36.1736 62.1735 36.0886C62.2241 36.0025 62.2494 35.9105 62.2494 35.8125V35.4928C62.2322 35.51 62.1988 35.5262 62.1493 35.5412C62.1009 35.5552 62.0454 35.5676 61.983 35.5784C61.9206 35.5881 61.8597 35.5972 61.8005 35.6058C61.7413 35.6133 61.6918 35.6198 61.652 35.6252C61.5583 35.637 61.4728 35.6569 61.3952 35.6849C61.3188 35.7129 61.2575 35.7533 61.2112 35.806C61.166 35.8577 61.1434 35.9266 61.1434 36.0127C61.1434 36.1322 61.1875 36.2226 61.2758 36.284C61.364 36.3443 61.4765 36.3744 61.6132 36.3744ZM63.858 35.2344V36.707H63.3753V34.2269H63.8387V34.6305H63.8694C63.9264 34.4992 64.0158 34.3937 64.1374 34.3141C64.2601 34.2344 64.4146 34.1946 64.6008 34.1946C64.7698 34.1946 64.9178 34.2301 65.0448 34.3011C65.1719 34.3711 65.2704 34.4755 65.3403 34.6144C65.4103 34.7533 65.4453 34.925 65.4453 35.1295V36.707H64.9625V35.1876C64.9625 35.0078 64.9157 34.8674 64.822 34.7662C64.7284 34.6639 64.5997 34.6128 64.4361 34.6128C64.3242 34.6128 64.2246 34.637 64.1374 34.6854C64.0513 34.7339 63.9829 34.8049 63.9323 34.8986C63.8828 34.9912 63.858 35.1031 63.858 35.2344ZM66.5756 35.2344V36.707H66.0928V34.2269H66.5562V34.6305H66.5869C66.6439 34.4992 66.7333 34.3937 66.8549 34.3141C66.9776 34.2344 67.1321 34.1946 67.3183 34.1946C67.4873 34.1946 67.6353 34.2301 67.7624 34.3011C67.8894 34.3711 67.9879 34.4755 68.0579 34.6144C68.1278 34.7533 68.1628 34.925 68.1628 35.1295V36.707H67.68V35.1876C67.68 35.0078 67.6332 34.8674 67.5395 34.7662C67.4459 34.6639 67.3172 34.6128 67.1536 34.6128C67.0417 34.6128 66.9421 34.637 66.8549 34.6854C66.7688 34.7339 66.7004 34.8049 66.6498 34.8986C66.6003 34.9912 66.5756 35.1031 66.5756 35.2344ZM69.5321 36.7619C69.3749 36.7619 69.2328 36.7329 69.1058 36.6747C68.9788 36.6155 68.8781 36.53 68.8038 36.418C68.7306 36.3061 68.694 36.1688 68.694 36.0063C68.694 35.8663 68.721 35.7511 68.7748 35.6607C68.8286 35.5703 68.9013 35.4987 68.9928 35.446C69.0843 35.3932 69.1865 35.3534 69.2995 35.3265C69.4126 35.2996 69.5278 35.2791 69.6451 35.2651C69.7936 35.2479 69.9142 35.2339 70.0068 35.2231C70.0994 35.2113 70.1666 35.1925 70.2086 35.1666C70.2506 35.1408 70.2716 35.0988 70.2716 35.0407V35.0294C70.2716 34.8884 70.2318 34.7791 70.1521 34.7016C70.0735 34.6241 69.9562 34.5853 69.8001 34.5853C69.6376 34.5853 69.5095 34.6214 69.4158 34.6935C69.3232 34.7646 69.2592 34.8437 69.2237 34.9309L68.7699 34.8275C68.8238 34.6768 68.9023 34.5552 69.0057 34.4626C69.1101 34.369 69.2301 34.3011 69.3657 34.2592C69.5014 34.2161 69.644 34.1946 69.7936 34.1946C69.8927 34.1946 69.9976 34.2064 70.1085 34.2301C70.2205 34.2527 70.3249 34.2947 70.4218 34.356C70.5197 34.4174 70.5999 34.5051 70.6623 34.6192C70.7248 34.7323 70.756 34.8792 70.756 35.06V36.707H70.2845V36.3679H70.2651C70.2339 36.4304 70.1871 36.4917 70.1247 36.552C70.0622 36.6123 69.982 36.6624 69.8841 36.7022C69.7861 36.742 69.6688 36.7619 69.5321 36.7619ZM69.637 36.3744C69.7705 36.3744 69.8846 36.348 69.9793 36.2953C70.0751 36.2425 70.1478 36.1736 70.1973 36.0886C70.2479 36.0025 70.2732 35.9105 70.2732 35.8125V35.4928C70.256 35.51 70.2226 35.5262 70.1731 35.5412C70.1247 35.5552 70.0692 35.5676 70.0068 35.5784C69.9443 35.5881 69.8835 35.5972 69.8243 35.6058C69.7651 35.6133 69.7156 35.6198 69.6758 35.6252C69.5821 35.637 69.4965 35.6569 69.419 35.6849C69.3426 35.7129 69.2812 35.7533 69.235 35.806C69.1897 35.8577 69.1671 35.9266 69.1671 36.0127C69.1671 36.1322 69.2113 36.2226 69.2995 36.284C69.3878 36.3443 69.5003 36.3744 69.637 36.3744ZM59.4082 42.707L58.6783 40.2269H59.1773L59.6633 42.0482H59.6875L60.1751 40.2269H60.6741L61.1585 42.0402H61.1827L61.6655 40.2269H62.1644L61.4362 42.707H60.9437L60.44 40.9163H60.4028L59.899 42.707H59.4082ZM63.5918 42.7571C63.3593 42.7571 63.1564 42.7038 62.9831 42.5972C62.8098 42.4907 62.6752 42.3416 62.5794 42.15C62.4836 41.9584 62.4357 41.7345 62.4357 41.4783C62.4357 41.221 62.4836 40.996 62.5794 40.8033C62.6752 40.6106 62.8098 40.461 62.9831 40.3544C63.1564 40.2479 63.3593 40.1946 63.5918 40.1946C63.8243 40.1946 64.0273 40.2479 64.2006 40.3544C64.3739 40.461 64.5084 40.6106 64.6042 40.8033C64.7 40.996 64.7479 41.221 64.7479 41.4783C64.7479 41.7345 64.7 41.9584 64.6042 42.15C64.5084 42.3416 64.3739 42.4907 64.2006 42.5972C64.0273 42.7038 63.8243 42.7571 63.5918 42.7571ZM63.5934 42.3518C63.7441 42.3518 63.869 42.312 63.968 42.2323C64.0671 42.1527 64.1403 42.0466 64.1876 41.9142C64.2361 41.7818 64.2603 41.636 64.2603 41.4766C64.2603 41.3184 64.2361 41.1731 64.1876 41.0407C64.1403 40.9072 64.0671 40.8001 63.968 40.7194C63.869 40.6386 63.7441 40.5982 63.5934 40.5982C63.4417 40.5982 63.3157 40.6386 63.2156 40.7194C63.1166 40.8001 63.0428 40.9072 62.9944 41.0407C62.947 41.1731 62.9233 41.3184 62.9233 41.4766C62.9233 41.636 62.947 41.7818 62.9944 41.9142C63.0428 42.0466 63.1166 42.1527 63.2156 42.2323C63.3157 42.312 63.4417 42.3518 63.5934 42.3518ZM65.2868 42.707V40.2269H65.7535V40.6209H65.7793C65.8245 40.4874 65.9042 40.3824 66.0183 40.306C66.1335 40.2285 66.2637 40.1897 66.4091 40.1897C66.4392 40.1897 66.4747 40.1908 66.5156 40.193C66.5576 40.1951 66.5904 40.1978 66.6141 40.201V40.6628C66.5947 40.6575 66.5603 40.6515 66.5108 40.6451C66.4613 40.6375 66.4117 40.6338 66.3622 40.6338C66.2481 40.6338 66.1464 40.658 66.0571 40.7064C65.9688 40.7538 65.8988 40.82 65.8471 40.905C65.7955 40.989 65.7696 41.0848 65.7696 41.1925V42.707H65.2868ZM67.476 41.8658L67.4727 41.2764H67.5567L68.5449 40.2269H69.1229L67.9959 41.4217H67.92L67.476 41.8658ZM67.0319 42.707V39.4002H67.5147V42.707H67.0319ZM68.5982 42.707L67.7101 41.5283L68.0427 41.1908L69.1908 42.707H68.5982Z" fill="black"/>
<path d="M97.9873 86.5134C97.9873 86.5134 98.9585 105.286 103.594 110.2C108.23 115.114 123.046 125.27 123.046 125.27L124.682 121.338C124.682 121.338 110.937 109.053 109.529 105.177C108.186 101.479 111.77 82.7432 111.77 82.7432L97.9873 86.5134Z" fill="#D5BD99"/>
<path d="M115.943 82.7432C115.178 93.7925 106.484 101.491 103.814 110.429C101.042 119.711 98.7322 133.767 98.7322 133.767H94.71C94.71 133.767 96.2685 113.217 97.1934 108.255C98.1184 103.293 102.408 85.0412 102.408 85.0412L115.943 82.7432Z" fill="#D5BD99"/>
<path opacity="0.3" d="M115.851 83.7218C114.7 83.5467 113.541 83.4184 112.379 83.348L111.634 83.4746C111.644 83.4179 111.654 83.3651 111.663 83.3145C111.035 83.2887 110.407 83.2802 109.779 83.2879L104.944 84.6103L102.407 85.0412C102.407 85.0412 102.384 85.1408 102.341 85.3224L97.9873 86.5135C97.9873 86.5135 98.0533 87.7844 98.2322 89.7506C98.5667 89.8747 98.8945 89.9575 99.1418 90.003C100.075 90.1755 101.031 90.0949 101.974 90.0017C106.51 89.5545 111.097 88.8119 115.274 86.88C115.533 85.8568 115.729 84.8052 115.851 83.7218Z" fill="#D5BD99"/>
<path d="M109.706 53.7372C109.835 52.9977 109.964 52.2582 110.092 51.5186C110.21 50.8413 110.328 50.1494 110.242 49.4665C110.155 48.7836 109.824 48.099 109.255 47.7934C109.04 46.6444 108.065 45.7744 107.034 45.4284C106.003 45.0821 104.898 45.1477 103.821 45.2237C102.744 45.2997 101.642 45.3795 100.604 45.0593C100.355 44.9825 100.095 44.8821 99.8436 44.9494C99.5375 45.0314 99.3282 45.3435 99.2156 45.6632C98.9174 46.5105 99.1619 47.5492 99.7986 48.1364C99.4214 48.1132 99.0485 48.5557 98.9652 48.9562C98.8819 49.3562 99.0031 49.7781 99.1943 50.1322C99.3854 50.4863 99.6429 50.7915 99.8661 51.1224C100.421 51.9474 100.758 52.9445 100.827 53.9639C103.819 54.3429 106.826 54.6987 109.706 53.7372Z" fill="#473533"/>
<path d="M108.287 56.7424H103.89V61.0243H108.287V56.7424Z" fill="#FF9981"/>
<path opacity="0.3" d="M103.89 60.5269C107.919 60.2419 108.287 57.2078 108.287 57.2078L103.89 57.2842V60.5269Z" fill="#E79B77"/>
<path d="M100.686 51.5646C100.479 53.6588 99.9167 58.4111 102.803 59.7262C105.979 61.1727 111.181 55.9542 109.293 50.228C107.406 44.5023 101.151 46.8656 100.686 51.5646Z" fill="#FF9981"/>
<path d="M110.428 52.095C110.788 52.2379 110.958 52.653 111.017 53.0346C111.188 54.1394 110.713 55.3124 109.825 55.979C109.542 56.191 109.162 56.3567 108.84 56.2026C108.54 56.0588 108.418 55.697 108.372 55.3691C108.224 54.3102 108.569 52.9418 109.475 52.3062C109.746 52.1165 110.096 51.9632 110.428 52.095Z" fill="#FF9981"/>
<path d="M110.307 53.8766C110.258 53.8247 110.186 53.8212 110.131 53.8629C110.119 53.8719 110.107 53.8809 110.094 53.8895C110.092 53.8912 110.073 53.9036 110.069 53.9066C110.045 53.9217 110.021 53.9363 109.996 53.9496C109.943 53.9783 109.888 54.0032 109.831 54.0238C109.824 54.0264 109.817 54.029 109.81 54.0315C109.822 54.0277 109.821 54.0277 109.808 54.032C109.793 54.0363 109.779 54.041 109.765 54.0448C109.738 54.0521 109.711 54.0586 109.684 54.0642C109.796 53.838 109.951 53.6332 110.145 53.4658C110.266 53.362 110.102 53.1727 109.981 53.277C109.524 53.6701 109.248 54.2522 109.235 54.8582C109.232 55.0175 109.481 55.0381 109.484 54.878C109.488 54.6891 109.521 54.5037 109.578 54.3268C109.839 54.3002 110.085 54.211 110.295 54.0521C110.346 54.0127 110.351 53.9238 110.307 53.8766Z" fill="#554747"/>
<path d="M104.36 52.4111C105.011 52.1197 105.815 52.2137 106.394 52.6493C105.933 52.5377 105.448 52.5313 104.981 52.5974C104.862 52.6141 104.742 52.6369 104.623 52.6244C104.503 52.6116 104.426 52.5163 104.36 52.4111Z" fill="#554747"/>
<path d="M102.929 52.5512C102.283 52.3378 101.538 52.5246 101.044 53.0237C101.465 52.8593 101.92 52.7967 102.367 52.8083C102.48 52.8113 102.596 52.8199 102.707 52.7932C102.818 52.7666 102.88 52.6628 102.929 52.5512Z" fill="#554747"/>
<path d="M103.811 55.531C103.863 55.5069 103.914 55.4743 103.945 55.4224C103.976 55.3704 103.98 55.2962 103.941 55.2507C103.901 55.2026 103.832 55.203 103.772 55.2069C103.616 55.2172 103.46 55.2279 103.304 55.2382C103.248 55.2421 103.187 55.2477 103.146 55.2889C103.005 55.4271 103.263 55.5361 103.346 55.561C103.499 55.6069 103.665 55.5979 103.811 55.531Z" fill="#554747"/>
<path d="M105.077 54.0115C105.098 54.145 105.138 54.2806 105.225 54.3764C105.313 54.4721 105.459 54.5146 105.566 54.445C105.637 54.3987 105.679 54.3124 105.707 54.227C105.753 54.0823 105.77 53.9261 105.755 53.7733C105.742 53.6347 105.698 53.4926 105.604 53.3982C105.501 53.2947 105.273 53.2522 105.175 53.3862C105.053 53.5548 105.046 53.8098 105.077 54.0115Z" fill="#473533"/>
<path d="M101.597 54.3463C101.6 54.4815 101.621 54.6223 101.696 54.7304C101.77 54.8386 101.909 54.9034 102.023 54.851C102.101 54.8163 102.153 54.7377 102.191 54.657C102.257 54.521 102.294 54.369 102.299 54.2158C102.304 54.0763 102.28 53.9291 102.199 53.8209C102.11 53.7024 101.89 53.6252 101.776 53.7428C101.633 53.89 101.593 54.1415 101.597 54.3463Z" fill="#473533"/>
<path opacity="0.3" d="M103.922 57.5529C103.975 57.5628 104.029 57.5795 104.067 57.6199C104.106 57.6602 104.123 57.7302 104.091 57.7774C104.054 57.8353 103.974 57.8289 103.909 57.825C103.814 57.8199 103.719 57.8336 103.63 57.8658C103.584 57.8821 103.54 57.9032 103.494 57.9156C103.448 57.9285 103.398 57.9323 103.353 57.9152C103.198 57.8555 103.273 57.6774 103.384 57.6263C103.554 57.5478 103.739 57.5177 103.922 57.5529Z" fill="#E79B77"/>
<path d="M103.031 57.2568C103.582 57.3556 104.164 57.2702 104.655 56.9607C104.702 56.9306 104.751 56.8972 104.785 56.8478C104.82 56.7984 104.839 56.7298 104.821 56.6692C104.797 56.5903 104.718 56.5504 104.647 56.5559C104.576 56.5615 104.51 56.6014 104.446 56.6379C104.038 56.8701 103.57 56.9942 103.126 56.886C102.979 56.8504 102.836 56.7899 102.687 56.7727C102.638 56.7671 102.587 56.7663 102.54 56.7864C102.494 56.8066 102.452 56.8504 102.442 56.9075C102.421 57.0315 102.582 57.098 102.656 57.1375C102.774 57.2006 102.903 57.2341 103.031 57.2568Z" fill="#473533"/>
<path d="M100.468 48.5175C100.672 49.0682 101.051 49.5292 101.497 49.8721C101.943 50.2151 102.454 50.4456 102.977 50.619C104.459 51.1109 106.112 51.1413 107.52 50.44C107.71 51.5577 108.268 52.626 109.075 53.3471C109.676 52.6166 109.912 51.571 109.815 50.5967C109.64 48.8382 108.477 47.2792 106.986 46.5702C105.495 45.8611 103.732 45.9607 102.242 46.6736C101.488 47.035 100.702 47.66 100.468 48.5175Z" fill="#473533"/>
<path d="M99.4195 63.8782C99.4195 63.8782 95.9467 74.6511 94.3906 76.1735C92.834 77.696 84.6356 80.5777 84.6356 80.5777C84.6356 80.5777 84.1178 82.6856 85.5183 83.9119C85.5183 83.9119 94.0011 82.4319 96.7638 80.4867C99.5265 78.5415 101.667 73.3823 101.667 73.3823L99.4195 63.8782Z" fill="#FF9981"/>
<path d="M86.197 83.6746C86.197 83.6746 83.5729 86.4074 81.8861 86.1486C80.1996 85.8902 83.3462 85.1275 83.768 84.7193C83.768 84.7193 80.7502 85.8846 80.1356 85.1867C79.5211 84.4888 83.1503 83.9836 83.3387 83.7656C83.3387 83.7656 78.7624 84.7464 78.7027 83.8064C78.6451 82.8947 82.8616 82.6127 82.8616 82.6127C82.8616 82.6127 78.8939 82.2457 79.198 81.1259C79.3892 80.4216 82.3573 82.1135 83.4363 80.9731C83.4363 80.9731 81.1475 79.6447 81.591 79.1639C82.0342 78.6832 84.4651 80.5083 85.3202 80.3327L86.197 83.6746Z" fill="#FF9981"/>
<path d="M98.7345 133.767C98.7345 133.767 99.6279 135.648 99.1611 137.55C98.6942 139.453 85.137 138.585 85.7559 136.831C86.3981 135.013 89.9002 135.563 94.7123 132.286C95.4817 131.761 95.2336 134.086 98.7345 133.767Z" fill="#473533"/>
<path d="M124.479 121.141C124.479 121.141 126.417 121.342 127.637 122.799C128.856 124.256 120.846 136.174 119.824 134.66C118.765 133.089 121.086 130.186 121.155 124.015C121.166 123.028 122.83 124.512 124.479 121.141Z" fill="#473533"/>
<path d="M95.7725 71.8354C95.7725 71.8354 98.3796 75.4511 101.279 75.1974C101.279 75.1974 102.281 63.7073 100.544 62.3376C100.544 62.3376 99.002 62.7222 95.7725 71.8354Z" fill="#E6CFB0"/>
<path d="M98.9431 73.1137C99.321 73.3206 99.716 73.4901 100.122 73.6206C100.263 73.6661 100.324 73.4262 100.183 73.3811C98.6101 72.8759 97.238 71.7492 96.3462 70.262C96.3131 70.3508 96.2787 70.4452 96.2451 70.5358C96.9272 71.623 97.8609 72.5218 98.9431 73.1137Z" fill="#E6CFB0"/>
<path d="M99.6194 72.2701C99.7533 72.3327 99.8698 72.1185 99.7348 72.0554C98.4974 71.4773 97.4444 70.4995 96.7221 69.272C96.6869 69.3625 96.6522 69.4505 96.6162 69.5432C97.3536 70.7382 98.4002 71.7001 99.6194 72.2701Z" fill="#E6CFB0"/>
<path d="M97.2703 87.0112C96.7758 86.3288 99.2952 76.7263 99.3975 64.0717C99.4275 60.3315 113.077 59.255 113.03 61.4114C112.72 75.7893 115.725 85.7304 115.082 86.0691C111.471 87.9718 99.4611 90.0346 97.2703 87.0112Z" fill="#E6CFB0"/>
<path d="M112.309 83.9064C111.135 84.3244 109.922 84.621 108.697 84.7949C106.246 85.1425 103.738 85.0099 101.33 84.4043C100.069 84.0875 98.839 83.6355 97.6573 83.063C97.6435 83.1527 97.6292 83.245 97.6162 83.3321C99.8098 84.3832 102.164 85.0129 104.556 85.194C107.068 85.3842 109.618 85.0829 112.027 84.2815C112.986 83.9626 113.953 83.5596 114.771 82.9226C114.761 82.8243 114.749 82.7196 114.738 82.6157C114.018 83.2076 113.167 83.6003 112.309 83.9064Z" fill="#E6CFB0"/>
<path d="M101.119 81.3601C100.078 81.1103 99.0581 80.7742 98.0597 80.3712C98.0202 80.6451 97.9811 80.912 97.9424 81.1713C102.136 82.8405 106.751 83.1822 111.122 82.1881C112.274 81.9263 113.403 81.5619 114.504 81.1138C114.463 80.8579 114.421 80.5923 114.378 80.3188C110.167 82.046 105.516 82.416 101.119 81.3601Z" fill="#E6CFB0"/>
<path d="M105.423 62.7106C105.928 62.6278 106.398 62.3861 106.851 62.1299C107.677 61.6624 108.497 61.1165 109.063 60.313C107.314 60.337 105.26 60.5976 103.495 61.0821C103.449 61.7165 103.841 62.3578 104.367 62.5934C104.698 62.7415 105.072 62.7681 105.423 62.7106Z" fill="#FF9981"/>
<path d="M114.344 72.6388C114.344 72.6388 118.263 70.0592 118.282 67.0993C118.282 67.0993 113.624 61.3925 112.695 60.8843C112.695 60.8843 110.862 66.3173 112.695 70.1652C112.695 70.1652 114.005 71.8989 114.344 72.6388Z" fill="#E6CFB0"/>
<path d="M113.764 71.6683C115.173 70.5639 116.332 69.0973 117.115 67.4113C117.291 67.0336 117.441 66.643 117.578 66.2469C117.524 66.1812 117.466 66.1125 117.407 66.0413C116.841 67.7345 115.91 69.2763 114.703 70.512C114.365 70.8571 114.006 71.1751 113.63 71.4687C113.675 71.5357 113.72 71.6022 113.764 71.6683Z" fill="#E6CFB0"/>
<path d="M116.724 65.2224C116.118 66.9084 115.17 68.4433 113.963 69.6906C113.659 70.0056 113.335 70.2979 112.999 70.5739C113.043 70.634 113.09 70.6988 113.14 70.7679C114.485 69.6567 115.605 68.2351 116.394 66.6101C116.582 66.2251 116.744 65.8272 116.893 65.4233C116.837 65.3576 116.781 65.2907 116.724 65.2224Z" fill="#E6CFB0"/>
<path d="M112.212 99.1784C111.616 97.3456 110.999 95.4511 110.233 93.6471C110.187 93.5381 110.136 93.4312 110.089 93.3226C109.534 91.004 109.45 88.4557 109.793 86.0821C109.834 85.7971 109.665 85.5284 109.404 85.4752L108.809 85.3546C108.541 85.3001 108.279 85.495 108.236 85.7877C108.065 86.9732 108.004 88.1767 108.04 89.3772C107.284 88.1355 106.451 86.9487 105.54 85.8285C105.376 85.6276 105.091 85.613 104.909 85.7937L104.394 86.3032C104.215 86.4796 104.203 86.777 104.363 86.9736C106.165 89.1922 107.656 91.6774 108.798 94.3669C109.534 96.0983 110.138 97.9551 110.722 99.751C111.698 102.75 112.707 105.852 114.38 108.58L115.695 107.628C114.131 105.078 113.199 102.212 112.212 99.1784Z" fill="#C6CC5A"/>
<path d="M105.504 88.7869C105.417 88.7011 105.321 88.6161 105.206 88.5951C105.091 88.574 104.953 88.6427 104.932 88.7676C104.906 88.9187 105.046 89.035 105.163 89.1213C106.098 89.8093 106.462 90.9004 106.494 92.0764C107.113 92.146 106.676 90.8321 106.579 90.5411C106.363 89.9003 105.997 89.2226 105.504 88.7869Z" fill="#55592E"/>
<path d="M105.168 90.0331C104.516 89.7344 103.769 89.6902 103.091 89.9095C103.383 90.6147 103.923 91.1942 104.575 91.5028C105.094 91.7483 105.679 91.82 106.236 91.7144C106.537 91.6573 106.745 91.6058 106.539 91.2697C106.384 91.0173 106.198 90.7877 105.987 90.589C105.743 90.3589 105.466 90.1696 105.168 90.0331Z" fill="#55592E"/>
<path d="M107.536 88.384C107.809 88.9527 107.878 89.6335 107.726 90.2533C107.639 90.6074 107.48 90.9447 107.265 91.2272C107.13 91.404 106.812 91.6414 106.686 91.3212C106.578 91.0482 106.637 90.5971 106.673 90.3121C106.715 89.9734 106.803 89.6416 106.934 89.3309C107.082 88.9806 107.285 88.6566 107.536 88.384Z" fill="#55592E"/>
<path d="M105.293 92.5195C105.208 93.8573 105.122 95.1948 105.037 96.5327C104.972 97.5439 104.909 98.5744 105.129 99.5595C105.536 101.375 107.001 102.881 108.705 103.123C110.41 103.366 112.226 102.261 112.845 100.518C113.464 98.7753 112.749 96.57 111.221 95.7146C110.761 95.457 110.244 95.3128 109.828 94.978C109.295 94.5497 108.995 93.8659 108.735 93.2032C108.474 92.5405 108.218 91.8469 107.733 91.3541C107.335 90.949 106.509 90.6159 105.963 90.8421C105.368 91.0885 105.332 91.9216 105.293 92.5195Z" fill="#93A851"/>
<path d="M121.728 86.2332C121.741 85.528 121.723 84.8112 121.531 84.1377C121.338 83.4643 120.951 82.8308 120.378 82.5003C120.118 82.35 119.814 82.2663 119.526 82.3324C119.237 82.3985 118.973 82.6372 118.915 82.9514C118.798 83.5913 119.507 84.0781 119.576 84.7262C119.608 85.0241 119.487 85.3357 119.269 85.5189C119.051 85.7022 118.743 85.7516 118.486 85.6443C118.288 85.8524 118.45 86.2143 118.638 86.4327C118.825 86.6512 119.054 86.9255 118.958 87.2053C118.86 87.4912 118.493 87.5431 118.328 87.7895C118.14 88.0689 118.297 88.4883 118.558 88.6861C118.819 88.884 119.148 88.9299 119.458 89.0111C119.936 89.1364 121.126 90.1485 121.447 89.5038C121.642 89.1128 121.603 88.3561 121.64 87.9157C121.688 87.356 121.717 86.7946 121.728 86.2332Z" fill="#55592E"/>
<path d="M122.863 88.4062C123.557 87.7211 124.254 86.8897 124.297 85.8716C124.309 85.572 124.203 85.2003 123.929 85.1566C123.689 85.1179 123.485 85.3647 123.244 85.3952C122.98 85.4287 122.74 85.1814 122.668 84.9029C122.597 84.6243 122.656 84.3273 122.729 84.05C122.8 83.7869 122.885 83.5157 122.846 83.2448C122.807 82.974 122.592 82.7092 122.342 82.7435C122.049 82.7834 121.923 83.162 121.864 83.4766C121.525 85.2785 121.36 87.1129 121.195 88.9435C121.171 89.2131 121.048 89.7651 121.161 90.0149C121.325 90.3741 121.451 90.0046 121.607 89.7784C121.965 89.2612 122.425 88.8388 122.863 88.4062Z" fill="#68703A"/>
<path d="M120.693 106.794C120.587 107.258 120.474 107.734 120.211 108.117C119.948 108.499 119.498 108.77 119.071 108.657C118.355 108.467 118.191 107.457 118.172 106.657C118.067 102.238 117.963 97.8192 117.858 93.4004C117.839 92.5823 117.829 91.7204 118.19 91.0032C118.661 90.0701 119.681 89.5906 120.66 89.5469C121.335 89.5168 122.383 89.5842 122.989 89.958C123.651 90.3667 123.407 90.8298 123.311 91.644C123.107 93.363 122.873 95.0773 122.608 96.786C122.088 100.147 121.449 103.486 120.693 106.794Z" fill="#CB6E43"/>
<path d="M123.191 92.5709C123.171 92.7323 123.15 92.8933 123.13 93.0542C122.322 93.365 121.469 93.5195 120.615 93.5165C119.672 93.5131 118.73 93.3169 117.851 92.9345C117.85 92.7817 117.852 92.6284 117.859 92.4761C119.54 93.2547 121.485 93.2916 123.191 92.5709Z" fill="#B75B37"/>
<path d="M121.545 95.7443C121.344 95.7623 121.145 95.7709 120.949 95.7705C119.778 95.7662 118.717 95.4293 117.891 94.8125C117.886 94.6326 117.882 94.4528 117.878 94.2729C118.786 95.0666 120.082 95.4443 121.513 95.3164C121.968 95.2756 122.415 95.1863 122.858 95.07C122.836 95.2232 122.813 95.3765 122.79 95.5297C122.382 95.6301 121.968 95.707 121.545 95.7443Z" fill="#B75B37"/>
<path d="M120.258 98.1359C119.608 98.1252 118.779 98.023 117.957 97.6848C117.954 97.5273 117.95 97.3697 117.946 97.2126C118.766 97.5826 119.61 97.6959 120.264 97.7067C121.023 97.7208 121.767 97.6187 122.494 97.4693C122.47 97.6191 122.445 97.7685 122.421 97.9183C121.747 98.0496 121.059 98.1393 120.363 98.1368C120.328 98.1368 120.293 98.1368 120.258 98.1359Z" fill="#B75B37"/>
<path d="M119.166 107.35C118.827 107.279 118.499 107.151 118.188 106.985C118.179 106.874 118.173 106.764 118.171 106.657C118.17 106.602 118.168 106.547 118.167 106.491C118.502 106.698 118.865 106.85 119.241 106.928C119.71 107.027 120.197 107.009 120.667 106.899C120.631 107.055 120.591 107.21 120.545 107.363C120.324 107.403 120.1 107.424 119.876 107.424C119.638 107.422 119.399 107.398 119.166 107.35Z" fill="#B75B37"/>
<path d="M121.218 104.398C121.187 104.544 121.153 104.689 121.122 104.836C120.973 104.846 120.824 104.854 120.674 104.853C119.8 104.85 118.925 104.656 118.116 104.295C118.112 104.14 118.108 103.984 118.104 103.828C119.077 104.297 120.16 104.496 121.218 104.398Z" fill="#B75B37"/>
<path d="M119.463 102.618C119.015 102.559 118.513 102.397 118.064 102.113C118.06 101.939 118.056 101.765 118.052 101.592C118.497 101.938 119.036 102.129 119.51 102.192C120.24 102.289 120.977 102.168 121.7 102.002C121.671 102.154 121.639 102.305 121.609 102.457C121.096 102.568 120.564 102.656 120.027 102.655C119.839 102.654 119.651 102.642 119.463 102.618Z" fill="#B75B37"/>
<path d="M118.007 99.7217C118.003 99.5599 117.999 99.3981 117.995 99.2358C119.244 99.9449 120.75 100.139 122.113 99.7522C122.086 99.9058 122.056 100.059 122.029 100.213C121.586 100.321 121.131 100.379 120.676 100.377C119.756 100.375 118.834 100.15 118.007 99.7217Z" fill="#B75B37"/>
<path d="M128.521 86.0642C128.823 85.4401 129.157 84.822 129.625 84.3331C130.093 83.8442 130.714 83.4936 131.363 83.5052C131.658 83.5107 131.961 83.5966 132.184 83.8056C132.407 84.0151 132.532 84.3627 132.443 84.6679C132.261 85.2894 131.423 85.3431 131.075 85.8744C130.915 86.1187 130.882 86.4547 130.991 86.7299C131.101 87.005 131.348 87.2097 131.621 87.2509C131.701 87.5368 131.399 87.7686 131.137 87.8613C130.876 87.954 130.554 88.0738 130.513 88.3695C130.472 88.6712 130.77 88.9094 130.805 89.212C130.846 89.5554 130.522 89.8404 130.205 89.8765C129.888 89.9125 129.579 89.7795 129.272 89.688C128.798 89.5468 127.306 89.8078 127.312 89.0747C127.315 88.63 127.686 87.9883 127.849 87.5832C128.056 87.0681 128.28 86.5612 128.521 86.0642Z" fill="#55592E"/>
<path d="M126.558 87.3691C126.255 86.4047 126.015 85.311 126.43 84.3977C126.553 84.1286 126.811 83.8594 127.07 83.9646C127.297 84.0573 127.365 84.3801 127.563 84.5337C127.78 84.7016 128.1 84.6118 128.286 84.4054C128.472 84.1989 128.553 83.9084 128.612 83.6264C128.668 83.359 128.714 83.077 128.868 82.8606C129.023 82.6439 129.329 82.525 129.532 82.6864C129.771 82.8752 129.713 83.2731 129.625 83.5792C129.12 85.3347 128.448 87.0271 127.778 88.716C127.679 88.9645 127.541 89.5127 127.331 89.6719C127.028 89.9007 127.082 89.5105 127.046 89.2307C126.964 88.5898 126.749 87.9782 126.558 87.3691Z" fill="#68703A"/>
<path d="M120.279 104.606C120.166 105.068 120.054 105.545 120.113 106.018C120.173 106.491 120.447 106.964 120.871 107.09C121.582 107.299 122.175 106.502 122.548 105.811C124.604 101.998 126.662 98.1847 128.719 94.3716C129.099 93.6655 129.492 92.9165 129.494 92.0984C129.497 91.034 128.817 90.0789 127.98 89.5265C127.402 89.1454 126.455 88.654 125.759 88.663C124.997 88.6724 125.005 89.2063 124.727 89.9695C124.14 91.5812 123.583 93.2049 123.054 94.8398C122.015 98.0547 121.089 101.314 120.279 104.606Z" fill="#E38357"/>
<path d="M124.42 90.8423C124.366 90.9942 124.313 91.1457 124.259 91.2977C124.828 91.9943 125.506 92.578 126.254 93.0236C127.082 93.5163 127.993 93.8395 128.933 93.9666C129.002 93.8331 129.069 93.6983 129.131 93.5609C127.312 93.3592 125.593 92.3699 124.42 90.8423Z" fill="#CB6E43"/>
<path d="M124.447 94.4856C124.615 94.6075 124.786 94.7195 124.957 94.8216C125.984 95.4333 127.063 95.6951 128.06 95.5899C128.144 95.4346 128.228 95.2796 128.312 95.1242C127.164 95.3423 125.861 94.9916 124.665 94.128C124.285 93.8537 123.933 93.54 123.598 93.2061C123.549 93.3516 123.501 93.4975 123.452 93.6434C123.765 93.946 124.094 94.2306 124.447 94.4856Z" fill="#CB6E43"/>
<path d="M124.511 97.2546C125.084 97.5868 125.855 97.9328 126.725 98.0684C126.798 97.9328 126.872 97.7967 126.945 97.6606C126.063 97.5542 125.274 97.2095 124.696 96.8756C124.026 96.4893 123.419 96.009 122.849 95.4961C122.804 95.6399 122.759 95.7841 122.714 95.9279C123.245 96.3966 123.808 96.837 124.418 97.2001C124.449 97.2185 124.48 97.237 124.511 97.2546Z" fill="#CB6E43"/>
<path d="M121.369 105.894C121.697 106.01 122.041 106.071 122.388 106.089C122.445 105.996 122.499 105.903 122.548 105.811C122.574 105.763 122.6 105.716 122.625 105.668C122.24 105.672 121.855 105.615 121.491 105.486C121.037 105.326 120.618 105.054 120.255 104.711C120.218 104.867 120.184 105.024 120.155 105.182C120.332 105.332 120.518 105.469 120.714 105.586C120.924 105.71 121.143 105.815 121.369 105.894Z" fill="#CB6E43"/>
<path d="M120.885 102.233C120.847 102.377 120.812 102.522 120.774 102.667C120.9 102.754 121.027 102.839 121.158 102.917C121.925 103.374 122.777 103.664 123.647 103.773C123.719 103.639 123.791 103.504 123.864 103.37C122.805 103.269 121.768 102.875 120.885 102.233Z" fill="#CB6E43"/>
<path d="M123.215 101.596C123.633 101.78 124.144 101.902 124.664 101.889C124.745 101.739 124.826 101.589 124.907 101.439C124.363 101.508 123.805 101.392 123.363 101.198C122.681 100.899 122.089 100.407 121.53 99.8816C121.488 100.03 121.449 100.179 121.407 100.328C121.807 100.694 122.234 101.051 122.704 101.331C122.869 101.431 123.04 101.519 123.215 101.596Z" fill="#CB6E43"/>
<path d="M125.778 99.8264C125.853 99.6865 125.929 99.547 126.004 99.4071C124.595 99.3715 123.19 98.7504 122.17 97.6958C122.125 97.8447 122.082 97.9941 122.038 98.143C122.378 98.471 122.75 98.7598 123.149 98.9981C123.956 99.4788 124.863 99.7659 125.778 99.8264Z" fill="#CB6E43"/>
<path d="M103.304 96.0269L106.618 109.461C106.72 109.875 107.065 110.162 107.459 110.162H124.507C124.897 110.162 125.24 109.88 125.345 109.472L128.816 96.0269H103.304ZM108.902 102.132C108.061 102.132 107.38 101.392 107.38 100.478C107.38 99.564 108.061 98.8236 108.902 98.8236C109.743 98.8236 110.424 99.564 110.424 100.478C110.424 101.392 109.742 102.132 108.902 102.132ZM112.496 106.884C111.655 106.884 110.974 106.144 110.974 105.23C110.974 104.316 111.655 103.576 112.496 103.576C113.337 103.576 114.018 104.316 114.018 105.23C114.018 106.144 113.336 106.884 112.496 106.884ZM116.208 102.132C115.367 102.132 114.686 101.392 114.686 100.478C114.686 99.564 115.367 98.8236 116.208 98.8236C117.049 98.8236 117.73 99.564 117.73 100.478C117.73 101.392 117.049 102.132 116.208 102.132ZM119.909 106.884C119.068 106.884 118.387 106.144 118.387 105.23C118.387 104.316 119.068 103.576 119.909 103.576C120.75 103.576 121.431 104.316 121.431 105.23C121.431 106.144 120.75 106.884 119.909 106.884ZM123.514 102.132C122.673 102.132 121.992 101.392 121.992 100.478C121.992 99.564 122.673 98.8236 123.514 98.8236C124.354 98.8236 125.036 99.564 125.036 100.478C125.036 101.392 124.354 102.132 123.514 102.132Z" fill="#DF6969"/>
<path d="M128.523 93.9216H103.395C102.539 93.9216 101.845 94.6758 101.845 95.6059C101.845 96.536 102.539 97.2901 103.395 97.2901H128.523C129.379 97.2901 130.073 96.536 130.073 95.6059C130.073 94.6758 129.379 93.9216 128.523 93.9216Z" fill="#F28181"/>
<path d="M113.87 85.9898C113.37 86.1469 113.083 86.7143 113.228 87.2564L115.405 95.4218C115.549 95.9644 116.072 96.2764 116.57 96.1193C117.07 95.9622 117.357 95.3948 117.212 94.8527L115.035 86.6873C114.891 86.1447 114.369 85.8323 113.87 85.9898Z" fill="#DF6969"/>
<path d="M116.532 86.0691C116.532 86.0691 117.33 90.5853 115.812 90.3845C115.172 90.2999 115.793 89.3955 115.764 88.7822C115.764 88.7822 115.315 90.86 114.43 90.9446C113.545 91.0291 114.849 88.8453 114.81 88.5496C114.81 88.5496 113.698 91.0219 112.986 90.4849C112.295 89.9638 113.685 88.2332 113.685 88.2332C113.685 88.2332 112.143 89.8861 111.529 88.9281C111.143 88.3255 113.011 88.3487 112.867 86.7207C112.867 86.7207 111.026 87.3186 110.958 86.6421C110.89 85.9657 113.176 85.5579 113.585 84.7227L116.532 86.0691Z" fill="#FF9981"/>
<path d="M119.643 73.214C119.541 71.8615 118.863 70.1992 117.976 68.5488C117.262 70.3344 115.474 71.8087 114.705 72.3822C115.077 73.0187 115.405 73.7505 115.558 74.5248C116.025 76.8928 113.583 84.723 113.583 84.723L116.531 86.0695C116.531 86.0695 120.033 78.3732 119.643 73.214Z" fill="#FF9981"/>
<path d="M121.591 33.2469C118.679 36.9417 115.565 35.0465 114.654 33.7277C108.079 37.0877 104.632 30.9418 104.733 27.7218C100.728 28.1234 101.018 23.7613 102.566 22.7458C99.199 20.6621 101.47 17.0013 103.507 17.3466C102.932 14.1672 105.178 13.43 106.372 13.4589C107.246 10.1406 110.517 10.7412 111.157 12.1505C114.058 8.58596 116.499 11.4074 117.086 13.26C122.524 8.50939 125.339 15.1645 124.434 17.2782C125.615 17.5166 125.718 18.8805 125.622 19.5327C130.324 17.93 131.837 24.7 128.732 26.4612C130.568 32.8005 124.532 35.0866 121.591 33.2469Z" fill="white"/>
<path d="M109.562 37.8262C109.928 38.612 109.248 40.1812 108.213 40.4365C107.178 40.6917 106.139 39.9585 105.918 38.9003C105.697 37.8421 106.065 36.8931 107.059 36.6478C108.054 36.4024 109.342 36.768 109.562 37.8262Z" fill="white"/>
<path d="M106.793 42.8897C106.957 43.2873 106.62 44.0274 106.09 44.1579C105.561 44.2884 105.088 43.794 104.991 43.3339C104.895 42.8739 105.03 42.3608 105.699 42.2835C106.236 42.1511 106.744 42.4637 106.793 42.8897Z" fill="white"/>
<path d="M110.615 17.0096C110.634 16.9049 110.639 16.8041 110.63 16.7072C110.622 16.6098 110.601 16.5181 110.565 16.4319C110.53 16.3447 110.48 16.2646 110.416 16.1916C110.352 16.1191 110.274 16.0552 110.181 15.9999C110.024 15.9061 109.861 15.865 109.691 15.8766C109.52 15.8882 109.356 15.956 109.198 16.0802C109.04 16.2039 108.9 16.3869 108.778 16.6293C108.655 16.8726 108.587 17.1003 108.576 17.3123C108.564 17.5243 108.6 17.712 108.684 17.8755C108.768 18.0389 108.892 18.1694 109.055 18.2671C109.206 18.3576 109.355 18.4033 109.501 18.4041C109.648 18.4055 109.783 18.364 109.906 18.2797C110.031 18.1949 110.135 18.07 110.219 17.9049L110.316 17.9919L109.519 17.5152L109.708 17.1414L110.803 17.7963L110.631 18.1378C110.503 18.39 110.342 18.579 110.149 18.705C109.956 18.8306 109.747 18.8914 109.521 18.8874C109.296 18.8839 109.071 18.8149 108.846 18.6804C108.594 18.5297 108.404 18.3348 108.277 18.0958C108.15 17.8574 108.092 17.5916 108.102 17.2985C108.113 17.0044 108.198 16.6991 108.359 16.3825C108.48 16.1431 108.619 15.9465 108.778 15.7928C108.936 15.6392 109.104 15.5292 109.283 15.463C109.463 15.3964 109.647 15.3732 109.834 15.3934C110.023 15.4132 110.207 15.477 110.388 15.5849C110.538 15.675 110.666 15.7827 110.772 15.9081C110.878 16.0341 110.96 16.1714 111.017 16.3201C111.075 16.4694 111.107 16.6246 111.113 16.7859C111.119 16.9463 111.097 17.1068 111.046 17.2675L110.615 17.0096ZM111.385 20.2038C111.189 20.0867 111.042 19.9361 110.945 19.752C110.848 19.568 110.803 19.3648 110.81 19.1426C110.818 18.9204 110.88 18.693 110.998 18.4604C111.116 18.2269 111.26 18.0468 111.429 17.9201C111.598 17.7934 111.78 17.7254 111.975 17.716C112.171 17.7065 112.366 17.7604 112.562 17.8775C112.758 17.9947 112.904 18.1453 113.002 18.3293C113.099 18.5134 113.143 18.717 113.136 18.9402C113.128 19.1634 113.065 19.3918 112.946 19.6253C112.829 19.8579 112.686 20.037 112.517 20.1627C112.348 20.2884 112.166 20.356 111.971 20.3654C111.776 20.3748 111.58 20.321 111.385 20.2038ZM111.572 19.8367C111.699 19.9126 111.823 19.9394 111.943 19.917C112.063 19.8945 112.173 19.8352 112.274 19.7388C112.376 19.643 112.463 19.5228 112.536 19.3782C112.609 19.2345 112.655 19.0904 112.675 18.9458C112.697 18.8008 112.684 18.6667 112.638 18.5435C112.592 18.4203 112.505 18.3207 112.378 18.2448C112.25 18.1683 112.125 18.1415 112.004 18.1644C111.883 18.1878 111.772 18.2479 111.67 18.3446C111.569 18.441 111.482 18.561 111.409 18.7046C111.336 18.8493 111.289 18.9936 111.268 19.1377C111.248 19.2823 111.262 19.4157 111.309 19.5379C111.356 19.6606 111.444 19.7602 111.572 19.8367ZM114.951 19.3441L114.773 19.6959L113.632 19.0134L113.81 18.6616L114.951 19.3441ZM114.389 18.3052L114.796 18.5484L113.718 20.6783C113.675 20.7633 113.654 20.8343 113.656 20.8914C113.658 20.9476 113.674 20.9946 113.703 21.0324C113.734 21.0699 113.772 21.1019 113.816 21.1284C113.849 21.148 113.878 21.1626 113.905 21.1724C113.932 21.1821 113.953 21.1896 113.969 21.1948L113.859 21.6008C113.83 21.5965 113.792 21.5862 113.743 21.5699C113.694 21.5546 113.637 21.528 113.571 21.4899C113.463 21.4278 113.374 21.3477 113.303 21.2494C113.232 21.151 113.191 21.0398 113.179 20.9158C113.168 20.7917 113.196 20.6618 113.265 20.5259L114.389 18.3052ZM116.613 19.3599L117.091 19.6454L117.128 21.4453L117.158 21.4632L118.577 20.5338L119.055 20.8193L117.12 22.0384L116.524 23.2169L116.105 22.9663L116.701 21.7878L116.613 19.3599ZM118.413 24.4051C118.217 24.2879 118.07 24.1373 117.973 23.9533C117.876 23.7692 117.831 23.5661 117.838 23.3439C117.846 23.1217 117.908 22.8943 118.026 22.6617C118.144 22.4281 118.288 22.248 118.457 22.1214C118.626 21.9947 118.808 21.9267 119.004 21.9172C119.199 21.9078 119.394 21.9617 119.59 22.0788C119.786 22.196 119.932 22.3466 120.03 22.5306C120.127 22.7147 120.171 22.9183 120.164 23.1415C120.156 23.3647 120.093 23.5931 119.975 23.8266C119.857 24.0592 119.714 24.2383 119.545 24.364C119.376 24.4897 119.194 24.5572 118.999 24.5667C118.804 24.5761 118.608 24.5222 118.413 24.4051ZM118.6 24.038C118.727 24.1139 118.851 24.1407 118.971 24.1182C119.091 24.0958 119.201 24.0364 119.302 23.9401C119.404 23.8443 119.491 23.7241 119.564 23.5795C119.637 23.4358 119.683 23.2917 119.703 23.1471C119.725 23.002 119.712 22.8679 119.666 22.7448C119.62 22.6216 119.533 22.522 119.406 22.4461C119.278 22.3696 119.153 22.3428 119.032 22.3657C118.911 22.3891 118.8 22.4491 118.698 22.5459C118.597 22.6423 118.51 22.7622 118.438 22.9059C118.364 23.0505 118.317 23.1949 118.296 23.3389C118.276 23.4835 118.29 23.6169 118.337 23.7391C118.384 23.8619 118.472 23.9615 118.6 24.038ZM121.661 25.0714L122.328 23.7536L122.736 23.9977L121.596 26.2492L121.196 26.01L121.394 25.6201L121.372 25.6071C121.263 25.6985 121.135 25.7526 120.988 25.7693C120.843 25.7855 120.692 25.7467 120.535 25.6529C120.401 25.5727 120.298 25.4699 120.227 25.3445C120.157 25.2187 120.124 25.0752 120.129 24.9139C120.135 24.7531 120.185 24.5799 120.279 24.3942L121.004 22.9621L121.411 23.2053L120.712 24.5847C120.635 24.7381 120.612 24.8838 120.645 25.0219C120.678 25.16 120.758 25.2667 120.884 25.3421C120.96 25.3876 121.046 25.4124 121.142 25.4164C121.239 25.4209 121.334 25.3965 121.426 25.3433C121.519 25.2906 121.597 25.2 121.661 25.0714ZM108.273 22.7406L107.848 22.4867C107.881 22.3793 107.894 22.2751 107.887 22.1743C107.88 22.0734 107.858 21.9778 107.82 21.8875C107.782 21.7972 107.729 21.715 107.663 21.6409C107.597 21.5674 107.52 21.504 107.431 21.4509C107.27 21.3549 107.105 21.3124 106.934 21.3234C106.763 21.335 106.599 21.4029 106.441 21.5271C106.283 21.6518 106.143 21.8353 106.02 22.0776C105.896 22.3219 105.828 22.5498 105.816 22.7613C105.804 22.9733 105.84 23.1603 105.924 23.3222C106.007 23.4841 106.128 23.6125 106.287 23.7074C106.375 23.76 106.465 23.7972 106.557 23.819C106.65 23.8403 106.742 23.8449 106.832 23.8325C106.922 23.8202 107.008 23.7907 107.089 23.744C107.172 23.6969 107.247 23.6305 107.312 23.5451L107.736 23.8004C107.639 23.9344 107.526 24.0439 107.398 24.1289C107.271 24.2136 107.134 24.2705 106.987 24.2996C106.841 24.3284 106.691 24.3284 106.537 24.2997C106.382 24.271 106.228 24.2108 106.075 24.1192C105.834 23.9749 105.65 23.7848 105.524 23.5489C105.398 23.312 105.339 23.0457 105.347 22.75C105.355 22.4548 105.441 22.1474 105.602 21.8279C105.765 21.5074 105.958 21.2648 106.183 21.1002C106.409 20.9347 106.647 20.8468 106.898 20.8364C107.15 20.8251 107.396 20.8913 107.636 21.0351C107.784 21.1235 107.91 21.2289 108.015 21.3513C108.121 21.4732 108.203 21.6088 108.261 21.758C108.32 21.9063 108.351 22.0635 108.354 22.2297C108.358 22.3949 108.331 22.5652 108.273 22.7406ZM108.575 25.6194C108.379 25.5022 108.233 25.3516 108.136 25.1676C108.038 24.9835 107.994 24.7804 108.001 24.5582C108.008 24.3359 108.071 24.1086 108.188 23.876C108.307 23.6424 108.45 23.4623 108.62 23.3357C108.789 23.209 108.971 23.141 109.166 23.1315C109.361 23.1221 109.557 23.176 109.753 23.2931C109.949 23.4102 110.095 23.5608 110.192 23.7449C110.289 23.929 110.334 24.1326 110.326 24.3558C110.318 24.579 110.255 24.8073 110.137 25.0409C110.019 25.2735 109.876 25.4526 109.707 25.5783C109.539 25.704 109.357 25.7715 109.162 25.7809C108.967 25.7904 108.771 25.7365 108.575 25.6194ZM108.763 25.2523C108.89 25.3282 109.013 25.3549 109.133 25.3325C109.253 25.3101 109.364 25.2507 109.465 25.1544C109.566 25.0586 109.654 24.9384 109.727 24.7938C109.8 24.6501 109.846 24.506 109.866 24.3614C109.887 24.2163 109.875 24.0822 109.829 23.959C109.782 23.8358 109.695 23.7363 109.568 23.6604C109.441 23.5839 109.316 23.5571 109.194 23.5799C109.074 23.6033 108.962 23.6634 108.86 23.7602C108.76 23.8565 108.673 23.9765 108.6 24.1202C108.527 24.2648 108.48 24.4092 108.459 24.5532C108.439 24.6978 108.452 24.8312 108.499 24.9534C108.547 25.0762 108.635 25.1758 108.763 25.2523ZM112.883 25.2028L110.986 27.0012L110.55 26.7409L110.931 24.0354L111.367 24.2966L111.02 26.3456L111.042 26.3586L112.446 24.9417L112.883 25.2028ZM112.933 28.2244C112.727 28.1013 112.574 27.9478 112.473 27.7641C112.373 27.5799 112.327 27.3772 112.334 27.156C112.342 26.9343 112.405 26.7067 112.523 26.4732C112.64 26.2425 112.783 26.0631 112.952 25.935C113.122 25.8073 113.304 25.7373 113.498 25.7248C113.693 25.7129 113.888 25.765 114.082 25.881C114.2 25.9515 114.303 26.0409 114.393 26.149C114.482 26.2572 114.548 26.3826 114.591 26.5251C114.633 26.6676 114.643 26.8259 114.622 26.9999C114.6 27.1729 114.538 27.3616 114.434 27.5658L114.356 27.7212L112.694 26.7279L112.86 26.3996L114.123 27.1545C114.182 27.0392 114.211 26.924 114.213 26.8091C114.215 26.6931 114.189 26.5857 114.137 26.4867C114.085 26.3883 114.006 26.3076 113.901 26.2447C113.787 26.1764 113.672 26.147 113.556 26.1566C113.441 26.1658 113.336 26.2049 113.241 26.274C113.147 26.3427 113.072 26.4332 113.015 26.5456L112.885 26.8021C112.809 26.9526 112.769 27.0952 112.764 27.23C112.761 27.3654 112.789 27.4875 112.85 27.5964C112.911 27.7042 113.001 27.7937 113.12 27.8648C113.197 27.9108 113.274 27.9412 113.349 27.9557C113.425 27.9692 113.498 27.9658 113.569 27.9456C113.639 27.9254 113.704 27.8874 113.764 27.8317L114.112 28.1367C114.019 28.2404 113.91 28.3143 113.783 28.3585C113.658 28.4022 113.523 28.4136 113.378 28.3928C113.234 28.3716 113.085 28.3155 112.933 28.2244ZM114.304 28.9849L115.444 26.7334L115.837 26.9685L115.656 27.3261L115.678 27.3392C115.777 27.2408 115.893 27.1856 116.024 27.1737C116.157 27.1614 116.284 27.1918 116.407 27.265C116.432 27.2802 116.461 27.2991 116.495 27.3217C116.529 27.3448 116.556 27.3637 116.574 27.3786L116.362 27.7978C116.348 27.7832 116.322 27.7605 116.283 27.7297C116.245 27.6979 116.205 27.6695 116.163 27.6446C116.067 27.5871 115.97 27.5578 115.872 27.5568C115.776 27.5553 115.687 27.5801 115.604 27.6313C115.522 27.6815 115.456 27.7555 115.407 27.8532L114.711 29.2281L114.304 28.9849ZM116.578 30.4033C116.372 30.2802 116.219 30.1268 116.118 29.943C116.018 29.7589 115.972 29.5562 115.979 29.3349C115.987 29.1133 116.05 28.8857 116.168 28.6521C116.285 28.4215 116.428 28.2421 116.597 28.1139C116.767 27.9863 116.949 27.9162 117.143 27.9037C117.338 27.8918 117.533 27.9439 117.727 28.0599C117.845 28.1304 117.948 28.2198 118.038 28.328C118.127 28.4362 118.193 28.5615 118.236 28.704C118.278 28.8465 118.288 29.0048 118.267 29.1788C118.245 29.3519 118.183 29.5405 118.079 29.7447L118.001 29.9001L116.339 28.9068L116.505 28.5785L117.768 29.3334C117.827 29.2181 117.856 29.103 117.858 28.988C117.86 28.8721 117.834 28.7646 117.782 28.6656C117.73 28.5672 117.651 28.4865 117.546 28.4236C117.432 28.3553 117.317 28.3259 117.201 28.3355C117.086 28.3447 116.981 28.3839 116.886 28.4529C116.792 28.5216 116.717 28.6121 116.66 28.7245L116.53 28.981C116.454 29.1315 116.414 29.2742 116.409 29.409C116.406 29.5443 116.434 29.6665 116.495 29.7753C116.556 29.8832 116.646 29.9726 116.765 30.0437C116.842 30.0898 116.919 30.1201 116.994 30.1346C117.07 30.1481 117.143 30.1448 117.213 30.1246C117.284 30.1043 117.349 30.0664 117.409 30.0106L117.757 30.3156C117.664 30.4193 117.555 30.4933 117.428 30.5374C117.303 30.5811 117.168 30.5926 117.023 30.5718C116.879 30.5506 116.73 30.4944 116.578 30.4033ZM118.709 31.6756C118.541 31.5747 118.413 31.4382 118.328 31.2662C118.244 31.0938 118.208 30.8986 118.22 30.6806C118.234 30.4622 118.302 30.2313 118.426 29.988C118.549 29.7446 118.692 29.559 118.855 29.431C119.018 29.3036 119.19 29.2336 119.369 29.2209C119.548 29.2082 119.721 29.252 119.889 29.3524C120.019 29.4299 120.111 29.5157 120.166 29.6098C120.223 29.7035 120.257 29.7941 120.27 29.8817C120.283 29.9699 120.29 30.0447 120.291 30.1062L120.315 30.1209L120.88 29.0054L121.287 29.2486L119.767 32.2507L119.37 32.0131L119.547 31.6628L119.513 31.6424C119.464 31.6757 119.401 31.7093 119.324 31.7432C119.247 31.7776 119.158 31.7939 119.054 31.7921C118.951 31.7903 118.836 31.7515 118.709 31.6756ZM118.988 31.3555C119.105 31.4254 119.221 31.4513 119.335 31.4331C119.451 31.4145 119.56 31.3581 119.662 31.2638C119.765 31.1701 119.857 31.044 119.937 30.8857C120.016 30.7294 120.064 30.5801 120.082 30.4379C120.1 30.2957 120.085 30.1677 120.037 30.0539C119.989 29.9402 119.906 29.8478 119.787 29.7768C119.665 29.7035 119.546 29.6767 119.429 29.6963C119.313 29.7159 119.204 29.7724 119.102 29.8657C119.002 29.9595 118.914 30.0807 118.839 30.2292C118.763 30.3797 118.715 30.5276 118.696 30.6727C118.677 30.8178 118.69 30.95 118.736 31.0692C118.784 31.1879 118.868 31.2833 118.988 31.3555ZM122.38 29.9025L121.263 32.02L120.886 31.7946L121.933 29.6348L122.38 29.9025ZM120.624 32.7989C120.548 32.7539 120.498 32.6871 120.473 32.5984C120.449 32.5087 120.458 32.4236 120.5 32.3431C120.54 32.2624 120.6 32.2097 120.683 32.185C120.765 32.1594 120.844 32.1691 120.92 32.2141C120.993 32.258 121.042 32.3248 121.066 32.4144C121.091 32.5031 121.084 32.5878 121.044 32.6685C121.016 32.7217 120.978 32.7632 120.93 32.7929C120.883 32.8223 120.833 32.8379 120.778 32.8399C120.724 32.8419 120.673 32.8282 120.624 32.7989Z" fill="black"/>
</svg>
