<svg width="149" height="154" viewBox="0 0 149 154" fill="none" xmlns="http://www.w3.org/2000/svg">
<path d="M73.1787 38.8054C104.877 32.1514 119.34 39.4114 119.422 39.4529C119.321 39.4529 119.226 39.4642 119.137 39.4802C120.73 39.9102 122.347 40.4472 123.967 41.0945C130.636 43.7605 135.997 47.7523 139.126 51.9421C145.359 57.2521 147.729 67.4493 148.521 72.1677C149.953 79.9984 148.149 86.847 143.24 89.5759C142.921 89.7531 142.594 89.9087 142.261 90.0457C136.753 97.9306 137.863 108.928 141.511 115.856C145.192 122.849 145.58 128.871 133.373 141.497C121.166 154.123 92.296 158.59 39.9814 148.295C-7.74703 138.902 -0.237988 105.501 1.44531 99.7166C1.73564 94.4063 4.13873 87.9535 8.46191 81.9382C8.83318 81.4217 9.21129 80.9167 9.59668 80.4255C18.7463 64.8706 43.3146 45.0747 73.1787 38.8054Z" fill="#D9DCB9"/>
<path d="M17.2429 118.197H24.7288C25.6023 118.197 26.3397 117.528 26.4498 116.633L28.0537 103.61H13.9181L15.522 116.633C15.632 117.528 16.3694 118.197 17.2429 118.197Z" fill="#E6CFB0"/>
<path d="M13.9189 103.609C13.9189 103.749 14.3648 103.885 15.1301 103.997C16.4023 104.185 18.5523 104.306 20.9887 104.306C23.012 104.306 24.8335 104.224 26.1197 104.088C27.3168 103.957 28.0537 103.793 28.0537 103.609C28.0537 103.433 27.3919 103.274 26.3028 103.149C25.9226 103.105 25.486 103.071 25.0118 103.032C24.96 103.032 24.9085 103.027 24.8569 103.022C24.2935 102.988 23.6738 102.959 23.012 102.94C22.3829 102.92 21.7162 102.912 21.0263 102.912H20.9887C20.5239 102.912 20.0686 102.916 19.6272 102.925C18.9466 102.935 18.2942 102.959 17.6978 102.988C17.5899 102.999 17.4866 103.003 17.3834 103.007C16.5618 103.056 15.8483 103.119 15.2849 103.196C14.426 103.313 13.9189 103.459 13.9189 103.609Z" fill="#DBD3E0"/>
<path d="M15.1344 103.997C16.4066 104.185 18.5567 104.306 20.9931 104.306C23.0164 104.306 24.8378 104.224 26.124 104.088C26.124 104.088 26.4902 103.565 26.3072 103.149C26.2743 103.066 26.2132 102.984 26.124 102.912C25.7438 102.611 25.2602 102.863 25.0161 103.032C24.9223 103.1 24.8613 103.153 24.8613 103.153C24.8613 103.153 24.8613 103.105 24.8613 103.022C24.8518 102.626 24.772 101.496 24.1523 101.753C23.6078 101.975 23.1995 102.605 23.0164 102.94C22.946 103.066 22.9084 103.153 22.9084 103.153C22.9084 103.153 22.0446 102.912 21.0306 102.912H20.9931C19.9603 102.92 19.9603 103.677 19.9603 103.677C19.9603 103.677 19.8289 103.327 19.6316 102.925C19.3312 102.31 18.8758 101.564 18.4957 101.753C18.0214 101.986 17.7867 102.674 17.7021 102.988C17.6787 103.09 17.6646 103.153 17.6646 103.153C17.6646 103.153 17.5614 103.09 17.3877 103.007C17.0779 102.857 16.5333 102.64 15.9934 102.62C15.6178 102.611 15.4067 102.887 15.2893 103.196C15.1531 103.545 15.1344 103.938 15.1344 103.997Z" fill="#FFBA5E"/>
<path d="M22.1011 105.818C23.7375 105.818 25.4524 105.69 25.5603 105.681C25.6249 105.676 25.6733 105.618 25.6686 105.551C25.6639 105.485 25.6093 105.431 25.5429 105.44C25.5035 105.443 21.5407 105.74 19.8953 105.441C19.8328 105.429 19.7704 105.474 19.7594 105.54C19.7481 105.606 19.7908 105.668 19.8546 105.679C20.426 105.782 21.253 105.818 22.1011 105.818Z" fill="#FC97BC"/>
<path d="M27.2857 88.7629L31.7041 82.6913L33.5439 86.0521L32.2926 88.7629H27.2857Z" fill="#E4E1EA"/>
<path d="M19.5964 91.381C19.5964 91.381 18.5707 97.6801 18.515 97.8025C18.4122 98.028 19.1021 102.088 19.5421 102.375C19.9835 102.663 20.1949 101.806 20.1949 101.806C20.1949 101.806 20.5935 102.737 20.962 102.473C21.332 102.21 21.8034 99.3872 21.8034 99.3872C21.8034 99.3872 25.5674 96.6143 25.1203 92.9436C24.4747 87.638 19.5964 91.381 19.5964 91.381Z" fill="#FF9981"/>
<path d="M19.0659 101.582C19.1445 101.572 19.1902 101.512 19.1816 101.445L18.8274 98.5956C18.8188 98.5293 18.7617 98.4851 18.696 98.491C18.6317 98.4998 18.5861 98.5602 18.5946 98.6266L18.9488 101.476C18.9559 101.537 19.0074 101.582 19.0659 101.582Z" fill="black"/>
<path d="M24.6221 95.5868C24.6221 95.5868 23.7595 98.7356 23.5866 99.3607C23.4124 99.9857 23.2153 101.069 22.6169 100.726C22.02 100.381 22.6812 96.8826 22.6812 96.8826L24.6221 95.5868Z" fill="#FF9981"/>
<path d="M22.8286 100.913C22.8857 100.913 22.9429 100.901 22.9971 100.878C23.3456 100.726 23.4984 100.135 23.6355 99.6129C23.6555 99.5362 23.6741 99.4625 23.6941 99.3947C23.8669 98.7682 24.7295 95.6194 24.7295 95.6194L24.5053 95.553C24.5053 95.553 23.6412 98.7033 23.4684 99.3269C23.4484 99.3976 23.4284 99.4728 23.4084 99.551C23.2985 99.9711 23.1485 100.549 22.9057 100.654C22.8386 100.683 22.76 100.673 22.6701 100.62C22.3087 100.412 22.523 98.323 22.7915 96.9063C22.8043 96.84 22.7629 96.7766 22.6986 96.7633C22.6344 96.7515 22.573 96.7943 22.5615 96.8591C22.4487 97.4576 21.916 100.463 22.5544 100.832C22.6487 100.885 22.7415 100.913 22.8286 100.913Z" fill="black"/>
<path d="M20.1928 101.927C20.2728 101.917 20.3171 101.855 20.3085 101.789L19.9015 98.7475C19.8929 98.6811 19.8372 98.6399 19.7687 98.6443C19.7044 98.6531 19.6601 98.715 19.6687 98.7799L20.0757 101.823C20.0843 101.883 20.1343 101.927 20.1928 101.927Z" fill="black"/>
<path d="M35.1345 106.192H89.0281C91.3474 106.192 93.2275 104.252 93.2275 101.858V71.9613C93.2275 69.568 91.3474 67.6277 89.0281 67.6277H35.1345C32.8147 67.6277 30.9348 69.568 30.9348 71.9613V101.858C30.9348 104.252 32.8147 106.192 35.1345 106.192Z" fill="#F3E1CA"/>
<path d="M28.0465 103.46V105.28C28.0465 105.757 28.1065 106.223 28.2236 106.667C28.815 108.918 30.8078 110.575 33.1776 110.575H90.9748C93.3454 110.575 95.3415 108.918 95.9331 106.667C96.0499 106.223 96.1104 105.757 96.1104 105.28V103.46C96.1104 100.537 93.8122 98.1652 90.9748 98.1652H33.1776C30.3449 98.1652 28.0465 100.537 28.0465 103.46Z" fill="#D5BD99"/>
<path d="M91.5187 117.003H91.7817C92.4275 117.003 92.974 116.509 93.0604 115.848L93.9775 108.823H89.9364L90.2297 115.729C90.26 116.441 90.828 117.003 91.5187 117.003Z" fill="#F3E1CA"/>
<path d="M32.6119 117.003H32.3477C31.7022 117.003 31.1552 116.509 31.0695 115.848L30.1526 108.823H34.1943L33.9001 115.729C33.8701 116.441 33.3017 117.003 32.6119 117.003Z" fill="#F3E1CA"/>
<path d="M87.0986 93.5347C87.0986 97.2589 90.0484 100.279 93.6875 100.279C97.3265 100.279 100.276 97.2589 100.276 93.5347C100.276 89.809 97.3265 86.79 93.6875 86.79C90.0484 86.79 87.0986 89.809 87.0986 93.5347Z" fill="#EFD9BE"/>
<path d="M72.0943 69.6453H88.6217C88.6866 69.6453 88.7393 69.591 88.7393 69.5244C88.7393 69.4579 88.6866 69.4036 88.6217 69.4036H72.0943C72.03 69.4036 71.9771 69.4579 71.9771 69.5244C71.9771 69.591 72.03 69.6453 72.0943 69.6453Z" fill="white"/>
<path d="M28.2271 106.667C28.8185 108.918 30.8112 110.575 33.1811 110.575H90.9782C93.3488 110.575 95.345 108.918 95.9365 106.667H28.2271Z" fill="#F3E1CA"/>
<path d="M90.9067 93.8632C90.9067 95.4479 92.1516 96.7319 93.6872 96.7319C95.2228 96.7319 96.4678 95.4479 96.4678 93.8632C96.4678 92.2785 95.2228 90.993 93.6872 90.993C92.1516 90.993 90.9067 92.2785 90.9067 93.8632Z" fill="#D5BD99"/>
<path d="M52.6015 88.5537C52.6529 88.5537 52.6815 88.5743 52.7 88.592C52.9657 88.8618 52.7058 90.2254 52.4373 91.2072C52.2644 90.6367 51.9531 89.4249 52.2216 88.8441C52.2859 88.7055 52.3787 88.6171 52.5029 88.5729C52.5429 88.5596 52.5758 88.5537 52.6015 88.5537ZM52.4515 91.875L52.5401 91.5831C52.6201 91.3133 53.3199 88.9296 52.84 88.4446C52.77 88.3739 52.6458 88.3046 52.4387 88.3768C52.263 88.4372 52.1288 88.5655 52.0402 88.7542C51.6461 89.6033 52.3201 91.5079 52.3487 91.589L52.4515 91.875Z" fill="#6876AA"/>
<path d="M38.1233 100.789C38.1233 101.96 43.8073 102.907 50.8183 102.907C57.8307 102.907 63.5146 101.96 63.5146 100.789C63.5146 99.6186 57.8307 98.6707 50.8183 98.6707C43.8073 98.6707 38.1233 99.6186 38.1233 100.789Z" fill="#D5BD99"/>
<path d="M50.1183 87.9964C50.1183 87.9964 64.7631 77.0957 72.8383 77.8661C80.9137 78.6363 73.1383 100.195 73.1383 100.195L62.0961 97.5917L62.1047 96.2694L48.5384 98.4202L53.2053 88.7158L50.1183 87.9964Z" fill="#E6CFB0"/>
<path d="M38.7152 94.8689C38.7152 94.8689 29.6172 79.9477 31.9942 74.331C34.3698 68.7144 42.3307 69.6921 42.3307 69.6921L52.0244 87.25L38.7152 94.8689Z" fill="#889782"/>
<path d="M66.9909 88.5686C67.0466 88.5686 67.0966 88.5273 67.1066 88.4684C67.128 88.3431 67.6023 85.4053 65.9281 84.6115C64.2939 83.838 57.4957 85.9368 57.2072 86.0266C57.1458 86.046 57.11 86.1131 57.1286 86.1775C57.1472 86.2413 57.21 86.2797 57.2743 86.2583C57.3443 86.2366 64.2796 84.0925 65.8309 84.832C67.3408 85.5477 66.8794 88.3991 66.8752 88.4271C66.8652 88.4934 66.9066 88.5553 66.9709 88.5671C66.978 88.5686 66.9852 88.5686 66.9909 88.5686Z" fill="white"/>
<path d="M68.8842 89.1328C68.937 89.1328 68.9856 89.0945 68.9985 89.0385C69.0542 88.7938 70.3398 83.0228 67.45 82.1316C63.6616 80.9592 55.0936 86.0063 54.7308 86.2215C54.675 86.2551 54.655 86.329 54.6879 86.387C54.7208 86.4448 54.7922 86.4638 54.8479 86.4316C54.935 86.3797 63.6873 81.2227 67.3828 82.3635C70.0612 83.1899 68.7828 88.925 68.7699 88.9824C68.7542 89.0488 68.7942 89.1136 68.857 89.1284C68.8656 89.1313 68.8756 89.1328 68.8842 89.1328Z" fill="white"/>
<path d="M71.7206 89.9719C71.7735 89.9719 71.822 89.9336 71.8349 89.8776C71.902 89.5886 73.4305 82.7749 70.9749 80.4714C68.0394 77.7141 63.5097 79.9509 63.4654 79.9737C63.4068 80.003 63.3825 80.0753 63.4111 80.1354C63.4397 80.1956 63.5097 80.2205 63.5682 80.1913C63.6125 80.169 67.9994 78.0041 70.8178 80.6502C73.1705 82.8582 71.6235 89.7523 71.6063 89.8216C71.592 89.8879 71.6306 89.9528 71.6935 89.9675C71.7035 89.9704 71.712 89.9719 71.7206 89.9719Z" fill="white"/>
<path d="M74.2304 90.4038C74.2818 90.4038 74.3289 90.3684 74.3432 90.3154C74.3689 90.2225 76.7872 80.9818 72.171 77.7282C72.1167 77.6899 72.0439 77.7042 72.0081 77.7599C71.971 77.8147 71.9853 77.8905 72.0381 77.928C76.5166 81.0844 74.1418 90.1591 74.1176 90.2505C74.1004 90.3154 74.1361 90.3817 74.199 90.3994C74.209 90.4023 74.2204 90.4038 74.2304 90.4038Z" fill="white"/>
<path d="M65.0636 86.4478C65.1093 86.4478 65.1522 86.4202 65.1722 86.3748C65.1793 86.3568 65.9305 84.5837 67.0874 83.1956C67.1302 83.1449 67.1245 83.0684 67.0759 83.0249C67.0259 82.9813 66.9517 82.9874 66.9103 83.0376C65.7292 84.4545 64.9637 86.2602 64.9565 86.2782C64.9308 86.3398 64.958 86.4113 65.0165 86.4377C65.0322 86.4444 65.0479 86.4478 65.0636 86.4478Z" fill="white"/>
<path d="M62.5131 102.492C62.9388 104.167 74.3223 105.036 74.7509 105.114C75.178 105.194 78.4668 104.92 79.5449 104.308C80.3246 103.866 79.6649 101.117 78.9176 100.337C78.1704 99.5554 75.9068 99.2694 75.9068 99.2694L68.857 95.2626L61.9045 95.9068C61.9045 95.9068 62.2488 101.448 62.5131 102.492Z" fill="#FCA235"/>
<path d="M83.7363 104.155C85.4018 104.363 90.3648 93.7545 90.5934 93.3712C90.8216 92.9894 91.7817 89.733 91.6267 88.4725C91.5144 87.5624 88.794 87.1863 87.8164 87.6171C86.8387 88.048 85.7494 90.1162 85.7494 90.1162L79.5495 95.4114L77.5774 102.322C77.5774 102.322 82.699 104.026 83.7363 104.155Z" fill="#FFAF45"/>
<path d="M41.6309 94.2202C41.6409 94.2202 41.6523 94.2187 41.6637 94.2158C41.7309 94.1966 41.7709 94.1259 41.7523 94.0566L41.3467 92.4778C41.3296 92.4099 41.261 92.3657 41.1924 92.3864C41.1253 92.404 41.0853 92.4763 41.1025 92.5456L41.5081 94.1229C41.5238 94.1819 41.5752 94.2202 41.6309 94.2202Z" fill="#534579"/>
<path d="M53.6213 90.2593C53.6941 90.2563 53.7498 90.1974 53.747 90.1251L53.7055 88.4446C53.7041 88.3738 53.647 88.3178 53.5784 88.3178C53.5056 88.3193 53.4513 88.3797 53.4528 88.4505L53.4956 90.131C53.497 90.2018 53.5527 90.2593 53.6213 90.2593Z" fill="#534579"/>
<path d="M52.2684 91.3042C52.3384 91.3042 52.3955 91.2452 52.3955 91.173L52.3912 89.3922C52.3912 89.32 52.3341 89.261 52.2655 89.261C52.1956 89.2625 52.1384 89.32 52.1384 89.3922L52.1427 91.1745C52.1427 91.2452 52.1984 91.3042 52.2684 91.3042Z" fill="#534579"/>
<path d="M38.0241 93.8795C38.0241 93.8795 39.7054 101.175 43.1695 102.324C46.6393 103.472 56.3801 99.247 58.1114 99.0435C59.6099 98.874 77.2557 103.82 77.2557 103.82L82.2646 91.9661C82.2646 91.9661 66.7123 86.6271 60.8484 85.3968C56.9529 84.5827 50.6762 87.0777 45.6907 89.5676C45.5822 89.6207 45.475 89.6796 45.3665 89.7327C44.488 90.1735 43.658 90.6143 42.8923 91.0315C42.8166 91.0698 42.7466 91.114 42.6724 91.1523C39.9068 92.6678 38.0241 93.8795 38.0241 93.8795Z" fill="#E6CFB0"/>
<path d="M42.6658 91.1528C43.5943 92.0343 45.8299 93.9773 47.2755 93.9861C48.8297 93.9861 55.6307 92.3203 58.9076 91.5199C59.5233 91.371 60.0204 91.2486 60.3447 91.172C62.3489 90.687 79.6715 96.8445 79.8451 96.9079C79.8592 96.9124 79.8734 96.9124 79.8874 96.9124C79.9342 96.9124 79.9813 96.8784 79.9953 96.8298C80.0188 96.7679 79.9859 96.7001 79.9249 96.675C79.2067 96.4229 62.3531 90.4452 60.2933 90.9346C59.969 91.0113 59.4719 91.1336 58.8519 91.284C55.5893 92.083 48.8011 93.7444 47.2841 93.7444C45.9513 93.7341 43.83 91.9135 42.8858 91.0319C42.81 91.0702 42.7401 91.1145 42.6658 91.1528Z" fill="white"/>
<path d="M45.3668 89.7327C46.3096 89.9892 47.9109 90.3961 48.8822 90.4064C49.915 90.4064 54.6005 89.4762 58.0231 88.8025C59.5116 88.5062 60.6887 88.2747 61.1258 88.2069C61.1486 88.201 61.1829 88.1966 61.2144 88.1966C62.7685 88.1966 74.7907 92.0972 81.0631 94.2038C81.0724 94.2083 81.0866 94.2083 81.0959 94.2083C81.1477 94.2083 81.1946 94.1802 81.2086 94.1272C81.2274 94.0638 81.1946 93.996 81.1336 93.9768C80.373 93.7188 62.5528 87.7414 61.0929 87.9637C60.6472 88.0374 59.4687 88.2688 57.9803 88.5652C54.7562 89.199 49.8922 90.1631 48.8965 90.1631C48.028 90.1543 46.6338 89.8197 45.691 89.5676C45.5825 89.6207 45.4753 89.6796 45.3668 89.7327Z" fill="white"/>
<path d="M59.6223 96.1263C59.6451 96.1263 59.6694 96.1263 59.6922 96.1292C59.9479 96.1499 59.9879 96.2575 60.0007 96.2929C60.1607 96.7263 59.2552 97.9484 58.5411 98.7488C58.5354 98.171 58.5854 96.8766 59.1038 96.3489C59.2495 96.2 59.4209 96.1263 59.6223 96.1263ZM58.4312 99.166C58.4626 99.166 58.494 99.1527 58.5154 99.1292C58.7197 98.911 60.5034 96.9798 60.2207 96.2074C60.1493 96.0157 59.9779 95.9081 59.7108 95.8875C59.4066 95.8624 59.1495 95.9612 58.9382 96.1764C58.1898 96.94 58.3098 98.967 58.3141 99.0525C58.3169 99.1012 58.3469 99.1424 58.3912 99.1586C58.404 99.1631 58.4183 99.166 58.4312 99.166Z" fill="white"/>
<path d="M24.8066 93.9208C24.8066 97.4912 27.6108 100.385 31.0705 100.385C34.5289 100.385 37.333 97.4912 37.333 93.9208C37.333 90.3519 34.5289 87.4582 31.0705 87.4582C27.6108 87.4582 24.8066 90.3519 24.8066 93.9208Z" fill="#EFD9BE"/>
<path d="M28.2934 93.9208C28.2934 95.5055 29.539 96.791 31.0747 96.791C32.6103 96.791 33.8545 95.5055 33.8545 93.9208C33.8545 92.3361 32.6103 91.0521 31.0747 91.0521C29.539 91.0521 28.2934 92.3361 28.2934 93.9208Z" fill="#D5BD99"/>
<path d="M35.0165 70.5729C35.0165 70.5729 28.8098 73.7649 24.9471 78.3205C21.0845 82.8761 18.6218 91.297 18.6218 91.297L26.1356 93.1677C26.1356 93.1677 31.4096 83.2636 34.2437 83.0741C42.6789 82.5101 35.0165 70.5729 35.0165 70.5729Z" fill="#889782"/>
<path d="M47.7986 65.1137L48.3699 66.7862C48.3699 66.7862 48.3499 70.0998 49.4439 70.6564C50.5393 71.2128 51.2876 69.4995 51.2876 69.4995L52.126 65.4613L49.9209 65.3269C49.9209 65.3269 47.2259 63.4414 47.7986 65.1137Z" fill="#FF9981"/>
<path d="M50.9956 67.347L48.1507 67.5574C47.8479 67.5798 47.5851 67.3445 47.5637 67.0317L47.1424 60.9631C47.1195 60.6503 47.3481 60.3786 47.6508 60.3561L50.4972 60.1459C50.7999 60.1233 51.0627 60.3589 51.0841 60.6715L51.5054 66.7401C51.5269 67.0529 51.2998 67.3246 50.9956 67.347Z" fill="#50447E"/>
<path d="M50.5595 67.3795L47.7132 67.5898C47.4104 67.6122 47.1476 67.3768 47.1262 67.0641L46.7049 60.9955C46.682 60.6828 46.9105 60.4111 47.2133 60.3887L50.0597 60.1782C50.3624 60.1559 50.6252 60.3913 50.6466 60.704L51.0679 66.7726C51.0894 67.0854 50.8623 67.3572 50.5595 67.3795Z" fill="#D68C34"/>
<path d="M50.4398 60.7353C50.4489 60.8877 50.3608 61.019 50.2432 61.0287C50.1255 61.0385 50.0219 60.9228 50.0127 60.7706C50.0029 60.6181 50.091 60.4868 50.2086 60.4771C50.327 60.4673 50.4299 60.583 50.4398 60.7353Z" fill="#50447E"/>
<path d="M49.7933 60.7353C49.8025 60.8877 49.7144 61.019 49.5967 61.0287C49.479 61.0385 49.3754 60.9228 49.3662 60.7706C49.3564 60.6181 49.4445 60.4868 49.5621 60.4771C49.6805 60.4673 49.7834 60.583 49.7933 60.7353Z" fill="#50447E"/>
<path d="M50.1195 61.2878C50.1286 61.4402 50.0405 61.5715 49.9229 61.5812C49.8052 61.591 49.7016 61.4753 49.6924 61.323C49.6826 61.1706 49.7706 61.0393 49.8883 61.0295C50.0067 61.0198 50.1096 61.1355 50.1195 61.2878Z" fill="#50447E"/>
<path d="M53.5225 65.9653C53.5225 65.9653 51.99 71.4499 50.8489 70.9379C49.7078 70.4258 49.0123 67.2833 50.9203 66.237C52.8284 65.1905 53.5225 65.9653 53.5225 65.9653Z" fill="#FF9981"/>
<path d="M52.8336 65.1899C52.8336 65.1899 54.5145 65.0368 54.0189 64.2267C53.5234 63.4167 50.4999 62.9541 50.1529 63.88C49.8058 64.8059 52.8336 65.1899 52.8336 65.1899Z" fill="#FF9981"/>
<path d="M52.6037 66.615C52.6037 66.615 54.2861 66.4615 53.7905 65.6515C53.2949 64.8414 50.2715 64.379 49.9244 65.3049C49.576 66.2307 52.6037 66.615 52.6037 66.615Z" fill="#FF9981"/>
<path d="M51.6046 67.7844C51.9617 67.9174 52.3473 67.9668 52.72 67.8929C53.0528 67.827 53.347 67.6632 53.1899 67.2715C52.8757 66.4879 50.3064 65.614 49.868 66.3673C49.5424 66.9289 50.8948 67.5199 51.6046 67.7844Z" fill="#FF9981"/>
<path d="M53.1163 65.2668C53.1734 65.2668 53.2234 65.2247 53.232 65.1651C53.2419 65.0994 53.1991 65.0369 53.1348 65.026L51.0683 64.6794C50.9997 64.6698 50.944 64.7137 50.934 64.7795C50.924 64.8454 50.9669 64.9077 51.0311 64.9186L53.0977 65.2654C53.1034 65.2664 53.1105 65.2668 53.1163 65.2668Z" fill="black"/>
<path d="M53.0551 66.7964C53.1079 66.7964 53.1551 66.7604 53.1693 66.706C53.185 66.6412 53.1465 66.575 53.0851 66.5579L50.5801 65.8828C50.5144 65.8677 50.453 65.905 50.4358 65.9694C50.4201 66.0341 50.4573 66.1004 50.5201 66.1174L53.0251 66.7926C53.0351 66.7949 53.0451 66.7964 53.0551 66.7964Z" fill="black"/>
<path d="M54.1 69.6267L48.2675 68.613L47.2762 74.1631L47.0547 73.844C45.8305 72.0804 44.2049 70.6546 42.3208 69.692L46.2334 84.0587C46.2334 84.0587 49.9074 85.8261 53.0515 84.0587C56.1956 82.2911 54.1 69.6267 54.1 69.6267Z" fill="#889782"/>
<path d="M50.5943 84.79C50.6143 84.79 50.6357 84.7847 50.6543 84.7734C50.71 84.7395 50.7285 84.6652 50.6957 84.6074L48.1136 80.077C48.0807 80.0192 48.0093 79.9999 47.9522 80.0339C47.8965 80.068 47.8779 80.1423 47.9107 80.2001L50.4929 84.7303C50.5157 84.7687 50.5543 84.79 50.5943 84.79Z" fill="#372718"/>
<path d="M47.3958 74.7175C47.69 75.44 47.8557 76.1364 47.6586 76.2505C47.5201 76.2177 47.4158 75.5395 47.3958 74.7175ZM47.64 76.4998C47.6843 76.4998 47.7286 76.4869 47.7729 76.4614C48.3341 76.1373 47.5458 74.4451 47.3815 74.1091C47.3573 74.0591 47.3016 74.0345 47.2516 74.0453C47.1987 74.0577 47.1616 74.1054 47.1602 74.1607C47.1502 74.6429 47.1459 76.2329 47.5186 76.4638C47.5558 76.488 47.5986 76.4998 47.64 76.4998Z" fill="#372718"/>
<path d="M33.8066 81.6981C33.8124 81.6981 33.8238 81.7019 33.8438 81.7171C34.0794 81.9062 33.7666 82.6362 33.3896 83.2585C33.4753 82.4977 33.6353 81.7752 33.7981 81.7001C33.7995 81.6995 33.8024 81.6981 33.8066 81.6981ZM33.2282 83.8418C33.2654 83.8418 33.3011 83.8238 33.3239 83.7921C33.5339 83.4936 34.5564 81.9815 33.9866 81.5259C33.8638 81.4265 33.7567 81.4541 33.7024 81.4792C33.2882 81.6698 33.1454 83.2362 33.1111 83.7116C33.1068 83.7656 33.1397 83.8157 33.1882 83.8341C33.2011 83.8393 33.2154 83.8418 33.2282 83.8418Z" fill="#372718"/>
<path d="M34.718 68.6395L35.155 71.4682C35.155 71.4682 35.7748 72.2 37.3987 72.0706C38.6083 71.974 38.9854 71.6263 38.9854 71.6263L38.5969 70.221L38.217 68.8507L35.2207 68.6704L34.718 68.6395Z" fill="#FF9981"/>
<path d="M35.2185 68.6701C35.2371 68.746 35.2799 68.8325 35.3399 68.93C36.1726 70.2418 37.8949 70.2704 38.5947 70.2206L38.2148 68.8503L35.2185 68.6701Z" fill="black"/>
<path d="M37.8349 62.3022C37.8349 62.3022 39.8219 65.6121 39.5591 67.6761C39.2976 69.7401 37.502 69.6875 36.4007 69.4594C35.2993 69.2314 34.7208 68.6402 34.7208 68.6402C34.7208 68.6402 33.7894 69.1279 33.0038 68.2857C32.2181 67.4433 32.4709 66.3046 32.9952 65.9743C33.5194 65.6443 34.2422 65.9622 34.2422 65.9622L33.578 65.013C33.578 65.013 35.0436 59.4719 37.8349 62.3022Z" fill="#FF9981"/>
<path d="M38.2831 66.8215C38.3402 66.8215 38.3902 66.7794 38.4002 66.7203C38.5259 65.9288 37.906 65.2305 37.8789 65.2011C37.8361 65.152 37.7604 65.1491 37.7132 65.1949C37.6661 65.2403 37.6633 65.317 37.7075 65.3658C37.7132 65.3724 38.2759 66.0078 38.1674 66.6805C38.1574 66.7466 38.2002 66.8087 38.2645 66.8201C38.2702 66.8211 38.2774 66.8215 38.2831 66.8215Z" fill="black"/>
<path d="M34.2967 67.6482C34.331 67.6482 34.3638 67.6327 34.3867 67.6032C34.4281 67.5513 34.4196 67.4747 34.3696 67.433L33.3042 66.5468C33.2527 66.5053 33.1799 66.5134 33.1399 66.565C33.0985 66.6169 33.1071 66.6937 33.1571 66.7352L34.2225 67.6214C34.2439 67.6394 34.2696 67.6482 34.2967 67.6482Z" fill="black"/>
<path d="M33.2749 67.5154C33.2863 67.5154 33.2963 67.5139 33.3077 67.5107L33.9376 67.319C34.0004 67.3 34.0361 67.2325 34.0176 67.1685C33.999 67.1042 33.9333 67.0678 33.8719 67.0863L33.2421 67.2779C33.1792 67.2968 33.1435 67.3643 33.1621 67.4283C33.1764 67.4812 33.2235 67.5154 33.2749 67.5154Z" fill="black"/>
<path d="M36.1956 65.2841C36.1947 65.2959 36.1953 65.3063 36.1972 65.3168C36.2095 65.3828 36.2705 65.4261 36.3339 65.4134L36.972 65.2896C37.0361 65.2754 37.0774 65.2152 37.0658 65.1477C37.0538 65.0817 36.9927 65.0384 36.9292 65.0511L36.291 65.1749C36.2373 65.1854 36.1996 65.2312 36.1956 65.2841Z" fill="black"/>
<path d="M38.7782 64.8441C38.7803 64.8325 38.781 64.8206 38.7797 64.8099C38.7732 64.7426 38.7158 64.6941 38.6515 64.7012L38.0052 64.7656C37.9402 64.7726 37.8928 64.8339 37.8996 64.8982C37.9062 64.9655 37.9635 65.014 38.0278 65.0069L38.6741 64.9425C38.7275 64.9363 38.769 64.8948 38.7782 64.8441Z" fill="black"/>
<path d="M35.9533 64.5784C36.0005 64.5784 36.0447 64.549 36.0633 64.5007C36.1833 64.1771 36.6046 64.2159 36.6217 64.2173C36.686 64.2231 36.7445 64.1758 36.7503 64.1088C36.7574 64.0427 36.7103 63.9831 36.646 63.976C36.6217 63.9732 36.029 63.915 35.8434 64.4137C35.8205 64.4762 35.8505 64.5461 35.9105 64.5703C35.9248 64.5759 35.9391 64.5784 35.9533 64.5784Z" fill="black"/>
<path d="M38.3975 63.9622C38.4275 63.9622 38.4575 63.9504 38.4804 63.9266C38.5261 63.8789 38.5261 63.8022 38.4804 63.7555C38.4718 63.746 38.2633 63.5407 38.0048 63.5444C37.8663 63.5495 37.7434 63.6144 37.6406 63.7375C37.5978 63.7876 37.602 63.8641 37.652 63.9082C37.6992 63.9517 37.7734 63.947 37.8163 63.8964C37.8777 63.8251 37.942 63.7891 38.0134 63.7867C38.1733 63.7861 38.3133 63.9252 38.3147 63.9266C38.3376 63.9504 38.3676 63.9622 38.3975 63.9622Z" fill="black"/>
<path d="M34.6008 66.1539C34.6008 66.1539 35.4436 65.3745 35.2564 64.3991C35.0707 63.4236 34.8279 63.2024 34.8279 63.2024C34.8279 63.2024 35.905 62.9911 36.7606 62.5635C37.3177 62.2848 37.5406 62.0332 37.5406 62.0332L37.832 62.3024C38.1034 62.2509 38.5019 60.4505 38.0505 60.2045C37.5977 59.9586 35.4978 61.0635 35.4978 61.0635C35.4978 61.0635 33.0994 60.8276 31.9681 62.7241C30.8381 64.6206 32.6237 66.4138 32.6237 66.4138C32.6237 66.4138 32.9094 65.4782 34.6008 66.1539Z" fill="black"/>
<path d="M37.8394 72.105C37.8223 72.105 37.8051 72.1087 37.7894 72.1163C37.748 72.1358 37.7223 72.1778 37.7223 72.2241C37.7208 72.2763 37.6908 73.5006 36.8566 73.5006C36.2209 73.4973 35.5153 72.4461 35.1667 71.8084C37.3023 72.5065 38.8679 71.744 39.2979 71.4922C39.5107 71.9867 39.7579 72.7342 39.635 72.9652C39.6207 72.9949 39.5993 73.0091 39.565 73.0138C39.1408 73.0706 38.2294 72.3973 37.9123 72.132C37.8923 72.1144 37.8651 72.105 37.8394 72.105ZM36.858 73.7429C37.5951 73.7429 37.8737 73.0005 37.9394 72.4608C38.3037 72.7431 39.1179 73.3147 39.5964 73.2542C39.705 73.2385 39.7907 73.1789 39.8421 73.0806C40.0678 72.65 39.5607 71.4941 39.4564 71.2671C39.4422 71.2349 39.415 71.2112 39.3822 71.2019C39.3493 71.1928 39.3136 71.199 39.285 71.2178C39.2679 71.2298 37.468 72.4318 34.9653 71.481C34.9196 71.4634 34.8682 71.4767 34.8367 71.5135C34.8053 71.55 34.7982 71.6035 34.8196 71.648C34.8596 71.733 35.8253 73.7372 36.8509 73.7429C36.8538 73.7429 36.8552 73.7429 36.858 73.7429Z" fill="#372718"/>
<path d="M54.3126 71.157C54.3668 71.157 54.4154 71.1185 54.4283 71.0618C54.4411 70.9966 54.4011 70.9317 54.3383 70.9176L48.1215 69.5081C48.0544 69.495 47.9944 69.5351 47.9815 69.6004C47.9672 69.6657 48.0072 69.7306 48.0701 69.7447L54.2883 71.154C54.2968 71.156 54.3054 71.157 54.3126 71.157Z" fill="#372718"/>
<path d="M26.8272 92.0444C26.8772 92.0444 26.9229 92.012 26.9386 91.9604C26.9586 91.897 26.9243 91.8292 26.8629 91.8086L19.2805 89.2774C19.2191 89.2583 19.152 89.2922 19.1334 89.3556C19.1134 89.4189 19.1477 89.4868 19.2091 89.5074L26.7915 92.0385C26.8029 92.043 26.8158 92.0444 26.8272 92.0444Z" fill="#372718"/>
<path d="M39.8799 95.7092C40.424 95.7092 40.871 95.5294 41.2095 95.1741C41.9936 94.353 41.925 92.8965 41.9221 92.8361C41.9179 92.7712 41.8665 92.7211 41.8036 92.7211C41.7336 92.7255 41.6836 92.7815 41.6865 92.8494C41.6879 92.8626 41.7522 94.2601 41.0424 95.0046C40.7296 95.3318 40.3055 95.4866 39.7856 95.466C39.7185 95.463 39.6671 95.5146 39.6642 95.5824C39.6614 95.6488 39.7114 95.7048 39.7771 95.7078C39.8113 95.7092 39.8456 95.7092 39.8799 95.7092Z" fill="white"/>
<path d="M77.7253 101.927C77.7769 101.927 77.824 101.892 77.8386 101.837C77.8557 101.774 77.8189 101.706 77.7566 101.688L60.0777 96.6748C60.012 96.6571 59.9491 96.6954 59.9334 96.7588C59.9162 96.8237 59.952 96.89 60.0148 96.9077L77.6942 101.923C77.7046 101.926 77.7149 101.927 77.7253 101.927Z" fill="white"/>
<path d="M44.6744 99.8176C46.8429 99.8176 58.2636 96.9725 58.7507 96.8501C58.8136 96.8354 58.8521 96.7691 58.8378 96.7042C58.8221 96.6393 58.7579 96.5981 58.695 96.6143C58.5764 96.6452 46.8172 99.5759 44.6759 99.5759C44.6673 99.5759 44.6602 99.5759 44.6516 99.5759C42.6403 99.5523 40.9232 95.3509 40.9061 95.3082C40.8804 95.2462 40.8118 95.2168 40.7532 95.2433C40.6932 95.2684 40.6647 95.3391 40.689 95.401C40.7618 95.5809 42.4846 99.794 44.6487 99.8176C44.6573 99.8176 44.6659 99.8176 44.6744 99.8176Z" fill="white"/>
<path d="M78.8388 99.4194C78.8898 99.4194 78.9365 99.3855 78.9512 99.3325C78.9696 99.2676 78.9339 99.2013 78.8718 99.1821C78.1624 98.9669 61.4821 93.9208 60.1536 93.8014C59.4394 93.7454 56.0939 94.4884 52.5541 95.2844C49.5457 95.961 46.4359 96.6613 45.6631 96.6701C44.0918 96.6701 41.9276 93.2692 41.9062 93.2338C41.8705 93.1778 41.7976 93.1631 41.7433 93.1985C41.689 93.2353 41.6733 93.3105 41.709 93.3665C41.8005 93.5125 43.966 96.9119 45.6517 96.9119C46.463 96.903 49.4457 96.2323 52.6041 95.5217C55.971 94.764 59.4551 93.9724 60.1322 94.0417C61.4393 94.1596 78.6322 99.3619 78.8058 99.415C78.8168 99.418 78.8278 99.4194 78.8388 99.4194Z" fill="white"/>
<path d="M36.8857 67.8501C37.2468 67.283 38.4251 67.2252 39.0522 67.8501" stroke="black" stroke-width="0.223456"/>
<path d="M109.775 70.0511C108.636 65.7762 110.219 63.93 114.684 63.574C119.15 63.2177 121.911 64.5133 121.535 67.0718C121.158 69.6303 118.953 71.2497 118.953 71.2497L109.775 70.0511Z" fill="#E6CFB0"/>
<path d="M111.062 69.4521C110.179 66.1364 111.406 64.7048 114.87 64.4284C118.333 64.152 120.475 65.1568 120.183 67.1412C119.891 69.1256 118.18 70.3814 118.18 70.3814L111.062 69.4521Z" fill="#D5BD99"/>
<path d="M117.833 66.8612V93.7571H110.315L110.434 90.9249L110.463 90.2596L110.609 86.8116L110.638 86.1465L110.783 82.6984L110.809 82.0332L110.957 78.5851L110.984 77.92L111.129 74.4718L111.158 73.8067L111.303 70.3585L111.332 69.6934L111.401 68.0552L112.357 67.619L113.229 67.221L116.673 66.4878L117.833 66.8612Z" fill="#889782"/>
<path d="M117.831 69.6936V70.3587H111.302L111.331 69.6936H117.831Z" fill="white"/>
<path d="M117.838 73.8066V74.4717H111.134L111.163 73.8066H117.838Z" fill="white"/>
<path d="M117.837 77.9202V78.5853H110.962L110.988 77.9202H117.837Z" fill="white"/>
<path d="M117.836 82.0332V82.6983H110.786L110.813 82.0332H117.836Z" fill="white"/>
<path d="M117.838 86.1472V86.8123H110.614L110.643 86.1472H117.838Z" fill="white"/>
<path d="M117.835 90.2595V90.9249H110.437L110.466 90.2595H117.835Z" fill="white"/>
<path d="M104.788 86.2613C105.206 87.5425 106.965 91.3069 107.034 92.2037C107.11 93.2231 104.651 95.9435 103.851 95.4583C103.299 95.123 101.474 91.7185 100.483 89.2053C100.037 88.0713 99.7619 87.12 99.8491 86.7138C99.8993 86.4903 100.06 85.9152 100.309 85.1083C101.503 81.2158 104.712 71.9016 107.034 70.0508L108.465 78.5527C108.465 78.5527 107.689 79.9456 106.838 81.5238C106.357 82.4152 105.856 83.3665 105.457 84.1543C105.377 84.3096 105.301 84.4623 105.232 84.604C104.91 85.2637 104.699 85.7489 104.699 85.8879C104.699 85.956 104.73 86.0842 104.786 86.2559C104.788 86.2586 104.788 86.2613 104.788 86.2613Z" fill="#E6CFB0"/>
<path d="M107.603 101.542C107.603 101.542 106.391 101.864 106.016 101.335C105.639 100.806 105.29 98.4209 105.29 98.4209C105.29 98.4209 104.912 98.2273 104.63 96.8426C104.347 95.4579 104.184 93.4408 105.406 92.6884C106.172 91.7099 107.384 92.2278 107.384 92.2278L107.426 93.9968L107.603 101.542Z" fill="#FF9981"/>
<path d="M108.694 101.983L111.95 100.1C112.297 99.8986 112.42 99.4471 112.226 99.0899L108.455 92.1474C108.26 91.7902 107.821 91.6627 107.474 91.8637L104.218 93.7472C103.872 93.9482 103.748 94.3997 103.943 94.7588L107.716 101.699C107.909 102.057 108.348 102.184 108.694 101.983Z" fill="#50447E"/>
<path d="M109.184 101.697L112.438 99.8141C112.784 99.6131 112.908 99.1598 112.713 98.8026L108.942 91.86C108.747 91.5028 108.308 91.3754 107.962 91.5764L104.707 93.4595C104.359 93.6609 104.238 94.1138 104.43 94.4714L108.203 101.412C108.398 101.771 108.836 101.899 109.184 101.697Z" fill="#889782"/>
<path d="M104.792 94.7157C104.964 95.0327 105.325 95.1617 105.597 95.0027C105.872 94.8451 105.954 94.4601 105.782 94.1434C105.61 93.8263 105.25 93.6992 104.975 93.8568C104.702 94.0158 104.62 94.4009 104.792 94.7157Z" fill="#50447E"/>
<path d="M106.977 70.0082L111.466 67.9988L110.35 93.8857H106.562L106.977 70.0082Z" fill="#E6CFB0"/>
<path d="M122.949 68.4971V93.7574H117.833V66.8616L118.168 66.9679L122.949 68.4971Z" fill="#E6CFB0"/>
<path d="M122.949 77.9226V93.757H117.833V84.9989C119.494 81.747 120.926 78.247 121.256 75.363L122.949 77.9226Z" fill="#D5BD99"/>
<path d="M106.843 75.6631V81.5236C106.362 82.415 105.86 83.3663 105.462 84.1541C105.263 81.0357 106.843 75.6631 106.843 75.6631Z" fill="#D5BD99"/>
<path d="M104.702 85.8876C104.702 85.9558 104.733 86.0839 104.789 86.2556C104.72 86.1629 103.619 84.6365 103.587 83.9768C103.566 83.5189 104.578 84.1458 105.235 84.6038C104.913 85.2634 104.702 85.7486 104.702 85.8876Z" fill="#D5BD99"/>
<path d="M100.483 89.2048C100.037 88.0709 99.762 87.1196 99.8491 86.7134C99.8993 86.4899 100.06 85.9148 100.309 85.1079C100.636 85.5304 100.882 86.0974 100.985 86.7407C101.14 87.7193 100.929 88.6379 100.483 89.2048Z" fill="#D5BD99"/>
<path d="M109.962 69.5V77.0138" stroke="white" stroke-width="0.223456" stroke-miterlimit="10" stroke-linecap="round" stroke-linejoin="round"/>
<path d="M119.12 69.5V77.0138" stroke="white" stroke-width="0.223456" stroke-miterlimit="10" stroke-linecap="round" stroke-linejoin="round"/>
<path d="M128.3 135.92H122.98C122.98 135.92 119.261 123.046 118.556 120.178C117.848 117.313 116.403 112.796 116.403 112.796L116.224 116.953L116.203 117.411C116.86 120.47 115.685 136.454 115.685 136.454H109.784L108.64 120.445L108.186 114.072L106.757 94.0372L106.741 93.8H123.06C123.242 94.5524 123.458 96.0189 123.678 97.777C124.301 102.714 124.959 109.929 124.959 109.929C124.959 109.929 125.804 112.505 126.839 118.48C127.877 124.455 128.3 135.92 128.3 135.92Z" fill="#E6CFB0"/>
<path d="M123.678 97.777C121.293 98.3304 117.521 99.9986 117.521 99.9986L113.807 98.464C113.807 98.464 115.339 95.6454 114.974 94.8686C114.636 94.149 110.658 93.9581 106.757 94.0372L106.741 93.8H123.06C123.242 94.5524 123.458 96.0189 123.678 97.777Z" fill="#D5BD99"/>
<path d="M116.408 112.796L116.228 116.953C115.148 112.426 113.154 106.064 113.619 103.613L116.408 112.796Z" fill="#D5BD99"/>
<path d="M121.178 116.892C121.52 118.664 121.094 120.245 120.228 120.423C119.361 120.601 118.381 119.31 118.039 117.538C117.697 115.767 118.122 114.186 118.989 114.007C119.856 113.829 120.836 115.121 121.178 116.892Z" fill="#D5BD99"/>
<path d="M108.941 120.48C108.841 120.486 108.74 120.475 108.643 120.445L108.188 114.072C108.31 113.998 108.437 113.958 108.571 113.949C109.453 113.898 110.251 115.318 110.354 117.12C110.454 118.924 109.823 120.429 108.941 120.48Z" fill="#D5BD99"/>
<path d="M110.376 137.061L105.333 139.413C104.949 139.592 104.702 139.987 104.702 140.422C104.702 141.034 105.182 141.529 105.775 141.529H114.967C115.654 141.529 116.164 140.873 116.014 140.181L115.318 136.963H110.818C110.665 136.963 110.514 136.996 110.376 137.061Z" fill="#473533"/>
<path d="M115.64 137.4H109.52C109.299 137.4 109.12 137.215 109.12 136.987V136.161C109.12 135.933 109.299 135.748 109.52 135.748H115.64C115.861 135.748 116.04 135.933 116.04 136.161V136.987C116.04 137.215 115.861 137.4 115.64 137.4Z" fill="#D5BD99"/>
<path d="M123.202 137.061L118.159 139.413C117.775 139.592 117.528 139.987 117.528 140.422C117.528 141.034 118.009 141.529 118.601 141.529H127.793C128.48 141.529 128.99 140.873 128.84 140.181L128.144 136.963H123.644C123.491 136.963 123.341 136.996 123.202 137.061Z" fill="#473533"/>
<path d="M128.585 137.4H122.466C122.245 137.4 122.065 137.215 122.065 136.987V136.161C122.065 135.933 122.245 135.748 122.466 135.748H128.585C128.806 135.748 128.985 135.933 128.985 136.161V136.987C128.985 137.215 128.806 137.4 128.585 137.4Z" fill="#D5BD99"/>
<path d="M116.434 63.8511C118.578 64.1673 118.968 62.2777 119.213 61.1907C119.457 60.1039 120.766 57.7302 120.366 56.6372C119.966 55.5441 119.063 55.9571 119.063 55.9571C119.063 55.9571 119.966 54.354 119.307 52.7994C118.648 51.2449 117.377 51.0991 115.212 51.5363C113.046 51.9735 108.386 51.9978 107.327 51.2449C106.268 50.492 105.773 52.4838 106.55 53.5281C107.327 54.5726 108.692 55.2527 108.692 55.2527C108.692 55.2527 107.562 54.8155 107.303 55.3497C107.045 55.884 107.256 57.2199 109.775 57.803C112.293 58.3861 113.87 59.4061 113.87 59.4061L116.434 63.8511Z" fill="#473533"/>
<path d="M117.415 67.2606C117.415 67.2606 117.236 68.2146 115.384 68.6998C113.535 69.185 113.113 68.2473 113.113 68.2473L112.965 67.2633L112.677 65.3334L117.106 62.4222L117.114 62.4167C117.112 62.4249 117.106 62.4358 117.104 62.444C117.054 62.5667 117.024 62.7493 117.011 62.9701V62.9728C116.924 64.3521 117.415 67.2606 117.415 67.2606Z" fill="#FF9981"/>
<path d="M117.105 62.4224C117.105 62.4278 117.103 62.436 117.103 62.4442C117.084 62.5805 117.055 62.7604 117.01 62.9703V62.973C116.733 64.2569 115.835 66.6665 112.965 67.2635L112.677 65.3336L117.105 62.4224Z" fill="#EA7257"/>
<path d="M109.73 56.7988C109.15 58.2724 109.746 59.2439 109.73 60.0859C109.715 60.9279 109.118 65.883 112.303 66.0449C115.489 66.2068 117.905 61.8185 117.905 61.8185L118.172 61.4946C118.172 61.4946 118.36 62.2232 119.431 61.7375C120.502 61.2518 120.149 59.3813 119.372 59.26C118.595 59.1384 117.478 60.7418 117.478 60.7418L116.611 57.2761C116.611 57.2761 112.884 57.8837 109.73 56.7988Z" fill="#FF9981"/>
<path d="M119.51 60.5806C119.593 60.0815 119.372 59.9567 119.126 59.9853C118.881 60.0139 118.314 60.9053 118.756 61.1904" stroke="#EA7257" stroke-width="0.196798" stroke-miterlimit="10" stroke-linecap="round" stroke-linejoin="round"/>
<path d="M112.146 60.2922V61.1901L111.811 61.5352C111.678 61.6723 111.772 61.907 111.96 61.907H112.487" stroke="#EA7257" stroke-width="0.196798" stroke-miterlimit="10" stroke-linecap="round" stroke-linejoin="round"/>
<path d="M111.187 63.5514C111.187 63.5514 112.64 63.9476 113.568 63.2261" stroke="#EA7257" stroke-width="0.196798" stroke-miterlimit="10" stroke-linecap="round" stroke-linejoin="round"/>
<path d="M114.166 60.8655C114.353 60.8655 114.505 60.7089 114.505 60.5157C114.505 60.3226 114.353 60.166 114.166 60.166C113.979 60.166 113.827 60.3226 113.827 60.5157C113.827 60.7089 113.979 60.8655 114.166 60.8655Z" fill="#554747"/>
<path d="M111.046 60.5157C111.046 60.7087 110.894 60.8655 110.707 60.8655C110.52 60.8655 110.368 60.709 110.368 60.5157C110.368 60.3225 110.52 60.166 110.707 60.166C110.894 60.166 111.046 60.3228 111.046 60.5157Z" fill="#554747"/>
<path d="M113.337 59.1957C113.337 59.1957 114.134 58.8074 114.969 59.2414" stroke="#554747" stroke-width="0.223456" stroke-miterlimit="10" stroke-linecap="round" stroke-linejoin="round"/>
<path d="M111.522 59.1957C111.522 59.1957 110.725 58.8074 109.89 59.2414" stroke="#554747" stroke-width="0.223456" stroke-miterlimit="10" stroke-linecap="round" stroke-linejoin="round"/>
<path d="M115.641 100.286C119.786 98.6582 124.022 104.39 121.433 105.654C118.844 106.917 119.686 100.358 115.641 100.553C111.595 100.747 109.194 104.633 108.158 110.512C107.123 116.39 99.9349 123.691 93.5328 123.788C87.1306 123.885 79.5166 122.327 79.5166 122.327" stroke="#7A301C" stroke-width="0.670367" stroke-miterlimit="10"/>
<path d="M115.188 97.5098C115.188 97.5098 113.17 98.6399 113.146 98.907C113.123 99.1742 112.581 101.123 113.146 101.047C113.711 100.972 115.52 100.243 115.52 100.243L115.899 98.4698L115.188 97.5098Z" fill="#FF9981"/>
<path d="M116.047 96.0896C115.247 96.964 113.623 99.7817 113.293 100.486C112.963 101.19 112.257 102.454 112.822 102.915C113.387 103.377 113.905 102.915 113.905 102.915C113.905 102.915 114.14 103.449 115.294 103.328C116.447 103.206 116.918 102.551 116.918 102.551C116.918 102.551 117.6 102.454 117.741 101.725C117.883 100.996 118.212 99.5629 118.165 99.0771C118.118 98.5914 118.17 97.2797 118.17 97.2797L116.047 96.0896Z" fill="#FF9981"/>
<path d="M126.686 78.4543C126.662 79.8281 126.61 81.4255 126.475 82.9002C126.33 84.5084 126.089 85.9749 125.696 86.8608C125.577 87.1279 125.363 87.6022 125.08 88.2074C123.575 91.4484 120.146 98.5029 119.153 98.4211C117.978 98.323 115.434 96.6248 115.529 96.0905C115.621 95.5562 121.271 85.2089 121.414 83.1182C121.554 81.0302 120.347 69.2737 122.951 68.4968C126.686 70.4403 126.731 75.5895 126.686 78.4543Z" fill="#E6CFB0"/>
<path d="M126.471 82.9001C126.325 84.5083 126.085 85.9748 125.692 86.8607C125.573 87.1278 125.359 87.6021 125.076 88.2073C124.163 87.8856 123.682 86.55 123.999 85.1353C124.329 83.6524 125.406 82.6438 126.402 82.881C126.426 82.8867 126.45 82.8922 126.471 82.9001Z" fill="#D5BD99"/>
<path d="M97.1658 142.264C97.1799 142.187 97.2449 142.136 97.3162 142.149C97.6981 142.218 98.9232 142.315 100.477 141.195C101.469 140.482 101.907 139.366 102.528 137.934C102.593 137.784 102.804 137.85 102.782 138.014C102.642 139.047 102.192 140.888 100.743 142.317C98.957 144.079 97.4485 143.968 97.006 143.886C96.9329 143.872 96.8857 143.795 96.9 143.715L97.1658 142.264Z" fill="#C66F28"/>
<path d="M73.0905 138.139C73.0905 138.139 74.1141 143.785 73.5365 145.113C73.5365 145.113 72.0421 145.349 71.7569 145.685C71.472 146.022 71.0925 146.798 71.3131 147.009C71.5337 147.221 71.9315 147.072 71.9315 147.072C71.9315 147.072 72.6409 147.487 73.5664 147.05C73.5664 147.05 74.6482 147.371 75.1437 146.892C75.639 146.413 76.1519 139.22 76.1519 139.22L73.0905 138.139Z" fill="#EDD7AB"/>
<path d="M84.2019 145.056C84.2019 145.056 84.5676 145.846 86.1778 146.496C86.1778 146.496 83.9968 146.295 83.5403 146.535C83.0842 146.775 82.6052 147.611 82.7708 147.771C82.9367 147.93 83.4153 147.772 83.4153 147.772C83.4153 147.772 83.9381 148.434 85.0713 147.927C85.0713 147.927 85.5426 148.2 86.1202 147.977C86.6977 147.754 86.8137 147.586 86.8137 147.586C86.8137 147.586 89.4979 147.772 89.8522 147.494C90.2066 147.216 87.513 144.647 87.513 144.647L84.2019 145.056Z" fill="#EDD7AB"/>
<path d="M77.7002 117.496C77.7002 117.496 77.9136 118.962 78.2262 118.904C78.5387 118.846 78.9621 117.731 78.775 117.317C78.588 116.903 77.7002 117.496 77.7002 117.496Z" fill="#D8937D"/>
<path d="M96.2875 147.887C96.5102 148.295 96.9246 148.81 96.2914 149.022C95.6837 149.227 92.7953 149.503 91.7659 149.498C91.7212 149.5 91.6828 149.501 91.6445 149.499C90.739 149.47 91.1703 149.679 90.5105 149.866C89.8479 150.052 89.5491 149.786 89.5491 149.786C89.5491 149.786 88.658 150.365 88.0513 149.61C88.0513 149.61 87.312 149.799 87.2465 149.413C87.181 149.03 87.6171 148.405 88.0682 148.308C88.3446 148.25 89.6166 148.244 90.5438 148.245C90.9658 148.249 91.3176 148.254 91.471 148.253C91.2435 148.23 90.5859 148.157 89.8242 147.905C88.9111 147.608 87.85 147.053 87.21 146.038C87.0762 145.826 86.9608 145.594 86.8672 145.341C86.8637 145.335 86.8637 145.331 86.8637 145.331C86.8637 145.331 83.9127 146.528 78.2923 141.836C78.2923 141.836 76.2963 141.011 74.4984 139.63C72.7006 138.245 71.2094 136.412 70.8455 134.873C70.4816 133.334 70.596 128.643 70.6452 127.908C70.6835 127.353 70.773 126.799 70.773 126.799C70.773 126.799 69.2611 125.13 69.4576 123.63C69.4576 123.63 69.0004 122.621 68.4732 121.861C67.9463 121.104 67.5281 120.453 67.6431 119.895C67.6431 119.895 66.4088 118.662 66.2782 117.78C66.1475 116.901 66.2162 116.51 66.2833 116.067C66.2833 116.067 66.1874 114.629 66.5421 113.954C66.8935 113.279 68.4377 112.292 69.047 112.133C69.6531 111.978 70.4976 112.56 71.1212 113.012C71.7478 113.46 71.6935 113.462 72.4919 113.437C73.2904 113.412 75.1914 113.715 75.771 114.414C76.3506 115.117 77.1864 115.506 77.5536 116.158C77.9175 116.811 78.2169 117.99 78.4332 118.953C78.6463 119.915 79.1604 121.115 79.608 121.904C80.0591 122.693 80.9892 123.577 81.2221 124.234C81.4381 124.855 83.0699 126.351 84.2594 127.25C84.3249 127.301 84.3901 127.349 84.4552 127.397C85.6534 128.273 90.1274 132.008 91.8956 133.251C93.6641 134.497 96.8429 136.666 97.324 140.498C97.8081 144.328 96.9058 146.291 95.3335 147.199C95.3345 147.2 96.0617 147.479 96.2875 147.887Z" fill="#D68C34"/>
<path d="M73.0105 134.909C72.9788 135.688 73.2602 136.656 73.872 137.881C74.797 139.736 76.2136 139.4 76.8657 139.254C77.5147 139.112 77.714 139.208 78.1332 139.238C78.5492 139.265 78.4434 139 78.6547 138.848C78.8692 138.696 78.9542 138.901 78.9542 138.901L78.8496 140.126C78.8534 140.146 78.854 140.169 78.8578 140.189C78.6151 142.901 78.1246 146.031 78.0609 146.46C77.9729 147.042 78.1639 147.284 78.015 147.62C77.8661 147.956 76.957 149.417 76.7235 149.563C76.4899 149.71 76.6886 150.226 76.379 150.484C76.0695 150.742 74.5026 150.378 74.5026 150.378C73.5073 150.713 72.9966 150.368 72.9966 150.368C72.9966 150.368 72.6052 150.546 72.4921 150.358C72.3822 150.169 72.6505 149.36 72.9579 149.019C73.2653 148.678 74.552 148.446 74.552 148.446C75.2767 146.961 74.5999 143.698 74.2329 141.945C73.8657 140.192 72.2275 134.56 72.2275 134.56C72.2275 134.56 72.6331 134.358 73.0105 134.909Z" fill="#F7EBD0"/>
<path d="M87.0789 145.949C86.9458 145.737 86.8312 145.506 86.7382 145.254C86.7347 145.247 86.7347 145.244 86.7347 145.244C86.7347 145.244 83.8022 146.438 78.2168 141.758C78.2168 141.758 76.2333 140.935 74.4466 139.558C72.66 138.176 71.1782 136.349 70.8165 134.814C70.4549 133.279 70.4908 128.658 70.5397 127.924C70.5778 127.37 70.5873 126.819 70.5873 126.819C70.5873 126.819 69.242 125.096 69.4373 123.6C69.4373 123.6 69.2302 123.143 68.9388 122.612C68.7949 122.355 68.6314 122.082 68.459 121.836C68.1443 121.382 67.8687 120.967 67.7243 120.587C67.7211 120.584 67.7211 120.584 67.7211 120.584C67.6281 120.332 67.5897 120.095 67.6341 119.875C67.6341 119.875 66.4076 118.645 66.2777 117.765C66.1478 116.888 66.2161 116.499 66.2828 116.056C66.2828 116.056 66.1875 114.622 66.54 113.949C66.8892 113.276 68.4238 112.291 69.0293 112.133C69.6316 111.979 70.4708 112.558 71.0905 113.009C71.7132 113.457 71.6592 113.458 72.4527 113.433C73.2461 113.409 75.1353 113.711 75.7113 114.408C76.2873 115.109 77.1179 115.497 77.4827 116.148C77.8443 116.798 78.1419 117.974 78.3568 118.935C78.5686 119.895 79.0795 121.091 79.5243 121.878C79.9726 122.665 80.8969 123.547 81.1284 124.202C81.343 124.821 82.9646 126.313 84.1467 127.21C84.0038 127.437 83.772 127.656 83.4208 127.819C82.6591 128.174 82.2876 127.732 81.3373 127.824C80.387 127.914 79.7424 129.033 79.2649 129.667C78.7877 130.301 78.1574 130.486 76.8194 130.902C75.4814 131.317 75.316 131.756 74.6895 132.726C74.0599 133.699 73.9021 132.959 73.3696 133.886C72.8435 134.813 73.0162 136.069 73.9428 137.925C74.8693 139.78 76.2892 139.444 76.9426 139.298C77.5929 139.155 77.7926 139.252 78.2127 139.282C78.6296 139.309 78.5235 139.043 78.7353 138.891C78.9502 138.739 79.0353 138.945 79.0353 138.945L78.9306 140.17C79.3595 143.385 81.8396 142.583 83.09 141.881C84.3407 141.18 85.7409 140.163 86.0666 140.444C86.3924 140.722 85.8901 141.152 85.2151 141.878C84.54 142.601 84.4994 143.95 85.4059 144.438C86.3156 144.926 86.781 143.879 86.781 143.879C86.781 143.879 87.1338 145.215 87.0789 145.949Z" fill="#F7EBD0"/>
<path d="M71.9995 116.294C72.0495 116.196 72.1919 116.022 72.0999 115.615C71.9415 114.916 72.4009 114.254 72.9561 114.053C73.5113 113.852 74.2614 114.137 74.416 114.623C74.5705 115.11 74.3579 115.382 74.6067 115.661C74.8555 115.94 75.4052 116.231 75.5463 116.943C75.6873 117.655 75.4828 118.89 75.1032 119.618C74.7237 120.346 75.0045 120.358 74.6009 120.944C74.197 121.529 73.9252 121.824 73.5235 121.796C73.1218 121.767 73.2148 121.518 72.9484 121.322C72.682 121.125 72.1034 120.529 72.2339 120.197C72.3643 119.865 72.5897 120.023 72.3727 119.456C72.1556 118.889 72.3983 118.964 72.1665 118.582C71.9348 118.2 72.0486 117.971 72.096 117.54C72.1435 117.108 71.8287 116.626 71.9995 116.294Z" fill="#D68C34"/>
<path d="M72.6514 122.367C72.7807 122.248 72.8773 122.143 72.9462 122.009C73.0109 121.873 73.0289 121.712 73.0228 121.549C73.0148 121.376 73.0006 121.203 72.9692 121.035L72.9196 120.778C72.9079 120.691 72.8826 120.588 72.9162 120.496C72.9748 120.659 73.0797 120.8 73.1217 120.987C73.1711 121.165 73.1994 121.351 73.2102 121.536C73.2194 121.729 73.1897 121.942 73.0872 122.111C72.9931 122.28 72.8243 122.412 72.6514 122.367Z" fill="#AF5F23"/>
<path d="M73.3427 115.579C73.6522 115.579 73.9031 115.32 73.9031 115C73.9031 114.681 73.6522 114.422 73.3427 114.422C73.0331 114.422 72.7822 114.681 72.7822 115C72.7822 115.32 73.0331 115.579 73.3427 115.579Z" fill="#601111"/>
<path d="M68.0877 113.099C68.0877 113.099 68.4123 113.026 68.648 113.206C68.8835 113.386 69.58 113.551 69.667 113.215C69.754 112.878 69.7531 112.149 69.3068 111.996C68.8604 111.844 67.9684 112.248 67.6708 112.612C67.5279 112.786 67.6272 113.135 68.0877 113.099Z" fill="#601111"/>
<path d="M91.7345 149.463C91.6886 149.464 91.6491 149.465 91.6097 149.463C90.6791 149.433 91.1224 149.657 90.4444 149.856C89.7633 150.056 89.4563 149.771 89.4563 149.771C89.4563 149.771 88.5405 150.392 87.9169 149.582C87.9169 149.582 87.1571 149.785 87.0897 149.371C87.0224 148.96 87.4707 148.29 87.9343 148.187C88.2183 148.124 89.5256 148.117 90.4785 148.119C90.4808 148.204 90.5317 148.38 90.9057 148.486C91.4022 148.623 91.6455 148.505 91.7759 148.835C91.8754 149.081 91.8803 149.269 91.7345 149.463Z" fill="#F7EBD0"/>
<path d="M89.887 147.829C88.7525 147.465 87.3967 146.727 86.8472 145.244C86.8436 145.237 86.8436 145.234 86.8436 145.234C85.9653 142.854 87.1651 140.622 87.2879 140.554C87.4075 140.49 87.9971 140.305 88.337 140.69C88.677 141.078 88.4313 141.775 88.206 142.494C87.9807 143.211 88.8816 143.123 88.9118 143.477C88.9453 143.831 87.9948 144.362 88.0309 145.596C88.067 146.83 89.6127 147.66 89.6127 147.66L89.887 147.829Z" fill="#F7EBD0"/>
<path d="M87.083 140.743C87.2011 140.43 87.4028 140.166 87.6148 139.92C87.8331 139.679 88.0703 139.458 88.3207 139.254C88.5769 139.06 88.8436 138.878 89.1285 138.735C89.4072 138.581 89.7048 138.46 90.0253 138.429C89.7678 138.636 89.4925 138.77 89.2241 138.927C88.955 139.081 88.6999 139.259 88.4471 139.44C87.9399 139.805 87.5076 140.258 87.083 140.743Z" fill="#AF5F23"/>
<path d="M90.5841 137.561C90.2346 137.765 89.9105 137.989 89.6182 138.247C89.3285 138.509 89.0878 138.814 88.9046 139.152L88.7627 139.088C88.8505 138.905 88.9446 138.721 89.0768 138.563C89.2016 138.4 89.3466 138.253 89.5057 138.124C89.818 137.86 90.1859 137.655 90.5841 137.561Z" fill="#AF5F23"/>
<path d="M80.1663 135.825C80.2484 136.167 80.2218 136.518 80.1726 136.858C80.1249 137.2 80.0553 137.539 79.9591 137.871C79.8634 138.202 79.7424 138.526 79.596 138.837C79.4552 139.152 79.2762 139.446 79.0875 139.73L78.958 139.639C79.127 139.351 79.2925 139.061 79.4258 138.753C79.5684 138.451 79.6794 138.134 79.7788 137.814C79.8804 137.494 79.9562 137.165 80.0108 136.832C80.0635 136.498 80.0986 136.167 80.1663 135.825Z" fill="#AF5F23"/>
<path d="M79.011 137.272C79.0865 137.477 79.0937 137.685 79.0931 137.891L79.0898 138.51C79.0861 138.922 79.0697 139.335 79.0466 139.747C79.0195 140.159 78.9852 140.571 78.9377 140.982C78.886 141.39 78.8532 141.812 78.6729 142.189C78.6753 141.768 78.7395 141.37 78.7729 140.961C78.8088 140.554 78.8316 140.144 78.8474 139.735L78.8997 138.504L78.9201 137.888C78.9253 137.683 78.9365 137.478 79.011 137.272Z" fill="#AF5F23"/>
<path d="M86.8204 145.37C86.6141 145.014 86.4955 144.588 86.4311 144.159C86.3696 143.726 86.3661 143.282 86.4066 142.846C86.4565 142.411 86.5465 141.983 86.683 141.579C86.7429 141.373 86.8301 141.181 86.9107 140.987C87.0014 140.799 87.1082 140.622 87.2205 140.453C87.1681 140.664 87.1003 140.861 87.0341 141.058C86.9809 141.261 86.9022 141.451 86.854 141.654C86.7409 142.053 86.6722 142.465 86.6183 142.878C86.5779 143.294 86.5679 143.713 86.6021 144.13C86.6352 144.548 86.6984 144.965 86.8204 145.37Z" fill="#AF5F23"/>
<path d="M93.667 147.819C93.9147 147.677 94.1606 147.583 94.4134 147.486C94.5408 147.441 94.6677 147.394 94.7997 147.355C94.9295 147.312 95.0636 147.275 95.2082 147.25C95.0092 147.443 94.7618 147.572 94.5051 147.679C94.3746 147.729 94.2387 147.769 94.0999 147.797C93.9601 147.824 93.8152 147.841 93.667 147.819Z" fill="#AF5F23"/>
<path d="M92.407 148.164C92.2432 148.319 92.048 148.378 91.8568 148.401C91.6648 148.42 91.4675 148.397 91.2861 148.258C91.4799 148.149 91.6595 148.129 91.8427 148.121C92.0258 148.114 92.2062 148.12 92.407 148.164Z" fill="#AF5F23"/>
<path d="M71.4174 121.797C71.6742 121.552 71.8096 121.257 71.7546 120.92C71.7352 120.758 71.6681 120.599 71.6177 120.421C71.5652 120.249 71.5166 120.075 71.4714 119.9C71.3873 119.549 71.3136 119.193 71.2759 118.83C71.2462 118.476 71.1933 118.073 71.3989 117.748C71.3882 118.112 71.4122 118.45 71.4596 118.803C71.5127 119.152 71.5877 119.499 71.6751 119.842C71.7185 120.014 71.7622 120.186 71.812 120.356C71.8575 120.522 71.9231 120.699 71.9407 120.895C71.9598 121.087 71.9422 121.296 71.8487 121.472C71.7604 121.649 71.594 121.777 71.4174 121.797Z" fill="#AF925F"/>
<path d="M70.776 120.496C70.7376 120.093 70.4497 119.851 70.1097 119.71C69.7678 119.572 69.3671 119.587 68.9668 119.478C68.5625 119.378 68.2106 119.13 67.9159 118.87C67.6147 118.607 67.3423 118.312 67.1061 117.989C66.8776 117.661 66.687 117.301 66.5723 116.913C66.4579 116.527 66.4546 116.095 66.5332 115.712C66.6017 115.324 66.698 114.937 66.8608 114.57C67.0159 114.209 67.2722 113.841 67.6609 113.699C67.3895 113.99 67.1833 114.293 67.0311 114.643C66.8825 114.991 66.7946 115.366 66.7338 115.744C66.664 116.125 66.6757 116.489 66.7846 116.852C66.8961 117.209 67.0796 117.544 67.301 117.853C67.522 118.162 67.7802 118.448 68.0658 118.703C68.3528 118.961 68.6591 119.18 69.0236 119.276C69.3804 119.381 69.7914 119.368 70.185 119.527C70.3753 119.608 70.565 119.72 70.694 119.896C70.8248 120.069 70.863 120.312 70.776 120.496Z" fill="#AF925F"/>
<path d="M68.1708 120.496C68.1022 120.496 68.0425 120.455 67.9858 120.413C67.9291 120.37 67.8785 120.312 67.8321 120.248C67.7404 120.117 67.6597 119.967 67.6104 119.773C67.7328 119.848 67.8286 119.96 67.9216 120.077C67.9669 120.137 68.011 120.199 68.0516 120.269C68.0919 120.34 68.1315 120.41 68.1708 120.496Z" fill="#AF925F"/>
<path d="M77.2079 123.533C77.1276 123.294 77.1109 123.035 77.1576 122.781C77.1842 122.654 77.2224 122.528 77.2868 122.41C77.3487 122.29 77.4444 122.183 77.53 122.098C77.7034 121.916 77.8967 121.763 78.0328 121.58C78.1727 121.4 78.2321 121.192 78.1895 120.968L78.3613 120.929C78.4387 121.187 78.3692 121.498 78.2011 121.704C78.0407 121.916 77.8487 122.077 77.6734 122.242C77.4905 122.4 77.3841 122.586 77.3291 122.819C77.2682 123.045 77.2442 123.283 77.2079 123.533Z" fill="#AF925F"/>
<path d="M81.4603 125.702C81.3543 125.582 81.2927 125.453 81.2416 125.322C81.1902 125.191 81.1405 125.06 81.0947 124.928C81.0507 124.796 81.0102 124.663 80.9728 124.53C80.9316 124.397 80.8999 124.262 80.9186 124.111C81.0454 124.221 81.1141 124.349 81.1694 124.48C81.2275 124.61 81.2786 124.742 81.324 124.875C81.367 125.009 81.4033 125.144 81.4357 125.28C81.4681 125.416 81.4882 125.555 81.4603 125.702Z" fill="#696969"/>
<path d="M72.0928 134.524C72.2709 134.84 72.3896 135.173 72.5009 135.508L72.8316 136.515C72.9385 136.852 73.0407 137.19 73.1382 137.529C73.2222 137.873 73.3748 138.195 73.3513 138.573C73.118 138.276 73.0609 137.923 72.9352 137.592C72.8229 137.257 72.715 136.92 72.6125 136.582L72.314 135.564C72.2158 135.225 72.1244 134.883 72.0928 134.524Z" fill="#AF925F"/>
<path d="M69.0033 121.811C68.9742 122.149 69.042 122.544 68.8232 122.665C68.6796 122.389 68.5163 122.097 68.3441 121.833C68.0299 121.347 67.7546 120.902 67.6104 120.496C67.8304 120.772 68.1469 121.105 68.4313 121.181C68.939 121.313 69.0446 121.338 69.0033 121.811Z" fill="#D68C34"/>
<path d="M70.5648 126.823L70.3172 126.498C70.3172 126.498 70.2121 126.529 70.1401 126.78C70.068 127.032 70.2556 128.053 70.3655 128.188C70.4753 128.324 72.2794 129.405 75.5508 128.109C78.8222 126.814 79.9041 124.838 80.1352 123.666C80.3663 122.493 80.0286 121.783 79.8917 121.62C79.7549 121.458 79.3228 121.166 79.1394 121.228C79.1394 121.228 79.4482 121.856 79.5194 122.492C79.5905 123.128 78.6838 125.68 76.0727 126.927C73.2607 128.271 70.8042 127.786 70.5648 126.823Z" fill="#7A301C"/>
<path d="M79.8761 120.174C79.854 120.239 79.8286 120.301 79.8062 120.363C79.8062 120.363 79.8062 120.363 79.8062 120.366C79.6241 120.807 79.3853 121.091 78.744 121.073C78.0099 121.055 78.1131 120.829 77.4867 120.847C77.4454 120.849 77.4076 120.849 77.3697 120.854C76.83 120.885 76.5898 121.018 76.5818 120.772C76.5732 120.508 76.5133 120.671 76.8892 120.257C77.2616 119.843 77.7008 119.469 77.6684 119.106C77.6364 118.745 77.5074 118.81 77.781 118.641C78.0581 118.472 78.574 118.457 78.585 118.154C78.596 117.85 78.7223 117.704 78.5465 117.59C78.3706 117.472 78.0154 117.786 78.0154 117.786C78.0154 117.786 77.7769 117.105 77.7276 116.967C77.6819 116.827 77.6581 116.727 77.6581 116.727C77.6581 116.727 77.8571 116.276 78.3954 116.303C78.9368 116.326 79.272 116.801 79.313 117.326C79.3501 117.848 79.2689 117.993 79.4981 118.49C79.7315 118.986 80.0753 119.622 79.8761 120.174Z" fill="#EDD7AB"/>
<path d="M79.6616 120.355C79.6616 120.355 79.6616 120.355 79.6616 120.359C79.5046 120.804 79.2988 121.091 78.7461 121.073C78.1133 121.055 78.2023 120.827 77.6624 120.845C77.6268 120.846 77.5942 120.847 77.5615 120.851C77.7193 120.761 77.9665 120.567 78.0543 120.199C78.1875 119.644 78.2513 119.257 78.5823 119.204C78.9164 119.15 78.8081 119.317 79.0594 119.615C79.2869 119.888 79.6912 119.914 79.6616 120.355Z" fill="#D68C34"/>
<path d="M79.4156 121.964L79.4738 122.191C79.4738 122.191 79.8324 122.102 80.0011 122.161C80.2486 122.247 80.1827 122.892 79.9139 123.02C79.767 123.09 79.4464 123.083 79.4464 123.083C79.4464 123.083 79.4319 123.264 79.7425 123.281C80.0389 123.297 80.2935 123.229 80.3962 122.722C80.4987 122.215 80.3549 122.093 80.1719 121.952C79.9305 121.767 79.5629 121.643 79.4156 121.964Z" fill="white"/>
<path d="M74.7517 149.42C74.7551 149.648 74.7023 149.786 74.6557 149.94C74.6114 150.094 74.5686 150.236 74.5456 150.432C74.5037 150.355 74.4803 150.253 74.473 150.151C74.468 150.049 74.4777 149.948 74.4955 149.852C74.5336 149.663 74.6022 149.481 74.7517 149.42Z" fill="#AF925F"/>
<path d="M73.3427 149.42C73.3097 149.622 73.2314 149.782 73.1552 149.943C73.0756 150.105 72.9965 150.244 72.8933 150.432C72.735 150.257 72.7675 150.032 72.857 149.856C72.9537 149.678 73.1039 149.516 73.3427 149.42Z" fill="#AF925F"/>
<path d="M73.7304 146.093C73.785 146.26 73.7653 146.396 73.7377 146.534C73.7034 146.672 73.6691 146.799 73.5818 146.961C73.3717 146.835 73.3249 146.664 73.3515 146.51C73.3868 146.355 73.4897 146.202 73.7304 146.093Z" fill="#AF925F"/>
<path d="M72.2299 146.093C72.1856 146.261 72.1267 146.393 72.0772 146.53C72.0219 146.666 71.9874 146.794 71.9298 146.961C71.7966 146.823 71.7839 146.633 71.8438 146.473C71.9066 146.313 72.0313 146.166 72.2299 146.093Z" fill="#AF925F"/>
<path d="M83.7138 146.817C83.7298 147.048 83.6654 147.198 83.5936 147.351C83.5247 147.507 83.45 147.643 83.3696 147.829C83.2662 147.648 83.2851 147.422 83.3439 147.241C83.4027 147.057 83.5043 146.886 83.7138 146.817Z" fill="#AF925F"/>
<path d="M85.2578 147.25C85.2314 147.409 85.1964 147.516 85.1638 147.625C85.1288 147.734 85.0993 147.825 85.0461 147.974C84.9614 147.854 84.9628 147.666 85.0089 147.528C85.0568 147.389 85.1401 147.274 85.2578 147.25Z" fill="#AF925F"/>
<path d="M88.2061 148.697C88.2106 148.843 88.1735 148.956 88.1374 149.068C88.1003 149.182 88.0601 149.275 87.9873 149.42C87.7867 149.322 87.7559 149.156 87.8093 149.024C87.8676 148.89 87.9882 148.766 88.2061 148.697Z" fill="#AF925F"/>
<path d="M89.8822 148.842C89.8276 149.034 89.7763 149.155 89.7256 149.283C89.6707 149.408 89.6311 149.53 89.5527 149.709C89.3324 149.395 89.5404 148.841 89.8822 148.842Z" fill="#AF925F"/>
<line opacity="0.18" x1="59.1275" y1="106.543" x2="59.1275" y2="101.98" stroke="black" stroke-width="0.223456"/>
<path d="M63.2195 50.8334C61.3957 55.0518 57.9134 54.2409 56.6949 53.3076C51.271 58.297 46.358 53.7136 45.6112 50.7526C41.8772 52.294 41.0125 48.2378 42.2309 46.8587C38.4577 45.9502 39.6762 41.9508 41.72 41.6669C40.3366 38.9412 42.2965 37.6108 43.4493 37.2863C43.4179 34.0089 46.7117 33.5952 47.6942 34.6904C49.5415 30.5937 52.6204 32.4457 53.6685 33.9598C57.6382 28.0383 62.0796 33.2705 61.7652 35.4606C62.96 35.3308 63.416 36.5423 63.4946 37.1642C67.5822 34.3249 70.8052 40.044 68.2897 42.5589C71.7092 47.7913 66.521 51.6446 63.2195 50.8334Z" fill="white"/>
<path d="M45.9198 55.7284C46.1163 56.5397 45.1339 57.8376 44.0729 57.8376C43.012 57.8376 42.1475 56.9211 42.1475 55.8907C42.1475 54.8602 42.6993 54.0654 43.7193 54.0654C44.7393 54.0654 45.9198 54.698 45.9198 55.7284Z" fill="white"/>
<path d="M42.1838 59.7847C42.2624 60.1904 41.7833 60.7988 41.2407 60.7988C40.6982 60.7988 40.3369 60.2328 40.3369 59.7847C40.3369 59.3367 40.5727 58.8924 41.2407 58.9735C41.7909 58.9735 42.2231 59.3791 42.1838 59.7847Z" fill="white"/>
<path d="M52.067 37.5425V40.7927H51.6162L49.9641 38.409H49.934V40.7927H49.4436V37.5425H49.8975L51.5512 39.9294H51.5813V37.5425H52.067ZM53.771 40.8419C53.5425 40.8419 53.3431 40.7896 53.1727 40.6848C53.0024 40.5801 52.8701 40.4335 52.776 40.2452C52.6818 40.0569 52.6347 39.8368 52.6347 39.585C52.6347 39.3321 52.6818 39.111 52.776 38.9216C52.8701 38.7322 53.0024 38.5851 53.1727 38.4804C53.3431 38.3757 53.5425 38.3233 53.771 38.3233C53.9996 38.3233 54.199 38.3757 54.3694 38.4804C54.5397 38.5851 54.672 38.7322 54.7661 38.9216C54.8603 39.111 54.9074 39.3321 54.9074 39.585C54.9074 39.8368 54.8603 40.0569 54.7661 40.2452C54.672 40.4335 54.5397 40.5801 54.3694 40.6848C54.199 40.7896 53.9996 40.8419 53.771 40.8419ZM53.7726 40.4436C53.9208 40.4436 54.0435 40.4044 54.1408 40.3261C54.2382 40.2478 54.3101 40.1436 54.3567 40.0135C54.4043 39.8833 54.4281 39.74 54.4281 39.5834C54.4281 39.4279 54.4043 39.285 54.3567 39.1549C54.3101 39.0237 54.2382 38.9184 54.1408 38.8391C54.0435 38.7597 53.9208 38.72 53.7726 38.72C53.6234 38.72 53.4997 38.7597 53.4013 38.8391C53.3039 38.9184 53.2314 39.0237 53.1838 39.1549C53.1373 39.285 53.114 39.4279 53.114 39.5834C53.114 39.74 53.1373 39.8833 53.1838 40.0135C53.2314 40.1436 53.3039 40.2478 53.4013 40.3261C53.4997 40.4044 53.6234 40.4436 53.7726 40.4436ZM56.575 38.355V38.7359H55.2434V38.355H56.575ZM55.6005 37.771H56.075V40.077C56.075 40.169 56.0888 40.2383 56.1163 40.2849C56.1438 40.3304 56.1793 40.3616 56.2226 40.3785C56.2671 40.3944 56.3152 40.4023 56.3671 40.4023C56.4051 40.4023 56.4385 40.3997 56.467 40.3944C56.4956 40.3891 56.5178 40.3849 56.5337 40.3817L56.6194 40.7737C56.5919 40.7843 56.5527 40.7948 56.5019 40.8054C56.4512 40.8171 56.3877 40.8234 56.3115 40.8245C56.1867 40.8266 56.0703 40.8044 55.9624 40.7578C55.8544 40.7113 55.7671 40.6393 55.7005 40.542C55.6338 40.4446 55.6005 40.3224 55.6005 40.1754V37.771ZM58.2826 40.7927V38.355H58.7571V40.7927H58.2826ZM58.5223 37.9789C58.4397 37.9789 58.3688 37.9514 58.3096 37.8964C58.2514 37.8403 58.2223 37.7736 58.2223 37.6964C58.2223 37.6181 58.2514 37.5515 58.3096 37.4964C58.3688 37.4404 58.4397 37.4123 58.5223 37.4123C58.6048 37.4123 58.6751 37.4404 58.7333 37.4964C58.7926 37.5515 58.8222 37.6181 58.8222 37.6964C58.8222 37.7736 58.7926 37.8403 58.7333 37.8964C58.6751 37.9514 58.6048 37.9789 58.5223 37.9789ZM59.8701 39.3453V40.7927H59.3955V38.355H59.851V38.7518H59.8812C59.9372 38.6227 60.0251 38.519 60.1446 38.4407C60.2652 38.3624 60.4171 38.3233 60.6001 38.3233C60.7662 38.3233 60.9117 38.3582 61.0365 38.428C61.1614 38.4968 61.2582 38.5994 61.327 38.7359C61.3957 38.8724 61.4301 39.0412 61.4301 39.2422V40.7927H60.9556V39.2993C60.9556 39.1226 60.9096 38.9846 60.8175 38.8851C60.7255 38.7846 60.599 38.7343 60.4382 38.7343C60.3282 38.7343 60.2303 38.7581 60.1446 38.8057C60.06 38.8534 59.9928 38.9232 59.9431 39.0152C59.8944 39.1062 59.8701 39.2163 59.8701 39.3453ZM46.3221 45.7927V43.355H46.7775V43.7518H46.8077C46.8585 43.6174 46.9415 43.5127 47.0569 43.4376C47.1722 43.3614 47.3103 43.3233 47.4711 43.3233C47.634 43.3233 47.7705 43.3614 47.8805 43.4376C47.9916 43.5137 48.0736 43.6185 48.1265 43.7518H48.1519C48.2101 43.6216 48.3027 43.518 48.4296 43.4407C48.5566 43.3624 48.7079 43.3233 48.8835 43.3233C49.1047 43.3233 49.2851 43.3926 49.4247 43.5312C49.5654 43.6698 49.6358 43.8787 49.6358 44.1581V45.7927H49.1613V44.2025C49.1613 44.0375 49.1163 43.9179 49.0264 43.8438C48.9364 43.7698 48.8291 43.7327 48.7042 43.7327C48.5497 43.7327 48.4296 43.7804 48.3439 43.8756C48.2582 43.9697 48.2154 44.0909 48.2154 44.239V45.7927H47.7425V44.1724C47.7425 44.0401 47.7012 43.9338 47.6187 43.8534C47.5361 43.7729 47.4288 43.7327 47.2965 43.7327C47.2066 43.7327 47.1235 43.7565 47.0473 43.8042C46.9722 43.8507 46.9114 43.9158 46.8648 43.9994C46.8193 44.0829 46.7966 44.1798 46.7966 44.2898V45.7927H46.3221ZM51.2986 45.8419C51.0701 45.8419 50.8707 45.7896 50.7003 45.6848C50.53 45.5801 50.3977 45.4335 50.3036 45.2452C50.2094 45.0569 50.1623 44.8368 50.1623 44.585C50.1623 44.3321 50.2094 44.111 50.3036 43.9216C50.3977 43.7322 50.53 43.5851 50.7003 43.4804C50.8707 43.3757 51.0701 43.3233 51.2986 43.3233C51.5272 43.3233 51.7266 43.3757 51.8969 43.4804C52.0673 43.5851 52.1995 43.7322 52.2937 43.9216C52.3879 44.111 52.435 44.3321 52.435 44.585C52.435 44.8368 52.3879 45.0569 52.2937 45.2452C52.1995 45.4335 52.0673 45.5801 51.8969 45.6848C51.7266 45.7896 51.5272 45.8419 51.2986 45.8419ZM51.3002 45.4436C51.4483 45.4436 51.5711 45.4044 51.6684 45.3261C51.7657 45.2478 51.8377 45.1436 51.8842 45.0135C51.9319 44.8833 51.9557 44.74 51.9557 44.5834C51.9557 44.4279 51.9319 44.285 51.8842 44.1549C51.8377 44.0237 51.7657 43.9184 51.6684 43.8391C51.5711 43.7597 51.4483 43.72 51.3002 43.72C51.151 43.72 51.0272 43.7597 50.9288 43.8391C50.8315 43.9184 50.759 44.0237 50.7114 44.1549C50.6649 44.285 50.6416 44.4279 50.6416 44.5834C50.6416 44.74 50.6649 44.8833 50.7114 45.0135C50.759 45.1436 50.8315 45.2478 50.9288 45.3261C51.0272 45.4044 51.151 45.4436 51.3002 45.4436ZM53.9914 45.8419C53.7629 45.8419 53.5635 45.7896 53.3931 45.6848C53.2228 45.5801 53.0905 45.4335 52.9964 45.2452C52.9022 45.0569 52.8551 44.8368 52.8551 44.585C52.8551 44.3321 52.9022 44.111 52.9964 43.9216C53.0905 43.7322 53.2228 43.5851 53.3931 43.4804C53.5635 43.3757 53.7629 43.3233 53.9914 43.3233C54.22 43.3233 54.4194 43.3757 54.5898 43.4804C54.7601 43.5851 54.8924 43.7322 54.9865 43.9216C55.0807 44.111 55.1278 44.3321 55.1278 44.585C55.1278 44.8368 55.0807 45.0569 54.9865 45.2452C54.8924 45.4335 54.7601 45.5801 54.5898 45.6848C54.4194 45.7896 54.22 45.8419 53.9914 45.8419ZM53.993 45.4436C54.1412 45.4436 54.2639 45.4044 54.3612 45.3261C54.4586 45.2478 54.5305 45.1436 54.5771 45.0135C54.6247 44.8833 54.6485 44.74 54.6485 44.5834C54.6485 44.4279 54.6247 44.285 54.5771 44.1549C54.5305 44.0237 54.4586 43.9184 54.3612 43.8391C54.2639 43.7597 54.1412 43.72 53.993 43.72C53.8438 43.72 53.7201 43.7597 53.6217 43.8391C53.5243 43.9184 53.4518 44.0237 53.4042 44.1549C53.3577 44.285 53.3344 44.4279 53.3344 44.5834C53.3344 44.74 53.3577 44.8833 53.4042 45.0135C53.4518 45.1436 53.5243 45.2478 53.6217 45.3261C53.7201 45.4044 53.8438 45.4436 53.993 45.4436ZM56.57 45.8403C56.3732 45.8403 56.1976 45.7901 56.0431 45.6896C55.8897 45.588 55.7691 45.4436 55.6812 45.2563C55.5945 45.068 55.5511 44.8421 55.5511 44.5786C55.5511 44.3152 55.595 44.0898 55.6828 43.9026C55.7717 43.7153 55.8934 43.5719 56.0479 43.4725C56.2023 43.373 56.3774 43.3233 56.5732 43.3233C56.7245 43.3233 56.8461 43.3487 56.9382 43.3995C57.0313 43.4492 57.1032 43.5074 57.154 43.574C57.2059 43.6407 57.2461 43.6994 57.2746 43.7502H57.3032V42.5425H57.7777V45.7927H57.3143V45.4134H57.2746C57.2461 45.4653 57.2048 45.5245 57.1509 45.5912C57.098 45.6578 57.0249 45.716 56.9318 45.7657C56.8387 45.8155 56.7181 45.8403 56.57 45.8403ZM56.6747 45.4356C56.8112 45.4356 56.9265 45.3997 57.0207 45.3277C57.1159 45.2547 57.1879 45.1537 57.2366 45.0246C57.2863 44.8955 57.3111 44.7453 57.3111 44.5739C57.3111 44.4046 57.2868 44.2565 57.2381 44.1295C57.1895 44.0025 57.1181 43.9036 57.0239 43.8327C56.9297 43.7618 56.8133 43.7264 56.6747 43.7264C56.5319 43.7264 56.4129 43.7634 56.3177 43.8375C56.2224 43.9115 56.1505 44.0126 56.1018 44.1406C56.0542 44.2686 56.0304 44.4131 56.0304 44.5739C56.0304 44.7368 56.0547 44.8833 56.1034 45.0135C56.1521 45.1436 56.224 45.2468 56.3192 45.323C56.4155 45.3981 56.534 45.4356 56.6747 45.4356ZM60.7757 43.355V43.7359H59.4441V43.355H60.7757ZM59.8012 42.771H60.2757V45.077C60.2757 45.169 60.2895 45.2383 60.317 45.2849C60.3445 45.3304 60.38 45.3616 60.4233 45.3785C60.4678 45.3944 60.5159 45.4023 60.5678 45.4023C60.6058 45.4023 60.6392 45.3997 60.6677 45.3944C60.6963 45.3891 60.7185 45.3849 60.7344 45.3817L60.8201 45.7737C60.7926 45.7843 60.7534 45.7948 60.7027 45.8054C60.6519 45.8171 60.5884 45.8234 60.5122 45.8245C60.3874 45.8266 60.271 45.8044 60.1631 45.7578C60.0551 45.7113 59.9679 45.6393 59.9012 45.542C59.8345 45.4446 59.8012 45.3224 59.8012 45.1754V42.771ZM62.3012 45.8419C62.0727 45.8419 61.8732 45.7896 61.7029 45.6848C61.5325 45.5801 61.4003 45.4335 61.3061 45.2452C61.212 45.0569 61.1649 44.8368 61.1649 44.585C61.1649 44.3321 61.212 44.111 61.3061 43.9216C61.4003 43.7322 61.5325 43.5851 61.7029 43.4804C61.8732 43.3757 62.0727 43.3233 62.3012 43.3233C62.5297 43.3233 62.7292 43.3757 62.8995 43.4804C63.0699 43.5851 63.2021 43.7322 63.2963 43.9216C63.3904 44.111 63.4375 44.3321 63.4375 44.585C63.4375 44.8368 63.3904 45.0569 63.2963 45.2452C63.2021 45.4335 63.0699 45.5801 62.8995 45.6848C62.7292 45.7896 62.5297 45.8419 62.3012 45.8419ZM62.3028 45.4436C62.4509 45.4436 62.5737 45.4044 62.671 45.3261C62.7683 45.2478 62.8403 45.1436 62.8868 45.0135C62.9344 44.8833 62.9582 44.74 62.9582 44.5834C62.9582 44.4279 62.9344 44.285 62.8868 44.1549C62.8403 44.0237 62.7683 43.9184 62.671 43.8391C62.5737 43.7597 62.4509 43.72 62.3028 43.72C62.1536 43.72 62.0298 43.7597 61.9314 43.8391C61.8341 43.9184 61.7616 44.0237 61.714 44.1549C61.6674 44.285 61.6442 44.4279 61.6442 44.5834C61.6442 44.74 61.6674 44.8833 61.714 45.0135C61.7616 45.1436 61.8341 45.2478 61.9314 45.3261C62.0298 45.4044 62.1536 45.4436 62.3028 45.4436ZM50.4184 50.7927L49.7011 48.355H50.1915L50.6692 50.1452H50.693L51.1723 48.355H51.6627L52.1388 50.1373H52.1626L52.6371 48.355H53.1275L52.4117 50.7927H51.9277L51.4325 49.0327H51.396L50.9009 50.7927H50.4184ZM54.5304 50.8419C54.3019 50.8419 54.1025 50.7896 53.9321 50.6848C53.7618 50.5801 53.6295 50.4335 53.5354 50.2452C53.4412 50.0569 53.3941 49.8368 53.3941 49.585C53.3941 49.3321 53.4412 49.111 53.5354 48.9216C53.6295 48.7322 53.7618 48.5851 53.9321 48.4804C54.1025 48.3757 54.3019 48.3233 54.5304 48.3233C54.759 48.3233 54.9584 48.3757 55.1288 48.4804C55.2991 48.5851 55.4314 48.7322 55.5255 48.9216C55.6197 49.111 55.6668 49.3321 55.6668 49.585C55.6668 49.8368 55.6197 50.0569 55.5255 50.2452C55.4314 50.4335 55.2991 50.5801 55.1288 50.6848C54.9584 50.7896 54.759 50.8419 54.5304 50.8419ZM54.532 50.4436C54.6802 50.4436 54.8029 50.4044 54.9002 50.3261C54.9976 50.2478 55.0695 50.1436 55.1161 50.0135C55.1637 49.8833 55.1875 49.74 55.1875 49.5834C55.1875 49.4279 55.1637 49.285 55.1161 49.1549C55.0695 49.0237 54.9976 48.9184 54.9002 48.8391C54.8029 48.7597 54.6802 48.72 54.532 48.72C54.3828 48.72 54.2591 48.7597 54.1607 48.8391C54.0633 48.9184 53.9908 49.0237 53.9432 49.1549C53.8967 49.285 53.8734 49.4279 53.8734 49.5834C53.8734 49.74 53.8967 49.8833 53.9432 50.0135C53.9908 50.1436 54.0633 50.2478 54.1607 50.3261C54.2591 50.4044 54.3828 50.4436 54.532 50.4436ZM56.1964 50.7927V48.355H56.6551V48.7423H56.6805C56.7249 48.6111 56.8032 48.5079 56.9154 48.4328C57.0286 48.3566 57.1566 48.3185 57.2994 48.3185C57.3291 48.3185 57.364 48.3196 57.4042 48.3217C57.4454 48.3238 57.4777 48.3265 57.501 48.3296V48.7835C57.4819 48.7782 57.4481 48.7724 57.3994 48.7661C57.3508 48.7587 57.3021 48.755 57.2534 48.755C57.1413 48.755 57.0413 48.7788 56.9535 48.8264C56.8667 48.8729 56.7979 48.938 56.7471 49.0216C56.6964 49.1041 56.671 49.1983 56.671 49.3041V50.7927H56.1964ZM58.3481 49.9659L58.3449 49.3866H58.4274L59.3987 48.355H59.9669L58.8591 49.5294H58.7845L58.3481 49.9659ZM57.9116 50.7927V47.5425H58.3862V50.7927H57.9116ZM59.4511 50.7927L58.5782 49.6342L58.9051 49.3025L60.0335 50.7927H59.4511Z" fill="black"/>
<path d="M113.593 30.3082C113.298 34.9173 109.759 35.4014 108.303 34.9615C104.889 41.5809 98.7419 39.0374 97.0475 36.5267C94.0621 39.3074 91.8895 35.8115 92.5696 34.0822C88.725 34.5787 88.5256 30.3914 90.3476 29.3944C88.1349 27.332 89.5269 25.3833 90.4995 24.6668C89.37 21.6036 92.321 20.0381 93.6103 20.7142C93.9682 16.2108 97.478 16.8476 98.9695 17.8933C100.706 10.9194 106.629 14.24 107.069 16.4069C108.146 15.858 108.98 16.8315 109.263 17.3869C112.144 13.2621 117.087 17.4751 115.572 20.7335C120.536 24.4196 116.962 29.889 113.593 30.3082Z" fill="white"/>
<path d="M106.481 41.224C107.206 41.5956 107.527 43.209 106.839 44.0426C106.151 44.8763 104.914 44.9615 104.154 44.2934C103.394 43.6254 103.165 42.6765 103.827 41.875C104.488 41.0735 105.72 40.556 106.481 41.224Z" fill="white"/>
<path d="M107.054 46.7877C107.404 46.9889 107.542 47.7599 107.191 48.1862C106.839 48.6125 106.187 48.5294 105.856 48.239C105.526 47.9485 105.351 47.4752 105.844 47.0029C106.201 46.5706 106.78 46.4939 107.054 46.7877Z" fill="white"/>
<path d="M96.7499 24.4514C96.7011 24.3619 96.6442 24.2846 96.579 24.2194C96.5147 24.153 96.443 24.1003 96.364 24.0611C96.2847 24.021 96.1984 23.996 96.1051 23.9863C96.0128 23.9764 95.9147 23.9825 95.8107 24.0047C95.6344 24.0423 95.4848 24.1231 95.362 24.2471C95.2391 24.371 95.1546 24.5324 95.1084 24.7311C95.0629 24.9286 95.0664 25.1578 95.1188 25.419C95.1713 25.6811 95.257 25.894 95.3759 26.0574C95.4947 26.2209 95.6354 26.3342 95.7979 26.3972C95.9603 26.4602 96.1333 26.4722 96.3167 26.433C96.4869 26.3967 96.628 26.3292 96.74 26.2306C96.853 26.1318 96.9311 26.0097 96.9742 25.8644C97.0181 25.7178 97.0222 25.5555 96.9866 25.3775L97.1136 25.3751L96.2179 25.5664L96.1371 25.1636L97.3676 24.9009L97.4414 25.2689C97.4958 25.5405 97.4871 25.7884 97.4151 26.0123C97.3439 26.2351 97.2209 26.4216 97.0459 26.5721C96.872 26.7223 96.6587 26.8244 96.406 26.8784C96.1227 26.9389 95.8606 26.9246 95.6195 26.8355C95.3796 26.7462 95.1751 26.5906 95.0063 26.3686C94.8373 26.1455 94.7185 25.8635 94.6501 25.5223C94.5984 25.2644 94.5866 25.0253 94.6147 24.8052C94.6429 24.5851 94.7052 24.3901 94.8019 24.2201C94.8993 24.0489 95.0255 23.9072 95.1805 23.795C95.3363 23.6816 95.5156 23.6033 95.7184 23.56C95.8875 23.5238 96.0501 23.516 96.2062 23.5365C96.3633 23.5568 96.5084 23.6021 96.6415 23.6725C96.7757 23.7427 96.8935 23.835 96.9951 23.9494C97.0965 24.0628 97.1763 24.1957 97.2344 24.348L96.7499 24.4514ZM99.2611 26.2737C99.041 26.3207 98.8385 26.3096 98.6535 26.2404C98.4685 26.1712 98.3119 26.0525 98.1837 25.8845C98.0554 25.7164 97.9661 25.5071 97.9159 25.2565C97.8654 25.0049 97.8667 24.7751 97.9196 24.5673C97.9725 24.3594 98.0705 24.1859 98.2137 24.0466C98.3568 23.9074 98.5385 23.8142 98.7586 23.7672C98.9787 23.7202 99.1812 23.7313 99.3662 23.8005C99.5512 23.8697 99.7079 23.9889 99.8364 24.158C99.9648 24.3271 100.054 24.5375 100.105 24.7891C100.155 25.0397 100.154 25.2684 100.1 25.4752C100.047 25.682 99.9492 25.855 99.806 25.9943C99.6629 26.1335 99.4812 26.2267 99.2611 26.2737ZM99.1832 25.8769C99.3258 25.8465 99.4362 25.7823 99.5144 25.6843C99.5925 25.5864 99.641 25.4679 99.6599 25.3288C99.6797 25.1895 99.6741 25.0419 99.6428 24.8861C99.6118 24.7313 99.5604 24.5941 99.4885 24.4744C99.4175 24.3534 99.3272 24.2634 99.2176 24.2045C99.1081 24.1455 98.9819 24.1313 98.8393 24.1617C98.6956 24.1924 98.5843 24.2574 98.5053 24.3566C98.4274 24.4555 98.3786 24.5752 98.359 24.7156C98.3401 24.8547 98.3462 25.0016 98.3772 25.1564C98.4084 25.3122 98.4595 25.4501 98.5303 25.57C98.6021 25.6897 98.6927 25.7785 98.8021 25.8364C98.9124 25.8941 99.0395 25.9076 99.1832 25.8769ZM101.465 23.2222L101.541 23.6012L100.259 23.8751L100.183 23.496L101.465 23.2222ZM100.41 22.8414L100.867 22.7438L101.328 25.0386C101.346 25.1302 101.373 25.1963 101.409 25.237C101.444 25.2766 101.485 25.3004 101.53 25.3083C101.576 25.315 101.624 25.313 101.674 25.3023C101.71 25.2945 101.742 25.285 101.768 25.2738C101.795 25.2627 101.815 25.2539 101.83 25.2475L101.991 25.62C101.966 25.6362 101.931 25.6547 101.884 25.6757C101.837 25.6977 101.778 25.7171 101.704 25.7338C101.585 25.7616 101.468 25.7634 101.355 25.7393C101.242 25.7152 101.143 25.6615 101.06 25.5784C100.976 25.4952 100.919 25.3805 100.89 25.2341L100.41 22.8414ZM102.743 22.1061L103.28 21.9915L104.392 23.2873L104.426 23.2801L104.949 21.6351L105.485 21.5206L104.744 23.7278L104.998 24.9976L104.527 25.0981L104.273 23.8283L102.743 22.1061ZM107.155 24.5881C106.935 24.6351 106.733 24.624 106.548 24.5548C106.363 24.4855 106.206 24.3669 106.078 24.1989C105.95 24.0308 105.86 23.8215 105.81 23.5709C105.76 23.3193 105.761 23.0895 105.814 22.8817C105.867 22.6738 105.965 22.5003 106.108 22.361C106.251 22.2218 106.433 22.1286 106.653 22.0816C106.873 22.0346 107.075 22.0457 107.26 22.1149C107.445 22.1841 107.602 22.3033 107.73 22.4724C107.859 22.6415 107.948 22.8519 107.999 23.1035C108.049 23.3541 108.048 23.5828 107.995 23.7896C107.941 23.9964 107.843 24.1694 107.7 24.3087C107.557 24.4479 107.375 24.5411 107.155 24.5881ZM107.077 24.1913C107.22 24.1609 107.33 24.0967 107.408 23.9987C107.487 23.9008 107.535 23.7823 107.554 23.6432C107.574 23.5039 107.568 23.3563 107.537 23.2005C107.506 23.0457 107.454 22.9085 107.383 22.7888C107.312 22.6678 107.221 22.5778 107.112 22.5189C107.002 22.4599 106.876 22.4457 106.733 22.4761C106.59 22.5068 106.478 22.5718 106.399 22.671C106.322 22.7699 106.273 22.8896 106.253 23.03C106.234 23.169 106.24 23.316 106.271 23.4708C106.303 23.6266 106.354 23.7645 106.424 23.8844C106.496 24.0041 106.587 24.0929 106.696 24.1508C106.807 24.2085 106.934 24.222 107.077 24.1913ZM110.036 22.8729L109.751 21.453L110.209 21.3551L110.696 23.781L110.246 23.877L110.162 23.4568L110.138 23.4621C110.11 23.6031 110.045 23.7295 109.943 23.8413C109.842 23.9518 109.703 24.0259 109.527 24.0636C109.376 24.0958 109.236 24.0901 109.106 24.0464C108.977 24.0015 108.865 23.9182 108.772 23.7966C108.679 23.6747 108.613 23.5137 108.573 23.3136L108.264 21.7706L108.721 21.673L109.019 23.1592C109.052 23.3245 109.123 23.4466 109.231 23.5256C109.339 23.6046 109.464 23.629 109.606 23.5987C109.691 23.5805 109.772 23.5402 109.848 23.4779C109.924 23.4154 109.982 23.3334 110.02 23.232C110.059 23.1303 110.064 23.0106 110.036 22.8729ZM98.235 29.3544L97.7581 29.4562C97.7187 29.3549 97.6659 29.2695 97.6 29.2001C97.534 29.1308 97.4592 29.0759 97.3757 29.0356C97.2922 28.9952 97.2027 28.9704 97.1073 28.9611C97.013 28.9516 96.9159 28.9575 96.816 28.9788C96.6356 29.0174 96.4835 29.0987 96.3596 29.2229C96.2368 29.3468 96.1522 29.5082 96.106 29.7069C96.0608 29.9054 96.0644 30.1352 96.1167 30.3963C96.1695 30.6596 96.2548 30.873 96.3726 31.0367C96.4915 31.2002 96.6315 31.313 96.7928 31.3752C96.954 31.4374 97.1238 31.4495 97.3021 31.4114C97.401 31.3903 97.492 31.3566 97.5751 31.3103C97.6591 31.2627 97.7318 31.2038 97.7932 31.1336C97.8545 31.0634 97.9023 30.9835 97.9364 30.8939C97.9713 30.803 97.9881 30.7039 97.9867 30.5965L98.464 30.4963C98.4704 30.6607 98.4503 30.8176 98.4037 30.967C98.358 31.1151 98.2877 31.2498 98.193 31.371C98.0991 31.491 97.9846 31.5929 97.8494 31.6766C97.7143 31.7604 97.5606 31.8206 97.3884 31.8574C97.1173 31.9153 96.8625 31.9005 96.6239 31.8131C96.3852 31.7247 96.1797 31.5692 96.0076 31.3469C95.8365 31.1243 95.7165 30.8408 95.6474 30.4965C95.5782 30.1512 95.5799 29.8417 95.6526 29.5682C95.7251 29.2936 95.854 29.0673 96.0393 28.8894C96.2245 28.7104 96.4521 28.5921 96.7221 28.5344C96.8882 28.499 97.0481 28.4907 97.2017 28.5095C97.3561 28.527 97.5004 28.5708 97.6345 28.641C97.7684 28.7101 97.8867 28.8046 97.9894 28.9243C98.0918 29.043 98.1737 29.1863 98.235 29.3544ZM100.2 31.262C99.9798 31.309 99.7773 31.2979 99.5923 31.2287C99.4073 31.1595 99.2507 31.0409 99.1224 30.8728C98.9942 30.7048 98.9049 30.4955 98.8547 30.2449C98.8042 29.9932 98.8055 29.7635 98.8584 29.5556C98.9113 29.3478 99.0093 29.1743 99.1525 29.035C99.2956 28.8957 99.4773 28.8026 99.6974 28.7556C99.9175 28.7086 100.12 28.7197 100.305 28.7889C100.49 28.8581 100.647 28.9773 100.775 29.1464C100.904 29.3155 100.993 29.5258 101.044 29.7775C101.094 30.0281 101.092 30.2568 101.039 30.4635C100.986 30.6703 100.888 30.8434 100.745 30.9826C100.602 31.1219 100.42 31.215 100.2 31.262ZM100.122 30.8653C100.265 30.8348 100.375 30.7706 100.453 30.6727C100.531 30.5748 100.58 30.4562 100.599 30.3172C100.619 30.1779 100.613 30.0303 100.582 29.8745C100.551 29.7197 100.499 29.5824 100.427 29.4627C100.356 29.3417 100.266 29.2518 100.156 29.1928C100.047 29.1339 99.9207 29.1196 99.7781 29.1501C99.6344 29.1808 99.5231 29.2457 99.4441 29.3449C99.3662 29.4439 99.3174 29.5636 99.2977 29.7039C99.2789 29.843 99.2849 29.9899 99.316 30.1447C99.3472 30.3005 99.3982 30.4384 99.4691 30.5584C99.5409 30.6781 99.6315 30.7669 99.7408 30.8248C99.8512 30.8825 99.9783 30.896 100.122 30.8653ZM103.237 28.0327L102.872 30.6404L102.383 30.7449L101.043 28.5011L101.534 28.3963L102.503 30.1362L102.527 30.1309L102.746 28.1375L103.237 28.0327ZM105.095 30.2169C104.863 30.2663 104.654 30.2577 104.466 30.1913C104.28 30.1236 104.122 30.0062 103.994 29.8392C103.867 29.6709 103.778 29.461 103.727 29.2093C103.678 28.9609 103.679 28.7323 103.73 28.5236C103.783 28.3147 103.88 28.1398 104.02 27.9989C104.162 27.8577 104.342 27.7638 104.56 27.7173C104.693 27.689 104.825 27.6842 104.959 27.7029C105.092 27.7217 105.218 27.7689 105.336 27.8447C105.455 27.9204 105.558 28.0296 105.646 28.1722C105.734 28.3137 105.8 28.4945 105.844 28.7146L105.877 28.882L104.011 29.2805L103.94 28.9267L105.359 28.6239C105.334 28.4996 105.287 28.3948 105.219 28.3094C105.151 28.223 105.067 28.1614 104.967 28.1245C104.868 28.0874 104.76 28.0815 104.641 28.1067C104.513 28.1341 104.407 28.1907 104.325 28.2764C104.243 28.3609 104.186 28.4608 104.155 28.5761C104.125 28.6902 104.122 28.8078 104.146 28.9289L104.202 29.2053C104.234 29.3674 104.289 29.4995 104.367 29.6014C104.446 29.7032 104.541 29.7734 104.653 29.8121C104.765 29.8497 104.888 29.8543 105.021 29.8258C105.108 29.8073 105.184 29.7778 105.25 29.7373C105.316 29.6957 105.37 29.6436 105.412 29.5809C105.454 29.5182 105.48 29.446 105.493 29.3644L105.942 29.3525C105.933 29.4916 105.894 29.6201 105.824 29.7382C105.755 29.8551 105.659 29.9553 105.536 30.0387C105.413 30.1209 105.266 30.1803 105.095 30.2169ZM106.599 29.8445L106.113 27.4186L106.555 27.3243L106.632 27.7097L106.656 27.7045C106.673 27.5648 106.728 27.446 106.821 27.3482C106.915 27.2491 107.03 27.1849 107.168 27.1555C107.196 27.1494 107.23 27.1433 107.269 27.1371C107.31 27.1307 107.341 27.1267 107.364 27.1251L107.455 27.5768C107.435 27.5754 107.402 27.5766 107.354 27.5803C107.305 27.5829 107.258 27.5893 107.211 27.5993C107.103 27.6223 107.011 27.6666 106.936 27.732C106.862 27.7962 106.808 27.8751 106.776 27.9687C106.744 28.0613 106.738 28.1602 106.759 28.2655L107.056 29.747L106.599 29.8445ZM109.189 29.3426C108.958 29.392 108.748 29.3835 108.56 29.3171C108.374 29.2493 108.216 29.132 108.088 28.965C107.961 28.7967 107.872 28.5868 107.822 28.3351C107.772 28.0866 107.773 27.8581 107.824 27.6494C107.877 27.4405 107.974 27.2656 108.115 27.1246C108.256 26.9835 108.436 26.8896 108.654 26.8431C108.787 26.8148 108.92 26.81 109.053 26.8287C109.186 26.8475 109.312 26.8947 109.431 26.9705C109.549 27.0462 109.652 27.1554 109.74 27.298C109.828 27.4395 109.894 27.6203 109.938 27.8404L109.972 28.0078L108.105 28.4063L108.034 28.0525L109.453 27.7497C109.428 27.6254 109.381 27.5206 109.313 27.4352C109.245 27.3488 109.161 27.2872 109.061 27.2503C108.962 27.2132 108.854 27.2073 108.735 27.2325C108.607 27.2599 108.502 27.3165 108.419 27.4022C108.337 27.4867 108.28 27.5866 108.249 27.7019C108.219 27.816 108.216 27.9336 108.24 28.0547L108.296 28.331C108.328 28.4932 108.384 28.6252 108.461 28.7272C108.54 28.829 108.636 28.8992 108.747 28.9379C108.859 28.9755 108.982 28.9801 109.115 28.9516C109.202 28.9331 109.278 28.9036 109.345 28.8631C109.411 28.8215 109.464 28.7694 109.506 28.7067C109.548 28.644 109.575 28.5718 109.587 28.4901L110.036 28.4783C110.027 28.6173 109.988 28.7459 109.919 28.864C109.85 28.9809 109.753 29.081 109.63 29.1645C109.507 29.2467 109.36 29.3061 109.189 29.3426ZM111.582 28.83C111.392 28.8705 111.213 28.8566 111.044 28.7884C110.876 28.7188 110.731 28.5999 110.609 28.4316C110.488 28.262 110.401 28.0462 110.349 27.784C110.296 27.5218 110.294 27.2885 110.341 27.0841C110.389 26.8794 110.478 26.7118 110.607 26.581C110.735 26.4503 110.894 26.3648 111.083 26.3245C111.228 26.2934 111.351 26.2937 111.449 26.3253C111.549 26.3556 111.63 26.3987 111.692 26.4546C111.755 26.5103 111.806 26.5604 111.843 26.6051L111.871 26.5992L111.63 25.3973L112.087 25.2998L112.736 28.5343L112.289 28.6296L112.214 28.2521L112.175 28.2603C112.158 28.3177 112.13 28.3852 112.092 28.4626C112.054 28.5398 111.995 28.6128 111.915 28.6814C111.836 28.75 111.725 28.7996 111.582 28.83ZM111.602 28.4058C111.733 28.3777 111.837 28.3182 111.914 28.2272C111.991 28.135 112.04 28.0196 112.061 27.8812C112.083 27.7425 112.077 27.5879 112.043 27.4173C112.009 27.2488 111.956 27.1064 111.884 26.9901C111.812 26.8737 111.723 26.79 111.618 26.7388C111.514 26.6876 111.394 26.6763 111.261 26.7048C111.123 26.7342 111.016 26.7955 110.939 26.8888C110.862 26.9821 110.813 27.0974 110.792 27.2348C110.771 27.372 110.777 27.5206 110.809 27.6807C110.842 27.8428 110.895 27.9836 110.967 28.1031C111.04 28.2226 111.13 28.3105 111.237 28.3667C111.345 28.4217 111.466 28.4347 111.602 28.4058ZM113.316 25.0374L113.738 27.3502L113.314 27.4406L112.813 25.1448L113.316 25.0374ZM113.719 28.3555C113.635 28.3735 113.556 28.3585 113.484 28.3102C113.411 28.2609 113.367 28.1925 113.35 28.1049C113.332 28.0188 113.347 27.9388 113.395 27.8648C113.442 27.7899 113.509 27.7434 113.593 27.7253C113.676 27.7077 113.753 27.7235 113.826 27.7728C113.898 27.821 113.944 27.8882 113.962 27.9743C113.972 28.0325 113.968 28.0888 113.949 28.1433C113.931 28.1966 113.902 28.2423 113.862 28.2805C113.822 28.3187 113.774 28.3437 113.719 28.3555Z" fill="black"/>
</svg>
