<svg width="149" height="154" viewBox="0 0 149 154" fill="none" xmlns="http://www.w3.org/2000/svg">
<path d="M73.1788 38.7981C104.877 32.1441 119.34 39.4041 119.422 39.4456C119.321 39.4456 119.226 39.4568 119.137 39.4729C120.73 39.9029 122.348 40.4398 123.967 41.0872C130.636 43.7532 135.997 47.7449 139.126 51.9348C145.359 57.2448 147.73 67.442 148.522 72.1604C149.953 79.9911 148.149 86.8397 143.24 89.5686C142.922 89.7458 142.594 89.9014 142.261 90.0383C136.753 97.9233 137.863 108.92 141.511 115.849C145.192 122.842 145.58 128.864 133.373 141.49C121.166 154.115 92.2961 158.582 39.9815 148.287C-7.74697 138.895 -0.237927 105.494 1.44537 99.7092C1.73571 94.399 4.13879 87.9462 8.46198 81.9309C8.83324 81.4143 9.21135 80.9094 9.59674 80.4182C18.7463 64.8633 43.3146 45.0674 73.1788 38.7981Z" fill="#D9DCB9"/>
<path d="M17.2433 118.19H24.7291C25.6026 118.19 26.34 117.52 26.4501 116.625L28.054 103.603H13.9185L15.5224 116.625C15.6324 117.52 16.3698 118.19 17.2433 118.19Z" fill="#E6CFB0"/>
<path d="M13.9192 103.602C13.9192 103.742 14.3652 103.877 15.1304 103.989C16.4026 104.178 18.5526 104.299 20.989 104.299C23.0124 104.299 24.8338 104.217 26.12 104.081C27.3171 103.95 28.054 103.786 28.054 103.602C28.054 103.426 27.3922 103.267 26.3031 103.142C25.9229 103.098 25.4863 103.064 25.0121 103.025C24.9604 103.025 24.9088 103.019 24.8572 103.015C24.2938 102.981 23.6742 102.952 23.0124 102.933C22.3833 102.913 21.7166 102.905 21.0266 102.905H20.989C20.5242 102.905 20.069 102.909 19.6276 102.918C18.9469 102.928 18.2945 102.952 17.6981 102.981C17.5903 102.991 17.487 102.996 17.3837 103C16.5622 103.049 15.8486 103.112 15.2853 103.189C14.4263 103.305 13.9192 103.451 13.9192 103.602Z" fill="#DBD3E0"/>
<path d="M15.1348 103.989C16.407 104.178 18.557 104.299 20.9934 104.299C23.0167 104.299 24.8382 104.217 26.1244 104.081C26.1244 104.081 26.4905 103.558 26.3075 103.142C26.2747 103.059 26.2135 102.977 26.1244 102.905C25.7441 102.604 25.2606 102.856 25.0164 103.025C24.9226 103.093 24.8616 103.146 24.8616 103.146C24.8616 103.146 24.8616 103.098 24.8616 103.015C24.8522 102.619 24.7723 101.489 24.1526 101.746C23.6081 101.968 23.1999 102.598 23.0167 102.933C22.9463 103.059 22.9087 103.146 22.9087 103.146C22.9087 103.146 22.0449 102.905 21.031 102.905H20.9934C19.9606 102.913 19.9606 103.67 19.9606 103.67C19.9606 103.67 19.8292 103.32 19.6319 102.918C19.3315 102.303 18.8761 101.557 18.496 101.746C18.0217 101.979 17.787 102.667 17.7025 102.981C17.679 103.083 17.6649 103.146 17.6649 103.146C17.6649 103.146 17.5618 103.083 17.3881 103C17.0782 102.85 16.5337 102.633 15.9937 102.613C15.6182 102.604 15.407 102.879 15.2896 103.189C15.1535 103.538 15.1348 103.931 15.1348 103.989Z" fill="#FFBA5E"/>
<path d="M22.1015 105.811C23.7378 105.811 25.4527 105.683 25.5607 105.674C25.6253 105.669 25.6737 105.611 25.669 105.544C25.6643 105.478 25.6097 105.424 25.5433 105.433C25.5038 105.436 21.5411 105.733 19.8956 105.434C19.8332 105.422 19.7708 105.466 19.7598 105.533C19.7485 105.599 19.7912 105.661 19.8549 105.672C20.4263 105.775 21.2534 105.811 22.1015 105.811Z" fill="#FC97BC"/>
<path d="M27.2861 88.7556L31.7044 82.684L33.5443 86.0448L32.2929 88.7556H27.2861Z" fill="#E4E1EA"/>
<path d="M19.5967 91.3737C19.5967 91.3737 18.5711 97.6728 18.5154 97.7952C18.4125 98.0207 19.1025 102.081 19.5424 102.368C19.9838 102.655 20.1953 101.799 20.1953 101.799C20.1953 101.799 20.5938 102.729 20.9624 102.465C21.3323 102.203 21.8037 99.3799 21.8037 99.3799C21.8037 99.3799 25.5678 96.607 25.1207 92.9363C24.475 87.6307 19.5967 91.3737 19.5967 91.3737Z" fill="#FF9981"/>
<path d="M19.0663 101.575C19.1448 101.565 19.1905 101.504 19.1819 101.438L18.8277 98.5885C18.8192 98.5222 18.762 98.478 18.6964 98.4839C18.6321 98.4927 18.5864 98.5532 18.595 98.6195L18.9491 101.469C18.9563 101.529 19.0077 101.575 19.0663 101.575Z" fill="black"/>
<path d="M24.6224 95.5797C24.6224 95.5797 23.7598 98.7285 23.587 99.3536C23.4127 99.9786 23.2157 101.062 22.6173 100.719C22.0203 100.374 22.6815 96.8755 22.6815 96.8755L24.6224 95.5797Z" fill="#FF9981"/>
<path d="M22.8289 100.906C22.8861 100.906 22.9432 100.894 22.9975 100.87C23.3459 100.719 23.4988 100.127 23.6359 99.6056C23.6559 99.5289 23.6744 99.4552 23.6944 99.3874C23.8672 98.7609 24.7298 95.612 24.7298 95.612L24.5056 95.5457C24.5056 95.5457 23.6416 98.696 23.4688 99.3196C23.4488 99.3903 23.4288 99.4655 23.4088 99.5436C23.2988 99.9638 23.1488 100.542 22.9061 100.646C22.8389 100.676 22.7604 100.665 22.6704 100.612C22.3091 100.405 22.5233 98.3157 22.7918 96.899C22.8047 96.8326 22.7632 96.7693 22.699 96.756C22.6347 96.7442 22.5733 96.7869 22.5619 96.8518C22.449 97.4503 21.9163 100.456 22.5547 100.825C22.649 100.878 22.7418 100.906 22.8289 100.906Z" fill="black"/>
<path d="M20.1932 101.92C20.2732 101.91 20.3174 101.848 20.3089 101.781L19.9018 98.7403C19.8933 98.6739 19.8376 98.6327 19.769 98.6371C19.7047 98.6459 19.6605 98.7078 19.669 98.7727L20.0761 101.815C20.0846 101.876 20.1346 101.92 20.1932 101.92Z" fill="black"/>
<path d="M35.1349 106.185H89.0284C91.3477 106.185 93.2279 104.245 93.2279 101.851V71.9541C93.2279 69.5608 91.3477 67.6205 89.0284 67.6205H35.1349C32.815 67.6205 30.9351 69.5608 30.9351 71.9541V101.851C30.9351 104.245 32.815 106.185 35.1349 106.185Z" fill="#F3E1CA"/>
<path d="M28.0468 103.453V105.272C28.0468 105.75 28.1068 106.216 28.224 106.659C28.8154 108.911 30.8081 110.568 33.178 110.568H90.9751C93.3457 110.568 95.3419 108.911 95.9334 106.659C96.0503 106.216 96.1107 105.75 96.1107 105.272V103.453C96.1107 100.53 93.8125 98.158 90.9751 98.158H33.178C30.3453 98.158 28.0468 100.53 28.0468 103.453Z" fill="#D5BD99"/>
<path d="M91.519 116.995H91.7821C92.4279 116.995 92.9743 116.502 93.0607 115.841L93.9779 108.815H89.9367L90.2301 115.722C90.2604 116.434 90.8283 116.995 91.519 116.995Z" fill="#F3E1CA"/>
<path d="M32.6123 116.995H32.3481C31.7025 116.995 31.1555 116.502 31.0698 115.841L30.153 108.815H34.1947L33.9005 115.722C33.8705 116.434 33.3021 116.995 32.6123 116.995Z" fill="#F3E1CA"/>
<path d="M87.0989 93.5276C87.0989 97.2518 90.0488 100.271 93.6878 100.271C97.3268 100.271 100.277 97.2518 100.277 93.5276C100.277 89.8019 97.3268 86.7829 93.6878 86.7829C90.0488 86.7829 87.0989 89.8019 87.0989 93.5276Z" fill="#EFD9BE"/>
<path d="M72.0946 69.6382H88.622C88.6869 69.6382 88.7396 69.5839 88.7396 69.5173C88.7396 69.4508 88.6869 69.3966 88.622 69.3966H72.0946C72.0303 69.3966 71.9775 69.4508 71.9775 69.5173C71.9775 69.5839 72.0303 69.6382 72.0946 69.6382Z" fill="white"/>
<path d="M28.2274 106.659C28.8188 108.911 30.8116 110.568 33.1814 110.568H90.9786C93.3492 110.568 95.3453 108.911 95.9369 106.659H28.2274Z" fill="#F3E1CA"/>
<path d="M90.907 93.856C90.907 95.4407 92.1519 96.7247 93.6876 96.7247C95.2232 96.7247 96.4681 95.4407 96.4681 93.856C96.4681 92.2713 95.2232 90.9858 93.6876 90.9858C92.1519 90.9858 90.907 92.2713 90.907 93.856Z" fill="#D5BD99"/>
<path d="M52.6018 88.5464C52.6532 88.5464 52.6818 88.567 52.7004 88.5847C52.966 88.8545 52.7061 90.2181 52.4376 91.1999C52.2648 90.6294 51.9534 89.4176 52.2219 88.8368C52.2862 88.6982 52.379 88.6098 52.5033 88.5655C52.5433 88.5523 52.5761 88.5464 52.6018 88.5464ZM52.4519 91.8677L52.5404 91.5758C52.6204 91.306 53.3202 88.9223 52.8403 88.4373C52.7704 88.3665 52.6461 88.2973 52.439 88.3695C52.2633 88.4299 52.1291 88.5582 52.0406 88.7469C51.6464 89.596 52.3205 91.5006 52.349 91.5817L52.4519 91.8677Z" fill="#6876AA"/>
<path d="M38.1237 100.782C38.1237 101.952 43.8076 102.9 50.8186 102.9C57.831 102.9 63.515 101.952 63.515 100.782C63.515 99.6113 57.831 98.6634 50.8186 98.6634C43.8076 98.6634 38.1237 99.6113 38.1237 100.782Z" fill="#D5BD99"/>
<path d="M50.1186 87.989C50.1186 87.989 64.7634 77.0883 72.8387 77.8587C80.914 78.629 73.1386 100.188 73.1386 100.188L62.0965 97.5844L62.105 96.262L48.5387 98.4128L53.2056 88.7084L50.1186 87.989Z" fill="#E6CFB0"/>
<path d="M38.7156 94.8618C38.7156 94.8618 29.6175 79.9406 31.9945 74.3239C34.3701 68.7073 42.3311 69.685 42.3311 69.685L52.0247 87.2429L38.7156 94.8618Z" fill="#889782"/>
<path d="M66.9912 88.5614C67.0469 88.5614 67.0969 88.5201 67.1069 88.4612C67.1283 88.3359 67.6026 85.3981 65.9284 84.6043C64.2942 83.8308 57.4961 85.9296 57.2075 86.0194C57.1461 86.0388 57.1104 86.1059 57.1289 86.1703C57.1475 86.2341 57.2104 86.2725 57.2747 86.2511C57.3447 86.2294 64.2799 84.0853 65.8313 84.8248C67.3412 85.5405 66.8798 88.3919 66.8755 88.4199C66.8655 88.4862 66.9069 88.5481 66.9712 88.5599C66.9783 88.5614 66.9855 88.5614 66.9912 88.5614Z" fill="white"/>
<path d="M68.8845 89.1257C68.9374 89.1257 68.9859 89.0874 68.9988 89.0314C69.0545 88.7867 70.3401 83.0158 67.4503 82.1245C63.662 80.9521 55.0939 85.9992 54.7311 86.2144C54.6754 86.248 54.6554 86.3219 54.6882 86.38C54.7211 86.4377 54.7925 86.4568 54.8482 86.4245C54.9354 86.3726 63.6877 81.2157 67.3832 82.3564C70.0616 83.1828 68.7831 88.9179 68.7702 88.9754C68.7545 89.0417 68.7945 89.1066 68.8574 89.1213C68.8659 89.1243 68.8759 89.1257 68.8845 89.1257Z" fill="white"/>
<path d="M71.7209 89.9646C71.7738 89.9646 71.8224 89.9263 71.8352 89.8703C71.9024 89.5813 73.4308 82.7676 70.9753 80.4641C68.0397 77.7068 63.51 79.9435 63.4657 79.9664C63.4072 79.9957 63.3829 80.0679 63.4114 80.1281C63.44 80.1882 63.51 80.2132 63.5686 80.184C63.6129 80.1617 67.9997 77.9967 70.8181 80.6429C73.1708 82.8509 71.6238 89.7449 71.6067 89.8142C71.5924 89.8806 71.6309 89.9454 71.6938 89.9602C71.7038 89.9631 71.7124 89.9646 71.7209 89.9646Z" fill="white"/>
<path d="M74.2307 90.3966C74.2821 90.3966 74.3293 90.3612 74.3435 90.3082C74.3692 90.2153 76.7876 80.9746 72.1713 77.721C72.117 77.6827 72.0442 77.697 72.0085 77.7527C71.9714 77.8075 71.9856 77.8833 72.0385 77.9208C76.5169 81.0772 74.1422 90.1519 74.1179 90.2433C74.1008 90.3082 74.1365 90.3745 74.1993 90.3922C74.2093 90.3951 74.2207 90.3966 74.2307 90.3966Z" fill="white"/>
<path d="M65.064 86.4404C65.1097 86.4404 65.1525 86.4129 65.1725 86.3675C65.1796 86.3495 65.9309 84.5763 67.0877 83.1883C67.1305 83.1376 67.1248 83.0611 67.0763 83.0176C67.0263 82.9739 66.952 82.9801 66.9106 83.0302C65.7295 84.4472 64.964 86.2529 64.9569 86.2709C64.9312 86.3325 64.9583 86.404 65.0168 86.4304C65.0326 86.437 65.0483 86.4404 65.064 86.4404Z" fill="white"/>
<path d="M62.5134 102.485C62.9391 104.159 74.3227 105.029 74.7512 105.107C75.1783 105.187 78.4672 104.913 79.5452 104.301C80.3249 103.859 79.6652 101.109 78.918 100.329C78.1707 99.5481 75.9072 99.2621 75.9072 99.2621L68.8573 95.2553L61.9049 95.8995C61.9049 95.8995 62.2491 101.441 62.5134 102.485Z" fill="#FCA235"/>
<path d="M83.7367 104.147C85.4021 104.355 90.3651 93.7473 90.5937 93.364C90.822 92.9822 91.782 89.7258 91.6271 88.4653C91.5148 87.5552 88.7944 87.1791 87.8167 87.6099C86.8391 88.0408 85.7497 90.109 85.7497 90.109L79.5498 95.4042L77.5778 102.315C77.5778 102.315 82.6993 104.019 83.7367 104.147Z" fill="#FFAF45"/>
<path d="M41.6312 94.213C41.6412 94.213 41.6526 94.2115 41.6641 94.2086C41.7312 94.1894 41.7712 94.1187 41.7526 94.0494L41.347 92.4706C41.3299 92.4027 41.2613 92.3585 41.1928 92.3792C41.1257 92.3968 41.0857 92.4691 41.1028 92.5384L41.5084 94.1157C41.5241 94.1747 41.5755 94.213 41.6312 94.213Z" fill="#534579"/>
<path d="M53.6216 90.252C53.6944 90.249 53.7502 90.19 53.7473 90.1178L53.7059 88.4373C53.7045 88.3665 53.6473 88.3105 53.5788 88.3105C53.5059 88.312 53.4517 88.3724 53.4531 88.4432L53.4959 90.1237C53.4974 90.1945 53.5531 90.252 53.6216 90.252Z" fill="#534579"/>
<path d="M52.2687 91.297C52.3387 91.297 52.3958 91.238 52.3958 91.1658L52.3915 89.385C52.3915 89.3128 52.3344 89.2538 52.2659 89.2538C52.1959 89.2553 52.1388 89.3128 52.1388 89.385L52.1431 91.1673C52.1431 91.238 52.1988 91.297 52.2687 91.297Z" fill="#534579"/>
<path d="M38.0244 93.8722C38.0244 93.8722 39.7057 101.168 43.1698 102.316C46.6396 103.465 56.3804 99.2396 58.1117 99.0362C59.6102 98.8667 77.256 103.812 77.256 103.812L82.265 91.9587C82.265 91.9587 66.7126 86.6198 60.8487 85.3894C56.9532 84.5754 50.6765 87.0704 45.6911 89.5603C45.5825 89.6134 45.4754 89.6723 45.3668 89.7254C44.4883 90.1662 43.6583 90.6069 42.8927 91.0241C42.817 91.0625 42.747 91.1067 42.6727 91.145C39.9072 92.6604 38.0244 93.8722 38.0244 93.8722Z" fill="#E6CFB0"/>
<path d="M42.6661 91.1456C43.5946 92.0271 45.8302 93.9701 47.2758 93.9789C48.83 93.9789 55.631 92.3131 58.908 91.5127C59.5236 91.3638 60.0208 91.2414 60.345 91.1648C62.3492 90.6798 79.6718 96.8373 79.8454 96.9007C79.8595 96.9052 79.8737 96.9052 79.8877 96.9052C79.9345 96.9052 79.9817 96.8712 79.9957 96.8226C80.0191 96.7607 79.9863 96.6929 79.9253 96.6678C79.207 96.4157 62.3535 90.438 60.2936 90.9274C59.9693 91.0041 59.4722 91.1264 58.8523 91.2768C55.5896 92.0758 48.8014 93.7372 47.2844 93.7372C45.9516 93.7269 43.8303 91.9063 42.8861 91.0247C42.8104 91.063 42.7404 91.1073 42.6661 91.1456Z" fill="white"/>
<path d="M45.3671 89.7255C46.3099 89.982 47.9112 90.3889 48.8826 90.3992C49.9154 90.3992 54.6008 89.469 58.0235 88.7953C59.5119 88.499 60.689 88.2675 61.1261 88.1997C61.149 88.1938 61.1833 88.1894 61.2147 88.1894C62.7689 88.1894 74.791 92.09 81.0635 94.1966C81.0728 94.201 81.0869 94.201 81.0962 94.201C81.148 94.201 81.1949 94.173 81.2089 94.12C81.2277 94.0566 81.1949 93.9888 81.1339 93.9696C80.3734 93.7116 62.5532 87.7342 61.0933 87.9565C60.6476 88.0302 59.4691 88.2616 57.9806 88.5579C54.7565 89.1918 49.8925 90.1559 48.8969 90.1559C48.0283 90.1471 46.6342 89.8125 45.6914 89.5604C45.5828 89.6135 45.4757 89.6724 45.3671 89.7255Z" fill="white"/>
<path d="M59.6226 96.1192C59.6454 96.1192 59.6697 96.1192 59.6926 96.1222C59.9482 96.1428 59.9882 96.2504 60.0011 96.2858C60.161 96.7192 59.2556 97.9413 58.5415 98.7417C58.5358 98.1639 58.5858 96.8696 59.1042 96.3418C59.2498 96.1929 59.4212 96.1192 59.6226 96.1192ZM58.4315 99.1589C58.4629 99.1589 58.4943 99.1457 58.5158 99.1221C58.72 98.9039 60.5038 96.9728 60.221 96.2003C60.1496 96.0086 59.9782 95.901 59.7111 95.8804C59.4069 95.8553 59.1499 95.9541 58.9385 96.1693C58.1902 96.9329 58.3101 98.9599 58.3144 99.0454C58.3173 99.0941 58.3472 99.1353 58.3915 99.1516C58.4044 99.156 58.4187 99.1589 58.4315 99.1589Z" fill="white"/>
<path d="M24.807 93.9137C24.807 97.4841 27.6111 100.378 31.0709 100.378C34.5292 100.378 37.3333 97.4841 37.3333 93.9137C37.3333 90.3448 34.5292 87.4511 31.0709 87.4511C27.6111 87.4511 24.807 90.3448 24.807 93.9137Z" fill="#EFD9BE"/>
<path d="M28.2937 93.9135C28.2937 95.4982 29.5394 96.7837 31.075 96.7837C32.6106 96.7837 33.8548 95.4982 33.8548 93.9135C33.8548 92.3288 32.6106 91.0448 31.075 91.0448C29.5394 91.0448 28.2937 92.3288 28.2937 93.9135Z" fill="#D5BD99"/>
<path d="M35.0169 70.5656C35.0169 70.5656 28.8101 73.7576 24.9475 78.3132C21.0848 82.8688 18.6221 91.2897 18.6221 91.2897L26.136 93.1604C26.136 93.1604 31.4099 83.2562 34.2441 83.0668C42.6793 82.5028 35.0169 70.5656 35.0169 70.5656Z" fill="#889782"/>
<path d="M47.799 65.1064L48.3702 66.7788C48.3702 66.7788 48.3502 70.0925 49.4442 70.6491C50.5396 71.2055 51.288 69.4922 51.288 69.4922L52.1263 65.454L49.9212 65.3196C49.9212 65.3196 47.2263 63.4341 47.799 65.1064Z" fill="#FF9981"/>
<path d="M50.9959 67.3397L48.151 67.55C47.8482 67.5724 47.5855 67.3372 47.564 67.0243L47.1427 60.9558C47.1199 60.643 47.3484 60.3713 47.6512 60.3487L50.4975 60.1385C50.8003 60.116 51.063 60.3515 51.0845 60.6642L51.5058 66.7328C51.5272 67.0456 51.3001 67.3173 50.9959 67.3397Z" fill="#50447E"/>
<path d="M50.5599 67.3723L47.7135 67.5826C47.4107 67.605 47.148 67.3696 47.1265 67.0569L46.7052 60.9883C46.6824 60.6756 46.9109 60.4039 47.2136 60.3815L50.06 60.171C50.3628 60.1487 50.6255 60.3841 50.647 60.6968L51.0683 66.7654C51.0897 67.0782 50.8626 67.35 50.5599 67.3723Z" fill="#D68C34"/>
<path d="M50.4401 60.728C50.4493 60.8803 50.3612 61.0117 50.2435 61.0214C50.1258 61.0311 50.0222 60.9155 50.0131 60.7632C50.0032 60.6108 50.0913 60.4795 50.209 60.4697C50.3274 60.46 50.4302 60.5756 50.4401 60.728Z" fill="#50447E"/>
<path d="M49.7936 60.728C49.8028 60.8803 49.7147 61.0117 49.597 61.0214C49.4793 61.0311 49.3757 60.9155 49.3666 60.7632C49.3567 60.6108 49.4448 60.4795 49.5625 60.4697C49.6809 60.46 49.7838 60.5756 49.7936 60.728Z" fill="#50447E"/>
<path d="M50.1198 61.2806C50.129 61.4329 50.0409 61.5643 49.9232 61.574C49.8055 61.5838 49.7019 61.4681 49.6928 61.3158C49.6829 61.1634 49.771 61.0321 49.8887 61.0223C50.007 61.0126 50.1099 61.1282 50.1198 61.2806Z" fill="#50447E"/>
<path d="M53.5228 65.958C53.5228 65.958 51.9904 71.4426 50.8493 70.9306C49.7082 70.4185 49.0126 67.276 50.9207 66.2297C52.8287 65.1831 53.5228 65.958 53.5228 65.958Z" fill="#FF9981"/>
<path d="M52.8339 65.1827C52.8339 65.1827 54.5149 65.0296 54.0193 64.2195C53.5237 63.4095 50.5003 62.9469 50.1532 63.8728C49.8062 64.7987 52.8339 65.1827 52.8339 65.1827Z" fill="#FF9981"/>
<path d="M52.604 66.6078C52.604 66.6078 54.2864 66.4543 53.7908 65.6443C53.2953 64.8342 50.2718 64.3718 49.9248 65.2977C49.5763 66.2235 52.604 66.6078 52.604 66.6078Z" fill="#FF9981"/>
<path d="M51.605 67.7773C51.962 67.9103 52.3476 67.9597 52.7204 67.8858C53.0531 67.8199 53.3473 67.6561 53.1902 67.2645C52.876 66.4808 50.3068 65.6069 49.8683 66.3602C49.5427 66.9219 50.8952 67.5129 51.605 67.7773Z" fill="#FF9981"/>
<path d="M53.1166 65.2596C53.1737 65.2596 53.2237 65.2175 53.2323 65.1579C53.2423 65.0922 53.1994 65.0297 53.1352 65.0188L51.0686 64.6722C51.0001 64.6626 50.9444 64.7065 50.9344 64.7723C50.9244 64.8382 50.9672 64.9005 51.0315 64.9114L53.098 65.2582C53.1037 65.2592 53.1109 65.2596 53.1166 65.2596Z" fill="black"/>
<path d="M53.0554 66.7892C53.1083 66.7892 53.1554 66.7532 53.1697 66.6988C53.1854 66.6339 53.1468 66.5678 53.0854 66.5507L50.5804 65.8756C50.5147 65.8605 50.4533 65.8978 50.4362 65.9622C50.4204 66.0269 50.4576 66.0932 50.5204 66.1102L53.0254 66.7853C53.0354 66.7877 53.0454 66.7892 53.0554 66.7892Z" fill="black"/>
<path d="M54.1004 69.6194L48.2679 68.6057L47.2765 74.1558L47.0551 73.8366C45.8309 72.0731 44.2053 70.6473 42.3211 69.6847L46.2337 84.0514C46.2337 84.0514 49.9078 85.8188 53.0519 84.0514C56.196 82.2837 54.1004 69.6194 54.1004 69.6194Z" fill="#889782"/>
<path d="M50.5946 84.7828C50.6146 84.7828 50.636 84.7775 50.6546 84.7662C50.7103 84.7323 50.7289 84.658 50.696 84.6002L48.1139 80.0698C48.081 80.012 48.0096 79.9927 47.9525 80.0267C47.8968 80.0608 47.8782 80.1351 47.9111 80.1929L50.4932 84.7231C50.5161 84.7615 50.5546 84.7828 50.5946 84.7828Z" fill="#372718"/>
<path d="M47.3962 74.7102C47.6904 75.4327 47.856 76.1291 47.6589 76.2432C47.5204 76.2104 47.4162 75.5322 47.3962 74.7102ZM47.6404 76.4924C47.6846 76.4924 47.7289 76.4796 47.7732 76.4541C48.3345 76.1299 47.5461 74.4377 47.3819 74.1018C47.3576 74.0518 47.3019 74.0272 47.2519 74.0379C47.1991 74.0503 47.1619 74.0981 47.1605 74.1534C47.1505 74.6356 47.1462 76.2256 47.519 76.4565C47.5561 76.4806 47.599 76.4924 47.6404 76.4924Z" fill="#372718"/>
<path d="M33.807 81.6907C33.8127 81.6907 33.8241 81.6946 33.8441 81.7098C34.0798 81.8989 33.767 82.6289 33.3899 83.2511C33.4756 82.4903 33.6356 81.7678 33.7984 81.6928C33.7998 81.6922 33.8027 81.6907 33.807 81.6907ZM33.2286 83.8345C33.2657 83.8345 33.3014 83.8165 33.3243 83.7848C33.5342 83.4863 34.5568 81.9742 33.9869 81.5186C33.8641 81.4192 33.757 81.4468 33.7027 81.4718C33.2886 81.6624 33.1457 83.2289 33.1115 83.7043C33.1072 83.7583 33.14 83.8084 33.1886 83.8268C33.2014 83.832 33.2157 83.8345 33.2286 83.8345Z" fill="#372718"/>
<path d="M34.7183 68.6321L35.1553 71.4609C35.1553 71.4609 35.7752 72.1927 37.399 72.0633C38.6086 71.9667 38.9857 71.619 38.9857 71.619L38.5972 70.2136L38.2173 68.8434L35.221 68.6631L34.7183 68.6321Z" fill="#FF9981"/>
<path d="M35.2189 68.6628C35.2374 68.7388 35.2803 68.8253 35.3403 68.9227C36.1729 70.2346 37.8953 70.2632 38.5951 70.2134L38.2152 68.8431L35.2189 68.6628Z" fill="black"/>
<path d="M37.8352 62.2949C37.8352 62.2949 39.8222 65.6048 39.5594 67.6688C39.298 69.7328 37.5024 69.6801 36.401 69.4521C35.2997 69.224 34.7211 68.6329 34.7211 68.6329C34.7211 68.6329 33.7898 69.1205 33.0041 68.2783C32.2184 67.436 32.4713 66.2972 32.9955 65.967C33.5198 65.637 34.2426 65.9549 34.2426 65.9549L33.5783 65.0057C33.5783 65.0057 35.044 59.4646 37.8352 62.2949Z" fill="#FF9981"/>
<path d="M38.2834 66.8145C38.3405 66.8145 38.3905 66.7723 38.4005 66.7132C38.5262 65.9217 37.9064 65.2234 37.8792 65.1941C37.8364 65.145 37.7607 65.142 37.7136 65.1879C37.6664 65.2333 37.6636 65.3099 37.7079 65.3587C37.7136 65.3653 38.2763 66.0007 38.1677 66.6734C38.1577 66.7396 38.2006 66.8016 38.2649 66.813C38.2706 66.814 38.2777 66.8145 38.2834 66.8145Z" fill="black"/>
<path d="M34.2971 67.6411C34.3313 67.6411 34.3642 67.6256 34.387 67.5961C34.4285 67.5443 34.4199 67.4676 34.3699 67.4259L33.3045 66.5398C33.2531 66.4982 33.1802 66.5063 33.1402 66.5579C33.0988 66.6098 33.1074 66.6866 33.1574 66.7282L34.2228 67.6143C34.2442 67.6323 34.2699 67.6411 34.2971 67.6411Z" fill="black"/>
<path d="M33.2752 67.5082C33.2867 67.5082 33.2967 67.5067 33.3081 67.5035L33.9379 67.3118C34.0008 67.2928 34.0365 67.2253 34.0179 67.1613C33.9993 67.097 33.9336 67.0606 33.8722 67.0791L33.2424 67.2707C33.1796 67.2896 33.1439 67.3571 33.1624 67.4211C33.1767 67.474 33.2238 67.5082 33.2752 67.5082Z" fill="black"/>
<path d="M36.1959 65.2769C36.1951 65.2887 36.1956 65.2991 36.1975 65.3096C36.2098 65.3756 36.2709 65.4189 36.3343 65.4062L36.9723 65.2824C37.0364 65.2682 37.0777 65.208 37.0661 65.1405C37.0541 65.0745 36.9931 65.0312 36.9295 65.0439L36.2913 65.1677C36.2377 65.1782 36.1999 65.224 36.1959 65.2769Z" fill="black"/>
<path d="M38.7785 64.837C38.7806 64.8254 38.7813 64.8135 38.7801 64.8028C38.7735 64.7356 38.7162 64.687 38.6518 64.6941L38.0056 64.7585C37.9405 64.7655 37.8931 64.8269 37.8999 64.8912C37.9065 64.9584 37.9638 65.0069 38.0282 64.9998L38.6744 64.9354C38.7278 64.9292 38.7694 64.8877 38.7785 64.837Z" fill="black"/>
<path d="M35.9537 64.5712C36.0008 64.5712 36.0451 64.5418 36.0636 64.4935C36.1836 64.1699 36.6049 64.2087 36.6221 64.2101C36.6863 64.2159 36.7449 64.1686 36.7506 64.1016C36.7577 64.0355 36.7106 63.9759 36.6463 63.9688C36.6221 63.966 36.0294 63.9078 35.8437 64.4065C35.8209 64.469 35.8508 64.5389 35.9108 64.5631C35.9251 64.5687 35.9394 64.5712 35.9537 64.5712Z" fill="black"/>
<path d="M38.3979 63.955C38.4279 63.955 38.4579 63.9432 38.4807 63.9194C38.5264 63.8717 38.5264 63.795 38.4807 63.7483C38.4721 63.7388 38.2636 63.5335 38.0051 63.5372C37.8666 63.5423 37.7438 63.6072 37.6409 63.7303C37.5981 63.7804 37.6024 63.8569 37.6524 63.901C37.6995 63.9445 37.7738 63.9398 37.8166 63.8892C37.878 63.8179 37.9423 63.7819 38.0137 63.7795C38.1736 63.7789 38.3136 63.918 38.315 63.9194C38.3379 63.9432 38.3679 63.955 38.3979 63.955Z" fill="black"/>
<path d="M34.6011 66.1467C34.6011 66.1467 35.4439 65.3673 35.2568 64.3919C35.0711 63.4164 34.8282 63.1951 34.8282 63.1951C34.8282 63.1951 35.9053 62.9839 36.761 62.5562C37.3181 62.2776 37.5409 62.026 37.5409 62.026L37.8323 62.2952C38.1037 62.2437 38.5023 60.4433 38.0509 60.1973C37.5981 59.9514 35.4982 61.0563 35.4982 61.0563C35.4982 61.0563 33.0997 60.8204 31.9684 62.7169C30.8385 64.6134 32.6241 66.4066 32.6241 66.4066C32.6241 66.4066 32.9098 65.471 34.6011 66.1467Z" fill="black"/>
<path d="M37.8397 72.0978C37.8226 72.0978 37.8055 72.1015 37.7897 72.1091C37.7483 72.1286 37.7226 72.1706 37.7226 72.2169C37.7212 72.2691 37.6912 73.4934 36.8569 73.4934C36.2213 73.4901 35.5156 72.4389 35.167 71.8012C37.3026 72.4993 38.8683 71.7367 39.2982 71.485C39.5111 71.9795 39.7582 72.727 39.6353 72.958C39.6211 72.9877 39.5996 73.0019 39.5654 73.0066C39.1411 73.0634 38.2297 72.3901 37.9126 72.1248C37.8926 72.1072 37.8655 72.0978 37.8397 72.0978ZM36.8584 73.7357C37.5955 73.7357 37.874 72.9933 37.9397 72.4536C38.304 72.7359 39.1182 73.3075 39.5968 73.247C39.7053 73.2313 39.791 73.1717 39.8425 73.0734C40.0682 72.6428 39.5611 71.4869 39.4568 71.2599C39.4425 71.2277 39.4154 71.204 39.3825 71.1947C39.3496 71.1856 39.3139 71.1918 39.2854 71.2106C39.2682 71.2226 37.4683 72.4246 34.9656 71.4738C34.9199 71.4562 34.8685 71.4695 34.8371 71.5063C34.8056 71.5428 34.7985 71.5963 34.8199 71.6408C34.8599 71.7258 35.8256 73.73 36.8512 73.7357C36.8541 73.7357 36.8555 73.7357 36.8584 73.7357Z" fill="#372718"/>
<path d="M54.3129 71.1499C54.3672 71.1499 54.4157 71.1114 54.4286 71.0547C54.4415 70.9895 54.4015 70.9247 54.3386 70.9105L48.1218 69.5011C48.0547 69.4879 47.9947 69.528 47.9819 69.5933C47.9676 69.6586 48.0076 69.7235 48.0704 69.7377L54.2886 71.147C54.2972 71.1489 54.3058 71.1499 54.3129 71.1499Z" fill="#372718"/>
<path d="M26.8275 92.0374C26.8775 92.0374 26.9232 92.0049 26.939 91.9533C26.959 91.8899 26.9247 91.8221 26.8633 91.8015L19.2809 89.2703C19.2194 89.2512 19.1523 89.2851 19.1337 89.3485C19.1137 89.4119 19.148 89.4797 19.2094 89.5003L26.7918 92.0315C26.8033 92.0359 26.8161 92.0374 26.8275 92.0374Z" fill="#372718"/>
<path d="M39.8802 95.702C40.4243 95.702 40.8714 95.5222 41.2098 95.1669C41.9939 94.3458 41.9253 92.8893 41.9225 92.8289C41.9182 92.764 41.8668 92.7139 41.8039 92.7139C41.734 92.7183 41.684 92.7743 41.6868 92.8421C41.6883 92.8554 41.7525 94.2529 41.0427 94.9974C40.73 95.3246 40.3058 95.4794 39.786 95.4588C39.7188 95.4558 39.6674 95.5074 39.6646 95.5752C39.6617 95.6416 39.7117 95.6976 39.7774 95.7006C39.8117 95.702 39.8459 95.702 39.8802 95.702Z" fill="white"/>
<path d="M77.7256 101.92C77.7772 101.92 77.8243 101.885 77.8389 101.83C77.856 101.767 77.8192 101.699 77.7569 101.681L60.078 96.6676C60.0123 96.6499 59.9494 96.6882 59.9337 96.7516C59.9166 96.8165 59.9523 96.8828 60.0152 96.9005L77.6945 101.916C77.7049 101.919 77.7152 101.92 77.7256 101.92Z" fill="white"/>
<path d="M44.6748 99.8104C46.8432 99.8104 58.2639 96.9653 58.7511 96.8429C58.8139 96.8282 58.8525 96.7619 58.8382 96.697C58.8225 96.6321 58.7582 96.5909 58.6953 96.6071C58.5768 96.638 46.8175 99.5687 44.6762 99.5687C44.6676 99.5687 44.6605 99.5687 44.6519 99.5687C42.6406 99.5451 40.9236 95.3437 40.9064 95.301C40.8807 95.239 40.8121 95.2096 40.7536 95.2361C40.6936 95.2612 40.665 95.3319 40.6893 95.3938C40.7621 95.5737 42.4849 99.7868 44.6491 99.8104C44.6576 99.8104 44.6662 99.8104 44.6748 99.8104Z" fill="white"/>
<path d="M78.8391 99.4122C78.8901 99.4122 78.9368 99.3783 78.9515 99.3253C78.97 99.2604 78.9343 99.1941 78.8721 99.1749C78.1627 98.9597 61.4825 93.9136 60.154 93.7942C59.4397 93.7382 56.0942 94.4812 52.5544 95.2772C49.546 95.9538 46.4362 96.6541 45.6634 96.6629C44.0921 96.6629 41.9279 93.262 41.9065 93.2266C41.8708 93.1706 41.798 93.1559 41.7437 93.1913C41.6894 93.2281 41.6737 93.3033 41.7094 93.3593C41.8008 93.5053 43.9664 96.9047 45.652 96.9047C46.4634 96.8958 49.4461 96.2251 52.6044 95.5145C55.9714 94.7568 59.4554 93.9652 60.1325 94.0345C61.4396 94.1524 78.6326 99.3547 78.8061 99.4078C78.8171 99.4108 78.8281 99.4122 78.8391 99.4122Z" fill="white"/>
<path d="M36.8861 67.8429C37.2472 67.2758 38.4254 67.218 39.0525 67.8429" stroke="black" stroke-width="0.223456"/>
<path d="M109.775 70.0438C108.637 65.7689 110.219 63.9227 114.685 63.5667C119.15 63.2104 121.912 64.506 121.535 67.0645C121.158 69.6229 118.953 71.2424 118.953 71.2424L109.775 70.0438Z" fill="#E6CFB0"/>
<path d="M111.063 69.4447C110.18 66.129 111.407 64.6974 114.87 64.421C118.333 64.1446 120.475 65.1493 120.183 67.1337C119.891 69.1181 118.181 70.3739 118.181 70.3739L111.063 69.4447Z" fill="#D5BD99"/>
<path d="M117.833 66.8538V93.7496H110.316L110.435 90.9175L110.464 90.2521L110.609 86.8042L110.638 86.1391L110.783 82.6909L110.81 82.0258L110.958 78.5776L110.984 77.9125L111.129 74.4643L111.158 73.7992L111.304 70.351L111.333 69.6859L111.401 68.0477L112.358 67.6116L113.229 67.2136L116.674 66.4803L117.833 66.8538Z" fill="#889782"/>
<path d="M117.832 69.6862V70.3513H111.302L111.331 69.6862H117.832Z" fill="white"/>
<path d="M117.838 73.7992V74.4643H111.134L111.163 73.7992H117.838Z" fill="white"/>
<path d="M117.838 77.9127V78.5778H110.962L110.989 77.9127H117.838Z" fill="white"/>
<path d="M117.836 82.0256V82.6907H110.787L110.813 82.0256H117.836Z" fill="white"/>
<path d="M117.839 86.1396V86.8047H110.615L110.644 86.1396H117.839Z" fill="white"/>
<path d="M117.835 90.252V90.9173H110.437L110.466 90.252H117.835Z" fill="white"/>
<path d="M104.789 86.254C105.206 87.5352 106.965 91.2995 107.034 92.1964C107.111 93.2158 104.652 95.9362 103.851 95.451C103.299 95.1157 101.474 91.7112 100.483 89.1979C100.037 88.064 99.7624 87.1127 99.8495 86.7065C99.8997 86.483 100.061 85.9078 100.309 85.101C101.503 81.2085 104.712 71.8943 107.034 70.0435L108.466 78.5453C108.466 78.5453 107.689 79.9383 106.839 81.5165C106.358 82.4079 105.856 83.3592 105.457 84.1469C105.378 84.3023 105.301 84.455 105.233 84.5967C104.91 85.2564 104.699 85.7416 104.699 85.8806C104.699 85.9487 104.731 86.0768 104.786 86.2486C104.789 86.2513 104.789 86.254 104.789 86.254Z" fill="#E6CFB0"/>
<path d="M107.604 101.535C107.604 101.535 106.392 101.856 106.017 101.327C105.639 100.799 105.291 98.4134 105.291 98.4134C105.291 98.4134 104.913 98.2199 104.63 96.8352C104.348 95.4504 104.184 93.4333 105.407 92.681C106.173 91.7024 107.385 92.2203 107.385 92.2203L107.427 93.9894L107.604 101.535Z" fill="#FF9981"/>
<path d="M108.695 101.976L111.951 100.092C112.297 99.891 112.421 99.4395 112.226 99.0824L108.455 92.1398C108.26 91.7826 107.821 91.6552 107.475 91.8562L104.219 93.7397C103.872 93.9407 103.749 94.3922 103.944 94.7512L107.716 101.691C107.909 102.049 108.348 102.177 108.695 101.976Z" fill="#50447E"/>
<path d="M109.184 101.69L112.438 99.8066C112.785 99.6056 112.908 99.1522 112.713 98.795L108.942 91.8524C108.747 91.4952 108.308 91.3678 107.962 91.5688L104.708 93.4519C104.36 93.6533 104.238 94.1063 104.431 94.4639L108.203 101.404C108.399 101.763 108.836 101.891 109.184 101.69Z" fill="#889782"/>
<path d="M104.793 94.7081C104.964 95.0252 105.325 95.1542 105.598 94.9951C105.873 94.8376 105.955 94.4525 105.782 94.1358C105.611 93.8187 105.25 93.6916 104.975 93.8492C104.703 94.0083 104.62 94.3933 104.793 94.7081Z" fill="#50447E"/>
<path d="M106.977 70.0007L111.467 67.9913L110.351 93.8782H106.562L106.977 70.0007Z" fill="#E6CFB0"/>
<path d="M122.95 68.4895V93.7498H117.833V66.854L118.169 66.9603L122.95 68.4895Z" fill="#E6CFB0"/>
<path d="M122.95 77.9153V93.7497H117.833V84.9916C119.495 81.7396 120.926 78.2396 121.257 75.3557L122.95 77.9153Z" fill="#D5BD99"/>
<path d="M106.843 75.6558V81.5163C106.362 82.4077 105.861 83.359 105.462 84.1467C105.264 81.0284 106.843 75.6558 106.843 75.6558Z" fill="#D5BD99"/>
<path d="M104.702 85.8803C104.702 85.9484 104.734 86.0766 104.789 86.2483C104.721 86.1556 103.619 84.6291 103.588 83.9695C103.567 83.5115 104.578 84.1385 105.236 84.5964C104.913 85.2561 104.702 85.7413 104.702 85.8803Z" fill="#D5BD99"/>
<path d="M100.483 89.1975C100.037 88.0636 99.7624 87.1123 99.8495 86.7061C99.8997 86.4826 100.061 85.9074 100.309 85.1006C100.636 85.5231 100.882 86.0901 100.985 86.7334C101.141 87.7119 100.93 88.6306 100.483 89.1975Z" fill="#D5BD99"/>
<path d="M109.962 69.4926V77.0063" stroke="white" stroke-width="0.223456" stroke-miterlimit="10" stroke-linecap="round" stroke-linejoin="round"/>
<path d="M119.121 69.4926V77.0063" stroke="white" stroke-width="0.223456" stroke-miterlimit="10" stroke-linecap="round" stroke-linejoin="round"/>
<path d="M128.301 135.912H122.981C122.981 135.912 119.262 123.038 118.556 120.17C117.849 117.306 116.404 112.789 116.404 112.789L116.224 116.946L116.203 117.404C116.861 120.462 115.685 136.446 115.685 136.446H109.785L108.641 120.438L108.186 114.065L106.757 94.0296L106.742 93.7925H123.06C123.242 94.5448 123.459 96.0113 123.678 97.7695C124.301 102.706 124.959 109.921 124.959 109.921C124.959 109.921 125.804 112.497 126.84 118.472C127.878 124.447 128.301 135.912 128.301 135.912Z" fill="#E6CFB0"/>
<path d="M123.678 97.7695C121.293 98.3228 117.521 99.991 117.521 99.991L113.807 98.4564C113.807 98.4564 115.339 95.6379 114.975 94.861C114.637 94.1414 110.659 93.9506 106.757 94.0296L106.742 93.7925H123.06C123.242 94.5448 123.459 96.0113 123.678 97.7695Z" fill="#D5BD99"/>
<path d="M116.408 112.789L116.228 116.946C115.148 112.418 113.155 106.056 113.619 103.605L116.408 112.789Z" fill="#D5BD99"/>
<path d="M121.178 116.885C121.52 118.657 121.095 120.237 120.228 120.416C119.362 120.594 118.382 119.302 118.04 117.531C117.697 115.759 118.123 114.178 118.989 114C119.856 113.822 120.836 115.113 121.178 116.885Z" fill="#D5BD99"/>
<path d="M108.942 120.473C108.841 120.478 108.741 120.468 108.643 120.438L108.189 114.065C108.31 113.991 108.437 113.95 108.572 113.942C109.454 113.89 110.251 115.31 110.354 117.112C110.455 118.917 109.824 120.421 108.942 120.473Z" fill="#D5BD99"/>
<path d="M110.376 137.054L105.333 139.406C104.949 139.585 104.702 139.98 104.702 140.415C104.702 141.026 105.183 141.522 105.775 141.522H114.967C115.654 141.522 116.164 140.865 116.014 140.174L115.318 136.956H110.818C110.666 136.955 110.515 136.989 110.376 137.054Z" fill="#473533"/>
<path d="M115.64 137.392H109.52C109.299 137.392 109.12 137.208 109.12 136.979V136.154C109.12 135.925 109.299 135.741 109.52 135.741H115.64C115.861 135.741 116.04 135.925 116.04 136.154V136.979C116.04 137.208 115.861 137.392 115.64 137.392Z" fill="#D5BD99"/>
<path d="M123.202 137.054L118.16 139.406C117.776 139.585 117.529 139.98 117.529 140.415C117.529 141.026 118.009 141.522 118.602 141.522H127.794C128.48 141.522 128.99 140.865 128.841 140.174L128.144 136.956H123.644C123.492 136.955 123.341 136.989 123.202 137.054Z" fill="#473533"/>
<path d="M128.585 137.392H122.466C122.245 137.392 122.066 137.208 122.066 136.979V136.153C122.066 135.925 122.245 135.74 122.466 135.74H128.585C128.806 135.74 128.985 135.925 128.985 136.153V136.979C128.985 137.208 128.806 137.392 128.585 137.392Z" fill="#D5BD99"/>
<path d="M116.434 63.8435C118.578 64.1597 118.969 62.2702 119.214 61.1831C119.458 60.0963 120.767 57.7227 120.367 56.6296C119.967 55.5365 119.064 55.9495 119.064 55.9495C119.064 55.9495 119.967 54.3464 119.308 52.7919C118.649 51.2373 117.378 51.0915 115.212 51.5287C113.047 51.966 108.387 51.9902 107.328 51.2373C106.268 50.4845 105.774 52.4762 106.551 53.5205C107.328 54.565 108.693 55.2451 108.693 55.2451C108.693 55.2451 107.563 54.8079 107.304 55.3422C107.045 55.8764 107.257 57.2124 109.775 57.7954C112.294 58.3785 113.871 59.3985 113.871 59.3985L116.434 63.8435Z" fill="#473533"/>
<path d="M117.416 67.2531C117.416 67.2531 117.236 68.2072 115.385 68.6924C113.536 69.1776 113.113 68.2399 113.113 68.2399L112.965 67.2558L112.677 65.3259L117.107 62.4148L117.115 62.4093C117.112 62.4175 117.107 62.4284 117.104 62.4366C117.054 62.5592 117.025 62.7419 117.012 62.9626V62.9654C116.925 64.3446 117.416 67.2531 117.416 67.2531Z" fill="#FF9981"/>
<path d="M117.106 62.4149C117.106 62.4204 117.103 62.4285 117.103 62.4367C117.085 62.573 117.056 62.7529 117.011 62.9628V62.9655C116.734 64.2494 115.836 66.659 112.965 67.256L112.677 65.3261L117.106 62.4149Z" fill="#EA7257"/>
<path d="M109.731 56.7914C109.15 58.265 109.746 59.2365 109.731 60.0785C109.715 60.9205 109.119 65.8755 112.304 66.0374C115.489 66.1993 117.906 61.811 117.906 61.811L118.173 61.4872C118.173 61.4872 118.361 62.2158 119.432 61.7301C120.503 61.2443 120.15 59.3738 119.373 59.2525C118.596 59.131 117.478 60.7343 117.478 60.7343L116.612 57.2687C116.612 57.2687 112.885 57.8763 109.731 56.7914Z" fill="#FF9981"/>
<path d="M119.51 60.573C119.593 60.0739 119.372 59.9491 119.127 59.9777C118.881 60.0063 118.315 60.8977 118.757 61.1828" stroke="#EA7257" stroke-width="0.196798" stroke-miterlimit="10" stroke-linecap="round" stroke-linejoin="round"/>
<path d="M112.146 60.2848V61.1827L111.812 61.5278C111.679 61.6649 111.773 61.8996 111.961 61.8996H112.488" stroke="#EA7257" stroke-width="0.196798" stroke-miterlimit="10" stroke-linecap="round" stroke-linejoin="round"/>
<path d="M111.187 63.5439C111.187 63.5439 112.641 63.9402 113.569 63.2186" stroke="#EA7257" stroke-width="0.196798" stroke-miterlimit="10" stroke-linecap="round" stroke-linejoin="round"/>
<path d="M114.167 60.8579C114.354 60.8579 114.505 60.7013 114.505 60.5082C114.505 60.315 114.354 60.1584 114.167 60.1584C113.979 60.1584 113.828 60.315 113.828 60.5082C113.828 60.7013 113.979 60.8579 114.167 60.8579Z" fill="#554747"/>
<path d="M111.046 60.5082C111.046 60.7012 110.895 60.8579 110.708 60.8579C110.521 60.8579 110.369 60.7014 110.369 60.5082C110.369 60.3149 110.52 60.1584 110.708 60.1584C110.895 60.1584 111.046 60.3152 111.046 60.5082Z" fill="#554747"/>
<path d="M113.337 59.1881C113.337 59.1881 114.134 58.7998 114.97 59.2338" stroke="#554747" stroke-width="0.223456" stroke-miterlimit="10" stroke-linecap="round" stroke-linejoin="round"/>
<path d="M111.522 59.1881C111.522 59.1881 110.726 58.7998 109.89 59.2338" stroke="#554747" stroke-width="0.223456" stroke-miterlimit="10" stroke-linecap="round" stroke-linejoin="round"/>
<path d="M115.641 100.278C119.786 98.6505 124.023 104.383 121.433 105.646C118.844 106.909 119.687 100.351 115.641 100.545C111.595 100.739 109.194 104.626 108.159 110.504C107.123 116.382 99.9354 123.683 93.5332 123.78C87.131 123.877 79.517 122.32 79.517 122.32" stroke="#7A301C" stroke-width="0.670367" stroke-miterlimit="10"/>
<path d="M115.188 97.5022C115.188 97.5022 113.17 98.6323 113.146 98.8995C113.123 99.1666 112.582 101.116 113.146 101.04C113.711 100.964 115.52 100.235 115.52 100.235L115.899 98.4622L115.188 97.5022Z" fill="#FF9981"/>
<path d="M116.047 96.0819C115.247 96.9564 113.623 99.7741 113.294 100.478C112.964 101.183 112.258 102.446 112.823 102.907C113.388 103.369 113.906 102.907 113.906 102.907C113.906 102.907 114.141 103.442 115.294 103.32C116.447 103.199 116.918 102.543 116.918 102.543C116.918 102.543 117.601 102.446 117.742 101.717C117.883 100.988 118.213 99.5552 118.166 99.0694C118.119 98.5837 118.17 97.272 118.17 97.272L116.047 96.0819Z" fill="#FF9981"/>
<path d="M126.687 78.4467C126.663 79.8206 126.61 81.4179 126.475 82.8926C126.33 84.5008 126.09 85.9673 125.696 86.8532C125.577 87.1204 125.363 87.5947 125.081 88.1998C123.575 91.4408 120.147 98.4953 119.153 98.4135C117.978 98.3154 115.434 96.6172 115.529 96.0829C115.622 95.5487 121.272 85.2014 121.414 83.1107C121.554 81.0227 120.347 69.2661 122.952 68.4893C126.687 70.4328 126.731 75.5819 126.687 78.4467Z" fill="#E6CFB0"/>
<path d="M126.471 82.8925C126.326 84.5007 126.086 85.9672 125.692 86.8531C125.573 87.1203 125.359 87.5946 125.077 88.1997C124.163 87.8781 123.682 86.5424 123.999 85.1277C124.329 83.6448 125.407 82.6363 126.402 82.8734C126.426 82.8791 126.45 82.8846 126.471 82.8925Z" fill="#D5BD99"/>
<path d="M97.1662 142.256C97.1802 142.18 97.2453 142.129 97.3166 142.142C97.6984 142.21 98.9236 142.307 100.478 141.188C101.469 140.474 101.907 139.359 102.528 137.927C102.593 137.777 102.804 137.843 102.782 138.007C102.642 139.039 102.192 140.88 100.743 142.31C98.9573 144.072 97.4488 143.961 97.0064 143.878C96.9332 143.865 96.886 143.787 96.9004 143.708L97.1662 142.256Z" fill="#C66F28"/>
<path d="M73.0908 138.132C73.0908 138.132 74.1144 143.778 73.5368 145.105C73.5368 145.105 72.0425 145.342 71.7572 145.678C71.4723 146.014 71.0928 146.79 71.3134 147.002C71.534 147.213 71.9318 147.065 71.9318 147.065C71.9318 147.065 72.6412 147.48 73.5667 147.042C73.5667 147.042 74.6485 147.364 75.1441 146.885C75.6393 146.406 76.1522 139.212 76.1522 139.212L73.0908 138.132Z" fill="#EDD7AB"/>
<path d="M84.2023 145.048C84.2023 145.048 84.5679 145.839 86.1782 146.488C86.1782 146.488 83.9971 146.287 83.5407 146.527C83.0845 146.767 82.6055 147.604 82.7711 147.763C82.937 147.923 83.4157 147.764 83.4157 147.764C83.4157 147.764 83.9385 148.426 85.0717 147.919C85.0717 147.919 85.5429 148.193 86.1205 147.97C86.6981 147.747 86.814 147.579 86.814 147.579C86.814 147.579 89.4982 147.764 89.8526 147.486C90.2069 147.208 87.5133 144.64 87.5133 144.64L84.2023 145.048Z" fill="#EDD7AB"/>
<path d="M77.7005 117.488C77.7005 117.488 77.9139 118.954 78.2265 118.896C78.5391 118.838 78.9624 117.724 78.7754 117.309C78.5883 116.895 77.7005 117.488 77.7005 117.488Z" fill="#D8937D"/>
<path d="M96.2879 147.88C96.5106 148.288 96.925 148.803 96.2917 149.015C95.684 149.22 92.7957 149.495 91.7662 149.491C91.7215 149.492 91.6832 149.493 91.6448 149.491C90.7393 149.463 91.1707 149.672 90.5109 149.858C89.8482 150.044 89.5495 149.778 89.5495 149.778C89.5495 149.778 88.6584 150.357 88.0516 149.602C88.0516 149.602 87.3123 149.791 87.2468 149.405C87.1813 149.022 87.6174 148.398 88.0686 148.301C88.3449 148.242 89.6169 148.236 90.5441 148.237C90.9662 148.241 91.318 148.247 91.4713 148.245C91.2438 148.222 90.5863 148.15 89.8246 147.898C88.9114 147.601 87.8503 147.046 87.2104 146.03C87.0765 145.818 86.9612 145.586 86.8675 145.334C86.864 145.327 86.864 145.324 86.864 145.324C86.864 145.324 83.9131 146.521 78.2926 141.828C78.2926 141.828 76.2966 141.004 74.4988 139.622C72.7009 138.237 71.2098 136.405 70.8458 134.866C70.4819 133.327 70.5963 128.636 70.6455 127.901C70.6839 127.345 70.7733 126.791 70.7733 126.791C70.7733 126.791 69.2614 125.122 69.4579 123.622C69.4579 123.622 69.0007 122.614 68.4735 121.854C67.9466 121.096 67.5284 120.445 67.6434 119.888C67.6434 119.888 66.4092 118.655 66.2785 117.772C66.1478 116.893 66.2165 116.503 66.2836 116.059C66.2836 116.059 66.1877 114.621 66.5424 113.946C66.8939 113.271 68.438 112.284 69.0473 112.126C69.6534 111.971 70.4979 112.552 71.1216 113.004C71.7481 113.453 71.6938 113.454 72.4923 113.429C73.2907 113.404 75.1918 113.707 75.7714 114.407C76.351 115.109 77.1868 115.498 77.5539 116.151C77.9178 116.803 78.2172 117.982 78.4335 118.945C78.6466 119.908 79.1607 121.107 79.6083 121.896C80.0595 122.686 80.9896 123.57 81.2225 124.226C81.4385 124.847 83.0702 126.343 84.2597 127.243C84.3252 127.294 84.3904 127.341 84.4556 127.389C85.6537 128.265 90.1278 132 91.8959 133.243C93.6644 134.49 96.8432 136.658 97.3244 140.491C97.8084 144.32 96.9061 146.283 95.3338 147.192C95.3348 147.192 96.062 147.472 96.2879 147.88Z" fill="#D68C34"/>
<path d="M73.0108 134.902C72.9791 135.681 73.2605 136.649 73.8724 137.874C74.7973 139.728 76.214 139.393 76.8661 139.247C77.515 139.104 77.7143 139.201 78.1335 139.231C78.5496 139.258 78.4437 138.993 78.6551 138.84C78.8696 138.688 78.9545 138.894 78.9545 138.894L78.8499 140.119C78.8537 140.139 78.8544 140.162 78.8582 140.181C78.6155 142.893 78.125 146.023 78.0613 146.452C77.9732 147.034 78.1642 147.277 78.0153 147.612C77.8664 147.948 76.9573 149.41 76.7238 149.556C76.4903 149.702 76.6889 150.219 76.3794 150.477C76.0698 150.735 74.5029 150.37 74.5029 150.37C73.5077 150.706 72.9969 150.361 72.9969 150.361C72.9969 150.361 72.6056 150.538 72.4925 150.35C72.3825 150.162 72.6509 149.352 72.9582 149.012C73.2656 148.671 74.5524 148.439 74.5524 148.439C75.277 146.953 74.6002 143.691 74.2333 141.938C73.866 140.185 72.2279 134.553 72.2279 134.553C72.2279 134.553 72.6334 134.35 73.0108 134.902Z" fill="#F7EBD0"/>
<path d="M87.0792 145.941C86.9462 145.73 86.8316 145.499 86.7385 145.246C86.735 145.24 86.735 145.236 86.735 145.236C86.735 145.236 83.8025 146.43 78.2171 141.75C78.2171 141.75 76.2336 140.928 74.447 139.55C72.6603 138.169 71.1785 136.341 70.8169 134.806C70.4552 133.271 70.4911 128.65 70.54 127.917C70.5781 127.363 70.5876 126.812 70.5876 126.812C70.5876 126.812 69.2423 125.088 69.4376 123.592C69.4376 123.592 69.2306 123.135 68.9391 122.605C68.7953 122.347 68.6317 122.074 68.4593 121.828C68.1447 121.374 67.8691 120.959 67.7246 120.58C67.7214 120.576 67.7214 120.576 67.7214 120.576C67.6284 120.324 67.59 120.087 67.6344 119.867C67.6344 119.867 66.4079 118.637 66.278 117.757C66.1482 116.881 66.2164 116.491 66.2831 116.049C66.2831 116.049 66.1879 114.615 66.5403 113.941C66.8896 113.268 68.4241 112.284 69.0296 112.126C69.6319 111.971 70.4711 112.551 71.0909 113.002C71.7135 113.449 71.6595 113.451 72.453 113.426C73.2465 113.401 75.1357 113.703 75.7116 114.401C76.2876 115.101 77.1182 115.489 77.483 116.14C77.8447 116.791 78.1422 117.967 78.3571 118.927C78.5689 119.887 79.0798 121.083 79.5246 121.871C79.973 122.658 80.8972 123.54 81.1287 124.194C81.3434 124.814 82.9649 126.306 84.147 127.203C84.0041 127.429 83.7723 127.648 83.4212 127.811C82.6594 128.166 82.2879 127.724 81.3376 127.817C80.3873 127.906 79.7428 129.025 79.2652 129.659C78.788 130.293 78.1578 130.478 76.8198 130.894C75.4818 131.31 75.3163 131.749 74.6899 132.719C74.0603 133.692 73.9024 132.952 73.37 133.879C72.8439 134.806 73.0166 136.062 73.9431 137.917C74.8696 139.772 76.2895 139.436 76.943 139.29C77.5932 139.148 77.7929 139.244 78.213 139.274C78.6299 139.301 78.5238 139.036 78.7356 138.884C78.9506 138.731 79.0357 138.937 79.0357 138.937L78.9309 140.162C79.3599 143.377 81.8399 142.575 83.0903 141.874C84.341 141.172 85.7412 140.155 86.067 140.437C86.3928 140.715 85.8904 141.144 85.2154 141.87C84.5404 142.593 84.4997 143.942 85.4062 144.431C86.3159 144.919 86.7814 143.871 86.7814 143.871C86.7814 143.871 87.1341 145.208 87.0792 145.941Z" fill="#F7EBD0"/>
<path d="M71.9999 116.286C72.0499 116.188 72.1922 116.014 72.1002 115.607C71.9418 114.908 72.4012 114.247 72.9564 114.046C73.5116 113.844 74.2618 114.129 74.4163 114.616C74.5708 115.102 74.3583 115.375 74.607 115.654C74.8558 115.933 75.4056 116.223 75.5466 116.935C75.6877 117.647 75.4831 118.882 75.1036 119.61C74.724 120.339 75.0049 120.35 74.6013 120.936C74.1973 121.522 73.9255 121.817 73.5238 121.788C73.1222 121.76 73.2151 121.511 72.9487 121.314C72.6823 121.118 72.1037 120.521 72.2342 120.19C72.3647 119.858 72.59 120.015 72.373 119.448C72.156 118.882 72.3986 118.956 72.1669 118.574C71.9351 118.193 72.0489 117.964 72.0964 117.533C72.1438 117.1 71.829 116.619 71.9999 116.286Z" fill="#D68C34"/>
<path d="M72.6517 122.359C72.7811 122.241 72.8777 122.135 72.9465 122.001C73.0112 121.865 73.0293 121.705 73.0232 121.541C73.0151 121.368 73.001 121.195 72.9696 121.027L72.9199 120.77C72.9082 120.684 72.883 120.581 72.9166 120.488C72.9751 120.652 73.0801 120.793 73.122 120.979C73.1714 121.157 73.1997 121.343 73.2106 121.528C73.2197 121.722 73.19 121.934 73.0876 122.104C72.9935 122.272 72.8247 122.404 72.6517 122.359Z" fill="#AF5F23"/>
<path d="M73.343 115.571C73.6525 115.571 73.9034 115.312 73.9034 114.993C73.9034 114.673 73.6525 114.414 73.343 114.414C73.0335 114.414 72.7826 114.673 72.7826 114.993C72.7826 115.312 73.0335 115.571 73.343 115.571Z" fill="#601111"/>
<path d="M68.088 113.091C68.088 113.091 68.4126 113.018 68.6484 113.198C68.8838 113.378 69.5804 113.544 69.6674 113.207C69.7544 112.871 69.7534 112.141 69.3071 111.988C68.8608 111.836 67.9687 112.24 67.6712 112.604C67.5282 112.779 67.6275 113.127 68.088 113.091Z" fill="#601111"/>
<path d="M91.7349 149.455C91.6889 149.456 91.6495 149.458 91.6101 149.455C90.6795 149.425 91.1228 149.649 90.4447 149.849C89.7637 150.049 89.4566 149.763 89.4566 149.763C89.4566 149.763 88.5408 150.384 87.9172 149.575C87.9172 149.575 87.1574 149.777 87.0901 149.363C87.0228 148.952 87.471 148.283 87.9346 148.179C88.2187 148.116 89.5259 148.109 90.4788 148.111C90.4811 148.196 90.532 148.372 90.9061 148.478C91.4025 148.615 91.6459 148.497 91.7762 148.827C91.8757 149.073 91.8807 149.262 91.7349 149.455Z" fill="#F7EBD0"/>
<path d="M89.8873 147.822C88.7528 147.458 87.397 146.719 86.8475 145.236C86.8439 145.23 86.8439 145.226 86.8439 145.226C85.9656 142.847 87.1654 140.615 87.2883 140.547C87.4078 140.483 87.9974 140.298 88.3374 140.682C88.6773 141.071 88.4316 141.767 88.2063 142.487C87.981 143.203 88.8819 143.116 88.9121 143.47C88.9456 143.823 87.9951 144.355 88.0312 145.588C88.0674 146.822 89.6131 147.652 89.6131 147.652L89.8873 147.822Z" fill="#F7EBD0"/>
<path d="M87.0833 140.735C87.2014 140.422 87.4031 140.158 87.6151 139.913C87.8334 139.672 88.0706 139.45 88.3211 139.247C88.5772 139.052 88.8439 138.87 89.1289 138.727C89.4075 138.573 89.7051 138.452 90.0256 138.421C89.7682 138.629 89.4928 138.763 89.2244 138.92C88.9554 139.074 88.7003 139.252 88.4475 139.432C87.9402 139.797 87.508 140.251 87.0833 140.735Z" fill="#AF5F23"/>
<path d="M90.5844 137.554C90.235 137.757 89.9108 137.982 89.6186 138.24C89.3288 138.501 89.0881 138.806 88.9049 139.144L88.763 139.08C88.8509 138.897 88.945 138.713 89.0772 138.555C89.2019 138.392 89.3469 138.245 89.506 138.116C89.8183 137.852 90.1862 137.647 90.5844 137.554Z" fill="#AF5F23"/>
<path d="M80.1666 135.818C80.2488 136.159 80.2221 136.511 80.1729 136.851C80.1252 137.193 80.0556 137.532 79.9594 137.863C79.8638 138.195 79.7428 138.519 79.5963 138.83C79.4556 139.144 79.2766 139.438 79.0878 139.723L78.9583 139.631C79.1273 139.343 79.2929 139.053 79.4261 138.746C79.5688 138.444 79.6797 138.126 79.7791 137.806C79.8807 137.486 79.9566 137.157 80.0111 136.825C80.0638 136.491 80.0989 136.159 80.1666 135.818Z" fill="#AF5F23"/>
<path d="M79.0114 137.264C79.0868 137.47 79.0941 137.677 79.0935 137.883L79.0901 138.502C79.0865 138.915 79.0701 139.328 79.047 139.74C79.0199 140.152 78.9855 140.564 78.9381 140.974C78.8864 141.382 78.8535 141.804 78.6732 142.181C78.6756 141.76 78.7398 141.363 78.7732 140.954C78.8091 140.546 78.8319 140.137 78.8478 139.727L78.9001 138.497L78.9204 137.881C78.9256 137.675 78.9369 137.47 79.0114 137.264Z" fill="#AF5F23"/>
<path d="M86.8207 145.363C86.6144 145.007 86.4959 144.581 86.4315 144.151C86.3699 143.719 86.3665 143.275 86.4069 142.839C86.4568 142.404 86.5469 141.976 86.6834 141.571C86.7432 141.365 86.8304 141.173 86.9111 140.98C87.0017 140.792 87.1086 140.615 87.2209 140.446C87.1684 140.657 87.1006 140.854 87.0345 141.05C86.9812 141.254 86.9025 141.443 86.8544 141.646C86.7412 142.046 86.6725 142.458 86.6187 142.871C86.5782 143.286 86.5682 143.706 86.6024 144.123C86.6355 144.54 86.6988 144.957 86.8207 145.363Z" fill="#AF5F23"/>
<path d="M93.6673 147.811C93.915 147.67 94.1609 147.575 94.4137 147.478C94.5412 147.433 94.668 147.387 94.8 147.347C94.9299 147.305 95.0639 147.268 95.2085 147.243C95.0095 147.436 94.7621 147.564 94.5054 147.672C94.3749 147.722 94.2391 147.761 94.1002 147.79C93.9604 147.817 93.8155 147.833 93.6673 147.811Z" fill="#AF5F23"/>
<path d="M92.4073 148.157C92.2435 148.312 92.0484 148.37 91.8571 148.394C91.6651 148.412 91.4679 148.39 91.2865 148.251C91.4802 148.141 91.6598 148.121 91.843 148.113C92.0262 148.106 92.2065 148.112 92.4073 148.157Z" fill="#AF5F23"/>
<path d="M71.4177 121.79C71.6745 121.544 71.8099 121.25 71.755 120.913C71.7355 120.75 71.6685 120.591 71.6181 120.414C71.5655 120.242 71.517 120.068 71.4717 119.893C71.3877 119.541 71.3139 119.186 71.2763 118.822C71.2465 118.469 71.1937 118.065 71.3992 117.741C71.3886 118.105 71.4126 118.443 71.4599 118.796C71.513 119.144 71.588 119.492 71.6754 119.835C71.7188 120.007 71.7626 120.179 71.8123 120.349C71.8579 120.515 71.9234 120.691 71.9411 120.888C71.9602 121.079 71.9426 121.288 71.8491 121.465C71.7607 121.642 71.5944 121.769 71.4177 121.79Z" fill="#AF925F"/>
<path d="M70.7764 120.489C70.7379 120.085 70.45 119.844 70.11 119.702C69.7682 119.564 69.3675 119.579 68.9671 119.471C68.5628 119.37 68.2109 119.122 67.9162 118.862C67.6151 118.6 67.3427 118.305 67.1064 117.982C66.878 117.653 66.6873 117.294 66.5726 116.905C66.4582 116.519 66.455 116.087 66.5335 115.704C66.602 115.316 66.6983 114.929 66.8612 114.562C67.0163 114.201 67.2725 113.833 67.6613 113.691C67.3898 113.983 67.1837 114.285 67.0315 114.635C66.8828 114.984 66.7949 115.358 66.7342 115.737C66.6644 116.118 66.676 116.482 66.7849 116.844C66.8964 117.201 67.0799 117.537 67.3013 117.845C67.5223 118.154 67.7805 118.441 68.0662 118.696C68.3531 118.953 68.6595 119.172 69.024 119.268C69.3807 119.373 69.7917 119.36 70.1853 119.52C70.3757 119.6 70.5654 119.712 70.6943 119.889C70.8252 120.062 70.8633 120.304 70.7764 120.489Z" fill="#AF925F"/>
<path d="M68.1711 120.488C68.1026 120.488 68.0428 120.448 67.9862 120.406C67.9295 120.362 67.8788 120.305 67.8324 120.241C67.7407 120.11 67.6601 119.96 67.6107 119.765C67.7332 119.84 67.8289 119.953 67.9219 120.07C67.9673 120.13 68.0114 120.191 68.0519 120.262C68.0922 120.332 68.1318 120.402 68.1711 120.488Z" fill="#AF925F"/>
<path d="M77.2082 123.525C77.128 123.286 77.1112 123.027 77.158 122.773C77.1845 122.647 77.2227 122.52 77.2872 122.402C77.3491 122.283 77.4448 122.176 77.5303 122.09C77.7037 121.909 77.897 121.755 78.0331 121.573C78.1731 121.393 78.2324 121.184 78.1898 120.96L78.3616 120.922C78.439 121.179 78.3695 121.49 78.2015 121.696C78.041 121.908 77.849 122.07 77.6737 122.235C77.4909 122.393 77.3844 122.578 77.3295 122.812C77.2685 123.037 77.2445 123.276 77.2082 123.525Z" fill="#AF925F"/>
<path d="M81.4607 125.694C81.3546 125.574 81.293 125.446 81.2419 125.315C81.1905 125.184 81.1408 125.053 81.095 124.921C81.051 124.788 81.0105 124.656 80.9732 124.522C80.9319 124.389 80.9002 124.255 80.9189 124.104C81.0457 124.213 81.1144 124.342 81.1697 124.472C81.2278 124.603 81.2789 124.735 81.3244 124.868C81.3673 125.001 81.4036 125.137 81.436 125.272C81.4684 125.409 81.4885 125.547 81.4607 125.694Z" fill="#696969"/>
<path d="M72.0931 134.516C72.2713 134.832 72.3899 135.166 72.5012 135.501L72.832 136.508C72.9388 136.844 73.041 137.182 73.1385 137.522C73.2226 137.866 73.3752 138.188 73.3516 138.566C73.1184 138.269 73.0612 137.916 72.9355 137.585C72.8232 137.25 72.7153 136.913 72.6128 136.575L72.3143 135.557C72.2161 135.217 72.1247 134.875 72.0931 134.516Z" fill="#AF925F"/>
<path d="M69.0037 121.804C68.9745 122.141 69.0424 122.536 68.8236 122.657C68.6799 122.382 68.5166 122.089 68.3444 121.826C68.0302 121.339 67.755 120.895 67.6107 120.488C67.8307 120.764 68.1472 121.098 68.4316 121.174C68.9393 121.305 69.0449 121.331 69.0037 121.804Z" fill="#D68C34"/>
<path d="M70.5652 126.815L70.3175 126.49C70.3175 126.49 70.2125 126.521 70.1404 126.773C70.0683 127.025 70.256 128.045 70.3658 128.181C70.4756 128.316 72.2797 129.397 75.5511 128.102C78.8225 126.806 79.9044 124.83 80.1356 123.658C80.3667 122.486 80.0289 121.775 79.8921 121.613C79.7552 121.451 79.3232 121.159 79.1397 121.22C79.1397 121.22 79.4486 121.848 79.5197 122.484C79.5908 123.12 78.6841 125.673 76.0731 126.92C73.261 128.263 70.8045 127.778 70.5652 126.815Z" fill="#7A301C"/>
<path d="M79.8764 120.166C79.8544 120.231 79.8289 120.293 79.8065 120.355C79.8065 120.355 79.8065 120.355 79.8065 120.358C79.6245 120.799 79.3856 121.084 78.7444 121.066C78.0102 121.048 78.1135 120.822 77.4871 120.84C77.4458 120.841 77.4079 120.842 77.37 120.846C76.8303 120.877 76.5901 121.01 76.5822 120.765C76.5736 120.5 76.5137 120.663 76.8895 120.25C77.2619 119.836 77.7011 119.462 77.6688 119.098C77.6368 118.737 77.5077 118.802 77.7813 118.633C78.0584 118.464 78.5743 118.45 78.5853 118.146C78.5964 117.842 78.7227 117.697 78.5468 117.582C78.3709 117.465 78.0157 117.778 78.0157 117.778C78.0157 117.778 77.7772 117.097 77.728 116.96C77.6822 116.819 77.6585 116.72 77.6585 116.72C77.6585 116.72 77.8574 116.269 78.3957 116.295C78.9371 116.319 79.2724 116.794 79.3133 117.319C79.3505 117.841 79.2693 117.985 79.4985 118.482C79.7318 118.979 80.0757 119.615 79.8764 120.166Z" fill="#EDD7AB"/>
<path d="M79.6619 120.348C79.6619 120.348 79.6619 120.348 79.6619 120.351C79.505 120.796 79.2991 121.083 78.7464 121.065C78.1136 121.047 78.2026 120.819 77.6627 120.837C77.6271 120.838 77.5945 120.839 77.5619 120.844C77.7197 120.754 77.9668 120.56 78.0546 120.192C78.1878 119.636 78.2516 119.249 78.5827 119.196C78.9167 119.143 78.8084 119.309 79.0597 119.608C79.2872 119.881 79.6916 119.906 79.6619 120.348Z" fill="#D68C34"/>
<path d="M79.4159 121.957L79.4742 122.183C79.4742 122.183 79.8327 122.094 80.0014 122.153C80.249 122.24 80.183 122.884 79.9142 123.012C79.7674 123.082 79.4467 123.075 79.4467 123.075C79.4467 123.075 79.4323 123.257 79.7429 123.274C80.0392 123.29 80.2938 123.221 80.3966 122.714C80.499 122.207 80.3553 122.085 80.1722 121.945C79.9308 121.759 79.5632 121.635 79.4159 121.957Z" fill="white"/>
<path d="M74.7521 149.412C74.7554 149.64 74.7026 149.778 74.656 149.932C74.6118 150.086 74.5689 150.228 74.546 150.424C74.5041 150.347 74.4806 150.246 74.4733 150.143C74.4683 150.041 74.478 149.94 74.4958 149.844C74.5339 149.656 74.6025 149.473 74.7521 149.412Z" fill="#AF925F"/>
<path d="M73.343 149.412C73.31 149.614 73.2317 149.774 73.1556 149.935C73.076 150.097 72.9968 150.236 72.8937 150.424C72.7353 150.249 72.7679 150.024 72.8573 149.848C72.954 149.67 73.1042 149.509 73.343 149.412Z" fill="#AF925F"/>
<path d="M73.7308 146.086C73.7854 146.252 73.7656 146.389 73.738 146.526C73.7037 146.665 73.6694 146.792 73.5821 146.953C73.3721 146.828 73.3253 146.656 73.3518 146.502C73.3871 146.347 73.4901 146.195 73.7308 146.086Z" fill="#AF925F"/>
<path d="M72.2302 146.086C72.186 146.254 72.127 146.386 72.0776 146.522C72.0222 146.658 71.9877 146.787 71.9301 146.953C71.797 146.816 71.7843 146.626 71.8442 146.466C71.907 146.306 72.0317 146.158 72.2302 146.086Z" fill="#AF925F"/>
<path d="M83.7141 146.809C83.7301 147.041 83.6657 147.19 83.5939 147.344C83.5251 147.499 83.4503 147.636 83.3699 147.821C83.2665 147.64 83.2855 147.414 83.3443 147.233C83.403 147.049 83.5046 146.878 83.7141 146.809Z" fill="#AF925F"/>
<path d="M85.2581 147.243C85.2318 147.401 85.1968 147.508 85.1641 147.617C85.1291 147.726 85.0996 147.818 85.0465 147.966C84.9618 147.846 84.9631 147.658 85.0092 147.52C85.0571 147.382 85.1405 147.267 85.2581 147.243Z" fill="#AF925F"/>
<path d="M88.2064 148.689C88.2109 148.836 88.1739 148.948 88.1377 149.061C88.1007 149.175 88.0604 149.268 87.9877 149.412C87.787 149.315 87.7563 149.148 87.8096 149.017C87.8679 148.883 87.9886 148.759 88.2064 148.689Z" fill="#AF925F"/>
<path d="M89.8826 148.834C89.828 149.026 89.7766 149.148 89.7259 149.275C89.671 149.401 89.6314 149.522 89.5531 149.702C89.3328 149.387 89.5407 148.833 89.8826 148.834Z" fill="#AF925F"/>
<line opacity="0.18" x1="59.1279" y1="106.536" x2="59.1279" y2="101.973" stroke="black" stroke-width="0.223456"/>
<path d="M65.3711 49.7372C63.0852 54.4165 58.7204 53.5171 57.1931 52.4818C50.3947 58.0164 44.2366 52.9321 43.3005 49.6476C38.6204 51.3574 37.5366 46.858 39.0637 45.3282C34.3343 44.3204 35.8616 39.884 38.4233 39.569C36.6893 36.5454 39.1458 35.0696 40.5909 34.7097C40.5515 31.0742 44.6799 30.6153 45.9115 31.8301C48.2269 27.2857 52.086 29.3401 53.3997 31.0197C58.3755 24.4511 63.9424 30.2551 63.5483 32.6845C65.0459 32.5405 65.6174 33.8844 65.7159 34.5743C70.8394 31.4247 74.8792 37.7688 71.7262 40.5585C76.0122 46.3627 69.5093 50.6371 65.3711 49.7372Z" fill="white"/>
<path d="M43.6875 55.1674C43.9337 56.0672 42.7024 57.507 41.3725 57.507C40.0427 57.507 38.9591 56.4904 38.9591 55.3473C38.9591 54.2043 39.6507 53.3226 40.9292 53.3226C42.2077 53.3226 43.6875 54.0243 43.6875 55.1674Z" fill="white"/>
<path d="M39.0046 59.6668C39.1031 60.1167 38.5026 60.7917 37.8226 60.7917C37.1425 60.7917 36.6897 60.1638 36.6897 59.6668C36.6897 59.1698 36.9852 58.6769 37.8226 58.7669C38.5121 58.7669 39.0539 59.2169 39.0046 59.6668Z" fill="white"/>
<path d="M41.8089 38.3113L41.6708 35.4055L42.7066 35.3563C42.9327 35.3456 43.1219 35.3778 43.2743 35.4531C43.4268 35.5283 43.5432 35.6356 43.6238 35.7749C43.7043 35.9133 43.7488 36.0714 43.7573 36.2492C43.7658 36.428 43.736 36.5906 43.6681 36.737C43.601 36.8824 43.4948 37.0002 43.3493 37.0906C43.2047 37.1799 43.0198 37.2299 42.7947 37.2406L42.0824 37.2745L42.0648 36.9027L42.7373 36.8708C42.8801 36.864 42.9948 36.8339 43.0814 36.7805C43.168 36.7261 43.23 36.6549 43.2675 36.5669C43.3051 36.4788 43.3212 36.3799 43.316 36.2702C43.3108 36.1605 43.2854 36.064 43.2397 35.9809C43.194 35.8977 43.1251 35.8342 43.033 35.7902C42.9418 35.7462 42.8233 35.7276 42.6776 35.7345L42.1271 35.7607L42.2473 38.2905L41.8089 38.3113ZM44.9475 38.2106C44.8094 38.2171 44.6834 38.1975 44.5693 38.1518C44.4552 38.105 44.3632 38.034 44.2933 37.9388C44.2243 37.8434 44.1864 37.7244 44.1796 37.5815C44.1738 37.4586 44.1926 37.3562 44.2361 37.2745C44.2797 37.1928 44.3405 37.1269 44.4187 37.0767C44.4969 37.0266 44.5851 36.9873 44.6833 36.9589C44.7815 36.9306 44.8819 36.9078 44.9844 36.8906C45.1142 36.8693 45.2196 36.8519 45.3005 36.8386C45.3813 36.8243 45.4396 36.805 45.4755 36.7805C45.5113 36.7561 45.528 36.7183 45.5255 36.6672L45.5251 36.6573C45.5192 36.5334 45.4796 36.439 45.4064 36.3742C45.3341 36.3094 45.2294 36.2803 45.0922 36.2868C44.9494 36.2936 44.8383 36.3306 44.7591 36.3979C44.6807 36.4642 44.6277 36.5364 44.6001 36.6145L44.1971 36.5426C44.2381 36.4079 44.3021 36.2978 44.389 36.2121C44.4769 36.1255 44.5795 36.0609 44.6969 36.0183C44.8143 35.9748 44.9388 35.9499 45.0702 35.9437C45.1573 35.9396 45.25 35.9456 45.3484 35.9618C45.4477 35.977 45.5412 36.0095 45.6289 36.0594C45.7176 36.1092 45.7917 36.1829 45.8513 36.2806C45.9109 36.3773 45.9445 36.5051 45.952 36.664L46.0207 38.1113L45.6064 38.1309L45.5923 37.833L45.5753 37.8338C45.5504 37.89 45.5119 37.9458 45.4595 38.0014C45.4072 38.057 45.3388 38.1043 45.2544 38.1434C45.17 38.1825 45.0677 38.2049 44.9475 38.2106ZM45.0236 37.8657C45.1409 37.8601 45.2401 37.8322 45.3211 37.7819C45.4031 37.7315 45.4641 37.6679 45.504 37.5912C45.5449 37.5134 45.5633 37.4314 45.5592 37.3454L45.5458 37.0644C45.5314 37.0803 45.5028 37.0959 45.4599 37.1112C45.4179 37.1255 45.3697 37.1387 45.3153 37.1507C45.2608 37.1619 45.2078 37.1724 45.1561 37.1825C45.1044 37.1916 45.0612 37.1993 45.0264 37.2057C44.9446 37.22 44.8702 37.2411 44.8033 37.2689C44.7373 37.2967 44.6851 37.3347 44.6466 37.383C44.609 37.4303 44.592 37.4918 44.5956 37.5675C44.6006 37.6725 44.6432 37.7501 44.7233 37.8003C44.8034 37.8496 44.9035 37.8714 45.0236 37.8657ZM48.1407 36.3595L47.7594 36.4459C47.741 36.3975 47.7132 36.3519 47.6761 36.3091C47.6399 36.2663 47.5919 36.232 47.5319 36.2064C47.4719 36.1809 47.3979 36.1701 47.3099 36.1743C47.1898 36.18 47.0908 36.2118 47.013 36.2695C46.9351 36.3263 46.8981 36.3968 46.9021 36.481C46.9056 36.5538 46.9353 36.6112 46.9914 36.653C47.0474 36.6949 47.1361 36.7272 47.2576 36.7499L47.6076 36.8129C47.8103 36.8497 47.9632 36.914 48.0661 37.0059C48.1691 37.0977 48.2242 37.2207 48.2316 37.3748C48.2378 37.5054 48.2054 37.6235 48.1346 37.7293C48.0647 37.834 47.964 37.9185 47.8324 37.9825C47.7017 38.0466 47.5485 38.0828 47.3725 38.0911C47.1285 38.1027 46.9269 38.0602 46.7678 37.9634C46.6086 37.8658 46.5069 37.7213 46.4628 37.53L46.8699 37.4481C46.9005 37.5537 46.9568 37.6321 47.0389 37.6832C47.1209 37.7333 47.2257 37.7554 47.3534 37.7493C47.4925 37.7427 47.6023 37.7086 47.6828 37.6469C47.7632 37.5843 47.8014 37.5109 47.7974 37.4268C47.7942 37.3586 47.766 37.3026 47.7127 37.2587C47.6603 37.2147 47.5816 37.1834 47.4764 37.1647L47.1037 37.1013C46.8981 37.0647 46.7442 36.998 46.642 36.9014C46.5407 36.8048 46.4863 36.6789 46.479 36.5238C46.4729 36.3952 46.5035 36.2809 46.5708 36.181C46.6381 36.0811 46.7338 36.0012 46.858 35.9412C46.9821 35.8804 47.126 35.846 47.2897 35.8383C47.5252 35.8271 47.713 35.8693 47.8532 35.9651C47.9932 36.0599 48.0891 36.1914 48.1407 36.3595ZM51.5462 35.6645L50.8594 37.8814L50.4054 37.903L49.5101 35.7612L49.9656 35.7396L50.5972 37.3905L50.6199 37.3894L51.0907 35.6861L51.5462 35.6645ZM52.0484 37.8249L51.9449 35.6456L52.3549 35.6261L52.3714 35.9723L52.3941 35.9712C52.4282 35.852 52.4938 35.7565 52.5909 35.6846C52.6889 35.6116 52.8017 35.5722 52.9294 35.5661C52.9559 35.5648 52.9872 35.5643 53.0232 35.5645C53.0602 35.5646 53.0892 35.5656 53.1101 35.5675L53.1294 35.9733C53.1121 35.9693 53.0816 35.9656 53.0378 35.962C52.994 35.9574 52.9503 35.9562 52.9068 35.9582C52.8066 35.963 52.7182 35.9885 52.6417 36.0348C52.5661 36.0801 52.5074 36.1412 52.4655 36.2181C52.4236 36.294 52.4049 36.3793 52.4094 36.4739L52.4726 37.8048L52.0484 37.8249ZM54.1988 37.7711C54.0607 37.7777 53.9347 37.7581 53.8206 37.7123C53.7065 37.6656 53.6145 37.5946 53.5446 37.4993C53.4756 37.404 53.4377 37.2849 53.4309 37.1421C53.4251 37.0191 53.4439 36.9168 53.4874 36.8351C53.5309 36.7534 53.5918 36.6874 53.67 36.6373C53.7482 36.5871 53.8364 36.5478 53.9346 36.5195C54.0328 36.4911 54.1332 36.4683 54.2357 36.4511C54.3655 36.4298 54.4709 36.4125 54.5517 36.3991C54.6326 36.3849 54.6909 36.3655 54.7267 36.3411C54.7626 36.3166 54.7793 36.2788 54.7768 36.2278L54.7764 36.2178C54.7705 36.0939 54.7309 35.9996 54.6577 35.9348C54.5854 35.87 54.4807 35.8408 54.3435 35.8473C54.2007 35.8541 54.0896 35.8911 54.0103 35.9584C53.932 36.0247 53.879 36.0969 53.8514 36.175L53.4484 36.1032C53.4894 35.9685 53.5534 35.8583 53.6403 35.7727C53.7282 35.686 53.8308 35.6214 53.9482 35.5788C54.0656 35.5353 54.19 35.5105 54.3215 35.5042C54.4086 35.5001 54.5013 35.5061 54.5997 35.5223C54.699 35.5375 54.7925 35.57 54.8802 35.6199C54.9688 35.6697 55.043 35.7435 55.1026 35.8411C55.1622 35.9378 55.1957 36.0657 55.2033 36.2246L55.272 37.6718L54.8577 37.6915L54.8436 37.3935L54.8266 37.3943C54.8017 37.4505 54.7631 37.5064 54.7108 37.5619C54.6584 37.6175 54.5901 37.6649 54.5057 37.7039C54.4212 37.743 54.319 37.7654 54.1988 37.7711ZM54.2749 37.4262C54.3922 37.4207 54.4913 37.3927 54.5724 37.3424C54.6544 37.2921 54.7153 37.2285 54.7553 37.1517C54.7962 37.0739 54.8145 36.992 54.8105 36.9059L54.7971 36.625C54.7827 36.6408 54.7541 36.6564 54.7112 36.6717C54.6692 36.686 54.621 36.6992 54.5666 36.7113C54.5121 36.7224 54.4591 36.733 54.4074 36.743C54.3557 36.7521 54.3124 36.7599 54.2777 36.7663C54.1959 36.7806 54.1215 36.8016 54.0546 36.8295C53.9886 36.8573 53.9363 36.8953 53.8979 36.9436C53.8603 36.9909 53.8433 37.0523 53.8469 37.128C53.8519 37.233 53.8944 37.3106 53.9746 37.3609C54.0547 37.4101 54.1548 37.4319 54.2749 37.4262ZM55.8371 37.645L55.7336 35.4656L56.1578 35.4454L56.2613 37.6248L55.8371 37.645ZM55.9318 35.1192C55.8581 35.1227 55.7935 35.1011 55.7382 35.0544C55.6838 35.0067 55.655 34.9484 55.6517 34.8793C55.6484 34.8093 55.6715 34.7485 55.7212 34.6969C55.7718 34.6442 55.834 34.6161 55.9078 34.6126C55.9816 34.6091 56.0457 34.6312 56.1001 34.6789C56.1554 34.7255 56.1847 34.7839 56.188 34.8539C56.1913 34.9229 56.1676 34.9838 56.117 35.0364C56.0674 35.0881 56.0056 35.1156 55.9318 35.1192ZM56.8321 37.5977L56.7285 35.4183L57.1358 35.399L57.1526 35.7537L57.1796 35.7524C57.2193 35.6301 57.2891 35.533 57.389 35.4609C57.4888 35.3879 57.6107 35.348 57.7544 35.3412C57.9001 35.3342 58.0238 35.3625 58.1254 35.4259C58.2279 35.4893 58.3057 35.5795 58.3586 35.6964L58.3813 35.6953C58.4278 35.5765 58.5062 35.4799 58.6164 35.4054C58.7266 35.3301 58.8602 35.2886 59.0172 35.2812C59.2149 35.2718 59.3791 35.3261 59.5099 35.4441C59.6416 35.562 59.7134 35.7458 59.7252 35.9955L59.7946 37.457L59.3704 37.4771L59.3029 36.0554C59.2959 35.9079 59.2506 35.8029 59.167 35.7405C59.0835 35.6781 58.9859 35.6496 58.8743 35.6549C58.7362 35.6614 58.6308 35.7091 58.5583 35.7979C58.4857 35.8857 58.4525 35.9958 58.4588 36.1282L58.5248 37.5173L58.1019 37.5374L58.0331 36.0887C58.0275 35.9705 57.9861 35.8772 57.9089 35.8088C57.8317 35.7404 57.734 35.709 57.6158 35.7146C57.5354 35.7185 57.4621 35.7433 57.396 35.7891C57.3309 35.8339 57.2792 35.8946 57.2412 35.9713C57.204 36.048 57.1878 36.1355 57.1925 36.2339L57.2563 37.5775L56.8321 37.5977ZM61.3046 37.4293C61.0899 37.4395 60.9028 37.4024 60.7433 37.318C60.5847 37.2327 60.4594 37.1083 60.3672 36.9448C60.276 36.7804 60.225 36.5852 60.2143 36.3591C60.2036 36.1359 60.2359 35.9372 60.3111 35.7629C60.3872 35.5887 60.4982 35.4502 60.644 35.3475C60.7908 35.2448 60.9654 35.1886 61.1679 35.179C61.2908 35.1732 61.411 35.1879 61.5283 35.223C61.6456 35.2582 61.7522 35.3172 61.8481 35.3998C61.944 35.4825 62.0218 35.5921 62.0813 35.7286C62.1409 35.8642 62.1753 36.0308 62.1847 36.2285L62.1919 36.3789L60.4594 36.4612L60.4443 36.1434L61.761 36.0809C61.7557 35.9692 61.7283 35.8715 61.6788 35.7876C61.6293 35.7027 61.5622 35.6371 61.4775 35.5909C61.3938 35.5447 61.2971 35.5241 61.1873 35.5293C61.0682 35.535 60.9655 35.5693 60.8794 35.6321C60.7941 35.694 60.7296 35.7729 60.6858 35.8689C60.6429 35.9638 60.6241 36.0657 60.6293 36.1744L60.641 36.4227C60.648 36.5684 60.6794 36.6911 60.7353 36.7908C60.7922 36.8905 60.8683 36.9651 60.9635 37.0146C61.0587 37.0632 61.1683 37.0846 61.2922 37.0787C61.3726 37.0748 61.4454 37.06 61.5105 37.0342C61.5756 37.0074 61.6312 36.9697 61.6772 36.921C61.7233 36.8724 61.7574 36.8134 61.7797 36.7441L62.1847 36.7974C62.1582 36.9171 62.1054 37.0234 62.0264 37.1163C61.9483 37.2082 61.8479 37.2817 61.7254 37.3368C61.6038 37.3909 61.4635 37.4218 61.3046 37.4293ZM63.071 36.0044L63.1325 37.2984L62.7083 37.3186L62.6047 35.1392L63.0119 35.1199L63.0288 35.4746L63.0557 35.4733C63.1004 35.3555 63.1745 35.2591 63.2781 35.184C63.3826 35.1089 63.5167 35.0674 63.6803 35.0597C63.8288 35.0526 63.9603 35.0777 64.0749 35.1348C64.1895 35.191 64.2804 35.2786 64.3477 35.3977C64.4149 35.5168 64.4528 35.6662 64.4614 35.8459L64.5272 37.2322L64.103 37.2523L64.0396 35.9172C64.0321 35.7592 63.9851 35.6377 63.8985 35.5527C63.812 35.4668 63.6968 35.4272 63.553 35.434C63.4547 35.4387 63.3682 35.4641 63.2936 35.5103C63.2199 35.5565 63.1628 35.6218 63.1223 35.7062C63.0826 35.7896 63.0655 35.889 63.071 36.0044ZM66.01 34.9774L66.0262 35.318L64.8357 35.3745L64.8196 35.034L66.01 34.9774ZM65.114 34.4967L65.5382 34.4765L65.6362 36.5381C65.6401 36.6204 65.6553 36.6818 65.6819 36.7223C65.7084 36.7618 65.7414 36.7882 65.7809 36.8015C65.8213 36.8138 65.8647 36.8188 65.9111 36.8166C65.9451 36.815 65.9748 36.8112 66.0001 36.8053C66.0254 36.7993 66.0451 36.7946 66.0592 36.7911L66.1524 37.1379C66.1283 37.1485 66.0937 37.1596 66.0488 37.1713C66.0039 37.1838 65.9474 37.1922 65.8793 37.1964C65.7678 37.2036 65.6628 37.1886 65.5643 37.1516C65.4659 37.1146 65.3848 37.054 65.3211 36.9698C65.2573 36.8856 65.2224 36.7777 65.2161 36.6463L65.114 34.4967ZM47.939 43.0258L47.8355 40.8464L48.2427 40.8271L48.2595 41.1818L48.2865 41.1805C48.3262 41.0582 48.396 40.961 48.4959 40.889C48.5958 40.816 48.7176 40.7761 48.8614 40.7692C49.007 40.7623 49.1307 40.7906 49.2323 40.854C49.3348 40.9174 49.4126 41.0076 49.4655 41.1245L49.4882 41.1234C49.5347 41.0046 49.6131 40.908 49.7233 40.8335C49.8335 40.7581 49.9671 40.7167 50.1241 40.7093C50.3218 40.6999 50.4861 40.7542 50.6168 40.8721C50.7485 40.9901 50.8203 41.1739 50.8321 41.4236L50.9015 42.885L50.4773 42.9052L50.4098 41.4835C50.4028 41.3359 50.3575 41.231 50.2739 41.1686C50.1904 41.1062 50.0928 41.0776 49.9812 41.0829C49.8431 41.0895 49.7378 41.1372 49.6652 41.2259C49.5926 41.3138 49.5594 41.4239 49.5657 41.5563L49.6317 42.9454L49.2089 42.9655L49.14 41.5168C49.1344 41.3986 49.093 41.3053 49.0158 41.2369C48.9386 41.1685 48.8409 41.1371 48.7227 41.1427C48.6423 41.1465 48.569 41.1713 48.5029 41.2171C48.4378 41.262 48.3861 41.3227 48.3481 41.3994C48.3109 41.4761 48.2947 41.5636 48.2994 41.662L48.3632 43.0056L47.939 43.0258ZM52.3902 42.8584C52.1859 42.8681 52.0054 42.8298 51.8487 42.7434C51.6919 42.6569 51.5675 42.5316 51.4753 42.3672C51.3831 42.2028 51.3317 42.0081 51.321 41.7829C51.3102 41.5569 51.3429 41.3572 51.4191 41.1839C51.4952 41.0105 51.6072 40.8734 51.755 40.7726C51.9029 40.6717 52.079 40.6164 52.2833 40.6067C52.4876 40.597 52.6681 40.6353 52.8249 40.7217C52.9816 40.8082 53.1061 40.934 53.1983 41.0993C53.2905 41.2647 53.342 41.4604 53.3528 41.6864C53.3635 41.9115 53.3307 42.1103 53.2545 42.2827C53.1783 42.455 53.0663 42.5917 52.9185 42.6925C52.7706 42.7934 52.5946 42.8487 52.3902 42.8584ZM52.3747 42.5022C52.5072 42.4959 52.6152 42.4557 52.6989 42.3816C52.7826 42.3075 52.8425 42.2112 52.8786 42.0929C52.9157 41.9745 52.9309 41.8454 52.9242 41.7054C52.9176 41.5663 52.8902 41.4396 52.8422 41.3253C52.795 41.21 52.7262 41.1189 52.6358 41.0521C52.5454 40.9853 52.434 40.955 52.3016 40.9613C52.1682 40.9677 52.0592 41.0084 51.9746 41.0835C51.8909 41.1586 51.8306 41.2558 51.7936 41.3751C51.7575 41.4934 51.7428 41.6221 51.7494 41.7612C51.756 41.9012 51.7829 42.0283 51.8301 42.1427C51.8782 42.257 51.9474 42.3471 52.0377 42.413C52.129 42.4788 52.2414 42.5085 52.3747 42.5022ZM54.7914 40.516L54.8076 40.8565L53.6171 40.9131L53.601 40.5725L54.7914 40.516ZM53.8954 40.0352L54.3196 40.0151L54.4176 42.0767C54.4215 42.159 54.4367 42.2203 54.4633 42.2608C54.4898 42.3003 54.5228 42.3267 54.5623 42.34C54.6027 42.3523 54.6461 42.3573 54.6925 42.3551C54.7265 42.3535 54.7562 42.3497 54.7815 42.3438C54.8068 42.3379 54.8265 42.3331 54.8406 42.3296L54.9338 42.6764C54.9097 42.6871 54.8751 42.6982 54.8302 42.7098C54.7853 42.7224 54.7288 42.7307 54.6607 42.7349C54.5492 42.7421 54.4442 42.7272 54.3458 42.6902C54.2473 42.6531 54.1662 42.5925 54.1025 42.5083C54.0388 42.4241 54.0038 42.3163 53.9975 42.1848L53.8954 40.0352ZM55.3642 42.6731L55.2607 40.4937L55.6849 40.4735L55.7884 42.6529L55.3642 42.6731ZM55.459 40.1473C55.3852 40.1508 55.3206 40.1292 55.2653 40.0825C55.2109 40.0348 55.1821 39.9765 55.1788 39.9074C55.1755 39.8374 55.1986 39.7766 55.2483 39.725C55.2989 39.6723 55.3611 39.6442 55.4349 39.6407C55.5087 39.6372 55.5728 39.6593 55.6272 39.707C55.6825 39.7536 55.7118 39.812 55.7151 39.882C55.7184 39.951 55.6947 40.0119 55.6442 40.0645C55.5945 40.1162 55.5327 40.1437 55.459 40.1473ZM58.12 40.3579L57.4332 42.5748L56.9792 42.5963L56.084 40.4546L56.5394 40.433L57.171 42.0838L57.1937 42.0827L57.6646 40.3795L58.12 40.3579ZM59.4895 42.5212C59.2748 42.5314 59.0877 42.4943 58.9282 42.4099C58.7696 42.3245 58.6442 42.2001 58.5521 42.0367C58.4608 41.8723 58.4099 41.677 58.3991 41.451C58.3885 41.2277 58.4208 41.029 58.4959 40.8548C58.572 40.6805 58.683 40.5421 58.8289 40.4394C58.9757 40.3367 59.1503 40.2805 59.3527 40.2709C59.4757 40.265 59.5958 40.2797 59.7132 40.3149C59.8305 40.3501 59.9371 40.409 60.033 40.4917C60.1289 40.5744 60.2066 40.684 60.2662 40.8205C60.3257 40.9561 60.3602 41.1227 60.3696 41.3204L60.3767 41.4708L58.6443 41.5531L58.6292 41.2353L59.9459 41.1727C59.9406 41.0611 59.9132 40.9633 59.8637 40.8794C59.8142 40.7946 59.7471 40.729 59.6624 40.6828C59.5787 40.6365 59.4819 40.616 59.3722 40.6212C59.253 40.6269 59.1504 40.6611 59.0642 40.724C58.979 40.7859 58.9145 40.8648 58.8707 40.9607C58.8278 41.0557 58.809 41.1575 58.8141 41.2663L58.8259 41.5146C58.8328 41.6603 58.8643 41.783 58.9202 41.8827C58.9771 41.9824 59.0531 42.057 59.1484 42.1065C59.2436 42.1551 59.3532 42.1764 59.4771 42.1705C59.5575 42.1667 59.6303 42.1519 59.6954 42.126C59.7605 42.0992 59.8161 42.0615 59.8621 42.0129C59.9081 41.9642 59.9423 41.9053 59.9646 41.8359L60.3696 41.8892C60.343 42.009 60.2903 42.1153 60.2112 42.2082C60.1331 42.3001 60.0328 42.3736 59.9103 42.4287C59.7887 42.4828 59.6484 42.5136 59.4895 42.5212ZM59.1487 40.0175L59.4497 39.3476L59.8966 39.3264L59.4878 40.0014L59.1487 40.0175ZM43.1863 48.3055C43.0482 48.3121 42.9221 48.2925 42.8081 48.2467C42.694 48.2 42.602 48.129 42.532 48.0337C42.463 47.9384 42.4251 47.8193 42.4183 47.6765C42.4125 47.5535 42.4313 47.4512 42.4749 47.3695C42.5184 47.2878 42.5792 47.2218 42.6574 47.1717C42.7356 47.1215 42.8238 47.0822 42.922 47.0539C43.0202 47.0255 43.1206 47.0027 43.2231 46.9855C43.3529 46.9642 43.4583 46.9469 43.5392 46.9335C43.62 46.9193 43.6784 46.8999 43.7142 46.8755C43.75 46.851 43.7667 46.8132 43.7643 46.7622L43.7638 46.7522C43.7579 46.6283 43.7183 46.534 43.6451 46.4692C43.5728 46.4044 43.4681 46.3752 43.331 46.3817C43.1881 46.3885 43.0771 46.4255 42.9978 46.4928C42.9194 46.5591 42.8664 46.6313 42.8388 46.7094L42.4358 46.6375C42.4768 46.5029 42.5408 46.3927 42.6278 46.307C42.7156 46.2204 42.8182 46.1558 42.9357 46.1132C43.0531 46.0697 43.1775 46.0449 43.309 46.0386C43.396 46.0345 43.4887 46.0405 43.5871 46.0567C43.6864 46.0719 43.7799 46.1044 43.8676 46.1543C43.9563 46.2041 44.0304 46.2779 44.09 46.3755C44.1496 46.4722 44.1832 46.6001 44.1907 46.759L44.2595 48.2062L43.8452 48.2259L43.831 47.9279L43.814 47.9287C43.7892 47.9849 43.7506 48.0408 43.6982 48.0963C43.6459 48.1519 43.5775 48.1992 43.4931 48.2383C43.4087 48.2774 43.3064 48.2998 43.1863 48.3055ZM43.2623 47.9606C43.3796 47.955 43.4788 47.9271 43.5598 47.8768C43.6418 47.8265 43.7028 47.7629 43.7427 47.6861C43.7836 47.6083 43.802 47.5264 43.7979 47.4403L43.7846 47.1594C43.7701 47.1752 43.7415 47.1908 43.6986 47.2061C43.6566 47.2204 43.6084 47.2336 43.554 47.2457C43.4996 47.2568 43.4465 47.2674 43.3948 47.2774C43.3431 47.2865 43.2999 47.2943 43.2651 47.3007C43.1833 47.315 43.1089 47.336 43.042 47.3639C42.976 47.3917 42.9238 47.4297 42.8853 47.478C42.8477 47.5253 42.8307 47.5867 42.8343 47.6624C42.8393 47.7674 42.8819 47.845 42.962 47.8952C43.0421 47.9445 43.1422 47.9663 43.2623 47.9606ZM46.1621 47.21L46.1016 45.9344L46.5272 45.9142L46.6307 48.0936L46.2136 48.1134L46.1957 47.736L46.173 47.737C46.1284 47.8558 46.0526 47.9565 45.9456 48.0394C45.8395 48.1212 45.7046 48.166 45.541 48.1738C45.401 48.1804 45.2756 48.1556 45.1649 48.0992C45.055 48.0418 44.9664 47.9536 44.8992 47.8345C44.8328 47.7154 44.7954 47.5659 44.7869 47.3862L44.721 46L45.1452 45.9798L45.2087 47.315C45.2157 47.4635 45.2625 47.5798 45.349 47.6638C45.4354 47.7479 45.5444 47.7868 45.6759 47.7806C45.7553 47.7768 45.8334 47.7532 45.91 47.7097C45.9876 47.6662 46.0505 47.603 46.0987 47.5201C46.1478 47.4372 46.169 47.3338 46.1621 47.21ZM47.0972 45.8871L47.5215 45.867L47.6317 48.1882C47.6387 48.3339 47.618 48.4581 47.5698 48.5609C47.5225 48.6636 47.4486 48.7435 47.348 48.8004C47.2483 48.8573 47.1232 48.8893 46.9728 48.8964C46.9577 48.8971 46.9435 48.8978 46.9303 48.8984C46.9161 48.8991 46.9014 48.8993 46.8862 48.8991L46.8689 48.5345C46.8821 48.5338 46.894 48.5333 46.9044 48.5328C46.9138 48.5323 46.9247 48.5318 46.937 48.5312C47.0373 48.5265 47.1083 48.4961 47.1502 48.44C47.1931 48.3849 47.2122 48.3067 47.2074 48.2055L47.0972 45.8871ZM47.2913 45.5409C47.2175 45.5444 47.1529 45.5228 47.0976 45.4761C47.0432 45.4285 47.0144 45.3701 47.0111 45.3011C47.0078 45.2311 47.0309 45.1702 47.0806 45.1186C47.1312 45.0659 47.1934 45.0378 47.2672 45.0343C47.341 45.0308 47.4051 45.0529 47.4595 45.1006C47.5148 45.1472 47.5441 45.2056 47.5474 45.2756C47.5507 45.3446 47.527 45.4055 47.4765 45.4581C47.4268 45.5098 47.365 45.5374 47.2913 45.5409ZM49.1158 48.0196C48.9115 48.0293 48.731 47.9909 48.5742 47.9045C48.4175 47.8181 48.293 47.6927 48.2009 47.5284C48.1087 47.364 48.0572 47.1692 48.0465 46.9441C48.0358 46.718 48.0685 46.5184 48.1446 46.345C48.2208 46.1717 48.3328 46.0346 48.4806 45.9337C48.6285 45.8329 48.8045 45.7776 49.0089 45.7679C49.2132 45.7582 49.3937 45.7965 49.5504 45.8829C49.7072 45.9693 49.8317 46.0952 49.9239 46.2605C50.0161 46.4258 50.0676 46.6215 50.0783 46.8476C50.089 47.0727 50.0563 47.2715 49.9801 47.4438C49.9039 47.6162 49.7919 47.7528 49.6441 47.8537C49.4962 47.9546 49.3201 48.0099 49.1158 48.0196ZM49.1003 47.6634C49.2327 47.6571 49.3408 47.6169 49.4245 47.5428C49.5082 47.4686 49.5681 47.3724 49.6042 47.2541C49.6412 47.1357 49.6564 47.0065 49.6498 46.8665C49.6432 46.7275 49.6158 46.6008 49.5677 46.4865C49.5205 46.3712 49.4517 46.2801 49.3614 46.2133C49.271 46.1465 49.1596 46.1162 49.0271 46.1225C48.8938 46.1289 48.7848 46.1696 48.7002 46.2447C48.6165 46.3198 48.5562 46.417 48.5192 46.5363C48.4831 46.6546 48.4684 46.7833 48.475 46.9223C48.4816 47.0623 48.5085 47.1895 48.5557 47.3039C48.6038 47.4182 48.673 47.5083 48.7633 47.5742C48.8546 47.64 48.9669 47.6697 49.1003 47.6634ZM51.9408 46.9355L51.8802 45.6599L52.3059 45.6397L52.4094 47.8191L51.9922 47.8389L51.9743 47.4615L51.9516 47.4625C51.907 47.5813 51.8312 47.682 51.7242 47.7649C51.6181 47.8467 51.4833 47.8915 51.3196 47.8993C51.1796 47.9059 51.0543 47.8811 50.9435 47.8247C50.8337 47.7673 50.7451 47.6791 50.6778 47.56C50.6115 47.4409 50.574 47.2914 50.5655 47.1117L50.4996 45.7255L50.9239 45.7053L50.9873 47.0405C50.9944 47.189 51.0411 47.3053 51.1276 47.3893C51.2141 47.4734 51.323 47.5123 51.4545 47.5061C51.534 47.5023 51.612 47.4787 51.6886 47.4352C51.7662 47.3917 51.8291 47.3285 51.8773 47.2456C51.9265 47.1627 51.9476 47.0593 51.9408 46.9355ZM52.9794 47.792L52.8759 45.6126L53.2859 45.5931L53.3024 45.9393L53.3251 45.9383C53.3592 45.8191 53.4248 45.7235 53.5219 45.6516C53.6199 45.5787 53.7327 45.5392 53.8604 45.5331C53.8869 45.5319 53.9182 45.5314 53.9542 45.5315C53.9912 45.5317 54.0202 45.5327 54.0411 45.5345L54.0604 45.9403C54.0431 45.9364 54.0126 45.9326 53.9688 45.929C53.925 45.9245 53.8813 45.9232 53.8378 45.9253C53.7376 45.93 53.6492 45.9556 53.5727 46.0019C53.4971 46.0472 53.4384 46.1083 53.3965 46.1852C53.3546 46.2611 53.3359 46.3464 53.3404 46.4409L53.4036 47.7718L52.9794 47.792ZM55.2527 47.7267C55.0767 47.735 54.9176 47.6975 54.7752 47.6142C54.6337 47.53 54.5198 47.406 54.4333 47.2423C54.3477 47.0776 54.2994 46.8775 54.2882 46.6419C54.277 46.4064 54.3067 46.2031 54.3772 46.0319C54.4487 45.8607 54.5514 45.7274 54.6853 45.6319C54.8192 45.5364 54.9736 45.4845 55.1486 45.4762C55.2839 45.4698 55.3937 45.4873 55.4782 45.5288C55.5635 45.5693 55.6303 45.6183 55.6785 45.6757C55.7277 45.7331 55.7662 45.7839 55.7939 45.8281L55.8194 45.8269L55.7681 44.7471L56.1923 44.727L56.3304 47.6328L55.9161 47.6525L55.9 47.3134L55.8645 47.3151C55.8412 47.3626 55.8068 47.4173 55.7614 47.4792C55.7169 47.5411 55.6541 47.5962 55.573 47.6446C55.4919 47.693 55.3851 47.7204 55.2527 47.7267ZM55.3291 47.3604C55.4511 47.3546 55.5527 47.3175 55.6338 47.2492C55.7159 47.1799 55.7759 47.0865 55.8139 46.9691C55.8529 46.8515 55.8688 46.7162 55.8615 46.5629C55.8543 46.4116 55.8262 46.2802 55.7773 46.1688C55.7284 46.0573 55.6604 45.9719 55.5732 45.9125C55.486 45.8532 55.3804 45.8264 55.2565 45.8323C55.1288 45.8384 55.024 45.8765 54.942 45.9468C54.86 46.017 54.8 46.1104 54.7619 46.2269C54.7248 46.3434 54.7096 46.4736 54.7165 46.6173C54.7234 46.763 54.7514 46.893 54.8004 47.0073C54.8494 47.1215 54.9181 47.2107 55.0065 47.2748C55.0958 47.3378 55.2033 47.3664 55.3291 47.3604ZM57.1625 44.6809L57.1754 44.9533C57.1793 45.0337 57.1681 45.1191 57.1421 45.2095C57.1169 45.2988 57.0793 45.3855 57.0293 45.4694C56.9792 45.5533 56.9192 45.6263 56.8491 45.6884L56.632 45.548C56.684 45.464 56.7281 45.3751 56.7644 45.2814C56.8017 45.1877 56.8177 45.0855 56.8124 44.9748L56.7993 44.6982L57.1625 44.6809ZM58.0946 46.2521L58.1561 47.5461L57.7319 47.5662L57.5938 44.6604L58.0124 44.6405L58.0637 45.7217L58.0907 45.7204C58.1362 45.6007 58.2098 45.5038 58.3115 45.4298C58.4132 45.3557 58.5488 45.3147 58.7181 45.3067C58.8675 45.2996 58.9995 45.3241 59.1141 45.3803C59.2295 45.4364 59.3209 45.524 59.3882 45.6431C59.4564 45.7613 59.4948 45.9111 59.5034 46.0927L59.5693 47.4789L59.145 47.4991L59.0816 46.164C59.074 46.0041 59.027 45.8821 58.9405 45.7981C58.854 45.7131 58.7374 45.6741 58.5908 45.681C58.4905 45.6858 58.4017 45.7113 58.3243 45.7577C58.2478 45.804 58.1888 45.8693 58.1473 45.9538C58.1067 46.0373 58.0891 46.1367 58.0946 46.2521ZM61.473 46.4827L61.4124 45.2071L61.8381 45.1869L61.9416 47.3663L61.5245 47.3861L61.5065 47.0087L61.4838 47.0097C61.4392 47.1285 61.3634 47.2292 61.2564 47.3121C61.1503 47.3939 61.0155 47.4387 60.8518 47.4465C60.7119 47.4531 60.5865 47.4283 60.4757 47.3719C60.3659 47.3145 60.2773 47.2263 60.21 47.1072C60.1437 46.9881 60.1063 46.8386 60.0977 46.6589L60.0319 45.2727L60.4561 45.2525L60.5195 46.5877C60.5266 46.7362 60.5733 46.8525 60.6598 46.9365C60.7463 47.0206 60.8553 47.0595 60.9867 47.0533C61.0662 47.0495 61.1442 47.0259 61.2209 46.9824C61.2984 46.9389 61.3613 46.8757 61.4095 46.7928C61.4587 46.7099 61.4798 46.6065 61.473 46.4827ZM62.5116 47.3392L62.4081 45.1598L62.8323 45.1397L62.9359 47.319L62.5116 47.3392ZM62.6064 44.8134C62.5326 44.8169 62.468 44.7953 62.4127 44.7486C62.3583 44.701 62.3295 44.6426 62.3262 44.5736C62.3229 44.5036 62.3461 44.4427 62.3958 44.3911C62.4463 44.3384 62.5085 44.3103 62.5823 44.3068C62.6561 44.3033 62.7202 44.3254 62.7746 44.3731C62.8299 44.4198 62.8592 44.4781 62.8625 44.5481C62.8658 44.6171 62.8422 44.678 62.7916 44.7306C62.7419 44.7823 62.6802 44.8099 62.6064 44.8134ZM63.7916 47.3054C63.7141 47.3091 63.6461 47.2848 63.5877 47.2326C63.5292 47.1794 63.4981 47.1136 63.4944 47.0351C63.4907 46.9575 63.5155 46.89 63.5687 46.8325C63.6218 46.774 63.6872 46.743 63.7648 46.7393C63.8423 46.7356 63.9103 46.7603 63.9688 46.8135C64.0272 46.8657 64.0583 46.9306 64.0619 47.0081C64.0644 47.0602 64.0534 47.1086 64.029 47.1533C64.0055 47.1971 63.9731 47.2328 63.9317 47.2603C63.8904 47.2879 63.8437 47.3029 63.7916 47.3054ZM64.8515 47.2551C64.774 47.2587 64.706 47.2345 64.6476 47.1823C64.5891 47.1291 64.558 47.0633 64.5543 46.9848C64.5506 46.9072 64.5754 46.8397 64.6286 46.7821C64.6817 46.7237 64.7471 46.6926 64.8246 46.6889C64.9022 46.6852 64.9702 46.71 65.0287 46.7631C65.0871 46.8153 65.1181 46.8802 65.1218 46.9578C65.1243 47.0098 65.1133 47.0582 65.0889 47.103C65.0654 47.1468 65.0329 47.1824 64.9916 47.21C64.9502 47.2376 64.9036 47.2526 64.8515 47.2551ZM65.9128 47.2046C65.8353 47.2083 65.7673 47.1841 65.7089 47.1318C65.6504 47.0787 65.6193 47.0129 65.6156 46.9343C65.6119 46.8568 65.6367 46.7892 65.6899 46.7317C65.743 46.6733 65.8084 46.6422 65.8859 46.6385C65.9635 46.6348 66.0315 46.6596 66.09 46.7127C66.1484 46.7649 66.1794 46.8298 66.1831 46.9074C66.1856 46.9594 66.1746 47.0078 66.1502 47.0526C66.1267 47.0964 66.0943 47.132 66.0529 47.1596C66.0115 47.1871 65.9649 47.2022 65.9128 47.2046Z" fill="black"/>
<path d="M113.593 30.3081C113.298 34.9172 109.759 35.4013 108.303 34.9614C104.89 41.5808 98.7423 39.0373 97.0478 36.5266C94.0624 39.3073 91.8898 35.8113 92.5699 34.0821C88.7253 34.5786 88.526 30.3912 90.3479 29.3943C88.1352 27.3319 89.5273 25.3832 90.4999 24.6667C89.3703 21.6035 92.3213 20.038 93.6106 20.7141C93.9685 16.2107 97.4784 16.8475 98.9698 17.8932C100.706 10.9193 106.629 14.2399 107.069 16.4068C108.146 15.8579 108.981 16.8314 109.263 17.3868C112.145 13.262 117.088 17.475 115.572 20.7334C120.536 24.4195 116.963 29.8889 113.593 30.3081Z" fill="white"/>
<path d="M106.481 41.2239C107.207 41.5954 107.527 43.2088 106.839 44.0425C106.151 44.8762 104.914 44.9613 104.154 44.2933C103.394 43.6252 103.166 42.6764 103.827 41.8749C104.489 41.0734 105.721 40.5559 106.481 41.2239Z" fill="white"/>
<path d="M107.054 46.7876C107.405 46.9888 107.543 47.7597 107.191 48.1861C106.839 48.6124 106.187 48.5293 105.857 48.2388C105.526 47.9484 105.351 47.4751 105.845 47.0027C106.201 46.5705 106.781 46.4938 107.054 46.7876Z" fill="white"/>
<path d="M95.4945 29.2997L93.847 26.4417L94.8283 25.8595C95.0424 25.7325 95.2432 25.6677 95.4306 25.6651C95.6179 25.6626 95.7871 25.7109 95.9379 25.8099C96.0883 25.908 96.2139 26.0445 96.3147 26.2194C96.4161 26.3952 96.4718 26.5744 96.482 26.7568C96.4926 26.9379 96.4506 27.1113 96.3562 27.2772C96.2622 27.4416 96.1085 27.587 95.8953 27.7136L95.2204 28.1139L95.0097 27.7483L95.6468 27.3703C95.7822 27.29 95.878 27.2007 95.9344 27.1023C95.9902 27.0031 96.0134 26.8994 96.004 26.7913C95.9946 26.6833 95.9589 26.5753 95.8966 26.4674C95.8344 26.3595 95.7595 26.2753 95.6718 26.215C95.5841 26.1546 95.484 26.126 95.3715 26.1291C95.2599 26.1316 95.1351 26.1738 94.9971 26.2557L94.4755 26.5651L95.9099 29.0533L95.4945 29.2997ZM98.4933 27.5844C98.3625 27.662 98.2297 27.707 98.095 27.7195C97.9598 27.7311 97.8333 27.7069 97.7157 27.6468C97.599 27.5862 97.5002 27.4856 97.4192 27.3451C97.3495 27.2242 97.3145 27.1114 97.3142 27.0066C97.314 26.9019 97.3388 26.8041 97.3887 26.7134C97.4386 26.6226 97.5039 26.5377 97.5846 26.4586C97.6653 26.3795 97.751 26.3049 97.8417 26.2349C97.9568 26.1467 98.0502 26.075 98.1219 26.02C98.1931 25.964 98.2397 25.9145 98.2618 25.8715C98.2838 25.8284 98.2804 25.7818 98.2514 25.7315L98.2458 25.7217C98.1756 25.5999 98.088 25.5251 97.983 25.4975C97.879 25.4693 97.762 25.4937 97.6321 25.5708C97.4967 25.6511 97.4081 25.7455 97.366 25.8541C97.3244 25.9613 97.3104 26.0613 97.3243 26.1542L96.8951 26.2889C96.8648 26.1321 96.8696 25.9882 96.9095 25.8571C96.9498 25.7246 97.016 25.6067 97.108 25.5035C97.1994 25.3993 97.3074 25.3102 97.432 25.2363C97.5144 25.1874 97.6077 25.1458 97.7118 25.1115C97.8163 25.0758 97.9241 25.0605 98.0354 25.0657C98.1475 25.0703 98.258 25.1065 98.3668 25.1743C98.4751 25.2412 98.5743 25.3527 98.6644 25.509L99.4849 26.9325L99.0924 27.1653L98.9235 26.8723L98.9073 26.8818C98.9125 26.9512 98.904 27.0274 98.8821 27.1103C98.8602 27.1932 98.8183 27.2761 98.7566 27.3589C98.6949 27.4417 98.6072 27.5169 98.4933 27.5844ZM98.3876 27.1976C98.4988 27.1317 98.5806 27.0525 98.6332 26.9602C98.6867 26.8673 98.7129 26.7718 98.7117 26.6739C98.7109 26.5745 98.6861 26.4824 98.6373 26.3978L98.478 26.1215C98.4723 26.1449 98.4525 26.1753 98.4188 26.2128C98.3855 26.2488 98.3455 26.2869 98.2989 26.327C98.2517 26.3662 98.2056 26.4042 98.1606 26.4408C98.1151 26.4766 98.0771 26.5066 98.0466 26.531C97.9746 26.5874 97.9132 26.6469 97.8627 26.7094C97.813 26.7713 97.782 26.8365 97.7697 26.905C97.7579 26.9719 97.7734 27.0426 97.8163 27.1171C97.8758 27.2203 97.9576 27.2767 98.0616 27.2861C98.1652 27.2946 98.2738 27.2651 98.3876 27.1976ZM100.02 26.6149L98.7846 24.4714L99.1731 24.2409L99.3694 24.5814L99.3909 24.5686C99.362 24.4309 99.3761 24.3009 99.433 24.1785C99.4903 24.0546 99.5794 23.9568 99.7004 23.885C99.7255 23.8701 99.7556 23.8535 99.7907 23.8352C99.8267 23.8163 99.8554 23.8024 99.8767 23.7935L100.107 24.1926C100.088 24.1976 100.056 24.2094 100.012 24.2283C99.9669 24.2463 99.9238 24.2675 99.8826 24.2919C99.7876 24.3483 99.715 24.4194 99.6648 24.5054C99.6149 24.59 99.5896 24.6817 99.5889 24.7808C99.5878 24.8788 99.614 24.9744 99.6676 25.0674L100.422 26.3764L100.02 26.6149ZM101.342 22.9542L101.535 23.2891L100.368 23.9813L100.175 23.6464L101.342 22.9542ZM101.731 25.6001L100.352 23.2082C100.275 23.0742 100.239 22.9463 100.244 22.8244C100.249 22.7016 100.286 22.5907 100.354 22.4917C100.421 22.3917 100.51 22.3093 100.619 22.2445C100.7 22.1966 100.773 22.1627 100.838 22.1426C100.903 22.1216 100.953 22.1084 100.987 22.1031L101.087 22.4967C101.065 22.5022 101.037 22.5101 101.003 22.5202C100.969 22.5294 100.931 22.5464 100.889 22.5714C100.791 22.6294 100.736 22.696 100.722 22.7712C100.71 22.8459 100.731 22.9307 100.786 23.0256L102.133 25.3617L101.731 25.6001ZM103.558 24.58C103.427 24.6576 103.294 24.7026 103.159 24.7151C103.024 24.7267 102.898 24.7024 102.78 24.6424C102.663 24.5818 102.565 24.4812 102.484 24.3407C102.414 24.2198 102.379 24.107 102.379 24.0022C102.378 23.8975 102.403 23.7997 102.453 23.709C102.503 23.6182 102.568 23.5333 102.649 23.4542C102.73 23.3751 102.815 23.3005 102.906 23.2305C103.021 23.1422 103.115 23.0706 103.186 23.0156C103.258 22.9596 103.304 22.9101 103.326 22.8671C103.348 22.824 103.345 22.7773 103.316 22.7271L103.31 22.7173C103.24 22.5955 103.152 22.5207 103.048 22.4931C102.943 22.4649 102.826 22.4893 102.697 22.5664C102.561 22.6467 102.473 22.7411 102.431 22.8497C102.389 22.9568 102.375 23.0569 102.389 23.1498L101.96 23.2845C101.929 23.1277 101.934 22.9838 101.974 22.8527C102.014 22.7202 102.08 22.6023 102.172 22.499C102.264 22.3948 102.372 22.3058 102.496 22.2319C102.579 22.183 102.672 22.1414 102.776 22.1071C102.881 22.0713 102.989 22.0561 103.1 22.0612C103.212 22.0659 103.322 22.1021 103.431 22.1699C103.54 22.2367 103.639 22.3483 103.729 22.5046L104.549 23.9281L104.157 24.1609L103.988 23.8678L103.972 23.8774C103.977 23.9468 103.969 24.023 103.947 24.1059C103.925 24.1888 103.883 24.2717 103.821 24.3545C103.759 24.4373 103.672 24.5125 103.558 24.58ZM103.452 24.1932C103.563 24.1273 103.645 24.0481 103.698 23.9558C103.751 23.8629 103.777 23.7674 103.776 23.6695C103.775 23.5701 103.751 23.478 103.702 23.3934L103.543 23.1171C103.537 23.1404 103.517 23.1709 103.483 23.2084C103.45 23.2444 103.41 23.2825 103.363 23.3226C103.316 23.3618 103.27 23.3998 103.225 23.4364C103.18 23.4722 103.142 23.5022 103.111 23.5265C103.039 23.583 102.978 23.6425 102.927 23.705C102.877 23.7669 102.846 23.8321 102.834 23.9006C102.822 23.9675 102.838 24.0382 102.881 24.1127C102.94 24.2159 103.022 24.2723 103.126 24.2817C103.23 24.2902 103.338 24.2607 103.452 24.1932ZM105.085 23.6105L103.849 21.4669L104.251 21.2285L105.487 23.372L105.085 23.6105ZM103.861 21.0158C103.792 21.0573 103.718 21.0687 103.639 21.0501C103.562 21.03 103.503 20.986 103.464 20.9181C103.424 20.8493 103.415 20.776 103.437 20.6984C103.458 20.6193 103.504 20.5591 103.574 20.5176C103.644 20.4761 103.718 20.4654 103.796 20.4855C103.874 20.5041 103.933 20.5478 103.972 20.6167C104.011 20.6846 104.02 20.7581 103.998 20.8372C103.977 20.9148 103.931 20.9743 103.861 21.0158ZM105.756 20.336L105.949 20.6709L104.821 21.3399L104.628 21.005L105.756 20.336ZM104.634 20.312L105.036 20.0736L106.205 22.1013C106.252 22.1822 106.298 22.2363 106.345 22.2634C106.392 22.2896 106.438 22.2992 106.483 22.2923C106.529 22.2839 106.573 22.2667 106.617 22.2406C106.65 22.2215 106.676 22.2024 106.698 22.1834C106.719 22.1644 106.736 22.1495 106.748 22.1388L107.019 22.4404C107.001 22.4635 106.974 22.4925 106.936 22.5273C106.899 22.5631 106.848 22.6006 106.784 22.6398C106.68 22.7044 106.57 22.7433 106.455 22.7566C106.34 22.7699 106.229 22.7505 106.123 22.6984C106.018 22.6463 105.927 22.5556 105.853 22.4263L104.634 20.312ZM107.716 22.0851C107.642 22.1287 107.564 22.1392 107.48 22.1166C107.395 22.0931 107.331 22.0427 107.286 21.9655C107.242 21.8892 107.231 21.8084 107.253 21.7231C107.274 21.6368 107.321 21.5719 107.395 21.5283C107.468 21.4847 107.547 21.4747 107.632 21.4982C107.716 21.5208 107.78 21.5703 107.824 21.6465C107.853 21.6977 107.868 21.7521 107.868 21.8098C107.867 21.866 107.855 21.9187 107.829 21.9677C107.803 22.0168 107.765 22.0559 107.716 22.0851ZM99.5967 30.8486C99.7726 31.1538 99.87 31.448 99.8891 31.7314C99.9076 32.0138 99.8572 32.2697 99.738 32.4989C99.6192 32.7267 99.441 32.9111 99.2036 33.052C98.9652 33.1934 98.7185 33.261 98.4637 33.2549C98.2092 33.2473 97.9648 33.1657 97.7307 33.0099C97.4966 32.8541 97.2919 32.6241 97.1165 32.3199C96.9406 32.0148 96.8434 31.721 96.8249 31.4385C96.8059 31.1552 96.8558 30.8996 96.9746 30.6718C97.0938 30.4425 97.2726 30.2572 97.5109 30.1158C97.7484 29.9749 97.9944 29.9082 98.2489 29.9158C98.5038 29.9219 98.7483 30.0029 98.9824 30.1586C99.216 30.3135 99.4207 30.5435 99.5967 30.8486ZM99.1853 31.0926C99.0512 30.8601 98.902 30.6857 98.7377 30.5697C98.5738 30.4522 98.4055 30.3898 98.2328 30.3823C98.0605 30.3734 97.8955 30.4158 97.7378 30.5093C97.5792 30.6034 97.4615 30.7288 97.3846 30.8855C97.3072 31.0413 97.2784 31.2207 97.298 31.4238C97.3181 31.6254 97.3951 31.8425 97.5292 32.0751C97.6633 32.3077 97.8123 32.4827 97.9762 32.6002C98.1405 32.7162 98.3088 32.7787 98.4811 32.7876C98.6529 32.7956 98.8181 32.7525 98.9767 32.6584C99.1344 32.5649 99.252 32.4402 99.3293 32.2844C99.4071 32.1272 99.4359 31.9478 99.4159 31.7461C99.3963 31.5431 99.3194 31.3252 99.1853 31.0926ZM100.574 30.4784L101.308 31.7511L100.906 31.9896L99.6704 29.846L100.056 29.6172L100.257 29.966L100.283 29.9509C100.265 29.8092 100.287 29.6739 100.348 29.545C100.411 29.4155 100.52 29.3048 100.675 29.2129C100.815 29.1294 100.956 29.087 101.097 29.0857C101.238 29.0834 101.372 29.125 101.499 29.2105C101.627 29.2959 101.742 29.427 101.843 29.6038L102.629 30.9672L102.227 31.2057L101.47 29.8925C101.381 29.7371 101.272 29.6388 101.144 29.5976C101.015 29.5555 100.882 29.5748 100.746 29.6556C100.653 29.7109 100.582 29.781 100.533 29.866C100.486 29.9504 100.464 30.0455 100.469 30.1514C100.474 30.2559 100.509 30.3649 100.574 30.4784ZM105.525 30.3881C105.361 30.4853 105.207 30.5467 105.063 30.5723C104.92 30.5973 104.79 30.5951 104.673 30.5657C104.556 30.5363 104.454 30.4888 104.367 30.4231L104.627 30.0703C104.675 30.0969 104.732 30.121 104.799 30.1426C104.867 30.1647 104.945 30.1713 105.034 30.1624C105.124 30.1529 105.224 30.1153 105.335 30.0493C105.488 29.959 105.591 29.8457 105.646 29.7094C105.702 29.5741 105.681 29.4227 105.585 29.2553L105.342 28.8338L105.316 28.849C105.318 28.9089 105.312 28.9804 105.299 29.0633C105.286 29.1457 105.252 29.2308 105.197 29.3185C105.142 29.4062 105.051 29.4875 104.925 29.5625C104.762 29.6593 104.592 29.7069 104.415 29.7054C104.239 29.7025 104.068 29.646 103.903 29.5358C103.737 29.4242 103.589 29.2544 103.458 29.0264C103.326 28.7985 103.251 28.5811 103.231 28.3741C103.213 28.1667 103.244 27.9809 103.325 27.8167C103.405 27.6516 103.528 27.5199 103.694 27.4216C103.822 27.3456 103.939 27.3065 104.043 27.3043C104.147 27.3013 104.238 27.316 104.316 27.3486C104.394 27.3806 104.459 27.4118 104.509 27.4421L104.538 27.4246L104.338 27.0771L104.732 26.8434L105.995 29.0344C106.101 29.2186 106.147 29.3942 106.133 29.5613C106.118 29.7284 106.057 29.882 105.949 30.0222C105.842 30.1619 105.701 30.2839 105.525 30.3881ZM104.814 29.1638C104.929 29.0952 105.011 29.0093 105.059 28.9062C105.107 28.8016 105.121 28.6845 105.102 28.5549C105.082 28.4239 105.03 28.2844 104.945 28.1365C104.862 27.9923 104.768 27.8775 104.664 27.7922C104.559 27.7069 104.449 27.6571 104.334 27.6431C104.218 27.628 104.102 27.6554 103.984 27.725C103.863 27.7968 103.781 27.8891 103.738 28.0021C103.695 28.1142 103.684 28.2378 103.707 28.3729C103.73 28.5076 103.781 28.6433 103.86 28.78C103.941 28.9205 104.033 29.0315 104.135 29.1131C104.238 29.1948 104.346 29.2414 104.461 29.2531C104.577 29.2643 104.695 29.2345 104.814 29.1638ZM107.421 28.1825C107.218 28.3032 107.017 28.362 106.818 28.3589C106.619 28.3544 106.432 28.2935 106.258 28.1761C106.083 28.0573 105.932 27.8867 105.804 27.6644C105.677 27.4448 105.605 27.2279 105.588 27.0137C105.571 26.7989 105.607 26.6023 105.695 26.4238C105.784 26.2447 105.925 26.0983 106.116 25.9846C106.233 25.9155 106.357 25.8685 106.49 25.8436C106.622 25.8188 106.757 25.8233 106.893 25.8574C107.029 25.8914 107.162 25.9619 107.291 26.0689C107.419 26.1749 107.54 26.3252 107.652 26.5196L107.737 26.6676L106.096 27.6413L105.915 27.3287L107.163 26.5886C107.1 26.4788 107.022 26.3944 106.93 26.3352C106.838 26.2752 106.738 26.2436 106.632 26.2405C106.527 26.237 106.422 26.266 106.318 26.3277C106.205 26.3946 106.123 26.482 106.072 26.5896C106.021 26.6958 106 26.8085 106.007 26.9277C106.015 27.0455 106.05 27.1579 106.111 27.2649L106.252 27.5091C106.335 27.6523 106.429 27.7599 106.535 27.8316C106.643 27.9029 106.755 27.939 106.874 27.9399C106.992 27.9399 107.109 27.9051 107.227 27.8354C107.303 27.7902 107.366 27.7379 107.416 27.6783C107.465 27.6179 107.499 27.5513 107.519 27.4786C107.538 27.4059 107.541 27.3288 107.526 27.2475L107.948 27.093C107.984 27.2274 107.988 27.3617 107.96 27.4959C107.932 27.6287 107.873 27.7543 107.782 27.8729C107.692 27.99 107.572 28.0932 107.421 28.1825ZM105.796 25.8285L105.009 25.4315L105.433 25.1803L106.117 25.6379L105.796 25.8285ZM108.728 27.3492L107.493 25.2056L107.881 24.9752L108.077 25.3157L108.099 25.3029C108.07 25.1652 108.084 25.0352 108.141 24.9128C108.198 24.7889 108.287 24.6911 108.408 24.6193C108.433 24.6044 108.464 24.5878 108.499 24.5695C108.535 24.5506 108.563 24.5367 108.585 24.5278L108.815 24.9269C108.796 24.9319 108.764 24.9437 108.72 24.9626C108.675 24.9806 108.632 25.0018 108.591 25.0262C108.496 25.0826 108.423 25.1537 108.373 25.2397C108.323 25.3243 108.298 25.416 108.297 25.5151C108.296 25.6131 108.322 25.7087 108.376 25.8017L109.13 27.1107L108.728 27.3492ZM111.022 26.0465C110.819 26.1672 110.617 26.226 110.418 26.223C110.22 26.2185 110.033 26.1575 109.858 26.0402C109.684 25.9213 109.533 25.7508 109.405 25.5284C109.278 25.3088 109.206 25.0919 109.188 24.8777C109.171 24.6629 109.207 24.4663 109.296 24.2878C109.385 24.1088 109.525 23.9624 109.717 23.8486C109.834 23.7795 109.958 23.7325 110.09 23.7076C110.223 23.6828 110.357 23.6874 110.493 23.7214C110.63 23.7554 110.762 23.8259 110.891 23.9329C111.02 24.039 111.14 24.1892 111.252 24.3837L111.337 24.5316L109.696 25.5053L109.516 25.1927L110.763 24.4526C110.7 24.3429 110.623 24.2584 110.531 24.1993C110.438 24.1392 110.339 24.1076 110.233 24.1046C110.127 24.101 110.022 24.13 109.918 24.1917C109.806 24.2587 109.724 24.346 109.673 24.4536C109.622 24.5598 109.6 24.6725 109.608 24.7918C109.615 24.9095 109.65 25.0219 109.712 25.1289L109.853 25.3731C109.935 25.5164 110.03 25.6239 110.136 25.6957C110.243 25.7669 110.356 25.803 110.474 25.8039C110.592 25.8039 110.71 25.7691 110.827 25.6994C110.903 25.6543 110.966 25.6019 111.016 25.5423C111.066 25.4819 111.1 25.4153 111.119 25.3426C111.139 25.2699 111.141 25.1929 111.127 25.1115L111.548 24.957C111.585 25.0914 111.589 25.2257 111.561 25.3599C111.533 25.4927 111.473 25.6184 111.383 25.7369C111.293 25.854 111.173 25.9572 111.022 26.0465ZM112.609 25.0826C112.535 25.1262 112.457 25.1367 112.373 25.1141C112.288 25.0906 112.224 25.0402 112.179 24.963C112.135 24.8867 112.124 24.8059 112.146 24.7206C112.167 24.6343 112.214 24.5694 112.288 24.5258C112.361 24.4822 112.44 24.4722 112.525 24.4957C112.609 24.5183 112.673 24.5677 112.717 24.644C112.746 24.6952 112.761 24.7496 112.761 24.8073C112.76 24.8635 112.748 24.9161 112.722 24.9652C112.696 25.0142 112.658 25.0534 112.609 25.0826Z" fill="black"/>
</svg>
