<svg width="683" height="647" viewBox="0 0 683 647" fill="none" xmlns="http://www.w3.org/2000/svg">
<path d="M331.009 141.322C474.798 112.028 540.182 144.164 540.182 144.164C539.718 144.164 539.282 144.205 538.872 144.278C546.088 146.166 553.41 148.527 560.743 151.371C590.912 163.075 615.164 180.599 629.315 198.992C656.795 221.717 667.682 264.822 671.531 286.164C678.571 321.21 670.5 352.033 647.95 364.199C646.489 364.987 644.992 365.681 643.463 366.287C618.573 400.899 623.601 449.154 640.096 479.561C656.748 510.258 658.5 536.692 603.286 592.117C548.071 647.543 417.484 667.156 180.85 621.962C-35.177 580.705 -1.0333 433.915 6.55176 408.661C7.8781 385.36 18.7481 357.054 38.2891 330.667C39.9502 328.424 41.6435 326.234 43.3672 324.1C84.7181 255.805 195.877 168.852 331.009 141.322Z" fill="#D9DCB9"/>
<path d="M67.9319 441.235L71.2244 469.079H79.0441L80.5098 440.996L67.9319 441.235Z" fill="#7F4C28"/>
<path d="M408.07 441.235L404.779 469.079H396.958L395.493 440.996L408.07 441.235Z" fill="#7F4C28"/>
<path d="M69.4582 356.61L109.443 355.501L107.87 402.745L69.4582 414.852V356.61Z" fill="#D5BD99"/>
<path d="M409.471 356.16L369.486 355.052L371.059 402.295L409.471 414.403V356.16Z" fill="#D5BD99"/>
<path d="M98.5113 403.13L111.45 345.829C116.288 324.405 135.321 309.19 157.285 309.19H321.701C343.906 309.19 363.079 324.733 367.673 346.456L379.658 403.129H98.5113V403.13Z" fill="#F3E1CA"/>
<path d="M102.969 401.042H229.083H249.177H375.29C388.174 401.042 398.619 410.482 398.619 422.127V450.309H249.177H229.083H79.6407V422.127C79.6407 410.482 90.0848 401.042 102.969 401.042Z" fill="#E9CA9E"/>
<path d="M387.557 450.758V370.528C387.557 362.593 393.959 356.16 401.857 356.16H407.702C415.6 356.16 422.002 362.593 422.002 370.528V450.758H387.557Z" fill="#F3E1CA"/>
<path d="M91.3789 450.758V370.91C91.3789 363.012 84.9767 356.61 77.0789 356.61H71.2337C63.3359 356.61 56.9337 363.012 56.9337 370.91V450.758H91.3789Z" fill="#F3E1CA"/>
<path d="M404.779 382.319C401.696 382.319 399.196 379.723 399.196 376.52C399.196 373.317 401.696 370.72 404.779 370.72C407.862 370.72 410.361 373.317 410.361 376.52C410.361 379.723 407.862 382.319 404.779 382.319Z" fill="#D5BD99"/>
<path d="M403.866 388.92V435.54C403.866 435.54 413.326 412.23 403.866 388.92Z" fill="#D5BD99"/>
<path d="M91.3782 421.083H387.555V450.759H91.3782V421.083Z" fill="#F3E1CA"/>
<path d="M296.639 318.129V377.099C296.639 377.099 308.605 347.614 296.639 318.129Z" fill="#D5BD99"/>
<path d="M73.308 380.129C70.2249 380.129 67.7255 377.532 67.7255 374.329C67.7255 371.126 70.2249 368.53 73.308 368.53C76.3912 368.53 78.8906 371.126 78.8906 374.329C78.8906 377.532 76.3912 380.129 73.308 380.129Z" fill="#D5BD99"/>
<path d="M185.477 319.997V378.968C185.477 378.968 173.511 349.483 185.477 319.997Z" fill="#D5BD99"/>
<path d="M74.2188 386.729V433.349C74.2188 433.349 64.7591 410.039 74.2188 386.729Z" fill="#D5BD99"/>
<path d="M382.551 433.349H94.0496C94.0496 433.349 192.702 446.002 382.551 433.349Z" fill="#D5BD99"/>
<path d="M122.711 357.985C122.711 357.985 134.471 388.664 133.96 393.777C133.449 398.89 129.87 405.114 127.484 405.115L87.2592 405.417C87.2592 405.417 82.6194 404.515 80.2528 396.845C77.8862 389.176 70.2165 360.031 70.2165 359.179C70.2165 358.326 69.1935 353.416 73.796 349.651C78.3977 345.884 108.736 346.817 114.531 348.612C118.775 349.927 120.431 351.89 122.711 357.985Z" fill="#DE8B2E"/>
<path d="M78.4153 352.018L93.1523 401.591C93.1523 401.591 72.349 374.263 78.4153 352.018Z" fill="#BC7228"/>
<path d="M104.928 367.033L88.7107 352.707C88.7107 352.707 103.42 358.363 104.928 367.033Z" fill="#BC7228"/>
<path d="M115.235 353.838L111.59 366.279C111.59 366.279 118.125 360.122 115.235 353.838Z" fill="#BC7228"/>
<path d="M109.33 376.805L102.05 395.057C102.05 395.057 101.036 381.047 109.33 376.805Z" fill="#BC7228"/>
<path d="M130.818 391.664L115.236 377.589C115.236 377.589 128.933 381.807 130.818 391.664Z" fill="#BC7228"/>
<path d="M342.285 402.181C342.285 402.181 346.401 407.353 352.417 414.188C352.417 414.188 352.417 414.197 352.425 414.205C352.936 414.781 353.464 415.374 354 415.975C356.054 418.288 359.253 418.28 362.752 417.054C367.209 415.487 372.161 411.948 375.872 408.708C377.958 406.882 379.655 405.152 380.653 403.926C380.653 403.918 380.662 403.918 380.67 403.91C382.529 401.954 383.024 398.666 383.024 398.666C383.901 397.927 384.307 395.012 380.994 396.774C379.63 397.505 375.977 398.56 372.169 399.55C372.169 399.55 372.169 399.55 372.161 399.559C366.73 400.971 360.966 402.254 360.966 402.254C360.332 402.4 359.699 402.644 359.115 402.92L354 394.606L342.285 402.181Z" fill="#FCAD4F"/>
<path d="M375.872 408.708C377.958 406.882 379.655 405.152 380.653 403.926C380.653 403.918 380.662 403.918 380.67 403.91C382.529 401.954 383.024 398.665 383.024 398.665C383.901 397.927 384.307 395.012 380.994 396.774C379.63 397.504 375.977 398.56 372.169 399.55C372.169 399.55 372.169 399.55 372.161 399.559C372.08 399.867 370.489 406.094 375.872 408.708Z" fill="#FCAD4F"/>
<path d="M356.762 399.093C356.762 399.093 357.114 400.427 355.185 401.069C353.257 401.712 352.378 402.355 352.039 403.099C351.701 403.844 350.45 404.892 349.198 405.061C347.946 405.23 346.458 406.381 346.593 407.413L345.611 406.239C345.611 406.239 345.714 404.621 347.676 403.911C349.638 403.201 351.16 402.423 351.532 401.712C351.904 401.002 353.494 399.92 354.678 399.886C355.862 399.852 356.119 398.048 356.119 398.048L356.762 399.093Z" fill="#FCAD4F"/>
<path d="M356.287 411.387C356.287 411.387 354.968 411.336 354.257 409.865C353.547 408.394 353.699 407.784 353.699 407.784C353.699 407.784 351.467 411.895 356.287 411.387Z" fill="#FCAD4F"/>
<path d="M352.419 414.189C352.419 414.189 352.419 414.197 352.427 414.205C352.938 414.781 353.466 415.374 354.002 415.975C356.056 418.288 359.255 418.28 362.754 417.054C362.754 417.054 360.749 413.417 357.761 413.263C354.765 413.117 352.419 414.189 352.419 414.189Z" fill="#FCAD4F"/>
<path d="M380.693 399.057L376.431 399.717C376.431 399.717 378.207 397.839 380.693 399.057Z" fill="#FCAD4F"/>
<path d="M139.617 383.686C139.617 383.686 158.87 416.674 182.419 412.337C205.968 408.002 210.115 342.78 210.115 342.78H199.371C199.371 342.78 189.569 380.669 181.086 383.685C172.604 386.701 161.67 374.842 161.67 374.842C161.67 374.842 145.084 368.794 139.617 383.686Z" fill="#E2B288"/>
<path d="M199.39 342.951C199.39 342.951 198.051 340.17 197.177 335.636C196.302 331.103 200.331 327.017 200.838 325.859C201.346 324.7 203.373 325.279 201.852 330.277C200.331 335.274 204.025 331.871 206.487 328.321C208.949 324.772 206.777 320.789 209.964 316.95C213.15 313.112 212.788 320.137 212.281 322.527C212.281 322.527 214.02 323.469 214.382 325.713C214.744 327.958 214.382 329.388 214.382 329.388C214.382 329.388 215.54 330.638 215.396 332.594C215.251 334.549 214.744 334.912 214.744 334.912C214.744 334.912 215.468 336.07 214.961 338.533C214.455 340.995 209.312 348.31 209.312 348.31L199.39 342.951Z" fill="#E2B288"/>
<path d="M139.621 347.062L147.186 355.678C147.186 355.678 133.648 363.943 126.042 361.852L112.699 346.276C112.699 346.276 134.046 351.451 139.621 347.062Z" fill="#E2B288"/>
<path d="M108.799 338.067C110.542 335.64 112.299 335.43 113.332 335.586C111.056 327.412 111.838 316.54 128.026 310.495C128.026 310.495 133.819 312.886 135.713 318.832C137.607 324.778 145.167 324.931 145.167 324.931C145.167 324.931 147.576 335.719 150.666 341.607C150.666 341.607 145.532 348.935 133.525 350.331C121.518 351.726 118.406 346.248 118.406 346.248C111.316 349.499 106.092 341.837 108.799 338.067Z" fill="#F0CBA5"/>
<path d="M130.254 305.895C130.254 305.895 130.603 313.025 122.706 318.448C114.809 323.871 114.721 323.548 114.721 323.548C114.721 323.548 120.854 328.958 119.434 333.932C119.434 333.932 122.18 337.627 120.301 339.392C120.301 339.392 115.969 335.553 112.651 335.552C109.332 335.552 106.139 342.174 112.698 346.276C112.698 346.276 117.013 347.11 118.471 346.049C118.471 346.049 120.693 347.251 120.89 349.055C120.926 349.378 119.698 353.241 118.664 353.241C118.664 353.241 109.808 350.317 104.999 346.699C100.189 343.08 92.5731 334.532 96.496 327.277C96.496 327.277 97.2722 315.115 112.292 307.537C127.311 299.96 129.969 302.569 130.254 305.895Z" fill="#3E3E44"/>
<path d="M230.428 366.837L392.79 345.788L397.816 360.554C397.816 360.554 286.592 400.118 256.821 401.338C227.052 402.558 230.428 366.837 230.428 366.837Z" fill="#E6CFB0"/>
<path d="M147.18 355.678C147.18 355.678 131.308 361.793 124.682 360.271C124.682 360.271 124.806 381.308 138.95 396.598C153.094 411.888 170.153 412.926 199.181 412.608C227.303 412.302 228.576 410.765 228.576 410.765L232.352 366.836L184.222 362.752C184.222 362.752 160.053 356.068 147.18 355.678Z" fill="#889782"/>
<path d="M231.579 366.771C231.579 366.771 259.064 341.145 285.706 333.472C312.347 325.798 356.764 393.981 356.764 393.981L340.427 403.378L291.04 365.769C291.04 365.769 274.566 406.437 228.578 410.765L231.579 366.771Z" fill="#E6CFB0"/>
<path d="M135.716 380.66C135.716 380.66 154.97 413.648 178.519 409.311C202.068 404.976 206.215 339.755 206.215 339.755H195.471C195.471 339.755 185.669 377.643 177.186 380.659C168.703 383.675 157.77 371.816 157.77 371.816C157.77 371.816 141.183 365.768 135.716 380.66Z" fill="#F0CBA5"/>
<path d="M170.215 375.885L148.938 399.134C148.938 399.134 131.006 383.648 132.892 376.594C134.777 369.539 144.956 356.029 170.215 375.885Z" fill="#444C41"/>
<path d="M198.714 332.871C199.551 333.2 200.496 332.788 200.826 331.952L212.518 302.224C212.846 301.387 212.435 300.442 211.599 300.113C210.762 299.784 209.817 300.196 209.487 301.032L197.795 330.76C197.466 331.596 197.877 332.542 198.714 332.871Z" fill="#666666"/>
<path d="M195.485 339.925C195.485 339.925 194.147 337.144 193.272 332.61C192.398 328.077 196.426 323.991 196.934 322.833C197.44 321.674 199.468 322.253 197.948 327.251C196.427 332.248 200.12 328.845 202.583 325.295C205.045 321.747 202.873 317.763 206.059 313.924C209.246 310.086 208.884 317.111 208.377 319.501C208.377 319.501 210.115 320.443 210.477 322.688C210.839 324.933 210.477 326.362 210.477 326.362C210.477 326.362 211.636 327.612 211.491 329.568C211.347 331.524 210.839 331.886 210.839 331.886C210.839 331.886 211.564 333.045 211.057 335.507C210.55 337.969 205.408 345.284 205.408 345.284L195.485 339.925Z" fill="#F0CBA5"/>
<path d="M115.583 340.2C115.583 340.2 117.217 341.674 116.64 342.475C116.063 343.276 118.754 345.486 118.754 345.486C118.754 345.486 118.314 346.224 117.733 346.416C117.733 346.416 114.236 343.981 113.852 341.835C113.784 341.459 113.778 341.153 113.813 340.904C113.931 340.078 114.915 339.7 115.583 340.2Z" fill="white"/>
<path d="M133.359 320.057C133.359 320.057 131.652 319.444 129.371 321.235C127.092 323.026 127.468 325.288 127.468 325.288C127.468 325.288 130.155 320.811 133.359 320.057Z" fill="#666666"/>
<path d="M133.303 325.096C134.163 326.273 135.176 326.996 135.565 326.712C135.954 326.428 135.571 325.243 134.711 324.067C133.85 322.891 132.838 322.167 132.449 322.451C132.061 322.735 132.443 323.92 133.303 325.096Z" fill="#666666"/>
<path d="M290.207 353.485V363.497C290.207 363.497 284.803 358.386 290.207 353.485Z" fill="#47436D"/>
<path d="M176.387 382.077L175.036 391.625C175.036 391.625 171.321 386.825 176.387 382.077Z" fill="#E2B288"/>
<path d="M393.313 347.453L395.538 361.23C395.538 361.23 401.927 359.542 410.606 356.781C410.606 356.781 410.614 356.781 410.622 356.781C411.361 356.538 412.116 356.294 412.879 356.05C415.826 355.092 417.101 352.162 417.385 348.468C417.669 344.676 416.914 340.073 415.842 335.965C415.583 334.974 415.307 334.016 415.023 333.099C414.186 330.452 413.285 328.203 412.563 326.799V326.791C412.546 326.636 412.538 326.49 412.522 326.344C412.254 322.658 409.071 321.408 408.666 322.553C408.43 323.235 408.292 324.436 408.219 325.305C407.813 325.508 407.391 325.776 407.18 326.109C406.709 326.848 405.54 329.218 405.377 329.624C405.28 329.868 405.304 331.053 405.337 331.946C405.256 332.238 405.191 332.531 405.142 332.807C405.142 332.807 405.142 332.807 405.15 332.815C404.98 333.87 404.801 334.934 404.622 335.965C404.606 336.046 404.59 336.135 404.582 336.217C403.835 340.495 403.12 344.157 403.12 344.157C402.999 344.79 402.966 345.472 402.982 346.113L393.313 347.453Z" fill="#FCAD4F"/>
<path d="M398.531 346.733C398.531 346.733 399.894 346.947 399.707 348.971C399.52 350.995 399.755 352.059 400.3 352.667C400.846 353.276 401.303 354.844 400.955 356.058C400.606 357.272 401.061 359.097 402.061 359.388L400.591 359.816C400.591 359.816 399.152 359.072 399.29 356.99C399.428 354.907 399.328 353.201 398.827 352.575C398.326 351.949 397.974 350.057 398.419 348.96C398.864 347.862 397.317 346.902 397.317 346.902L398.531 346.733Z" fill="#FCAD4F"/>
<path d="M409.596 352.112C409.596 352.112 409.019 353.3 407.386 353.358C405.753 353.417 405.256 353.033 405.256 353.033C405.256 353.033 408.123 356.73 409.596 352.112Z" fill="#FCAD4F"/>
<path d="M410.613 356.779C410.613 356.779 410.621 356.782 410.631 356.778C411.364 356.542 412.119 356.297 412.885 356.047C415.83 355.097 417.108 352.165 417.393 348.468C417.393 348.468 413.256 348.841 411.914 351.515C410.575 354.2 410.613 356.779 410.613 356.779Z" fill="#FCAD4F"/>
<path d="M404.585 336.217C410.215 332.907 413.542 335.005 415.846 335.965C415.586 334.974 415.31 334.016 415.026 333.099C414.189 330.452 413.288 328.203 412.566 326.799V326.791C412.55 326.637 412.541 326.49 412.525 326.344C412.257 322.658 409.075 321.408 408.669 322.553C408.433 323.235 408.295 324.436 408.222 325.305C407.816 325.508 407.394 325.776 407.183 326.109C406.712 326.848 405.543 329.218 405.381 329.624C405.283 329.868 405.308 331.053 405.34 331.946C405.259 332.238 405.194 332.531 405.145 332.807C405.145 332.807 405.145 332.807 405.153 332.815C404.983 333.87 404.804 334.934 404.626 335.965C404.609 336.046 404.593 336.135 404.585 336.217Z" fill="#FCAD4F"/>
<path d="M408.301 326.209V330.201C408.301 330.201 406.981 327.832 408.301 326.209Z" fill="#FCAD4F"/>
<path d="M136.9 340.67C137.653 337.68 143.216 334.952 147.312 336.069" stroke="#666666"/>
<path d="M344.26 391.294L294.482 355.678C294.482 355.678 326.635 383.02 342.788 391.497C344.007 392.136 343.93 391.497 344.26 391.294Z" fill="#444C41"/>
<path d="M292.668 354.489C292.668 354.489 291.621 351.986 289.592 352.256C287.562 352.527 286.818 353.948 286.818 353.948L235.128 390.482C235.128 390.482 279.578 356.27 285.938 353.485C285.938 353.485 290.466 348.332 292.668 354.489Z" fill="#444C41"/>
<path d="M349.336 386.219L333.504 396.774C333.504 396.774 346.291 393.391 349.336 386.219Z" fill="#D5BD99"/>
<path d="M354.678 393.662L349.671 387.64C349.671 387.64 351.972 393.865 354.678 393.662Z" fill="#D5BD99"/>
<path d="M348.184 396.504L345.003 393.392C345.003 393.392 345.342 396.301 348.184 396.504Z" fill="#D5BD99"/>
<path d="M342.279 399.48L337.691 396.503C337.691 396.503 338.14 400.292 342.279 399.48Z" fill="#D5BD99"/>
<path d="M384.917 348.736L387.894 362.202C387.894 362.202 389.09 350.124 384.917 348.736Z" fill="#E6CFB0"/>
<path d="M391.803 346.733L385.815 348.011C385.815 348.011 389.418 349.209 391.803 346.733Z" fill="#E6CFB0"/>
<path d="M393.314 353.273L388.508 354.434C388.508 354.434 391.524 355.846 393.314 353.273Z" fill="#FCAD4F"/>
<path d="M393.885 359.174L388.811 360.443C388.811 360.443 392.261 361.203 393.885 359.174Z" fill="#E6CFB0"/>
<path d="M373.77 567.213V569.341H363.644L362.479 565.224L373.77 567.213Z" fill="#28284C"/>
<path d="M456.038 304.214C455.989 304.546 456.008 304.865 456.1 305.188C456.124 305.271 456.256 305.234 456.232 305.151C456.146 304.856 456.124 304.555 456.17 304.251C456.183 304.164 456.051 304.128 456.038 304.214Z" fill="#D18774"/>
<path d="M501.236 309.32C501.236 309.32 505.045 327.646 493.984 341.139C482.922 354.632 480.334 364.522 480.334 364.522L468.129 360.636C468.129 360.636 477.124 343.269 478.351 332.814C479.578 322.355 485.001 303.553 485.001 303.553C485.001 303.553 485.723 299.307 501.236 309.32Z" fill="#DD917C"/>
<path d="M589.057 546.855L590.665 548.248L597.299 540.596L594.953 537.018L589.057 546.855Z" fill="#28284C"/>
<path d="M568.508 534.534C568.508 534.534 574.573 544.793 573.35 551.332C572.363 556.604 566.875 563.555 569.396 568.864C569.959 570.048 571.554 570.288 572.378 569.338L587.944 551.384C587.944 551.384 591.713 543.209 594.845 540.529C597.981 537.845 590.068 531.241 586.428 529.627C582.785 528.013 578.499 523.008 578.499 523.008L568.508 534.534Z" fill="#473533"/>
<path d="M579.409 520.499C578.732 526.528 573.571 532.065 570.825 534.62C569.885 535.493 568.433 535.511 567.465 534.669C556.65 525.268 496.492 472.35 494.859 457.055C493.058 440.245 497.82 353.639 500.049 349.532C502.275 345.418 501.297 339.319 501.297 339.319H530.899C530.899 339.319 560.136 386.958 544.3 399.714C538.121 404.688 533.131 412.626 529.341 420.45C526.359 426.62 524.118 432.719 522.633 437.251C521.166 441.715 520.435 444.66 520.435 444.66C520.435 444.66 540.11 455.371 544.3 469.7C548.484 484.032 579.409 520.499 579.409 520.499Z" fill="#D5BD99"/>
<path d="M545.256 568.065V570.193H555.383L556.548 566.076L545.256 568.065Z" fill="#28284C"/>
<path d="M541.101 544.467C541.101 544.467 537.323 555.768 531.58 559.128C526.95 561.84 518.102 562.246 515.741 567.629C515.219 568.828 516.08 570.193 517.34 570.193H541.101C541.101 570.193 549.746 567.684 553.826 568.293C557.905 568.904 557.712 558.599 556.546 554.79C555.381 550.981 556.353 544.467 556.353 544.467H541.101Z" fill="#473533"/>
<path d="M557.591 235.272C558.135 233.597 559.721 232.278 559.792 230.517C559.878 228.349 557.659 226.769 557.182 224.654C556.576 221.958 558.931 219.074 557.862 216.525C557.234 215.037 555.55 214.063 555.328 212.464C555.175 211.382 555.759 210.26 555.457 209.209C555.261 208.511 554.713 207.982 554.188 207.484C551.608 205.058 548.882 202.54 545.454 201.643C543.944 201.246 542.336 201.179 540.913 200.536C539.911 200.081 539.09 199.272 538.066 198.87C534.199 197.351 528.785 198.126 524.779 198.904C522.126 199.417 520.091 199.93 519.525 199.78C507.388 196.552 495.764 206.721 495.764 206.721C490.719 209.719 494.073 210.026 493.836 212.412C493.535 215.419 488.14 216.63 489.013 219.523C489.379 220.734 490.814 221.432 491.039 222.677C491.592 225.73 484.936 226.36 485.634 229.382C485.788 230.052 486.317 230.578 486.501 231.239C487.15 233.563 483.522 236.391 485.41 237.892C486.27 238.577 487.734 238.165 488.45 238.998C489.425 240.127 487.869 241.916 488.389 243.312C488.573 243.81 488.887 244.332 489.375 244.538C498.509 248.449 493.729 252.676 497.286 255.471C500.139 257.715 504.08 258.139 507.016 260.27C508.565 261.395 509.82 262.984 511.606 263.679C514.459 264.786 517.576 263.276 520.601 262.803C525.145 262.089 529.71 263.771 534.309 263.909C536.809 263.983 539.723 263.313 540.778 261.047C541.675 259.12 541.036 256.408 542.733 255.132C543.498 254.554 544.593 254.444 545.214 253.712C545.986 252.799 545.657 251.412 545.982 250.263C546.591 248.101 549.232 247.336 551.467 247.087C553.699 246.838 556.297 246.543 557.48 244.634C559.153 241.925 556.61 238.301 557.591 235.272Z" fill="#473533"/>
<path d="M515.464 307.343C515.227 307.887 510.622 334.022 503.179 336.174C495.736 338.329 490.655 338.378 491.426 333.644C491.571 332.752 491.531 331.513 491.352 330.081C490.587 323.932 487.273 314.273 485.216 313.633C482.674 312.843 479.584 307.159 483.215 302.258C486.846 297.358 490.024 272.573 493.092 266.105C496.714 258.477 508.135 258.917 508.135 258.917C508.135 258.917 515.704 306.796 515.464 307.343Z" fill="#E6CFB0"/>
<path d="M517.127 329.103C518.2 331.206 518.661 352.265 535.016 458.005C541.097 497.322 539.766 546.25 539.766 546.25C539.766 546.25 549.296 550.649 556.589 546.837C556.589 546.837 564.01 504.965 566.051 492.305C568.093 479.645 563.601 466.988 561.969 461.27C560.64 456.625 575.56 416.604 570.358 372.226C568.302 354.678 551.104 340.872 542.926 336.174L517.127 329.103Z" fill="#D5BD99"/>
<path d="M538.646 320.772C540.777 296.137 549.117 268.681 543.129 265.49C537.14 262.296 538.031 260.86 532.209 256.522C526.386 252.187 528.246 253.103 516.484 256.94C509.416 259.246 503.891 261.29 503.891 261.29C503.891 261.29 492.738 285.291 491.745 291.643C490.214 301.419 495.376 304.257 495.376 304.257C495.376 304.257 501.081 321.513 501.911 328.94C502.151 331.104 501.294 339.319 501.294 339.319L547.599 336.174C547.599 336.174 538.065 327.507 538.646 320.772Z" fill="#E59F89"/>
<path d="M539.8 320.228C539.705 320.627 539.763 321.088 539.936 321.602C541.288 325.663 549.813 332.808 547.6 336.177C546.948 337.164 543.483 337.853 538.715 338.326L538.706 338.329H538.687C538.669 338.332 538.644 338.332 538.611 338.338C537.805 338.418 536.966 338.489 536.093 338.557C535.881 338.572 535.659 338.59 535.423 338.609C521.677 339.62 501.295 339.322 501.295 339.322L501.298 339.313C501.338 339.208 501.744 338.178 502.07 336.491C502.632 333.567 502.967 328.67 500.824 323.148V323.142C497.43 314.374 495.441 304.567 495.38 304.263L495.377 304.257L495.368 304.251C495.223 304.192 493.6 303.497 492.161 301.797C490.209 299.495 488.604 295.347 491.522 288.455C494.633 281.113 497.35 271.909 499.127 265.299C499.453 264.097 499.745 262.981 500.004 261.976C500.443 260.257 515.47 257.263 515.47 257.263C515.47 257.263 503.213 278.808 506.195 282.955C509.134 287.038 530.458 256.559 532.21 256.522C532.785 256.513 547.701 260.968 549.601 266.311C550.551 268.979 540.621 316.652 539.8 320.228Z" fill="#E6CFB0"/>
<path d="M498.823 296.138C498.823 296.138 500.391 270.12 513.214 257.733C513.214 257.733 507.087 257.008 505.762 259.009C505.762 259.009 494.919 277.215 494.556 295.181C494.556 295.181 494.033 298.8 498.823 296.138Z" fill="#D5BD99"/>
<path d="M553.63 455.174C553.91 458.193 547.528 459.967 549.908 463.275C550.513 464.117 551.552 464.56 552.385 465.134C553.581 465.965 554.664 466.964 555.617 468.061C557.501 470.222 558.881 472.814 559.81 475.519C561.993 481.88 561.568 488.699 560.431 495.223C559.213 502.174 557.504 509.048 556.047 515.953C554.368 523.918 552.751 531.899 551.199 539.892C551.073 540.535 552.056 540.808 552.183 540.163C554.952 525.923 558.254 511.787 561.03 497.55C563.155 486.664 563.65 473.152 554.258 465.294C553.215 464.421 551.396 463.723 550.713 462.567C550.031 461.402 551.048 460.455 551.854 459.668C553.114 458.436 554.836 457.141 554.651 455.174C554.59 454.525 553.569 454.519 553.63 455.174Z" fill="#F3E1CA"/>
<path d="M554.896 361.595C558.622 366.603 559.356 372.881 559.532 378.947C559.725 385.498 559.692 392.077 559.547 398.625C559.249 412.06 558.007 425.676 553.408 438.394C552.322 441.395 550.681 444.358 550.284 447.559C550.118 448.884 550.21 450.246 550.81 451.454C551.523 452.899 553.239 453.732 553.641 455.309C553.807 455.945 554.791 455.675 554.628 455.038C554.336 453.901 553.586 453.231 552.793 452.413C551.483 451.054 551.068 449.486 551.305 447.626C551.695 444.592 553.26 441.767 554.299 438.926C556.605 432.602 558.096 426.008 559.037 419.349C560.897 406.188 560.894 392.71 560.568 379.445C560.411 373.056 559.707 366.363 555.775 361.079C555.388 360.559 554.502 361.066 554.896 361.595Z" fill="#F3E1CA"/>
<path d="M518.537 339.319H515.779C516.68 339.31 517.599 339.294 518.531 339.279C518.534 339.291 518.534 339.307 518.537 339.319Z" fill="#85AAE7"/>
<path d="M516.844 343.239C516.223 343.239 515.598 343.223 514.977 343.186C503.827 342.562 501.377 339.43 501.297 339.322C501.383 339.322 504.184 339.362 508.368 339.362C510.529 339.362 513.062 339.353 515.78 339.319H518.537C518.67 340.481 518.814 341.763 518.977 343.177C518.267 343.217 517.557 343.239 516.844 343.239Z" fill="#6B98E1"/>
<path d="M518.973 343.177C518.81 341.763 518.666 340.481 518.533 339.319C518.53 339.307 518.53 339.291 518.527 339.279C524.138 339.184 530.25 338.99 535.418 338.609C535.654 338.59 535.876 338.572 536.088 338.557C536.961 338.489 537.8 338.418 538.606 338.338C538.639 338.332 538.664 338.332 538.682 338.329H538.701L538.71 338.326C538.71 338.326 529.045 342.612 518.973 343.177Z" fill="#6B98E1"/>
<path d="M508.363 339.362C504.179 339.362 501.378 339.322 501.292 339.322C501.292 339.322 501.292 339.322 501.289 339.322V339.319L538.709 338.326L538.7 338.329H538.682C538.663 338.332 538.639 338.332 538.605 338.338C537.799 338.418 536.96 338.489 536.087 338.557C535.875 338.572 535.654 338.59 535.417 338.609C530.249 338.99 524.137 339.184 518.527 339.279C517.595 339.294 516.676 339.31 515.775 339.319C513.057 339.353 510.524 339.362 508.363 339.362Z" fill="#AA7BA8"/>
<path d="M495.063 292.651C498.979 293.294 512.116 295.283 519.245 294.225C520.3 294.068 521.268 294.819 521.367 295.879C521.825 300.93 522.688 313.996 520.115 320.501C516.887 328.667 526.685 338.326 526.685 338.326C526.685 338.326 505.405 340.988 498.93 339.319C492.453 337.653 493.191 333.296 493.935 321.59C494.645 310.332 489.941 302.852 493.47 293.58C493.716 292.931 494.377 292.537 495.063 292.651Z" fill="#D5BD99"/>
<path d="M497.368 295.639C497.368 294.834 496.717 294.182 495.914 294.182C495.109 294.182 494.457 294.834 494.457 295.639C494.457 296.442 495.109 297.096 495.914 297.096C496.717 297.096 497.368 296.442 497.368 295.639Z" fill="#4F4A77"/>
<path d="M505.841 223.35C505.841 223.35 501.577 217.737 506.283 210.583C510.987 203.426 514.501 201.154 521.139 201.154C527.776 201.154 532.756 199.804 537.976 203.847C543.197 207.887 550.885 222.788 545.665 233.268C540.445 243.751 531.705 240.806 527.985 243.398C524.265 245.993 505.841 223.35 505.841 223.35Z" fill="#473533"/>
<path d="M533.106 259.292C533.106 259.292 525.54 265.573 515.773 261.546C515.773 261.546 516.757 256.522 516.76 251.594C516.763 249.442 516.578 247.308 516.043 245.615C515.963 245.353 515.871 245.104 515.773 244.867C513.563 239.561 531.676 234.532 531.808 234.495C531.762 234.569 530.241 236.936 529.706 240.754C529.595 241.541 529.524 242.39 529.521 243.296C529.515 244.277 529.583 245.322 529.755 246.42C530.865 253.522 533.106 259.292 533.106 259.292Z" fill="#E59F89"/>
<path d="M529.707 240.754C529.596 241.541 529.526 242.389 529.523 243.296C525.91 248.304 516.912 251.542 516.761 251.594C516.764 249.442 516.58 247.308 516.045 245.614C520.115 243.675 527.398 240.416 529.707 240.754Z" fill="#D18975"/>
<path d="M530.096 242.396C521.469 249.141 512.99 248.763 510.928 248.151C508.865 247.539 508.803 245.688 505.793 240.877C503.718 237.56 503.196 234.43 503.466 232.075C503.586 231.015 503.869 230.111 504.241 229.416C504.358 229.201 504.453 229.001 504.53 228.817C505.249 227.095 504.404 226.557 504.244 223.581C504.207 222.883 504.438 221.992 504.825 221.008C504.997 220.574 505.197 220.119 505.421 219.661C507.079 216.264 509.898 212.507 509.898 212.507C524.067 202.51 534.858 213.986 535.897 219.428C536.936 224.866 538.722 235.651 530.096 242.396Z" fill="#E59F89"/>
<path d="M525.293 221.426C525.293 221.426 523.682 217.709 516.789 219.677C512.691 220.848 513.358 222.763 515.707 222.413C518.056 222.062 518.714 219.793 525.293 221.426Z" fill="#6D324A"/>
<path d="M507.337 222.686C506.409 222.514 505.545 221.426 504.822 221.008C504.994 220.574 505.194 220.119 505.419 219.661C505.714 219.667 506.052 219.738 506.439 219.901C509.12 221.026 508.887 222.978 507.337 222.686Z" fill="#6D324A"/>
<path d="M509.316 227.608C509.38 228.687 507.766 225.521 506.709 225.305C505.74 225.109 504.551 225.733 503.684 225.296C503.462 225.182 503.555 224.847 503.804 224.857C504.237 224.872 504.837 224.823 505.485 224.571C506.758 224.076 509.147 224.663 509.316 227.608Z" fill="#6D324A"/>
<path d="M508.765 227.568C508.415 227.826 507.957 227.937 507.542 227.796C507.127 227.654 506.792 227.341 506.546 226.981C506.247 226.548 506.164 225.954 506.503 225.555C506.712 225.306 506.915 225.069 506.915 225.069L507.868 225.804L508.347 226.04L508.679 226.587L508.879 226.898C508.879 226.898 508.974 227.411 508.765 227.568Z" fill="#6D324A"/>
<path d="M515.184 226.465C515.184 226.465 515.795 223.695 517.09 222.8C518.384 221.902 522.528 221.887 523.306 222.717C524.084 223.547 524.342 224.989 524.342 224.989C524.342 224.989 519.217 221.822 515.184 226.465Z" fill="#E5A38F"/>
<path d="M521.626 225.834C521.626 226.784 520.858 227.553 519.908 227.553C518.961 227.553 518.189 226.784 518.189 225.834C518.189 225.524 518.272 225.232 518.42 224.98C518.561 224.734 518.758 224.528 518.998 224.377C519.647 224.374 520.286 224.386 520.883 224.417C521.224 224.654 521.479 225.01 521.577 225.425C521.611 225.558 521.626 225.693 521.626 225.834Z" fill="#6D324A"/>
<path d="M524.342 225.382C524.2 226.133 522.86 225.73 522.116 225.564C521.938 225.524 521.756 225.478 521.578 225.425C521.025 225.269 520.477 225.081 519.906 224.989C519.414 224.909 518.913 224.906 518.421 224.98C516.951 225.189 515.568 226.034 514.771 227.292C514.811 227.205 516.054 223.836 519.647 223.452C522.257 223.169 524.446 224.841 524.342 225.382Z" fill="#6D324A"/>
<path d="M521.421 234.347C520.332 234.347 519.247 234.224 518.208 233.981C517.301 233.769 516.342 233.413 516.302 232.487C516.286 232.115 516.44 231.749 516.692 231.433C517.572 230.329 519.21 229.831 520.753 229.385C521.537 229.161 522.324 228.933 523.108 228.709C523.576 228.574 524.061 228.509 524.544 228.509C525.54 228.509 526.521 228.786 527.289 229.318C528.888 230.421 528.648 232.41 526.807 233.262C526.45 233.425 526.078 233.569 525.703 233.689C524.35 234.126 522.884 234.347 521.421 234.347Z" fill="#E39182"/>
<path d="M505.385 232.662C504.813 232.662 504.238 232.515 503.707 232.223C503.627 232.18 503.547 232.13 503.467 232.075C503.587 231.015 503.87 230.111 504.241 229.416C504.358 229.201 504.454 229.001 504.53 228.816C504.595 228.835 504.66 228.863 504.724 228.893C505.032 229.044 505.339 229.195 505.646 229.348C506.249 229.643 506.892 229.975 507.236 230.713C507.334 230.925 507.396 231.171 507.39 231.42C507.374 232.038 506.999 232.275 506.643 232.419C506.237 232.582 505.812 232.662 505.385 232.662Z" fill="#E39182"/>
<path d="M508.914 223.366C510.221 224.024 510.796 225.475 510.679 226.889C510.538 228.62 509.406 230.083 508.37 231.393C507.884 232.008 507.214 232.859 507.737 233.652C508.321 234.535 509.947 234.864 510.891 235.057C511.094 235.1 511.183 234.79 510.977 234.747C510.187 234.584 509.194 234.372 508.53 233.898C507.159 232.924 508.478 231.805 509.108 230.975C509.818 230.046 510.473 229.05 510.805 227.919C511.331 226.133 510.842 223.974 509.08 223.086C508.893 222.991 508.73 223.27 508.914 223.366Z" fill="#BF6A58"/>
<path d="M516.652 237.778C516.409 238.725 515.345 241.888 511.896 242.396C508.505 242.9 508.213 239.251 508.127 238.221C508.111 238.015 508.111 237.889 508.111 237.889L508.114 237.886C508.167 237.821 508.981 236.85 509.861 236.745C510.205 236.702 510.565 236.794 510.884 237.129L510.891 237.136C510.891 237.136 512.053 236.232 513.003 236.905C513.842 237.495 515.311 237.959 516.329 237.667L516.341 237.664C516.39 237.646 516.446 237.634 516.495 237.609L516.55 237.667C516.587 237.701 516.621 237.741 516.652 237.778Z" fill="#FC7272"/>
<path d="M513.194 240.517L513.092 240.505C512.619 240.692 512.139 240.883 511.632 240.932C511.442 240.951 511.245 240.948 511.07 241.031C510.894 241.111 510.756 241.31 510.814 241.492C510.873 241.667 511.079 241.744 511.263 241.771C511.86 241.861 512.468 241.698 513.012 241.439C513.215 241.344 513.431 241.209 513.48 240.991C513.523 240.791 513.391 240.569 513.194 240.517Z" fill="#FF8894"/>
<path d="M509.947 244.065C509.637 244.065 509.538 243.545 509.886 243.422C510.51 243.198 511.149 243.087 511.789 243.087C512.363 243.087 512.941 243.176 513.51 243.358C513.87 243.472 513.762 243.997 513.439 243.997C513.409 243.997 513.375 243.991 513.338 243.982C512.821 243.816 512.305 243.736 511.792 243.736C511.211 243.736 510.633 243.841 510.061 244.047C510.021 244.059 509.984 244.065 509.947 244.065Z" fill="#EA9686"/>
<path d="M511.523 234.47C511.474 234.47 511.422 234.458 511.366 234.43C510.545 234 509.685 233.72 508.768 233.582C508.378 233.52 508.519 232.952 508.885 232.952C508.904 232.952 508.922 232.955 508.941 232.958C509.912 233.105 510.825 233.416 511.695 233.871C512.009 234.04 511.815 234.47 511.523 234.47Z" fill="#EA9686"/>
<path d="M516.715 210.583C516.715 210.583 521.711 210.076 524.342 214.961C526.977 219.843 532.486 226.326 533.814 226.914C535.142 227.504 533.119 233.772 533.119 233.772C533.119 233.772 535.019 237.308 531.576 241.108C531.576 241.108 537.666 239.017 539.772 234.904C541.878 230.787 538.087 215.886 534.3 211.087C530.512 206.288 521.824 204.942 519.559 205.867C517.293 206.792 516.715 210.583 516.715 210.583Z" fill="#889782"/>
<path d="M516.714 210.583C516.714 210.583 511.343 210.918 507.439 216.255C507.064 216.765 506.683 217.238 506.44 217.761C504.503 221.93 506.864 203.847 519.558 205.867C532.252 207.886 516.714 210.583 516.714 210.583Z" fill="#889782"/>
<path d="M516.491 237.603C516.438 237.624 516.389 237.646 516.34 237.664L516.328 237.667C513.044 238.906 508.113 237.886 508.113 237.886C508.113 237.886 508.611 240.087 510.945 240.496C512.974 240.856 515.839 238.325 516.549 237.667L516.494 237.609L516.491 237.603Z" fill="white"/>
<path d="M516.282 237.52C516.528 237.717 516.728 237.966 516.888 238.236C516.94 238.319 517.072 238.242 517.02 238.156C516.854 237.876 516.645 237.615 516.39 237.412C516.313 237.351 516.205 237.458 516.282 237.52Z" fill="#E04B5A"/>
<path d="M508.015 237.529C508.114 237.76 508.037 238.018 507.846 238.175C507.769 238.236 507.88 238.344 507.954 238.282C508.203 238.079 508.274 237.741 508.148 237.452C508.108 237.36 507.975 237.44 508.015 237.529Z" fill="#E04B5A"/>
<path d="M466.096 360.981C467.608 361.475 469.065 362.06 470.689 361.826C472.173 361.611 473.529 360.934 474.854 360.261C475.045 360.163 475.226 360.452 475.033 360.55C473.674 361.239 472.272 361.949 470.747 362.17C469.084 362.41 467.58 361.823 466.022 361.313C465.816 361.245 465.887 360.913 466.096 360.981Z" fill="#D18774"/>
<path d="M515.588 523.153V550.821C515.588 558.821 509.098 565.314 501.093 565.314H438.543C434.264 565.314 430.793 561.84 430.793 557.557C430.793 555.436 430.947 553.348 431.248 551.307C431.463 549.825 431.755 548.368 432.121 546.942C432.499 545.46 432.954 544.012 433.48 542.598C435.644 536.793 439.032 531.586 443.33 527.285C450.124 520.493 459.193 515.968 469.295 514.96H469.305C470.719 514.815 472.155 514.745 473.609 514.745H507.183C511.822 514.745 515.588 518.507 515.588 523.153Z" fill="#FCAD4F"/>
<path d="M481.547 557.33C481.547 550.373 487.188 544.734 494.142 544.734C501.099 544.734 506.738 550.373 506.738 557.33C506.738 564.284 501.099 569.925 494.142 569.925C487.188 569.925 481.547 564.284 481.547 557.33Z" fill="#4F4A77"/>
<path d="M494.142 548.187C489.103 548.187 485.005 552.288 485.005 557.33C485.005 562.368 489.103 566.469 494.142 566.469C499.181 566.469 503.282 562.368 503.282 557.33C503.282 552.288 499.181 548.187 494.142 548.187ZM494.142 567.89C488.32 567.89 483.582 563.152 483.582 557.33C483.582 551.507 488.32 546.766 494.142 546.766C499.965 546.766 504.702 551.507 504.702 557.33C504.702 563.152 499.965 567.89 494.142 567.89Z" fill="#373560"/>
<path d="M426.682 562.691C426.682 558.698 429.919 555.46 433.912 555.46C437.906 555.46 441.143 558.698 441.143 562.691C441.143 566.685 437.906 569.925 433.912 569.925C429.919 569.925 426.682 566.685 426.682 562.691Z" fill="#4F4A77"/>
<path d="M433.913 557.443C431.02 557.443 428.665 559.798 428.665 562.694C428.665 565.584 431.02 567.939 433.913 567.939C436.806 567.939 439.158 565.584 439.158 562.694C439.158 559.798 436.806 557.443 433.913 557.443ZM433.913 568.757C430.568 568.757 427.848 566.039 427.848 562.694C427.848 559.349 430.568 556.626 433.913 556.626C437.255 556.626 439.976 559.349 439.976 562.694C439.976 566.039 437.255 568.757 433.913 568.757Z" fill="#373560"/>
<path d="M473.902 542.598H433.479C435.643 536.793 439.031 531.586 443.329 527.285C450.123 520.493 459.192 515.968 469.294 514.96H469.303C470.717 514.815 472.153 514.745 473.607 514.745H481.281C477.887 518.818 473.152 527.325 473.902 542.598Z" fill="#D5BD99"/>
<path d="M515.584 542.751H433.482C433.396 542.751 433.328 542.681 433.328 542.598C433.328 542.512 433.396 542.441 433.482 542.441H515.584C515.67 542.441 515.738 542.512 515.738 542.598C515.738 542.681 515.67 542.751 515.584 542.751Z" fill="#E6CFB0"/>
<path d="M499.679 542.751C499.596 542.751 499.525 542.681 499.525 542.598V514.745C499.525 514.658 499.596 514.588 499.679 514.588C499.762 514.588 499.833 514.658 499.833 514.745V542.598C499.833 542.681 499.762 542.751 499.679 542.751Z" fill="#373560"/>
<path d="M400.319 558.107V569.925H381.107C381.107 566.66 382.429 563.709 384.569 561.569C386.706 559.429 389.66 558.107 392.922 558.107H400.319Z" fill="#ED5D6B"/>
<path d="M516.367 210.601C517.796 210.113 519.26 209.802 520.775 209.768C521.734 209.75 522.451 209.805 523.247 210.374C523.936 210.866 524.013 211.275 524.471 211.889C525.605 213.405 527.403 212.566 528.971 212.652C529.768 212.698 530.616 213.424 530.911 214.189C531 214.42 530.877 214.875 530.942 215.117C530.982 215.265 531.037 215.44 531.117 215.572C531.489 216.203 532.267 216.473 532.953 216.541C534.514 216.688 537.235 215.723 536.986 218.413C536.912 219.231 536.531 219.797 537.029 220.559C538.062 222.136 543.974 222.689 542.034 225.361C541.133 226.6 541.73 227.181 542.889 227.947C543.587 228.411 544.49 229.099 544.739 229.966C545.01 230.904 544.592 231.577 544.195 232.34C543.866 232.979 543.408 233.64 543.476 234.396C543.528 234.977 543.869 235.408 544.254 235.811C544.899 236.487 545.858 236.911 545.247 238.239C545.062 238.642 544.638 238.968 544.374 239.328C543.974 239.862 543.722 240.391 543.876 241.068C543.968 241.483 544.355 241.833 544.429 242.23C544.638 243.33 543.934 244.059 543.663 244.966C543.076 246.924 545.739 247.742 546.876 248.615C547.014 248.723 547.196 248.544 547.159 248.397C547.076 248.083 546.993 247.77 546.91 247.459C546.845 247.219 546.476 247.321 546.538 247.561C546.621 247.874 546.704 248.185 546.787 248.498C546.882 248.427 546.974 248.354 547.07 248.28C545.751 247.268 543.153 246.574 544.411 244.462C544.795 243.819 545.204 243.441 545.007 242.639C544.921 242.285 544.69 242.005 544.561 241.67C544.008 240.265 544.358 239.995 545.133 239.02C545.505 238.556 545.917 238.055 545.874 237.418C545.834 236.853 545.471 236.45 545.096 236.066C544.414 235.362 543.67 234.965 543.943 233.732C544.078 233.111 544.552 232.564 544.822 231.995C545.579 230.409 545.028 229.072 543.676 228.023C543.304 227.734 542.468 227.412 542.219 227.027C541.511 225.942 542.486 225.65 542.812 224.989C543.089 224.426 543.049 223.898 542.658 223.384C542.111 222.662 541.115 222.342 540.319 222.004C539.728 221.752 539.03 221.567 538.496 221.217C537.666 220.676 537.195 221.131 537.226 218.991C537.232 218.674 537.441 218.342 537.453 218.017C537.53 216.163 535.578 216.049 534.201 216.107C533.128 216.154 532.202 216.32 531.609 215.25C531.206 214.518 531.449 214.407 531.249 213.676C531.096 213.116 530.702 212.75 530.183 212.517C529.184 212.068 528.104 212.357 527.071 212.431C525.725 212.523 525.135 212.065 524.397 210.973C524.145 210.601 523.973 210.242 523.604 209.971C521.713 208.582 518.245 209.553 516.265 210.229C516.032 210.309 516.133 210.681 516.367 210.601Z" fill="#473533"/>
<path d="M516.512 210.005C518.556 207.939 522.399 204.625 525.313 206.86C526.694 207.918 527.284 209.153 529.202 209.138C531.056 209.12 532.922 208.01 534.773 208.379C537.358 208.898 536.827 212.009 538.032 213.728C540.396 217.097 547.903 213.116 547.731 218.816C547.685 220.433 546.861 222.235 547.543 223.818C548.18 225.293 549.769 225.466 551.024 226.176C552.85 227.212 552.309 228.875 552.306 230.569C552.306 231.467 552.499 232.352 552.884 233.164C553.717 234.941 555.291 236.198 557.181 236.671C557.421 236.733 557.526 236.361 557.283 236.299C554.439 235.586 552.561 233.028 552.714 230.105C552.801 228.429 552.991 226.904 551.38 225.936C550.559 225.441 549.548 225.284 548.77 224.712C547.405 223.704 547.645 222.108 547.869 220.651C548.1 219.182 548.46 217.488 547.393 216.243C546.341 215.016 544.537 214.939 543.046 214.936C541.776 214.93 540.347 215.025 539.218 214.331C537.841 213.482 537.746 211.822 537.282 210.438C535.895 206.288 532.046 208.846 529.021 208.748C526.349 208.662 525.633 205.35 522.752 205.713C520.256 206.027 517.941 208.016 516.238 209.731C516.063 209.91 516.336 210.18 516.512 210.005Z" fill="#473533"/>
<path d="M516.553 209.996C514.718 208.283 511.613 208.388 509.347 209.123C508.311 209.458 507.287 210.039 506.716 211.004C506.399 211.539 506.298 212.135 506.122 212.726C505.67 214.238 504.736 214.887 503.174 214.896C501.886 214.899 500.647 214.739 499.519 215.496C498.596 216.117 497.991 217.134 497.88 218.238C497.76 219.446 498.314 220.796 497.262 221.767C496.334 222.622 495.076 222.225 494.056 221.816C492.995 221.389 492.067 220.955 490.984 221.5C490.763 221.61 490.957 221.942 491.178 221.832C493.327 220.753 495.642 224.091 497.668 221.893C498.504 220.986 498.249 219.926 498.255 218.797C498.277 216.08 500.379 215.207 502.747 215.268C503.632 215.293 504.628 215.339 505.391 214.798C506.35 214.118 506.368 212.947 506.725 211.932C507.884 208.637 513.946 208.09 516.283 210.269C516.461 210.438 516.735 210.168 516.553 209.996Z" fill="#473533"/>
<path d="M516.546 210.789C517.604 211.188 518.455 211.634 518.96 212.75C519.246 213.383 519.07 214.232 519.307 214.908C519.504 215.477 519.845 216.024 520.46 216.203C520.774 216.295 521.093 216.156 521.391 216.212C522.062 216.341 522.947 216.95 523.27 217.488C523.322 217.571 523.414 217.912 523.479 218.041C524.011 219.108 525.265 219.406 525.757 220.525C526.055 221.204 526.07 221.776 526.661 222.287C527.386 222.914 528.167 223.11 528.601 224.082C528.773 224.469 528.745 224.897 528.991 225.266C529.44 225.933 530.242 226.151 530.977 226.348C532.404 226.729 533.855 227.021 535.324 227.147C535.573 227.165 535.57 226.781 535.324 226.76C533.796 226.634 531.743 226.428 530.338 225.742C529.286 225.232 529.255 224.5 528.853 223.596C528.73 223.316 528.585 223.114 528.361 222.908C528.017 222.585 527.522 222.474 527.171 222.173C526.418 221.53 526.338 220.891 526.024 220.064C525.695 219.197 525.133 218.976 524.417 218.422C523.593 217.789 523.728 216.707 522.962 216.073C522.031 215.305 520.727 216.353 519.879 215.268C519.129 214.306 519.673 212.778 518.892 211.76C518.351 211.053 517.45 210.721 516.648 210.417C516.417 210.328 516.316 210.703 516.546 210.789Z" fill="#894966"/>
<path d="M517.842 210.601C517.842 210.601 519.653 210.164 520.421 212.784C521.193 215.403 523.557 214.373 523.917 215.683C524.276 216.996 524.298 217.358 525.737 218.388C527.175 219.415 525.583 220.503 527.308 221.189C527.308 221.189 529.02 221.598 529.088 222.508C529.155 223.418 530.923 224.89 532.54 224.414C534.157 223.937 530.357 218.388 530.357 218.388L522.33 211.293L519.345 209.341L517.842 210.601Z" fill="#473533"/>
<path d="M529.508 227.119C529.508 227.119 532.773 222.114 535.829 224.38C538.885 226.649 535.752 230.842 534.575 232.45C533.314 234.172 532.582 234.187 530.36 233.631C528.137 233.074 529.508 227.119 529.508 227.119Z" fill="#E59F89"/>
<path d="M530.188 233.225C532.697 236.905 536.22 230.538 536.826 228.62C537.29 227.153 537.358 225.343 535.99 224.337C534.502 223.243 532.694 223.827 531.489 225.032C531.314 225.207 531.587 225.481 531.762 225.303C533.014 224.051 535.338 223.526 536.411 225.352C537.09 226.508 536.669 228.048 536.199 229.188C535.535 230.799 532.623 236.118 530.52 233.031C530.382 232.828 530.047 233.019 530.188 233.225Z" fill="#BF6A58"/>
<path d="M533.714 225.376C533.173 225.61 532.629 225.933 532.364 226.489C532.069 227.107 532.352 227.347 532.383 227.965C532.456 229.499 531.301 229.274 530.836 230.307C530.652 230.713 530.695 231.002 530.87 231.383C530.975 231.608 531.307 231.414 531.205 231.19C530.984 230.707 531.651 229.963 531.986 229.696C532.078 229.622 532.186 229.554 532.272 229.471C532.49 229.265 532.687 229.05 532.792 228.761C532.884 228.5 532.868 228.303 532.807 228.036C532.65 227.335 532.512 227.737 532.958 226.763C533.314 225.991 533.256 225.991 533.907 225.708C534.135 225.61 533.941 225.278 533.714 225.376Z" fill="#BF6A58"/>
<path d="M515.769 296.343C515.769 296.343 524.863 262.717 540.373 259.393C540.373 259.393 534.501 254.902 532.207 256.522C532.207 256.522 520.946 263.451 511.357 295.919L511.938 297.585L515.769 296.343Z" fill="#D5BD99"/>
<path d="M516.305 297.115C516.305 296.313 515.653 295.658 514.848 295.658C514.045 295.658 513.391 296.313 513.391 297.115C513.391 297.92 514.045 298.572 514.848 298.572C515.653 298.572 516.305 297.92 516.305 297.115Z" fill="#4F4A77"/>
<path d="M522.63 437.25C522.63 437.25 515.522 427.917 521.449 417.44C527.377 406.963 510.849 382.005 516.3 373.982C516.3 373.982 523.727 391.148 527.377 406.969C527.988 411.23 528.643 415.721 529.338 420.449C526.356 426.62 524.115 432.719 522.63 437.25Z" fill="#D5BD99"/>
<path d="M529.338 420.45C528.644 415.721 527.989 411.23 527.377 406.969C528.481 411.756 529.237 416.422 529.338 420.45Z" fill="#6B98E1"/>
<path d="M511.851 444.005C515.519 443.504 519.137 444.202 522.359 446.018C522.578 446.138 522.771 445.806 522.556 445.686C519.233 443.814 515.525 443.116 511.75 443.633C511.504 443.667 511.608 444.039 511.851 444.005Z" fill="#F3E1CA"/>
<path d="M531.93 352.206C534.476 355.235 537.55 357.878 541.202 359.471C545.438 361.316 550.201 361.229 554.735 361.226C555.233 361.226 555.233 360.455 554.735 360.455C550.311 360.461 545.629 360.565 541.5 358.761C537.937 357.202 534.958 354.617 532.474 351.662C532.154 351.281 531.613 351.828 531.93 352.206Z" fill="#D5BD99"/>
<path d="M511.781 371.996C516.743 373.308 517.945 378.759 519.417 382.971C520.696 386.623 521.972 390.278 523.131 393.971C525.858 402.659 527.718 411.54 528.966 420.554C529.034 421.043 529.778 420.834 529.71 420.348C528.385 410.781 526.344 401.386 523.374 392.194C522.089 388.209 520.681 384.268 519.303 380.315C517.972 376.481 516.331 372.401 511.987 371.252C511.507 371.126 511.301 371.866 511.781 371.996Z" fill="#D5BD99"/>
<path d="M534.339 454.925C533.518 458.82 534.779 462.534 535.944 466.22C537.352 470.665 537.868 475.191 538.222 479.827C538.926 489.025 538.84 498.257 539.181 507.471C539.19 507.72 539.578 507.72 539.568 507.471C539.233 498.463 539.304 489.434 538.652 480.439C538.354 476.288 538.05 472.046 536.903 468.031C535.685 463.782 533.761 459.533 534.711 455.026C534.763 454.787 534.391 454.682 534.339 454.925Z" fill="#F3E1CA"/>
<path d="M564.345 501.642C563.438 506.389 562.654 511.175 561.584 515.888C560.819 519.27 560.453 522.51 560.078 525.96C560.05 526.205 560.434 526.202 560.462 525.96C560.652 524.21 560.763 522.452 560.969 520.706C561.181 518.91 561.695 517.204 562.076 515.442C563.063 510.902 563.844 506.309 564.717 501.746C564.763 501.504 564.391 501.399 564.345 501.642Z" fill="#F3E1CA"/>
<path d="M439.575 553.688C439.464 553.688 439.353 553.685 439.243 553.669C422.131 551.849 411.042 539.955 412.275 524.743C413.883 504.88 436.697 484.685 483.008 487.255C521.904 489.41 553.145 476.855 570.961 451.873C586.987 429.397 590.372 399.324 579.793 373.396C566.546 340.931 544.596 328.619 532.689 324.17C522.009 320.174 513.465 320.269 510.803 321.615C503.701 325.206 496.953 333.774 496.883 333.86C495.834 335.204 493.897 335.437 492.557 334.389C491.217 333.341 490.98 331.407 492.028 330.064C492.339 329.67 499.705 320.318 508.024 316.112C513.29 313.45 524.072 314.369 534.847 318.397C547.698 323.199 571.367 336.427 585.499 371.069C596.871 398.937 593.225 431.269 575.978 455.449C556.893 482.213 523.74 495.664 482.667 493.413C440.469 491.021 419.792 508.265 418.417 525.241C417.618 535.119 423.948 545.845 439.897 547.542C441.588 547.724 442.815 549.239 442.634 550.93C442.465 552.516 441.127 553.688 439.575 553.688Z" fill="#889782"/>
<path d="M558.099 288.771C556.513 303.786 573.394 314.104 567.82 336.921C567.743 337.234 567.577 337.517 567.344 337.742C565.142 339.845 559.267 348.259 539.22 348.188C521.773 348.127 511.462 351.456 511.462 351.456L506.227 337.462C506.227 337.462 509.98 343.478 535.823 332.669C545.654 328.559 548.292 326.985 548.292 326.985C548.292 326.985 540.782 307.93 537.698 301.65C534.615 295.372 559.698 273.652 558.099 288.771Z" fill="#E59F89"/>
<path d="M540.373 259.394C540.373 259.394 549.19 261.585 551.862 270.215C554.53 278.845 566.295 289.685 567.682 299.854C568.312 304.472 564.137 306.79 555.431 304.939C546.724 303.092 544.031 316.551 536.933 312.339C529.834 308.124 533.653 284.409 533.653 284.409L540.373 259.394Z" fill="#E6CFB0"/>
<path d="M530.933 290.994C532.529 293.333 533.706 295.605 534.014 298.461C534.272 300.832 534.14 303.227 534.49 305.588C535.007 309.092 536.925 312.785 540.768 313.344C541.251 313.415 541.46 312.674 540.971 312.6C535.917 311.865 535.142 306.144 534.985 302C534.912 300.069 534.875 298.111 534.42 296.22C533.919 294.133 532.796 292.362 531.598 290.607C531.321 290.198 530.651 290.582 530.933 290.994Z" fill="#D5BD99"/>
<path d="M542.868 298.572C542.868 298.572 553.45 305.852 559.795 305.551C559.795 305.551 550.883 302.667 548.571 296.485C546.259 290.299 539.056 296.208 542.868 298.572Z" fill="#D5BD99"/>
<path d="M496.352 302.378C497.957 305.622 500.226 308.597 503.712 309.907C503.946 309.993 504.044 309.621 503.814 309.535C500.429 308.262 498.24 305.326 496.684 302.184C496.577 301.96 496.242 302.157 496.352 302.378Z" fill="#5684D6"/>
<path d="M500.8 304.174C503.518 306.283 506.546 307.826 509.854 308.773C510.094 308.843 510.195 308.471 509.955 308.404C506.715 307.472 503.736 305.966 501.074 303.9C500.88 303.749 500.603 304.02 500.8 304.174Z" fill="#5684D6"/>
<path d="M369.51 565.009L369.424 564.963C367.309 563.838 366.497 561.185 367.622 559.067L488.851 331.123C489.976 329.008 492.629 328.196 494.744 329.322L494.833 329.368C496.949 330.493 497.76 333.146 496.635 335.264L375.406 563.208C374.281 565.323 371.628 566.134 369.51 565.009Z" fill="#889782"/>
<path d="M470.443 357.534C467.181 356.458 465.835 356.701 465.303 358.312C464.774 359.92 465.426 360.439 468.685 361.515C471.946 362.591 475.58 363.486 476.112 361.875C476.644 360.267 473.702 358.61 470.443 357.534Z" fill="#EFB7A8"/>
<path d="M469.617 361.432C465.624 360.117 464.022 360.273 463.493 361.881C462.961 363.492 463.779 364.067 467.769 365.383C471.76 366.702 476.19 367.855 476.722 366.247C477.251 364.636 473.608 362.748 469.617 361.432Z" fill="#EFB7A8"/>
<path d="M468.968 364.879C465.18 363.631 463.649 363.812 463.117 365.42C462.585 367.028 463.357 367.59 467.145 368.838C470.932 370.09 475.141 371.172 475.67 369.561C476.202 367.953 472.755 366.13 468.968 364.879Z" fill="#EFB7A8"/>
<path d="M467.802 368.107C465.078 367.209 463.953 367.421 463.498 368.795C463.046 370.166 463.587 370.606 466.311 371.504C469.032 372.401 472.066 373.142 472.521 371.771C472.973 370.397 470.523 369.004 467.802 368.107Z" fill="#EFB7A8"/>
<path d="M472.993 362.788C470.77 362.161 468.548 361.537 466.322 360.91C466.113 360.851 466.22 360.529 466.43 360.587C468.652 361.214 470.875 361.838 473.101 362.465C473.31 362.524 473.205 362.847 472.993 362.788Z" fill="#E5A895"/>
<path d="M473.784 367.11C470.599 366.394 467.481 365.447 464.438 364.27C464.235 364.19 464.339 363.867 464.542 363.947C467.589 365.128 470.703 366.071 473.891 366.788C474.103 366.834 473.996 367.157 473.784 367.11Z" fill="#E5A895"/>
<path d="M471.941 370.348C469.358 369.754 466.846 368.952 464.399 367.935C464.199 367.851 464.301 367.529 464.504 367.612C466.954 368.629 469.466 369.432 472.048 370.025C472.26 370.074 472.153 370.397 471.941 370.348Z" fill="#E5A895"/>
<path d="M519.654 340.536C519.654 340.536 511.033 340.082 508.703 338.203C498.137 329.69 498.718 330.001 496.083 330.032C489.833 330.108 484.302 334.465 484.45 335.295C484.582 336.051 487.776 334.8 488.677 334.277C490.405 333.272 494.14 334.794 494.14 334.794C494.14 334.794 490.31 335.944 488.782 336.927C487.586 337.702 483.943 340.835 484.09 341.185C484.616 342.436 487.318 340.493 489.938 339.264C491.791 338.394 495.007 338.326 495.007 338.326C495.007 338.326 493.215 339.722 491.696 340.659C490.005 341.702 487.103 345.32 487.386 345.812C487.875 346.664 490.039 344.933 492.492 343.758C494.457 342.821 498.524 343.113 498.524 343.113C498.524 343.113 496.483 344.508 495.536 345.726C494.586 346.943 493.329 349.636 493.879 349.741C494.896 349.932 495.751 349.043 497.451 347.174C498.42 346.107 501.85 345.913 503.833 347.386C504.212 347.666 507.599 351.773 512.54 351.533C517.477 351.293 519.654 340.536 519.654 340.536Z" fill="#E59F89"/>
<path d="M371.471 569.061L364.972 565.605C363.548 564.846 363.001 563.06 363.76 561.637L397.565 498.072C398.322 496.649 400.108 496.102 401.534 496.861L408.033 500.317C409.457 501.073 410.004 502.859 409.245 504.286L375.44 567.85C374.683 569.273 372.897 569.82 371.471 569.061Z" fill="#444C41"/>
<path d="M400.32 558.107V569.925H332C332 566.66 333.322 563.709 335.462 561.569C337.598 559.429 340.553 558.107 343.818 558.107H400.32Z" fill="#FCAD4F"/>
<path d="M191.107 197.209C190.206 217.436 174.248 219.9 167.621 218.114C152.807 247.451 124.768 236.902 116.87 226.064C103.63 238.538 93.4768 223.43 96.3897 215.786C79.0503 218.334 77.7554 200.005 85.9011 195.459C75.701 186.636 81.8129 177.962 86.1439 174.728C80.748 161.414 93.9459 154.268 99.84 157.106C101.035 137.337 116.967 139.787 123.81 144.225C131.008 113.496 158.103 127.473 160.297 136.926C165.117 134.416 168.982 138.601 170.312 141.007C182.955 122.653 205.704 140.635 199.157 155.06C221.952 170.732 206.305 195.046 191.107 197.209Z" fill="white"/>
<path d="M126.151 245.851C128.281 248.833 126.23 255.755 121.763 257.514C117.297 259.273 112.186 256.969 110.531 252.766C108.876 248.564 109.923 244.407 114.216 242.716C118.51 241.026 124.496 241.648 126.151 245.851Z" fill="white"/>
<path d="M116.949 268.582C117.931 270.106 116.891 273.381 114.607 274.281C112.323 275.18 109.893 273.471 109.174 271.643C108.454 269.816 108.733 267.613 111.676 266.837C113.991 265.925 116.463 266.862 116.949 268.582Z" fill="white"/>
<path d="M112.967 162.636L120.915 174.818L119.225 175.92L107.204 171.026L107.091 171.1L112.92 180.034L111.082 181.233L103.134 169.051L104.836 167.941L116.87 172.844L116.983 172.77L111.147 163.824L112.967 162.636ZM127.422 170.836C126.565 171.394 125.69 171.686 124.795 171.71C123.901 171.734 123.047 171.508 122.233 171.032C121.42 170.557 120.705 169.847 120.089 168.903C119.471 167.955 119.107 167.012 118.997 166.071C118.887 165.131 119.023 164.257 119.405 163.448C119.787 162.639 120.407 161.955 121.263 161.396C122.12 160.837 122.995 160.545 123.89 160.522C124.784 160.498 125.64 160.725 126.456 161.205C127.272 161.685 127.989 162.398 128.607 163.346C129.223 164.29 129.585 165.23 129.692 166.166C129.8 167.102 129.663 167.975 129.28 168.784C128.898 169.593 128.279 170.277 127.422 170.836ZM126.454 169.339C127.009 168.976 127.373 168.53 127.547 167.998C127.72 167.467 127.735 166.9 127.591 166.299C127.451 165.694 127.19 165.099 126.807 164.512C126.427 163.929 125.988 163.452 125.492 163.081C124.996 162.703 124.469 162.484 123.91 162.425C123.352 162.365 122.795 162.517 122.239 162.879C121.68 163.244 121.313 163.695 121.139 164.233C120.968 164.769 120.954 165.34 121.096 165.948C121.24 166.55 121.502 167.142 121.882 167.725C122.265 168.312 122.703 168.793 123.195 169.166C123.692 169.538 124.219 169.751 124.775 169.807C125.335 169.859 125.895 169.703 126.454 169.339ZM131.85 154.658L132.781 156.086L127.791 159.342L126.859 157.914L131.85 154.658ZM126.77 154.852L128.548 153.692L134.187 162.335C134.412 162.68 134.633 162.906 134.85 163.013C135.064 163.116 135.273 163.146 135.477 163.104C135.683 163.055 135.883 162.967 136.077 162.84C136.22 162.747 136.338 162.655 136.432 162.566C136.526 162.476 136.599 162.406 136.651 162.355L137.931 163.615C137.854 163.722 137.733 163.857 137.568 164.021C137.406 164.189 137.184 164.368 136.901 164.558C136.438 164.871 135.948 165.073 135.429 165.162C134.911 165.251 134.408 165.195 133.92 164.993C133.432 164.791 133.009 164.415 132.649 163.864L126.77 154.852ZM144.211 159.619L138.25 150.483L140.029 149.322L145.99 158.459L144.211 159.619ZM138.229 148.487C137.919 148.689 137.586 148.759 137.23 148.698C136.875 148.63 136.603 148.451 136.414 148.162C136.222 147.868 136.168 147.547 136.252 147.199C136.337 146.844 136.534 146.565 136.843 146.363C137.153 146.161 137.485 146.095 137.84 146.162C138.197 146.224 138.471 146.401 138.662 146.695C138.851 146.984 138.903 147.306 138.818 147.661C138.734 148.01 138.538 148.285 138.229 148.487ZM146.622 150.313L150.161 155.737L148.382 156.898L142.421 147.761L144.129 146.647L145.099 148.134L145.212 148.061C145.106 147.44 145.182 146.836 145.439 146.251C145.699 145.662 146.173 145.144 146.859 144.697C147.481 144.29 148.112 144.066 148.75 144.022C149.387 143.975 150 144.122 150.592 144.466C151.183 144.809 151.725 145.358 152.216 146.111L156.008 151.923L154.229 153.083L150.578 147.486C150.146 146.823 149.635 146.418 149.047 146.271C148.457 146.119 147.86 146.24 147.257 146.633C146.845 146.902 146.536 147.231 146.331 147.619C146.13 148.004 146.049 148.43 146.088 148.897C146.128 149.357 146.306 149.829 146.622 150.313ZM132.916 182.619L133.848 184.046L128.857 187.302L127.926 185.875L132.916 182.619ZM127.836 182.813L129.615 181.652L135.253 190.295C135.478 190.64 135.699 190.866 135.916 190.973C136.131 191.077 136.34 191.107 136.544 191.064C136.749 191.015 136.949 190.927 137.143 190.8C137.286 190.707 137.405 190.616 137.499 190.526C137.593 190.436 137.666 190.366 137.718 190.316L138.997 191.575C138.92 191.682 138.799 191.817 138.635 191.981C138.473 192.149 138.25 192.328 137.968 192.518C137.505 192.832 137.014 193.033 136.496 193.122C135.978 193.212 135.475 193.156 134.987 192.954C134.499 192.752 134.075 192.375 133.715 191.824L127.836 182.813ZM139.28 183.758L142.82 189.183L141.041 190.344L133.093 178.162L134.848 177.017L137.805 181.549L137.918 181.476C137.811 180.844 137.884 180.24 138.135 179.663C138.386 179.087 138.867 178.567 139.577 178.104C140.203 177.695 140.835 177.467 141.471 177.419C142.111 177.369 142.727 177.516 143.318 177.859C143.911 178.196 144.456 178.745 144.952 179.507L148.744 185.318L146.965 186.478L143.314 180.881C142.876 180.211 142.365 179.804 141.779 179.66C141.191 179.513 140.59 179.639 139.975 180.04C139.555 180.314 139.236 180.649 139.02 181.045C138.807 181.438 138.718 181.87 138.753 182.339C138.789 182.801 138.965 183.275 139.28 183.758ZM155.175 181.385C154.275 181.972 153.374 182.286 152.473 182.325C151.573 182.358 150.718 182.139 149.907 181.667C149.098 181.189 148.384 180.476 147.765 179.529C147.155 178.593 146.791 177.654 146.674 176.713C146.562 175.768 146.69 174.891 147.059 174.079C147.432 173.264 148.043 172.58 148.892 172.026C149.407 171.69 149.962 171.449 150.558 171.304C151.153 171.159 151.761 171.144 152.384 171.257C153.007 171.371 153.619 171.647 154.222 172.085C154.821 172.519 155.392 173.151 155.932 173.98L156.344 174.61L149.081 179.349L148.212 178.016L153.732 174.415C153.426 173.947 153.061 173.595 152.635 173.358C152.207 173.117 151.751 173.004 151.269 173.019C150.791 173.032 150.322 173.188 149.862 173.488C149.362 173.814 149.006 174.221 148.794 174.71C148.583 175.193 148.505 175.696 148.558 176.221C148.614 176.739 148.79 177.226 149.088 177.682L149.767 178.723C150.165 179.334 150.611 179.783 151.105 180.072C151.602 180.358 152.119 180.487 152.655 180.46C153.189 180.428 153.715 180.243 154.235 179.904C154.572 179.684 154.848 179.436 155.064 179.16C155.276 178.879 155.421 178.576 155.496 178.25C155.572 177.924 155.57 177.583 155.49 177.228L157.372 176.433C157.56 177.016 157.602 177.608 157.496 178.209C157.392 178.803 157.145 179.373 156.756 179.921C156.368 180.462 155.842 180.95 155.175 181.385ZM138.785 220.472L137.989 219.252L138.836 209.736L138.782 209.653L133.993 212.777L132.984 211.231L139.991 206.659L140.837 207.956L140.13 217.27L140.185 217.354L145.11 214.14L146.119 215.687L138.785 220.472ZM151.924 212.162C151.068 212.721 150.192 213.012 149.298 213.036C148.403 213.06 147.549 212.835 146.735 212.359C145.922 211.883 145.207 211.174 144.592 210.23C143.973 209.282 143.609 208.338 143.499 207.398C143.389 206.458 143.525 205.583 143.907 204.774C144.289 203.965 144.909 203.281 145.765 202.722C146.622 202.163 147.498 201.872 148.392 201.848C149.287 201.824 150.142 202.052 150.958 202.532C151.774 203.011 152.491 203.725 153.11 204.673C153.725 205.616 154.087 206.556 154.195 207.492C154.302 208.429 154.165 209.301 153.782 210.11C153.4 210.919 152.781 211.603 151.924 212.162ZM150.956 210.665C151.511 210.303 151.876 209.856 152.049 209.325C152.222 208.793 152.237 208.227 152.093 207.625C151.954 207.021 151.692 206.425 151.309 205.839C150.929 205.256 150.491 204.779 149.994 204.407C149.499 204.029 148.971 203.811 148.413 203.751C147.854 203.692 147.297 203.843 146.742 204.206C146.182 204.57 145.815 205.022 145.641 205.56C145.47 206.095 145.456 206.667 145.598 207.275C145.742 207.877 146.004 208.469 146.384 209.052C146.767 209.639 147.205 210.119 147.698 210.493C148.194 210.864 148.721 211.078 149.277 211.133C149.837 211.186 150.397 211.03 150.956 210.665ZM156.287 201.319L159.827 206.744L158.048 207.904L152.087 198.767L153.794 197.654L154.765 199.141L154.878 199.067C154.772 198.446 154.848 197.843 155.104 197.257C155.365 196.669 155.838 196.151 156.524 195.703C157.147 195.297 157.778 195.072 158.416 195.028C159.052 194.981 159.666 195.129 160.258 195.472C160.849 195.815 161.391 196.364 161.882 197.117L165.674 202.929L163.895 204.089L160.243 198.492C159.811 197.83 159.301 197.425 158.713 197.277C158.122 197.125 157.525 197.246 156.923 197.639C156.51 197.908 156.202 198.237 155.997 198.625C155.796 199.01 155.715 199.436 155.754 199.903C155.794 200.363 155.972 200.835 156.287 201.319ZM172.117 198.988C171.217 199.575 170.316 199.889 169.415 199.928C168.515 199.961 167.66 199.742 166.849 199.271C166.039 198.792 165.325 198.079 164.707 197.132C164.096 196.196 163.733 195.257 163.616 194.316C163.503 193.372 163.631 192.494 164.001 191.682C164.374 190.867 164.985 190.183 165.833 189.63C166.349 189.293 166.904 189.052 167.499 188.907C168.094 188.762 168.703 188.747 169.326 188.86C169.948 188.974 170.561 189.25 171.163 189.688C171.763 190.122 172.333 190.754 172.874 191.583L173.285 192.213L166.023 196.952L165.153 195.619L170.673 192.018C170.368 191.55 170.003 191.198 169.577 190.961C169.148 190.72 168.693 190.607 168.211 190.622C167.733 190.635 167.264 190.791 166.804 191.091C166.304 191.417 165.948 191.824 165.736 192.314C165.525 192.796 165.446 193.3 165.5 193.824C165.555 194.342 165.732 194.829 166.029 195.285L166.708 196.326C167.107 196.937 167.553 197.386 168.046 197.675C168.544 197.961 169.061 198.09 169.597 198.063C170.13 198.031 170.657 197.846 171.176 197.507C171.513 197.287 171.79 197.039 172.005 196.763C172.218 196.483 172.362 196.179 172.438 195.853C172.513 195.527 172.511 195.186 172.432 194.831L174.313 194.036C174.502 194.619 174.543 195.211 174.438 195.812C174.333 196.406 174.087 196.976 173.698 197.524C173.31 198.065 172.783 198.553 172.117 198.988ZM172.185 181.314L177.692 190.093L176.044 191.168L170.228 182.59L172.185 181.314ZM179.231 194.245C178.902 194.46 178.545 194.528 178.161 194.451C177.774 194.37 177.476 194.163 177.265 193.832C177.049 193.509 176.983 193.156 177.067 192.774C177.148 192.387 177.353 192.086 177.682 191.872C178.003 191.662 178.357 191.598 178.744 191.679C179.128 191.757 179.428 191.957 179.644 192.279C179.783 192.5 179.856 192.738 179.864 192.993C179.873 193.241 179.823 193.477 179.715 193.7C179.606 193.924 179.445 194.105 179.231 194.245Z" fill="black"/>
<path d="M611.011 138.385C597.842 153.764 583.753 145.875 579.633 140.386C549.891 154.372 534.302 128.79 534.756 115.387C516.642 117.059 517.95 98.9025 524.953 94.6755C509.724 86.0023 519.995 70.7651 529.212 72.202C526.611 58.9683 536.769 55.9 542.173 56.02C546.123 42.2082 560.922 44.7082 563.817 50.5744C576.936 35.7373 587.978 47.4813 590.635 55.1924C615.233 35.4186 627.968 63.1194 623.873 71.9174C629.217 72.9096 629.683 78.5869 629.248 81.3015C650.514 74.6306 657.359 102.81 643.315 110.14C651.619 136.527 624.316 146.042 611.011 138.385Z" fill="white"/>
<path d="M556.613 157.446C558.266 160.717 555.191 167.248 550.51 168.311C545.829 169.373 541.126 166.321 540.126 161.916C539.126 157.512 540.79 153.562 545.29 152.541C549.791 151.519 555.613 153.041 556.613 157.446Z" fill="white"/>
<path d="M544.076 178.521C544.816 180.176 543.292 183.257 540.898 183.8C538.505 184.343 536.362 182.286 535.927 180.371C535.493 178.456 536.102 176.32 539.128 175.998C541.555 175.447 543.856 176.748 544.076 178.521Z" fill="white"/>
<path d="M569.888 68.3995L562.877 81.1441L560.954 80.0863L567.965 67.3418L569.888 68.3995ZM574.138 70.7374L573.481 71.9322C573.287 72.2849 573.016 72.6197 572.669 72.9366C572.328 73.2517 571.941 73.5226 571.509 73.7493C571.076 73.976 570.629 74.1301 570.168 74.2116L569.61 73.0453C570.051 72.8232 570.471 72.56 570.871 72.2557C571.275 71.9537 571.61 71.56 571.877 71.0746L572.545 69.8611L574.138 70.7374ZM577.89 72.8015L570.88 85.5461L569.019 84.5226L576.03 71.778L577.89 72.8015ZM582.254 75.2019L575.244 87.9465L573.383 86.923L580.394 74.1784L582.254 75.2019ZM592.104 84.7704L591.283 86.2639L586.062 83.3919L586.883 81.8984L592.104 84.7704ZM589.543 80.3786L591.404 81.402L586.43 90.444C586.232 90.8049 586.136 91.1063 586.144 91.3482C586.153 91.5859 586.225 91.7847 586.358 91.9447C586.498 92.1028 586.67 92.2377 586.873 92.3495C587.023 92.4317 587.159 92.4932 587.283 92.5341C587.406 92.5749 587.502 92.6063 587.571 92.6281L587.062 94.35C586.931 94.3321 586.755 94.2892 586.533 94.2211C586.309 94.1572 586.046 94.0452 585.745 93.885C585.251 93.624 584.843 93.2859 584.52 92.8706C584.197 92.4553 584.01 91.9849 583.959 91.4595C583.907 90.934 584.04 90.383 584.357 89.8063L589.543 80.3786ZM591.57 97.2026C590.964 96.8695 590.478 96.4562 590.112 95.9629C589.748 95.4655 589.542 94.9223 589.493 94.3334C589.448 93.7467 589.598 93.1402 589.942 92.5137C590.239 91.9744 590.587 91.5876 590.986 91.3532C591.385 91.1188 591.817 90.997 592.281 90.9877C592.746 90.9783 593.224 91.0416 593.717 91.1775C594.21 91.3134 594.697 91.4788 595.179 91.6736C595.788 91.9221 596.282 92.1238 596.662 92.2786C597.044 92.4292 597.343 92.4992 597.559 92.4886C597.776 92.4781 597.946 92.3608 598.069 92.1367L598.093 92.0932C598.392 91.5497 598.47 91.0442 598.327 90.5766C598.189 90.1113 597.819 89.7132 597.217 89.3823C596.591 89.0378 596.021 88.9052 595.507 88.9846C595 89.0622 594.585 89.2313 594.263 89.492L592.734 88.1319C593.261 87.6652 593.821 87.363 594.416 87.2253C595.017 87.0857 595.623 87.0788 596.235 87.2045C596.849 87.3261 597.444 87.5455 598.021 87.8627C598.403 88.0727 598.782 88.3408 599.159 88.6671C599.543 88.9916 599.856 89.3747 600.099 89.8166C600.347 90.2607 600.47 90.7688 600.469 91.3409C600.47 91.9089 600.278 92.5414 599.895 93.2383L596.403 99.5857L594.586 98.5862L595.305 97.2794L595.231 97.2383C594.978 97.4128 594.667 97.55 594.299 97.6499C593.93 97.7499 593.515 97.7728 593.053 97.7186C592.591 97.6645 592.097 97.4925 591.57 97.2026ZM592.796 95.9316C593.311 96.2146 593.806 96.3549 594.283 96.3524C594.764 96.3522 595.19 96.2407 595.561 96.018C595.939 95.7933 596.231 95.4923 596.439 95.1147L597.117 93.8826C597.014 93.9125 596.851 93.9039 596.628 93.8571C596.412 93.8083 596.172 93.7385 595.909 93.6476C595.648 93.5526 595.394 93.4589 595.147 93.3666C594.903 93.2701 594.699 93.19 594.534 93.1263C594.148 92.9734 593.776 92.8688 593.418 92.8123C593.064 92.7582 592.742 92.7837 592.451 92.8888C592.168 92.9921 591.935 93.2097 591.752 93.5416C591.499 94.0021 591.477 94.4441 591.687 94.8677C591.9 95.2872 592.269 95.6418 592.796 95.9316ZM602.376 98.6482L603.613 96.3699L603.937 96.5479L609.97 94.5979L612.198 95.8234L605.322 98.0391L605.029 97.8782L602.376 98.6482ZM598.882 100.949L605.892 88.2044L607.753 89.2279L600.742 101.972L598.882 100.949ZM604.918 104.269L603.994 97.8439L605.992 97.2485L607.202 105.526L604.918 104.269ZM612.256 108.557C611.314 108.039 610.614 107.392 610.155 106.615C609.702 105.836 609.493 104.979 609.528 104.041C609.569 103.102 609.862 102.136 610.408 101.145C610.946 100.166 611.604 99.4033 612.379 98.8574C613.159 98.3137 613.995 98.0138 614.885 97.9577C615.779 97.9038 616.67 98.121 617.558 98.6094C618.097 98.906 618.571 99.2828 618.979 99.7396C619.387 100.196 619.687 100.726 619.879 101.329C620.072 101.932 620.117 102.603 620.013 103.34C619.913 104.074 619.624 104.874 619.147 105.741L618.784 106.401L611.186 102.221L611.952 100.827L617.727 104.004C617.997 103.514 618.136 103.026 618.144 102.539C618.155 102.048 618.04 101.593 617.8 101.175C617.564 100.758 617.206 100.418 616.725 100.153C616.202 99.8657 615.675 99.7433 615.143 99.786C614.618 99.8269 614.137 99.9944 613.7 100.289C613.269 100.581 612.922 100.966 612.659 101.443L612.06 102.532C611.709 103.171 611.522 103.776 611.5 104.347C611.481 104.921 611.61 105.438 611.887 105.898C612.166 106.354 612.577 106.731 613.12 107.03C613.473 107.224 613.822 107.351 614.167 107.411C614.514 107.468 614.85 107.452 615.173 107.365C615.497 107.278 615.796 107.116 616.073 106.879L617.659 108.165C617.233 108.606 616.73 108.921 616.15 109.11C615.577 109.298 614.958 109.349 614.291 109.263C613.631 109.176 612.953 108.94 612.256 108.557ZM561.022 107.766C560.125 107.273 559.456 106.637 559.014 105.859C558.572 105.081 558.37 104.221 558.407 103.28C558.444 102.338 558.734 101.374 559.277 100.386C559.822 99.3948 560.484 98.6293 561.262 98.0898C562.039 97.5503 562.875 97.2589 563.769 97.2156C564.663 97.1723 565.558 97.3971 566.454 97.89C567.35 98.3829 568.019 99.0185 568.461 99.7966C568.903 100.575 569.104 101.437 569.065 102.382C569.026 103.328 568.734 104.297 568.188 105.288C567.645 106.276 566.986 107.037 566.21 107.572C565.435 108.108 564.6 108.397 563.706 108.44C562.813 108.484 561.918 108.259 561.022 107.766ZM561.887 106.207C562.468 106.527 563.033 106.638 563.584 106.541C564.135 106.444 564.641 106.19 565.105 105.781C565.572 105.373 565.975 104.862 566.312 104.248C566.648 103.638 566.862 103.027 566.956 102.414C567.057 101.799 567.002 101.231 566.791 100.71C566.581 100.189 566.185 99.7687 565.604 99.4492C565.019 99.1274 564.448 99.016 563.891 99.1149C563.339 99.2161 562.827 99.4726 562.358 99.8843C561.895 100.294 561.495 100.804 561.16 101.414C560.822 102.028 560.604 102.64 560.506 103.251C560.412 103.864 560.471 104.429 560.684 104.946C560.901 105.465 561.302 105.886 561.887 106.207ZM580.77 105.927L572.046 113.579L570.054 112.483L571.84 101.015L573.837 102.114L572.212 110.801L572.312 110.855L578.772 104.828L580.77 105.927ZM580.949 118.727C580.007 118.209 579.307 117.562 578.848 116.785C578.395 116.007 578.186 115.149 578.221 114.211C578.262 113.272 578.555 112.307 579.101 111.315C579.639 110.336 580.297 109.574 581.072 109.028C581.852 108.484 582.687 108.184 583.578 108.128C584.472 108.074 585.363 108.291 586.251 108.78C586.79 109.076 587.264 109.453 587.672 109.91C588.08 110.367 588.38 110.897 588.572 111.5C588.765 112.103 588.809 112.773 588.706 113.511C588.605 114.244 588.317 115.044 587.84 115.911L587.477 116.571L579.879 112.391L580.645 110.998L586.42 114.174C586.69 113.685 586.828 113.196 586.837 112.709C586.848 112.218 586.733 111.763 586.493 111.345C586.257 110.929 585.899 110.588 585.418 110.324C584.895 110.036 584.368 109.914 583.836 109.956C583.311 109.997 582.83 110.165 582.393 110.459C581.961 110.751 581.615 111.136 581.352 111.613L580.753 112.702C580.402 113.341 580.215 113.946 580.192 114.518C580.174 115.091 580.303 115.608 580.58 116.068C580.859 116.524 581.27 116.902 581.813 117.2C582.166 117.394 582.515 117.522 582.86 117.582C583.207 117.638 583.543 117.622 583.866 117.535C584.189 117.449 584.489 117.287 584.766 117.049L586.352 118.336C585.926 118.777 585.423 119.092 584.843 119.281C584.27 119.468 583.65 119.519 582.984 119.433C582.324 119.346 581.646 119.111 580.949 118.727ZM587.22 121.926L592.478 112.367L594.277 113.357L593.441 114.875L593.541 114.93C593.998 114.511 594.528 114.276 595.13 114.223C595.738 114.168 596.322 114.295 596.882 114.603C596.998 114.667 597.133 114.747 597.286 114.842C597.443 114.939 597.564 115.019 597.648 115.081L596.669 116.861C596.606 116.799 596.486 116.704 596.309 116.574C596.134 116.44 595.951 116.32 595.76 116.215C595.32 115.973 594.877 115.851 594.43 115.848C593.989 115.844 593.579 115.951 593.2 116.169C592.823 116.383 592.52 116.697 592.292 117.112L589.081 122.949L587.22 121.926ZM603.302 114.171L598.146 123.161L596.423 122.213L601.255 113.045L603.302 114.171ZM595.206 126.473C594.862 126.283 594.634 126.001 594.521 125.626C594.411 125.246 594.453 124.885 594.646 124.543C594.829 124.201 595.109 123.977 595.487 123.871C595.866 123.761 596.228 123.8 596.572 123.99C596.908 124.174 597.131 124.457 597.241 124.836C597.354 125.211 597.319 125.57 597.136 125.913C597.006 126.138 596.83 126.315 596.609 126.442C596.395 126.567 596.163 126.634 595.915 126.643C595.667 126.653 595.43 126.596 595.206 126.473Z" fill="black"/>
</svg>
