<svg width="693" height="698" viewBox="0 0 693 698" fill="none" xmlns="http://www.w3.org/2000/svg">
<path d="M331.009 191.458C474.798 162.164 540.182 194.3 540.182 194.3C539.718 194.3 539.282 194.341 538.872 194.414C546.088 196.302 553.41 198.663 560.743 201.507C590.912 213.211 615.164 230.735 629.315 249.128C656.795 271.853 667.682 314.958 671.531 336.3C678.571 371.346 670.5 402.169 647.95 414.335C646.489 415.123 644.992 415.817 643.463 416.423C618.573 451.035 623.601 499.29 640.096 529.697C656.748 560.394 658.5 586.828 603.286 642.253C548.071 697.679 417.484 717.292 180.85 672.098C-35.177 630.84 -1.0333 484.051 6.55176 458.797C7.8781 435.496 18.7481 407.19 38.2891 380.803C39.9502 378.56 41.6435 376.37 43.3672 374.236C84.7181 305.941 195.877 218.988 331.009 191.458Z" fill="#D9DCB9"/>
<path d="M67.9333 491.371L71.2259 519.215H79.0456L80.5112 491.132L67.9333 491.371Z" fill="#7F4C28"/>
<path d="M408.071 491.371L404.779 519.215H396.959L395.494 491.132L408.071 491.371Z" fill="#7F4C28"/>
<path d="M69.4592 406.746L109.444 405.637L107.871 452.881L69.4592 464.988V406.746Z" fill="#D5BD99"/>
<path d="M409.471 406.296L369.486 405.188L371.059 452.431L409.471 464.539V406.296Z" fill="#D5BD99"/>
<path d="M98.5113 453.266L111.45 395.965C116.288 374.541 135.321 359.326 157.285 359.326H321.701C343.906 359.326 363.079 374.869 367.673 396.592L379.658 453.265H98.5113V453.266Z" fill="#F3E1CA"/>
<path d="M102.97 451.178H229.084H249.178H375.291C388.175 451.178 398.62 460.618 398.62 472.263V500.445H249.178H229.084H79.6416V472.263C79.6416 460.618 90.0858 451.178 102.97 451.178Z" fill="#E9CA9E"/>
<path d="M387.557 500.894V420.664C387.557 412.729 393.959 406.296 401.857 406.296H407.702C415.6 406.296 422.002 412.729 422.002 420.664V500.894H387.557Z" fill="#F3E1CA"/>
<path d="M91.3809 500.894V421.045C91.3809 413.148 84.9787 406.746 77.0809 406.746H71.2356C63.3379 406.746 56.9357 413.148 56.9357 421.045V500.894H91.3809Z" fill="#F3E1CA"/>
<path d="M404.779 432.455C401.696 432.455 399.196 429.859 399.196 426.656C399.196 423.453 401.696 420.856 404.779 420.856C407.862 420.856 410.361 423.453 410.361 426.656C410.361 429.859 407.862 432.455 404.779 432.455Z" fill="#D5BD99"/>
<path d="M403.867 439.056V485.676C403.867 485.676 413.326 462.366 403.867 439.056Z" fill="#D5BD99"/>
<path d="M91.3792 471.219H387.556V500.895H91.3792V471.219Z" fill="#F3E1CA"/>
<path d="M296.64 368.265V427.235C296.64 427.235 308.606 397.75 296.64 368.265Z" fill="#D5BD99"/>
<path d="M73.308 430.265C70.2249 430.265 67.7255 427.668 67.7255 424.465C67.7255 421.262 70.2249 418.666 73.308 418.666C76.3912 418.666 78.8906 421.262 78.8906 424.465C78.8906 427.668 76.3912 430.265 73.308 430.265Z" fill="#D5BD99"/>
<path d="M185.479 370.133V429.104C185.479 429.104 173.513 399.619 185.479 370.133Z" fill="#D5BD99"/>
<path d="M74.2192 436.865V483.485C74.2192 483.485 64.7596 460.175 74.2192 436.865Z" fill="#D5BD99"/>
<path d="M382.552 483.485H94.0506C94.0506 483.485 192.703 496.138 382.552 483.485Z" fill="#D5BD99"/>
<path d="M122.711 408.121C122.711 408.121 134.471 438.8 133.96 443.913C133.448 449.026 129.87 455.25 127.484 455.251L87.2587 455.553C87.2587 455.553 82.6189 454.651 80.2523 446.981C77.8857 439.312 70.216 410.167 70.216 409.315C70.216 408.462 69.193 403.552 73.7955 399.787C78.3972 396.02 108.735 396.953 114.53 398.748C118.775 400.063 120.43 402.026 122.711 408.121Z" fill="#DE8B2E"/>
<path d="M78.4148 402.154L93.1519 451.727C93.1519 451.727 72.3485 424.399 78.4148 402.154Z" fill="#BC7228"/>
<path d="M104.927 417.169L88.7102 402.843C88.7102 402.843 103.42 408.499 104.927 417.169Z" fill="#BC7228"/>
<path d="M115.235 403.974L111.59 416.415C111.59 416.415 118.125 410.258 115.235 403.974Z" fill="#BC7228"/>
<path d="M109.329 426.941L102.049 445.193C102.049 445.193 101.035 431.183 109.329 426.941Z" fill="#BC7228"/>
<path d="M130.817 441.8L115.235 427.725C115.235 427.725 128.932 431.943 130.817 441.8Z" fill="#BC7228"/>
<path d="M342.286 452.317C342.286 452.317 346.402 457.488 352.418 464.324C352.418 464.324 352.418 464.332 352.426 464.341C352.938 464.917 353.465 465.51 354.001 466.11C356.055 468.424 359.254 468.416 362.753 467.19C367.21 465.623 372.163 462.084 375.873 458.844C377.959 457.018 379.656 455.288 380.655 454.062C380.655 454.054 380.663 454.054 380.671 454.046C382.53 452.089 383.026 448.801 383.026 448.801C383.902 448.063 384.308 445.148 380.996 446.91C379.632 447.64 375.979 448.696 372.171 449.686C372.171 449.686 372.171 449.686 372.163 449.694C366.731 451.107 360.967 452.39 360.967 452.39C360.334 452.536 359.701 452.78 359.116 453.056L354.001 444.742L342.286 452.317Z" fill="#FCAD4F"/>
<path d="M375.873 458.844C377.959 457.018 379.656 455.288 380.655 454.062C380.655 454.054 380.663 454.054 380.671 454.046C382.53 452.089 383.026 448.801 383.026 448.801C383.902 448.063 384.308 445.148 380.996 446.91C379.632 447.64 375.979 448.696 372.171 449.686C372.171 449.686 372.171 449.686 372.163 449.694C372.082 450.003 370.49 456.23 375.873 458.844Z" fill="#FCAD4F"/>
<path d="M356.763 449.229C356.763 449.229 357.115 450.563 355.187 451.205C353.259 451.848 352.379 452.491 352.041 453.235C351.702 453.98 350.451 455.028 349.199 455.197C347.947 455.366 346.459 456.517 346.595 457.549L345.612 456.375C345.612 456.375 345.716 454.757 347.677 454.047C349.639 453.337 351.162 452.559 351.533 451.848C351.905 451.138 353.496 450.056 354.679 450.022C355.863 449.988 356.12 448.184 356.12 448.184L356.763 449.229Z" fill="#FCAD4F"/>
<path d="M356.287 461.523C356.287 461.523 354.967 461.472 354.257 460.001C353.547 458.53 353.698 457.92 353.698 457.92C353.698 457.92 351.467 462.031 356.287 461.523Z" fill="#FCAD4F"/>
<path d="M352.419 464.324C352.419 464.324 352.419 464.333 352.427 464.341C352.939 464.917 353.467 465.51 354.002 466.111C356.056 468.424 359.255 468.416 362.754 467.19C362.754 467.19 360.749 463.553 357.761 463.399C354.766 463.253 352.419 464.324 352.419 464.324Z" fill="#FCAD4F"/>
<path d="M380.694 449.193L376.432 449.853C376.432 449.853 378.208 447.975 380.694 449.193Z" fill="#FCAD4F"/>
<path d="M139.616 433.822C139.616 433.822 158.87 466.809 182.419 462.473C205.968 458.138 210.115 392.916 210.115 392.916H199.37C199.37 392.916 189.569 430.805 181.086 433.821C172.603 436.837 161.67 424.978 161.67 424.978C161.67 424.978 145.083 418.93 139.616 433.822Z" fill="#E2B288"/>
<path d="M199.389 393.087C199.389 393.087 198.05 390.306 197.176 385.772C196.301 381.239 200.33 377.153 200.837 375.995C201.345 374.836 203.372 375.415 201.851 380.413C200.331 385.41 204.024 382.007 206.486 378.457C208.949 374.908 206.776 370.925 209.963 367.086C213.149 363.248 212.787 370.273 212.28 372.663C212.28 372.663 214.019 373.605 214.381 375.849C214.743 378.094 214.381 379.524 214.381 379.524C214.381 379.524 215.539 380.774 215.395 382.73C215.25 384.685 214.743 385.048 214.743 385.048C214.743 385.048 215.467 386.206 214.96 388.669C214.454 391.131 209.311 398.446 209.311 398.446L199.389 393.087Z" fill="#E2B288"/>
<path d="M139.62 397.198L147.185 405.814C147.185 405.814 133.647 414.079 126.041 411.988L112.698 396.412C112.698 396.412 134.045 401.587 139.62 397.198Z" fill="#E2B288"/>
<path d="M108.798 388.203C110.541 385.776 112.298 385.566 113.332 385.722C111.055 377.548 111.837 366.676 128.026 360.631C128.026 360.631 133.818 363.022 135.713 368.968C137.607 374.914 145.167 375.067 145.167 375.067C145.167 375.067 147.576 385.855 150.666 391.743C150.666 391.743 145.531 399.071 133.525 400.467C121.518 401.862 118.405 396.384 118.405 396.384C111.315 399.635 106.091 391.973 108.798 388.203Z" fill="#F0CBA5"/>
<path d="M130.253 356.031C130.253 356.031 130.603 363.161 122.706 368.584C114.809 374.007 114.72 373.684 114.72 373.684C114.72 373.684 120.853 379.094 119.433 384.068C119.433 384.068 122.18 387.763 120.3 389.528C120.3 389.528 115.968 385.689 112.65 385.688C109.332 385.688 106.138 392.31 112.698 396.412C112.698 396.412 117.012 397.246 118.47 396.185C118.47 396.185 120.692 397.387 120.89 399.191C120.925 399.514 119.698 403.377 118.664 403.377C118.664 403.377 109.808 400.453 104.998 396.834C100.189 393.216 92.5726 384.668 96.4955 377.413C96.4955 377.413 97.2717 365.251 112.291 357.673C127.311 350.096 129.969 352.705 130.253 356.031Z" fill="#3E3E44"/>
<path d="M230.428 416.973L392.79 395.924L397.816 410.69C397.816 410.69 286.591 450.254 256.821 451.474C227.051 452.694 230.428 416.973 230.428 416.973Z" fill="#E6CFB0"/>
<path d="M147.18 405.814C147.18 405.814 131.308 411.929 124.682 410.407C124.682 410.407 124.806 431.444 138.95 446.734C153.094 462.024 170.153 463.062 199.181 462.744C227.303 462.438 228.576 460.901 228.576 460.901L232.352 416.972L184.222 412.888C184.222 412.888 160.053 406.204 147.18 405.814Z" fill="#889782"/>
<path d="M231.579 416.907C231.579 416.907 259.064 391.281 285.705 383.608C312.347 375.934 356.763 444.117 356.763 444.117L340.427 453.514L291.04 415.905C291.04 415.905 274.565 456.573 228.577 460.901L231.579 416.907Z" fill="#E6CFB0"/>
<path d="M135.716 430.796C135.716 430.796 154.97 463.784 178.519 459.447C202.068 455.112 206.215 389.891 206.215 389.891H195.471C195.471 389.891 185.669 427.779 177.186 430.795C168.703 433.811 157.77 421.952 157.77 421.952C157.77 421.952 141.183 415.904 135.716 430.796Z" fill="#F0CBA5"/>
<path d="M170.215 426.021L148.939 449.27C148.939 449.27 131.007 433.784 132.892 426.73C134.777 419.675 144.956 406.165 170.215 426.021Z" fill="#444C41"/>
<path d="M198.713 383.007C199.55 383.336 200.495 382.924 200.825 382.088L212.517 352.36C212.845 351.523 212.434 350.578 211.598 350.249C210.761 349.92 209.816 350.332 209.486 351.168L197.794 380.896C197.465 381.732 197.876 382.678 198.713 383.007Z" fill="#666666"/>
<path d="M195.485 390.061C195.485 390.061 194.146 387.28 193.272 382.746C192.397 378.213 196.426 374.127 196.933 372.969C197.44 371.81 199.468 372.389 197.947 377.387C196.427 382.384 200.12 378.981 202.582 375.431C205.045 371.883 202.872 367.899 206.059 364.06C209.245 360.222 208.883 367.247 208.377 369.637C208.377 369.637 210.115 370.579 210.477 372.824C210.839 375.069 210.477 376.498 210.477 376.498C210.477 376.498 211.635 377.748 211.491 379.704C211.346 381.66 210.839 382.022 210.839 382.022C210.839 382.022 211.563 383.181 211.057 385.643C210.55 388.105 205.408 395.42 205.408 395.42L195.485 390.061Z" fill="#F0CBA5"/>
<path d="M115.582 390.336C115.582 390.336 117.217 391.81 116.639 392.611C116.063 393.412 118.753 395.622 118.753 395.622C118.753 395.622 118.313 396.36 117.732 396.552C117.732 396.552 114.235 394.117 113.851 391.971C113.784 391.595 113.777 391.289 113.812 391.04C113.93 390.214 114.915 389.836 115.582 390.336Z" fill="white"/>
<path d="M133.358 370.193C133.358 370.193 131.651 369.58 129.37 371.371C127.091 373.162 127.467 375.424 127.467 375.424C127.467 375.424 130.154 370.947 133.358 370.193Z" fill="#666666"/>
<path d="M133.302 375.232C134.163 376.409 135.175 377.132 135.564 376.848C135.953 376.564 135.571 375.379 134.71 374.203C133.85 373.026 132.837 372.303 132.448 372.587C132.06 372.871 132.443 374.056 133.302 375.232Z" fill="#666666"/>
<path d="M290.206 403.621V413.633C290.206 413.633 284.802 408.522 290.206 403.621Z" fill="#47436D"/>
<path d="M176.387 432.213L175.036 441.761C175.036 441.761 171.322 436.961 176.387 432.213Z" fill="#E2B288"/>
<path d="M393.313 397.589L395.537 411.366C395.537 411.366 401.927 409.678 410.605 406.917C410.605 406.917 410.614 406.917 410.622 406.917C411.36 406.674 412.116 406.43 412.879 406.186C415.826 405.228 417.1 402.298 417.385 398.604C417.669 394.812 416.914 390.209 415.842 386.101C415.582 385.11 415.306 384.152 415.022 383.235C414.186 380.588 413.285 378.339 412.562 376.935V376.927C412.546 376.772 412.538 376.626 412.521 376.48C412.254 372.794 409.071 371.544 408.665 372.689C408.43 373.371 408.292 374.572 408.219 375.441C407.813 375.644 407.39 375.912 407.179 376.245C406.708 376.984 405.539 379.354 405.377 379.76C405.28 380.004 405.304 381.189 405.336 382.082C405.255 382.374 405.19 382.667 405.142 382.943C405.142 382.943 405.142 382.943 405.15 382.951C404.979 384.006 404.801 385.07 404.622 386.101C404.606 386.182 404.589 386.271 404.581 386.352C403.834 390.631 403.12 394.293 403.12 394.293C402.998 394.926 402.966 395.608 402.982 396.249L393.313 397.589Z" fill="#FCAD4F"/>
<path d="M398.532 396.869C398.532 396.869 399.894 397.083 399.707 399.107C399.521 401.131 399.755 402.195 400.301 402.803C400.846 403.412 401.304 404.98 400.955 406.194C400.607 407.408 401.062 409.233 402.061 409.524L400.592 409.952C400.592 409.952 399.152 409.208 399.29 407.126C399.428 405.043 399.328 403.337 398.827 402.711C398.326 402.085 397.974 400.193 398.42 399.096C398.865 397.998 397.317 397.038 397.317 397.038L398.532 396.869Z" fill="#FCAD4F"/>
<path d="M409.596 402.248C409.596 402.248 409.019 403.436 407.386 403.494C405.753 403.553 405.256 403.169 405.256 403.169C405.256 403.169 408.123 406.866 409.596 402.248Z" fill="#FCAD4F"/>
<path d="M410.613 406.915C410.613 406.915 410.62 406.918 410.631 406.914C411.364 406.678 412.119 406.433 412.885 406.183C415.829 405.233 417.108 402.301 417.392 398.604C417.392 398.604 413.256 398.977 411.914 401.651C410.575 404.336 410.613 406.915 410.613 406.915Z" fill="#FCAD4F"/>
<path d="M404.586 386.353C410.216 383.043 413.543 385.141 415.846 386.101C415.586 385.11 415.31 384.152 415.026 383.235C414.19 380.588 413.289 378.339 412.566 376.935V376.927C412.55 376.773 412.542 376.626 412.526 376.48C412.258 372.794 409.075 371.544 408.669 372.689C408.434 373.371 408.296 374.572 408.223 375.441C407.817 375.644 407.395 375.912 407.184 376.245C406.713 376.984 405.544 379.354 405.381 379.76C405.284 380.004 405.308 381.189 405.341 382.082C405.259 382.374 405.194 382.667 405.146 382.943C405.146 382.943 405.146 382.943 405.154 382.951C404.983 384.006 404.805 385.07 404.626 386.101C404.61 386.182 404.594 386.271 404.586 386.353Z" fill="#FCAD4F"/>
<path d="M408.301 376.345V380.337C408.301 380.337 406.981 377.968 408.301 376.345Z" fill="#FCAD4F"/>
<path d="M136.899 390.806C137.652 387.816 143.215 385.088 147.311 386.205" stroke="#666666"/>
<path d="M344.261 441.43L294.483 405.814C294.483 405.814 326.636 433.156 342.789 441.633C344.008 442.272 343.931 441.633 344.261 441.43Z" fill="#444C41"/>
<path d="M292.668 404.625C292.668 404.625 291.621 402.122 289.592 402.392C287.562 402.663 286.818 404.084 286.818 404.084L235.128 440.618C235.128 440.618 279.578 406.406 285.938 403.621C285.938 403.621 290.466 398.468 292.668 404.625Z" fill="#444C41"/>
<path d="M349.336 436.356L333.505 446.91C333.505 446.91 346.292 443.527 349.336 436.356Z" fill="#D5BD99"/>
<path d="M354.677 443.798L349.67 437.776C349.67 437.776 351.971 444.001 354.677 443.798Z" fill="#D5BD99"/>
<path d="M348.184 446.64L345.003 443.528C345.003 443.528 345.342 446.437 348.184 446.64Z" fill="#D5BD99"/>
<path d="M342.281 449.616L337.693 446.639C337.693 446.639 338.141 450.428 342.281 449.616Z" fill="#D5BD99"/>
<path d="M384.917 398.872L387.894 412.338C387.894 412.338 389.09 400.26 384.917 398.872Z" fill="#E6CFB0"/>
<path d="M391.804 396.869L385.816 398.147C385.816 398.147 389.419 399.345 391.804 396.869Z" fill="#E6CFB0"/>
<path d="M393.316 403.409L388.51 404.57C388.51 404.57 391.526 405.982 393.316 403.409Z" fill="#FCAD4F"/>
<path d="M393.885 409.31L388.811 410.579C388.811 410.579 392.261 411.339 393.885 409.31Z" fill="#E6CFB0"/>
<path d="M200.01 241.68C199.021 263.883 181.504 266.588 174.229 264.627C157.966 296.832 127.187 285.252 118.517 273.354C103.984 287.048 92.8376 270.463 96.0353 262.072C77.0011 264.869 75.5796 244.748 84.5215 239.758C73.3244 230.073 80.0337 220.551 84.788 217.001C78.8647 202.386 93.3526 194.541 99.8228 197.656C101.135 175.955 118.624 178.644 126.136 183.516C134.037 149.784 163.78 165.127 166.189 175.504C171.48 172.749 175.723 177.343 177.182 179.984C191.062 159.836 216.035 179.576 208.847 195.411C233.87 212.615 216.694 239.305 200.01 241.68Z" fill="white"/>
<path d="M126.151 295.987C128.281 298.969 126.23 305.891 121.763 307.65C117.297 309.409 112.186 307.105 110.531 302.902C108.876 298.7 109.923 294.543 114.216 292.852C118.51 291.162 124.496 291.784 126.151 295.987Z" fill="white"/>
<path d="M116.949 318.718C117.931 320.241 116.891 323.517 114.607 324.416C112.323 325.316 109.893 323.606 109.174 321.779C108.454 319.952 108.733 317.749 111.676 316.973C113.991 316.061 116.463 316.998 116.949 318.718Z" fill="white"/>
<path d="M98.5398 224.436L100.372 223.241L106.007 231.878C106.516 232.659 106.798 233.428 106.851 234.185C106.908 234.939 106.754 235.644 106.39 236.3C106.024 236.952 105.468 237.521 104.723 238.007C104.037 238.455 103.338 238.732 102.628 238.839C101.922 238.944 101.255 238.862 100.627 238.593C100.001 238.318 99.464 237.837 99.0164 237.151L100.843 235.959C101.062 236.296 101.33 236.538 101.645 236.682C101.964 236.825 102.306 236.876 102.67 236.836C103.035 236.79 103.397 236.651 103.753 236.418C104.142 236.164 104.418 235.868 104.582 235.53C104.747 235.185 104.796 234.805 104.729 234.391C104.662 233.976 104.477 233.537 104.175 233.073L98.5398 224.436ZM104.433 220.591L105.178 221.733C105.398 222.07 105.566 222.467 105.682 222.922C105.8 223.371 105.857 223.84 105.854 224.329C105.85 224.817 105.776 225.284 105.631 225.729L104.339 225.673C104.351 225.179 104.316 224.684 104.236 224.188C104.159 223.69 103.97 223.209 103.667 222.745L102.91 221.585L104.433 220.591ZM116.031 230.68C115.452 231.058 114.859 231.292 114.251 231.383C113.641 231.471 113.065 231.397 112.522 231.163C111.983 230.927 111.519 230.509 111.128 229.91C110.792 229.395 110.614 228.906 110.595 228.443C110.576 227.981 110.671 227.543 110.882 227.128C111.092 226.714 111.373 226.322 111.725 225.951C112.076 225.58 112.452 225.228 112.85 224.894C113.356 224.474 113.766 224.133 114.082 223.87C114.394 223.604 114.597 223.373 114.689 223.177C114.782 222.981 114.758 222.776 114.619 222.562L114.591 222.52C114.253 222.001 113.843 221.694 113.364 221.6C112.888 221.503 112.362 221.643 111.787 222.018C111.189 222.408 110.803 222.849 110.632 223.34C110.461 223.824 110.416 224.269 110.494 224.676L108.574 225.386C108.411 224.701 108.408 224.064 108.566 223.475C108.725 222.879 109.005 222.341 109.403 221.86C109.8 221.375 110.273 220.953 110.824 220.594C111.189 220.356 111.604 220.147 112.07 219.968C112.536 219.782 113.022 219.686 113.526 219.679C114.035 219.669 114.541 219.8 115.045 220.07C115.547 220.337 116.015 220.803 116.45 221.469L120.408 227.536L118.671 228.669L117.856 227.42L117.785 227.467C117.82 227.772 117.795 228.11 117.71 228.483C117.625 228.855 117.45 229.232 117.184 229.614C116.919 229.996 116.535 230.352 116.031 230.68ZM115.487 229C115.978 228.679 116.335 228.308 116.557 227.886C116.784 227.462 116.886 227.033 116.864 226.601C116.843 226.162 116.715 225.762 116.48 225.401L115.711 224.224C115.689 224.328 115.605 224.468 115.459 224.643C115.314 224.811 115.14 224.989 114.935 225.179C114.729 225.365 114.527 225.545 114.329 225.719C114.129 225.889 113.962 226.032 113.829 226.147C113.512 226.416 113.245 226.695 113.026 226.984C112.812 227.271 112.683 227.567 112.639 227.873C112.597 228.172 112.679 228.48 112.886 228.797C113.173 229.237 113.553 229.464 114.026 229.478C114.496 229.488 114.983 229.329 115.487 229ZM122.777 225.991L116.816 216.854L118.595 215.694L124.556 224.83L122.777 225.991ZM116.795 214.858C116.485 215.06 116.152 215.13 115.796 215.069C115.44 215.001 115.168 214.823 114.98 214.533C114.788 214.24 114.734 213.919 114.818 213.57C114.903 213.215 115.1 212.937 115.409 212.735C115.718 212.533 116.051 212.466 116.406 212.534C116.762 212.595 117.037 212.773 117.228 213.066C117.417 213.356 117.469 213.678 117.384 214.033C117.3 214.382 117.104 214.657 116.795 214.858ZM133.616 223.803L125.42 211.241L127.157 210.107L128.123 211.589L128.272 211.492C128.251 211.234 128.256 210.917 128.288 210.54C128.319 210.164 128.446 209.77 128.67 209.358C128.89 208.943 129.284 208.55 129.851 208.18C130.589 207.699 131.369 207.456 132.191 207.451C133.013 207.446 133.818 207.687 134.605 208.174C135.396 208.659 136.114 209.395 136.758 210.382C137.402 211.369 137.79 212.323 137.921 213.244C138.05 214.161 137.951 214.997 137.624 215.753C137.295 216.505 136.762 217.121 136.024 217.602C135.469 217.965 134.954 218.168 134.48 218.211C134.009 218.253 133.593 218.213 133.232 218.093C132.871 217.972 132.573 217.85 132.339 217.725L132.232 217.795L135.395 222.643L133.616 223.803ZM130.144 214.672C130.563 215.314 131.023 215.817 131.525 216.179C132.027 216.541 132.544 216.744 133.075 216.787C133.604 216.826 134.125 216.679 134.636 216.346C135.167 215.999 135.52 215.568 135.693 215.054C135.864 214.536 135.881 213.973 135.745 213.366C135.613 212.757 135.348 212.147 134.95 211.536C134.556 210.933 134.112 210.452 133.617 210.091C133.125 209.727 132.608 209.525 132.066 209.482C131.528 209.438 130.992 209.59 130.456 209.939C129.941 210.276 129.591 210.693 129.408 211.192C129.228 211.688 129.202 212.233 129.331 212.828C129.459 213.423 129.73 214.037 130.144 214.672ZM144.51 212.1C143.931 212.478 143.338 212.712 142.73 212.803C142.12 212.89 141.543 212.817 141.001 212.583C140.462 212.347 139.997 211.929 139.607 211.33C139.27 210.815 139.093 210.326 139.074 209.863C139.055 209.401 139.15 208.962 139.36 208.548C139.571 208.134 139.852 207.742 140.203 207.371C140.555 207 140.93 206.648 141.329 206.314C141.835 205.894 142.245 205.552 142.56 205.29C142.873 205.024 143.076 204.793 143.168 204.597C143.261 204.401 143.237 204.196 143.097 203.982L143.07 203.94C142.731 203.421 142.322 203.114 141.842 203.02C141.367 202.923 140.841 203.062 140.266 203.437C139.667 203.828 139.282 204.269 139.11 204.76C138.94 205.244 138.894 205.689 138.973 206.096L137.053 206.806C136.889 206.121 136.886 205.484 137.045 204.895C137.204 204.299 137.483 203.76 137.882 203.28C138.278 202.795 138.752 202.373 139.303 202.013C139.668 201.775 140.083 201.567 140.548 201.388C141.015 201.202 141.501 201.105 142.005 201.099C142.513 201.089 143.02 201.22 143.524 201.49C144.026 201.756 144.494 202.223 144.928 202.889L148.887 208.956L147.15 210.089L146.335 208.84L146.264 208.887C146.299 209.192 146.274 209.53 146.189 209.902C146.103 210.274 145.928 210.652 145.663 211.034C145.398 211.416 145.014 211.771 144.51 212.1ZM143.965 210.42C144.457 210.099 144.814 209.728 145.036 209.306C145.262 208.881 145.364 208.453 145.342 208.021C145.322 207.582 145.194 207.182 144.958 206.821L144.19 205.643C144.168 205.748 144.084 205.888 143.938 206.062C143.793 206.23 143.618 206.409 143.414 206.599C143.207 206.785 143.005 206.964 142.808 207.139C142.608 207.309 142.441 207.451 142.307 207.567C141.991 207.836 141.723 208.115 141.505 208.404C141.291 208.691 141.162 208.987 141.118 209.293C141.076 209.592 141.158 209.9 141.365 210.217C141.652 210.657 142.032 210.884 142.505 210.898C142.975 210.908 143.462 210.749 143.965 210.42ZM151.256 207.41L145.295 198.274L147.014 197.152L147.961 198.604L148.056 198.542C147.902 197.941 147.943 197.363 148.18 196.807C148.418 196.245 148.804 195.789 149.34 195.44C149.451 195.368 149.584 195.286 149.74 195.196C149.9 195.103 150.027 195.034 150.122 194.989L151.232 196.69C151.148 196.717 151.007 196.778 150.809 196.873C150.608 196.964 150.417 197.069 150.234 197.188C149.814 197.463 149.497 197.796 149.285 198.189C149.073 198.576 148.975 198.988 148.989 199.426C149 199.859 149.135 200.274 149.394 200.671L153.034 206.25L151.256 207.41ZM156.611 190.891L157.543 192.318L152.38 195.687L151.448 194.259L156.611 190.891ZM158.825 202.472L152.173 192.277C151.801 191.706 151.616 191.15 151.62 190.611C151.622 190.067 151.768 189.568 152.059 189.112C152.347 188.653 152.733 188.265 153.217 187.949C153.574 187.717 153.899 187.547 154.191 187.441C154.481 187.331 154.703 187.26 154.857 187.227L155.38 188.938C155.281 188.969 155.156 189.011 155.004 189.064C154.85 189.114 154.68 189.2 154.494 189.321C154.061 189.603 153.822 189.912 153.775 190.248C153.733 190.581 153.843 190.95 154.107 191.354L160.603 201.312L158.825 202.472ZM168.016 196.738C167.16 197.297 166.284 197.589 165.39 197.613C164.495 197.637 163.641 197.411 162.828 196.935C162.014 196.459 161.3 195.75 160.684 194.806C160.065 193.858 159.701 192.914 159.591 191.974C159.481 191.034 159.617 190.16 159.999 189.35C160.382 188.541 161.001 187.857 161.858 187.298C162.714 186.74 163.59 186.448 164.484 186.424C165.379 186.4 166.234 186.628 167.05 187.108C167.866 187.587 168.583 188.301 169.202 189.249C169.817 190.193 170.179 191.132 170.287 192.069C170.394 193.005 170.257 193.877 169.875 194.686C169.492 195.496 168.873 196.18 168.016 196.738ZM167.048 195.241C167.603 194.879 167.968 194.432 168.141 193.901C168.314 193.37 168.329 192.803 168.185 192.201C168.046 191.597 167.784 191.002 167.401 190.415C167.021 189.832 166.583 189.355 166.086 188.983C165.591 188.605 165.064 188.387 164.505 188.327C163.946 188.268 163.389 188.419 162.834 188.782C162.275 189.146 161.908 189.598 161.733 190.136C161.562 190.671 161.548 191.243 161.69 191.851C161.834 192.453 162.096 193.045 162.476 193.628C162.859 194.215 163.297 194.695 163.79 195.069C164.286 195.441 164.813 195.654 165.369 195.709C165.929 195.762 166.489 195.606 167.048 195.241ZM174.14 192.48L168.179 183.344L169.958 182.183L175.919 191.32L174.14 192.48ZM168.158 181.348C167.848 181.55 167.515 181.62 167.159 181.559C166.804 181.491 166.532 181.312 166.343 181.023C166.151 180.729 166.097 180.408 166.181 180.06C166.266 179.705 166.463 179.426 166.772 179.224C167.082 179.023 167.414 178.956 167.769 179.023C168.126 179.085 168.4 179.262 168.591 179.556C168.78 179.845 168.832 180.167 168.747 180.522C168.663 180.871 168.467 181.146 168.158 181.348ZM180.652 178.386L179.227 179.723C179.025 179.561 178.789 179.435 178.521 179.344C178.257 179.251 177.963 179.225 177.639 179.266C177.316 179.308 176.97 179.449 176.601 179.689C176.097 180.018 175.751 180.405 175.561 180.851C175.369 181.293 175.388 181.69 175.618 182.043C175.818 182.349 176.091 182.521 176.439 182.56C176.786 182.599 177.251 182.513 177.832 182.304L179.501 181.69C180.468 181.336 181.29 181.226 181.966 181.362C182.643 181.497 183.192 181.888 183.613 182.534C183.97 183.082 184.13 183.673 184.092 184.308C184.056 184.937 183.835 185.556 183.429 186.165C183.028 186.772 182.459 187.316 181.721 187.797C180.698 188.465 179.721 188.791 178.79 188.777C177.856 188.758 177.052 188.392 176.378 187.679L177.926 186.296C178.326 186.674 178.767 186.869 179.25 186.882C179.731 186.891 180.239 186.721 180.774 186.371C181.357 185.991 181.744 185.566 181.935 185.096C182.124 184.623 182.103 184.21 181.872 183.857C181.686 183.571 181.423 183.401 181.082 183.347C180.745 183.289 180.326 183.354 179.825 183.539L178.057 184.209C177.078 184.571 176.246 184.673 175.56 184.515C174.879 184.355 174.326 183.949 173.902 183.299C173.55 182.76 173.393 182.189 173.43 181.588C173.468 180.987 173.678 180.4 174.062 179.828C174.444 179.251 174.977 178.739 175.663 178.291C176.651 177.647 177.568 177.354 178.414 177.412C179.258 177.467 180.004 177.791 180.652 178.386ZM130.922 249.333L122.974 237.151L124.753 235.991L127.706 240.517L127.813 240.447C127.792 240.19 127.797 239.873 127.828 239.496C127.86 239.119 127.987 238.725 128.21 238.314C128.431 237.899 128.825 237.506 129.392 237.136C130.13 236.655 130.91 236.412 131.732 236.407C132.554 236.402 133.359 236.643 134.146 237.13C134.937 237.614 135.654 238.35 136.299 239.338C136.943 240.325 137.331 241.279 137.462 242.2C137.591 243.116 137.492 243.953 137.165 244.709C136.836 245.46 136.303 246.077 135.565 246.558C135.01 246.92 134.495 247.123 134.02 247.167C133.55 247.209 133.134 247.169 132.773 247.049C132.411 246.928 132.114 246.806 131.88 246.681L131.731 246.778L132.659 248.2L130.922 249.333ZM129.684 243.628C130.103 244.27 130.564 244.772 131.066 245.135C131.568 245.497 132.085 245.7 132.616 245.743C133.145 245.782 133.665 245.635 134.177 245.301C134.708 244.955 135.06 244.524 135.234 244.01C135.404 243.491 135.422 242.929 135.286 242.322C135.154 241.713 134.889 241.103 134.491 240.492C134.097 239.889 133.653 239.407 133.157 239.047C132.666 238.683 132.149 238.48 131.607 238.438C131.069 238.394 130.533 238.546 129.997 238.895C129.482 239.231 129.132 239.649 128.949 240.147C128.769 240.643 128.743 241.189 128.871 241.784C128.999 242.378 129.27 242.993 129.684 243.628ZM145.322 240.201C144.422 240.788 143.522 241.101 142.62 241.141C141.72 241.174 140.865 240.955 140.054 240.483C139.245 240.005 138.531 239.292 137.912 238.344C137.302 237.408 136.938 236.47 136.821 235.528C136.709 234.584 136.837 233.706 137.206 232.894C137.579 232.08 138.19 231.396 139.039 230.842C139.554 230.506 140.11 230.265 140.705 230.12C141.3 229.975 141.909 229.959 142.531 230.073C143.154 230.187 143.766 230.463 144.369 230.901C144.969 231.335 145.539 231.967 146.08 232.795L146.491 233.426L139.228 238.164L138.359 236.832L143.879 233.23C143.573 232.763 143.208 232.41 142.782 232.174C142.354 231.933 141.899 231.82 141.416 231.835C140.938 231.847 140.469 232.004 140.009 232.304C139.51 232.63 139.154 233.037 138.941 233.526C138.73 234.009 138.652 234.512 138.706 235.037C138.761 235.555 138.937 236.042 139.235 236.498L139.914 237.539C140.312 238.149 140.758 238.599 141.252 238.888C141.749 239.174 142.266 239.303 142.802 239.275C143.336 239.244 143.862 239.059 144.382 238.72C144.719 238.5 144.995 238.252 145.211 237.975C145.424 237.695 145.568 237.392 145.643 237.066C145.719 236.739 145.717 236.399 145.638 236.043L147.519 235.248C147.707 235.832 147.749 236.424 147.643 237.024C147.539 237.618 147.292 238.189 146.903 238.737C146.516 239.278 145.989 239.766 145.322 240.201ZM153.436 224.799L152.011 226.136C151.809 225.974 151.574 225.847 151.305 225.756C151.041 225.663 150.747 225.637 150.423 225.679C150.1 225.72 149.754 225.861 149.385 226.102C148.881 226.43 148.535 226.818 148.345 227.264C148.153 227.706 148.172 228.103 148.402 228.456C148.602 228.761 148.875 228.933 149.223 228.972C149.57 229.011 150.035 228.926 150.616 228.716L152.285 228.103C153.252 227.748 154.074 227.639 154.75 227.774C155.427 227.91 155.976 228.301 156.397 228.947C156.754 229.494 156.914 230.086 156.876 230.721C156.84 231.349 156.619 231.968 156.213 232.578C155.812 233.184 155.243 233.728 154.505 234.21C153.482 234.877 152.505 235.204 151.574 235.189C150.64 235.171 149.836 234.805 149.162 234.092L150.71 232.708C151.11 233.087 151.551 233.282 152.034 233.295C152.515 233.303 153.023 233.133 153.558 232.784C154.141 232.404 154.528 231.979 154.719 231.509C154.908 231.035 154.887 230.622 154.657 230.269C154.47 229.984 154.207 229.814 153.866 229.759C153.529 229.702 153.11 229.766 152.609 229.952L150.841 230.622C149.862 230.983 149.03 231.085 148.344 230.928C147.663 230.767 147.11 230.362 146.686 229.712C146.334 229.172 146.177 228.602 146.214 228.001C146.252 227.4 146.462 226.813 146.846 226.24C147.228 225.663 147.761 225.151 148.447 224.704C149.435 224.06 150.352 223.767 151.198 223.825C152.042 223.879 152.788 224.204 153.436 224.799ZM164.045 227.986C163.188 228.545 162.313 228.836 161.418 228.86C160.523 228.884 159.669 228.658 158.856 228.183C158.042 227.707 157.328 226.997 156.712 226.053C156.094 225.106 155.73 224.162 155.619 223.222C155.509 222.282 155.645 221.407 156.028 220.598C156.41 219.789 157.029 219.105 157.886 218.546C158.742 217.987 159.618 217.696 160.513 217.672C161.407 217.648 162.262 217.876 163.078 218.355C163.894 218.835 164.612 219.548 165.23 220.496C165.846 221.44 166.207 222.38 166.315 223.316C166.423 224.252 166.285 225.125 165.903 225.934C165.521 226.743 164.901 227.427 164.045 227.986ZM163.077 226.489C163.632 226.127 163.996 225.68 164.169 225.148C164.343 224.617 164.358 224.05 164.214 223.449C164.074 222.845 163.813 222.249 163.43 221.662C163.049 221.079 162.611 220.602 162.114 220.231C161.619 219.853 161.092 219.634 160.533 219.575C159.974 219.515 159.417 219.667 158.862 220.029C158.303 220.394 157.936 220.845 157.761 221.383C157.59 221.919 157.576 222.491 157.719 223.099C157.862 223.7 158.124 224.293 158.505 224.875C158.888 225.462 159.325 225.943 159.818 226.317C160.315 226.688 160.841 226.901 161.397 226.957C161.958 227.01 162.517 226.854 163.077 226.489ZM170.169 223.728L164.208 214.591L165.986 213.431L171.947 222.567L170.169 223.728ZM164.186 212.595C163.877 212.797 163.544 212.867 163.187 212.806C162.832 212.738 162.56 212.559 162.371 212.27C162.18 211.977 162.126 211.656 162.209 211.307C162.294 210.952 162.491 210.674 162.801 210.472C163.11 210.27 163.442 210.203 163.797 210.271C164.154 210.332 164.428 210.51 164.62 210.803C164.808 211.093 164.86 211.415 164.775 211.77C164.692 212.118 164.495 212.393 164.186 212.595ZM172.579 214.421L176.118 219.846L174.34 221.006L168.379 211.87L170.086 210.756L171.056 212.243L171.169 212.169C171.064 211.548 171.139 210.945 171.396 210.359C171.657 209.771 172.13 209.253 172.816 208.805C173.439 208.399 174.069 208.174 174.708 208.131C175.344 208.083 175.958 208.231 176.549 208.574C177.141 208.918 177.682 209.466 178.174 210.22L181.965 216.031L180.187 217.191L176.535 211.594C176.103 210.932 175.593 210.527 175.005 210.379C174.414 210.228 173.817 210.348 173.214 210.742C172.802 211.011 172.493 211.339 172.289 211.727C172.088 212.113 172.007 212.539 172.045 213.005C172.085 213.465 172.263 213.937 172.579 214.421ZM143.954 269.741C143.216 270.223 142.435 270.464 141.61 270.465C140.787 270.459 139.982 270.213 139.195 269.726C138.409 269.232 137.694 268.491 137.05 267.504C136.406 266.516 136.019 265.564 135.89 264.648C135.765 263.729 135.871 262.894 136.207 262.143C136.542 261.393 137.077 260.778 137.811 260.3C138.378 259.93 138.896 259.727 139.365 259.693C139.836 259.651 140.248 259.693 140.601 259.819C140.958 259.942 141.253 260.064 141.484 260.184L141.591 260.115L138.638 255.588L140.416 254.428L148.364 266.61L146.627 267.743L145.7 266.321L145.551 266.418C145.571 266.682 145.561 267.005 145.522 267.387C145.486 267.766 145.355 268.163 145.128 268.577C144.9 268.991 144.509 269.379 143.954 269.741ZM143.357 267.968C143.868 267.635 144.213 267.218 144.39 266.718C144.568 266.211 144.591 265.657 144.457 265.054C144.328 264.449 144.054 263.825 143.635 263.182C143.221 262.548 142.767 262.052 142.274 261.695C141.782 261.338 141.272 261.142 140.746 261.107C140.22 261.071 139.697 261.223 139.177 261.562C138.642 261.911 138.286 262.341 138.11 262.852C137.935 263.362 137.912 263.917 138.043 264.516C138.177 265.112 138.441 265.711 138.834 266.314C139.233 266.925 139.682 267.414 140.183 267.783C140.684 268.152 141.206 268.363 141.749 268.415C142.293 268.461 142.829 268.312 143.357 267.968ZM144.483 251.774L145.228 252.916C145.448 253.253 145.616 253.65 145.733 254.105C145.85 254.554 145.907 255.023 145.904 255.511C145.9 256 145.826 256.467 145.681 256.912L144.389 256.856C144.401 256.362 144.366 255.867 144.286 255.371C144.21 254.873 144.02 254.391 143.717 253.927L142.96 252.768L144.483 251.774ZM156.081 261.863C155.502 262.241 154.909 262.475 154.302 262.566C153.691 262.653 153.115 262.58 152.572 262.346C152.033 262.11 151.569 261.692 151.178 261.093C150.842 260.578 150.664 260.089 150.645 259.626C150.626 259.164 150.722 258.725 150.932 258.311C151.142 257.897 151.423 257.504 151.775 257.134C152.127 256.763 152.502 256.411 152.9 256.077C153.406 255.657 153.817 255.315 154.132 255.053C154.444 254.787 154.647 254.556 154.74 254.36C154.832 254.164 154.809 253.959 154.669 253.745L154.642 253.703C154.303 253.183 153.893 252.877 153.414 252.783C152.938 252.686 152.413 252.825 151.838 253.2C151.239 253.591 150.854 254.032 150.682 254.523C150.512 255.007 150.466 255.452 150.545 255.859L148.625 256.569C148.461 255.884 148.458 255.247 148.616 254.658C148.776 254.062 149.055 253.523 149.454 253.043C149.85 252.558 150.323 252.136 150.875 251.776C151.239 251.538 151.655 251.33 152.12 251.151C152.587 250.965 153.072 250.868 153.577 250.862C154.085 250.852 154.591 250.983 155.095 251.253C155.597 251.519 156.065 251.986 156.5 252.652L160.458 258.719L158.721 259.852L157.906 258.603L157.835 258.65C157.87 258.955 157.845 259.293 157.76 259.665C157.675 260.037 157.5 260.415 157.235 260.797C156.969 261.179 156.585 261.534 156.081 261.863ZM155.537 260.183C156.028 259.862 156.385 259.491 156.608 259.069C156.834 258.644 156.936 258.216 156.914 257.784C156.893 257.345 156.765 256.945 156.53 256.584L155.761 255.406C155.739 255.511 155.655 255.651 155.509 255.825C155.364 255.993 155.19 256.172 154.986 256.362C154.779 256.548 154.577 256.727 154.379 256.901C154.179 257.072 154.013 257.214 153.879 257.33C153.562 257.599 153.295 257.878 153.077 258.167C152.862 258.454 152.733 258.75 152.69 259.056C152.647 259.355 152.729 259.663 152.936 259.98C153.224 260.42 153.604 260.647 154.076 260.661C154.546 260.671 155.033 260.512 155.537 260.183ZM162.827 257.173L156.866 248.037L158.645 246.877L164.606 256.013L162.827 257.173ZM156.845 246.041C156.535 246.243 156.202 246.313 155.846 246.252C155.491 246.184 155.219 246.005 155.03 245.716C154.838 245.422 154.784 245.101 154.868 244.753C154.953 244.398 155.15 244.119 155.459 243.918C155.769 243.716 156.101 243.649 156.456 243.717C156.813 243.778 157.087 243.955 157.278 244.249C157.467 244.538 157.519 244.861 157.434 245.216C157.35 245.564 157.154 245.839 156.845 246.041ZM170.535 252.399C169.797 252.88 169.016 253.121 168.192 253.122C167.368 253.117 166.563 252.87 165.776 252.383C164.99 251.89 164.275 251.149 163.631 250.162C162.987 249.174 162.6 248.222 162.472 247.306C162.347 246.386 162.452 245.552 162.788 244.801C163.124 244.051 163.658 243.436 164.392 242.957C164.959 242.587 165.477 242.385 165.946 242.35C166.417 242.309 166.829 242.351 167.182 242.477C167.54 242.6 167.834 242.722 168.065 242.842L168.172 242.772L165.219 238.246L166.997 237.085L174.945 249.267L173.208 250.401L172.281 248.979L172.132 249.076C172.152 249.34 172.142 249.663 172.103 250.045C172.068 250.424 171.936 250.821 171.709 251.235C171.481 251.649 171.09 252.037 170.535 252.399ZM169.938 250.626C170.45 250.292 170.794 249.876 170.971 249.376C171.149 248.869 171.172 248.315 171.039 247.712C170.909 247.106 170.635 246.482 170.216 245.84C169.802 245.206 169.349 244.71 168.856 244.353C168.363 243.996 167.853 243.8 167.327 243.765C166.801 243.729 166.278 243.881 165.758 244.22C165.223 244.569 164.868 244.999 164.692 245.509C164.516 246.02 164.493 246.574 164.624 247.173C164.759 247.77 165.023 248.369 165.416 248.972C165.814 249.582 166.264 250.072 166.764 250.441C167.265 250.81 167.787 251.02 168.33 251.073C168.875 251.119 169.411 250.97 169.938 250.626ZM181.542 245.227C180.642 245.814 179.741 246.127 178.84 246.167C177.94 246.2 177.084 245.981 176.273 245.509C175.464 245.031 174.75 244.318 174.132 243.37C173.521 242.434 173.157 241.496 173.041 240.554C172.928 239.61 173.056 238.732 173.425 237.92C173.798 237.106 174.409 236.422 175.258 235.868C175.774 235.532 176.329 235.291 176.924 235.146C177.519 235.001 178.128 234.985 178.75 235.099C179.373 235.213 179.986 235.489 180.588 235.927C181.188 236.361 181.758 236.992 182.299 237.821L182.71 238.452L175.447 243.19L174.578 241.858L180.098 238.256C179.793 237.788 179.427 237.436 179.001 237.2C178.573 236.959 178.118 236.846 177.636 236.861C177.158 236.873 176.688 237.029 176.228 237.33C175.729 237.656 175.373 238.063 175.16 238.552C174.949 239.035 174.871 239.538 174.925 240.063C174.98 240.581 175.156 241.068 175.454 241.524L176.133 242.565C176.532 243.175 176.978 243.625 177.471 243.914C177.969 244.2 178.485 244.329 179.022 244.301C179.555 244.27 180.082 244.085 180.601 243.746C180.938 243.526 181.214 243.278 181.43 243.001C181.643 242.721 181.787 242.418 181.862 242.092C181.938 241.765 181.936 241.425 181.857 241.069L183.738 240.274C183.927 240.858 183.968 241.45 183.862 242.05C183.758 242.644 183.511 243.215 183.122 243.763C182.735 244.304 182.208 244.792 181.542 245.227ZM188.578 240.534C188.253 240.746 187.898 240.814 187.514 240.736C187.128 240.655 186.827 240.45 186.612 240.121C186.4 239.795 186.336 239.442 186.42 239.059C186.501 238.672 186.704 238.373 187.03 238.161C187.355 237.949 187.711 237.883 188.097 237.964C188.481 238.042 188.779 238.243 188.992 238.568C189.134 238.786 189.209 239.023 189.217 239.278C189.226 239.526 189.177 239.762 189.068 239.985C188.959 240.209 188.796 240.392 188.578 240.534ZM193.021 237.635C192.696 237.847 192.342 237.915 191.958 237.837C191.571 237.756 191.27 237.551 191.056 237.222C190.843 236.896 190.779 236.543 190.863 236.16C190.945 235.773 191.148 235.474 191.473 235.262C191.798 235.05 192.154 234.984 192.541 235.066C192.925 235.143 193.223 235.344 193.435 235.669C193.577 235.887 193.652 236.124 193.66 236.379C193.67 236.627 193.62 236.863 193.511 237.086C193.403 237.31 193.239 237.493 193.021 237.635ZM197.471 234.732C197.146 234.944 196.791 235.012 196.407 234.935C196.02 234.853 195.72 234.648 195.505 234.319C195.293 233.994 195.229 233.64 195.313 233.257C195.394 232.87 195.597 232.571 195.922 232.359C196.247 232.147 196.603 232.081 196.99 232.163C197.374 232.24 197.672 232.441 197.884 232.767C198.026 232.985 198.102 233.221 198.11 233.476C198.119 233.724 198.069 233.96 197.961 234.184C197.852 234.407 197.689 234.59 197.471 234.732Z" fill="black"/>
<path d="M613.228 152.669C598.7 169.636 583.157 160.933 578.611 154.877C545.8 170.306 528.601 142.084 529.102 127.298C509.119 129.142 510.562 109.111 518.288 104.448C501.486 94.8796 512.817 78.0696 522.985 79.6549C520.117 65.0552 531.323 61.6701 537.285 61.8026C541.643 46.5651 557.969 49.3231 561.163 55.7948C575.636 39.4262 587.817 52.3824 590.749 60.8895C617.886 39.0746 631.935 69.6348 627.418 79.3409C633.313 80.4355 633.828 86.6988 633.348 89.6937C656.809 82.3342 664.36 113.422 648.867 121.509C658.028 150.619 627.907 161.117 613.228 152.669Z" fill="white"/>
<path d="M553.215 173.698C555.039 177.306 551.647 184.512 546.482 185.684C541.318 186.856 536.129 183.489 535.027 178.63C533.924 173.771 535.759 169.413 540.724 168.286C545.689 167.16 552.112 168.839 553.215 173.698Z" fill="white"/>
<path d="M539.383 196.949C540.2 198.775 538.519 202.173 535.878 202.772C533.237 203.372 530.873 201.102 530.394 198.989C529.914 196.876 530.586 194.52 533.925 194.165C536.603 193.557 539.141 194.993 539.383 196.949Z" fill="white"/>
<path d="M541.921 66.4449C541.581 66.2578 541.354 65.9766 541.242 65.6013C541.132 65.2219 541.171 64.8601 541.361 64.5157C541.548 64.1755 541.83 63.9524 542.207 63.8465C542.587 63.7363 542.946 63.7748 543.287 63.962C543.627 64.1491 543.852 64.4324 543.962 64.8118C544.075 65.187 544.037 65.5447 543.85 65.8849C543.725 66.1131 543.551 66.2907 543.33 66.4176C543.115 66.5427 542.884 66.6099 542.636 66.6192C542.387 66.6285 542.149 66.5704 541.921 66.4449ZM546.569 69.0019C546.229 68.8148 546.003 68.5336 545.891 68.1583C545.78 67.7789 545.82 67.4171 546.009 67.0727C546.197 66.7325 546.479 66.5095 546.856 66.4035C547.235 66.2933 547.595 66.3318 547.935 66.519C548.275 66.7061 548.501 66.9894 548.611 67.3688C548.723 67.744 548.686 68.1018 548.499 68.4419C548.373 68.6701 548.2 68.8477 547.979 68.9746C547.764 69.0997 547.532 69.1669 547.284 69.1762C547.036 69.1855 546.798 69.1274 546.569 69.0019ZM551.224 71.5624C550.884 71.3752 550.658 71.094 550.545 70.7188C550.435 70.3394 550.475 69.9775 550.664 69.6332C550.851 69.293 551.133 69.0699 551.511 68.9639C551.89 68.8538 552.25 68.8923 552.59 69.0794C552.93 69.2665 553.155 69.5498 553.265 69.9292C553.378 70.3045 553.34 70.6622 553.153 71.0024C553.028 71.2306 552.855 71.4081 552.633 71.5351C552.419 71.6601 552.187 71.7273 551.939 71.7367C551.691 71.746 551.452 71.6879 551.224 71.5624ZM559.01 75.9424C558.068 75.4244 557.368 74.777 556.909 74.0003C556.456 73.2218 556.247 72.3638 556.282 71.4264C556.323 70.4872 556.616 69.5218 557.162 68.5302C557.7 67.5512 558.358 66.7887 559.133 66.2427C559.913 65.6991 560.748 65.3992 561.639 65.343C562.533 65.2891 563.424 65.5063 564.312 65.9947C564.851 66.2914 565.325 66.6681 565.733 67.1249C566.141 67.5817 566.441 68.1116 566.633 68.7146C566.826 69.3177 566.871 69.988 566.767 70.7256C566.667 71.4591 566.378 72.2594 565.901 73.1265L565.538 73.7861L557.94 69.6066L558.706 68.2126L564.481 71.3892C564.751 70.8997 564.889 70.4114 564.898 69.9243C564.909 69.4331 564.794 68.9783 564.554 68.5599C564.318 68.1437 563.96 67.8033 563.479 67.5386C562.956 67.2511 562.429 67.1286 561.897 67.1714C561.372 67.2122 560.891 67.3798 560.454 67.6741C560.023 67.9666 559.676 68.3513 559.413 68.8284L558.814 69.9175C558.463 70.5563 558.276 71.1614 558.253 71.7327C558.235 72.3063 558.364 72.8231 558.641 73.2832C558.92 73.7392 559.331 74.1166 559.874 74.4156C560.227 74.6096 560.576 74.7366 560.921 74.7968C561.268 74.8528 561.604 74.8374 561.927 74.7505C562.251 74.6636 562.55 74.5016 562.827 74.2645L564.413 75.5506C563.987 75.9916 563.484 76.3067 562.904 76.4958C562.331 76.6831 561.712 76.734 561.045 76.6485C560.385 76.5611 559.707 76.3258 559.01 75.9424ZM575.001 72.0367L574.18 73.5302L568.959 70.6583L569.78 69.1648L575.001 72.0367ZM572.44 67.6449L574.301 68.6684L569.327 77.7104C569.128 78.0713 569.033 78.3727 569.04 78.6146C569.05 78.8523 569.122 79.0511 569.255 79.2111C569.395 79.3692 569.567 79.5041 569.77 79.6159C569.92 79.6981 570.056 79.7596 570.179 79.8005C570.303 79.8413 570.399 79.8727 570.468 79.8944L569.959 81.6164C569.828 81.5985 569.652 81.5556 569.43 81.4875C569.205 81.4236 568.943 81.3116 568.642 81.1514C568.148 80.8904 567.739 80.5523 567.417 80.137C567.094 79.7217 566.907 79.2513 566.855 78.7259C566.804 78.2004 566.937 77.6494 567.254 77.0727L572.44 67.6449ZM574.468 88.8628L581.697 75.7199L583.514 76.7195L582.662 78.269L582.817 78.3546C583.035 78.2148 583.317 78.0701 583.664 77.9205C584.011 77.771 584.419 77.698 584.887 77.7016C585.357 77.701 585.889 77.8638 586.482 78.1902C587.254 78.6146 587.836 79.1884 588.227 79.9116C588.618 80.6347 588.784 81.4581 588.724 82.3819C588.669 83.3079 588.357 84.2874 587.789 85.3204C587.22 86.3534 586.561 87.1444 585.811 87.6934C585.062 88.2383 584.278 88.5445 583.457 88.6119C582.639 88.6751 581.844 88.4945 581.072 88.07C580.491 87.7505 580.07 87.3917 579.808 86.9937C579.55 86.5978 579.389 86.2122 579.326 85.8367C579.262 85.4613 579.23 85.1411 579.23 84.8762L579.118 84.8146L576.328 89.8863L574.468 88.8628ZM580.891 81.5021C580.522 82.1742 580.295 82.8169 580.212 83.4303C580.128 84.0437 580.193 84.5951 580.404 85.0844C580.618 85.5696 580.993 85.9594 581.528 86.2538C582.084 86.5596 582.63 86.6679 583.165 86.5787C583.703 86.4854 584.207 86.2361 584.679 85.8308C585.155 85.4278 585.568 84.9068 585.92 84.2679C586.266 83.6373 586.483 83.0186 586.568 82.4116C586.657 81.8069 586.593 81.2556 586.375 80.7575C586.162 80.2617 585.775 79.8598 585.215 79.5517C584.675 79.255 584.143 79.143 583.616 79.2156C583.094 79.2904 582.601 79.5243 582.136 79.9171C581.671 80.31 581.257 80.8383 580.891 81.5021ZM589.92 92.9693C589.314 92.6361 588.828 92.2229 588.462 91.7296C588.098 91.2321 587.891 90.689 587.843 90.1C587.798 89.5134 587.948 88.9069 588.292 88.2804C588.589 87.7411 588.937 87.3542 589.336 87.1199C589.735 86.8855 590.167 86.7636 590.631 86.7543C591.096 86.745 591.574 86.8083 592.067 86.9442C592.56 87.0801 593.047 87.2455 593.529 87.4403C594.138 87.6888 594.632 87.8905 595.012 88.0452C595.394 88.1959 595.693 88.2659 595.909 88.2553C596.126 88.2447 596.296 88.1274 596.419 87.9034L596.443 87.8599C596.742 87.3164 596.82 86.8109 596.677 86.3433C596.539 85.878 596.169 85.4799 595.567 85.149C594.941 84.8044 594.371 84.6718 593.857 84.7513C593.349 84.8288 592.935 84.998 592.613 85.2587L591.084 83.8986C591.61 83.4318 592.171 83.1296 592.766 82.9919C593.367 82.8524 593.973 82.8454 594.585 82.9712C595.199 83.0928 595.794 83.3122 596.371 83.6294C596.752 83.8393 597.132 84.1075 597.509 84.4338C597.892 84.7582 598.206 85.1414 598.449 85.5832C598.697 86.0274 598.82 86.5355 598.818 87.1076C598.819 87.6756 598.628 88.308 598.245 89.005L594.753 95.3524L592.936 94.3529L593.655 93.0461L593.58 93.005C593.328 93.1794 593.017 93.3166 592.649 93.4166C592.28 93.5166 591.865 93.5395 591.403 93.4853C590.941 93.4311 590.447 93.2591 589.92 92.9693ZM591.146 91.6983C591.66 91.9813 592.156 92.1215 592.633 92.1191C593.114 92.1189 593.54 92.0074 593.911 91.7846C594.289 91.56 594.581 91.2589 594.789 90.8814L595.467 89.6493C595.364 89.6791 595.201 89.6706 594.978 89.6237C594.762 89.575 594.522 89.5052 594.259 89.4143C593.997 89.3193 593.744 89.2256 593.497 89.1333C593.253 89.0368 593.049 88.9567 592.884 88.893C592.498 88.7401 592.126 88.6354 591.768 88.579C591.414 88.5248 591.092 88.5503 590.801 88.6555C590.518 88.7588 590.284 88.9764 590.102 89.3083C589.849 89.7688 589.827 90.2108 590.037 90.6344C590.249 91.0539 590.619 91.4085 591.146 91.6983ZM597.232 96.7156L602.489 87.1572L604.288 88.1465L603.453 89.6649L603.552 89.7196C604.009 89.301 604.539 89.0654 605.141 89.0128C605.749 88.9582 606.333 89.085 606.893 89.3931C607.009 89.457 607.144 89.5364 607.297 89.6315C607.454 89.7288 607.575 89.8087 607.659 89.8714L606.68 91.6511C606.617 91.5893 606.497 91.4935 606.32 91.3636C606.145 91.2296 605.962 91.1101 605.771 91.0051C605.332 90.7632 604.888 90.6409 604.441 90.6382C604.001 90.6336 603.591 90.7404 603.211 90.9586C602.834 91.1727 602.531 91.4871 602.303 91.902L599.092 97.7391L597.232 96.7156ZM614.329 93.6695L613.507 95.1631L608.106 92.1918L608.927 90.6983L614.329 93.6695ZM605.15 101.071L611.017 90.4053C611.346 89.8079 611.749 89.3841 612.228 89.1337C612.708 88.8792 613.218 88.7731 613.756 88.8155C614.297 88.8537 614.821 89.012 615.327 89.2904C615.7 89.4958 616.003 89.7026 616.234 89.9109C616.468 90.115 616.635 90.2773 616.736 90.3979L615.472 91.6642C615.399 91.5914 615.303 91.5007 615.184 91.3922C615.068 91.2796 614.912 91.1696 614.717 91.0624C614.265 90.8136 613.88 90.7477 613.561 90.8644C613.247 90.9835 612.974 91.2546 612.741 91.6778L607.011 102.095L605.15 101.071ZM614.534 106.485C613.638 105.992 612.969 105.356 612.527 104.578C612.085 103.8 611.883 102.94 611.919 101.998C611.956 101.057 612.247 100.092 612.79 99.1051C613.335 98.1135 613.997 97.348 614.774 96.8085C615.552 96.269 616.388 95.9776 617.282 95.9343C618.175 95.891 619.07 96.1158 619.967 96.6087C620.863 97.1016 621.532 97.7372 621.974 98.5153C622.416 99.2934 622.617 100.155 622.578 101.101C622.539 102.047 622.246 103.015 621.701 104.007C621.158 104.994 620.498 105.756 619.723 106.291C618.948 106.826 618.113 107.116 617.219 107.159C616.325 107.202 615.43 106.977 614.534 106.485ZM615.4 104.926C615.98 105.245 616.546 105.357 617.097 105.26C617.647 105.163 618.154 104.909 618.617 104.499C619.085 104.092 619.487 103.581 619.825 102.967C620.16 102.357 620.375 101.746 620.469 101.133C620.57 100.518 620.515 99.9498 620.304 99.4287C620.094 98.9076 619.698 98.4874 619.117 98.1679C618.532 97.8461 617.961 97.7347 617.404 97.8336C616.851 97.9348 616.34 98.1913 615.87 98.603C615.407 99.0129 615.008 99.5227 614.672 100.133C614.335 100.747 614.117 101.359 614.019 101.97C613.925 102.583 613.984 103.148 614.197 103.664C614.414 104.184 614.815 104.604 615.4 104.926ZM621.173 109.885L626.431 100.327L628.291 101.35L623.034 110.908L621.173 109.885ZM628.182 99.3686C627.858 99.1906 627.639 98.9298 627.526 98.5863C627.418 98.2409 627.448 97.9168 627.615 97.6139C627.784 97.3069 628.041 97.1083 628.388 97.0181C628.742 96.926 629.08 96.969 629.404 97.147C629.727 97.325 629.943 97.5867 630.05 97.9321C630.163 98.2756 630.136 98.6008 629.967 98.9078C629.8 99.2107 629.541 99.4081 629.187 99.5002C628.84 99.5904 628.505 99.5466 628.182 99.3686ZM636.673 109L634.823 108.372C634.871 108.117 634.872 107.85 634.826 107.571C634.783 107.293 634.668 107.022 634.479 106.756C634.291 106.49 634.003 106.251 633.617 106.039C633.091 105.749 632.586 105.625 632.103 105.668C631.623 105.706 631.281 105.91 631.078 106.279C630.902 106.599 630.879 106.921 631.008 107.246C631.137 107.571 631.431 107.941 631.889 108.355L633.216 109.539C633.984 110.226 634.467 110.899 634.666 111.56C634.864 112.22 634.778 112.889 634.406 113.565C634.091 114.138 633.644 114.557 633.066 114.822C632.494 115.086 631.844 115.182 631.116 115.111C630.391 115.042 629.644 114.796 628.872 114.371C627.802 113.782 627.054 113.074 626.629 112.246C626.206 111.413 626.15 110.532 626.462 109.601L628.411 110.316C628.265 110.847 628.301 111.328 628.517 111.76C628.735 112.188 629.124 112.557 629.684 112.865C630.294 113.2 630.851 113.342 631.356 113.289C631.862 113.233 632.217 113.02 632.42 112.651C632.584 112.352 632.61 112.04 632.498 111.713C632.39 111.389 632.136 111.049 631.737 110.695L630.314 109.45C629.534 108.756 629.053 108.07 628.869 107.391C628.69 106.714 628.788 106.036 629.162 105.355C629.473 104.791 629.902 104.384 630.45 104.134C630.998 103.885 631.615 103.794 632.301 103.864C632.989 103.929 633.692 104.159 634.41 104.554C635.443 105.122 636.133 105.793 636.48 106.568C636.829 107.338 636.893 108.149 636.673 109ZM560.298 91.3405L562.159 92.364L556.559 102.545C556.208 103.184 555.795 103.659 555.32 103.971C554.85 104.285 554.327 104.432 553.749 104.412C553.175 104.393 552.559 104.203 551.899 103.84C551.833 103.803 551.77 103.769 551.712 103.737C551.65 103.703 551.587 103.665 551.523 103.625L552.403 102.026C552.461 102.057 552.512 102.086 552.558 102.111C552.6 102.134 552.647 102.16 552.701 102.19C553.141 102.432 553.523 102.488 553.848 102.359C554.175 102.236 554.461 101.953 554.705 101.509L560.298 91.3405ZM562.031 90.3723C561.707 90.1943 561.488 89.9335 561.375 89.59C561.268 89.2446 561.297 88.9205 561.464 88.6177C561.633 88.3107 561.891 88.112 562.237 88.0218C562.591 87.9297 562.929 87.9727 563.253 88.1507C563.576 88.3287 563.792 88.5904 563.899 88.9358C564.013 89.2793 563.985 89.6046 563.816 89.9116C563.65 90.2144 563.39 90.4119 563.036 90.504C562.689 90.5942 562.354 90.5503 562.031 90.3723ZM568.014 91.4345L567.357 92.6293C567.163 92.9819 566.892 93.3167 566.545 93.6337C566.204 93.9488 565.817 94.2197 565.385 94.4464C564.952 94.6731 564.505 94.8272 564.044 94.9087L563.486 93.7424C563.927 93.5203 564.347 93.2571 564.747 92.9528C565.151 92.6508 565.487 92.2571 565.754 91.7717L566.421 90.5582L568.014 91.4345ZM564.568 106.415C563.963 106.082 563.477 105.669 563.11 105.176C562.746 104.678 562.54 104.135 562.491 103.546C562.446 102.959 562.596 102.353 562.94 101.727C563.237 101.187 563.585 100.8 563.984 100.566C564.383 100.332 564.815 100.21 565.28 100.2C565.744 100.191 566.223 100.254 566.715 100.39C567.208 100.526 567.695 100.692 568.177 100.886C568.786 101.135 569.28 101.337 569.66 101.491C570.042 101.642 570.341 101.712 570.558 101.701C570.774 101.691 570.944 101.574 571.067 101.35L571.091 101.306C571.39 100.762 571.468 100.257 571.326 99.7894C571.187 99.3241 570.817 98.926 570.215 98.5951C569.589 98.2505 569.019 98.1179 568.505 98.1974C567.998 98.2749 567.583 98.4441 567.261 98.7048L565.732 97.3446C566.259 96.8779 566.819 96.5757 567.414 96.438C568.015 96.2985 568.621 96.2915 569.233 96.4173C569.847 96.5389 570.442 96.7583 571.019 97.0755C571.401 97.2854 571.78 97.5535 572.157 97.8799C572.541 98.2043 572.854 98.5875 573.097 99.0293C573.345 99.4735 573.468 99.9816 573.467 100.554C573.468 101.122 573.276 101.754 572.893 102.451L569.402 108.798L567.584 107.799L568.303 106.492L568.229 106.451C567.976 106.626 567.665 106.763 567.297 106.863C566.929 106.963 566.513 106.986 566.051 106.931C565.59 106.877 565.095 106.705 564.568 106.415ZM565.794 105.144C566.309 105.427 566.804 105.568 567.281 105.565C567.762 105.565 568.188 105.454 568.559 105.231C568.937 105.006 569.23 104.705 569.437 104.327L570.115 103.095C570.012 103.125 569.849 103.117 569.627 103.07C569.41 103.021 569.17 102.951 568.907 102.86C568.646 102.765 568.392 102.672 568.145 102.579C567.901 102.483 567.697 102.403 567.532 102.339C567.146 102.186 566.774 102.082 566.416 102.025C566.062 101.971 565.74 101.996 565.45 102.102C565.166 102.205 564.933 102.422 564.75 102.754C564.497 103.215 564.475 103.657 564.685 104.08C564.898 104.5 565.267 104.855 565.794 105.144ZM571.88 110.162L577.138 100.603L578.998 101.627L573.741 111.185L571.88 110.162ZM578.889 99.6453C578.565 99.4673 578.346 99.2066 578.233 98.863C578.126 98.5177 578.155 98.1935 578.322 97.8907C578.491 97.5837 578.749 97.3851 579.095 97.2949C579.449 97.2028 579.787 97.2457 580.111 97.4237C580.434 97.6017 580.65 97.8634 580.757 98.2088C580.871 98.5523 580.843 98.8776 580.674 99.1846C580.507 99.4875 580.248 99.6849 579.894 99.777C579.547 99.8672 579.212 99.8233 578.889 99.6453ZM579.719 114.717C578.948 114.293 578.367 113.717 577.978 112.989C577.596 112.26 577.434 111.434 577.494 110.51C577.56 109.585 577.877 108.605 578.445 107.572C579.014 106.539 579.672 105.75 580.42 105.205C581.173 104.663 581.959 104.363 582.779 104.306C583.599 104.249 584.393 104.432 585.161 104.854C585.754 105.181 586.176 105.543 586.428 105.94C586.685 106.336 586.842 106.719 586.897 107.09C586.957 107.464 586.988 107.781 586.99 108.041L587.102 108.103L589.707 103.367L591.568 104.391L584.558 117.135L582.74 116.136L583.559 114.649L583.403 114.563C583.179 114.705 582.89 114.848 582.534 114.993C582.183 115.14 581.771 115.211 581.299 115.205C580.827 115.199 580.3 115.037 579.719 114.717ZM581.003 113.356C581.538 113.651 582.068 113.758 582.592 113.679C583.123 113.598 583.623 113.357 584.092 112.956C584.566 112.557 584.987 112.022 585.357 111.35C585.722 110.686 585.946 110.053 586.029 109.45C586.112 108.847 586.045 108.305 585.829 107.824C585.613 107.343 585.233 106.953 584.689 106.654C584.129 106.346 583.583 106.234 583.05 106.319C582.517 106.404 582.016 106.645 581.55 107.043C581.087 107.442 580.682 107.957 580.335 108.587C579.984 109.226 579.763 109.853 579.673 110.469C579.583 111.084 579.643 111.643 579.852 112.148C580.067 112.65 580.451 113.053 581.003 113.356ZM591.227 121.055C590.285 120.537 589.585 119.89 589.126 119.113C588.673 118.335 588.464 117.477 588.499 116.539C588.54 115.6 588.833 114.634 589.378 113.643C589.917 112.664 590.574 111.901 591.35 111.355C592.13 110.812 592.965 110.512 593.855 110.456C594.75 110.402 595.641 110.619 596.528 111.107C597.068 111.404 597.541 111.781 597.949 112.238C598.357 112.694 598.658 113.224 598.85 113.827C599.043 114.43 599.087 115.101 598.984 115.838C598.883 116.572 598.594 117.372 598.117 118.239L597.755 118.899L590.156 114.719L590.923 113.325L596.698 116.502C596.967 116.012 597.106 115.524 597.115 115.037C597.126 114.546 597.011 114.091 596.771 113.673C596.535 113.256 596.177 112.916 595.695 112.651C595.173 112.364 594.646 112.241 594.114 112.284C593.589 112.325 593.108 112.492 592.67 112.787C592.239 113.079 591.892 113.464 591.63 113.941L591.031 115.03C590.68 115.669 590.493 116.274 590.47 116.845C590.452 117.419 590.581 117.936 590.857 118.396C591.136 118.852 591.547 119.229 592.091 119.528C592.443 119.722 592.792 119.849 593.138 119.91C593.485 119.966 593.82 119.95 594.144 119.863C594.467 119.776 594.767 119.614 595.043 119.377L596.63 120.663C596.204 121.104 595.701 121.419 595.121 121.609C594.548 121.796 593.928 121.847 593.262 121.761C592.602 121.674 591.924 121.438 591.227 121.055ZM534.233 104.394L525.509 112.046L523.518 110.951L525.303 99.4822L527.301 100.581L525.676 109.268L525.775 109.323L532.236 103.295L534.233 104.394ZM534.319 117.143C533.423 116.65 532.754 116.015 532.312 115.237C531.87 114.459 531.667 113.599 531.704 112.657C531.741 111.716 532.031 110.751 532.575 109.764C533.12 108.772 533.782 108.007 534.559 107.467C535.337 106.928 536.173 106.636 537.067 106.593C537.96 106.55 538.855 106.775 539.752 107.268C540.648 107.76 541.317 108.396 541.759 109.174C542.201 109.952 542.402 110.814 542.363 111.76C542.324 112.706 542.031 113.674 541.486 114.666C540.943 115.653 540.283 116.414 539.508 116.95C538.733 117.485 537.898 117.774 537.004 117.818C536.11 117.861 535.215 117.636 534.319 117.143ZM535.185 115.585C535.765 115.904 536.331 116.015 536.882 115.918C537.432 115.821 537.939 115.568 538.402 115.158C538.87 114.75 539.272 114.24 539.61 113.626C539.945 113.016 540.16 112.404 540.254 111.791C540.355 111.177 540.3 110.609 540.089 110.088C539.878 109.566 539.483 109.146 538.902 108.827C538.317 108.505 537.746 108.393 537.189 108.492C536.636 108.594 536.125 108.85 535.655 109.262C535.192 109.672 534.793 110.182 534.457 110.791C534.12 111.405 533.902 112.018 533.804 112.628C533.71 113.241 533.769 113.806 533.982 114.323C534.199 114.843 534.6 115.263 535.185 115.585ZM549.829 108.823L542.818 121.567L540.958 120.544L547.968 107.799L549.829 108.823ZM549.242 125.352C548.346 124.859 547.677 124.223 547.235 123.445C546.793 122.667 546.59 121.807 546.627 120.866C546.664 119.924 546.954 118.96 547.497 117.972C548.043 116.981 548.704 116.215 549.482 115.676C550.26 115.136 551.095 114.845 551.989 114.802C552.883 114.758 553.778 114.983 554.674 115.476C555.57 115.969 556.239 116.604 556.681 117.383C557.123 118.161 557.325 119.023 557.285 119.968C557.246 120.914 556.954 121.883 556.408 122.874C555.865 123.862 555.206 124.623 554.431 125.158C553.655 125.694 552.821 125.983 551.927 126.026C551.033 126.07 550.138 125.845 549.242 125.352ZM550.107 123.793C550.688 124.113 551.254 124.224 551.804 124.127C552.355 124.03 552.862 123.776 553.325 123.367C553.792 122.959 554.195 122.448 554.533 121.834C554.868 121.224 555.083 120.613 555.177 120C555.277 119.385 555.222 118.817 555.012 118.296C554.801 117.775 554.405 117.355 553.825 117.035C553.24 116.713 552.669 116.602 552.112 116.701C551.559 116.802 551.048 117.059 550.578 117.47C550.115 117.88 549.715 118.39 549.38 119C549.042 119.614 548.824 120.226 548.726 120.837C548.632 121.45 548.692 122.015 548.904 122.532C549.121 123.051 549.522 123.471 550.107 123.793ZM560.863 124.1L557.741 129.776L555.88 128.752L561.138 119.194L562.924 120.176L562.068 121.732L562.187 121.797C562.685 121.412 563.253 121.195 563.891 121.146C564.532 121.099 565.212 121.273 565.93 121.667C566.581 122.026 567.076 122.476 567.415 123.019C567.756 123.558 567.915 124.17 567.89 124.853C567.865 125.537 567.636 126.273 567.203 127.061L563.858 133.141L561.998 132.117L565.219 126.261C565.6 125.568 565.717 124.928 565.571 124.339C565.427 123.747 565.039 123.277 564.409 122.93C563.977 122.693 563.542 122.575 563.103 122.577C562.669 122.581 562.255 122.71 561.861 122.963C561.474 123.215 561.141 123.594 560.863 124.1ZM576.073 127.409L575.252 128.903L570.031 126.031L570.852 124.537L576.073 127.409ZM573.512 123.017L575.373 124.041L570.399 133.083C570.201 133.444 570.105 133.745 570.112 133.987C570.122 134.225 570.194 134.423 570.327 134.583C570.467 134.742 570.639 134.876 570.842 134.988C570.992 135.07 571.128 135.132 571.252 135.173C571.375 135.214 571.471 135.245 571.54 135.267L571.031 136.989C570.9 136.971 570.724 136.928 570.502 136.86C570.278 136.796 570.015 136.684 569.714 136.524C569.22 136.263 568.811 135.925 568.489 135.509C568.166 135.094 567.979 134.624 567.927 134.098C567.876 133.573 568.009 133.022 568.326 132.445L573.512 123.017ZM572.874 138.1L578.132 128.541L579.992 129.565L574.734 139.123L572.874 138.1ZM579.882 127.583C579.559 127.405 579.34 127.145 579.227 126.801C579.119 126.456 579.149 126.132 579.316 125.829C579.484 125.522 579.742 125.323 580.089 125.233C580.442 125.141 580.781 125.184 581.104 125.362C581.428 125.54 581.643 125.801 581.751 126.147C581.864 126.49 581.837 126.816 581.668 127.123C581.501 127.425 581.241 127.623 580.888 127.715C580.541 127.805 580.206 127.761 579.882 127.583ZM581.251 142.959C580.309 142.441 579.609 141.794 579.15 141.017C578.697 140.239 578.488 139.381 578.523 138.443C578.564 137.504 578.857 136.538 579.403 135.547C579.941 134.568 580.599 133.805 581.374 133.259C582.154 132.716 582.99 132.416 583.88 132.36C584.774 132.306 585.665 132.523 586.553 133.011C587.092 133.308 587.566 133.685 587.974 134.142C588.382 134.598 588.682 135.128 588.874 135.731C589.067 136.334 589.112 137.005 589.008 137.742C588.908 138.476 588.619 139.276 588.142 140.143L587.779 140.803L580.181 136.623L580.947 135.229L586.722 138.406C586.992 137.916 587.131 137.428 587.139 136.941C587.15 136.45 587.035 135.995 586.795 135.577C586.559 135.16 586.201 134.82 585.72 134.555C585.197 134.268 584.67 134.145 584.138 134.188C583.613 134.229 583.132 134.396 582.695 134.691C582.264 134.983 581.917 135.368 581.654 135.845L581.055 136.934C580.704 137.573 580.517 138.178 580.495 138.749C580.476 139.323 580.605 139.84 580.882 140.3C581.161 140.756 581.572 141.133 582.115 141.432C582.468 141.626 582.817 141.753 583.162 141.814C583.509 141.87 583.845 141.854 584.168 141.767C584.492 141.68 584.791 141.518 585.068 141.281L586.654 142.567C586.228 143.008 585.725 143.323 585.145 143.513C584.572 143.7 583.953 143.751 583.286 143.665C582.626 143.578 581.948 143.342 581.251 142.959ZM587.523 146.158L592.78 136.599L594.579 137.588L593.744 139.107L593.843 139.162C594.3 138.743 594.83 138.507 595.432 138.455C596.04 138.4 596.624 138.527 597.184 138.835C597.3 138.899 597.435 138.978 597.588 139.073C597.745 139.171 597.866 139.251 597.95 139.313L596.971 141.093C596.908 141.031 596.788 140.935 596.611 140.806C596.436 140.672 596.253 140.552 596.062 140.447C595.622 140.205 595.179 140.083 594.732 140.08C594.291 140.076 593.881 140.182 593.502 140.401C593.125 140.615 592.822 140.929 592.594 141.344L589.383 147.181L587.523 146.158ZM605.385 146.572L603.534 145.943C603.582 145.689 603.583 145.422 603.537 145.142C603.495 144.865 603.379 144.594 603.191 144.328C603.002 144.062 602.715 143.823 602.329 143.61C601.802 143.321 601.297 143.197 600.814 143.239C600.334 143.278 599.992 143.482 599.789 143.851C599.613 144.17 599.59 144.492 599.719 144.818C599.849 145.143 600.142 145.512 600.601 145.927L601.927 147.11C602.695 147.797 603.178 148.471 603.377 149.132C603.576 149.792 603.489 150.46 603.117 151.137C602.802 151.709 602.356 152.128 601.777 152.394C601.205 152.657 600.555 152.754 599.827 152.683C599.103 152.614 598.355 152.367 597.583 151.943C596.513 151.354 595.765 150.646 595.34 149.817C594.917 148.985 594.861 148.103 595.173 147.172L597.123 147.888C596.977 148.418 597.012 148.9 597.228 149.332C597.446 149.76 597.836 150.128 598.396 150.436C599.006 150.772 599.563 150.913 600.067 150.861C600.573 150.805 600.928 150.592 601.131 150.223C601.296 149.924 601.322 149.611 601.21 149.285C601.101 148.961 600.848 148.621 600.448 148.266L599.026 147.022C598.245 146.328 597.764 145.641 597.581 144.962C597.402 144.286 597.499 143.607 597.874 142.927C598.184 142.363 598.613 141.956 599.161 141.706C599.709 141.456 600.326 141.366 601.012 141.435C601.701 141.5 602.404 141.73 603.121 142.125C604.154 142.693 604.844 143.365 605.191 144.139C605.54 144.909 605.605 145.72 605.385 146.572ZM604.804 155.818C604.464 155.63 604.237 155.349 604.125 154.974C604.015 154.595 604.055 154.233 604.244 153.888C604.431 153.548 604.713 153.325 605.09 153.219C605.47 153.109 605.83 153.147 606.17 153.335C606.51 153.522 606.735 153.805 606.845 154.184C606.958 154.56 606.92 154.917 606.733 155.258C606.608 155.486 606.434 155.663 606.213 155.79C605.998 155.915 605.767 155.983 605.519 155.992C605.27 156.001 605.032 155.943 604.804 155.818Z" fill="black"/>
<path d="M426.644 287.05L432.857 312.839L415.837 315.593C415.837 315.593 416.856 305.434 413.708 302.852C410.56 300.27 426.644 287.05 426.644 287.05Z" fill="#F2BEAA"/>
<path d="M428.1 297.766C428.1 297.766 424.939 288.713 419.675 286.94C414.414 285.172 411.546 286.049 409.442 288.174C407.335 290.302 406.663 297.124 408.767 301.373C410.874 305.625 415.112 309.06 420.024 307.999C424.465 307.038 428.1 297.766 428.1 297.766Z" fill="#F2BEAA"/>
<path d="M420.582 294.591C420.909 296.383 421.112 298.169 422.303 299.686C423.396 301.073 424.92 302.084 426.42 303.066C426.642 303.209 426.431 303.546 426.209 303.4C424.671 302.392 423.083 301.352 421.962 299.929C420.736 298.373 420.515 296.542 420.174 294.695C420.132 294.448 420.536 294.345 420.582 294.591Z" fill="#D18774"/>
<path d="M486.678 306.079L454.577 307.594C454.577 307.594 451.522 324.836 445.539 336.441C433.403 359.986 430.66 375.712 446.371 379.933C456.474 382.645 463.231 377.801 476.465 353.838C494.475 321.222 486.678 306.079 486.678 306.079Z" fill="#E6CFB0"/>
<path d="M571.861 614.236C571.861 614.236 575.929 626.546 582.118 630.205C587.108 633.154 596.644 633.596 599.188 639.458C599.755 640.764 598.824 642.25 597.469 642.25H571.861C571.861 642.25 562.541 639.519 558.144 640.185C553.748 640.851 553.956 629.626 555.212 625.481C556.471 621.333 555.424 614.236 555.424 614.236H571.861Z" fill="#3E3E44"/>
<path d="M473.851 403.336C473.851 403.336 465.548 433.46 464.694 454.859C463.963 473.184 465.698 512.693 465.442 543.295C465.076 587.322 462.683 617.858 463.817 619.252C465.811 621.702 467.752 619.411 475.949 621.343C484.847 623.435 488.819 619.099 488.819 619.099C488.819 619.099 491.278 602.384 495.483 574.136C496.989 563.997 498.628 553.025 500.293 541.927C505.817 505.051 508.343 471.309 510.215 467.395C510.215 467.395 518.162 496.994 529.35 540.138C542.313 590.121 551.949 619.786 553.039 623.677C553.039 623.677 557.058 625.659 564.557 622.429C567.465 621.177 574.492 621.479 576.749 619.189C579.713 616.174 565.747 557.487 560.601 494.773C555.948 438.034 547.269 414.613 543.048 404.445L473.851 403.336Z" fill="#D5BD99"/>
<path d="M558.53 306.094C558.251 309.189 556.691 319.097 554.799 330.79C554.486 332.721 554.167 334.702 553.838 336.71V336.713C550.659 356.231 547.03 378.192 546.867 381.654C546.375 392.037 474.748 390.369 474.991 383.642C475.17 378.706 464.572 307.197 464.572 307.197L471.738 285.716C506.035 276.251 543.914 284.725 543.914 284.725C543.914 284.725 560.25 287.33 558.53 306.094Z" fill="#E6CFB0"/>
<path d="M511.614 274.893C511.614 274.893 511.064 275.977 510.069 277.839C509.535 278.844 508.868 280.077 508.092 281.485C506.232 284.854 503.748 289.231 500.883 293.912C492.506 307.605 480.925 323.903 472.532 325.302C470.9 325.57 449.225 328.859 454.216 307.417C457.655 292.626 467.624 281.303 480.494 279.108C484.149 278.487 488.095 277.892 491.909 277.356C499.032 276.358 505.691 275.564 509.147 275.171C510.709 274.989 511.614 274.893 511.614 274.893Z" fill="#E6CFB0"/>
<path d="M602 355.607C602 355.607 562.497 364.515 567.353 359.54C570.799 356.007 544.584 325.771 539.287 324.941C530.845 323.618 522.102 306.779 516.185 292.686C514.434 288.514 512.932 284.588 511.758 281.372C511.253 279.989 510.812 278.743 510.437 277.663C510.059 276.587 509.754 275.68 509.515 274.974C509.16 273.907 508.971 273.307 508.971 273.307C508.971 273.307 515.94 275.024 524.842 276.853C528.292 277.563 532.033 278.293 535.774 278.943C548.643 281.185 563.055 286.947 569.254 300.927C577.214 318.879 598.342 336.262 602 355.607Z" fill="#E6CFB0"/>
<path d="M522.038 276.442C519.9 275.992 518.243 274.233 517.855 271.993C517.072 267.487 516.109 261.455 515.473 255.81C515.302 254.31 516.811 248.565 516.872 248.465C516.698 248.515 493.111 255.35 495.992 262.565C496.119 262.888 496.236 263.228 496.343 263.581C497.039 265.884 497.277 268.784 497.277 271.71C497.273 273.463 497.156 275.139 496.986 276.662C495.366 276.875 493.683 277.102 491.973 277.342C491.675 278.672 491.434 280.431 491.565 282.338C491.849 286.497 493.901 291.349 501.028 294.032C502.095 294.435 503.273 294.789 504.581 295.082C509.41 296.172 513.174 295.075 516.095 292.852C519.522 290.243 521.79 286.09 523.276 282.111C523.942 280.328 524.451 278.582 524.829 277.019C523.875 276.826 522.941 276.632 522.038 276.442Z" fill="#F2BEAA"/>
<path d="M516.07 255.359C515.921 256.413 516.378 260.344 516.372 261.555C510.985 272.181 497.428 271.653 497.231 271.722C497.231 268.84 496.991 265.985 496.286 263.718C501.652 261.118 513.024 254.909 516.07 255.359Z" fill="#E2988F"/>
<path d="M505.875 456.251C507.56 458.606 508.539 461.332 509.342 464.107C510.227 467.174 511.041 470.267 511.885 473.35C512.026 473.852 512.793 473.639 512.655 473.13C511.784 469.952 510.953 466.757 510.022 463.592C509.218 460.856 508.226 458.16 506.565 455.841C506.262 455.421 505.572 455.828 505.875 456.251Z" fill="#3E3E44"/>
<path d="M486.187 449.544C489.199 450.933 491.858 452.965 494.039 455.546C494.165 455.314 494.291 455.086 494.421 454.857C490.812 453.947 487.147 453.332 483.448 453.008C482.944 452.965 482.947 453.785 483.448 453.832C487.077 454.149 490.669 454.758 494.212 455.651C494.604 455.751 494.853 455.268 494.594 454.963C492.376 452.336 489.653 450.248 486.586 448.832C486.124 448.62 485.726 449.329 486.187 449.544Z" fill="#3E3E44"/>
<path d="M548.624 451.988C548.783 452.933 548.939 453.878 549.097 454.82C549.189 455.373 549.753 455.141 549.661 454.584C549.505 453.643 549.347 452.697 549.191 451.752C549.099 451.199 548.533 451.431 548.624 451.988Z" fill="#3E3E44"/>
<path d="M551.791 461.467C551.955 462.783 552.12 464.095 552.285 465.411C552.35 465.931 552.903 465.709 552.837 465.192C552.675 463.876 552.51 462.564 552.346 461.248C552.28 460.728 551.728 460.946 551.791 461.467Z" fill="#3E3E44"/>
<path d="M553.916 475.243C554.151 476.189 554.39 477.131 554.629 478.078C554.768 478.631 555.61 478.395 555.47 477.842C555.231 476.896 554.993 475.953 554.754 475.007C554.614 474.457 553.776 474.689 553.916 475.243Z" fill="#3E3E44"/>
<path d="M564.899 544.081C561.955 548.163 558.067 551.305 553.632 553.139C553.173 553.326 553.371 554.143 553.836 553.95C558.393 552.065 562.41 548.875 565.439 544.678C565.742 544.257 565.206 543.657 564.899 544.081Z" fill="#3E3E44"/>
<path d="M497.187 548.282C494.811 550.65 492.438 553.017 490.066 555.382C489.692 555.756 490.257 556.346 490.628 555.975C493.004 553.608 495.376 551.24 497.749 548.873C498.123 548.502 497.557 547.911 497.187 548.282Z" fill="#3E3E44"/>
<path d="M492.897 555.736C490.587 558.93 488.727 562.434 487.329 566.171C487.146 566.662 487.894 566.876 488.077 566.392C489.446 562.72 491.299 559.283 493.567 556.151C493.868 555.73 493.198 555.325 492.897 555.736Z" fill="#3E3E44"/>
<path d="M488.21 278.21C486.251 287.248 492.071 296.158 500.179 299.274C508.426 302.445 519.916 300.822 525.033 292.786C527.725 288.56 528.701 283.382 529.056 278.41C529.076 278.148 528.685 278.151 528.665 278.41C528.359 282.678 527.589 287.041 525.66 290.874C523.512 295.146 520.006 297.909 515.557 299.264C507.114 301.837 497.022 299.827 491.633 292.184C488.841 288.22 487.543 283.146 488.589 278.318C488.645 278.063 488.263 277.955 488.21 278.21Z" fill="#F9F2E2"/>
<path d="M531.603 278.593C531.603 278.593 524.496 300.514 524.841 322.993H529.28C529.28 322.993 533.792 286.619 536.986 279.576C536.986 279.576 534.318 278.653 531.603 278.593Z" fill="#D5BD99"/>
<path d="M482.083 278.967C482.083 278.967 478.035 301.185 480.963 323.522L485.43 323.009C485.43 323.009 485.42 285.444 487.829 278.065C487.829 278.065 484.817 278.009 482.083 278.967Z" fill="#D5BD99"/>
<path d="M485.398 323.036C485.398 323.036 504.158 329.02 524.713 322.993H529.213C529.213 322.993 536.754 365.799 548.526 370.859V399.297L552.843 437.164L467.214 432.15C467.214 432.15 473.223 384.714 473.683 370.859C474.139 357.005 480.931 323.546 480.931 323.546L485.398 323.036Z" fill="#D5BD99"/>
<path d="M531.723 430.279C532.66 433.245 533.598 436.211 534.535 439.18C535.02 440.723 535.508 442.265 535.997 443.808C536.325 444.848 536.644 445.724 537.595 446.247C539.73 447.42 542.38 447.885 544.736 448.133C547.353 448.412 549.986 448.242 552.564 447.681C553.053 447.579 552.844 446.764 552.359 446.869C550.006 447.379 547.604 447.542 545.208 447.335C542.848 447.131 540.225 446.662 538.064 445.551C536.856 444.932 536.631 443.244 536.234 441.98C535.821 440.675 535.408 439.371 534.997 438.066C534.154 435.396 533.311 432.725 532.465 430.055C532.306 429.545 531.56 429.762 531.723 430.279Z" fill="#3E3E44"/>
<path d="M474.892 434.278C474.025 437.479 473.161 440.68 472.295 443.878C472.088 444.643 471.918 445.437 471.668 446.185C471.345 447.148 470.631 447.401 469.761 447.759C468.298 448.361 466.831 448.966 465.364 449.568C464.897 449.76 465.101 450.541 465.574 450.349C467.248 449.659 468.928 448.979 470.601 448.28C471.988 447.701 472.298 446.887 472.685 445.466C473.675 441.809 474.665 438.149 475.655 434.493C475.792 433.992 475.028 433.777 474.892 434.278Z" fill="#3E3E44"/>
<path d="M519.132 376.405C523.894 375.818 530.793 385.387 534.946 386.927L542.014 384.766L547.028 397.989L537.409 400.53C535.983 401.067 534.567 401.537 533.735 401.637C525.606 402.603 523.365 397.092 520.605 396.826C519.804 396.749 514.843 397.366 514.474 396.079C514.268 395.355 519.059 393.808 521.387 392.815C521.669 392.695 521.656 392.275 521.367 392.191C518.055 391.254 511.315 392.311 510.856 390.391C510.757 389.984 514.514 388.731 516.851 387.884C518.105 387.427 520.469 387.544 522.391 387.75C522.54 387.767 522.603 387.55 522.467 387.487C520.898 386.734 518.79 386.193 517.53 386.07C515.362 385.863 509.666 385.98 508.489 383.846C508 382.956 515.199 382.549 518.072 382.043C518.534 381.963 519.126 381.999 519.781 382.119C519.904 382.143 519.963 381.966 519.854 381.909C518.853 381.426 517.988 381.049 517.599 380.989C513.979 380.422 509.257 380.296 508.446 377.858C508.236 377.222 518.092 376.535 519.132 376.405Z" fill="#F2BEAA"/>
<path d="M544.544 403.304C544.544 403.304 566.926 394.987 583.57 383.969C598.882 373.833 601.601 359.74 601.987 355.346C602.117 353.84 601.225 352.441 599.805 351.941C594.608 350.104 581.072 346.418 572.483 354.054C561.675 363.66 558.65 369.516 550.058 376.38C544.88 380.513 536.458 382.754 535.972 385.014C535.482 387.271 539.33 390.162 539.18 392.987C539.03 395.811 542.645 403.911 544.544 403.304Z" fill="#E6CFB0"/>
<path d="M414.361 313.13C414.361 313.13 417.407 336.834 425.542 354.923C436.328 378.908 444.397 379.957 449.238 380.596C450.73 380.795 452.838 378.296 453.61 377.008C456.426 372.304 462.689 359.845 456.931 349.985C449.683 337.575 444.563 333.481 439.556 323.769C436.54 317.92 436.012 309.277 433.904 308.36C431.796 307.444 428.212 310.625 425.486 309.926C422.76 309.228 414.139 311.161 414.361 313.13Z" fill="#E6CFB0"/>
<path d="M553.9 337.956C553.9 337.956 549.473 330.128 545.147 328.981C540.82 327.833 548.701 332.56 549.522 337.956C550.346 343.355 552.468 346.654 552.543 346.21C552.616 345.766 553.9 337.956 553.9 337.956Z" fill="#F9F2E2"/>
<path d="M485.418 379.758C490.954 390.494 496.323 401.317 501.527 412.219C501.754 412.698 501.044 413.118 500.813 412.639C495.612 401.733 490.24 390.914 484.707 380.178C484.464 379.705 485.174 379.285 485.418 379.758Z" fill="#3E3E44"/>
<path d="M501.334 397.281C502.789 401.632 504.44 405.906 506.289 410.097C506.503 410.583 505.792 411.008 505.578 410.52C503.7 406.258 502.015 401.921 500.538 397.504C500.367 396.991 501.163 396.775 501.334 397.281Z" fill="#3E3E44"/>
<path d="M482.948 327.279C483.875 327.32 484.795 327.306 485.715 327.225C486.244 327.179 486.473 327.612 485.938 327.659C484.943 327.747 483.956 327.774 482.948 327.729C482.412 327.704 482.405 327.254 482.948 327.279Z" fill="#3E3E44"/>
<path d="M523.637 326.77C524.789 326.886 525.934 326.864 527.083 326.698C527.604 326.622 527.597 327.53 527.083 327.606C525.934 327.769 524.789 327.795 523.637 327.679C523.113 327.624 523.11 326.716 523.637 326.77Z" fill="#3E3E44"/>
<path d="M446.071 334.336C446.071 334.336 456.565 344.766 456.734 354.707C456.734 354.707 462.149 342.398 447.331 331.45L446.071 334.336Z" fill="#F9F2E2"/>
<path d="M477.317 617.818L476.25 617.917C474.327 618.093 472.57 617.005 472.345 615.5L410.152 199.312C409.928 197.806 411.317 196.43 413.24 196.254L414.307 196.155C416.23 195.979 417.987 197.066 418.212 198.572L480.405 614.76C480.629 616.266 479.24 617.642 477.317 617.818Z" fill="#262425"/>
<path d="M430.668 305.022C430.668 305.022 433.297 295.252 431.939 292.483C430.581 289.714 426.583 284.444 423.566 283.967C419.346 283.301 412.848 281.886 413.325 283.742C413.751 285.398 417.221 289.327 420.502 289.149C421.806 289.078 421.606 292.681 422.34 293.656C425.955 298.465 426.614 304.208 426.614 304.208L430.668 305.022Z" fill="#F2BEAA"/>
<path d="M414.176 284.56C409.934 283.336 408.226 283.744 407.648 285.924C407.067 288.101 407.932 288.754 412.171 289.978C416.413 291.202 421.118 292.158 421.7 289.978C422.278 287.801 418.415 285.785 414.176 284.56Z" fill="#FFCFC0"/>
<path d="M413.347 290.077C408.141 288.601 406.093 288.909 405.513 291.054C404.93 293.197 406.015 293.9 411.221 295.376C416.427 296.849 422.186 298.084 422.766 295.941C423.349 293.796 418.553 291.55 413.347 290.077Z" fill="#FFCFC0"/>
<path d="M412.624 294.255C407.581 292.823 405.588 293.165 404.993 295.359C404.398 297.556 405.444 298.258 410.487 299.691C415.53 301.123 421.111 302.302 421.706 300.109C422.298 297.912 417.667 295.688 412.624 294.255Z" fill="#FFCFC0"/>
<path d="M411.616 298.718C408.005 297.685 406.546 298.046 406.043 299.928C405.537 301.809 406.273 302.371 409.881 303.404C413.492 304.438 417.502 305.241 418.005 303.36C418.512 301.475 415.224 299.756 411.616 298.718Z" fill="#FFCFC0"/>
<path d="M417.788 291.273C414.934 290.695 412.08 290.113 409.226 289.535C408.955 289.481 409.071 289.116 409.339 289.17C412.193 289.748 415.047 290.327 417.904 290.906C418.172 290.963 418.059 291.327 417.788 291.273Z" fill="#E5A895"/>
<path d="M419.356 297.089C415.021 296.331 410.764 295.251 406.587 293.852C406.309 293.759 406.429 293.312 406.707 293.406C410.884 294.804 415.141 295.888 419.476 296.646C419.768 296.698 419.644 297.141 419.356 297.089Z" fill="#E5A895"/>
<path d="M416.731 301.318C413.45 300.695 410.242 299.788 407.105 298.601C406.845 298.503 406.957 298.066 407.217 298.165C410.357 299.355 413.562 300.259 416.847 300.881C417.116 300.932 417.001 301.368 416.731 301.318Z" fill="#E5A895"/>
<path d="M430.705 303.813C430.003 305.029 429.058 305.978 427.91 306.582C427.651 306.718 427.428 306.272 427.687 306.137C428.765 305.567 429.664 304.7 430.323 303.553C430.479 303.278 430.865 303.538 430.705 303.813Z" fill="#D18774"/>
<path d="M380 641.864C382.517 634.909 391.471 630.755 400.069 628.272C408.672 625.785 418.048 624.088 424.814 619.214C431.212 614.607 434.299 607.829 439.629 602.439C447.049 594.941 464.606 589.81 476.659 589.924C476.659 589.924 519.834 637.14 481.427 642.25L380 641.864Z" fill="#FCF4E3"/>
<path d="M477.101 591.208C473.915 596.419 474.246 602.457 477.786 607.485C481.122 612.227 484.523 616.584 484.654 622.253C484.756 626.836 482.545 631.582 478.075 634.491C473.993 637.148 467.382 637.733 464.906 641.818C464.311 642.797 462.512 641.94 463.104 640.961C465.453 637.085 470.893 636.159 475.102 634.109C481.22 631.131 483.439 625.036 482.244 619.543C481.62 616.677 480.208 614.004 478.377 611.52C476.766 609.335 475.008 607.249 473.985 604.818C471.982 600.059 472.565 594.828 475.302 590.352C475.898 589.375 477.696 590.235 477.101 591.208Z" fill="#EFD8C7"/>
<path d="M476.521 592.121C469.662 594.016 461.348 596.414 458.921 602.385C457.693 605.412 459.187 608.224 460.124 611.149C461.002 613.883 460.875 616.472 459.499 619.094C457.102 623.663 452.265 627.397 446.483 629.364C439.506 631.736 431.786 631.516 424.4 632.401C417.449 633.23 409.873 635.417 406.813 640.757C406.247 641.74 404.386 640.888 404.947 639.908C411.05 629.276 428.79 631.259 440.662 629.081C448.306 627.68 455.101 623.755 457.807 617.854C460.432 612.133 454.219 606.77 457.275 601.023C460.478 594.996 468.62 592.526 475.947 590.503C477.255 590.141 477.821 591.763 476.521 592.121Z" fill="#EFD8C7"/>
<path d="M473.219 593.452C468.118 597.116 468.571 602.862 469.574 607.736C470.505 612.255 471.801 616.948 469.891 621.431C468.08 625.684 464.121 627.529 459.05 629.147C456.15 630.074 453.483 631.206 451.998 633.455C450.571 635.623 450.436 638.218 451.731 640.438C452.302 641.414 450.44 642.269 449.864 641.286C447.726 637.626 448.577 633.123 452.353 630.275C454.69 628.515 457.827 627.808 460.731 626.805C463.939 625.697 466.344 624.029 467.597 621.447C472.105 612.163 460.748 600.119 471.69 592.265C472.711 591.535 474.243 592.719 473.219 593.452Z" fill="#EFD8C7"/>
<path d="M474.949 591.085C471.015 592.292 467.081 593.503 463.148 594.713C459.484 595.841 455.327 596.728 451.988 598.384C446.062 601.325 446.835 607.893 443.703 612.285C440.432 616.876 434.426 619.829 428.736 622.339C421.836 625.388 414.563 627.78 407.05 629.724C399.31 631.729 390.189 634.133 386.918 640.628C386.415 641.627 384.326 641.191 384.837 640.179C387.352 635.188 393.004 632.119 399.141 630.138C402.994 628.898 407.017 628.011 410.933 626.903C414.96 625.759 418.902 624.433 422.73 622.931C429.412 620.312 437.216 617.216 441.331 612.11C444.826 607.771 444.003 601.642 449.055 598.014C452.056 595.858 456.509 594.952 460.214 593.811C464.933 592.359 469.656 590.907 474.375 589.455C475.666 589.058 476.228 590.692 474.949 591.085Z" fill="#EFD8C7"/>
<path d="M487.052 218.588C484.737 215.584 484.274 211.382 486.21 208.061C488.139 204.746 492.128 202.916 495.932 203.482C502.045 204.395 508.328 211.138 514.692 207.293C514.907 207.164 514.712 206.83 514.498 206.959C510.197 209.56 505.396 206.883 501.424 204.981C498.284 203.479 494.929 202.338 491.463 203.459C484.928 205.58 482.583 213.42 486.716 218.783C486.864 218.978 487.206 218.786 487.052 218.588Z" fill="#3E3E44"/>
<path d="M509.543 220.629C509.543 220.629 512.491 219.164 515.314 220.451C515.314 220.451 513.082 220.341 511.088 221.639C509.095 222.94 509.543 220.629 509.543 220.629Z" fill="#2C2C4C"/>
<path d="M522.186 248.465C521.821 248.574 519.954 249.135 517.428 250.05C517.553 248.511 521.622 248.55 522.186 248.465Z" fill="#F2BEAA"/>
<path d="M516.987 261.714C515.957 264.69 505.208 266.859 500.922 267.218C498.097 267.457 493.762 268.005 491.397 266.278C489.391 264.817 483.951 252.544 485.441 246.326C485.73 245.121 486.197 240.039 485.766 236.605C485.052 230.892 489.226 221.585 489.226 221.585C505.787 210.369 519.628 227.089 520.674 233.436C521.72 239.78 521.147 249.711 516.987 261.714Z" fill="#F2BEAA"/>
<path d="M510.408 234.593C511.217 234.747 511.314 234.077 510.635 233.604C509.014 232.486 506.998 231.354 502.026 232.673C497.354 233.913 497.662 236.622 500.327 236.277C502.663 235.973 505.06 233.564 510.408 234.593Z" fill="#262425"/>
<path d="M485.566 234.832C485.094 234.903 485.065 233.412 485.46 233.033C486.395 232.133 487.989 231.483 490.51 232.925C493.275 234.508 492.968 236.229 491.392 235.671C490.013 235.184 488.698 234.349 485.566 234.832Z" fill="#262425"/>
<path d="M507.914 239.215C507.889 240.261 507.042 241.089 506.019 241.064C504.997 241.039 504.19 240.172 504.215 239.127C504.221 238.783 504.319 238.465 504.483 238.191C504.64 237.923 506.475 237.86 507.116 237.907C507.479 238.178 507.775 238.304 507.87 238.764C507.904 238.909 507.917 239.06 507.914 239.215Z" fill="#262425"/>
<path d="M510.001 239.689C510.286 240.587 508.41 237.435 503.899 238.282C502.791 238.49 501.673 239.191 500.772 239.925C500.445 240.189 500.429 239.76 500.727 239.46C501.835 238.322 502.911 237.528 504.641 237.384C507.609 237.134 509.884 239.32 510.001 239.689Z" fill="#262425"/>
<path d="M493.935 237.185C495.336 237.91 495.969 239.477 495.929 241.017C495.882 242.729 494.957 244.269 493.955 245.591C493.275 246.49 491.606 247.863 492.172 249.176C492.424 249.756 493.071 250.051 493.597 250.305C494.341 250.664 495.122 250.922 495.926 251.102C496.164 251.156 496.274 250.787 496.036 250.736C495.132 250.532 494.257 250.234 493.436 249.796C492.749 249.43 492.239 248.945 492.581 248.091C492.755 247.643 493.074 247.283 493.375 246.921C494.327 245.757 495.272 244.567 495.839 243.156C496.71 240.983 496.392 238.029 494.133 236.859C493.918 236.747 493.717 237.073 493.935 237.185Z" fill="#C68575"/>
<path d="M493.564 260.585C494.842 260.182 496.122 260.182 497.4 260.601C497.861 260.75 498.075 260.062 497.617 259.913C496.229 259.459 494.772 259.447 493.381 259.887C492.922 260.033 493.103 260.731 493.564 260.585Z" fill="#E5A38F"/>
<path d="M530.318 243.179C527.83 251.301 518.904 255.336 518.904 255.336C519.852 250.259 520.502 239.722 519.265 239.712C518.027 239.699 514.579 243.42 514.945 241.553C515.316 239.689 517.22 236.977 514.882 232.886C512.544 228.795 514.749 223.889 514.749 223.889C514.749 223.889 514.729 223.895 514.692 223.909L514.659 223.919C514.212 224.099 513.711 224.253 513.164 224.379H513.148C511.684 224.727 509.906 224.904 508.001 224.951C506.321 224.991 504.54 224.931 502.789 224.797C500.911 224.647 499.066 224.413 497.412 224.122C495.848 223.842 494.45 223.514 493.356 223.154C492.683 222.933 492.089 222.79 491.562 222.7C491.145 222.629 490.768 222.593 490.431 222.589C488.06 222.549 487.74 223.979 487.74 223.979C484.265 219.012 485.045 215.743 485.986 212.697C487.667 207.263 492.499 203.068 499.64 205.126C506.637 207.143 505.353 207.373 512.214 206.946C528.116 205.954 527.596 216.768 527.596 216.768C535.237 221.407 532.809 235.057 530.318 243.179Z" fill="#3E3E44"/>
<path d="M515.904 243.177C515.904 243.177 519.861 237.515 523.376 240.203C526.888 242.891 523.108 247.624 521.682 249.438C520.162 251.383 519.305 251.38 516.721 250.68C514.137 249.98 515.904 243.177 515.904 243.177Z" fill="#F2BEAA"/>
<path d="M516.398 249.966C517.228 251.411 519.277 251.359 520.558 250.505C521.358 249.969 521.938 249.198 522.471 248.434C523.11 247.513 523.728 246.565 524.183 245.551C524.941 243.855 525.334 241.524 523.612 240.214C521.918 238.924 519.602 239.46 518.178 240.831C517.99 241.011 518.277 241.293 518.464 241.113C519.786 239.835 522.02 239.309 523.523 240.657C525.037 242.012 524.367 244.308 523.588 245.853C522.912 247.182 522.034 248.636 520.927 249.69C519.862 250.707 517.672 251.362 516.76 249.779C516.634 249.558 516.271 249.744 516.398 249.966Z" fill="#E5A38F"/>
<path d="M520.87 241.078C520.216 241.302 519.576 241.622 519.191 242.176C518.741 242.822 518.885 243.333 519.083 244.012C519.457 245.29 518.026 245.514 517.299 246.307C516.89 246.757 516.76 247.317 517.076 247.836C517.213 248.061 517.594 247.868 517.458 247.643C516.717 246.427 519.342 245.795 519.604 244.693C519.716 244.237 519.45 243.92 519.338 243.493C519.072 242.473 520.054 241.778 520.978 241.462C521.237 241.374 521.136 240.99 520.87 241.078Z" fill="#E5A38F"/>
<path d="M502.615 252.562C502.56 253.16 501.878 254.197 500.831 255.108C499.64 256.148 497.965 257.028 496.195 256.911C495.063 256.836 494.07 256.463 493.268 255.95C491.958 255.115 491.147 253.896 491.02 252.962C490.993 252.811 490.997 252.668 491.01 252.534C491.014 252.5 491.024 252.469 491.044 252.445C491.123 252.315 491.344 252.284 491.539 252.25C492.296 252.134 493.678 252.527 495.908 252.668C497.392 252.76 499.906 252.257 501.407 252.175C501.612 252.165 501.81 252.161 501.98 252.168C502.345 252.175 502.601 252.23 502.621 252.387C502.632 252.442 502.632 252.497 502.615 252.562Z" fill="#D34A5B"/>
<path d="M502.1 252.167C497.2 255.954 493.118 253.728 491.532 252.534L491.529 252.459C491.605 252.322 491.819 252.29 492.01 252.257C492.742 252.135 494.074 252.545 496.231 252.693C497.665 252.79 500.095 252.261 501.546 252.178C501.744 252.167 501.935 252.16 502.1 252.167Z" fill="white"/>
<path d="M501.043 255.325C499.878 256.241 498.239 257.015 496.507 256.912C495.399 256.846 494.427 256.518 493.643 256.066C494.704 255.596 497.078 254.659 498.927 254.827C499.985 254.924 500.642 255.123 501.043 255.325Z" fill="#FE717A"/>
<path d="M498.79 205.535C495.09 204.66 491.074 205.083 488.119 207.677C485.406 210.057 484.415 213.818 485.825 217.176C485.921 217.407 486.257 217.206 486.161 216.978C484.711 213.526 486.014 209.722 488.93 207.526C491.752 205.401 495.343 205.12 498.687 205.911C498.93 205.971 499.033 205.592 498.79 205.535Z" fill="#3E3E44"/>
<path d="M527.977 211.718C528.389 214.149 527.854 216.504 526.449 218.57C526.301 218.787 526.666 218.987 526.814 218.773C528.284 216.611 528.815 214.149 528.382 211.608C528.339 211.356 527.934 211.463 527.977 211.718Z" fill="#3E3E44"/>
<path d="M526.554 216.625C528.494 217.25 530.279 218.159 531.937 219.356C532.147 219.507 532.35 219.153 532.14 219.002C530.455 217.787 528.628 216.864 526.66 216.232C526.412 216.152 526.309 216.548 526.554 216.625Z" fill="#3E3E44"/>
<path d="M499.202 224.296C495.607 223.458 495.208 218.42 495.85 215.44C496.652 211.729 500.21 210.901 503.498 210.798C503.748 210.788 503.748 210.401 503.498 210.408C499.751 210.528 496.033 211.672 495.381 215.86C494.898 218.974 495.414 223.812 499.098 224.673C499.341 224.73 499.448 224.353 499.202 224.296Z" fill="#626263"/>
<path d="M503.896 215.186C501.893 216.077 500.016 217.123 499.054 219.011C498.236 220.614 498.204 222.373 498.856 224.021C498.946 224.248 499.353 224.151 499.263 223.921C498.593 222.23 498.672 220.41 499.63 218.813C500.596 217.207 502.346 216.297 504.108 215.513C504.349 215.403 504.137 215.079 503.896 215.186Z" fill="#626263"/>
<path d="M515.09 223.601C518.036 222.292 520.735 220.635 523.179 218.642C523.371 218.485 523.086 218.228 522.893 218.385C520.473 220.356 517.802 221.991 514.887 223.284C514.656 223.388 514.86 223.705 515.09 223.601Z" fill="#626263"/>
<path d="M492.194 240.034C491.651 239.323 490.589 238.103 489.355 238.019C489.087 237.997 488.816 238.03 488.535 238.136C488.055 238.314 487.433 238.944 486.785 239.389C486.55 239.553 489.541 234.901 491.969 239.178C492.052 239.323 492.134 239.48 492.217 239.651C492.306 239.833 492.396 240.034 492.485 240.248C492.697 240.766 492.564 240.518 492.194 240.034Z" fill="#262425"/>
<path d="M492.057 239.543C492.057 239.639 492.054 239.759 492.032 239.892C491.983 240.176 491.848 240.505 491.517 240.735C491.105 241.025 490.32 241.155 489.841 240.995C489.365 240.835 488.914 240.625 488.626 240.212C488.281 239.719 488.249 238.903 488.64 238.446C488.764 238.3 488.889 238.153 488.985 238.05C489.063 237.956 489.12 237.893 489.12 237.893L490.579 238.156L491.414 238.666L491.741 239.066L491.791 239.109C491.88 239.243 491.968 239.386 492.057 239.543Z" fill="#262425"/>
</svg>
