<svg width="674" height="678" viewBox="0 0 674 678" fill="none" xmlns="http://www.w3.org/2000/svg">
<path d="M331.008 172.322C474.797 143.028 540.18 175.164 540.18 175.164C539.716 175.164 539.28 175.205 538.869 175.278C546.085 177.166 553.406 179.527 560.738 182.371C590.904 194.074 615.153 211.595 629.306 229.987C656.754 252.679 667.65 295.703 671.514 317.078C678.584 352.159 670.518 383.023 647.95 395.199C646.489 395.987 644.99 396.682 643.46 397.288C618.571 431.9 623.6 480.155 640.094 510.561C656.746 541.258 658.499 567.693 603.284 623.119C548.07 678.544 417.482 698.157 180.849 652.963C-35.1332 611.714 -1.04742 464.975 6.54688 439.677C7.86931 416.373 18.74 388.061 38.2852 361.668C39.9512 359.419 41.65 357.222 43.3789 355.082C84.7385 286.79 195.889 199.85 331.008 172.322Z" fill="#D9DCB9"/>
<path d="M146.94 335.622C144.445 333.626 97.9625 360.494 99.9673 433.692C101.972 506.887 167.796 555.054 273.736 533.051C363.082 514.494 278.534 412.294 278.534 412.294L146.94 335.622Z" fill="#F3E1CA"/>
<path d="M158.573 501.063C158.462 501.063 158.35 501.034 158.248 500.973C134.255 486.617 124.686 464.999 124.593 464.782C124.455 464.461 124.602 464.089 124.921 463.949C125.244 463.815 125.615 463.957 125.755 464.278C125.848 464.492 135.27 485.749 158.899 499.886C159.199 500.067 159.297 500.455 159.116 500.755C158.997 500.953 158.788 501.063 158.573 501.063Z" fill="white"/>
<path d="M178.564 480.833C178.564 487.374 204.439 492.676 236.357 492.676C268.275 492.676 294.149 487.374 294.149 480.833C294.149 474.293 268.275 468.99 236.357 468.99C204.439 468.99 178.564 474.293 178.564 480.833Z" fill="#D5BD99"/>
<path d="M214.497 327.004C214.497 327.004 223.498 329.663 251.092 350.366C278.686 371.062 279.892 398.461 245.703 400.811C211.515 403.153 214.497 327.004 214.497 327.004Z" fill="#F0CBA5"/>
<path d="M190.062 276.529C190.062 276.529 194.629 278.124 199.19 286.885C201.432 291.184 202.678 300.923 202.678 300.923C202.678 300.923 220.588 316.01 221.818 327.19C223.05 338.362 200.389 338.031 200.389 338.031L188.564 323.383L190.233 306.101L190.062 276.529Z" fill="black"/>
<path d="M198.826 322.089C198.826 322.089 215.588 325.001 233.318 335.626C249.418 345.273 255.998 354.357 255.998 354.357L228.209 363.318L215.025 344.626L198.826 322.089Z" fill="#889782"/>
<path d="M158.038 294.459C158.038 294.459 151.423 295.198 146.586 302.996C141.749 310.793 145.709 319.669 145.709 319.669C145.709 319.669 135.554 326.188 135.265 339.518C134.976 352.847 145.877 355.636 145.877 355.636L178.06 343.809L176.491 300.576L164.302 290.66L158.038 294.459Z" fill="black"/>
<path d="M284.512 446.74L278.801 493.759H312.696L310.098 458.56L284.512 446.74Z" fill="#F0CBA5"/>
<path d="M389.788 540.396C388.386 541.316 320.794 541.868 291.747 542.052C284.778 542.097 278.983 536.808 278.293 529.978C278.247 529.702 278.224 529.425 278.224 529.127L276.752 489.478L324.243 485.109C324.243 485.109 338.203 501.046 341.4 502.541C344.62 504.035 378.013 514.683 384.476 520.824C387.029 523.239 388.661 526.574 389.605 529.839C391.076 534.876 390.869 539.66 389.788 540.396Z" fill="#FCAD4F"/>
<path d="M389.79 540.396C388.388 541.316 320.796 541.868 291.749 542.052C284.78 542.097 278.985 536.808 278.295 529.978L389.607 529.839C391.078 534.876 390.871 539.66 389.79 540.396Z" fill="#FFBA60"/>
<path d="M257.254 404.605C257.254 404.605 313.119 359.235 345.814 376.463C374.274 391.465 330.939 482.909 330.939 482.909L278.799 485.114L274.347 467.529L197.135 467.38L231.204 419.138L257.254 404.605Z" fill="#E6CFB0"/>
<path d="M314.07 482.934L360.377 537.448L384.909 500.425L350.898 450.386L314.07 482.934Z" fill="#F0CBA5"/>
<path d="M468.423 508.865C467.755 510.406 412.973 546.329 388.066 562.612C382.133 566.476 374.451 565.579 369.553 560.818C368.886 560.174 368.288 559.462 367.735 558.68L345.818 527.287L383.397 497.895C383.397 497.895 403.751 503.736 407.246 503.253C410.765 502.77 444.596 493.64 453.359 495.296C456.578 495.917 459.591 497.642 462.075 499.712C466.307 503.208 468.974 507.623 468.423 508.865Z" fill="#FCAD4F"/>
<path d="M316.561 411.013C316.444 411.013 316.327 410.981 316.222 410.915C315.926 410.729 315.839 410.337 316.026 410.041C316.084 409.951 321.852 400.888 329.6 394.285C329.866 394.054 330.262 394.084 330.493 394.354C330.718 394.616 330.687 395.017 330.42 395.248C322.824 401.728 317.152 410.629 317.096 410.719C316.975 410.909 316.77 411.013 316.561 411.013Z" fill="#7551D6"/>
<path d="M170.513 326.065C178.025 315.139 215.225 323.152 222.321 332.522C230.316 343.085 248.786 412.433 248.786 412.433L174.045 444.169C174.045 444.169 152.562 352.177 170.513 326.065Z" fill="#889782"/>
<path d="M228.807 358.102C228.5 358.102 228.23 357.879 228.182 357.563C225.728 341.675 211.599 334.579 211.456 334.509C211.142 334.347 211.013 333.97 211.166 333.662C211.32 333.346 211.703 333.223 212.013 333.369C212.161 333.438 226.875 340.812 229.433 357.37C229.486 357.717 229.25 358.04 228.904 358.094C228.872 358.094 228.839 358.102 228.807 358.102Z" fill="#50447E"/>
<path d="M190.042 446.025C189.726 446.025 189.439 445.816 189.354 445.497L187.071 436.894C186.97 436.515 187.196 436.126 187.576 436.025C187.957 435.926 188.343 436.152 188.445 436.53L190.729 445.133C190.829 445.511 190.603 445.9 190.223 446.002C190.163 446.018 190.101 446.025 190.042 446.025Z" fill="#534579"/>
<path d="M257.495 424.429C257.111 424.429 256.796 424.123 256.785 423.737L256.545 414.576C256.535 414.183 256.846 413.857 257.237 413.846C257.588 413.829 257.954 414.146 257.967 414.539L258.206 423.701C258.216 424.092 257.906 424.418 257.514 424.429C257.508 424.429 257.501 424.429 257.495 424.429Z" fill="#534579"/>
<path d="M249.931 430.128C249.539 430.128 249.222 429.81 249.22 429.418L249.199 419.706C249.199 419.314 249.515 418.996 249.909 418.994C250.302 418.994 250.62 419.312 250.621 419.704L250.642 429.416C250.642 429.808 250.326 430.127 249.932 430.128H249.931Z" fill="#534579"/>
<path d="M173.6 442.251C173.6 442.251 280.308 387.951 304.677 395.965C336.667 406.484 386.083 492.676 386.083 492.676L344.866 523C344.866 523 291.203 471.394 282.778 472.334C273.036 473.42 218.222 496.475 198.716 490.206C179.211 483.937 173.6 442.251 173.6 442.251Z" fill="#E6CFB0"/>
<path d="M287.971 462.281C287.707 462.281 287.544 462.374 287.466 462.419C286.013 463.24 285.37 467.381 285.227 470.643C287.058 468.508 289.648 465.047 289.419 463.299C289.378 462.992 289.25 462.787 289 462.634C288.556 462.361 288.219 462.281 287.971 462.281ZM284.564 472.963C284.486 472.963 284.409 472.948 284.332 472.919C284.093 472.823 283.933 472.594 283.931 472.337C283.921 471.383 283.914 462.976 286.842 461.316C287.416 460.988 288.374 460.762 289.663 461.555C290.235 461.906 290.585 462.453 290.674 463.134C291.086 466.278 285.644 472.11 285.023 472.765C284.902 472.892 284.734 472.963 284.564 472.963Z" fill="#889782"/>
<path d="M176.538 322.089L171.827 388.413L125.174 402.567C125.174 339.849 176.538 322.089 176.538 322.089Z" fill="#889782"/>
<path d="M213.09 377.295C213.09 377.295 216.805 367.24 220.312 367.441C223.818 367.649 232.103 368.943 232.103 368.943L225.066 377.295H213.09Z" fill="#F0CBA5"/>
<path d="M276.611 362.394C276.611 362.394 272.896 352.339 269.389 352.539C265.884 352.747 257.598 354.041 257.598 354.041L264.636 362.394H276.611Z" fill="#F0CBA5"/>
<path d="M214.431 377.295L205.7 381.88C205.7 381.88 204.695 392.004 207.772 397.775C210.849 403.538 207.319 405.109 207.319 405.109C207.319 405.109 232.744 408.081 237.1 391.079C241.455 374.082 214.431 377.295 214.431 377.295Z" fill="#F0CBA5"/>
<path d="M259.316 363.542C260.136 362.432 261.268 361.608 262.506 360.999C266.7 358.949 279.464 355.29 282.491 359.188C285.392 362.925 278.364 365.175 278.364 365.175C278.364 365.175 284.39 364.489 283.452 368.758C282.668 372.318 278.799 372.942 278.799 372.942C278.799 372.942 285.135 372.834 282.106 377.642C279.076 382.457 265.606 385.093 260.928 384.237C256.249 383.374 260.519 377.719 260.519 377.719C260.519 377.719 255.597 376.124 256.024 373.327C256.477 370.368 260.618 369.844 260.618 369.844C260.618 369.844 256.367 367.541 259.316 363.542Z" fill="#F0CBA5"/>
<path d="M262.152 370.345C261.876 370.345 261.621 370.16 261.543 369.883C261.449 369.544 261.645 369.197 261.982 369.105L278.194 364.566C278.531 364.466 278.881 364.667 278.975 365.006C279.069 365.345 278.872 365.691 278.536 365.784L262.324 370.322C262.267 370.337 262.208 370.345 262.152 370.345Z" fill="black"/>
<path d="M262.477 377.935C262.197 377.935 261.941 377.742 261.865 377.465C261.775 377.126 261.976 376.779 262.314 376.687L278.637 372.333C278.979 372.241 279.322 372.441 279.412 372.78C279.502 373.119 279.3 373.466 278.963 373.558L262.64 377.912C262.586 377.919 262.53 377.935 262.477 377.935Z" fill="black"/>
<path d="M233.045 372.957C231.811 372.341 230.426 372.117 229.047 372.14C224.38 372.21 211.344 374.745 210.415 379.591C209.526 384.237 216.81 383.058 216.81 383.058C216.81 383.058 211.131 385.177 213.903 388.552C216.218 391.372 219.948 390.178 219.948 390.178C219.948 390.178 214.251 392.952 219.135 395.864C224.018 398.777 237.218 395.016 240.997 392.127C244.776 389.238 238.404 386.133 238.404 386.133C238.404 386.133 242.066 382.48 240.417 380.177C238.67 377.75 234.744 379.167 234.744 379.167C234.744 379.167 237.485 375.176 233.045 372.957Z" fill="#F0CBA5"/>
<path d="M216.81 383.69C216.516 383.69 216.251 383.482 216.19 383.182C216.121 382.835 216.344 382.504 216.687 382.435L233.191 379.121C233.529 379.052 233.868 379.268 233.937 379.615C234.007 379.954 233.784 380.293 233.442 380.362L216.936 383.675C216.894 383.683 216.852 383.69 216.81 383.69Z" fill="black"/>
<path d="M219.946 390.81C219.655 390.81 219.393 390.602 219.329 390.309C219.255 389.963 219.474 389.631 219.816 389.554L236.337 386.025C236.676 385.964 237.016 386.172 237.089 386.511C237.162 386.857 236.943 387.196 236.602 387.266L220.08 390.795C220.036 390.802 219.991 390.81 219.946 390.81Z" fill="black"/>
<path d="M397.237 509.535C397.017 509.535 396.802 509.418 396.685 509.212C396.514 508.907 396.621 508.521 396.927 508.35L406.945 502.71C407.241 502.536 407.633 502.644 407.806 502.951C407.979 503.255 407.871 503.641 407.565 503.812L397.546 509.452C397.449 509.508 397.344 509.535 397.237 509.535Z" fill="#FFBA60"/>
<path d="M468.421 508.865C467.753 510.406 412.971 546.329 388.064 562.612C382.131 566.476 374.449 565.579 369.551 560.818L462.073 499.712C466.305 503.208 468.972 507.623 468.421 508.865Z" fill="#FFBA60"/>
<path d="M172.275 309.838L174.545 325.001C174.545 325.001 177.932 328.946 186.91 328.345C193.597 327.891 195.696 326.049 195.696 326.049L193.624 318.506L191.596 311.155L175.052 310.03L172.275 309.838Z" fill="#FFBC80"/>
<path d="M175.051 310.031C175.151 310.439 175.382 310.901 175.71 311.425C180.237 318.491 189.757 318.737 193.624 318.506L191.595 311.156L175.051 310.031Z" fill="black"/>
<path d="M189.801 276.09C189.801 276.09 200.604 293.911 199.049 304.937C197.493 315.971 187.582 315.593 181.51 314.314C175.44 313.035 172.273 309.845 172.273 309.845C172.273 309.845 167.104 312.403 162.81 307.857C158.514 303.304 159.97 297.225 162.884 295.483C165.798 293.742 169.773 295.483 169.773 295.483L166.155 290.375C166.155 290.375 174.534 260.795 189.801 276.09Z" fill="#FFBC80"/>
<path d="M192.072 300.282C191.617 300.213 191.387 299.882 191.448 299.543C192.08 295.937 189.001 292.5 188.97 292.47C188.734 292.208 188.754 291.807 189.011 291.576C189.271 291.337 189.671 291.36 189.905 291.614C190.05 291.776 193.436 295.536 192.694 299.758C192.641 300.067 192.373 300.282 192.072 300.282Z" fill="black"/>
<path d="M170.021 304.497C169.878 304.497 169.736 304.451 169.618 304.359L163.78 299.558C163.509 299.335 163.471 298.934 163.693 298.665C163.917 298.395 164.316 298.364 164.584 298.58L170.422 303.38C170.693 303.604 170.731 303.996 170.51 304.266C170.384 304.42 170.203 304.497 170.021 304.497Z" fill="black"/>
<path d="M164.387 303.734C164.111 303.734 163.857 303.549 163.778 303.272C163.683 302.933 163.878 302.586 164.214 302.486L167.706 301.5C168.041 301.407 168.392 301.6 168.488 301.931C168.583 302.27 168.388 302.617 168.052 302.717L164.561 303.711C164.502 303.727 164.444 303.734 164.387 303.734Z" fill="black"/>
<path d="M179.242 287.277C179.093 287.277 178.943 287.223 178.823 287.123C178.561 286.892 178.537 286.491 178.768 286.229C180.549 284.21 183.091 284.441 183.2 284.457C183.548 284.488 183.798 284.804 183.764 285.15C183.731 285.497 183.429 285.736 183.074 285.713C182.989 285.705 181.055 285.551 179.718 287.061C179.592 287.207 179.418 287.277 179.242 287.277Z" fill="black"/>
<path d="M189.009 284.156C188.908 284.156 188.807 284.133 188.713 284.079C188.404 283.917 188.285 283.54 188.448 283.224C188.94 282.291 189.634 281.968 190.128 281.852C191.574 281.529 193.004 282.569 193.164 282.684C193.444 282.9 193.5 283.293 193.291 283.57C193.084 283.856 192.689 283.909 192.406 283.701C192.098 283.478 191.141 282.923 190.404 283.085C190.058 283.17 189.784 283.409 189.569 283.817C189.455 284.033 189.236 284.156 189.009 284.156Z" fill="black"/>
<path d="M182.591 294.311C182.308 294.311 182.051 294.119 181.977 293.833L181.079 290.359C181.039 290.204 181.059 290.043 181.135 289.904L182.312 287.731C182.48 287.423 182.866 287.315 183.171 287.477C183.478 287.639 183.592 288.024 183.425 288.332L182.367 290.289L183.204 293.518C183.292 293.857 183.087 294.203 182.749 294.288C182.695 294.303 182.642 294.311 182.591 294.311Z" fill="black"/>
<path d="M192.962 292.138C192.684 292.138 192.43 291.954 192.352 291.676L191.387 288.217C191.347 288.078 191.358 287.924 191.42 287.785L192.385 285.651C192.529 285.335 192.909 285.196 193.222 285.335C193.541 285.481 193.682 285.859 193.538 286.175L192.667 288.101L193.571 291.329C193.665 291.668 193.469 292.023 193.132 292.115C193.075 292.131 193.017 292.138 192.962 292.138Z" fill="black"/>
<path d="M170.524 298.356C170.524 298.356 175.66 294.411 177.192 289.696C178.725 284.988 177.44 280.966 177.44 280.966C177.44 280.966 181.355 282.823 186.289 281.305C191.224 279.795 193.276 274.224 191.706 270.441C190.924 268.553 187.46 269.84 187.46 269.84C187.46 269.84 183.006 265.633 176.742 267.459C170.479 269.285 169.432 273.3 169.432 273.3C169.432 273.3 164.283 274.009 160.868 277.383C157.452 280.758 158.33 286.56 158.33 286.56C158.33 286.56 155.54 288.625 155.92 291.699C156.3 294.774 160.214 300.098 160.214 300.098C160.214 300.098 163.65 293.009 170.524 298.356Z" fill="black"/>
<path d="M194.426 304.251C194.358 304.251 194.288 304.243 194.219 304.212C193.889 304.104 193.714 303.742 193.828 303.411L194.722 300.822C194.836 300.491 195.198 300.321 195.527 300.429C195.856 300.545 196.032 300.907 195.918 301.238L195.024 303.827C194.934 304.089 194.688 304.251 194.426 304.251Z" fill="black"/>
<path d="M181.189 329.717C181.346 329.717 181.498 329.771 181.614 329.879C181.678 329.933 188.062 335.688 191.872 334.941C192.654 334.787 193.239 334.402 193.662 333.77C194.913 331.89 194.259 328.569 194.251 328.531C194.189 328.23 194.36 327.922 194.652 327.814C194.947 327.706 195.273 327.829 195.425 328.099C195.434 328.114 196.324 329.686 197.537 330.01C197.985 330.125 198.424 330.048 198.872 329.779C199.007 329.694 199.166 329.571 199.159 329.455C199.124 328.816 197.378 327.575 195.679 326.743C184.352 331.543 177.42 327.922 175.032 326.211C174.679 329.563 174.886 332.992 175.901 333.338C177.414 333.847 179.923 331.019 180.676 329.979C180.78 329.833 180.944 329.733 181.123 329.717C181.146 329.717 181.166 329.717 181.189 329.717ZM191.184 336.266C187.509 336.266 182.832 332.583 181.28 331.266C180.262 332.529 177.715 335.296 175.488 334.533C172.806 333.616 173.709 326.358 173.918 324.909C173.952 324.67 174.116 324.478 174.341 324.401C174.566 324.324 174.817 324.385 174.987 324.547C175.271 324.824 182.101 331.243 195.443 325.472C195.609 325.402 195.797 325.402 195.961 325.479C196.983 325.957 200.328 327.644 200.423 329.386C200.445 329.794 200.309 330.387 199.53 330.857C198.778 331.32 197.999 331.443 197.208 331.235C196.629 331.081 196.118 330.757 195.694 330.387C195.707 331.659 195.525 333.254 194.717 334.471C194.106 335.388 193.231 335.958 192.117 336.182C191.816 336.243 191.503 336.266 191.184 336.266Z" fill="#FFBC80"/>
<path d="M128.091 401.681C128.091 401.681 127.386 425.063 148.909 428.837C170.432 432.611 211.734 404.867 211.734 404.867L205.701 381.879L158.572 391.179L128.091 401.681Z" fill="#FFBC80"/>
<path d="M164.039 380.37C162.471 380.37 161.41 384.469 160.957 388.36C163.063 384.869 164.729 381.31 164.277 380.447C164.263 380.424 164.23 380.377 164.039 380.37ZM160.113 391.511C160.048 391.511 159.981 391.503 159.915 391.48C159.645 391.388 159.467 391.133 159.481 390.848C159.574 388.884 160.238 379.106 164.038 379.106C164.677 379.114 165.147 379.383 165.397 379.861C166.544 382.042 162.046 389.115 160.639 391.226C160.521 391.411 160.32 391.511 160.113 391.511Z" fill="#50447E"/>
<path d="M70 529.848C70 529.848 84.8252 535.366 102.035 540.562C111.669 543.458 122.078 546.241 131.02 547.908C135.986 548.796 140.496 549.368 144.184 549.394C166.444 549.555 173.01 548.6 173.01 548.6L184.595 550.316L177.662 543.649L184.252 542.69L180.776 533.933L191.801 532.328L182.063 527.656L190.692 524.71L179.877 517.918C179.877 517.918 169.548 516.044 157.596 513.742C147.911 511.902 137.16 509.758 129.933 508.098C129.775 508.069 129.617 508.041 129.484 508.009C113.468 504.329 91.114 507.737 91.114 507.737L101.396 512.099L79.0957 515.347L88.4681 519.789L74.6869 521.797L80.8101 527.123L70 529.848Z" fill="#889782"/>
<path d="M102.035 540.562C111.669 543.459 122.078 546.241 131.021 547.908L157.596 513.742C147.911 511.902 137.16 509.758 129.933 508.098L102.035 540.562Z" fill="#F0CBA5"/>
<path d="M222.983 529.502C222.983 529.502 222.139 519.977 217.918 518.258C213.698 516.539 205.258 509.276 203.57 512.063C201.882 514.851 203.57 527.184 203.57 527.184C203.57 527.184 191.8 516.055 188.4 522.205C185.001 528.356 188.4 534.828 188.4 534.828C188.4 534.828 184.558 543.158 186.89 547.573C189.222 551.988 204.561 552.523 204.561 552.523L213.698 545.1L226.359 547.573C226.359 547.573 233.955 540.565 233.955 537.414C233.955 534.264 222.983 529.502 222.983 529.502Z" fill="white"/>
<path d="M210.045 541.9C209.752 541.853 209.601 541.732 209.527 541.565L203.048 527.422C202.917 527.135 203.042 526.795 203.331 526.664C203.612 526.528 203.955 526.657 204.087 526.946L210.238 540.377L222.596 529.081C222.831 528.868 223.19 528.883 223.403 529.117C223.616 529.35 223.6 529.711 223.367 529.924L210.431 541.749C210.325 541.847 210.186 541.9 210.045 541.9Z" fill="#DDD7E0"/>
<path d="M186.139 454.379C185.911 454.379 185.691 454.255 185.579 454.04C185.416 453.731 185.535 453.348 185.844 453.186C191.842 450.038 191.177 439.049 191.17 438.938C191.146 438.59 191.411 438.288 191.759 438.265C192.101 438.234 192.41 438.505 192.433 438.855C192.465 439.339 193.153 450.78 186.433 454.305C186.339 454.355 186.239 454.379 186.139 454.379Z" fill="#889782"/>
<path d="M348.175 511.88C348.015 511.88 347.854 511.819 347.732 511.7C347.23 511.206 297.408 462.39 289.635 458.24C285.687 456.131 264.01 463.13 244.883 469.301C225.685 475.495 209.107 480.843 205.007 479.411C196.595 476.466 188.736 452.39 188.406 451.367C188.299 451.034 188.481 450.678 188.814 450.57C189.144 450.466 189.504 450.647 189.61 450.978C189.689 451.223 197.603 475.477 205.424 478.217C209.105 479.501 227.101 473.707 244.495 468.096C265.742 461.24 285.823 454.764 290.231 457.122C298.163 461.359 346.562 508.778 348.618 510.794C348.868 511.039 348.872 511.441 348.627 511.69C348.502 511.817 348.339 511.88 348.175 511.88Z" fill="#889782"/>
<path d="M339.572 518.608C339.384 518.608 339.199 518.525 339.074 518.364C338.858 518.089 338.908 517.692 339.183 517.477L381.202 484.615C381.475 484.398 381.875 484.447 382.089 484.724C382.305 484.999 382.256 485.397 381.98 485.612L339.962 518.473C339.847 518.565 339.71 518.608 339.572 518.608Z" fill="#889782"/>
<path d="M204.57 416.783C204.184 416.783 203.781 416.715 203.368 416.576C198.084 414.809 202.088 387.281 202.944 381.78C202.997 381.433 203.325 381.194 203.667 381.248C204.012 381.31 204.248 381.626 204.195 381.972C202.135 395.21 200.64 414.329 203.769 415.375C204.482 415.615 205.101 415.547 205.659 415.171C207.776 413.743 208.549 408.36 208.669 406.406C208.692 406.058 208.999 405.781 209.339 405.813C209.689 405.833 209.954 406.135 209.932 406.483C209.914 406.796 209.43 414.155 206.367 416.221C205.811 416.595 205.21 416.783 204.57 416.783Z" fill="white"/>
<path d="M209.003 413.989C208.732 413.989 208.452 413.933 208.168 413.82C202.372 411.516 204.777 384.846 205.07 381.818C205.105 381.471 205.446 381.232 205.761 381.248C206.109 381.279 206.364 381.594 206.331 381.941C205.258 393.029 204.937 411.173 208.636 412.643C209.014 412.795 209.231 412.703 209.375 412.602C210.631 411.751 211.1 407.405 211.1 404.867C211.1 404.517 211.383 404.232 211.732 404.232C212.082 404.232 212.366 404.517 212.366 404.867C212.366 405.607 212.302 412.147 210.086 413.65C209.753 413.876 209.388 413.989 209.003 413.989Z" fill="#FCAD4F"/>
<path d="M161.48 409.363L298.063 401.996C300.603 401.859 302.55 399.624 302.409 397L302.329 395.522C302.187 392.888 300.011 390.875 297.47 391.012L160.888 398.379C158.345 398.517 156.399 400.752 156.541 403.386L156.621 404.864C156.762 407.488 158.938 409.501 161.48 409.363Z" fill="#BDB2C2"/>
<path d="M193.822 407.619L294.795 402.173L320.133 335.711L223.142 340.943C220.721 341.074 218.606 342.619 217.746 344.874L193.822 407.619Z" fill="#DDD7E0"/>
<path d="M202.809 407.134L303.522 401.702L326.068 342.389C327.349 339.033 324.737 335.463 321.136 335.657L228.072 340.677L202.809 407.134Z" fill="#CCC5D6"/>
<path d="M255.98 371.719C256.233 376.408 260.237 380.002 264.925 379.749C269.613 379.496 273.208 375.492 272.955 370.803C272.702 366.115 268.697 362.521 264.01 362.773C259.321 363.026 255.727 367.03 255.98 371.719Z" fill="white"/>
<path d="M529.219 309.777L532.408 296.048L508.001 295.803L498.087 311.456L513.758 376.086L529.219 309.777Z" fill="#889782"/>
<path d="M535.012 614.642C535.013 618.36 533.825 623.411 532.323 626.483C529.452 632.345 530.34 636.557 532.216 638.202C535.146 640.781 557.742 640.415 559.922 638.184C561.665 636.406 563.366 632.088 560.488 626.231C558.982 623.166 557.757 618.671 557.756 615.212" fill="#473533"/>
<path d="M510.778 616.672C510.778 616.672 510.935 619.821 510.783 621.439C510.678 622.547 511.85 629.778 512.593 634.178C512.929 636.169 512.237 637.629 510.658 637.715C503.367 638.108 482.438 639.215 477.888 639.218C472.355 639.22 467.101 638.848 466.122 636.686C464.661 633.454 466.988 627.447 478.035 624.067C483.569 622.372 485.236 615.487 485.237 616.683L510.778 616.672Z" fill="#473533"/>
<path d="M518.751 462.659C521.506 486.176 534.065 609.469 534.549 611.977C535.037 614.484 561.649 614.527 561.676 611.829C562.103 567.973 555.358 455.909 553.436 407.877C553.436 407.877 518.328 408.179 479.784 408.637C477.9 443.462 478.94 514.906 479.127 530.848C479.317 546.791 486.195 601.691 488.192 611.394C488.192 611.394 491.415 613.537 500.781 613.534C510.661 613.533 513.369 611.098 513.369 611.098C513.369 611.098 509.513 569.788 509.453 525.651L515.947 462.396L518.751 462.659Z" fill="#F9F2E2"/>
<path d="M529.531 267.127C526.717 273.223 528.142 297.282 528.426 297.97C528.426 297.97 524.359 305.072 514.535 305.183C504.711 305.294 505.339 297.388 505.339 297.388C505.339 297.388 507.117 288.582 505.695 282.23L529.531 267.127Z" fill="#FFBC80"/>
<path d="M506.132 287.194L522.051 276.906C522.051 276.906 522.977 287.925 505.924 291.062L506.132 287.194Z" fill="#ED906B"/>
<path d="M415.001 272.662L459.501 284.277L464.982 290.958" stroke="black" stroke-width="2" stroke-miterlimit="10" stroke-linecap="round"/>
<path d="M439.803 301.337C437.659 293.04 441.374 283.799 441.374 283.799C441.374 283.799 440.077 281.596 440.927 280.023C441.347 279.247 442.105 278.583 444.668 279.218C444.046 274.805 433.59 270.888 428.121 275.426C422.06 281.266 426.895 293.025 426.816 294.363C426.646 297.258 433.67 336.604 433.67 336.604L444.668 321.304C444.668 321.304 440.911 308.351 439.803 301.337Z" fill="#FFBC80"/>
<path d="M476.77 337.498C477.559 356.781 480.272 410.777 479.079 426.591C478.985 427.827 555.97 426.306 555.944 425.829C554.128 396.268 552.966 332.827 559.137 329.515L554.19 306.854C549.709 302.145 535.941 300.099 532.413 296.047C527.028 299.765 517.382 343.755 513.686 369.253C507.897 340.041 505.311 296.146 505.311 296.146C495.229 296.859 484.952 304.315 476.468 310.749L476.769 337.498L476.77 337.498Z" fill="#889782"/>
<path d="M485.61 305.06L450.842 326.7C450.842 326.7 449.418 324.602 447.885 320.635C447.608 319.919 448.423 317.998 448.115 317.186C447.482 315.525 446.106 314.487 445.374 312.498C443.482 307.362 428.286 323.831 430.618 329.679C431.152 331.018 431.015 333.188 431.456 334.334C431.742 335.072 433.644 335.042 433.895 335.705C437.904 346.324 438.672 350.293 442.011 351.981C447.697 354.856 483.494 336.815 483.494 336.815C487.547 338.96 486.214 335.762 491.252 327.591C495.032 321.459 491.438 315.132 488.802 312.513C486.172 309.895 485.61 305.06 485.61 305.06Z" fill="#889782"/>
<path d="M439.175 294.363C439.516 290.992 447.51 285.926 447.013 282.011C446.516 278.095 441.856 283.159 440.178 284.837C436.532 288.487 439.175 294.363 439.175 294.363Z" fill="#FFBC80"/>
<path d="M464.104 290.72C464.295 295.378 468.223 298.999 472.882 298.808C477.54 298.617 481.16 294.686 480.969 290.032L464.104 290.72Z" fill="black" stroke="black" stroke-width="2" stroke-miterlimit="10" stroke-linecap="round"/>
<path d="M494.506 256.019C493.805 266.441 501.687 275.457 512.11 276.158C522.533 276.859 531.55 268.977 532.251 258.554C532.952 248.132 525.07 239.115 514.647 238.414C504.223 237.713 495.207 245.594 494.506 256.019Z" fill="#FFBC80"/>
<path d="M494.512 256.018C493.736 266.167 495.821 283.905 500.406 286.399C504.989 288.894 518.827 285.379 521.178 279.314C523.527 273.248 526.355 262.531 526.355 262.531" fill="#FFBC80"/>
<path d="M495.215 263.767C495.215 263.767 491.767 272.382 492.423 273.309C493.078 274.235 496.957 274.3 496.957 274.3" fill="#FFBC80"/>
<path d="M496.145 277.418C496.145 277.418 498.974 277.803 501.239 277.277C501.976 277.105 502.493 276.872 501.747 278.034C500.842 279.448 498.932 280.078 496.747 280.103L496.145 277.418Z" fill="white"/>
<path d="M500.439 264.79C500.454 266.083 501.153 267.124 501.999 267.115C502.847 267.105 503.521 266.049 503.507 264.755C503.492 263.461 502.793 262.421 501.947 262.43C501.1 262.441 500.425 263.497 500.439 264.79Z" fill="black"/>
<path d="M500.886 259.017C500.88 259.021 501.015 259.001 501.175 259.012C501.332 258.999 501.579 259.027 501.872 259.037C502.015 259.029 502.172 259.07 502.334 259.083C502.497 259.107 502.667 259.106 502.838 259.146C503.176 259.246 503.549 259.258 503.885 259.421C504.057 259.485 504.233 259.535 504.406 259.588C504.569 259.671 504.729 259.752 504.883 259.831C505.039 259.912 505.195 259.982 505.348 260.045C505.503 260.101 505.614 260.222 505.744 260.293C506.234 260.611 506.627 260.799 506.627 260.799L506.73 260.848C506.984 260.97 507.288 260.862 507.41 260.608C507.487 260.445 507.469 260.258 507.381 260.116C507.381 260.116 507.133 259.723 506.664 259.169C506.539 259.038 506.432 258.863 506.254 258.752C506.086 258.627 505.904 258.5 505.708 258.375C505.512 258.254 505.32 258.105 505.097 258.007C504.865 257.927 504.631 257.844 504.395 257.763C504.157 257.69 503.921 257.607 503.675 257.593C503.431 257.572 503.192 257.552 502.96 257.533C502.73 257.509 502.505 257.566 502.296 257.58C502.087 257.603 501.89 257.626 501.714 257.685C501.363 257.777 501.076 257.898 500.87 257.998C500.661 258.092 500.597 258.164 500.59 258.162L500.513 258.235C500.332 258.41 500.328 258.698 500.503 258.879C500.604 258.99 500.75 259.035 500.886 259.017Z" fill="black"/>
<path d="M524.024 267.135C523.631 270.362 521.304 273.284 518.767 273.302C516.594 273.316 518.803 271.313 519.196 268.086C519.589 264.859 517.646 262.606 520.201 262.064C522.954 261.479 524.418 263.907 524.024 267.135Z" fill="#ED906B"/>
<path d="M514.627 267.547L516.898 266.37C516.898 266.37 516.358 259.33 521.43 260.296C526.501 261.261 525.692 273.253 528.014 274.936C530.584 270.046 541.678 255.274 534.514 243.404C531.525 238.916 526.105 240.593 526.105 240.593C526.105 240.593 528.082 229.838 512.268 230.841C502.459 231.465 492.436 238.605 483.904 236.437C483.904 236.437 485.386 253.257 496.724 253.511C506.323 253.728 510.194 248.649 513.307 250.642C516.282 252.547 512.425 259.207 514.627 267.547Z" fill="#473533"/>
<path d="M570.345 442.243C564.915 447.038 566.465 453.391 565.838 457.65C565.413 460.543 563.768 463.808 566.231 462.859C570.65 461.165 569.959 453.86 569.959 453.86C569.959 453.86 571.404 454.563 571.634 456.424C572.034 459.638 568.188 466.291 567.742 469.488C567.267 472.896 574.313 470.003 577.092 466.219C582.24 459.744 582.253 448.354 582.241 447.302C582.217 445.031 579.66 405.106 579.66 405.106L566.261 405.1C566.263 405.099 571.194 441.44 570.345 442.243Z" fill="#FFBC80"/>
<path d="M552.04 352.262C552.04 352.262 556.894 384.52 561.072 412.494C562.287 420.602 588.865 419.452 588.522 411.136C587.965 407.232 587.353 403.251 586.708 399.265C586.543 398.26 582.772 396.695 582.607 395.69C579.188 375.032 575.003 354.667 572.702 344.142C566.595 316.24 554.152 303.462 545.457 302.684C537.94 302.012 552.04 352.262 552.04 352.262Z" fill="#889782"/>
<path d="M528.33 295.966C528.33 295.966 535.625 309.143 535.583 325.712C535.792 328.872 495.639 330.356 495.778 326.839C496.097 315.672 503.157 299.598 505.466 296.082C504.79 295.701 503.058 296.069 502.556 296.507C488.883 314.68 479.877 345.107 477.249 365.041C477.249 365.041 469.149 500.457 469.59 508.888C470.033 517.322 561.254 517.895 561.123 505.591C561.027 496.6 558.342 456.917 556.738 413.291C556.148 397.214 552.482 379.382 549.873 364.696C544.697 335.562 548.063 315.288 531.386 296.104C531.383 296.106 529.775 295.111 528.33 295.966Z" fill="#D5BD99"/>
<g opacity="0.5">
<path d="M533.403 414.337C533.403 414.337 530.359 414.3 525.794 414.246C523.511 414.243 520.848 414.239 517.995 414.234C515.141 414.251 512.099 414.271 509.055 414.288C506.012 414.334 502.969 414.381 500.116 414.423C497.263 414.487 494.601 414.548 492.319 414.6C487.756 414.754 484.712 414.855 484.712 414.855C484.542 414.861 484.409 415.004 484.414 415.173C484.42 415.339 484.555 415.47 484.719 415.473C484.719 415.473 487.763 415.51 492.329 415.566C494.612 415.569 497.274 415.574 500.127 415.577C502.981 415.56 506.024 415.541 509.068 415.522C512.11 415.476 515.153 415.429 518.006 415.387C520.859 415.322 523.521 415.261 525.803 415.209C530.367 415.056 533.41 414.955 533.41 414.955C533.581 414.95 533.714 414.806 533.708 414.637C533.703 414.47 533.566 414.339 533.403 414.337Z" fill="#C1C1C1"/>
</g>
<path d="M533.343 427.491C533.343 427.491 533.343 429.096 533.344 431.903C533.348 434.706 533.261 438.719 532.945 443.483C532.753 445.852 532.519 448.449 531.899 451.01C531.735 451.642 531.539 452.27 531.283 452.827C531.01 453.401 530.734 453.819 530.364 453.972C529.916 454.189 529.23 454.397 528.563 454.538C527.883 454.687 527.171 454.804 526.448 454.903C523.543 455.293 520.457 455.433 517.331 455.57C514.2 455.689 511.009 455.705 507.82 455.7C504.631 455.699 501.439 455.641 498.307 455.503C495.195 455.375 492.051 455.252 489.247 454.775C488.916 454.711 488.558 454.628 488.358 454.552C488.215 454.484 488.401 454.619 488.189 454.439C488.181 454.421 488.095 454.33 488.019 454.211C487.716 453.748 487.468 453.091 487.265 452.45C486.86 451.143 486.586 449.773 486.354 448.438C485.899 445.76 485.585 443.182 485.348 440.799C484.86 436.03 484.567 432.03 484.399 429.231C484.221 426.429 484.119 424.828 484.119 424.828C484.119 424.828 484.022 426.431 483.952 429.241C483.939 430.646 483.923 432.354 483.904 434.311C483.912 436.27 483.906 438.481 484.02 440.894C484.133 443.307 484.265 445.925 484.622 448.698C484.807 450.087 485.025 451.511 485.417 452.987C485.626 453.729 485.844 454.476 486.31 455.276C486.428 455.472 486.564 455.678 486.805 455.935C486.853 456.018 487.333 456.391 487.546 456.448C488.035 456.66 488.413 456.738 488.815 456.833C491.926 457.45 495.008 457.648 498.192 457.868C501.366 458.036 504.585 458.127 507.808 458.159C511.032 458.182 514.255 458.102 517.432 457.96C520.609 457.818 523.734 457.557 526.777 457.07C527.538 456.943 528.295 456.797 529.053 456.608C529.819 456.408 530.555 456.215 531.387 455.752C531.503 455.682 531.648 455.591 531.731 455.527L531.836 455.443L531.889 455.402L531.971 455.332L532.005 455.298C532.195 455.115 532.352 454.923 532.483 454.734C532.746 454.351 532.931 453.974 533.081 453.601C533.381 452.857 533.564 452.136 533.714 451.427C534.277 448.599 534.345 445.967 534.38 443.539C534.428 438.689 534.049 434.681 533.832 431.879C533.578 429.082 533.343 427.491 533.343 427.491Z" fill="#E6CFB0"/>
<path d="M485.465 240.857L496.584 202.618C496.584 202.618 503.91 193.017 515.239 192C515.239 192 525.165 193.228 532.482 202.65L537.14 251.192C537.14 251.192 526.088 234.809 514.275 234.816C502.461 234.823 485.465 240.857 485.465 240.857Z" fill="#F9F2E2"/>
<path d="M493.92 232.891C493.92 232.891 512.185 222.067 514.532 222.066C516.877 222.066 535.26 233.34 535.26 233.34C535.26 233.34 518.273 223.51 514.532 223.512C510.797 223.513 493.92 232.891 493.92 232.891Z" fill="#D5BD99"/>
<path d="M527.765 229.385L529.623 230.522L527.744 204.214L527.765 229.385Z" fill="#D5BD99"/>
<path d="M521.18 224.729L522.108 225.824L521.168 200.456L521.18 224.729Z" fill="#D5BD99"/>
<path d="M514.592 221.862L515.531 223.005L515.106 195.758L514.592 221.862Z" fill="#D5BD99"/>
<path d="M508.014 224.727L507.074 225.824L508.004 200.456L508.014 224.727Z" fill="#D5BD99"/>
<path d="M501.438 228.716L499.559 229.582L501.416 203.275L501.438 228.716Z" fill="#D5BD99"/>
<path d="M271.107 171.209C270.206 191.436 254.248 193.9 247.621 192.114C232.807 221.451 204.768 210.902 196.87 200.064C183.63 212.538 173.477 197.43 176.39 189.786C159.05 192.334 157.755 174.004 165.901 169.459C155.701 160.636 161.813 151.962 166.144 148.728C160.748 135.414 173.946 128.268 179.84 131.105C181.035 111.336 196.967 113.787 203.81 118.224C211.008 87.4956 238.103 101.473 240.297 110.925C245.117 108.416 248.982 112.601 250.312 115.007C262.955 96.6526 285.704 114.635 279.157 129.06C301.952 144.732 286.305 169.046 271.107 171.209Z" fill="white"/>
<path d="M206.151 219.851C208.281 222.833 206.23 229.755 201.763 231.514C197.297 233.273 192.186 230.968 190.531 226.766C188.876 222.564 189.923 218.407 194.216 216.716C198.51 215.025 204.496 215.648 206.151 219.851Z" fill="white"/>
<path d="M196.949 242.582C197.931 244.105 196.891 247.381 194.607 248.28C192.323 249.18 189.893 247.47 189.174 245.643C188.454 243.816 188.733 241.613 191.676 240.837C193.991 239.925 196.463 240.862 196.949 242.582Z" fill="white"/>
<path d="M205.372 148.311L203.497 149.493C203.172 149.138 202.816 148.87 202.428 148.689C202.04 148.508 201.637 148.401 201.218 148.368C200.8 148.335 200.381 148.376 199.96 148.49C199.543 148.602 199.139 148.781 198.746 149.028C198.037 149.475 197.515 150.054 197.179 150.764C196.847 151.471 196.736 152.272 196.846 153.165C196.959 154.056 197.329 154.998 197.956 155.992C198.587 156.993 199.28 157.737 200.035 158.224C200.793 158.708 201.564 158.95 202.347 158.949C203.13 158.948 203.872 158.727 204.573 158.285C204.962 158.04 205.297 157.755 205.58 157.432C205.864 157.101 206.083 156.742 206.236 156.355C206.389 155.967 206.469 155.561 206.476 155.137C206.484 154.707 206.403 154.271 206.232 153.831L208.11 152.655C208.391 153.323 208.548 154.002 208.58 154.692C208.614 155.376 208.523 156.044 208.306 156.695C208.091 157.34 207.761 157.943 207.314 158.505C206.868 159.066 206.306 159.56 205.629 159.987C204.564 160.658 203.455 161.004 202.304 161.025C201.15 161.041 200.035 160.728 198.959 160.086C197.886 159.441 196.937 158.464 196.111 157.154C195.283 155.841 194.813 154.562 194.7 153.317C194.585 152.069 194.784 150.93 195.299 149.9C195.812 148.866 196.599 148.015 197.66 147.346C198.313 146.934 198.981 146.644 199.665 146.477C200.35 146.302 201.032 146.253 201.712 146.328C202.389 146.399 203.039 146.6 203.661 146.929C204.281 147.255 204.851 147.716 205.372 148.311ZM215.498 153.816C214.913 154.185 214.316 154.41 213.707 154.491C213.095 154.569 212.52 154.487 211.981 154.244C211.446 154 210.988 153.575 210.607 152.97C210.279 152.449 210.109 151.957 210.097 151.495C210.085 151.032 210.187 150.595 210.404 150.184C210.621 149.773 210.908 149.385 211.265 149.02C211.623 148.655 212.003 148.309 212.407 147.981C212.92 147.569 213.335 147.234 213.655 146.977C213.971 146.716 214.177 146.488 214.273 146.293C214.369 146.098 214.348 145.893 214.212 145.677L214.185 145.635C213.855 145.11 213.45 144.797 212.972 144.695C212.498 144.591 211.97 144.722 211.389 145.088C210.785 145.47 210.393 145.904 210.213 146.392C210.035 146.874 209.983 147.318 210.055 147.726L208.124 148.406C207.971 147.719 207.978 147.082 208.146 146.495C208.314 145.902 208.602 145.368 209.008 144.893C209.412 144.415 209.892 144 210.449 143.649C210.817 143.417 211.236 143.215 211.704 143.043C212.173 142.865 212.66 142.776 213.165 142.777C213.673 142.776 214.177 142.914 214.677 143.192C215.175 143.466 215.636 143.94 216.06 144.613L219.923 150.741L218.169 151.847L217.373 150.585L217.301 150.63C217.331 150.936 217.301 151.274 217.21 151.645C217.119 152.016 216.938 152.39 216.667 152.768C216.396 153.146 216.006 153.495 215.498 153.816ZM214.979 152.128C215.476 151.815 215.839 151.449 216.067 151.03C216.3 150.609 216.409 150.183 216.394 149.75C216.38 149.311 216.258 148.909 216.028 148.545L215.278 147.355C215.255 147.46 215.168 147.598 215.02 147.77C214.872 147.936 214.695 148.112 214.488 148.298C214.278 148.481 214.073 148.658 213.873 148.829C213.671 148.996 213.502 149.136 213.366 149.249C213.045 149.513 212.774 149.788 212.551 150.074C212.332 150.357 212.198 150.651 212.15 150.956C212.103 151.254 212.18 151.564 212.382 151.884C212.663 152.329 213.039 152.562 213.511 152.583C213.981 152.6 214.47 152.448 214.979 152.128ZM220.658 142.621L224.112 148.1L222.316 149.232L216.498 140.004L218.222 138.917L219.169 140.419L219.284 140.347C219.188 139.725 219.273 139.122 219.539 138.541C219.808 137.956 220.29 137.446 220.983 137.009C221.611 136.613 222.245 136.398 222.885 136.364C223.522 136.327 224.133 136.484 224.719 136.837C225.305 137.189 225.838 137.746 226.318 138.507L230.018 144.377L228.222 145.509L224.658 139.856C224.236 139.187 223.732 138.774 223.146 138.617C222.558 138.456 221.96 138.568 221.351 138.952C220.934 139.214 220.62 139.538 220.41 139.923C220.203 140.305 220.115 140.73 220.147 141.197C220.179 141.657 220.35 142.132 220.658 142.621ZM226.215 129.58L226.942 130.734C227.157 131.074 227.318 131.473 227.428 131.93C227.538 132.381 227.588 132.851 227.577 133.339C227.566 133.827 227.484 134.293 227.332 134.736L226.042 134.659C226.061 134.166 226.034 133.671 225.961 133.174C225.893 132.674 225.711 132.19 225.415 131.721L224.677 130.55L226.215 129.58ZM234.553 128.623L235.462 130.065L230.421 133.242L229.512 131.8L234.553 128.623ZM229.47 128.737L231.266 127.605L236.769 136.334C236.989 136.683 237.207 136.912 237.422 137.023C237.634 137.13 237.843 137.163 238.048 137.124C238.254 137.078 238.455 136.993 238.651 136.869C238.796 136.778 238.915 136.689 239.011 136.601C239.106 136.512 239.18 136.443 239.233 136.393L240.493 137.673C240.414 137.779 240.291 137.912 240.124 138.073C239.96 138.239 239.734 138.414 239.448 138.6C238.981 138.906 238.487 139.1 237.968 139.181C237.448 139.262 236.946 139.198 236.461 138.989C235.977 138.779 235.559 138.396 235.208 137.839L229.47 128.737ZM217.997 180.578C217.252 181.047 216.467 181.276 215.642 181.264C214.819 181.246 214.018 180.987 213.238 180.488C212.46 179.982 211.757 179.23 211.128 178.233C210.5 177.235 210.128 176.278 210.014 175.359C209.903 174.438 210.022 173.605 210.369 172.86C210.717 172.115 211.261 171.508 212.002 171.041C212.575 170.68 213.096 170.486 213.565 170.459C214.037 170.425 214.448 170.473 214.799 170.604C215.154 170.733 215.447 170.859 215.676 170.983L215.784 170.915L212.902 166.343L214.698 165.211L222.455 177.515L220.701 178.621L219.796 177.185L219.645 177.28C219.661 177.544 219.646 177.867 219.601 178.248C219.56 178.627 219.422 179.021 219.189 179.432C218.955 179.842 218.557 180.224 217.997 180.578ZM217.427 178.796C217.944 178.47 218.295 178.059 218.48 177.561C218.666 177.058 218.697 176.504 218.573 175.899C218.454 175.291 218.189 174.663 217.78 174.015C217.376 173.374 216.93 172.871 216.443 172.506C215.956 172.142 215.449 171.938 214.924 171.894C214.398 171.851 213.873 171.994 213.348 172.325C212.808 172.666 212.445 173.09 212.262 173.598C212.078 174.105 212.047 174.66 212.168 175.26C212.293 175.859 212.548 176.462 212.932 177.071C213.32 177.688 213.762 178.184 214.257 178.561C214.752 178.938 215.27 179.156 215.813 179.217C216.356 179.272 216.895 179.132 217.427 178.796ZM229.114 173.578C228.205 174.151 227.299 174.45 226.397 174.476C225.497 174.495 224.645 174.262 223.842 173.778C223.04 173.287 222.337 172.563 221.734 171.606C221.138 170.661 220.789 169.717 220.687 168.773C220.589 167.828 220.731 166.952 221.113 166.146C221.498 165.337 222.12 164.663 222.977 164.123C223.498 163.794 224.057 163.562 224.654 163.426C225.251 163.291 225.86 163.285 226.481 163.408C227.102 163.532 227.71 163.817 228.306 164.265C228.898 164.708 229.459 165.348 229.987 166.185L230.388 166.822L223.052 171.447L222.204 170.101L227.779 166.586C227.481 166.113 227.121 165.755 226.699 165.512C226.275 165.265 225.821 165.145 225.339 165.152C224.861 165.157 224.389 165.306 223.925 165.599C223.42 165.917 223.058 166.319 222.838 166.805C222.619 167.284 222.533 167.786 222.578 168.311C222.626 168.83 222.794 169.32 223.085 169.781L223.748 170.832C224.136 171.449 224.575 171.905 225.064 172.202C225.557 172.495 226.072 172.633 226.609 172.613C227.142 172.59 227.672 172.413 228.196 172.083C228.537 171.868 228.817 171.624 229.037 171.351C229.254 171.074 229.403 170.773 229.484 170.448C229.564 170.123 229.568 169.783 229.494 169.426L231.387 168.661C231.567 169.247 231.599 169.84 231.484 170.438C231.37 171.031 231.115 171.597 230.717 172.139C230.321 172.674 229.787 173.154 229.114 173.578ZM237.763 168.15C237.179 168.519 236.582 168.744 235.973 168.826C235.361 168.904 234.786 168.821 234.247 168.579C233.712 168.334 233.254 167.909 232.873 167.304C232.544 166.784 232.374 166.292 232.363 165.829C232.351 165.367 232.453 164.93 232.67 164.519C232.887 164.108 233.174 163.72 233.531 163.355C233.889 162.989 234.269 162.643 234.673 162.316C235.185 161.903 235.601 161.568 235.92 161.311C236.237 161.05 236.443 160.822 236.539 160.628C236.634 160.433 236.614 160.227 236.478 160.011L236.451 159.969C236.12 159.444 235.716 159.131 235.238 159.03C234.764 158.926 234.236 159.057 233.655 159.423C233.051 159.804 232.658 160.239 232.479 160.727C232.301 161.208 232.249 161.653 232.321 162.061L230.39 162.74C230.237 162.053 230.244 161.416 230.411 160.83C230.58 160.236 230.868 159.702 231.274 159.228C231.678 158.75 232.158 158.335 232.715 157.984C233.083 157.752 233.502 157.55 233.97 157.378C234.439 157.199 234.926 157.11 235.431 157.111C235.939 157.11 236.443 157.248 236.943 157.526C237.441 157.801 237.901 158.274 238.326 158.947L242.189 165.075L240.434 166.181L239.639 164.92L239.567 164.965C239.597 165.271 239.567 165.609 239.476 165.979C239.385 166.35 239.204 166.725 238.933 167.103C238.662 167.48 238.272 167.83 237.763 168.15ZM237.245 166.462C237.742 166.149 238.104 165.783 238.333 165.365C238.566 164.944 238.675 164.517 238.659 164.085C238.646 163.646 238.524 163.244 238.294 162.879L237.544 161.69C237.521 161.794 237.434 161.932 237.285 162.105C237.138 162.27 236.961 162.447 236.754 162.633C236.544 162.816 236.339 162.992 236.139 163.163C235.937 163.33 235.767 163.47 235.632 163.584C235.311 163.847 235.039 164.122 234.817 164.408C234.598 164.692 234.464 164.986 234.416 165.291C234.369 165.589 234.446 165.898 234.648 166.219C234.929 166.663 235.305 166.896 235.777 166.917C236.247 166.935 236.736 166.783 237.245 166.462ZM238.621 150.13L246.378 162.434L244.582 163.567L236.825 151.262L238.621 150.13ZM243.303 147.178L248.673 156.043L247.009 157.092L241.326 148.425L243.303 147.178ZM250.146 160.218C249.814 160.428 249.456 160.491 249.074 160.408C248.688 160.32 248.393 160.109 248.187 159.774C247.976 159.448 247.916 159.095 248.006 158.713C248.093 158.328 248.303 158.031 248.635 157.821C248.96 157.617 249.315 157.558 249.7 157.645C250.083 157.729 250.38 157.933 250.591 158.259C250.725 158.482 250.795 158.721 250.799 158.976C250.804 159.224 250.751 159.459 250.639 159.681C250.527 159.903 250.363 160.082 250.146 160.218Z" fill="black"/>
<path d="M597.011 138.385C583.842 153.764 569.753 145.875 565.633 140.386C535.891 154.372 520.302 128.79 520.756 115.387C502.642 117.059 503.95 98.9025 510.953 94.6755C495.724 86.0023 505.995 70.7651 515.212 72.202C512.611 58.9683 522.769 55.9 528.173 56.02C532.123 42.2082 546.922 44.7082 549.817 50.5744C562.936 35.7373 573.978 47.4813 576.635 55.1924C601.233 35.4186 613.968 63.1194 609.873 71.9174C615.217 72.9096 615.683 78.5869 615.248 81.3015C636.514 74.6306 643.359 102.81 629.315 110.14C637.619 136.527 610.316 146.042 597.011 138.385Z" fill="white"/>
<path d="M542.613 157.446C544.266 160.717 541.191 167.248 536.51 168.311C531.829 169.373 527.126 166.321 526.126 161.916C525.126 157.512 526.79 153.562 531.29 152.541C535.791 151.519 541.613 153.041 542.613 157.446Z" fill="white"/>
<path d="M530.076 178.521C530.816 180.176 529.292 183.257 526.898 183.8C524.505 184.343 522.362 182.286 521.927 180.371C521.493 178.456 522.102 176.32 525.128 175.998C527.555 175.447 529.856 176.748 530.076 178.521Z" fill="white"/>
<path d="M582.287 80.3711L575.277 93.1157L573.51 92.1435L572.173 79.2333L572.055 79.1682L566.913 88.5151L564.991 87.4574L572.001 74.7128L573.781 75.6918L575.117 88.6179L575.235 88.6829L580.383 79.3236L582.287 80.3711ZM581.853 96.9841C580.957 96.4912 580.288 95.8556 579.846 95.0775C579.404 94.2994 579.201 93.4396 579.238 92.498C579.275 91.5564 579.565 90.592 580.108 89.6046C580.654 88.6131 581.315 87.8476 582.093 87.3081C582.871 86.7686 583.706 86.4772 584.6 86.4338C585.494 86.3905 586.389 86.6153 587.285 87.1083C588.181 87.6012 588.85 88.2367 589.292 89.0148C589.734 89.7929 589.936 90.6549 589.896 91.6006C589.857 92.5463 589.565 93.5149 589.02 94.5064C588.476 95.4938 587.817 96.2551 587.042 96.7905C586.266 97.3259 585.432 97.6152 584.538 97.6585C583.644 97.7018 582.749 97.477 581.853 96.9841ZM582.718 95.4255C583.299 95.745 583.865 95.8562 584.415 95.7592C584.966 95.6621 585.473 95.4087 585.936 94.9988C586.403 94.5912 586.806 94.0804 587.144 93.4664C587.479 92.8566 587.694 92.2452 587.788 91.6322C587.888 91.0174 587.833 90.4494 587.623 89.9283C587.412 89.4072 587.016 88.9869 586.436 88.6674C585.851 88.3457 585.28 88.2342 584.723 88.3332C584.17 88.4344 583.659 88.6908 583.189 89.1026C582.726 89.5124 582.326 90.0223 581.991 90.6321C581.653 91.2461 581.435 91.8585 581.337 92.4692C581.243 93.0821 581.303 93.6471 581.515 94.164C581.732 94.6833 582.133 95.1038 582.718 95.4255ZM533.484 97.5181L535.929 86.4124L537.852 87.4701L535.864 95.5199L535.957 95.5713L541.698 89.5856L543.621 90.6433L541.644 98.6586L541.737 98.7099L547.442 92.745L549.365 93.8028L541.3 101.817L539.402 100.773L541.257 92.8041L541.114 92.7254L535.376 98.5587L533.484 97.5181ZM549.502 106.58C548.606 106.087 547.937 105.452 547.495 104.674C547.053 103.895 546.85 103.036 546.887 102.094C546.924 101.152 547.214 100.188 547.757 99.2006C548.303 98.2091 548.964 97.4436 549.742 96.9041C550.52 96.3646 551.355 96.0732 552.249 96.0299C553.143 95.9866 554.038 96.2114 554.934 96.7043C555.83 97.1972 556.499 97.8327 556.941 98.6108C557.383 99.389 557.585 100.251 557.545 101.197C557.506 102.142 557.214 103.111 556.668 104.102C556.125 105.09 555.466 105.851 554.691 106.387C553.915 106.922 553.081 107.211 552.187 107.255C551.293 107.298 550.398 107.073 549.502 106.58ZM550.367 105.022C550.948 105.341 551.514 105.452 552.064 105.355C552.615 105.258 553.122 105.005 553.585 104.595C554.052 104.187 554.455 103.676 554.793 103.062C555.128 102.453 555.343 101.841 555.437 101.228C555.537 100.613 555.482 100.045 555.272 99.5243C555.061 99.0032 554.665 98.5829 554.085 98.2634C553.5 97.9417 552.929 97.8302 552.372 97.9292C551.819 98.0304 551.308 98.2868 550.838 98.6986C550.375 99.1084 549.975 99.6183 549.64 100.228C549.302 100.842 549.084 101.454 548.986 102.065C548.892 102.678 548.952 103.243 549.164 103.76C549.381 104.279 549.782 104.7 550.367 105.022ZM556.14 109.981L561.398 100.422L563.197 101.411L562.361 102.93L562.461 102.985C562.918 102.566 563.448 102.33 564.05 102.278C564.658 102.223 565.242 102.35 565.802 102.658C565.918 102.722 566.053 102.801 566.206 102.896C566.363 102.994 566.484 103.074 566.568 103.136L565.589 104.916C565.526 104.854 565.406 104.758 565.229 104.628C565.054 104.494 564.871 104.375 564.68 104.27C564.24 104.028 563.797 103.906 563.35 103.903C562.909 103.899 562.499 104.005 562.12 104.224C561.743 104.438 561.44 104.752 561.212 105.167L558.001 111.004L556.14 109.981ZM562.866 113.68L568.124 104.122L569.922 105.111L569.087 106.629L569.186 106.684C569.644 106.265 570.173 106.03 570.775 105.977C571.383 105.923 571.967 106.049 572.527 106.357C572.644 106.421 572.778 106.501 572.931 106.596C573.088 106.693 573.209 106.773 573.294 106.836L572.315 108.615C572.251 108.554 572.131 108.458 571.954 108.328C571.779 108.194 571.596 108.074 571.406 107.969C570.966 107.728 570.522 107.605 570.075 107.603C569.635 107.598 569.225 107.705 568.845 107.923C568.468 108.137 568.166 108.451 567.937 108.866L564.727 114.703L562.866 113.68ZM569.591 117.379L574.849 107.821L576.71 108.844L571.452 118.403L569.591 117.379ZM576.6 106.863C576.276 106.685 576.058 106.424 575.944 106.081C575.837 105.735 575.867 105.411 576.033 105.108C576.202 104.801 576.46 104.603 576.807 104.513C577.16 104.42 577.499 104.463 577.822 104.641C578.146 104.819 578.361 105.081 578.468 105.427C578.582 105.77 578.554 106.095 578.386 106.402C578.219 106.705 577.959 106.903 577.606 106.995C577.259 107.085 576.924 107.041 576.6 106.863ZM577.969 122.239C577.027 121.721 576.327 121.073 575.868 120.297C575.415 119.518 575.206 118.66 575.241 117.723C575.282 116.784 575.575 115.818 576.12 114.827C576.659 113.848 577.316 113.085 578.092 112.539C578.872 111.996 579.707 111.696 580.597 111.639C581.492 111.586 582.383 111.803 583.27 112.291C583.81 112.588 584.283 112.965 584.691 113.421C585.099 113.878 585.4 114.408 585.592 115.011C585.785 115.614 585.829 116.284 585.726 117.022C585.625 117.756 585.336 118.556 584.859 119.423L584.497 120.083L576.898 115.903L577.665 114.509L583.44 117.686C583.709 117.196 583.848 116.708 583.857 116.221C583.867 115.73 583.753 115.275 583.513 114.856C583.277 114.44 582.919 114.1 582.437 113.835C581.915 113.548 581.387 113.425 580.856 113.468C580.331 113.509 579.85 113.676 579.412 113.971C578.981 114.263 578.634 114.648 578.372 115.125L577.773 116.214C577.422 116.853 577.235 117.458 577.212 118.029C577.194 118.603 577.323 119.12 577.599 119.58C577.878 120.036 578.289 120.413 578.833 120.712C579.185 120.906 579.534 121.033 579.88 121.093C580.227 121.149 580.562 121.134 580.886 121.047C581.209 120.96 581.509 120.798 581.785 120.561L583.372 121.847C582.946 122.288 582.443 122.603 581.863 122.792C581.29 122.98 580.67 123.03 580.004 122.945C579.344 122.858 578.666 122.622 577.969 122.239ZM595.377 122.152L593.526 121.523C593.574 121.269 593.575 121.002 593.529 120.723C593.487 120.445 593.372 120.174 593.183 119.908C592.994 119.642 592.707 119.403 592.321 119.191C591.794 118.901 591.289 118.777 590.807 118.82C590.326 118.858 589.984 119.062 589.781 119.431C589.606 119.75 589.582 120.073 589.711 120.398C589.841 120.723 590.135 121.093 590.593 121.507L591.92 122.691C592.687 123.378 593.171 124.051 593.369 124.712C593.568 125.372 593.481 126.041 593.109 126.717C592.794 127.289 592.348 127.708 591.769 127.974C591.197 128.238 590.547 128.334 589.819 128.263C589.095 128.194 588.347 127.948 587.575 127.523C586.505 126.934 585.757 126.226 585.332 125.398C584.909 124.565 584.854 123.683 585.166 122.753L587.115 123.468C586.969 123.999 587.004 124.48 587.22 124.912C587.439 125.34 587.828 125.709 588.388 126.017C588.998 126.352 589.555 126.494 590.059 126.441C590.566 126.385 590.92 126.172 591.124 125.803C591.288 125.504 591.314 125.192 591.202 124.865C591.094 124.541 590.84 124.201 590.441 123.847L589.018 122.602C588.238 121.908 587.756 121.222 587.573 120.543C587.394 119.866 587.492 119.187 587.866 118.507C588.176 117.943 588.605 117.536 589.153 117.286C589.701 117.036 590.319 116.946 591.005 117.016C591.693 117.081 592.396 117.311 593.113 117.706C594.147 118.274 594.836 118.945 595.183 119.719C595.532 120.49 595.597 121.301 595.377 122.152ZM602.992 119.151L597.836 128.141L596.112 127.193L600.944 118.025L602.992 119.151ZM594.896 131.453C594.551 131.263 594.323 130.981 594.211 130.606C594.1 130.226 594.142 129.865 594.336 129.523C594.519 129.181 594.799 128.957 595.176 128.851C595.555 128.741 595.917 128.78 596.261 128.97C596.598 129.154 596.821 129.437 596.931 129.816C597.043 130.191 597.008 130.55 596.825 130.893C596.695 131.119 596.52 131.295 596.299 131.422C596.084 131.547 595.852 131.614 595.604 131.623C595.356 131.633 595.12 131.576 594.896 131.453Z" fill="black"/>
</svg>
