<svg width="26" height="48" viewBox="0 0 26 48" fill="none" xmlns="http://www.w3.org/2000/svg">
<path d="M21.7202 12.3228L21.7202 38.9935C21.7202 41.7242 21.0364 43.9377 20.1927 43.9377L5.44641 43.9377C4.60275 43.9377 3.91892 41.7242 3.91892 38.9935L3.91892 12.3228C3.91892 9.59373 4.60275 7.37868 5.44641 7.37868L20.1927 7.37867C21.0364 7.37867 21.7202 9.59372 21.7202 12.3228Z" fill="#F9A80D"/>
<path d="M9.26433 3.04304L16.5387 3.04304C16.5818 3.04304 16.6168 3.00977 16.6168 2.96937L16.6168 2.36712C16.6168 2.32672 16.5818 2.29344 16.5387 2.29344L9.26433 2.29344C9.22067 2.29344 9.18564 2.32672 9.18564 2.36712L9.18564 2.96937C9.18564 3.00977 9.22067 3.04304 9.26433 3.04304ZM2.40936 25.3182C2.40987 25.3182 2.41038 25.3182 2.41038 25.3182C2.41038 26.6928 2.41089 28.067 2.41038 29.4411C2.40987 34.2766 2.41088 39.1116 2.40429 43.9466C2.40327 44.3806 2.45709 44.8165 2.87188 45.0375C3.18818 45.2058 3.59688 45.2951 3.96445 45.2961C9.94313 45.3079 15.9213 45.3008 21.8995 45.2965C22.9311 45.2961 23.4205 44.835 23.4205 43.8744C23.4175 31.5055 23.415 19.1366 23.4119 6.76767C23.4119 5.79183 22.9692 5.37069 21.937 5.37117C15.932 5.37307 9.92688 5.37592 3.9213 5.3783C2.81553 5.37877 2.40987 5.75572 2.40987 6.80238C2.40886 12.9745 2.40936 19.1466 2.40936 25.3182ZM6.68014 3.0996C6.7238 3.0996 6.75934 3.06584 6.75934 3.02544C6.75934 2.65754 6.75731 2.3424 6.75985 2.02726C6.76949 0.873175 7.68538 0.0100002 8.90844 0.00809666C11.6048 0.00334342 14.3012 0.00142833 16.9976 1.51438e-06C18.1288 -0.000475372 19.0431 0.844652 19.0767 1.92507C19.0873 2.27633 19.0792 2.62807 19.0782 3.02307C19.0782 3.06347 19.1137 3.09722 19.1574 3.09722C19.3716 3.09722 19.5696 3.09675 19.7681 3.09722C20.6221 3.09865 21.4791 3.06253 22.33 3.10959C24.2892 3.21892 25.8174 4.7466 25.8179 6.57803C25.822 19.0634 25.8225 31.5483 25.8189 44.0336C25.8184 46.039 24.1836 47.5824 22.0452 47.5852C15.9853 47.5933 9.92485 47.5895 3.86444 47.5857C1.55084 47.5838 0.00185024 46.1322 0.00134088 43.9556C-0.00221285 36.2321 0.00235491 28.509 0.00286193 20.7855C0.00286172 16.0489 0.00133945 11.3123 0.000322629 6.57565C-0.000692165 4.64203 1.59653 3.12147 3.66135 3.10103C4.64883 3.09152 5.6363 3.09913 6.68014 3.0996Z" fill="#231F20"/>
<path d="M13.9104 25.7963C13.8611 25.7863 13.8185 25.8291 13.8322 25.8742L13.8906 26.0662C14.1003 26.7517 14.3135 27.4361 14.5222 28.1215C14.5252 28.132 14.5278 28.1425 14.5298 28.1534C14.547 28.2575 14.4445 28.3445 14.3358 28.316C11.939 27.6762 9.54366 27.0307 7.14579 26.3947C6.86808 26.321 6.7569 26.2055 6.7635 25.9189C6.78431 25.002 6.76959 24.0846 6.76908 23.1673C6.76908 22.8721 6.79142 22.8592 7.07117 22.979C8.3988 23.5466 9.72694 24.1136 11.0551 24.6807L11.2668 24.771C11.3465 24.8052 11.4359 24.7439 11.4257 24.6621C11.3704 24.2134 11.3181 23.7923 11.2673 23.3712C11.2328 23.0841 11.1993 22.797 11.1729 22.5094L11.1724 22.5004C11.1637 22.4005 11.2683 22.324 11.3683 22.3582C11.3815 22.363 11.3937 22.3682 11.4054 22.3744C13.1839 23.3773 14.9608 24.3831 16.7388 25.388C17.4298 25.7782 18.1218 26.1661 18.8122 26.5577C18.863 26.5867 18.9153 26.6133 18.9645 26.6447C18.9955 26.6647 19.0625 26.7065 19.0605 26.7474C19.0569 26.8196 18.9397 26.7902 18.8955 26.7816C18.8193 26.7664 18.7432 26.7512 18.667 26.7365C18.5086 26.7051 18.3507 26.6737 18.1923 26.6423C17.8755 26.5801 17.5582 26.5173 17.2414 26.4546C16.1311 26.235 15.0207 26.0159 13.9104 25.7963Z" fill="#231F20"/>
</svg>
