<svg width="674" height="684" viewBox="0 0 674 684" fill="none" xmlns="http://www.w3.org/2000/svg">
<path d="M331.009 178.322C474.798 149.028 540.182 181.165 540.182 181.165C539.716 181.165 539.279 181.206 538.867 181.279C546.083 183.167 553.404 185.526 560.735 188.371C590.895 200.071 615.141 217.588 629.295 235.976C656.79 258.696 667.681 301.817 671.531 323.165C678.571 358.21 670.5 389.032 647.95 401.198C646.489 401.986 644.992 402.681 643.463 403.288C618.573 437.899 623.601 486.154 640.096 516.561C656.748 547.258 658.5 573.692 603.285 629.118C548.07 684.544 417.484 704.156 180.85 658.962C-35.0874 617.722 -1.06188 471.037 6.54199 445.693C7.86036 422.385 18.7316 394.066 38.2812 367.667C39.952 365.411 41.6556 363.209 43.3896 361.063C84.7583 292.774 195.902 205.848 331.009 178.322Z" fill="#D9DCB9"/>
<path d="M218.677 299.186L183.132 353.292H256.706L249.862 296.846L218.677 299.186Z" fill="black"/>
<path d="M428.001 525.632C428.001 531.769 346.741 536.74 246.501 536.74C146.262 536.74 65.001 531.769 65.001 525.632C65.001 519.504 146.262 514.532 246.501 514.532C346.741 514.532 428.001 519.504 428.001 525.632Z" fill="#D5BD99"/>
<path d="M386.295 527.948H343.898C338.951 527.948 334.774 524.274 334.15 519.363L325.066 447.892H405.126L396.042 519.363C395.419 524.274 391.243 527.948 386.295 527.948Z" fill="#FFAF45"/>
<path d="M405.132 447.892C405.132 448.661 402.606 449.405 398.272 450.02C391.066 451.055 378.889 451.719 365.09 451.719C353.631 451.719 343.315 451.266 336.03 450.521C329.25 449.801 325.076 448.903 325.076 447.892C325.076 446.929 328.825 446.055 334.993 445.368C337.146 445.125 339.619 444.939 342.305 444.729C342.598 444.729 342.89 444.696 343.182 444.672C346.373 444.486 349.882 444.324 353.631 444.219C357.194 444.114 360.97 444.065 364.877 444.065H365.09C367.723 444.065 370.301 444.089 372.801 444.138C376.656 444.195 380.351 444.324 383.729 444.486C384.34 444.542 384.925 444.567 385.51 444.591C390.163 444.858 394.204 445.206 397.395 445.627C402.259 446.266 405.132 447.067 405.132 447.892Z" fill="#DBD3E0"/>
<path d="M263.739 349.561C263.739 349.561 277.33 381.865 284.897 409.882C292.465 437.891 295.668 453.336 295.668 453.336L263.271 454.679L243.115 425.699L263.739 349.561Z" fill="#889782"/>
<path d="M195.815 505.31H231.101L231.576 428.297H191.704L195.815 505.31Z" fill="#E6CFB0"/>
<path d="M271.973 440.303C273.185 443.766 276.59 451.994 281.69 452.39C282.501 452.447 283.155 452.196 283.667 451.613C285.877 449.097 285.134 441.322 284.409 436.953L282.172 440.821C282.06 441.023 281.853 441.144 281.625 441.152C281.392 441.136 281.181 441.055 281.053 440.869L277.975 436.444L275.897 441.517C275.825 441.686 275.686 441.824 275.512 441.889C275.336 441.953 275.141 441.937 274.977 441.856L271.973 440.303ZM281.935 453.733C281.82 453.733 281.706 453.725 281.587 453.717C274.232 453.143 270.361 439.72 270.201 439.154C270.129 438.895 270.215 438.62 270.42 438.458C270.625 438.288 270.91 438.256 271.145 438.386L274.941 440.343L277.208 434.81C277.3 434.583 277.509 434.429 277.751 434.405C278.005 434.381 278.232 434.486 278.369 434.68L281.545 439.251L284.158 434.729C284.295 434.486 284.568 434.365 284.837 434.405C285.109 434.445 285.327 434.656 285.384 434.923C285.498 435.473 288.177 448.499 284.667 452.495C283.945 453.312 283.028 453.733 281.935 453.733Z" fill="#F3E1CA"/>
<path d="M261.453 439.623C261.453 439.623 343.052 461.136 347.817 492.308C352.582 523.481 298.472 530.997 271.074 532.947C243.676 534.889 231.58 522.874 231.58 522.874L216.125 428.296L261.453 439.623Z" fill="#E6CFB0"/>
<path d="M162.431 439.623C162.431 439.623 80.8316 461.136 76.0663 492.308C71.3018 523.481 131.19 530.997 158.588 532.947C185.987 534.889 189.287 520.301 189.287 520.301L207.757 428.296L162.431 439.623Z" fill="#E6CFB0"/>
<path d="M171.714 436.557C171.714 436.557 178.932 344.367 199.739 337.472C222.493 329.933 257.073 336.437 263.744 349.562C270.414 362.687 257.403 438.013 257.403 438.013C257.403 438.013 209.691 445.23 171.714 436.557Z" fill="#889782"/>
<path d="M265.212 522.179C265.212 522.179 247.849 534.76 247.397 536.378C246.945 538.004 240.041 571.239 235.032 575.228C230.022 579.225 225.382 576.571 225.382 576.571C225.382 576.571 214.14 502.389 215.145 499.695C216.149 497.001 247.715 490.747 247.715 490.747L265.212 522.179Z" fill="#FF9981"/>
<path d="M228.04 577.356L219.791 497.438L209.011 499.113L218.945 578.861L228.04 577.356Z" fill="#FFAF45"/>
<path d="M241.331 560.616L244.319 549.524L224.84 546.32L223.685 556.49L241.331 560.616Z" fill="#FFAF45"/>
<path d="M158.066 521.459C158.066 521.459 175.429 534.047 175.881 535.665C176.333 537.284 183.238 570.527 188.247 574.516C193.256 578.513 197.897 575.851 197.897 575.851C197.897 575.851 209.138 501.677 208.134 498.983C207.129 496.289 175.563 490.035 175.563 490.035L158.066 521.459Z" fill="#FF9981"/>
<path d="M195.245 576.643L203.494 496.726L214.275 498.4L204.34 578.148L195.245 576.643Z" fill="#FFAF45"/>
<path d="M181.96 559.905L178.973 548.812L198.451 545.609L199.607 555.778L181.96 559.905Z" fill="#FFAF45"/>
<path d="M202.504 484.072L175.879 535.665L138.609 521.03L154.179 484.072H202.504Z" fill="#E6CFB0"/>
<path d="M219.689 486.556L248.819 538.149L283.22 523.522L267.651 486.556H219.689Z" fill="#E6CFB0"/>
<path d="M171.756 471.954H281.359C283.398 471.954 285.052 470.304 285.052 468.265V467.116C285.052 465.069 283.398 463.419 281.359 463.419H171.756C169.715 463.419 168.062 465.069 168.062 467.116V468.265C168.062 470.304 169.715 471.954 171.756 471.954Z" fill="#BDB2C2"/>
<path d="M198.087 471.938H278.933L302.024 419.705H224.366C222.427 419.705 220.672 420.854 219.888 422.626L198.087 471.938Z" fill="#DDD7E0"/>
<path d="M205.108 471.938H285.955L306.561 425.32C307.731 422.683 305.795 419.705 302.905 419.705H228.199L205.108 471.938Z" fill="#CCC5D6"/>
<path d="M249.146 445.822C249.146 449.617 252.219 452.691 256.012 452.691C259.804 452.691 262.878 449.617 262.878 445.822C262.878 442.028 259.804 438.954 256.012 438.954C252.219 438.954 249.146 442.028 249.146 445.822Z" fill="white"/>
<path d="M130.113 463.968C130.068 463.968 130.022 463.968 129.978 463.968C129.621 463.992 129.473 464.138 129.393 464.243C128.842 464.955 128.704 465.594 128.958 466.249C130.068 469.121 137.864 471.419 142.661 472.487C139.032 469.162 132.786 463.968 130.113 463.968ZM144.816 474.267C143.152 473.976 129.536 471.435 127.717 466.727C127.424 465.974 127.294 464.785 128.341 463.434C128.7 462.964 129.234 462.689 129.884 462.649C134.12 462.301 144.147 472.018 145.278 473.126C145.488 473.328 145.54 473.644 145.407 473.903C145.291 474.129 145.062 474.267 144.816 474.267Z" fill="white"/>
<path d="M195.289 483.384C195.231 483.384 195.171 483.384 195.111 483.368C194.795 483.279 162.956 474.525 119.631 471.92C119.265 471.896 118.986 471.58 119.008 471.216C119.028 470.852 119.311 470.585 119.712 470.593C163.185 473.198 195.15 481.993 195.467 482.082C195.822 482.179 196.028 482.551 195.929 482.899C195.847 483.198 195.58 483.384 195.289 483.384Z" fill="white"/>
<path d="M225.384 487.219C225.113 487.219 224.858 487.057 224.76 486.782C224.634 486.443 224.813 486.062 225.158 485.933C225.508 485.803 260.668 473.207 304.166 470.593C304.549 470.585 304.848 470.852 304.87 471.216C304.892 471.58 304.613 471.896 304.247 471.92C260.949 474.517 225.96 487.057 225.612 487.187C225.536 487.211 225.46 487.219 225.384 487.219Z" fill="white"/>
<path d="M293.734 463.878C291.076 463.878 284.873 469.186 281.277 472.567C286.061 471.435 293.824 469.024 294.894 466.144C295.138 465.48 294.991 464.849 294.43 464.137C294.348 464.04 294.199 463.902 293.841 463.878C293.806 463.878 293.771 463.878 293.734 463.878ZM279.14 474.38C278.896 474.38 278.67 474.242 278.553 474.024C278.415 473.765 278.463 473.449 278.67 473.247C279.786 472.122 289.708 462.268 293.916 462.551C294.567 462.592 295.106 462.851 295.471 463.312C296.536 464.655 296.422 465.844 296.14 466.605C294.387 471.33 280.808 474.072 279.265 474.363C279.222 474.38 279.181 474.38 279.14 474.38Z" fill="white"/>
<path d="M136.972 431.282C136.972 431.282 130.33 446.815 124.407 446.807C117.496 446.791 109.86 446.823 109.221 446.985C108.034 447.285 94.8875 462.576 95.212 465.189C95.5364 467.802 99.4522 465.966 99.4522 465.966C99.4522 465.966 97.2071 470.407 99.3883 471.038C101.568 471.661 113.755 464.736 113.755 464.736C113.755 464.736 140.129 472.478 147.169 463.514C163.328 442.948 136.972 431.282 136.972 431.282Z" fill="#FF9981"/>
<path d="M109.224 446.986C109.224 446.986 96.3579 455.448 94.8628 458.781C93.3685 462.107 96.9364 461.532 96.9364 461.532L106.57 454.073L109.224 446.986Z" fill="#FF9981"/>
<path d="M134.871 465.804C134.871 465.804 122.471 470.335 119.548 471.605C116.627 472.867 111.899 475.456 111.285 472.05C110.672 468.652 126.029 460.376 126.029 460.376L134.871 465.804Z" fill="#FF9981"/>
<path d="M113.321 474.404C112.804 474.404 112.327 474.315 111.912 474.089C111.227 473.733 110.796 473.085 110.631 472.171C109.966 468.482 123.078 461.217 125.714 459.793C126.037 459.623 126.44 459.744 126.614 460.068C126.788 460.383 126.668 460.788 126.344 460.966C119.162 464.833 111.614 470.124 111.939 471.936C112.073 472.673 112.417 472.851 112.531 472.915C113.671 473.522 116.316 472.325 118.246 471.451C118.61 471.289 118.959 471.127 119.284 470.99C122.191 469.736 134.137 465.367 134.643 465.181C134.991 465.051 135.37 465.229 135.495 465.577C135.622 465.925 135.444 466.305 135.1 466.427C134.975 466.475 122.683 470.966 119.812 472.212C119.492 472.349 119.15 472.503 118.794 472.665C116.958 473.49 114.938 474.404 113.321 474.404Z" fill="black"/>
<path d="M99.4532 466.629C99.2906 466.629 99.1296 466.572 99.001 466.451C98.7324 466.208 98.7154 465.787 98.9646 465.512L109.167 454.485C109.417 454.218 109.837 454.202 110.108 454.445C110.376 454.695 110.393 455.116 110.144 455.391L99.9411 466.419C99.81 466.556 99.632 466.629 99.4532 466.629Z" fill="black"/>
<path d="M207.587 335.498C207.587 335.498 179.693 338.304 164.588 360.79C153.829 376.809 120.619 441.492 120.619 441.492L153.531 457.746L175.52 424.931L207.587 335.498Z" fill="#889782"/>
<path d="M251.226 323.073L222.565 310.265L221.212 309.662L217.57 308.038C217.57 308.038 218.084 297.847 222.553 292.228C227.018 286.622 231.658 291.046 231.658 291.046C231.658 291.046 234.803 289.757 239.881 289.386C241.582 289.266 243.466 289.253 245.523 289.42C247.734 289.592 250.136 289.984 252.689 290.673C264.835 293.962 258.256 300.795 258.256 300.795C258.256 300.795 260.282 303.546 259.409 309.797C258.124 319.033 251.226 323.073 251.226 323.073Z" fill="black"/>
<path d="M240.003 294.722C240.003 294.722 236.819 263.483 218.334 272.702C202.869 280.415 215.024 304.207 227.143 302.578C239.261 300.95 240.003 294.722 240.003 294.722Z" fill="black"/>
<path d="M221.808 324.643L217.562 339.384C217.562 339.384 218.999 344.388 227.422 347.574C233.696 349.947 236.681 347.233 236.681 347.233L238.841 333.884L224.255 325.973L221.808 324.643Z" fill="#FF9981"/>
<path d="M222.092 323.75C222.014 324.163 222.03 324.682 222.111 325.296C223.289 333.61 234.014 340.019 237.629 341.42L238.844 333.885L222.092 323.75Z" fill="black"/>
<path d="M251.803 301.228C251.803 301.228 254.216 321.941 248.207 331.332C242.198 340.724 233.336 336.254 228.343 332.563C223.352 328.87 221.801 324.644 221.801 324.644C221.801 324.644 216.031 324.823 214.016 318.895C212.002 312.966 215.857 308.039 219.234 307.67C222.609 307.301 225.502 310.539 225.502 310.539L224.34 304.379C224.34 304.379 244.278 280.955 251.803 301.228Z" fill="#FF9981"/>
<path d="M225.508 310.539C225.508 310.539 232.846 314.593 241.04 307.589C249.234 300.586 249.865 296.846 249.865 296.846L252.449 307.561C252.449 307.561 255.63 301.701 254.39 296.934C253.148 292.167 250.296 292.174 250.296 292.174L231.655 291.041L222.737 303.455L225.508 310.539Z" fill="black"/>
<path d="M244.066 324.277C243.935 324.277 243.804 324.239 243.69 324.161C243.387 323.953 243.31 323.537 243.518 323.236C245.584 320.234 244.218 315.839 244.204 315.795C244.094 315.444 244.285 315.07 244.635 314.959C244.989 314.847 245.359 315.042 245.47 315.39C245.536 315.594 247.054 320.445 244.615 323.989C244.484 324.176 244.277 324.277 244.066 324.277Z" fill="black"/>
<path d="M222.241 318.934C221.996 318.934 221.759 318.795 221.644 318.56L218.33 311.762C218.168 311.432 218.305 311.035 218.636 310.874C218.962 310.711 219.362 310.848 219.524 311.181L222.838 317.978C222.999 318.308 222.863 318.706 222.532 318.866C222.438 318.913 222.339 318.934 222.241 318.934Z" fill="black"/>
<path d="M221.024 316.442C220.921 316.434 217.332 315.883 217.332 315.883C216.969 315.828 216.721 315.489 216.776 315.125C216.832 314.764 217.163 314.515 217.534 314.57L221.124 315.12C221.486 315.174 221.736 315.514 221.679 315.879C221.629 316.205 221.346 316.442 221.024 316.442Z" fill="black"/>
<path d="M252.279 310.462C252.176 310.462 252.071 310.438 251.974 310.386L248.915 308.803C248.588 308.633 248.461 308.234 248.63 307.907C248.8 307.58 249.204 307.451 249.526 307.624L252.585 309.207C252.911 309.376 253.039 309.777 252.87 310.104C252.752 310.332 252.52 310.462 252.279 310.462Z" fill="black"/>
<path d="M238.157 308.343C237.839 308.343 237.556 308.113 237.503 307.788C237.444 307.424 237.689 307.081 238.051 307.021L244.206 306.006C244.559 305.957 244.911 306.194 244.97 306.554C245.029 306.918 244.784 307.261 244.422 307.32L238.267 308.335C238.23 308.341 238.194 308.343 238.157 308.343Z" fill="black"/>
<path d="M249.921 317.943C249.549 317.939 249.253 317.638 249.256 317.273L249.283 313.664C249.285 313.44 249.397 313.235 249.585 313.113L250.986 312.197C251.289 311.991 251.703 312.079 251.905 312.388C252.105 312.695 252.02 313.108 251.712 313.308L250.61 314.029L250.585 317.283C250.583 317.649 250.286 317.943 249.921 317.943Z" fill="black"/>
<path d="M239.168 315.501C238.795 315.499 238.501 315.198 238.503 314.831L238.53 311.222C238.531 310.993 238.651 310.784 238.844 310.664L240.755 309.477C241.067 309.28 241.477 309.378 241.67 309.69C241.863 310.002 241.767 310.412 241.455 310.604L239.857 311.598L239.832 314.841C239.83 315.208 239.533 315.501 239.168 315.501Z" fill="black"/>
<path d="M243.107 328.471C242.829 328.471 242.569 328.294 242.475 328.016C242.36 327.669 242.548 327.293 242.896 327.175L246.636 325.929C246.988 325.815 247.361 326.001 247.478 326.35C247.594 326.698 247.405 327.073 247.057 327.191L243.317 328.438C243.246 328.46 243.177 328.471 243.107 328.471Z" fill="black"/>
<path d="M233.043 349.134C231.25 349.134 229.03 348.785 226.418 347.727C216.814 343.837 215.552 337.678 215.503 337.416C215.436 337.057 215.67 336.711 216.029 336.643C216.391 336.577 216.737 336.809 216.808 337.169C216.819 337.223 218.035 342.897 226.917 346.495C233.708 349.243 237.461 346.838 237.618 346.734C237.923 346.532 238.336 346.615 238.539 346.919C238.743 347.223 238.664 347.633 238.362 347.837C238.245 347.916 236.392 349.134 233.043 349.134Z" fill="#F3E1CA"/>
<path d="M179.795 418.434C179.713 418.434 179.626 418.442 179.531 418.475C177.898 419.017 175.7 423.321 174.221 426.978C177.206 424.348 180.564 420.821 180.504 419.13C180.495 418.879 180.403 418.709 180.195 418.572C180.062 418.475 179.935 418.434 179.795 418.434ZM172.704 429.793C172.57 429.793 172.435 429.745 172.319 429.672C172.078 429.494 171.98 429.186 172.075 428.903C172.45 427.827 175.828 418.297 179.115 417.213C179.761 417.002 180.397 417.091 180.949 417.471C181.504 417.852 181.809 418.41 181.831 419.081C181.952 422.504 174.023 428.919 173.118 429.648C172.997 429.737 172.85 429.793 172.704 429.793Z" fill="#F3E1CA"/>
<path d="M257.958 411.667C257.493 411.628 257.243 411.39 257.299 411.136L260.884 394.517C260.895 394.467 260.918 394.416 260.953 394.37C261.022 394.274 267.881 385.154 268.756 378.905C269.631 372.674 260.998 356.994 260.91 356.836C260.779 356.597 260.949 356.328 261.293 356.235C261.635 356.143 262.02 356.263 262.154 356.503C262.515 357.154 270.989 372.55 270.085 378.996C269.214 385.199 262.883 393.799 262.187 394.732L258.616 411.272C258.566 411.504 258.282 411.667 257.958 411.667Z" fill="#F3E1CA"/>
<path d="M96.9329 462.195C96.7767 462.195 96.6198 462.139 96.4936 462.025C96.2193 461.783 96.1918 461.362 96.4329 461.087L105.532 450.739C105.777 450.464 106.196 450.44 106.471 450.683C106.747 450.925 106.773 451.346 106.532 451.621L97.4329 461.969C97.3002 462.114 97.1173 462.195 96.9329 462.195Z" fill="black"/>
<path d="M398.265 450.02C391.06 451.055 378.883 451.719 365.084 451.719C353.624 451.719 343.308 451.266 336.024 450.521C336.024 450.521 333.95 447.649 334.986 445.368C335.172 444.915 335.519 444.462 336.024 444.065C338.177 442.415 340.916 443.798 342.299 444.729C342.83 445.101 343.176 445.392 343.176 445.392C343.176 445.392 343.176 445.125 343.176 444.672C343.229 442.496 343.681 436.298 347.191 437.706C350.275 438.928 352.587 442.382 353.624 444.219C354.023 444.915 354.236 445.392 354.236 445.392C354.236 445.392 359.128 444.065 364.871 444.065H365.084C370.933 444.114 370.933 448.264 370.933 448.264C370.933 448.264 371.678 446.347 372.795 444.138C374.496 440.764 377.076 436.67 379.228 437.706C381.914 438.984 383.244 442.763 383.723 444.486C383.855 445.044 383.935 445.392 383.935 445.392C383.935 445.392 384.52 445.044 385.503 444.591C387.258 443.766 390.342 442.576 393.4 442.463C395.527 442.415 396.723 443.928 397.388 445.627C398.159 447.544 398.265 449.696 398.265 450.02Z" fill="#FCAD4F"/>
<path d="M192.567 414.098C191.84 418.467 191.099 426.25 193.308 428.758C193.82 429.348 194.479 429.591 195.285 429.534C200.385 429.138 203.791 420.91 205.002 417.455L201.998 419.001C201.831 419.09 201.636 419.106 201.463 419.033C201.288 418.968 201.149 418.839 201.077 418.661L198.999 413.588L195.922 418.014C195.793 418.2 195.552 418.289 195.349 418.297C195.121 418.289 194.915 418.167 194.802 417.965L192.567 414.098ZM195.039 430.877C193.946 430.877 193.03 430.457 192.31 429.64C188.798 425.643 191.476 412.625 191.591 412.067C191.647 411.8 191.866 411.598 192.137 411.549C192.411 411.517 192.681 411.638 192.817 411.873L195.429 416.395L198.606 411.824C198.743 411.63 198.973 411.517 199.224 411.549C199.465 411.574 199.674 411.727 199.767 411.954L202.033 417.488L205.829 415.53C206.064 415.4 206.348 415.441 206.555 415.603C206.76 415.773 206.846 416.048 206.775 416.298C206.614 416.873 202.743 430.295 195.389 430.861C195.269 430.869 195.153 430.877 195.039 430.877Z" fill="#F3E1CA"/>
<path d="M200.944 359.477C200.219 363.845 199.476 371.624 201.686 374.137C202.199 374.721 202.858 374.968 203.663 374.91C208.763 374.516 212.17 366.288 213.381 362.827L210.376 364.377C210.209 364.462 210.016 364.479 209.841 364.411C209.666 364.346 209.527 364.211 209.456 364.039L207.379 358.968L204.3 363.393C204.17 363.58 203.94 363.65 203.728 363.679C203.499 363.668 203.293 363.544 203.18 363.346L200.944 359.477ZM203.415 376.25C202.325 376.25 201.406 375.835 200.686 375.015C197.176 371.019 199.854 358.001 199.97 357.447C200.025 357.179 200.243 356.971 200.515 356.928C200.788 356.886 201.058 357.013 201.194 357.252L203.807 361.776L206.985 357.206C207.124 357.008 207.352 356.912 207.603 356.925C207.844 356.951 208.054 357.107 208.146 357.333L210.411 362.864L214.208 360.906C214.443 360.779 214.728 360.814 214.934 360.981C215.139 361.148 215.225 361.42 215.153 361.677C214.993 362.245 211.122 375.669 203.766 376.234C203.648 376.242 203.53 376.25 203.415 376.25Z" fill="#F3E1CA"/>
<path d="M167.133 376.671C165.571 380.813 163.329 388.297 165.006 391.201C165.396 391.865 165.981 392.245 166.797 392.342C171.857 392.949 176.818 385.538 178.681 382.375L175.429 383.313C175.251 383.37 175.058 383.346 174.899 383.24C174.739 383.143 174.629 382.99 174.592 382.804L173.542 377.423L169.664 381.169C169.501 381.331 169.268 381.396 169.045 381.331C168.824 381.283 168.646 381.113 168.573 380.902L167.133 376.671ZM167.383 393.701C167.137 393.701 166.887 393.693 166.638 393.661C165.397 393.515 164.461 392.909 163.856 391.865C161.189 387.261 166.35 375.012 166.57 374.493C166.679 374.238 166.917 374.088 167.207 374.088C167.482 374.097 167.722 374.277 167.811 374.539L169.494 379.486L173.498 375.619C173.674 375.451 173.925 375.391 174.16 375.464C174.392 375.537 174.567 375.732 174.613 375.97L175.759 381.841L179.865 380.651C180.119 380.579 180.393 380.668 180.562 380.87C180.73 381.072 180.762 381.355 180.64 381.598C180.382 382.108 174.394 393.701 167.383 393.701Z" fill="#F3E1CA"/>
<path d="M141.998 422.981C140.436 427.131 138.194 434.615 139.872 437.511C140.261 438.183 140.847 438.555 141.661 438.652C146.73 439.267 151.684 431.848 153.544 428.693L150.295 429.631C150.117 429.688 149.925 429.656 149.764 429.559C149.604 429.461 149.494 429.3 149.459 429.114L148.406 423.733L144.528 427.479C144.364 427.641 144.126 427.706 143.91 427.649C143.688 427.593 143.51 427.431 143.436 427.212L141.998 422.981ZM142.247 440.02C142 440.02 141.753 440.003 141.504 439.971C140.262 439.825 139.326 439.219 138.721 438.175C136.055 433.571 141.215 421.322 141.436 420.805C141.542 420.554 141.8 420.384 142.071 420.4C142.347 420.408 142.587 420.594 142.677 420.853L144.358 425.796L148.362 421.929C148.538 421.759 148.79 421.703 149.024 421.775C149.256 421.848 149.429 422.042 149.476 422.277L150.623 428.151L154.73 426.97C154.984 426.889 155.258 426.978 155.426 427.18C155.596 427.39 155.626 427.673 155.506 427.908C155.246 428.418 149.257 440.02 142.247 440.02Z" fill="#F3E1CA"/>
<path d="M217.186 387.989C217.343 392.415 218.162 400.19 220.826 402.212C221.442 402.682 222.128 402.803 222.919 402.576C227.838 401.177 229.541 392.439 230.041 388.798L227.403 390.926C227.258 391.039 227.066 391.088 226.885 391.064C226.701 391.031 226.537 390.926 226.433 390.772L223.389 386.218L221.253 391.161C221.164 391.371 220.973 391.517 220.748 391.557C220.529 391.59 220.297 391.509 220.144 391.339L217.186 387.989ZM222.167 404.017C221.394 404.017 220.677 403.774 220.021 403.272C215.786 400.052 215.822 386.76 215.827 386.201C215.828 385.918 216 385.675 216.258 385.578C216.515 385.481 216.808 385.554 216.99 385.764L220.447 389.672L222.652 384.567C222.749 384.341 222.96 384.187 223.203 384.171C223.449 384.138 223.68 384.26 223.816 384.462L227.135 389.429L230.468 386.752C230.673 386.59 230.96 386.565 231.194 386.687C231.429 386.808 231.567 387.059 231.548 387.326C231.503 387.917 230.378 401.832 223.282 403.855C222.899 403.968 222.528 404.017 222.167 404.017Z" fill="#F3E1CA"/>
<path d="M242.869 365.112C244.079 368.572 247.486 376.8 252.586 377.197C253.402 377.253 254.051 377.003 254.564 376.42C256.772 373.909 256.029 366.13 255.304 361.762L253.068 365.631C252.956 365.829 252.75 365.953 252.521 365.964C252.283 365.942 252.076 365.865 251.948 365.678L248.871 361.253L246.794 366.324C246.723 366.496 246.584 366.631 246.408 366.695C246.236 366.763 246.039 366.747 245.874 366.662L242.869 365.112ZM252.834 378.532C252.72 378.532 252.602 378.532 252.483 378.524C245.128 377.957 241.257 364.53 241.096 363.962C241.025 363.705 241.11 363.432 241.315 363.266C241.519 363.098 241.804 363.061 242.041 363.191L245.839 365.148L248.104 359.618C248.196 359.392 248.405 359.236 248.647 359.21C248.903 359.19 249.127 359.293 249.265 359.491L252.441 364.06L255.054 359.537C255.191 359.297 255.462 359.176 255.733 359.212C256.005 359.257 256.223 359.465 256.279 359.732C256.394 360.284 259.073 373.304 255.563 377.302C254.842 378.119 253.925 378.532 252.834 378.532Z" fill="#F3E1CA"/>
<path d="M266.775 405.012C267.986 408.467 271.392 416.695 276.493 417.091C277.301 417.148 277.958 416.897 278.47 416.323C280.681 413.807 279.937 406.024 279.21 401.655L276.975 405.53C276.861 405.724 276.655 405.846 276.427 405.862C276.193 405.829 275.983 405.757 275.854 405.57L272.777 401.145L270.7 406.226C270.629 406.396 270.49 406.525 270.315 406.59C270.14 406.655 269.947 406.646 269.78 406.557L266.775 405.012ZM276.739 418.434C276.625 418.434 276.508 418.426 276.389 418.418C269.034 417.852 265.163 404.43 265.002 403.855C264.931 403.604 265.017 403.329 265.222 403.159C265.427 402.998 265.712 402.957 265.947 403.087L269.745 405.045L272.01 399.511C272.102 399.284 272.311 399.13 272.553 399.106C272.811 399.09 273.033 399.187 273.17 399.389L276.347 403.952L278.96 399.43C279.097 399.195 279.373 399.074 279.64 399.106C279.911 399.155 280.129 399.357 280.185 399.624C280.301 400.182 282.98 413.2 279.468 417.196C278.748 418.014 277.832 418.434 276.739 418.434Z" fill="#F3E1CA"/>
<path d="M358.802 460.011C349.534 460.011 339.821 459.307 339.21 459.259C338.844 459.235 338.57 458.911 338.597 458.547C338.623 458.183 338.932 457.883 339.308 457.932C339.532 457.948 361.976 459.582 371.295 457.94C371.649 457.875 372.002 458.118 372.064 458.482C372.128 458.846 371.886 459.186 371.526 459.251C368.289 459.817 363.605 460.011 358.802 460.011Z" fill="#FC97BC"/>
<path d="M327.996 218.924C319.747 237.413 303.995 233.859 298.484 229.769C273.95 251.638 251.727 231.548 248.349 218.57C231.46 225.326 227.548 207.547 233.059 201.503C215.992 197.52 221.504 179.991 230.748 178.746C224.491 166.799 233.356 160.968 238.571 159.546C238.428 145.181 253.327 143.367 257.771 148.167C266.127 130.211 280.053 138.329 284.794 144.965C302.75 119.011 322.84 141.944 321.418 151.543C326.822 150.974 328.885 156.284 329.24 159.011C347.73 146.565 362.308 171.633 350.93 182.656C366.397 205.59 342.93 222.479 327.996 218.924Z" fill="white"/>
<path d="M249.734 240.381C250.623 243.937 246.179 249.626 241.378 249.626C236.578 249.626 232.667 245.609 232.667 241.092C232.667 236.575 235.164 233.092 239.778 233.092C244.393 233.092 249.734 235.864 249.734 240.381Z" fill="white"/>
<path d="M232.843 258.159C233.199 259.937 231.031 262.604 228.576 262.604C226.122 262.604 224.487 260.123 224.487 258.159C224.487 256.196 225.554 254.248 228.576 254.604C231.065 254.604 233.021 256.381 232.843 258.159Z" fill="white"/>
<path d="M262.367 169V154.455H267.551C268.683 154.455 269.62 154.661 270.364 155.072C271.107 155.484 271.663 156.048 272.033 156.763C272.402 157.473 272.587 158.273 272.587 159.163C272.587 160.058 272.4 160.863 272.026 161.578C271.656 162.288 271.098 162.852 270.35 163.268C269.606 163.68 268.671 163.886 267.544 163.886H263.979V162.026H267.345C268.06 162.026 268.64 161.902 269.085 161.656C269.53 161.405 269.857 161.064 270.065 160.634C270.274 160.203 270.378 159.713 270.378 159.163C270.378 158.614 270.274 158.126 270.065 157.7C269.857 157.274 269.528 156.94 269.078 156.699C268.633 156.457 268.046 156.337 267.317 156.337H264.561V169H262.367ZM278.066 169.241C277.375 169.241 276.75 169.114 276.191 168.858C275.632 168.598 275.19 168.221 274.863 167.729C274.541 167.236 274.38 166.633 274.38 165.918C274.38 165.302 274.498 164.795 274.735 164.398C274.972 164 275.292 163.685 275.694 163.453C276.096 163.221 276.546 163.046 277.043 162.928C277.541 162.809 278.047 162.719 278.563 162.658C279.217 162.582 279.747 162.52 280.154 162.473C280.561 162.421 280.857 162.338 281.042 162.224C281.227 162.111 281.319 161.926 281.319 161.67V161.621C281.319 161 281.144 160.52 280.793 160.179C280.448 159.838 279.932 159.668 279.245 159.668C278.53 159.668 277.967 159.826 277.555 160.143C277.148 160.456 276.866 160.804 276.71 161.188L274.714 160.733C274.951 160.07 275.296 159.535 275.751 159.128C276.21 158.716 276.738 158.418 277.335 158.233C277.931 158.044 278.559 157.949 279.217 157.949C279.652 157.949 280.114 158.001 280.602 158.105C281.094 158.205 281.553 158.389 281.979 158.659C282.41 158.929 282.763 159.315 283.038 159.817C283.312 160.314 283.45 160.96 283.45 161.756V169H281.376V167.509H281.291C281.153 167.783 280.947 168.053 280.673 168.318C280.398 168.583 280.045 168.804 279.614 168.979C279.184 169.154 278.667 169.241 278.066 169.241ZM278.528 167.537C279.115 167.537 279.617 167.421 280.033 167.189C280.455 166.957 280.774 166.654 280.992 166.28C281.215 165.901 281.326 165.496 281.326 165.065V163.659C281.25 163.735 281.104 163.806 280.886 163.872C280.673 163.934 280.429 163.988 280.154 164.036C279.88 164.078 279.612 164.118 279.352 164.156C279.091 164.189 278.873 164.218 278.698 164.241C278.286 164.294 277.91 164.381 277.569 164.504C277.233 164.627 276.963 164.805 276.759 165.037C276.56 165.264 276.461 165.567 276.461 165.946C276.461 166.472 276.655 166.869 277.043 167.139C277.432 167.404 277.926 167.537 278.528 167.537ZM294.453 160.754L292.528 161.095C292.448 160.849 292.32 160.615 292.145 160.392C291.974 160.17 291.742 159.987 291.449 159.845C291.155 159.703 290.788 159.632 290.348 159.632C289.746 159.632 289.245 159.767 288.842 160.037C288.44 160.302 288.238 160.645 288.238 161.067C288.238 161.431 288.373 161.725 288.643 161.947C288.913 162.17 289.349 162.352 289.95 162.494L291.683 162.892C292.687 163.124 293.435 163.482 293.927 163.964C294.42 164.447 294.666 165.075 294.666 165.847C294.666 166.5 294.477 167.082 294.098 167.594C293.724 168.1 293.2 168.498 292.528 168.787C291.861 169.076 291.086 169.22 290.206 169.22C288.984 169.22 287.987 168.96 287.216 168.439C286.444 167.913 285.97 167.168 285.795 166.202L287.848 165.889C287.976 166.424 288.238 166.829 288.636 167.104C289.034 167.374 289.552 167.509 290.191 167.509C290.888 167.509 291.444 167.364 291.861 167.075C292.277 166.782 292.486 166.424 292.486 166.003C292.486 165.662 292.358 165.375 292.102 165.143C291.851 164.911 291.465 164.736 290.944 164.618L289.098 164.213C288.08 163.981 287.327 163.612 286.839 163.105C286.356 162.598 286.115 161.957 286.115 161.18C286.115 160.536 286.295 159.973 286.655 159.49C287.014 159.007 287.512 158.631 288.146 158.361C288.781 158.086 289.507 157.949 290.326 157.949C291.505 157.949 292.433 158.205 293.111 158.716C293.788 159.223 294.235 159.902 294.453 160.754ZM304.417 154.455V169H302.294V154.455H304.417ZM310.449 169.241C309.758 169.241 309.133 169.114 308.574 168.858C308.015 168.598 307.573 168.221 307.246 167.729C306.924 167.236 306.763 166.633 306.763 165.918C306.763 165.302 306.881 164.795 307.118 164.398C307.355 164 307.674 163.685 308.077 163.453C308.479 163.221 308.929 163.046 309.426 162.928C309.923 162.809 310.43 162.719 310.946 162.658C311.6 162.582 312.13 162.52 312.537 162.473C312.944 162.421 313.24 162.338 313.425 162.224C313.609 162.111 313.702 161.926 313.702 161.67V161.621C313.702 161 313.527 160.52 313.176 160.179C312.831 159.838 312.314 159.668 311.628 159.668C310.913 159.668 310.35 159.826 309.938 160.143C309.53 160.456 309.249 160.804 309.092 161.188L307.097 160.733C307.333 160.07 307.679 159.535 308.134 159.128C308.593 158.716 309.121 158.418 309.717 158.233C310.314 158.044 310.941 157.949 311.6 157.949C312.035 157.949 312.497 158.001 312.984 158.105C313.477 158.205 313.936 158.389 314.362 158.659C314.793 158.929 315.146 159.315 315.421 159.817C315.695 160.314 315.832 160.96 315.832 161.756V169H313.759V167.509H313.673C313.536 167.783 313.33 168.053 313.055 168.318C312.781 168.583 312.428 168.804 311.997 168.979C311.566 169.154 311.05 169.241 310.449 169.241ZM310.911 167.537C311.498 167.537 312 167.421 312.416 167.189C312.838 166.957 313.157 166.654 313.375 166.28C313.598 165.901 313.709 165.496 313.709 165.065V163.659C313.633 163.735 313.486 163.806 313.269 163.872C313.055 163.934 312.812 163.988 312.537 164.036C312.262 164.078 311.995 164.118 311.734 164.156C311.474 164.189 311.256 164.218 311.081 164.241C310.669 164.294 310.293 164.381 309.952 164.504C309.616 164.627 309.346 164.805 309.142 165.037C308.943 165.264 308.844 165.567 308.844 165.946C308.844 166.472 309.038 166.869 309.426 167.139C309.814 167.404 310.309 167.537 310.911 167.537ZM254.432 193V182.091H256.471V183.866H256.606C256.833 183.265 257.205 182.796 257.721 182.46C258.237 182.119 258.855 181.949 259.574 181.949C260.304 181.949 260.914 182.119 261.407 182.46C261.904 182.801 262.271 183.27 262.508 183.866H262.621C262.882 183.284 263.296 182.82 263.864 182.474C264.432 182.124 265.11 181.949 265.896 181.949C266.885 181.949 267.692 182.259 268.317 182.879C268.947 183.5 269.262 184.435 269.262 185.685V193H267.138V185.884C267.138 185.145 266.937 184.61 266.535 184.278C266.132 183.947 265.652 183.781 265.093 183.781C264.402 183.781 263.864 183.994 263.481 184.42C263.097 184.842 262.905 185.384 262.905 186.047V193H260.789V185.749C260.789 185.157 260.604 184.681 260.235 184.321C259.866 183.961 259.385 183.781 258.793 183.781C258.391 183.781 258.019 183.888 257.678 184.101C257.342 184.309 257.07 184.6 256.861 184.974C256.658 185.348 256.556 185.782 256.556 186.274V193H254.432ZM276.703 193.22C275.681 193.22 274.788 192.986 274.026 192.517C273.264 192.048 272.672 191.393 272.25 190.55C271.829 189.707 271.618 188.722 271.618 187.595C271.618 186.464 271.829 185.474 272.25 184.626C272.672 183.779 273.264 183.121 274.026 182.652C274.788 182.183 275.681 181.949 276.703 181.949C277.726 181.949 278.619 182.183 279.381 182.652C280.143 183.121 280.735 183.779 281.157 184.626C281.578 185.474 281.789 186.464 281.789 187.595C281.789 188.722 281.578 189.707 281.157 190.55C280.735 191.393 280.143 192.048 279.381 192.517C278.619 192.986 277.726 193.22 276.703 193.22ZM276.71 191.438C277.373 191.438 277.923 191.262 278.358 190.912C278.794 190.562 279.116 190.095 279.324 189.513C279.537 188.93 279.644 188.289 279.644 187.588C279.644 186.892 279.537 186.253 279.324 185.67C279.116 185.083 278.794 184.612 278.358 184.257C277.923 183.902 277.373 183.724 276.71 183.724C276.043 183.724 275.489 183.902 275.049 184.257C274.613 184.612 274.289 185.083 274.076 185.67C273.867 186.253 273.763 186.892 273.763 187.588C273.763 188.289 273.867 188.93 274.076 189.513C274.289 190.095 274.613 190.562 275.049 190.912C275.489 191.262 276.043 191.438 276.71 191.438ZM289.251 182.091V183.795H283.293V182.091H289.251ZM284.891 179.477H287.014V189.797C287.014 190.209 287.076 190.519 287.199 190.727C287.322 190.931 287.48 191.071 287.675 191.146C287.873 191.217 288.089 191.253 288.321 191.253C288.491 191.253 288.641 191.241 288.768 191.217C288.896 191.194 288.996 191.175 289.067 191.161L289.45 192.915C289.327 192.962 289.152 193.009 288.925 193.057C288.697 193.109 288.413 193.137 288.072 193.142C287.514 193.152 286.993 193.052 286.51 192.844C286.027 192.635 285.636 192.313 285.338 191.878C285.04 191.442 284.891 190.895 284.891 190.237V179.477ZM291.6 193V182.091H293.724V193H291.6ZM292.673 180.408C292.304 180.408 291.986 180.285 291.721 180.038C291.461 179.787 291.331 179.489 291.331 179.143C291.331 178.793 291.461 178.495 291.721 178.249C291.986 177.998 292.304 177.872 292.673 177.872C293.042 177.872 293.357 177.998 293.617 178.249C293.883 178.495 294.015 178.793 294.015 179.143C294.015 179.489 293.883 179.787 293.617 180.038C293.357 180.285 293.042 180.408 292.673 180.408ZM305.913 182.091L301.957 193H299.685L295.722 182.091H298.001L300.764 190.486H300.878L303.633 182.091H305.913ZM310.771 193.241C310.08 193.241 309.455 193.114 308.896 192.858C308.338 192.598 307.895 192.221 307.568 191.729C307.246 191.236 307.085 190.633 307.085 189.918C307.085 189.302 307.204 188.795 307.44 188.398C307.677 188 307.997 187.685 308.399 187.453C308.802 187.221 309.251 187.046 309.748 186.928C310.246 186.809 310.752 186.719 311.268 186.658C311.922 186.582 312.452 186.52 312.859 186.473C313.266 186.421 313.562 186.338 313.747 186.224C313.932 186.111 314.024 185.926 314.024 185.67V185.621C314.024 185 313.849 184.52 313.498 184.179C313.153 183.838 312.637 183.668 311.95 183.668C311.235 183.668 310.672 183.826 310.26 184.143C309.853 184.456 309.571 184.804 309.415 185.188L307.419 184.733C307.656 184.07 308.001 183.535 308.456 183.128C308.915 182.716 309.443 182.418 310.04 182.233C310.636 182.044 311.264 181.949 311.922 181.949C312.357 181.949 312.819 182.001 313.307 182.105C313.799 182.205 314.258 182.389 314.685 182.659C315.115 182.929 315.468 183.315 315.743 183.817C316.017 184.314 316.155 184.96 316.155 185.756V193H314.081V191.509H313.996C313.858 191.783 313.652 192.053 313.378 192.318C313.103 192.583 312.75 192.804 312.32 192.979C311.889 193.154 311.373 193.241 310.771 193.241ZM311.233 191.537C311.82 191.537 312.322 191.421 312.739 191.189C313.16 190.957 313.48 190.654 313.697 190.28C313.92 189.901 314.031 189.496 314.031 189.065V187.659C313.955 187.735 313.809 187.806 313.591 187.872C313.378 187.934 313.134 187.988 312.859 188.036C312.585 188.078 312.317 188.118 312.057 188.156C311.796 188.189 311.579 188.218 311.403 188.241C310.991 188.294 310.615 188.381 310.274 188.504C309.938 188.627 309.668 188.805 309.464 189.037C309.266 189.264 309.166 189.567 309.166 189.946C309.166 190.472 309.36 190.869 309.748 191.139C310.137 191.404 310.632 191.537 311.233 191.537ZM324.076 182.091V183.795H318.117V182.091H324.076ZM319.715 179.477H321.838V189.797C321.838 190.209 321.9 190.519 322.023 190.727C322.146 190.931 322.305 191.071 322.499 191.146C322.698 191.217 322.913 191.253 323.145 191.253C323.316 191.253 323.465 191.241 323.593 191.217C323.72 191.194 323.82 191.175 323.891 191.161L324.274 192.915C324.151 192.962 323.976 193.009 323.749 193.057C323.522 193.109 323.237 193.137 322.897 193.142C322.338 193.152 321.817 193.052 321.334 192.844C320.851 192.635 320.46 192.313 320.162 191.878C319.864 191.442 319.715 190.895 319.715 190.237V179.477ZM275.936 217V206.091H278.06V217H275.936ZM277.009 204.408C276.639 204.408 276.322 204.285 276.057 204.038C275.797 203.787 275.666 203.489 275.666 203.143C275.666 202.793 275.797 202.495 276.057 202.249C276.322 201.998 276.639 201.872 277.009 201.872C277.378 201.872 277.693 201.998 277.953 202.249C278.219 202.495 278.351 202.793 278.351 203.143C278.351 203.489 278.219 203.787 277.953 204.038C277.693 204.285 277.378 204.408 277.009 204.408ZM285.512 217.22C284.489 217.22 283.597 216.986 282.834 216.517C282.072 216.048 281.48 215.393 281.059 214.55C280.637 213.707 280.427 212.722 280.427 211.595C280.427 210.464 280.637 209.474 281.059 208.626C281.48 207.779 282.072 207.121 282.834 206.652C283.597 206.183 284.489 205.949 285.512 205.949C286.535 205.949 287.427 206.183 288.19 206.652C288.952 207.121 289.544 207.779 289.965 208.626C290.387 209.474 290.597 210.464 290.597 211.595C290.597 212.722 290.387 213.707 289.965 214.55C289.544 215.393 288.952 216.048 288.19 216.517C287.427 216.986 286.535 217.22 285.512 217.22ZM285.519 215.438C286.182 215.438 286.731 215.262 287.167 214.912C287.602 214.562 287.924 214.095 288.133 213.513C288.346 212.93 288.452 212.289 288.452 211.588C288.452 210.892 288.346 210.253 288.133 209.67C287.924 209.083 287.602 208.612 287.167 208.257C286.731 207.902 286.182 207.724 285.519 207.724C284.851 207.724 284.297 207.902 283.857 208.257C283.422 208.612 283.097 209.083 282.884 209.67C282.676 210.253 282.572 210.892 282.572 211.588C282.572 212.289 282.676 212.93 282.884 213.513C283.097 214.095 283.422 214.562 283.857 214.912C284.297 215.262 284.851 215.438 285.519 215.438ZM295.091 210.523V217H292.968V206.091H295.006V207.866H295.141C295.392 207.289 295.785 206.825 296.32 206.474C296.86 206.124 297.539 205.949 298.358 205.949C299.102 205.949 299.753 206.105 300.311 206.418C300.87 206.725 301.303 207.185 301.611 207.795C301.919 208.406 302.073 209.161 302.073 210.061V217H299.949V210.317C299.949 209.526 299.743 208.908 299.331 208.463C298.919 208.013 298.353 207.788 297.634 207.788C297.141 207.788 296.703 207.895 296.32 208.108C295.941 208.321 295.64 208.634 295.418 209.045C295.2 209.453 295.091 209.945 295.091 210.523Z" fill="black"/>
<path d="M443.234 403.096C443.234 403.096 447.628 481.233 468.596 501.687C489.565 522.141 556.584 564.413 556.584 564.413L563.984 548.05C563.984 548.05 501.812 496.915 495.443 480.779C489.369 465.388 505.58 387.403 505.58 387.403L443.234 403.096Z" fill="#D5BD99"/>
<path d="M524.452 387.403C520.994 433.394 481.668 465.436 469.591 502.641C457.051 541.275 446.601 599.783 446.601 599.783H428.407C428.407 599.783 435.457 514.247 439.641 493.592C443.825 472.938 463.229 396.968 463.229 396.968L524.452 387.403Z" fill="#D5BD99"/>
<path opacity="0.3" d="M524.04 391.477C518.832 390.748 513.591 390.213 508.335 389.92L504.963 390.447C505.01 390.212 505.055 389.992 505.097 389.781C502.257 389.674 499.414 389.638 496.572 389.67L474.703 395.175L463.228 396.968C463.228 396.968 463.122 397.383 462.929 398.139L443.234 403.096C443.234 403.096 443.533 408.386 444.342 416.57C445.855 417.087 447.338 417.432 448.456 417.621C452.68 418.339 457.003 418.003 461.27 417.616C481.785 415.754 502.535 412.663 521.43 404.622C522.6 400.363 523.488 395.986 524.04 391.477Z" fill="#D5BD99"/>
<path d="M496.239 266.67C496.822 263.592 497.404 260.514 497.987 257.436C498.521 254.616 499.055 251.736 498.662 248.894C498.269 246.052 496.774 243.202 494.201 241.93C493.227 237.147 488.818 233.526 484.153 232.086C479.49 230.644 474.492 230.918 469.62 231.234C464.748 231.55 459.763 231.883 455.068 230.55C453.941 230.23 452.765 229.812 451.627 230.092C450.243 230.434 449.296 231.732 448.787 233.063C447.438 236.59 448.544 240.914 451.424 243.358C449.718 243.261 448.031 245.103 447.654 246.77C447.277 248.435 447.826 250.191 448.69 251.665C449.555 253.139 450.72 254.409 451.729 255.787C454.241 259.22 455.765 263.37 456.074 267.614C469.611 269.191 483.214 270.672 496.239 266.67Z" fill="#473533"/>
<path d="M489.822 279.179H469.933V297.002H489.822V279.179Z" fill="#FF9981"/>
<path opacity="0.3" d="M469.933 294.931C488.159 293.745 489.822 281.115 489.822 281.115L469.933 281.433V294.931Z" fill="#E79B77"/>
<path d="M455.447 257.628C454.509 266.345 451.966 286.126 465.023 291.6C479.388 297.62 502.921 275.899 494.381 252.065C485.845 228.232 457.551 238.069 455.447 257.628Z" fill="#FF9981"/>
<path d="M499.514 259.835C501.143 260.43 501.912 262.158 502.178 263.746C502.95 268.344 500.802 273.227 496.784 276.002C495.507 276.884 493.786 277.574 492.33 276.932C490.972 276.334 490.42 274.828 490.213 273.463C489.543 269.055 491.106 263.36 495.203 260.714C496.427 259.924 498.01 259.287 499.514 259.835Z" fill="#FF9981"/>
<path d="M498.961 267.251C498.74 267.034 498.417 267.02 498.166 267.193C498.113 267.231 498.058 267.268 498.002 267.304C497.991 267.311 497.906 267.363 497.888 267.376C497.779 267.438 497.67 267.499 497.557 267.554C497.318 267.674 497.068 267.778 496.81 267.863C496.778 267.874 496.746 267.885 496.714 267.895C496.771 267.879 496.768 267.879 496.707 267.897C496.641 267.915 496.576 267.935 496.51 267.951C496.391 267.981 496.269 268.008 496.148 268.031C496.653 267.09 497.354 266.238 498.233 265.541C498.779 265.108 498.038 264.321 497.491 264.755C495.424 266.391 494.174 268.814 494.116 271.336C494.102 271.999 495.226 272.085 495.24 271.419C495.258 270.632 495.41 269.861 495.667 269.125C496.848 269.014 497.957 268.642 498.91 267.981C499.142 267.817 499.162 267.447 498.961 267.251Z" fill="#554747"/>
<path d="M472.066 261.15C475.011 259.937 478.644 260.328 481.267 262.142C479.18 261.677 476.988 261.65 474.875 261.925C474.337 261.995 473.794 262.09 473.253 262.038C472.71 261.984 472.361 261.588 472.066 261.15Z" fill="#554747"/>
<path d="M465.59 261.734C462.669 260.846 459.301 261.623 457.064 263.701C458.967 263.016 461.025 262.756 463.048 262.804C463.562 262.816 464.084 262.852 464.588 262.741C465.091 262.631 465.368 262.198 465.59 261.734Z" fill="#554747"/>
<path d="M469.574 274.137C469.809 274.037 470.042 273.901 470.181 273.685C470.32 273.469 470.336 273.16 470.163 272.97C469.979 272.77 469.668 272.772 469.397 272.788C468.691 272.831 467.987 272.876 467.281 272.918C467.028 272.935 466.753 272.958 466.565 273.129C465.927 273.705 467.094 274.158 467.469 274.262C468.16 274.453 468.914 274.416 469.574 274.137Z" fill="#554747"/>
<path d="M475.3 267.812C475.393 268.368 475.573 268.932 475.97 269.331C476.368 269.729 477.028 269.906 477.51 269.617C477.833 269.424 478.021 269.065 478.148 268.709C478.359 268.107 478.435 267.457 478.367 266.821C478.307 266.244 478.11 265.652 477.685 265.259C477.219 264.829 476.186 264.652 475.745 265.209C475.189 265.911 475.161 266.972 475.3 267.812Z" fill="#473533"/>
<path d="M459.561 269.205C459.573 269.768 459.672 270.354 460.007 270.804C460.345 271.255 460.972 271.524 461.49 271.306C461.839 271.162 462.076 270.835 462.25 270.499C462.544 269.933 462.712 269.3 462.737 268.662C462.759 268.082 462.65 267.469 462.283 267.019C461.883 266.526 460.886 266.204 460.37 266.694C459.723 267.306 459.543 268.353 459.561 269.205Z" fill="#473533"/>
<path opacity="0.3" d="M470.082 282.553C470.32 282.594 470.566 282.664 470.74 282.832C470.915 283 470.99 283.291 470.849 283.488C470.677 283.729 470.318 283.702 470.021 283.686C469.594 283.664 469.166 283.722 468.76 283.856C468.555 283.923 468.355 284.011 468.146 284.063C467.936 284.116 467.71 284.132 467.506 284.061C466.806 283.813 467.145 283.071 467.647 282.859C468.415 282.532 469.255 282.407 470.082 282.553Z" fill="#E79B77"/>
<path d="M466.052 281.321C468.544 281.732 471.176 281.376 473.394 280.088C473.611 279.963 473.829 279.824 473.986 279.618C474.141 279.413 474.227 279.127 474.147 278.875C474.039 278.546 473.68 278.38 473.359 278.403C473.037 278.426 472.741 278.593 472.451 278.745C470.604 279.711 468.489 280.227 466.479 279.777C465.816 279.629 465.169 279.377 464.496 279.305C464.272 279.282 464.042 279.279 463.831 279.363C463.62 279.447 463.433 279.629 463.388 279.866C463.29 280.383 464.019 280.66 464.353 280.824C464.887 281.087 465.471 281.226 466.052 281.321Z" fill="#473533"/>
<path d="M454.464 244.945C455.386 247.237 457.103 249.156 459.12 250.583C461.137 252.011 463.45 252.97 465.814 253.692C472.517 255.739 479.994 255.866 486.366 252.947C487.224 257.599 489.747 262.046 493.4 265.047C496.117 262.007 497.182 257.655 496.744 253.599C495.953 246.28 490.695 239.791 483.949 236.84C477.203 233.888 469.228 234.303 462.491 237.27C459.08 238.774 455.525 241.376 454.464 244.945Z" fill="#473533"/>
<path d="M449.711 308.88C449.711 308.88 434.001 353.721 426.962 360.058C419.922 366.395 382.836 378.39 382.836 378.39C382.836 378.39 380.494 387.164 386.829 392.268C386.829 392.268 425.201 386.108 437.698 378.011C450.195 369.914 459.876 348.44 459.876 348.44L449.711 308.88Z" fill="#FF9981"/>
<path d="M389.903 391.28C389.903 391.28 378.034 402.655 370.403 401.578C362.775 400.503 377.008 397.328 378.916 395.629C378.916 395.629 365.265 400.479 362.485 397.575C359.705 394.67 376.122 392.567 376.974 391.659C376.974 391.659 356.273 395.742 356.004 391.829C355.743 388.034 374.816 386.861 374.816 386.861C374.816 386.861 356.868 385.333 358.244 380.672C359.109 377.74 372.535 384.783 377.415 380.036C377.415 380.036 367.062 374.507 369.069 372.506C371.073 370.505 382.069 378.101 385.937 377.37L389.903 391.28Z" fill="#FF9981"/>
<path d="M446.606 599.783C446.606 599.783 450.647 607.61 448.535 615.53C446.423 623.45 385.098 619.836 387.898 612.538C390.803 604.97 406.644 607.256 428.411 593.616C431.892 591.435 430.77 601.109 446.606 599.783Z" fill="#473533"/>
<path d="M563.066 547.228C563.066 547.228 571.835 548.066 577.351 554.129C582.868 560.193 546.635 609.802 542.013 603.497C537.222 596.958 547.72 584.876 548.032 559.189C548.084 555.08 555.611 561.259 563.066 547.228Z" fill="#473533"/>
<path d="M433.212 342.001C433.212 342.001 445.005 357.051 458.118 355.995C458.118 355.995 462.653 308.169 454.797 302.469C454.797 302.469 447.821 304.069 433.212 342.001Z" fill="#E6CFB0"/>
<path d="M447.552 347.322C449.261 348.183 451.048 348.888 452.884 349.431C453.524 349.621 453.797 348.622 453.16 348.435C446.046 346.332 439.839 341.642 435.805 335.452C435.655 335.821 435.5 336.215 435.348 336.591C438.433 341.117 442.656 344.858 447.552 347.322Z" fill="#E6CFB0"/>
<path d="M450.626 343.81C451.232 344.071 451.759 343.179 451.148 342.917C445.55 340.51 440.787 336.44 437.52 331.331C437.361 331.708 437.204 332.074 437.041 332.46C440.377 337.434 445.111 341.437 450.626 343.81Z" fill="#E6CFB0"/>
<path d="M439.985 405.169C437.748 402.328 449.145 362.359 449.607 309.687C449.743 294.118 511.485 289.638 511.274 298.613C509.871 358.459 523.462 399.838 520.557 401.247C504.22 409.167 449.895 417.753 439.985 405.169Z" fill="#E6CFB0"/>
<path d="M508.01 392.245C502.7 393.985 497.213 395.22 491.673 395.943C480.586 397.39 469.241 396.838 458.347 394.318C452.644 392.999 447.081 391.118 441.736 388.735C441.673 389.108 441.609 389.492 441.55 389.855C451.472 394.23 462.122 396.851 472.941 397.605C484.306 398.396 495.838 397.142 506.736 393.807C511.074 392.479 515.449 390.802 519.147 388.15C519.102 387.741 519.051 387.305 519 386.873C515.742 389.337 511.892 390.971 508.01 392.245Z" fill="#E6CFB0"/>
<path d="M457.402 381.646C452.695 380.607 448.08 379.208 443.564 377.53C443.385 378.67 443.208 379.781 443.033 380.86C462.005 387.808 482.879 389.23 502.652 385.093C507.86 384.003 512.966 382.486 517.947 380.621C517.761 379.556 517.572 378.45 517.381 377.312C498.331 384.501 477.294 386.041 457.402 381.646Z" fill="#E6CFB0"/>
<path d="M476.879 304.02C479.162 303.675 481.287 302.669 483.336 301.603C487.075 299.657 490.78 297.384 493.342 294.04C485.43 294.14 476.138 295.225 468.155 297.242C467.946 299.882 469.722 302.551 472.1 303.532C473.599 304.148 475.287 304.259 476.879 304.02Z" fill="#FF9981"/>
<path d="M517.223 345.346C517.223 345.346 534.949 334.609 535.036 322.289C535.036 322.289 513.966 298.535 509.76 296.42C509.76 296.42 501.469 319.034 509.76 335.05C509.76 335.05 515.69 342.266 517.223 345.346Z" fill="#E6CFB0"/>
<path d="M514.605 341.305C520.975 336.708 526.221 330.603 529.763 323.585C530.557 322.013 531.237 320.388 531.857 318.739C531.611 318.465 531.352 318.179 531.084 317.883C528.522 324.931 524.309 331.348 518.849 336.492C517.324 337.928 515.7 339.252 513.997 340.474C514.201 340.752 514.404 341.029 514.605 341.305Z" fill="#E6CFB0"/>
<path d="M527.982 314.475C525.243 321.493 520.955 327.882 515.496 333.073C514.116 334.385 512.651 335.601 511.133 336.75C511.331 337 511.545 337.27 511.771 337.558C517.854 332.932 522.92 327.015 526.492 320.251C527.339 318.649 528.073 316.993 528.748 315.311C528.495 315.038 528.241 314.759 527.982 314.475Z" fill="#E6CFB0"/>
<path d="M507.575 455.813C504.879 448.185 502.09 440.299 498.624 432.79C498.415 432.336 498.187 431.891 497.972 431.439C495.464 421.788 495.085 411.182 496.634 401.302C496.82 400.116 496.055 398.997 494.874 398.776L492.182 398.274C490.969 398.047 489.784 398.858 489.593 400.076C488.818 405.011 488.543 410.02 488.705 415.017C485.284 409.849 481.516 404.909 477.395 400.246C476.655 399.41 475.363 399.349 474.54 400.101L472.212 402.222C471.404 402.956 471.349 404.194 472.071 405.013C480.223 414.247 486.969 424.591 492.135 435.786C495.462 442.993 498.195 450.722 500.836 458.196C505.252 470.681 509.817 483.592 517.383 494.948L523.33 490.985C516.258 480.369 512.039 468.441 507.575 455.813Z" fill="#C6CC5A"/>
<path d="M477.225 412.561C476.834 412.203 476.4 411.85 475.878 411.762C475.357 411.674 474.735 411.96 474.638 412.48C474.52 413.109 475.153 413.593 475.682 413.952C479.912 416.816 481.558 421.358 481.706 426.253C484.504 426.542 482.53 421.073 482.088 419.862C481.113 417.195 479.458 414.374 477.225 412.561Z" fill="#55592E"/>
<path d="M475.715 417.746C472.767 416.503 469.385 416.319 466.319 417.232C467.64 420.167 470.084 422.579 473.033 423.863C475.379 424.885 478.028 425.184 480.547 424.744C481.907 424.507 482.85 424.292 481.918 422.893C481.217 421.843 480.374 420.887 479.42 420.06C478.316 419.102 477.064 418.314 475.715 417.746Z" fill="#55592E"/>
<path d="M486.427 410.883C487.662 413.25 487.973 416.083 487.285 418.663C486.892 420.137 486.172 421.541 485.198 422.717C484.589 423.453 483.149 424.441 482.579 423.108C482.093 421.972 482.358 420.094 482.52 418.908C482.713 417.498 483.112 416.117 483.703 414.824C484.371 413.366 485.289 412.017 486.427 410.883Z" fill="#55592E"/>
<path d="M476.285 428.097C475.897 433.665 475.511 439.232 475.123 444.801C474.83 449.01 474.545 453.3 475.543 457.4C477.383 464.955 484.01 471.226 491.719 472.234C499.429 473.243 507.644 468.643 510.444 461.389C513.243 454.136 510.011 444.956 503.099 441.396C501.018 440.324 498.677 439.724 496.796 438.33C494.384 436.547 493.03 433.701 491.853 430.943C490.674 428.184 489.512 425.297 487.322 423.246C485.519 421.56 481.785 420.173 479.315 421.115C476.624 422.14 476.458 425.608 476.285 428.097Z" fill="#93A851"/>
<path d="M550.624 401.93C550.685 398.995 550.605 396.011 549.735 393.208C548.865 390.405 547.112 387.768 544.52 386.393C543.342 385.767 541.969 385.419 540.664 385.694C539.36 385.969 538.165 386.962 537.904 388.27C537.374 390.934 540.582 392.96 540.893 395.658C541.036 396.898 540.489 398.195 539.503 398.957C538.517 399.72 537.125 399.926 535.96 399.479C535.067 400.346 535.8 401.852 536.648 402.761C537.497 403.67 538.531 404.812 538.097 405.977C537.652 407.167 535.994 407.383 535.246 408.408C534.395 409.571 535.105 411.317 536.286 412.14C537.466 412.964 538.958 413.155 540.359 413.493C542.521 414.014 547.902 418.227 549.356 415.544C550.239 413.916 550.06 410.767 550.23 408.934C550.444 406.604 550.576 404.267 550.624 401.93Z" fill="#55592E"/>
<path d="M555.764 410.975C558.903 408.124 562.057 404.663 562.248 400.425C562.305 399.178 561.823 397.631 560.586 397.449C559.498 397.288 558.578 398.315 557.487 398.442C556.291 398.582 555.205 397.552 554.882 396.393C554.56 395.234 554.825 393.997 555.159 392.843C555.477 391.748 555.861 390.619 555.686 389.492C555.511 388.364 554.537 387.262 553.406 387.405C552.081 387.571 551.511 389.147 551.243 390.456C549.712 397.956 548.963 405.592 548.22 413.212C548.111 414.334 547.553 416.631 548.066 417.671C548.804 419.166 549.377 417.628 550.083 416.686C551.7 414.534 553.781 412.776 555.764 410.975Z" fill="#68703A"/>
<path d="M545.941 487.512C545.462 489.441 544.948 491.422 543.76 493.016C542.572 494.61 540.533 495.737 538.602 495.265C535.363 494.474 534.622 490.272 534.536 486.94C534.062 468.547 533.591 450.155 533.117 431.762C533.03 428.357 532.985 424.77 534.62 421.784C536.749 417.9 541.364 415.905 545.789 415.723C548.844 415.598 553.584 415.878 556.325 417.434C559.321 419.135 558.217 421.063 557.781 424.452C556.861 431.607 555.801 438.742 554.604 445.855C552.25 459.843 549.359 473.743 545.941 487.512Z" fill="#CB6E43"/>
<path d="M557.246 428.309C557.154 428.981 557.06 429.651 556.967 430.321C553.312 431.615 549.453 432.258 545.594 432.245C541.326 432.231 537.063 431.414 533.088 429.823C533.084 429.187 533.091 428.549 533.123 427.915C540.727 431.155 549.528 431.309 557.246 428.309Z" fill="#B75B37"/>
<path d="M549.8 441.518C548.887 441.593 547.988 441.629 547.1 441.627C541.805 441.609 537.005 440.207 533.267 437.64C533.248 436.891 533.23 436.143 533.21 435.394C537.317 438.697 543.181 440.27 549.653 439.737C551.71 439.567 553.734 439.196 555.735 438.712C555.637 439.349 555.533 439.987 555.431 440.625C553.582 441.043 551.71 441.363 549.8 441.518Z" fill="#B75B37"/>
<path d="M543.978 451.472C541.038 451.428 537.289 451.002 533.572 449.595C533.555 448.939 533.538 448.283 533.521 447.629C537.229 449.169 541.046 449.641 544.005 449.686C547.439 449.745 550.805 449.319 554.094 448.698C553.985 449.321 553.87 449.943 553.761 450.566C550.714 451.113 547.6 451.487 544.453 451.476C544.294 451.476 544.135 451.476 543.978 451.472Z" fill="#B75B37"/>
<path d="M539.038 489.825C537.505 489.53 536.02 488.997 534.61 488.306C534.571 487.843 534.546 487.384 534.535 486.941C534.53 486.711 534.523 486.482 534.518 486.251C536.034 487.111 537.676 487.743 539.375 488.07C541.496 488.479 543.702 488.406 545.828 487.949C545.664 488.597 545.483 489.244 545.276 489.88C544.274 490.044 543.261 490.134 542.248 490.132C541.171 490.126 540.092 490.026 539.038 489.825Z" fill="#B75B37"/>
<path d="M548.314 477.536C548.175 478.146 548.021 478.751 547.88 479.361C547.206 479.403 546.531 479.436 545.856 479.434C541.898 479.421 537.943 478.614 534.28 477.111C534.264 476.463 534.247 475.816 534.23 475.167C538.629 477.117 543.528 477.946 548.314 477.536Z" fill="#B75B37"/>
<path d="M540.374 470.128C538.35 469.883 536.081 469.21 534.048 468.027C534.03 467.303 534.01 466.58 533.992 465.856C536.006 467.296 538.446 468.095 540.59 468.354C543.891 468.758 547.223 468.257 550.496 467.566C550.364 468.198 550.218 468.827 550.084 469.46C547.763 469.922 545.355 470.289 542.928 470.282C542.076 470.278 541.224 470.23 540.374 470.128Z" fill="#B75B37"/>
<path d="M533.79 458.073C533.772 457.4 533.754 456.726 533.738 456.051C539.389 459.002 546.201 459.81 552.365 458.2C552.242 458.84 552.109 459.478 551.984 460.117C549.98 460.569 547.925 460.809 545.864 460.801C541.705 460.791 537.535 459.855 533.79 458.073Z" fill="#B75B37"/>
<path d="M581.347 401.226C582.714 398.628 584.226 396.056 586.343 394.021C588.46 391.986 591.268 390.526 594.203 390.574C595.536 390.598 596.907 390.955 597.916 391.825C598.925 392.697 599.492 394.144 599.088 395.414C598.264 398.001 594.477 398.224 592.901 400.436C592.178 401.453 592.027 402.852 592.522 403.997C593.017 405.142 594.136 405.994 595.372 406.166C595.735 407.356 594.366 408.32 593.183 408.706C592.001 409.092 590.543 409.59 590.361 410.821C590.175 412.077 591.522 413.069 591.681 414.328C591.863 415.758 590.398 416.944 588.965 417.094C587.532 417.244 586.134 416.69 584.745 416.31C582.602 415.722 575.854 416.808 575.877 413.757C575.891 411.906 577.571 409.235 578.308 407.548C579.245 405.405 580.259 403.295 581.347 401.226Z" fill="#55592E"/>
<path d="M572.473 406.658C571.105 402.644 570.017 398.091 571.896 394.29C572.45 393.169 573.62 392.049 574.789 392.487C575.819 392.873 576.127 394.216 577.022 394.856C578.001 395.554 579.45 395.181 580.291 394.322C581.133 393.462 581.499 392.253 581.765 391.079C582.017 389.966 582.226 388.792 582.925 387.892C583.623 386.99 585.008 386.495 585.93 387.167C587.009 387.953 586.748 389.609 586.348 390.883C584.063 398.19 581.025 405.234 577.994 412.264C577.547 413.299 576.924 415.58 575.971 416.243C574.603 417.195 574.844 415.571 574.681 414.406C574.312 411.739 573.338 409.193 572.473 406.658Z" fill="#68703A"/>
<path d="M544.074 478.405C543.562 480.326 543.054 482.311 543.322 484.279C543.592 486.248 544.832 488.221 546.751 488.742C549.968 489.614 552.648 486.296 554.334 483.42C563.639 467.548 572.945 451.677 582.249 435.805C583.972 432.866 585.746 429.748 585.756 426.343C585.771 421.913 582.694 417.938 578.908 415.638C576.295 414.052 572.009 412.006 568.859 412.044C565.415 412.083 565.45 414.305 564.193 417.482C561.54 424.19 559.017 430.949 556.627 437.754C551.926 451.135 547.737 464.701 544.074 478.405Z" fill="#E38357"/>
<path d="M562.797 421.115C562.552 421.748 562.311 422.378 562.068 423.011C564.643 425.91 567.71 428.34 571.094 430.194C574.837 432.245 578.962 433.591 583.214 434.12C583.525 433.564 583.827 433.003 584.105 432.431C575.88 431.592 568.102 427.474 562.797 421.115Z" fill="#CB6E43"/>
<path d="M562.924 436.279C563.687 436.786 564.457 437.253 565.234 437.678C569.879 440.224 574.758 441.314 579.271 440.876C579.65 440.229 580.029 439.584 580.408 438.937C575.214 439.845 569.322 438.385 563.912 434.791C562.194 433.649 560.602 432.343 559.085 430.953C558.863 431.559 558.646 432.166 558.426 432.774C559.843 434.033 561.327 435.218 562.924 436.279Z" fill="#CB6E43"/>
<path d="M563.207 447.804C565.803 449.187 569.289 450.627 573.224 451.191C573.557 450.627 573.887 450.061 574.219 449.494C570.23 449.051 566.661 447.617 564.047 446.227C561.013 444.619 558.271 442.62 555.693 440.485C555.486 441.083 555.286 441.683 555.08 442.282C557.485 444.233 560.031 446.066 562.789 447.577C562.928 447.654 563.068 447.731 563.207 447.804Z" fill="#CB6E43"/>
<path d="M548.999 483.765C550.483 484.249 552.04 484.5 553.608 484.576C553.865 484.189 554.11 483.801 554.333 483.419C554.45 483.22 554.566 483.022 554.682 482.824C552.938 482.842 551.196 482.604 549.551 482.068C547.496 481.4 545.601 480.269 543.961 478.842C543.791 479.488 543.637 480.142 543.509 480.8C544.307 481.427 545.151 481.997 546.037 482.483C546.985 483.001 547.977 483.435 548.999 483.765Z" fill="#CB6E43"/>
<path d="M546.816 468.525C546.642 469.125 546.485 469.729 546.313 470.331C546.882 470.696 547.457 471.05 548.05 471.373C551.519 473.274 555.373 474.482 559.305 474.937C559.632 474.378 559.961 473.819 560.288 473.26C555.498 472.84 550.808 471.198 546.816 468.525Z" fill="#CB6E43"/>
<path d="M557.35 465.877C559.242 466.639 561.552 467.149 563.903 467.095C564.269 466.471 564.635 465.846 565.002 465.221C562.543 465.509 560.021 465.028 558.018 464.219C554.933 462.975 552.258 460.928 549.727 458.739C549.537 459.357 549.36 459.977 549.173 460.595C550.981 462.121 552.912 463.608 555.04 464.774C555.787 465.187 556.557 465.557 557.35 465.877Z" fill="#CB6E43"/>
<path d="M568.935 458.509C569.277 457.927 569.618 457.346 569.957 456.764C563.583 456.616 557.23 454.03 552.613 449.641C552.412 450.261 552.219 450.883 552.019 451.502C553.555 452.867 555.238 454.07 557.046 455.061C560.696 457.062 564.796 458.257 568.935 458.509Z" fill="#CB6E43"/>
<path d="M467.278 442.694L482.269 498.611C482.73 500.333 484.292 501.53 486.075 501.53H563.189C564.955 501.53 566.505 500.355 566.982 498.656L582.683 442.694H467.278ZM492.601 468.106C488.799 468.106 485.716 465.024 485.716 461.22C485.716 457.417 488.797 454.335 492.601 454.335C496.405 454.335 499.486 457.417 499.486 461.22C499.486 465.024 496.403 468.106 492.601 468.106ZM508.859 487.886C505.057 487.886 501.973 484.804 501.973 481.001C501.973 477.197 505.057 474.116 508.859 474.116C512.662 474.116 515.744 477.197 515.744 481.001C515.744 484.803 512.66 487.886 508.859 487.886ZM525.649 468.106C521.847 468.106 518.763 465.024 518.763 461.22C518.763 457.417 521.845 454.335 525.649 454.335C529.452 454.335 532.534 457.417 532.534 461.22C532.534 465.024 529.452 468.106 525.649 468.106ZM542.39 487.886C538.589 487.886 535.505 484.804 535.505 481.001C535.505 477.197 538.587 474.116 542.39 474.116C546.194 474.116 549.276 477.197 549.276 481.001C549.276 484.803 546.194 487.886 542.39 487.886ZM558.698 468.106C554.894 468.106 551.813 465.024 551.813 461.22C551.813 457.417 554.894 454.335 558.698 454.335C562.5 454.335 565.583 457.417 565.583 461.22C565.583 465.024 562.5 468.106 558.698 468.106Z" fill="#DF6969"/>
<path d="M581.357 433.932H467.689C463.818 433.932 460.679 437.071 460.679 440.942C460.679 444.814 463.818 447.953 467.689 447.953H581.357C585.228 447.953 588.367 444.814 588.367 440.942C588.367 437.071 585.228 433.932 581.357 433.932Z" fill="#F28181"/>
<path d="M515.075 400.916C512.817 401.57 511.518 403.932 512.172 406.188L522.02 440.176C522.673 442.434 525.035 443.733 527.292 443.079C529.55 442.425 530.849 440.063 530.195 437.807L520.347 403.819C519.695 401.561 517.333 400.261 515.075 400.916Z" fill="#DF6969"/>
<path d="M527.115 401.248C527.115 401.248 530.725 420.046 523.856 419.21C520.964 418.858 523.772 415.094 523.64 412.541C523.64 412.541 521.612 421.189 517.608 421.541C513.605 421.893 519.504 412.803 519.327 411.572C519.327 411.572 514.294 421.863 511.073 419.628C507.949 417.459 514.235 410.256 514.235 410.256C514.235 410.256 507.263 417.136 504.484 413.148C502.737 410.64 511.188 410.736 510.536 403.96C510.536 403.96 502.208 406.449 501.899 403.633C501.592 400.817 511.934 399.12 513.783 395.644L527.115 401.248Z" fill="#FF9981"/>
<path d="M541.194 347.74C540.733 342.11 537.666 335.191 533.655 328.322C530.421 335.754 522.335 341.89 518.855 344.277C520.538 346.927 522.023 349.973 522.714 353.196C524.826 363.052 513.781 395.644 513.781 395.644L527.114 401.249C527.114 401.249 542.956 369.214 541.194 347.74Z" fill="#FF9981"/>
<path d="M572.672 168.289C556.658 186.991 539.524 177.398 534.514 170.722C498.345 187.73 479.387 156.621 479.939 140.321C457.911 142.354 459.502 120.275 468.018 115.134C449.498 104.587 461.989 86.0568 473.197 87.8042C470.035 71.7109 482.387 67.9795 488.959 68.1255C493.763 51.329 511.76 54.3692 515.28 61.503C531.234 43.4598 544.662 57.7415 547.893 67.119C577.806 43.0722 593.294 76.759 588.314 87.4581C594.812 88.6647 595.379 95.5688 594.851 98.8701C620.712 90.7576 629.036 125.026 611.957 133.941C622.055 166.029 588.853 177.601 572.672 168.289Z" fill="white"/>
<path d="M506.52 191.469C508.531 195.446 504.791 203.389 499.098 204.681C493.406 205.973 487.686 202.262 486.47 196.905C485.255 191.549 487.278 186.746 492.751 185.504C498.224 184.262 505.304 186.112 506.52 191.469Z" fill="white"/>
<path d="M491.272 217.099C492.172 219.111 490.319 222.857 487.408 223.518C484.497 224.179 481.891 221.676 481.363 219.348C480.834 217.019 481.575 214.422 485.255 214.03C488.207 213.36 491.005 214.942 491.272 217.099Z" fill="white"/>
<path d="M492.728 84.8751L499.739 72.1305L501.661 73.1882L495.562 84.2775L501.336 87.4541L500.426 89.1094L492.728 84.8751ZM505.135 91.9755C504.53 91.6424 504.044 91.2291 503.677 90.7358C503.313 90.2384 503.107 89.6952 503.058 89.1063C503.013 88.5196 503.163 87.9131 503.508 87.2866C503.804 86.7473 504.152 86.3605 504.551 86.1261C504.951 85.8917 505.382 85.7699 505.847 85.7605C506.311 85.7512 506.79 85.8145 507.282 85.9504C507.775 86.0863 508.262 86.2517 508.744 86.4465C509.353 86.695 509.848 86.8967 510.227 87.0515C510.609 87.2021 510.908 87.2721 511.125 87.2615C511.341 87.251 511.511 87.1337 511.635 86.9096L511.659 86.8661C511.957 86.3226 512.036 85.8171 511.893 85.3495C511.754 84.8842 511.384 84.4861 510.783 84.1552C510.156 83.8107 509.586 83.6781 509.072 83.7575C508.565 83.835 508.15 84.0042 507.829 84.2649L506.299 82.9048C506.826 82.4381 507.387 82.1359 507.981 81.9982C508.582 81.8586 509.188 81.8517 509.8 81.9774C510.414 82.099 511.01 82.3184 511.586 82.6356C511.968 82.8455 512.347 83.1137 512.724 83.44C513.108 83.7644 513.421 84.1476 513.665 84.5895C513.912 85.0336 514.035 85.5417 514.034 86.1138C514.035 86.6818 513.844 87.3143 513.46 88.0112L509.969 94.3586L508.152 93.3591L508.871 92.0523L508.796 92.0112C508.543 92.1856 508.233 92.3229 507.864 92.4228C507.496 92.5228 507.081 92.5457 506.619 92.4915C506.157 92.4374 505.662 92.2654 505.135 91.9755ZM506.361 90.7045C506.876 90.9875 507.372 91.1278 507.848 91.1253C508.33 91.1251 508.756 91.0136 509.127 90.7909C509.504 90.5662 509.797 90.2652 510.005 89.8876L510.682 88.6555C510.579 88.6854 510.417 88.6768 510.194 88.6299C509.977 88.5812 509.738 88.5114 509.474 88.4205C509.213 88.3255 508.959 88.2318 508.713 88.1395C508.469 88.043 508.264 87.9629 508.099 87.8992C507.713 87.7463 507.341 87.6417 506.983 87.5852C506.629 87.5311 506.307 87.5566 506.017 87.6617C505.733 87.765 505.5 87.9826 505.317 88.3145C505.064 88.775 505.042 89.217 505.253 89.6406C505.465 90.0601 505.835 90.4147 506.361 90.7045ZM512.447 95.7219L517.705 86.1634L519.566 87.1869L514.308 96.7454L512.447 95.7219ZM519.456 85.2055C519.132 85.0275 518.914 84.7667 518.8 84.4232C518.693 84.0778 518.722 83.7537 518.889 83.4508C519.058 83.1438 519.316 82.9452 519.663 82.855C520.016 82.7629 520.354 82.8059 520.678 82.9839C521.001 83.1619 521.217 83.4236 521.324 83.769C521.438 84.1125 521.41 84.4377 521.241 84.7447C521.075 85.0476 520.815 85.2451 520.462 85.3371C520.115 85.4274 519.779 85.3835 519.456 85.2055ZM527.948 94.8374L526.097 94.2084C526.145 93.9539 526.146 93.6869 526.1 93.4075C526.058 93.1304 525.942 92.8588 525.754 92.5929C525.565 92.3269 525.278 92.0878 524.892 91.8756C524.365 91.5858 523.86 91.4621 523.377 91.5046C522.897 91.543 522.555 91.7468 522.352 92.116C522.176 92.4355 522.153 92.7577 522.282 93.0828C522.412 93.4078 522.705 93.7775 523.164 94.1918L524.49 95.3755C525.258 96.0626 525.741 96.7363 525.94 97.3968C526.139 98.0573 526.052 98.7257 525.68 99.4019C525.365 99.9744 524.919 100.393 524.34 100.659C523.768 100.923 523.118 101.019 522.39 100.948C521.666 100.879 520.918 100.633 520.146 100.208C519.076 99.6194 518.328 98.9108 517.903 98.0825C517.48 97.25 517.424 96.3684 517.736 95.4377L519.686 96.1531C519.54 96.6835 519.575 97.1649 519.791 97.5972C520.009 98.0254 520.399 98.3935 520.959 98.7016C521.568 99.037 522.126 99.1786 522.63 99.1264C523.136 99.07 523.491 98.8572 523.694 98.4879C523.859 98.1892 523.885 97.8766 523.772 97.5501C523.664 97.2259 523.411 96.8864 523.011 96.5317L521.589 95.287C520.808 94.593 520.327 93.9066 520.144 93.2277C519.965 92.551 520.062 91.8725 520.437 91.1921C520.747 90.6279 521.176 90.2209 521.724 89.9712C522.272 89.7214 522.889 89.6312 523.575 89.7006C524.264 89.7657 524.967 89.9957 525.684 90.3905C526.717 90.9587 527.407 91.63 527.754 92.4044C528.103 93.1747 528.168 93.9856 527.948 94.8374ZM537.343 100.005L535.492 99.3764C535.54 99.1218 535.541 98.8549 535.495 98.5754C535.453 98.2983 535.337 98.0268 535.149 97.7608C534.96 97.4949 534.673 97.2558 534.287 97.0436C533.76 96.7537 533.255 96.6301 532.772 96.6726C532.292 96.7109 531.95 96.9147 531.747 97.284C531.571 97.6034 531.548 97.9256 531.677 98.2507C531.807 98.5758 532.1 98.9454 532.559 99.3597L533.886 100.543C534.653 101.231 535.136 101.904 535.335 102.565C535.534 103.225 535.447 103.894 535.075 104.57C534.76 105.142 534.314 105.561 533.735 105.827C533.163 106.09 532.513 106.187 531.785 106.116C531.061 106.047 530.313 105.801 529.541 105.376C528.471 104.787 527.723 104.079 527.298 103.25C526.875 102.418 526.82 101.536 527.132 100.606L529.081 101.321C528.935 101.851 528.97 102.333 529.186 102.765C529.404 103.193 529.794 103.561 530.354 103.869C530.964 104.205 531.521 104.347 532.025 104.294C532.531 104.238 532.886 104.025 533.089 103.656C533.254 103.357 533.28 103.045 533.168 102.718C533.06 102.394 532.806 102.054 532.407 101.7L530.984 100.455C530.204 99.761 529.722 99.0745 529.539 98.3956C529.36 97.7189 529.457 97.0404 529.832 96.36C530.142 95.7958 530.571 95.3888 531.119 95.1391C531.667 94.8894 532.284 94.7992 532.97 94.8685C533.659 94.9337 534.362 95.1637 535.079 95.5585C536.112 96.1267 536.802 96.798 537.149 97.5724C537.498 98.3426 537.563 99.1536 537.343 100.005ZM539.615 110.917C538.673 110.399 537.972 109.752 537.513 108.975C537.061 108.197 536.852 107.339 536.887 106.401C536.928 105.462 537.221 104.497 537.766 103.505C538.305 102.526 538.962 101.763 539.738 101.217C540.518 100.674 541.353 100.374 542.243 100.318C543.137 100.264 544.029 100.481 544.916 100.969C545.456 101.266 545.929 101.643 546.337 102.1C546.745 102.556 547.046 103.086 547.238 103.689C547.43 104.292 547.475 104.963 547.372 105.7C547.271 106.434 546.982 107.234 546.505 108.101L546.142 108.761L538.544 104.581L539.311 103.187L545.086 106.364C545.355 105.874 545.494 105.386 545.503 104.899C545.513 104.408 545.399 103.953 545.159 103.535C544.923 103.118 544.565 102.778 544.083 102.513C543.561 102.226 543.033 102.103 542.502 102.146C541.977 102.187 541.496 102.355 541.058 102.649C540.627 102.941 540.28 103.326 540.018 103.803L539.419 104.892C539.067 105.531 538.881 106.136 538.858 106.707C538.84 107.281 538.969 107.798 539.245 108.258C539.524 108.714 539.935 109.091 540.479 109.39C540.831 109.584 541.18 109.711 541.525 109.772C541.873 109.828 542.208 109.812 542.532 109.725C542.855 109.638 543.155 109.476 543.431 109.239L545.018 110.525C544.592 110.966 544.089 111.281 543.509 111.471C542.936 111.658 542.316 111.709 541.65 111.623C540.99 111.536 540.312 111.301 539.615 110.917ZM549.265 113.705L548.799 114.332C548.463 114.795 548.072 115.256 547.626 115.713C547.182 116.176 546.753 116.597 546.34 116.975C545.931 117.355 545.601 117.655 545.351 117.874L544.031 117.148C544.227 116.921 544.493 116.613 544.831 116.226C545.166 115.843 545.527 115.407 545.915 114.918C546.303 114.429 546.674 113.917 547.027 113.382L547.473 112.719L549.265 113.705ZM560.625 109.772L562.485 110.796L556.885 120.976C556.534 121.615 556.121 122.091 555.647 122.403C555.177 122.717 554.653 122.864 554.075 122.843C553.501 122.825 552.885 122.634 552.225 122.272C552.159 122.235 552.097 122.201 552.038 122.169C551.976 122.135 551.913 122.097 551.849 122.056L552.729 120.457C552.787 120.489 552.839 120.518 552.884 120.543C552.926 120.566 552.973 120.592 553.027 120.621C553.467 120.863 553.85 120.92 554.175 120.791C554.502 120.668 554.787 120.384 555.031 119.94L560.625 109.772ZM562.357 108.804C562.033 108.626 561.815 108.365 561.701 108.022C561.594 107.676 561.623 107.352 561.79 107.049C561.959 106.742 562.217 106.544 562.564 106.453C562.917 106.361 563.255 106.404 563.579 106.582C563.902 106.76 564.118 107.022 564.225 107.367C564.339 107.711 564.311 108.036 564.142 108.343C563.976 108.646 563.716 108.844 563.362 108.936C563.016 109.026 562.68 108.982 562.357 108.804ZM563.744 124.19C562.802 123.672 562.102 123.025 561.643 122.248C561.19 121.469 560.981 120.611 561.016 119.674C561.057 118.735 561.35 117.769 561.896 116.778C562.434 115.799 563.092 115.036 563.867 114.49C564.647 113.947 565.483 113.647 566.373 113.591C567.267 113.537 568.158 113.754 569.046 114.242C569.585 114.539 570.059 114.916 570.467 115.373C570.875 115.829 571.175 116.359 571.367 116.962C571.56 117.565 571.605 118.236 571.501 118.973C571.401 119.707 571.112 120.507 570.635 121.374L570.272 122.034L562.674 117.854L563.44 116.46L569.215 119.637C569.485 119.147 569.624 118.659 569.632 118.172C569.643 117.681 569.528 117.226 569.288 116.807C569.052 116.391 568.694 116.051 568.213 115.786C567.69 115.499 567.163 115.376 566.631 115.419C566.106 115.46 565.625 115.627 565.188 115.922C564.757 116.214 564.41 116.599 564.147 117.076L563.548 118.165C563.197 118.804 563.01 119.409 562.988 119.98C562.969 120.554 563.098 121.071 563.375 121.531C563.654 121.987 564.065 122.364 564.608 122.663C564.961 122.857 565.31 122.984 565.655 123.044C566.002 123.1 566.338 123.085 566.661 122.998C566.985 122.911 567.284 122.749 567.561 122.512L569.147 123.798C568.721 124.239 568.218 124.554 567.638 124.743C567.065 124.931 566.446 124.982 565.779 124.896C565.119 124.809 564.441 124.573 563.744 124.19ZM481.012 105.821L486.269 96.2631L488.055 97.2455L487.2 98.8012L487.318 98.8662C487.807 98.4489 488.358 98.2173 488.973 98.1715C489.589 98.1216 490.213 98.27 490.843 98.6169C491.482 98.9683 491.935 99.412 492.202 99.9481C492.474 100.486 492.569 101.074 492.489 101.711L492.589 101.766C493.098 101.381 493.684 101.174 494.349 101.145C495.015 101.112 495.693 101.285 496.382 101.663C497.249 102.14 497.807 102.801 498.055 103.646C498.308 104.493 498.133 105.464 497.531 106.559L494.005 112.969L492.145 111.945L495.574 105.71C495.93 105.063 496.012 104.497 495.819 104.013C495.626 103.528 495.285 103.151 494.795 102.882C494.19 102.549 493.616 102.477 493.075 102.665C492.536 102.85 492.106 103.232 491.787 103.813L488.436 109.905L486.581 108.885L490.076 102.531C490.361 102.013 490.429 101.507 490.279 101.014C490.129 100.52 489.794 100.131 489.276 99.8459C488.923 99.6519 488.546 99.5661 488.145 99.5885C487.75 99.609 487.371 99.7329 487.008 99.9602C486.649 100.19 486.351 100.52 486.114 100.952L482.872 106.845L481.012 105.821ZM505.109 102.476L504.451 103.671C504.258 104.023 503.987 104.358 503.64 104.675C503.299 104.99 502.912 105.261 502.479 105.488C502.047 105.714 501.6 105.868 501.139 105.95L500.581 104.784C501.022 104.562 501.442 104.298 501.842 103.994C502.246 103.692 502.581 103.298 502.848 102.813L503.516 101.599L505.109 102.476ZM502.908 118.117C501.967 117.599 501.266 116.952 500.807 116.175C500.355 115.397 500.146 114.539 500.18 113.601C500.221 112.662 500.515 111.697 501.06 110.705C501.599 109.726 502.256 108.964 503.032 108.418C503.812 107.874 504.647 107.574 505.537 107.518C506.431 107.464 507.322 107.681 508.21 108.17C508.749 108.466 509.223 108.843 509.631 109.3C510.039 109.757 510.339 110.287 510.532 110.89C510.724 111.493 510.769 112.163 510.666 112.901C510.565 113.634 510.276 114.434 509.799 115.302L509.436 115.961L501.838 111.782L502.605 110.388L508.38 113.564C508.649 113.075 508.788 112.586 508.796 112.099C508.807 111.608 508.693 111.153 508.453 110.735C508.217 110.319 507.858 109.978 507.377 109.714C506.854 109.426 506.327 109.304 505.796 109.346C505.271 109.387 504.789 109.555 504.352 109.849C503.921 110.142 503.574 110.526 503.312 111.004L502.713 112.093C502.361 112.731 502.174 113.336 502.152 113.908C502.134 114.481 502.263 114.998 502.539 115.458C502.818 115.914 503.229 116.292 503.772 116.591C504.125 116.785 504.474 116.912 504.819 116.972C505.167 117.028 505.502 117.012 505.825 116.926C506.149 116.839 506.449 116.677 506.725 116.44L508.312 117.726C507.885 118.167 507.382 118.482 506.803 118.671C506.23 118.858 505.61 118.909 504.944 118.824C504.284 118.736 503.605 118.501 502.908 118.117ZM514.162 116.664L511.04 122.339L509.18 121.316L514.438 111.757L516.224 112.74L515.368 114.296L515.486 114.361C515.984 113.975 516.552 113.758 517.19 113.709C517.832 113.662 518.512 113.836 519.229 114.231C519.881 114.589 520.376 115.04 520.715 115.583C521.056 116.122 521.214 116.733 521.189 117.417C521.165 118.1 520.936 118.836 520.502 119.624L517.158 125.704L515.297 124.681L518.518 118.825C518.899 118.132 519.016 117.491 518.87 116.903C518.726 116.31 518.339 115.841 517.708 115.494C517.277 115.256 516.841 115.139 516.403 115.14C515.968 115.145 515.554 115.273 515.161 115.527C514.773 115.779 514.441 116.158 514.162 116.664ZM528.211 132.036C527.315 131.543 526.646 130.907 526.204 130.129C525.762 129.351 525.559 128.491 525.596 127.549C525.633 126.608 525.923 125.643 526.466 124.656C527.012 123.665 527.673 122.899 528.451 122.36C529.229 121.82 530.064 121.529 530.958 121.485C531.852 121.442 532.747 121.667 533.643 122.16C534.539 122.653 535.208 123.288 535.65 124.066C536.092 124.844 536.294 125.706 536.254 126.652C536.215 127.598 535.923 128.566 535.377 129.558C534.834 130.545 534.175 131.307 533.4 131.842C532.624 132.377 531.79 132.667 530.896 132.71C530.002 132.753 529.107 132.528 528.211 132.036ZM529.076 130.477C529.657 130.797 530.223 130.908 530.773 130.811C531.324 130.714 531.831 130.46 532.294 130.05C532.761 129.643 533.164 129.132 533.502 128.518C533.837 127.908 534.052 127.297 534.146 126.684C534.246 126.069 534.191 125.501 533.981 124.98C533.77 124.459 533.374 124.038 532.794 123.719C532.209 123.397 531.638 123.286 531.081 123.385C530.528 123.486 530.017 123.742 529.547 124.154C529.084 124.564 528.684 125.074 528.349 125.684C528.011 126.298 527.793 126.91 527.695 127.521C527.601 128.134 527.661 128.699 527.873 129.216C528.09 129.735 528.491 130.155 529.076 130.477ZM538.77 137.844C537.844 137.335 537.163 136.687 536.726 135.901C536.295 135.112 536.105 134.249 536.157 133.31C536.208 132.371 536.498 131.422 537.025 130.464C537.559 129.493 538.213 128.737 538.986 128.195C539.762 127.649 540.597 127.349 541.492 127.296C542.386 127.242 543.283 127.462 544.183 127.958C544.909 128.357 545.482 128.848 545.902 129.43C546.325 130.008 546.578 130.634 546.661 131.307C546.749 131.982 546.65 132.659 546.362 133.339L544.551 132.343C544.698 131.84 544.682 131.329 544.504 130.809C544.329 130.291 543.945 129.869 543.352 129.543C542.833 129.258 542.304 129.145 541.763 129.204C541.229 129.261 540.716 129.482 540.224 129.865C539.734 130.244 539.303 130.774 538.928 131.454C538.545 132.151 538.32 132.811 538.253 133.434C538.186 134.056 538.269 134.612 538.502 135.103C538.739 135.595 539.121 135.986 539.648 136.276C540.001 136.47 540.356 136.581 540.713 136.61C541.076 136.637 541.422 136.582 541.752 136.445C542.086 136.309 542.387 136.091 542.655 135.79L544.466 136.786C544.06 137.368 543.555 137.809 542.952 138.11C542.349 138.41 541.689 138.544 540.972 138.512C540.259 138.482 539.525 138.259 538.77 137.844ZM548.712 143.313C547.787 142.804 547.106 142.156 546.668 141.37C546.237 140.582 546.048 139.718 546.099 138.779C546.151 137.84 546.441 136.892 546.968 135.933C547.502 134.963 548.155 134.206 548.929 133.664C549.705 133.119 550.54 132.819 551.434 132.765C552.328 132.711 553.226 132.932 554.126 133.427C554.852 133.826 555.425 134.317 555.845 134.899C556.267 135.477 556.52 136.103 556.604 136.776C556.692 137.451 556.592 138.128 556.305 138.808L554.494 137.812C554.641 137.309 554.625 136.798 554.446 136.278C554.272 135.76 553.888 135.338 553.295 135.012C552.776 134.727 552.246 134.614 551.706 134.673C551.172 134.731 550.659 134.951 550.167 135.334C549.677 135.713 549.245 136.243 548.871 136.924C548.488 137.62 548.263 138.28 548.196 138.903C548.129 139.525 548.212 140.082 548.445 140.572C548.682 141.064 549.064 141.455 549.591 141.745C549.943 141.939 550.298 142.051 550.655 142.079C551.019 142.106 551.365 142.051 551.695 141.914C552.029 141.778 552.33 141.56 552.598 141.259L554.409 142.255C554.002 142.837 553.498 143.278 552.895 143.579C552.291 143.879 551.631 144.013 550.914 143.981C550.201 143.951 549.467 143.728 548.712 143.313ZM562.97 145.741L566.048 140.147L567.914 141.173L562.657 150.732L560.827 149.726L561.738 148.07L561.638 148.015C561.138 148.405 560.551 148.636 559.878 148.709C559.212 148.781 558.52 148.619 557.803 148.224C557.189 147.886 556.719 147.452 556.395 146.923C556.077 146.391 555.93 145.783 555.955 145.1C555.984 144.419 556.215 143.684 556.648 142.896L559.993 136.816L561.853 137.839L558.632 143.695C558.274 144.347 558.169 144.964 558.318 145.549C558.467 146.133 558.829 146.584 559.406 146.901C559.754 147.093 560.149 147.196 560.589 147.211C561.033 147.229 561.466 147.124 561.889 146.897C562.315 146.672 562.675 146.287 562.97 145.741ZM563.185 155.692L570.415 142.549L572.232 143.548L571.379 145.098L571.535 145.183C571.752 145.043 572.034 144.899 572.382 144.749C572.729 144.6 573.136 144.527 573.604 144.53C574.075 144.53 574.607 144.693 575.2 145.019C575.972 145.443 576.553 146.017 576.944 146.74C577.335 147.463 577.501 148.287 577.442 149.211C577.386 150.137 577.074 151.116 576.506 152.149C575.938 153.182 575.279 153.973 574.528 154.522C573.78 155.067 572.995 155.373 572.175 155.441C571.356 155.504 570.561 155.323 569.79 154.899C569.209 154.579 568.788 154.22 568.526 153.822C568.268 153.427 568.107 153.041 568.043 152.665C567.98 152.29 567.948 151.97 567.948 151.705L567.836 151.643L565.046 156.715L563.185 155.692ZM569.609 148.331C569.239 149.003 569.013 149.646 568.929 150.259C568.846 150.872 568.91 151.424 569.122 151.913C569.336 152.398 569.71 152.788 570.246 153.083C570.802 153.388 571.347 153.497 571.883 153.407C572.42 153.314 572.925 153.065 573.396 152.66C573.872 152.256 574.286 151.736 574.637 151.097C574.984 150.466 575.2 149.847 575.285 149.24C575.375 148.636 575.311 148.084 575.093 147.586C574.879 147.09 574.492 146.688 573.932 146.38C573.393 146.084 572.86 145.972 572.334 146.044C571.812 146.119 571.318 146.353 570.854 146.746C570.389 147.139 569.974 147.667 569.609 148.331ZM579.986 160.515C579.044 159.997 578.344 159.35 577.885 158.573C577.432 157.795 577.223 156.937 577.258 155.999C577.299 155.06 577.592 154.095 578.137 153.103C578.676 152.124 579.333 151.362 580.109 150.816C580.889 150.272 581.724 149.972 582.614 149.916C583.509 149.862 584.4 150.079 585.287 150.568C585.827 150.864 586.3 151.241 586.708 151.698C587.116 152.155 587.417 152.685 587.609 153.288C587.802 153.891 587.846 154.561 587.743 155.299C587.642 156.032 587.353 156.832 586.876 157.699L586.514 158.359L578.915 154.179L579.682 152.786L585.457 155.962C585.726 155.473 585.865 154.984 585.874 154.497C585.885 154.006 585.77 153.551 585.53 153.133C585.294 152.717 584.936 152.376 584.454 152.112C583.932 151.824 583.405 151.702 582.873 151.744C582.348 151.785 581.867 151.953 581.429 152.247C580.998 152.539 580.651 152.924 580.389 153.401L579.79 154.49C579.439 155.129 579.252 155.734 579.229 156.306C579.211 156.879 579.34 157.396 579.616 157.856C579.895 158.312 580.306 158.69 580.85 158.989C581.202 159.182 581.551 159.31 581.897 159.37C582.244 159.426 582.579 159.41 582.903 159.323C583.226 159.237 583.526 159.075 583.802 158.837L585.389 160.124C584.963 160.565 584.46 160.88 583.88 161.069C583.307 161.256 582.687 161.307 582.021 161.221C581.361 161.134 580.683 160.899 579.986 160.515ZM587.418 164.506C587.078 164.319 586.852 164.038 586.739 163.663C586.629 163.283 586.669 162.922 586.858 162.577C587.045 162.237 587.327 162.014 587.704 161.908C588.084 161.798 588.444 161.836 588.784 162.023C589.124 162.211 589.349 162.494 589.459 162.873C589.572 163.248 589.534 163.606 589.347 163.946C589.222 164.175 589.048 164.352 588.827 164.479C588.613 164.604 588.381 164.671 588.133 164.681C587.884 164.69 587.646 164.632 587.418 164.506Z" fill="black"/>
</svg>
