<svg width="149" height="144" viewBox="0 0 149 144" fill="none" xmlns="http://www.w3.org/2000/svg">
<path d="M73.1749 28.8068C104.962 22.1336 119.417 29.4542 119.417 29.4542C119.316 29.4542 119.221 29.4656 119.132 29.4816C120.725 29.9115 122.342 30.4486 123.961 31.0958C130.631 33.7622 135.993 37.755 139.121 41.9454C145.178 47.1071 147.588 56.8837 148.445 61.7599C150.016 69.7608 148.236 76.802 143.242 79.5782C142.92 79.7576 142.589 79.9148 142.251 80.0529C136.747 87.9375 137.858 98.9304 141.505 105.858C145.186 112.85 145.573 118.872 133.367 131.498C121.161 144.124 92.292 148.592 39.9796 138.297C-7.75782 128.902 -0.23445 95.4868 1.44641 89.714C1.73787 84.4046 4.1412 77.9531 8.46301 71.9396C8.8332 71.4245 9.21062 70.9216 9.59485 70.4318C18.7421 54.8762 43.3097 35.0766 73.1749 28.8068Z" fill="#D9DCB9"/>
<path d="M74.6511 90.2419L78.0282 93.7682L83.0267 89.588L79.4088 84.9961L74.6511 90.2419Z" fill="#FF9981"/>
<path d="M29.1293 95.1207H62.0996C63.9546 95.1207 65.4584 93.571 65.4584 91.6593V59.9065C65.4584 57.9951 63.9546 56.4455 62.0996 56.4455H29.1293C27.2744 56.4455 25.7706 57.9951 25.7706 59.9065V91.6593C25.7706 93.571 27.2744 95.1207 29.1293 95.1207Z" fill="#D5BD99"/>
<path d="M36.1254 95.1207H69.0957C70.9507 95.1207 72.4545 93.571 72.4545 91.6593V59.9065C72.4545 57.9951 70.9507 56.4455 69.0957 56.4455H36.1254C34.2705 56.4455 32.7667 57.9951 32.7667 59.9065V91.6593C32.7667 93.571 34.2705 95.1207 36.1254 95.1207Z" fill="#F3E1CA"/>
<path d="M25.8302 93.7641V96.0896C25.8302 96.7002 25.8671 97.295 25.9407 97.863C26.3074 100.741 27.5478 102.859 29.0219 102.859H64.9729C66.4469 102.859 67.6888 100.741 68.0569 97.863C68.1291 97.295 68.1674 96.7002 68.1674 96.0896V93.7641C68.1674 90.0265 66.7372 86.9949 64.9729 86.9949H29.0219C27.259 86.9949 25.8302 90.0265 25.8302 93.7641Z" fill="#D5BD99"/>
<path d="M45.5417 78.8317C45.5417 78.8317 60.5867 72.9252 65.9194 72.9267C71.252 72.9267 81.14 85.2474 81.14 85.2474L73.5785 90.9484L62.1783 83.1157L45.5417 78.8317Z" fill="#E6CFB0"/>
<path d="M77.0167 83.9893C77.0762 83.9893 77.1271 83.9411 77.1314 83.8798C77.1413 83.7777 77.3282 81.3702 76.0099 80.1022C74.8715 79.0093 73.7089 79.2909 73.3861 79.4018C73.1822 79.1406 72.426 78.3016 71.2649 78.4256C69.9013 78.5701 69.4241 81.0725 69.4043 81.179C69.3929 81.2432 69.434 81.3059 69.4963 81.3191C69.5586 81.3307 69.6209 81.2884 69.6322 81.2242C69.6379 81.1994 70.0967 78.7904 71.289 78.6635C72.5011 78.5395 73.243 79.6032 73.2501 79.6134C73.2827 79.6601 73.3408 79.6761 73.3917 79.6542C73.4427 79.6309 74.6336 79.1085 75.8499 80.2787C77.0861 81.465 76.902 83.8346 76.9006 83.8594C76.8949 83.9251 76.9416 83.982 77.0054 83.9878C77.0096 83.9893 77.0125 83.9893 77.0167 83.9893Z" fill="#FCF9F5"/>
<path d="M60.5498 68.1608C60.5498 68.1608 64.0544 66.3019 63.403 63.4318C62.7517 60.5602 59.8871 63.1472 59.8871 63.1472L58.6113 66.795L60.5498 68.1608Z" fill="#FF9981"/>
<path d="M62.487 66.2959L59.7838 65.4364C59.4964 65.3445 59.335 65.0308 59.4242 64.7346L61.1475 58.9798C61.2367 58.6836 61.5425 58.5173 61.83 58.6092L64.5331 59.4686C64.8206 59.5606 64.982 59.8743 64.8928 60.1719L63.1681 65.9252C63.0803 66.2214 62.7744 66.3878 62.487 66.2959Z" fill="#E6CFB0"/>
<path d="M62.076 66.1659L59.3742 65.3064C59.0868 65.2145 58.9253 64.8993 59.0145 64.6031L60.7378 58.8484C60.827 58.5522 61.1329 58.3859 61.4203 58.4778L64.1221 59.3372C64.411 59.4291 64.571 59.7443 64.4832 60.0405L62.7585 65.7938C62.6693 66.0914 62.3648 66.2578 62.076 66.1659Z" fill="#80BAFF"/>
<path d="M61.4086 64.9548C61.3307 65.2175 61.0829 65.3722 60.8563 65.2992C60.6284 65.2277 60.508 64.9563 60.5873 64.6937C60.6652 64.431 60.913 64.2778 61.141 64.3493C61.3675 64.4223 61.4879 64.6937 61.4086 64.9548Z" fill="#E6CFB0"/>
<path d="M57.3276 64.7564C57.3276 64.7564 58.4264 62.1533 58.8908 61.825C59.3567 61.4967 61.9621 60.4709 62.428 60.8883C62.8925 61.3056 60.9384 62.5327 60.9384 62.5327C60.9384 62.5327 60.566 66.4825 59.0777 66.7699C57.5881 67.0574 57.3276 64.7564 57.3276 64.7564Z" fill="#FF9981"/>
<path d="M48.3617 63.3457C48.3617 63.3457 53.7991 66.5572 54.1092 66.3982C54.4193 66.2391 57.0573 64.3364 57.0573 64.3364L61.7103 67.9171C61.7103 67.9171 58.1958 77.0512 53.1619 76.8352C48.128 76.6207 46.4741 70.4735 46.4741 70.4735L48.3617 63.3457Z" fill="#889782"/>
<path d="M30.9292 93.8605V96.186C30.9292 96.7965 30.9674 97.3913 31.0424 97.9593C31.4191 100.837 32.6879 102.955 34.1987 102.955H71.0233C72.5328 102.955 73.8044 100.837 74.1825 97.9593C74.2561 97.3913 74.2943 96.7965 74.2943 96.186V93.8605C74.2943 90.1228 72.8302 87.0912 71.0233 87.0912H34.1987C32.3933 87.0912 30.9292 90.1228 30.9292 93.8605Z" fill="#D5BD99"/>
<path d="M65.57 86.3659C65.57 89.9459 68.3864 92.8479 71.8599 92.8479C75.3348 92.8479 78.1498 89.9459 78.1498 86.3659C78.1498 82.7856 75.3348 79.8834 71.8599 79.8834C68.3864 79.8834 65.57 82.7856 65.57 86.3659Z" fill="#F3E1CA"/>
<path d="M69.067 86.3658C69.067 87.9553 70.3174 89.2437 71.8594 89.2437C73.4014 89.2437 74.6517 87.9553 74.6517 86.3658C74.6517 84.7772 73.4014 83.4887 71.8594 83.4887C70.3174 83.4887 69.067 84.7772 69.067 86.3658Z" fill="#D5BD99"/>
<path d="M67.6613 109.294H67.9261C68.5746 109.294 69.124 108.799 69.2104 108.137L70.1322 101.09H66.0725L66.367 108.017C66.3968 108.731 66.9674 109.294 67.6613 109.294Z" fill="#D7D7E2"/>
<path d="M59.7062 109.294H59.971C60.6195 109.294 61.1689 108.799 61.2553 108.137L62.1771 101.09H58.1174L58.412 108.017C58.4417 108.731 59.0124 109.294 59.7062 109.294Z" fill="#D5BD99"/>
<path d="M37.378 109.294H37.1132C36.4646 109.294 35.9152 108.799 35.8289 108.137L34.9085 101.09H38.9681L38.6722 108.017C38.6425 108.731 38.0718 109.294 37.378 109.294Z" fill="#D5BD99"/>
<path d="M29.3384 108.806H29.0736C28.4251 108.806 27.8756 108.312 27.7893 107.649L26.8674 100.603H30.9271L30.6326 107.529C30.6015 108.243 30.0308 108.806 29.3384 108.806Z" fill="#364568"/>
<path d="M39.771 89.3822C39.771 90.3952 44.3319 91.2166 49.9591 91.2166C55.5849 91.2166 60.1459 90.3952 60.1459 89.3822C60.1459 88.3692 55.5849 87.5479 49.9591 87.5479C44.3319 87.5479 39.771 88.3692 39.771 89.3822Z" fill="#D5BD99"/>
<path d="M61.7111 104.782L62.1769 109.713H68.6127V103.799L61.7111 104.782Z" fill="#FF9981"/>
<path d="M38.0815 79.6937C38.0815 79.6937 37.4188 86.673 39.2808 87.5662C41.1415 88.4594 53.6405 89.8232 54.3316 90.3814C55.0211 90.9397 59.6529 106.46 59.6529 106.46L70.9838 105.416C70.9838 105.416 66.8972 84.9772 62.9224 81.5716C60.1471 79.1932 48.9819 78.9846 48.9819 78.9846L38.0815 79.6937Z" fill="#E6CFB0"/>
<path d="M55.5476 87.8391C55.5773 87.8391 55.6311 87.856 55.7062 87.9536C55.811 88.0909 55.8506 88.2495 55.8294 88.4386C55.7557 89.0595 55.0392 89.7902 54.6513 90.1449C54.8495 89.1447 55.2106 87.9241 55.5235 87.8426C55.5292 87.8413 55.5363 87.8391 55.5476 87.8391ZM54.4757 90.5743C54.5012 90.5743 54.5266 90.5659 54.5465 90.5489C54.6045 90.5034 55.9483 89.4184 56.0602 88.4677C56.0899 88.2157 56.0319 87.9926 55.8888 87.8051C55.7274 87.595 55.5702 87.583 55.4655 87.6101C54.8452 87.7715 54.436 89.9904 54.361 90.4335C54.3525 90.4826 54.3737 90.5314 54.4148 90.5573C54.4346 90.5687 54.4544 90.5743 54.4757 90.5743Z" fill="white"/>
<path d="M64.4553 79.8002C64.5233 79.8002 64.6139 79.8264 64.7144 79.9577C64.8107 80.0832 64.8376 80.2029 64.7994 80.3254C64.6564 80.7748 63.7119 81.1819 63.1441 81.376C63.4273 80.804 63.981 79.8571 64.4171 79.8031C64.4284 79.8016 64.4412 79.8002 64.4553 79.8002ZM62.9218 81.6912C62.9331 81.6912 62.943 81.6897 62.953 81.6868C63.1399 81.6328 64.7853 81.1425 65.0203 80.3998C65.0826 80.1999 65.0401 79.9971 64.8971 79.8104C64.7201 79.5769 64.5233 79.5492 64.3902 79.5652C63.6624 79.6557 62.9005 81.3308 62.817 81.5219C62.7972 81.5642 62.8043 81.6138 62.834 81.6503C62.8567 81.6766 62.8892 81.6912 62.9218 81.6912Z" fill="#FCF9F5"/>
<path d="M39.5682 55.5482C39.5682 55.5482 35.5467 52.6781 32.6581 59.0866C29.7694 65.4965 33.3873 69.1005 37.5107 67.0956C41.6341 65.0908 39.9363 57.3254 39.9363 57.3254L39.5682 55.5482Z" fill="black"/>
<path d="M45.3103 57.4667C45.3103 57.4667 45.8711 55.7785 45.6884 55.0709C45.5057 54.3647 42.5916 52.4693 40.3642 53.7956C38.1369 55.1205 38.2487 58.2824 38.8831 59.5358C40.5172 62.7663 43.1892 60.9701 43.1892 60.9701C43.1892 60.9701 47.5363 59.1637 45.3103 57.4667Z" fill="black"/>
<path d="M38.7212 80.1913C38.7212 80.1913 36.8195 67.2358 37.4327 66.2436C39.3244 63.1824 45.5987 61.8166 48.578 63.4552C50.4429 64.481 49.8553 68.0091 50.6284 73.8004C51.0631 77.0586 51.1127 78.2521 51.1127 78.2521L38.7212 80.1913Z" fill="#889782"/>
<path d="M45.2311 61.2924L45.2382 61.3581L45.3401 62.5852L45.4222 63.5468C45.4222 63.5468 45.5299 63.7583 44.4395 63.8298C42.9796 63.9218 42.4316 63.3425 42.4316 63.3425L42.0876 61.11L42.5378 61.1363L45.2311 61.2924Z" fill="#FF9981"/>
<path d="M45.2392 61.3582L45.3412 62.5853C44.6261 62.5911 43.305 62.4481 42.6451 61.3771C42.5927 61.2896 42.5559 61.2093 42.5389 61.1422L45.2336 61.3392L45.2392 61.3582Z" fill="black"/>
<path d="M44.9629 55.459C44.9629 55.459 46.7088 58.4546 46.4497 60.3033C46.1892 62.152 44.5763 62.0834 43.588 61.8645C42.601 61.6456 42.0884 61.1072 42.0884 61.1072C42.0884 61.1072 41.2459 61.5333 40.5492 60.7687C39.8525 60.0027 40.0933 58.9842 40.569 58.6939C41.0448 58.4035 41.6905 58.6982 41.6905 58.6982L41.1043 57.8388C41.1043 57.8388 42.4877 52.8837 44.9629 55.459Z" fill="#FF9981"/>
<path d="M41.6889 58.6981C41.6889 58.6981 42.9491 57.8168 43.3173 56.756C43.6855 55.6953 43.643 55.1919 43.643 55.1919C43.643 55.1919 43.9191 55.8222 44.4275 55.9141C44.9372 56.0061 45.2445 55.9842 45.2445 55.9842L45.6693 56.8757L45.1992 54.6812C45.1992 54.6812 43.7818 54.118 43.6048 54.1398C43.4263 54.1632 41.2301 54.8621 41.1169 55.0182C41.0036 55.1744 40.5094 57.0625 40.5094 57.0625L40.5575 57.881L41.6889 58.6981Z" fill="black"/>
<path d="M52.0796 89.974C52.0881 89.974 52.0966 89.9733 52.1036 89.9714C52.1674 89.9577 52.207 89.894 52.1943 89.8293C51.9918 88.839 50.9411 88.6307 50.6013 88.589C50.573 88.2175 50.4186 86.9758 49.637 86.2756C48.7081 85.4411 47.3388 86.2277 47.2793 86.2617C47.2241 86.2944 47.2043 86.3675 47.2354 86.425C47.2694 86.4825 47.3388 86.5025 47.394 86.4701C47.4082 86.4623 48.6797 85.7329 49.484 86.4562C50.3138 87.1999 50.3747 88.6879 50.3747 88.7031C50.3775 88.7651 50.4257 88.8152 50.4852 88.8185C50.4979 88.8193 51.7652 88.9004 51.9663 89.8787C51.9776 89.9353 52.0258 89.974 52.0796 89.974Z" fill="white"/>
<path d="M25.7706 92.8479H41.9584V79.8834H25.7706V92.8479Z" fill="#D5BD99"/>
<path d="M35.6701 86.3659C35.6701 89.9459 38.4866 92.8479 41.96 92.8479C45.4349 92.8479 48.2513 89.9459 48.2513 86.3659C48.2513 82.7856 45.4349 79.8834 41.96 79.8834C38.4866 79.8834 35.6701 82.7856 35.6701 86.3659Z" fill="#F3E1CA"/>
<path d="M39.1672 86.3658C39.1672 87.9553 40.4175 89.2437 41.9595 89.2437C43.503 89.2437 44.7533 87.9553 44.7533 86.3658C44.7533 84.7772 43.503 83.4887 41.9595 83.4887C40.4175 83.4887 39.1672 84.7772 39.1672 86.3658Z" fill="#D5BD99"/>
<path d="M44.2024 63.9802C45.195 63.9802 45.8662 63.5965 45.9072 63.5717C45.9639 63.5381 45.9823 63.4652 45.9511 63.4082C45.9186 63.3499 45.8492 63.3309 45.7925 63.363C45.7784 63.3718 44.2902 64.2195 42.4862 63.3236C42.4267 63.2944 42.3587 63.3207 42.3304 63.3791C42.3035 63.4389 42.3276 63.5104 42.3856 63.5396C43.0526 63.8708 43.6728 63.9802 44.2024 63.9802Z" fill="#FCA235"/>
<path d="M50.7006 74.4146C50.7813 74.4029 50.8252 74.3416 50.8167 74.2759L50.3848 71.346C50.4429 71.1695 50.7077 70.2794 50.5109 68.956C50.297 67.5056 49.1246 65.8772 49.075 65.8087C49.0368 65.7547 48.9632 65.7445 48.9122 65.7839C48.8612 65.8233 48.8499 65.8977 48.8881 65.9517C48.9009 65.9677 50.0762 67.6019 50.2815 68.9925C50.4868 70.3772 50.1597 71.2818 50.1554 71.2906C50.1484 71.3095 50.1469 71.3314 50.1498 71.3519L50.5859 74.3124C50.5944 74.3722 50.644 74.4146 50.7006 74.4146Z" fill="black"/>
<path d="M17.1725 86.2084C18.757 89.4948 21.371 91.478 23.0121 90.6384C24.6518 89.7989 24.6986 86.454 23.1141 83.1679C21.5296 79.882 18.9156 77.8976 17.2745 78.738C15.6347 79.577 15.5894 82.9228 17.1725 86.2084Z" fill="white"/>
<path d="M34.0973 85.972C30.9948 87.7721 29.2078 90.5646 30.1055 92.2093C31.0047 93.8541 34.2488 93.7281 37.3513 91.9279C40.4551 90.1278 42.2421 87.3354 41.343 85.6907C40.4452 84.0462 37.2011 84.1717 34.0973 85.972Z" fill="white"/>
<path d="M34.7462 99.2549C37.3559 98.8491 39.3085 97.3984 39.1061 96.0146C38.9036 94.6311 36.6224 93.8383 34.0127 94.2441C31.4016 94.6502 29.4503 96.1009 29.6528 97.4844C29.8553 98.8681 32.1351 99.6607 34.7462 99.2549Z" fill="white"/>
<path d="M19.6803 89.7787C16.837 87.5701 13.6382 87.0016 12.5352 88.5088C11.4335 90.0161 12.8439 93.0283 15.6886 95.237C18.532 97.4457 21.7307 98.0141 22.8338 96.5069C23.9354 94.9997 22.5251 91.9875 19.6803 89.7787Z" fill="white"/>
<path d="M26.6951 101.75C26.7446 101.75 26.7914 101.717 26.807 101.666C28.6789 95.4217 35.143 96.3625 35.2067 96.3728C35.269 96.3808 35.3299 96.3379 35.3398 96.2724C35.3497 96.207 35.3058 96.146 35.2421 96.1358C35.1756 96.1246 28.5161 95.1569 26.5846 101.595C26.5648 101.658 26.6002 101.726 26.6611 101.745C26.6724 101.749 26.6838 101.75 26.6951 101.75Z" fill="#DDD7E0"/>
<path d="M26.1552 101.281C26.209 101.281 26.2557 101.244 26.2685 101.188C27.996 93.5503 34.4629 89.2147 34.5281 89.1715C34.5819 89.1361 34.5974 89.0618 34.5635 89.0061C34.5281 88.9503 34.4558 88.9341 34.402 88.9697C34.3369 89.0131 27.7921 93.3986 26.0419 101.134C26.0278 101.198 26.066 101.263 26.1283 101.278C26.1368 101.28 26.1467 101.281 26.1552 101.281Z" fill="#DDD7E0"/>
<path d="M26.5916 104.36C26.6497 104.36 26.6993 104.316 26.7078 104.255C27.6366 96.7595 20.0426 83.2904 19.9662 83.1562C19.9336 83.0992 19.8628 83.0803 19.8076 83.1124C19.7524 83.1459 19.7339 83.2204 19.7651 83.2773C19.8416 83.4115 27.3945 96.81 26.477 104.225C26.4685 104.29 26.5138 104.35 26.5775 104.359C26.5832 104.36 26.5874 104.36 26.5916 104.36Z" fill="#DDD7E0"/>
<path d="M25.8309 100.73C25.9102 100.72 25.9541 100.66 25.9456 100.594C25.9385 100.539 25.1229 94.9673 16.3904 90.837C16.3323 90.8091 16.263 90.8357 16.2361 90.8958C16.2091 90.9559 16.236 91.0271 16.2941 91.0548C24.8992 95.1252 25.7091 100.572 25.7148 100.626C25.7233 100.686 25.7728 100.73 25.8309 100.73Z" fill="#DDD7E0"/>
<path d="M21.6158 112.324H28.9578C29.3557 112.324 29.6885 112.032 29.7281 111.649L30.851 100.629C30.8963 100.188 30.5381 99.8064 30.0807 99.8064H20.4929C20.0355 99.8064 19.6787 100.188 19.7226 100.629L20.8455 111.649C20.8852 112.032 21.2179 112.324 21.6158 112.324Z" fill="#D5BD99"/>
<path d="M23.241 112.324H30.5816C30.9809 112.324 31.3137 112.032 31.3519 111.649L32.4762 100.629C32.5201 100.188 32.1633 99.8064 31.7059 99.8064H22.1181C21.6608 99.8064 21.3025 100.188 21.3478 100.629L22.4707 111.649C22.5104 112.032 22.8431 112.324 23.241 112.324Z" fill="#F3E1CA"/>
<path d="M41.8422 60.2594C41.8762 60.2594 41.9087 60.2448 41.9328 60.2156C41.9725 60.1646 41.9654 60.0887 41.9158 60.0464L40.868 59.1607C40.8184 59.1184 40.7448 59.1257 40.7037 59.1767C40.6641 59.2278 40.6712 59.3037 40.7207 59.346L41.7686 60.2317C41.7898 60.2507 41.8167 60.2594 41.8422 60.2594Z" fill="black"/>
<path d="M40.7857 60.1121C40.8055 60.1106 41.5291 59.9749 41.5291 59.9749C41.5928 59.9632 41.6338 59.9019 41.6225 59.8363C41.6112 59.7706 41.5545 59.7283 41.488 59.74L40.7644 59.8742C40.7007 59.8859 40.6596 59.9486 40.671 60.0143C40.6809 60.0712 40.729 60.1121 40.7857 60.1121Z" fill="black"/>
<path d="M43.221 57.1122C43.2337 57.1122 43.2464 57.1107 43.2592 57.1064L44.0111 56.8393C44.072 56.8175 44.1031 56.7489 44.0833 56.6861C44.0606 56.6234 43.9941 56.5913 43.9346 56.6117L43.1827 56.8787C43.1218 56.9006 43.0907 56.9692 43.1105 57.0319C43.1275 57.0815 43.1728 57.1122 43.221 57.1122Z" fill="black"/>
<path d="M60.5618 80.5575C60.6128 80.5575 60.6595 80.5225 60.6737 80.4685C60.6794 80.4466 61.2543 78.2287 59.4474 77.505C57.9068 76.8878 56.7273 78.0405 56.4214 78.3805C56.1821 78.1937 55.4883 77.7268 54.5749 77.7108C54.5594 77.7093 54.5438 77.7093 54.5282 77.7093C53.4025 77.7093 53.2014 78.471 53.1929 78.5045C53.1774 78.5687 53.2156 78.6329 53.2779 78.649C53.3388 78.6665 53.4025 78.6271 53.4195 78.5629C53.4252 78.5381 53.5908 77.9501 54.5282 77.9501C54.5424 77.9501 54.5566 77.9501 54.5707 77.9501C55.6016 77.969 56.3535 78.6285 56.3605 78.6358C56.3846 78.6577 56.4158 78.6665 56.4469 78.6636C56.4795 78.6606 56.5078 78.6446 56.5276 78.6198C56.5772 78.5556 57.7383 77.0775 59.3639 77.7283C60.9725 78.3732 60.4712 80.3226 60.4485 80.4043C60.433 80.4685 60.4684 80.5341 60.5307 80.5517C60.5406 80.556 60.5519 80.5575 60.5618 80.5575Z" fill="#FCF9F5"/>
<path d="M44.9644 56.7678C44.9729 56.7678 45.5477 56.7226 45.5477 56.7226C45.6115 56.7182 45.6596 56.6598 45.6554 56.5942C45.6497 56.5285 45.5959 56.4745 45.5308 56.4833L44.9559 56.5285C44.8921 56.5329 44.844 56.5913 44.8483 56.6569C44.8539 56.7197 44.9035 56.7678 44.9644 56.7678Z" fill="black"/>
<path d="M45.1154 59.3723C45.1664 59.3723 45.2131 59.3387 45.2273 59.2862C45.4453 58.4983 44.8733 57.8081 44.8492 57.779C44.8081 57.7293 44.7331 57.7235 44.6849 57.7673C44.6368 57.8111 44.6311 57.8855 44.6736 57.9365C44.6793 57.9424 45.1862 58.5581 45.0035 59.2206C44.9865 59.2833 45.0219 59.3504 45.0843 59.3679C45.0942 59.3709 45.1055 59.3723 45.1154 59.3723Z" fill="black"/>
<path d="M43.7863 58.4662C43.7948 58.4662 43.8047 58.4647 43.8146 58.4618C43.8769 58.4457 43.9151 58.3801 43.8981 58.3159L43.7665 57.7804L43.9916 57.5294C44.0355 57.4798 44.0327 57.4039 43.9859 57.3602C43.9378 57.3149 43.8642 57.3179 43.8203 57.366L43.5526 57.6651C43.5257 57.6943 43.5144 57.7366 43.5243 57.776L43.673 58.3757C43.6857 58.4297 43.7339 58.4662 43.7863 58.4662Z" fill="black"/>
<path d="M45.6007 58.1116C45.6106 58.1116 45.6191 58.1101 45.6291 58.1072C45.6914 58.0911 45.7296 58.027 45.7126 57.9628L45.5809 57.4258L45.8061 57.1748C45.85 57.1267 45.8471 57.0508 45.8004 57.0056C45.7522 56.9603 45.68 56.9633 45.6347 57.0114L45.3671 57.3105C45.3402 57.3397 45.3303 57.382 45.3402 57.4214L45.4875 58.0211C45.5016 58.0751 45.5483 58.1116 45.6007 58.1116Z" fill="black"/>
<path d="M69.967 108.124C69.967 108.124 69.5804 105.94 68.5736 105.836C67.5683 105.731 66.1268 108.124 66.1268 108.124C66.1268 108.124 62.196 107.812 61.9184 108.124C61.6409 108.436 61.6409 115.301 61.9184 115.405C62.196 115.509 78.4956 115.509 79.2376 115.405C79.9781 115.301 78.9175 111.764 77.4562 111.141C75.9963 110.516 74.4217 110.514 74.4217 110.514L69.967 108.124Z" fill="#FFAF45"/>
<path d="M82.6848 87.0467C82.6848 87.0467 81.0592 85.5899 80.2096 86.1559C79.3614 86.7219 79.6857 89.518 79.6857 89.518C79.6857 89.518 76.4275 91.8031 76.3992 92.2256C76.3708 92.6483 80.5311 98.0102 80.8114 97.9127C81.0918 97.8151 93.8217 87.3266 94.3385 86.7686C94.854 86.2106 91.8817 84.1308 90.3638 84.5831C88.843 85.0355 87.6139 86.0469 87.6139 86.0469L82.6848 87.0467Z" fill="#FFAF45"/>
<path d="M64.996 84.389C65.0172 84.389 65.0385 84.3832 65.0583 84.3701C65.1121 84.3365 65.1291 84.2621 65.0951 84.2052C65.0201 84.0812 63.2444 81.1527 61.7463 80.6668C60.2807 80.1926 54.0984 79.1202 53.8351 79.0749C53.7728 79.0647 53.7119 79.1085 53.7019 79.1727C53.6906 79.2384 53.7331 79.2996 53.7968 79.3113C53.8619 79.323 60.2269 80.4261 61.6755 80.8959C63.0929 81.3555 64.8799 84.3029 64.8969 84.3321C64.9195 84.3686 64.9578 84.389 64.996 84.389Z" fill="#D5BD99"/>
<path d="M53.4431 85.842C55.0333 85.8423 55.7399 83.8083 55.8829 83.3399C56.1831 83.3472 57.1955 83.302 57.5651 82.517C57.9984 81.5992 56.6305 80.1664 56.5711 80.1065C56.5272 80.0599 56.4521 80.0584 56.4068 80.1051C56.3615 80.1518 56.3615 80.2276 56.4068 80.2758C56.7721 80.6552 57.6557 81.7772 57.3555 82.4134C56.993 83.1794 55.8163 83.0963 55.8064 83.0963C55.7484 83.0948 55.6988 83.1298 55.6847 83.1838C55.6776 83.2101 54.9965 85.7417 53.2944 85.5957C51.6065 85.4469 51.4876 82.9766 51.4862 82.9518C51.4848 82.9037 51.455 82.8599 51.4111 82.8438C51.3644 82.8278 51.3149 82.8395 51.2851 82.8759C51.2795 82.8803 50.7938 83.4217 50.2203 83.4421C49.9442 83.4552 49.7077 83.3472 49.4854 83.1298C48.6358 82.2967 49.9243 80.2773 49.9371 80.2568C49.9725 80.2014 49.9598 80.127 49.9059 80.0905C49.8521 80.054 49.7799 80.0686 49.7445 80.1241C49.6865 80.2145 48.3356 82.3346 49.3254 83.3035C49.5958 83.5676 49.9102 83.6945 50.2302 83.6828C50.6777 83.6653 51.0628 83.3954 51.2781 83.2101C51.3616 83.8827 51.7297 85.6979 53.2732 85.835C53.3312 85.8394 53.3879 85.842 53.4431 85.842Z" fill="white"/>
<path d="M48.5015 76.4588C48.5015 76.4588 50.0236 76.7871 50.7784 76.9214C51.9183 77.1242 54.1641 78.0799 55.066 78.4666C55.968 78.8518 57.7876 80.8799 57.4067 81.0813C57.0272 81.2812 55.0717 80.0585 55.0717 80.0585C55.0717 80.0585 56.2314 82.272 55.8548 82.4981C55.4795 82.7257 54.9556 82.1231 54.9556 82.1231C54.9556 82.1231 55.3308 82.7928 54.7531 82.8001C54.1754 82.8089 52.6829 80.6786 52.6829 80.6786C52.6829 80.6786 53.0808 82.5156 52.6716 82.5565C52.2624 82.5959 51.349 80.7428 51.349 80.7428C51.349 80.7428 49.2109 81.4548 48.4929 80.1489C47.7736 78.8445 47.7609 78.0011 47.7609 78.0011L48.5015 76.4588Z" fill="#FF9981"/>
<path d="M39.47 64.3365C39.47 64.3365 31.6197 69.2756 34.3809 76.9462C36.4214 82.6163 47.7622 80.0585 47.7622 80.0585L50.808 75.2055C50.808 75.2055 43.6501 71.7897 43.0908 71.5796C42.0089 71.1739 39.47 64.3365 39.47 64.3365Z" fill="#889782"/>
<path d="M44.2596 73.8704C44.3092 73.8704 44.3559 73.8368 44.3715 73.7857C44.3899 73.7215 44.3545 73.6559 44.2936 73.6354C44.2709 73.6282 41.9473 72.9059 38.4313 72.1399C38.3662 72.1267 38.3067 72.1676 38.294 72.2318C38.2798 72.2974 38.3209 72.3602 38.3832 72.3748C41.8892 73.1379 44.203 73.8587 44.2256 73.866C44.237 73.8689 44.2483 73.8704 44.2596 73.8704Z" fill="black"/>
<path d="M39.3703 71.26C39.7286 71.26 40.3445 71.9151 40.8146 72.5367C39.9339 71.9837 39.2641 71.4497 39.2627 71.2833C39.2655 71.2833 39.274 71.2789 39.2896 71.2731C39.3151 71.2643 39.342 71.26 39.3703 71.26ZM41.2422 73.0532C41.2748 73.0532 41.306 73.0401 41.3272 73.0153C41.364 72.9744 41.3697 72.9117 41.3385 72.8665C41.1969 72.6534 39.9367 70.8033 39.216 71.0455C39.0687 71.0966 39.0375 71.2002 39.0319 71.2571C38.9894 71.7065 40.5229 72.652 41.1856 73.0386C41.2026 73.0488 41.2224 73.0532 41.2422 73.0532Z" fill="black"/>
<path d="M54.955 82.2427C54.9748 82.2427 54.9946 82.2383 55.0116 82.2281C55.0683 82.196 55.0881 82.123 55.0569 82.0647L53.6693 79.4864C53.6367 79.428 53.5659 79.4076 53.5107 79.4397C53.454 79.4718 53.4342 79.5448 53.4654 79.6017L54.8545 82.1814C54.8757 82.2208 54.9154 82.2427 54.955 82.2427Z" fill="black"/>
<path d="M55.0722 80.1781C55.092 80.1781 55.1104 80.1723 55.1288 80.162C55.1855 80.1299 55.2053 80.057 55.1741 80.0001L54.6743 79.0721C54.6431 79.0137 54.5723 78.9933 54.5171 79.0254C54.4605 79.0575 54.4406 79.1304 54.4718 79.1888L54.9702 80.1153C54.9915 80.1547 55.0311 80.1781 55.0722 80.1781Z" fill="black"/>
<path d="M54.1688 66.9321C54.486 67.9068 54.7792 69.1383 54.5696 69.4841C54.5427 69.5294 54.5101 69.5513 54.4634 69.5556C54.4167 69.5615 54.377 69.5454 54.3388 69.5046C54.0372 69.1821 54.0895 67.8193 54.1688 66.9321ZM54.4478 69.7964C54.4605 69.7964 54.4733 69.7949 54.486 69.7935C54.605 69.7818 54.7027 69.7191 54.7678 69.6111C55.153 68.9734 54.3161 66.6213 54.2184 66.3558C54.2 66.3047 54.1547 66.2741 54.0966 66.2784C54.0428 66.2857 54.0017 66.3281 53.9947 66.3821C53.9578 66.6607 53.6577 69.1208 54.1717 69.6709C54.2481 69.7526 54.343 69.7964 54.4478 69.7964Z" fill="black"/>
<path d="M59.4069 65.9995C60.5255 65.7865 60.9234 63.465 60.939 63.3658C60.9503 63.3001 60.9078 63.2389 60.8441 63.2272C60.7818 63.2155 60.7209 63.2608 60.711 63.325C60.7067 63.3483 60.3244 65.5807 59.3842 65.7617C59.3219 65.7734 59.2794 65.8361 59.2922 65.9017C59.3021 65.9587 59.3516 65.9995 59.4069 65.9995Z" fill="black"/>
<path d="M59.6534 106.676C59.6845 106.676 59.7157 106.662 59.7398 106.637C59.8063 106.561 61.3823 104.762 61.1642 102.671C60.983 100.935 59.6675 100.502 59.1691 100.4C59.5387 99.797 60.6984 97.5992 59.5089 95.4819C58.1043 92.9825 55.7707 94.1137 55.7466 94.1255C55.6886 94.1544 55.6645 94.2261 55.6928 94.2856C55.7211 94.3453 55.7919 94.3689 55.8486 94.3413C55.9364 94.2973 58.0122 93.2982 59.3064 95.6022C60.6191 97.9364 58.8958 100.394 58.8788 100.419C58.8533 100.454 58.8491 100.501 58.8661 100.54C58.8845 100.58 58.9213 100.607 58.9638 100.61C59.036 100.615 60.7309 100.763 60.9334 102.696C61.1402 104.679 59.584 106.457 59.567 106.475C59.5245 106.523 59.5273 106.599 59.5741 106.644C59.5967 106.665 59.625 106.676 59.6534 106.676Z" fill="white"/>
<path d="M63.691 91.3945C63.6825 91.3945 63.674 91.3953 63.6655 91.3972C63.623 91.4071 63.5905 91.4401 63.5791 91.483C63.5707 91.5115 62.8117 94.3263 61.2173 93.9704C60.8817 93.8955 60.6268 93.7105 60.4583 93.4204C59.9329 92.5172 60.379 90.8845 60.3832 90.8681C60.3932 90.8309 60.3861 90.7908 60.362 90.7603C60.3379 90.7298 60.3011 90.7145 60.2643 90.7155C60.2445 90.7161 58.1289 90.8236 57.3204 89.9533C57.0839 89.6976 56.9862 89.3901 57.0216 89.0126C57.2057 87.1028 60.4894 86.8318 60.522 86.8295C60.5857 86.8246 60.6325 86.7686 60.6296 86.7035C60.6013 86.1313 60.6367 84.5481 61.145 84.106C61.2668 83.9995 61.4084 83.9659 61.5798 84.0053C62.7267 84.2665 62.8131 86.369 62.8131 86.39C62.8145 86.4267 62.8329 86.4607 62.8612 86.4825C62.8896 86.5042 62.9278 86.5101 62.9604 86.5014C62.9788 86.4962 64.7884 86.0004 65.4129 87.3365C66.0331 88.6623 64.61 89.5358 64.5505 89.5725C64.5165 89.5922 64.4953 89.6275 64.4925 89.6664C64.4896 89.7057 64.5052 89.7438 64.535 89.7687C64.5519 89.7833 66.254 91.2404 65.7584 92.2886C65.6748 92.463 65.5644 92.5572 65.42 92.5759C64.8974 92.6439 64.0606 91.7763 63.7802 91.4366C63.7576 91.4096 63.725 91.3945 63.691 91.3945ZM61.5047 94.2428C62.8372 94.2429 63.5409 92.3877 63.742 91.7521C64.0606 92.102 64.8436 92.8943 65.4497 92.8137C65.6748 92.7844 65.849 92.6432 65.9665 92.3938C66.465 91.3432 65.2047 90.0624 64.7998 89.6886C65.1821 89.4071 66.2143 88.4965 65.6225 87.2325C65.0221 85.9496 63.5041 86.145 63.0368 86.2382C62.9958 85.7256 62.7735 84.0316 61.6293 83.7704C61.3886 83.715 61.1748 83.766 60.9949 83.9222C60.3804 84.4591 60.3804 86.1392 60.3931 86.6008C59.7828 86.6656 56.9749 87.0683 56.7908 88.9892C56.7469 89.4341 56.8687 89.8142 57.1533 90.1193C57.9081 90.9325 59.5988 90.9693 60.1199 90.9599C60.0165 91.4115 59.7772 92.7154 60.2586 93.5433C60.4611 93.8926 60.767 94.1154 61.1691 94.2046C61.2852 94.2305 61.3971 94.2428 61.5047 94.2428Z" fill="white"/>
<path d="M70.0057 105.712C70.0496 105.712 70.0935 105.712 70.1374 105.71C70.2011 105.707 70.2521 105.652 70.2493 105.586C70.2464 105.52 70.1969 105.472 70.1289 105.47C69.4492 105.498 68.9395 105.312 68.6138 104.926C68.0261 104.228 68.2159 103.083 68.2173 103.072C68.2286 103.008 68.189 102.947 68.1267 102.933C68.1012 102.928 65.4943 102.342 65.1078 101.147C64.7283 99.9695 66.6229 98.495 66.6427 98.4801C66.6696 98.4599 66.6866 98.4288 66.688 98.3945C66.6909 98.3606 66.6795 98.3268 66.6569 98.3021C66.6498 98.2934 65.8767 97.4404 65.9234 96.8011C65.9361 96.6285 66.0083 96.4912 66.1443 96.3818C66.7602 95.8858 68.4156 96.889 69.0004 97.3174C69.0528 97.3549 69.1264 97.3428 69.1632 97.2886C69.2 97.2348 69.1873 97.1599 69.1349 97.1216C69.0443 97.0544 66.8806 95.4868 66.0013 96.1927C65.8129 96.344 65.7096 96.5427 65.6912 96.7833C65.6458 97.3943 66.1882 98.1098 66.4034 98.3684C65.9914 98.7081 64.5046 100.039 64.8869 101.223C65.272 102.415 67.4569 103.016 67.9723 103.143C67.9355 103.471 67.886 104.426 68.4368 105.082C68.7894 105.501 69.3176 105.712 70.0057 105.712Z" fill="white"/>
<path d="M63.1556 76.9724C63.2207 76.9724 63.2873 76.968 63.3553 76.9578C64.4994 76.7988 64.8874 76.0707 65.0035 75.7584C65.5048 75.9933 67.3682 76.7827 67.912 75.8445C68.5081 74.8173 67.6755 73.1539 67.6401 73.0839C67.609 73.0255 67.5396 73.0022 67.4815 73.0328C67.4249 73.0634 67.4036 73.1364 67.4333 73.1948C67.4418 73.2108 68.2419 74.81 67.7123 75.7219C67.2918 76.4486 65.601 75.7978 64.9837 75.4856C64.9525 75.4681 64.9143 75.4681 64.8831 75.4841C64.8506 75.5002 64.8265 75.5308 64.8194 75.5658C64.8109 75.6067 64.59 76.5434 63.3241 76.7214C62.0653 76.8892 61.3629 74.9676 61.3559 74.9486C61.3431 74.9121 61.3134 74.8844 61.278 74.8742C61.2412 74.864 61.2029 74.8713 61.1732 74.8961C61.1704 74.899 60.8772 75.1325 60.4878 75.0624C60.1353 74.9997 59.8054 74.7195 59.5052 74.2307C59.4712 74.1753 59.3989 74.1578 59.3451 74.1928C59.2899 74.2293 59.2743 74.3022 59.3083 74.3591C59.6453 74.9107 60.0305 75.2258 60.4524 75.2988C60.781 75.3557 61.0429 75.2492 61.1902 75.1675C61.3757 75.614 62.0313 76.9724 63.1556 76.9724Z" fill="#FCF9F5"/>
<path d="M79.6815 96.8695C79.707 96.8695 79.7325 96.8613 79.7538 96.8443L93.6207 85.6877C93.6717 85.6469 93.6802 85.5724 93.6405 85.5199C93.6009 85.4674 93.5286 85.4572 93.4777 85.4995L79.6093 96.655C79.5598 96.6957 79.5498 96.7712 79.5895 96.8234C79.6136 96.8536 79.6475 96.8695 79.6815 96.8695Z" fill="white"/>
<path d="M61.7474 113.963H79.2973C79.361 113.963 79.4135 113.91 79.4135 113.843C79.4135 113.777 79.361 113.723 79.2973 113.723H61.7474C61.6822 113.723 61.6298 113.777 61.6298 113.843C61.6298 113.91 61.6822 113.963 61.7474 113.963Z" fill="white"/>
<path d="M47.7624 80.1781C47.7978 80.1781 47.8332 80.162 47.8558 80.1299C47.8941 80.0789 47.8841 80.003 47.8346 79.9621C47.8289 79.9592 47.3631 79.5857 47.431 79.2151C47.4395 79.1626 47.465 79.1246 47.5103 79.094C47.6887 78.9714 48.088 79.0268 48.2254 79.0575C48.2835 79.0692 48.3373 79.0385 48.3585 78.9845C48.3798 78.9291 48.3585 78.8678 48.3089 78.8372C48.3005 78.8313 47.4084 78.2885 47.4537 77.6786C47.4579 77.6217 47.4834 77.5765 47.533 77.5386C47.8686 77.2847 48.9773 77.4685 49.3766 77.5619C49.4262 77.5721 49.4786 77.5502 49.5041 77.5035C49.5296 77.4583 49.5225 77.4014 49.4871 77.362C49.2492 77.1023 48.6615 76.3144 48.7947 75.8139C48.8131 75.7424 48.8555 75.6913 48.9235 75.6577C49.2704 75.4812 50.1073 75.7686 50.4004 75.8941C50.4599 75.9204 50.5278 75.8897 50.5533 75.8285C50.5774 75.7672 50.5491 75.6971 50.4896 75.6723C50.3721 75.6213 49.3228 75.1894 48.8216 75.4418C48.6941 75.506 48.6063 75.614 48.5695 75.7511C48.4336 76.2633 48.8357 76.9068 49.1019 77.2628C48.6176 77.1781 47.7525 77.0746 47.3956 77.3459C47.2908 77.4247 47.2314 77.5342 47.2215 77.6611C47.1875 78.1237 47.5415 78.5278 47.8304 78.7773C47.6746 78.7817 47.5061 78.8094 47.3829 78.8926C47.2852 78.9597 47.2229 79.056 47.2016 79.1713C47.1082 79.6864 47.6689 80.1343 47.693 80.1533C47.7128 80.1693 47.7383 80.1781 47.7624 80.1781Z" fill="black"/>
<path d="M60.2599 68.6438C60.9495 68.6438 61.7411 68.0426 61.7807 68.0135C61.8317 67.9726 61.843 67.8982 61.8048 67.8457C61.7666 67.7917 61.6929 67.7815 61.6419 67.8209C61.6306 67.8296 60.5715 68.6321 59.9612 68.3432C59.8606 68.2965 59.7941 68.2206 59.7587 68.1127C59.6341 67.7377 59.9017 67.0752 60.0164 66.8505C60.0362 66.8097 60.0334 66.7601 60.0065 66.7236C59.9796 66.6871 59.9371 66.6681 59.8904 66.6769C59.5392 66.7484 58.5437 66.887 58.1699 66.6886C58.1232 66.6638 58.0963 66.6273 58.0835 66.5719C58.0156 66.2757 58.3795 65.6716 58.5267 65.4644C58.5551 65.4235 58.5565 65.3681 58.5282 65.3258C58.4999 65.2834 58.4503 65.2645 58.4021 65.2776C57.9278 65.4119 57.183 65.5009 57.0881 65.2703C56.9295 64.8909 57.1603 64.3934 57.1617 64.3876C57.19 64.3292 57.166 64.2562 57.1079 64.2285C57.0513 64.1993 56.9819 64.2241 56.9536 64.2839C56.9408 64.3073 56.6746 64.8851 56.8743 65.3652C57.0343 65.7504 57.7465 65.6687 58.1742 65.5797C58.0071 65.8642 57.7848 66.3165 57.857 66.6273C57.8853 66.7499 57.9561 66.8447 58.0637 66.9016C58.4602 67.1117 59.3112 67.014 59.7148 66.9512C59.5916 67.2503 59.4089 67.799 59.5378 68.19C59.5958 68.3622 59.7049 68.4877 59.8649 68.5621C59.9881 68.619 60.1226 68.6438 60.2599 68.6438Z" fill="black"/>
<path d="M44.8046 60.5288C44.7433 60.5288 44.6859 60.4886 44.6651 60.4252C44.6395 60.3462 44.6812 60.2605 44.7581 60.2336L45.585 59.9497C45.6626 59.9239 45.7452 59.9663 45.771 60.0458C45.7966 60.125 45.7549 60.2105 45.678 60.2372L44.8511 60.5213C44.8356 60.5264 44.8202 60.5288 44.8046 60.5288Z" fill="black"/>
<path d="M127.801 115.843L131.162 118.314L133.14 118.009L133.735 115.843L129.729 112.711L127.801 115.843Z" fill="#EDEDED"/>
<path d="M106.497 125.394L106.25 122.811L102.432 121.981L102.889 125.062L106.3 125.394" fill="#EDEDED"/>
<path d="M101.086 53.6689C99.2301 54.12 98.2077 65.9591 97.4275 66.7472C96.9904 67.1887 87.3441 69.7893 87.0665 69.8314C86.2523 69.9543 86.7908 72.7916 87.5886 72.748C87.8292 72.7353 99.3642 70.8055 100.121 70.3713C100.877 69.9371 103.025 64.0112 103.135 60.3011C103.181 58.7504 103.169 54.2978 101.086 53.6689Z" fill="#FFA383"/>
<path d="M101.317 63.4047C101.317 63.4047 99.4121 63.3375 98.3078 62.3644C98.3273 62.1293 98.3579 61.8572 98.3984 61.5584C98.4126 61.4543 98.1019 61.1427 98.1186 61.0325C98.5038 58.4679 99.5339 54.3357 100.852 53.5795L102.919 57.0739L101.317 63.4047Z" fill="#E6CFB0"/>
<path d="M132.84 114.782C133.19 114.332 133.419 115.068 133.693 115.257C133.882 115.388 135.29 115.892 136.148 116.196C136.538 116.332 136.599 116.574 136.594 116.909C136.563 118.873 133.994 125.239 131.537 125.058C130.817 125.005 130.558 123.454 130.991 121.558C131.26 120.378 130.802 119.744 130.207 118.309C129.991 117.787 130.495 117.509 132.207 117.664C133.449 117.776 132.49 115.233 132.84 114.782Z" fill="black"/>
<path d="M108.43 87.9747C108.987 92.6201 113.069 104.312 114.151 106.101C114.992 107.492 122.846 112.411 126.294 114.869C126.438 114.971 126.569 115.434 126.697 115.524C127.314 115.962 127.739 116.258 127.877 116.351C128.728 116.929 130.944 113.529 130.305 112.684C130.215 112.566 129.958 112.287 129.58 111.892C129.467 111.774 129.122 111.737 128.989 111.599C126.377 108.89 121.222 102.075 119.118 100.898C118.185 92.0977 118.241 84.5713 116.779 79.3236C116.779 79.3236 109.576 81.7401 101.265 80.4509C100.293 89.3929 99.7481 99.5048 99.806 103.78C99.8298 105.547 101.548 114.552 102.278 119.696C102.305 119.886 102.048 120.045 102.073 120.224C102.176 120.965 102.261 121.607 102.32 122.11C102.537 122.568 106.924 123.885 106.806 123.125C106.709 122.502 106.629 121.872 106.561 121.239C106.546 121.099 106.19 120.81 106.177 120.671C105.659 115.396 106.798 109.293 106.117 104.852L108.43 87.9747Z" fill="#E6CFB0"/>
<path d="M107.043 51.3045L111.335 51.2939L116.324 53.0746L116.898 63.5609C117.266 69.8761 116.599 76.7235 118.209 82.831C118.479 83.8577 100.622 83.9377 100.8 82.7842C101.38 79.0429 101.455 73.5718 101.319 69.7996C101.159 65.3568 101.076 60.9106 100.939 56.4668C100.933 56.2681 100.719 53.6267 100.852 53.5798C100.854 53.5792 104.865 52.1766 104.865 52.1766L107.043 51.3045Z" fill="#E6CFB0"/>
<path d="M101.211 65.9709L100.995 61.6839L101.581 58.2892C101.581 58.2892 101.295 69.2689 101.407 72.7047L101.211 65.9709Z" fill="#EDEDED"/>
<path d="M106.935 125.481C106.939 125.942 106.935 125.481 106.911 125.802C106.895 126.023 107.145 127.453 107.302 128.323C107.374 128.716 107.246 129.008 106.942 129.03C105.54 129.134 101.793 129.421 100.917 129.437C99.8523 129.457 97.8488 129.42 97.6528 128.995C97.3606 128.36 97.5118 127.166 99.6257 126.456C100.684 126.101 101.914 124.874 101.918 125.111C101.918 125.111 102.162 123.053 102.981 123.207C103.897 123.379 104.129 124.8 105.303 124.671C106.611 124.528 106.928 124.677 106.935 125.481Z" fill="black"/>
<path d="M101.906 128.524C102.456 128.864 103.171 128.991 104.039 128.134C104.908 127.278 107.205 127.781 107.157 127.504C107.208 127.795 107.259 128.08 107.302 128.323C107.374 128.716 107.246 129.008 106.942 129.031C105.54 129.134 101.793 129.421 100.917 129.437C99.8523 129.457 97.8488 129.42 97.6528 128.995C97.5307 128.73 97.4886 128.367 97.632 127.983C97.5953 128.449 101.378 128.198 101.906 128.524Z" fill="#EDEDED"/>
<path d="M133.107 122.455C133.813 121.368 134.494 121.448 134.798 120.696C135.101 119.944 134.23 119.306 134.443 118.603C134.657 117.899 135.555 115.988 135.163 115.844C135.509 115.969 135.86 116.094 136.148 116.196C136.538 116.332 136.599 116.575 136.594 116.909C136.563 118.873 133.994 125.239 131.537 125.058C131.221 125.035 130.995 124.724 130.876 124.223C131.38 124.493 132.402 123.541 133.107 122.455Z" fill="#EDEDED"/>
<path opacity="0.5" d="M111.708 51.4273C111.708 51.4273 112.41 52.0182 112.106 54.0547C111.802 56.0905 110.335 56.5868 109.488 56.3005C108.212 55.8691 108.181 54.3382 108.181 54.3382C108.181 54.3382 108.261 56.2619 106.984 56.4282C105.835 56.5782 104.277 54.4698 105.638 51.9822L108.796 51.2712L111.708 51.4273Z" fill="#C1C1C1"/>
<path d="M110.89 46.3902C110.578 48.4305 110.564 49.8709 111.335 51.2939C111.335 51.2939 110.503 54.2949 108.183 54.3385C105.862 54.3819 105.979 52.0654 105.977 51.7316L106.393 51.565C106.393 51.565 106.457 51.2926 106.33 50.1028C106.193 48.8175 107.26 45.8005 107.26 45.8005L110.89 46.3902Z" fill="#FFA383"/>
<path d="M106.33 50.1026C107.001 50.1073 109.237 48.457 109.369 48.0158C109.5 47.5743 109.823 46.6862 109.823 46.6862C109.823 46.6862 109.925 48.7742 109.101 49.8248C108.214 50.956 106.408 51.3325 106.408 51.3325C106.408 51.3325 106.353 50.3459 106.33 50.1026Z" fill="#E5886E"/>
<path d="M111.552 44.0912C111.427 46.2462 109.631 47.8883 107.54 47.7596C105.449 47.6306 103.815 45.568 103.94 43.413C103.967 42.948 103.975 42.1917 104.143 41.7872C105.166 39.3331 108.933 38.8782 110.876 41.1619C111.555 41.9589 111.608 43.1209 111.552 44.0912Z" fill="#FFA383"/>
<path d="M103.997 44.2983C103.996 46.3625 104.895 49.8541 106.661 50.2721C107.491 50.468 109.59 49.103 109.778 47.6714C109.967 46.2412 110.163 44.6784 110.163 44.6784" fill="#FFA383"/>
<path d="M107.101 45.4177C107.115 45.7041 107.295 45.928 107.501 45.9172C107.708 45.9061 107.864 45.6649 107.85 45.3786C107.836 45.0912 107.657 44.8676 107.45 44.8784C107.244 44.8896 107.087 45.1304 107.101 45.4177Z" fill="black"/>
<path d="M104.303 45.581C104.316 45.8671 104.496 46.0913 104.703 46.0802C104.91 46.0693 105.065 45.8276 105.051 45.5415C105.037 45.2542 104.858 45.0306 104.651 45.0414C104.445 45.0525 104.289 45.2937 104.303 45.581Z" fill="black"/>
<path d="M105.296 47.4742C105.366 47.5079 105.738 47.6427 105.858 47.6197C105.978 47.5981 106.484 47.3901 106.511 47.3273C106.538 47.2655 105.165 47.4098 105.296 47.4742Z" fill="#E5886E"/>
<path d="M107.129 44.1537C107.126 44.1556 107.16 44.1447 107.192 44.1466C107.224 44.1457 107.271 44.1428 107.328 44.1368C107.354 44.1314 107.383 44.1298 107.413 44.1298C107.442 44.1285 107.471 44.118 107.502 44.1202C107.562 44.125 107.624 44.1036 107.686 44.117C107.718 44.1205 107.749 44.1215 107.782 44.1186C107.814 44.1243 107.844 44.1377 107.876 44.1425C107.908 44.1482 107.94 44.1533 107.97 44.1584C108.001 44.1623 108.028 44.1804 108.056 44.1893C108.166 44.2269 108.257 44.2473 108.257 44.2473L108.298 44.2565C108.382 44.2753 108.465 44.2199 108.484 44.1329C108.493 44.0877 108.483 44.0425 108.46 44.0071C108.46 44.0071 108.402 43.9208 108.29 43.7988C108.26 43.7714 108.232 43.7351 108.192 43.7083C108.15 43.6847 108.105 43.6599 108.058 43.6341C108.011 43.6089 107.96 43.5854 107.907 43.565C107.852 43.5516 107.793 43.5417 107.735 43.5344C107.676 43.5271 107.618 43.5153 107.56 43.5264C107.502 43.5354 107.446 43.5443 107.392 43.5529C107.288 43.5882 107.195 43.6293 107.127 43.6841C107.06 43.736 107.008 43.7892 106.976 43.8364C106.94 43.8803 106.942 43.903 106.938 43.9033C106.871 43.9574 106.859 44.0578 106.912 44.1269C106.965 44.196 107.062 44.2081 107.129 44.1537Z" fill="black"/>
<path d="M105.008 44.0071C105.008 44.0071 104.993 43.9957 104.969 43.9753C104.946 43.9584 104.863 43.9256 104.789 43.9084C104.726 43.9004 104.651 43.8839 104.57 43.8883C104.489 43.8883 104.402 43.9055 104.316 43.9348C104.272 43.945 104.23 43.967 104.19 43.9918C104.15 44.0164 104.109 44.0377 104.075 44.0654C104.01 44.1323 103.954 44.1999 103.92 44.2629C103.863 44.3999 103.856 44.4923 103.856 44.4923C103.849 44.578 103.911 44.6532 103.994 44.6602C104.024 44.6627 104.053 44.656 104.077 44.6423L104.145 44.6054C104.145 44.6054 104.206 44.5719 104.251 44.5197C104.264 44.5066 104.286 44.5015 104.302 44.4916C104.321 44.483 104.335 44.4697 104.351 44.4572C104.394 44.4435 104.427 44.4142 104.476 44.398C104.523 44.3821 104.57 44.3598 104.621 44.3512C104.671 44.3305 104.719 44.3282 104.761 44.3184C104.791 44.3149 104.795 44.2903 104.83 44.2945C104.863 44.2967 104.881 44.298 104.881 44.298L104.898 44.2989C104.986 44.3047 105.062 44.2362 105.067 44.146C105.071 44.0906 105.047 44.0396 105.008 44.0071Z" fill="black"/>
<path d="M105.29 48.4196C105.344 48.2887 107.167 48.2171 107.295 48.2817C107.424 48.3467 106.762 49.1017 106.352 49.1351C106.034 49.1606 105.226 48.5748 105.29 48.4196Z" fill="white"/>
<path d="M110.961 50.4275C111.347 50.755 111.827 51.2309 111.861 52.3321C111.888 53.202 111.751 55.0611 110.496 55.6504C108.843 56.426 108.183 54.3383 108.183 54.3383C108.183 54.3383 111.565 53.8694 110.961 50.4275Z" fill="#E6CFB0"/>
<path d="M106.397 51.1283C106.397 51.1283 105.957 51.3796 105.639 51.9826C105.309 52.6073 104.971 55.1691 106.319 55.867C107.668 56.5653 108.183 54.3386 108.183 54.3386C108.183 54.3386 106.636 54.4288 106.195 53.002C105.974 52.2884 106.109 51.6469 106.393 51.565C106.409 51.3325 106.397 51.1283 106.397 51.1283Z" fill="#E6CFB0"/>
<path opacity="0.5" d="M114.004 56.1193L111.298 62.5839L111.491 66.3542C111.491 66.3542 110.571 71.0693 110.259 71.3554C109.948 71.6411 101.534 72.9095 101.534 72.9095L110.646 72.0511L115.069 60.8599L114.004 56.1193Z" fill="#C1C1C1"/>
<path d="M98.1185 61.0325C98.1185 61.0325 100.118 62.1206 101.007 62.3837C101.007 62.3837 98.6206 61.6686 98.3983 61.5584C98.4103 61.4523 98.099 61.1599 98.1185 61.0325Z" fill="#EDEDED"/>
<path d="M109.815 46.2319C109.333 46.1169 109.676 43.4322 108.898 43.005C108.898 43.005 111.096 41.6282 111.488 44.6465C111.674 45.0313 110.742 47.5303 110.742 47.5303L110.612 46.4281C110.612 46.4281 111.522 45.5766 111.435 44.9835C111.358 44.4509 110.897 44.3228 110.689 44.4232C110.162 44.6783 110.052 45.6935 110.032 45.9917C110.012 46.2898 109.815 46.2319 109.815 46.2319Z" fill="#102B51"/>
<path d="M111.545 45.7378C111.415 46.4265 110.84 47.2847 110.355 46.9855C109.965 46.7441 110.278 44.6653 110.821 44.5869C111.405 44.5031 111.675 45.0481 111.545 45.7378Z" fill="#E5886E"/>
<path d="M111.489 44.6467C111.394 43.879 111.105 42.7304 109.216 43.0241C104.79 43.7128 102.348 43.4436 101.925 43.091C101.351 42.6115 104.142 41.7872 104.142 41.7872C104.142 41.7872 104.618 39.1196 107.911 38.9881C109.474 38.9253 110.676 39.8669 111.307 40.8611C112.005 41.9614 111.986 43.5844 111.489 44.6467Z" fill="#E6CFB0"/>
<path opacity="0.5" d="M104.143 41.7872C103.913 42.5167 107.214 42.7432 109.37 42.3778C109.37 42.3778 103.955 41.9248 104.695 40.5691C104.695 40.5691 104.156 41.3416 104.143 41.7872Z" fill="#C1C1C1"/>
<path d="M81.135 64.5042H100.228V81.312H81.135V64.5042Z" fill="#EF9E62"/>
<path d="M94.9286 64.5042H106.884V81.312H94.9286V64.5042Z" fill="#FFBC80"/>
<path opacity="0.5" d="M117.028 65.8137C117.028 65.8137 114.15 74.9247 113.207 75.4089C112.264 75.8931 98.0554 76.7694 98.0554 76.7694L112.536 73.1342L115.739 64.9061L117.028 65.8137Z" fill="#C1C1C1"/>
<path d="M114.42 57.2533C112.564 57.7044 111.04 70.567 110.26 71.355C109.822 71.7969 98.6215 73.4954 98.3439 73.5374C98.1597 73.5654 97.3729 73.5607 97.1408 73.4833C96.9717 74.0955 97.2756 76.2909 97.913 76.8082C98.4126 76.6652 98.9523 76.6394 99.0735 76.6327C99.314 76.6197 112.196 75.4136 112.953 74.9795C113.709 74.5453 116.358 67.5956 116.469 63.8858C116.515 62.3348 116.503 57.8821 114.42 57.2533Z" fill="#FFA383"/>
<path d="M116.323 53.0743C115.238 52.5041 112.871 58.2443 111.902 62.4593C111.861 62.6384 112.042 63.207 112.005 63.3783C111.941 63.6797 111.883 63.9683 111.834 64.2403C111.829 65.2157 116.775 67.1528 116.846 66.0067C116.902 65.7213 117.098 65.367 117.177 64.8803C117.201 64.735 117.891 63.9868 117.915 63.8272C118.428 60.4324 118.923 54.4421 116.323 53.0743Z" fill="#E6CFB0"/>
<path opacity="0.5" d="M117.917 63.8277C116.767 64.0134 112.397 62.959 111.898 62.5299C111.898 62.5299 113.63 64.0086 115.133 64.4291C116.617 64.8448 117.178 64.8808 117.178 64.8808C117.178 64.8808 117.175 64.8397 117.227 64.769C117.42 64.5094 117.907 63.8923 117.917 63.8277Z" fill="#C1C1C1"/>
<path d="M90.0002 66H100V69H90.0002V66Z" fill="white"/>
<path d="M91.1738 68V66.4132H91.7394C91.8629 66.4132 91.9652 66.4357 92.0463 66.4806C92.1274 66.5256 92.188 66.587 92.2283 66.665C92.2686 66.7425 92.2888 66.8298 92.2888 66.9269C92.2888 67.0245 92.2684 67.1123 92.2276 67.1903C92.1873 67.2678 92.1263 67.3293 92.0447 67.3747C91.9636 67.4197 91.8616 67.4421 91.7387 67.4421H91.3497V67.2392H91.717C91.795 67.2392 91.8582 67.2257 91.9068 67.1989C91.9553 67.1715 91.991 67.1343 92.0137 67.0873C92.0364 67.0403 92.0478 66.9868 92.0478 66.9269C92.0478 66.867 92.0364 66.8138 92.0137 66.7673C91.991 66.7208 91.9551 66.6844 91.906 66.6581C91.8575 66.6317 91.7934 66.6185 91.7139 66.6185H91.4133V68H91.1738ZM92.5352 68H92.281L92.852 66.4132H93.1286L93.6997 68H93.4455L92.9969 66.7014H92.9845L92.5352 68ZM92.5778 67.3786H93.4021V67.5801H92.5778V67.3786ZM93.9288 68V66.4132H94.4944C94.6173 66.4132 94.7194 66.4344 94.8005 66.4768C94.8821 66.5191 94.943 66.5777 94.9833 66.6526C95.0236 66.727 95.0437 66.813 95.0437 66.9106C95.0437 67.0077 95.0233 67.0932 94.9825 67.1671C94.9422 67.2404 94.8813 67.2975 94.7997 67.3383C94.7186 67.3791 94.6166 67.3995 94.4936 67.3995H94.0652V67.1934H94.4719C94.5494 67.1934 94.6124 67.1823 94.661 67.1601C94.7101 67.1379 94.746 67.1056 94.7687 67.0633C94.7914 67.0209 94.8028 66.97 94.8028 66.9106C94.8028 66.8507 94.7912 66.7988 94.7679 66.7549C94.7452 66.711 94.7093 66.6774 94.6602 66.6542C94.6117 66.6304 94.5479 66.6185 94.4688 66.6185H94.1682V68H93.9288ZM94.7121 67.2841L95.1042 68H94.8314L94.4471 67.2841H94.7121ZM96.653 66.9292H96.4112C96.402 66.8776 96.3846 66.8321 96.3593 66.7929C96.334 66.7536 96.303 66.7203 96.2664 66.6929C96.2297 66.6655 96.1886 66.6449 96.1432 66.6309C96.0982 66.617 96.0505 66.61 95.9998 66.61C95.9084 66.61 95.8265 66.633 95.7542 66.679C95.6824 66.7249 95.6256 66.7924 95.5838 66.8812C95.5424 66.97 95.5218 67.0785 95.5218 67.2066C95.5218 67.3357 95.5424 67.4447 95.5838 67.5336C95.6256 67.6224 95.6827 67.6896 95.755 67.735C95.8273 67.7805 95.9087 67.8032 95.9991 67.8032C96.0492 67.8032 96.0967 67.7965 96.1416 67.7831C96.1871 67.7691 96.2281 67.7487 96.2648 67.7218C96.3015 67.695 96.3325 67.6622 96.3578 67.6235C96.3836 67.5842 96.4014 67.5393 96.4112 67.4886L96.653 67.4894C96.6401 67.5674 96.615 67.6392 96.5778 67.7048C96.5412 67.7699 96.4939 67.8262 96.436 67.8737C96.3787 67.9207 96.3131 67.9571 96.2392 67.983C96.1654 68.0088 96.0848 68.0217 95.9975 68.0217C95.8601 68.0217 95.7377 67.9892 95.6303 67.9241C95.5228 67.8585 95.4381 67.7647 95.3761 67.6428C95.3147 67.5209 95.2839 67.3755 95.2839 67.2066C95.2839 67.0372 95.3149 66.8918 95.3769 66.7704C95.4389 66.6485 95.5236 66.555 95.631 66.4899C95.7385 66.4243 95.8606 66.3915 95.9975 66.3915C96.0817 66.3915 96.1602 66.4037 96.233 66.4279C96.3064 66.4517 96.3723 66.4868 96.4306 66.5333C96.489 66.5793 96.5373 66.6356 96.5755 66.7022C96.6137 66.7683 96.6396 66.844 96.653 66.9292ZM96.9395 68V66.4132H97.9343V66.6193H97.1789V67.1028H97.8824V67.3081H97.1789V67.7939H97.9436V68H96.9395ZM98.2541 68V66.4132H98.4935V67.7939H99.2125V68H98.2541Z" fill="black"/>
<path opacity="0.5" d="M100.845 83.7883C101.117 84.083 104.806 86.021 108.785 85.0918C113.157 84.0709 116.438 83.3732 117.54 83.5679L117.429 83.0445L100.975 82.9846L100.845 83.7883Z" fill="#C1C1C1"/>
<path d="M128.154 29.3559C125.361 32.6183 122.372 30.9449 121.498 29.7804C115.189 32.7473 111.882 27.3205 111.978 24.4773C108.135 24.832 108.413 20.9804 109.898 20.0837C106.668 18.2438 108.847 15.0115 110.802 15.3163C110.25 12.509 112.405 11.8581 113.551 11.8836C114.389 8.9536 117.529 9.48393 118.143 10.7283C120.926 7.5809 123.268 10.0722 123.832 11.708C129.05 7.51329 131.751 13.3896 130.883 15.2559C132.016 15.4664 132.115 16.6707 132.023 17.2466C136.534 15.8315 137.986 21.8092 135.007 23.3643C136.768 28.9618 130.977 30.9803 128.154 29.3559Z" fill="white"/>
<path d="M116.615 33.3993C116.966 34.0932 116.314 35.4787 115.321 35.7041C114.328 35.9294 113.33 35.282 113.118 34.3477C112.906 33.4133 113.259 32.5754 114.213 32.3588C115.168 32.1421 116.403 32.4649 116.615 33.3993Z" fill="white"/>
<path d="M113.954 37.8702C114.111 38.2213 113.788 38.8748 113.28 38.99C112.772 39.1053 112.318 38.6688 112.226 38.2625C112.133 37.8563 112.263 37.4033 112.905 37.335C113.419 37.2181 113.907 37.4941 113.954 37.8702Z" fill="white"/>
<path d="M119.728 12.0799L118.241 14.7835L117.866 14.5773L117.583 11.8386L117.558 11.8248L116.467 13.8076L116.059 13.5832L117.546 10.8796L117.924 11.0873L118.207 13.8294L118.232 13.8432L119.324 11.8577L119.728 12.0799ZM118.804 15.0934L119.92 13.0657L120.315 13.2828L119.199 15.3105L118.804 15.0934ZM120.291 12.8625C120.223 12.8247 120.176 12.7694 120.152 12.6965C120.129 12.6233 120.136 12.5545 120.171 12.4903C120.207 12.4252 120.262 12.383 120.335 12.3639C120.41 12.3444 120.482 12.3535 120.55 12.3912C120.619 12.429 120.665 12.4845 120.688 12.5578C120.712 12.6306 120.706 12.6996 120.67 12.7648C120.635 12.829 120.58 12.8709 120.505 12.8904C120.431 12.9096 120.36 12.9003 120.291 12.8625ZM120.562 16.1133C120.366 16.0054 120.221 15.868 120.128 15.7012C120.037 15.5339 119.997 15.3507 120.007 15.1516C120.018 14.9524 120.08 14.7512 120.192 14.5479C120.305 14.342 120.444 14.1815 120.608 14.0666C120.772 13.9508 120.949 13.8872 121.139 13.8757C121.329 13.8643 121.519 13.9111 121.71 14.0162C121.864 14.1009 121.986 14.205 122.075 14.3285C122.164 14.4512 122.218 14.5839 122.236 14.7266C122.255 14.8698 122.233 15.0135 122.172 15.1577L121.788 14.9464C121.819 14.8397 121.816 14.7313 121.778 14.621C121.741 14.5112 121.66 14.4217 121.534 14.3525C121.424 14.2919 121.311 14.268 121.197 14.2806C121.083 14.2927 120.975 14.3395 120.87 14.4208C120.766 14.5012 120.675 14.6136 120.595 14.7579C120.514 14.9058 120.466 15.0458 120.452 15.1778C120.438 15.3099 120.456 15.4279 120.505 15.5319C120.555 15.6363 120.636 15.7193 120.748 15.7808C120.823 15.8219 120.898 15.8456 120.974 15.8517C121.051 15.8574 121.125 15.8457 121.194 15.8165C121.265 15.7878 121.329 15.7416 121.386 15.6777L121.77 15.889C121.684 16.0124 121.577 16.106 121.449 16.1697C121.321 16.2335 121.181 16.2619 121.029 16.2551C120.878 16.2487 120.722 16.2014 120.562 16.1133ZM122.581 16.2747L122.843 15.7914L122.912 15.8292L124.192 15.4155L124.664 15.6755L123.205 16.1455L123.143 16.1114L122.581 16.2747ZM121.839 16.7628L123.326 14.0592L123.721 14.2763L122.234 16.9799L121.839 16.7628ZM123.12 17.4671L122.924 16.1041L123.348 15.9778L123.604 17.7336L123.12 17.4671ZM124.676 18.3767C124.477 18.2668 124.328 18.1295 124.231 17.9647C124.135 17.7996 124.09 17.6176 124.098 17.4187C124.107 17.2195 124.169 17.0147 124.284 16.8043C124.399 16.5967 124.538 16.4349 124.703 16.3191C124.868 16.2038 125.045 16.1401 125.234 16.1282C125.424 16.1168 125.613 16.1629 125.801 16.2665C125.916 16.3294 126.016 16.4093 126.103 16.5062C126.189 16.6031 126.253 16.7155 126.294 16.8435C126.335 16.9714 126.344 17.1136 126.322 17.2701C126.301 17.4257 126.239 17.5954 126.138 17.7794L126.061 17.9193L124.449 17.0327L124.612 16.737L125.837 17.4108C125.894 17.307 125.924 17.2034 125.926 17.1001C125.928 16.9959 125.904 16.8994 125.853 16.8106C125.803 16.7224 125.727 16.6501 125.624 16.594C125.514 16.533 125.402 16.507 125.289 16.5161C125.178 16.5247 125.076 16.5603 124.983 16.6227C124.891 16.6848 124.818 16.7664 124.762 16.8676L124.635 17.0986C124.56 17.2342 124.521 17.3625 124.516 17.4837C124.512 17.6054 124.54 17.715 124.598 17.8126C124.657 17.9093 124.745 17.9894 124.86 18.0528C124.935 18.094 125.009 18.1209 125.082 18.1337C125.156 18.1456 125.227 18.1423 125.295 18.1239C125.364 18.1054 125.428 18.0711 125.486 18.0208L125.823 18.2936C125.732 18.3872 125.626 18.454 125.503 18.4941C125.381 18.5338 125.25 18.5446 125.108 18.5265C124.968 18.508 124.824 18.458 124.676 18.3767ZM127.889 16.5688L126.402 19.2723L126.007 19.0552L127.494 16.3517L127.889 16.5688ZM127.179 19.7326C127.107 19.6929 127.059 19.6332 127.035 19.5536C127.011 19.4731 127.02 19.3964 127.06 19.3233C127.1 19.2511 127.16 19.2038 127.24 19.1813C127.32 19.158 127.396 19.1661 127.469 19.2058C127.541 19.2455 127.589 19.3056 127.612 19.3861C127.636 19.4657 127.628 19.5416 127.588 19.6138C127.561 19.6622 127.525 19.6998 127.478 19.7268C127.432 19.7533 127.383 19.7676 127.33 19.7695C127.278 19.7715 127.227 19.7592 127.179 19.7326ZM116.741 17.9042C116.582 18.1928 116.393 18.412 116.173 18.5616C115.954 18.7103 115.721 18.7899 115.476 18.8005C115.232 18.8107 114.993 18.7517 114.76 18.6234C114.526 18.4946 114.348 18.3242 114.225 18.1122C114.103 17.8997 114.047 17.6606 114.055 17.3948C114.064 17.129 114.147 16.8522 114.306 16.5644C114.464 16.2758 114.653 16.0571 114.873 15.9084C115.093 15.7588 115.325 15.6789 115.569 15.6687C115.814 15.6581 116.054 15.7172 116.288 15.8459C116.521 15.9742 116.699 16.1446 116.82 16.357C116.943 16.5691 117 16.808 116.992 17.0738C116.983 17.3387 116.9 17.6155 116.741 17.9042ZM116.337 17.682C116.458 17.4619 116.525 17.2571 116.536 17.0674C116.549 16.8773 116.515 16.7096 116.434 16.5644C116.355 16.4188 116.238 16.3034 116.083 16.2182C115.927 16.1325 115.767 16.0952 115.601 16.1062C115.436 16.1164 115.277 16.1775 115.122 16.2897C114.969 16.4015 114.832 16.5673 114.711 16.7874C114.59 17.0074 114.523 17.2124 114.51 17.4025C114.499 17.5922 114.532 17.7599 114.612 17.9055C114.691 18.0502 114.809 18.1655 114.965 18.2511C115.12 18.3363 115.28 18.3739 115.445 18.3637C115.611 18.3531 115.771 18.292 115.924 18.1802C116.078 18.0681 116.216 17.902 116.337 17.682ZM118.555 18.0214L118.381 18.3382L117.235 17.7079L117.409 17.3911L118.555 18.0214ZM116.608 19.5916L117.852 17.329C117.922 17.2022 118.008 17.1123 118.109 17.0592C118.211 17.0052 118.319 16.9827 118.433 16.9917C118.548 16.9998 118.659 17.0334 118.767 17.0924C118.846 17.136 118.91 17.1799 118.959 17.2241C119.009 17.2674 119.044 17.3018 119.066 17.3274L118.797 17.596C118.782 17.5806 118.761 17.5613 118.736 17.5383C118.712 17.5144 118.679 17.4911 118.637 17.4683C118.541 17.4156 118.46 17.4016 118.392 17.4263C118.325 17.4516 118.267 17.5091 118.218 17.5989L117.003 19.8087L116.608 19.5916ZM119.729 17.7867L118.241 20.4902L117.847 20.2731L119.334 17.5695L119.729 17.7867ZM119.624 21.3039C119.424 21.194 119.275 21.0567 119.178 20.892C119.082 20.7268 119.038 20.5448 119.045 20.3459C119.054 20.1467 119.116 19.9419 119.232 19.7316C119.346 19.5239 119.485 19.3621 119.65 19.2463C119.815 19.131 119.993 19.0674 120.181 19.0554C120.371 19.044 120.56 19.0901 120.749 19.1937C120.863 19.2566 120.963 19.3365 121.05 19.4334C121.136 19.5303 121.2 19.6428 121.241 19.7707C121.282 19.8986 121.291 20.0408 121.269 20.1973C121.248 20.3529 121.187 20.5226 121.086 20.7066L121.009 20.8465L119.397 19.9599L119.559 19.6642L120.784 20.338C120.842 20.2342 120.871 20.1306 120.873 20.0273C120.875 19.9231 120.851 19.8266 120.8 19.7378C120.75 19.6496 120.674 19.5774 120.572 19.5212C120.461 19.4602 120.349 19.4342 120.236 19.4433C120.125 19.452 120.023 19.4875 119.93 19.5499C119.839 19.612 119.765 19.6936 119.709 19.7948L119.582 20.0258C119.508 20.1614 119.468 20.2897 119.463 20.4109C119.459 20.5326 119.487 20.6422 119.546 20.7398C119.605 20.8366 119.692 20.9166 119.807 20.98C119.882 21.0212 119.956 21.0481 120.029 21.0609C120.103 21.0728 120.174 21.0695 120.243 21.0511C120.311 21.0327 120.375 20.9983 120.433 20.948L120.77 21.2208C120.68 21.3144 120.573 21.3812 120.45 21.4213C120.328 21.4611 120.197 21.4719 120.056 21.4537C119.916 21.4352 119.772 21.3853 119.624 21.3039ZM120.954 21.9824L122.07 19.9548L122.448 20.1632L122.267 20.4932L122.292 20.507C122.396 20.4185 122.513 20.3693 122.643 20.3596C122.774 20.349 122.906 20.3805 123.04 20.4541C123.175 20.5286 123.271 20.6228 123.328 20.7365C123.386 20.8507 123.406 20.9753 123.389 21.1104L123.41 21.122C123.518 21.0404 123.643 20.9965 123.783 20.9904C123.925 20.9833 124.069 21.02 124.215 21.1004C124.399 21.2015 124.517 21.3417 124.57 21.5209C124.623 21.7006 124.586 21.9066 124.459 22.1389L123.711 23.4986L123.316 23.2815L124.043 21.9588C124.119 21.8215 124.136 21.7015 124.095 21.5987C124.054 21.496 123.982 21.416 123.878 21.3589C123.75 21.2882 123.628 21.2729 123.513 21.3129C123.399 21.352 123.308 21.4331 123.24 21.5563L122.529 22.8487L122.136 22.6323L122.877 21.2845C122.938 21.1745 122.952 21.0672 122.92 20.9625C122.888 20.8579 122.817 20.7753 122.707 20.7148C122.633 20.6737 122.553 20.6555 122.467 20.6602C122.384 20.6646 122.303 20.6908 122.226 20.7391C122.15 20.7878 122.087 20.8579 122.037 20.9494L121.349 22.1995L120.954 21.9824ZM126.075 24.8524C125.875 24.7425 125.726 24.6052 125.629 24.4404C125.533 24.2753 125.489 24.0933 125.496 23.8944C125.505 23.6952 125.567 23.4904 125.683 23.28C125.797 23.0723 125.936 22.9106 126.101 22.7948C126.266 22.6795 126.444 22.6158 126.632 22.6039C126.822 22.5925 127.011 22.6386 127.199 22.7422C127.314 22.8051 127.414 22.885 127.501 22.9819C127.587 23.0788 127.651 23.1912 127.692 23.3192C127.733 23.4471 127.742 23.5893 127.72 23.7458C127.699 23.9014 127.638 24.0711 127.537 24.2551L127.46 24.395L125.848 23.5084L126.01 23.2127L127.235 23.8865C127.293 23.7827 127.322 23.6791 127.324 23.5758C127.326 23.4716 127.302 23.3751 127.251 23.2863C127.201 23.1981 127.125 23.1258 127.023 23.0697C126.912 23.0087 126.8 22.9827 126.687 22.9918C126.576 23.0004 126.474 23.036 126.381 23.0984C126.29 23.1605 126.216 23.2421 126.16 23.3433L126.033 23.5743C125.959 23.7099 125.919 23.8382 125.914 23.9594C125.91 24.0811 125.938 24.1907 125.996 24.2883C126.056 24.385 126.143 24.4651 126.258 24.5285C126.333 24.5697 126.407 24.5966 126.48 24.6094C126.554 24.6213 126.625 24.618 126.694 24.5996C126.762 24.5811 126.826 24.5468 126.884 24.4965L127.221 24.7693C127.131 24.8629 127.024 24.9297 126.901 24.9698C126.779 25.0095 126.648 25.0203 126.507 25.0022C126.367 24.9837 126.223 24.9337 126.075 24.8524ZM129.768 24.8341L129.375 24.7007C129.385 24.6467 129.386 24.59 129.376 24.5308C129.367 24.472 129.342 24.4144 129.302 24.3579C129.262 24.3015 129.201 24.2508 129.119 24.2058C129.008 24.1443 128.901 24.1181 128.798 24.1271C128.696 24.1352 128.624 24.1785 128.581 24.2568C128.543 24.3245 128.538 24.3929 128.566 24.4619C128.593 24.5308 128.656 24.6092 128.753 24.6971L129.034 24.9482C129.197 25.094 129.3 25.2369 129.342 25.377C129.384 25.5171 129.366 25.6589 129.287 25.8024C129.22 25.9238 129.125 26.0127 129.002 26.069C128.881 26.1249 128.743 26.1454 128.589 26.1303C128.435 26.1157 128.276 26.0634 128.113 25.9734C127.886 25.8485 127.727 25.6982 127.637 25.5225C127.547 25.3459 127.535 25.1589 127.602 24.9614L128.015 25.1132C127.984 25.2257 127.992 25.3278 128.037 25.4195C128.084 25.5104 128.166 25.5884 128.285 25.6538C128.414 25.725 128.533 25.755 128.64 25.7439C128.747 25.732 128.822 25.6868 128.865 25.6085C128.9 25.5451 128.906 25.4788 128.882 25.4095C128.859 25.3408 128.805 25.2687 128.721 25.1935L128.419 24.9294C128.253 24.7822 128.151 24.6366 128.112 24.4926C128.074 24.3491 128.095 24.2051 128.174 24.0608C128.24 23.9411 128.331 23.8548 128.447 23.8018C128.564 23.7488 128.695 23.7297 128.84 23.7444C128.986 23.7582 129.135 23.807 129.288 23.8907C129.507 24.0113 129.653 24.1537 129.727 24.318C129.801 24.4814 129.814 24.6534 129.768 24.8341ZM131.46 25.1202L131.286 25.437L130.178 24.8278L130.353 24.511L131.46 25.1202ZM130.917 24.1885L131.311 24.4057L130.256 26.3238C130.214 26.4003 130.194 26.4643 130.196 26.5156C130.198 26.566 130.213 26.6082 130.241 26.6421C130.271 26.6756 130.307 26.7043 130.35 26.728C130.382 26.7454 130.411 26.7585 130.437 26.7671C130.463 26.7758 130.484 26.7824 130.498 26.7871L130.39 27.1523C130.363 27.1486 130.325 27.1394 130.278 27.125C130.231 27.1115 130.175 27.0877 130.111 27.0537C130.006 26.9984 129.92 26.9266 129.851 26.8385C129.783 26.7504 129.743 26.6506 129.732 26.5392C129.721 26.4277 129.749 26.3108 129.817 26.1885L130.917 24.1885ZM112.059 22.8493C111.859 22.7394 111.711 22.6021 111.613 22.4373C111.517 22.2722 111.473 22.0902 111.48 21.8913C111.489 21.6921 111.551 21.4873 111.667 21.2769C111.781 21.0692 111.921 20.9075 112.085 20.7917C112.251 20.6763 112.428 20.6127 112.617 20.6008C112.806 20.5894 112.995 20.6355 113.184 20.739C113.298 20.802 113.399 20.8819 113.485 20.9788C113.572 21.0757 113.635 21.1881 113.676 21.316C113.717 21.444 113.727 21.5862 113.705 21.7426C113.683 21.8982 113.622 22.068 113.521 22.2519L113.444 22.3919L111.832 21.5052L111.995 21.2095L113.22 21.8834C113.277 21.7796 113.306 21.676 113.308 21.5727C113.31 21.4685 113.286 21.372 113.235 21.2832C113.185 21.1949 113.109 21.1227 113.007 21.0666C112.896 21.0056 112.784 20.9796 112.672 20.9887C112.56 20.9973 112.458 21.0329 112.365 21.0953C112.274 21.1573 112.2 21.239 112.145 21.3402L112.018 21.5712C111.943 21.7067 111.903 21.8351 111.899 21.9563C111.895 22.0779 111.922 22.1876 111.981 22.2852C112.04 22.3819 112.127 22.462 112.242 22.5254C112.317 22.5666 112.391 22.5935 112.464 22.6063C112.538 22.6182 112.609 22.6149 112.678 22.5964C112.746 22.578 112.81 22.5437 112.869 22.4934L113.205 22.7662C113.115 22.8597 113.008 22.9266 112.885 22.9667C112.764 23.0064 112.632 23.0172 112.491 22.9991C112.351 22.9805 112.207 22.9306 112.059 22.8493ZM114.446 22.541L113.784 23.7449L113.389 23.5278L114.505 21.5001L114.884 21.7085L114.702 22.0386L114.727 22.0523C114.833 21.9706 114.953 21.9246 115.089 21.9142C115.225 21.9042 115.369 21.9411 115.521 22.0249C115.659 22.1009 115.764 22.1965 115.836 22.3117C115.909 22.426 115.942 22.5557 115.937 22.7007C115.932 22.8457 115.883 23.0018 115.791 23.169L115.082 24.4587L114.687 24.2416L115.37 22.9994C115.451 22.8524 115.476 22.7165 115.445 22.5917C115.414 22.4659 115.332 22.3663 115.199 22.2927C115.107 22.2424 115.015 22.2174 114.922 22.2178C114.829 22.2186 114.742 22.246 114.658 22.2998C114.576 22.3532 114.505 22.4336 114.446 22.541ZM118.675 23.7942L118.501 24.111L117.355 23.4807L117.529 23.1639L118.675 23.7942ZM116.728 25.3644L117.973 23.1017C118.043 22.975 118.128 22.8851 118.23 22.832C118.332 22.778 118.44 22.7555 118.554 22.7645C118.669 22.7726 118.78 22.8062 118.887 22.8652C118.966 22.9088 119.03 22.9527 119.08 22.9969C119.129 23.0402 119.165 23.0746 119.186 23.1002L118.918 23.3688C118.902 23.3533 118.882 23.3341 118.857 23.3111C118.832 23.2872 118.799 23.2639 118.758 23.2411C118.662 23.1884 118.58 23.1744 118.513 23.1991C118.446 23.2244 118.388 23.2819 118.339 23.3717L117.123 25.5815L116.728 25.3644ZM118.719 26.5127C118.529 26.4081 118.387 26.2733 118.293 26.1082C118.199 25.9432 118.156 25.7608 118.164 25.561C118.172 25.3613 118.234 25.1567 118.349 24.9472C118.465 24.7369 118.605 24.5745 118.77 24.4601C118.935 24.3456 119.112 24.2838 119.302 24.2746C119.491 24.2654 119.681 24.3131 119.871 24.4177C120.061 24.5223 120.203 24.6571 120.297 24.8221C120.391 24.9872 120.434 25.17 120.425 25.3707C120.417 25.5713 120.355 25.7768 120.239 25.9871C120.124 26.1965 119.984 26.3581 119.82 26.4716C119.655 26.5852 119.478 26.6466 119.288 26.6558C119.099 26.6649 118.909 26.6172 118.719 26.5127ZM118.903 26.1821C119.026 26.2498 119.146 26.2734 119.263 26.2528C119.379 26.2323 119.487 26.1785 119.585 26.0915C119.684 26.0051 119.77 25.8967 119.841 25.7665C119.912 25.6371 119.958 25.5074 119.978 25.3774C119.999 25.2469 119.988 25.1265 119.943 25.0159C119.898 24.9054 119.814 24.8162 119.691 24.7484C119.567 24.6802 119.446 24.6565 119.328 24.6775C119.21 24.699 119.102 24.7534 119.002 24.8407C118.904 24.9277 118.819 25.0359 118.748 25.1652C118.677 25.2955 118.63 25.4254 118.61 25.5549C118.59 25.685 118.602 25.8048 118.647 25.9145C118.693 26.0246 118.778 26.1138 118.903 26.1821ZM120.127 27.234L121.243 25.2064L121.624 25.4162L121.447 25.7383L121.468 25.7499C121.565 25.6611 121.677 25.6112 121.805 25.6C121.934 25.5884 122.058 25.6153 122.177 25.6807C122.201 25.6942 122.23 25.7111 122.262 25.7312C122.296 25.7519 122.321 25.7688 122.339 25.7821L122.132 26.1597C122.118 26.1466 122.093 26.1262 122.055 26.0987C122.018 26.0703 121.979 26.0449 121.939 26.0226C121.845 25.9713 121.751 25.9454 121.657 25.9448C121.563 25.9438 121.476 25.9665 121.396 26.0128C121.316 26.0582 121.251 26.1249 121.203 26.2129L120.522 27.4511L120.127 27.234ZM121.554 28.0188L122.669 25.9911L123.048 26.1995L122.867 26.5296L122.892 26.5434C122.995 26.4548 123.112 26.4057 123.243 26.396C123.373 26.3854 123.506 26.4169 123.64 26.4905C123.775 26.565 123.871 26.6592 123.928 26.7729C123.985 26.8871 124.006 27.0117 123.989 27.1468L124.01 27.1584C124.118 27.0768 124.242 27.0329 124.383 27.0267C124.525 27.0197 124.668 27.0564 124.814 27.1367C124.998 27.2379 125.117 27.3781 125.169 27.5573C125.223 27.737 125.186 27.943 125.058 28.1753L124.31 29.535L123.916 29.3179L124.643 27.9951C124.719 27.8579 124.736 27.7378 124.695 27.6351C124.654 27.5323 124.582 27.4524 124.478 27.3953C124.349 27.3246 124.228 27.3092 124.113 27.3492C123.999 27.3884 123.907 27.4695 123.84 27.5927L123.129 28.8851L122.735 28.6687L123.477 27.3209C123.537 27.2109 123.552 27.1036 123.52 26.9989C123.488 26.8943 123.417 26.8117 123.307 26.7512C123.232 26.71 123.152 26.6918 123.067 26.6966C122.983 26.7009 122.903 26.7272 122.826 26.7754C122.75 26.8242 122.687 26.8943 122.636 26.9858L121.949 28.2359L121.554 28.0188ZM125.691 30.3476C125.491 30.2377 125.342 30.1004 125.245 29.9357C125.149 29.7705 125.105 29.5885 125.112 29.3896C125.121 29.1904 125.183 28.9856 125.299 28.7753C125.413 28.5676 125.552 28.4058 125.717 28.29C125.882 28.1747 126.059 28.1111 126.248 28.0991C126.438 28.0877 126.627 28.1338 126.815 28.2374C126.93 28.3003 127.03 28.3802 127.117 28.4771C127.203 28.574 127.267 28.6865 127.308 28.8144C127.349 28.9423 127.358 29.0845 127.336 29.241C127.315 29.3966 127.254 29.5663 127.152 29.7503L127.075 29.8902L125.464 29.0036L125.626 28.7079L126.851 29.3817C126.908 29.2779 126.938 29.1743 126.94 29.071C126.942 28.9668 126.918 28.8703 126.867 28.7816C126.817 28.6933 126.741 28.6211 126.639 28.5649C126.528 28.5039 126.416 28.4779 126.303 28.487C126.192 28.4957 126.09 28.5312 125.997 28.5937C125.905 28.6557 125.832 28.7373 125.776 28.8385L125.649 29.0695C125.575 29.2051 125.535 29.3334 125.53 29.4546C125.526 29.5763 125.554 29.6859 125.612 29.7835C125.671 29.8803 125.759 29.9603 125.874 30.0237C125.949 30.0649 126.023 30.0918 126.096 30.1046C126.17 30.1165 126.241 30.1132 126.31 30.0948C126.378 30.0764 126.442 30.042 126.5 29.9917L126.837 30.2645C126.746 30.3581 126.64 30.4249 126.517 30.465C126.395 30.5048 126.264 30.5156 126.122 30.4974C125.982 30.4789 125.839 30.429 125.691 30.3476Z" fill="black"/>
<path d="M65.4333 38.6034C63.6096 42.8218 60.1273 42.0109 58.9088 41.0776C53.4849 46.067 48.5718 41.4836 47.825 38.5226C44.0911 40.064 43.2264 36.0078 44.4448 34.6288C40.6716 33.7202 41.8901 29.7208 43.9339 29.4369C42.5504 26.7112 44.5103 25.3808 45.6632 25.0563C45.6318 21.779 48.9255 21.3652 49.9081 22.4604C51.7554 18.3637 54.8342 20.2157 55.8824 21.7298C59.8521 15.8083 64.2935 21.0405 63.9791 23.2306C65.1739 23.1008 65.6298 24.3123 65.7085 24.9343C69.7961 22.0949 73.0191 27.814 70.5036 30.3289C73.9231 35.5613 68.7349 39.4146 65.4333 38.6034Z" fill="white"/>
<path d="M48.1337 43.4986C48.3302 44.3098 47.3478 45.6078 46.2868 45.6078C45.2258 45.6078 44.3613 44.6913 44.3613 43.6608C44.3613 42.6304 44.9131 41.8356 45.9332 41.8356C46.9532 41.8356 48.1337 42.4681 48.1337 43.4986Z" fill="white"/>
<path d="M44.3977 47.5548C44.4763 47.9604 43.9971 48.5688 43.4546 48.5688C42.912 48.5688 42.5508 48.0028 42.5508 47.5548C42.5508 47.1067 42.7866 46.6624 43.4546 46.7435C44.0047 46.7435 44.437 47.1491 44.3977 47.5548Z" fill="white"/>
<path d="M52.4135 25.5629V25.2359L54.1227 22.7348H52.3992V22.3126H54.7226V22.6395L53.0134 25.1407H54.7369V25.5629H52.4135ZM56.3644 25.6121C56.1242 25.6121 55.9174 25.5608 55.7439 25.4581C55.5714 25.3544 55.4381 25.209 55.3439 25.0217C55.2508 24.8334 55.2043 24.6128 55.2043 24.3599C55.2043 24.1102 55.2508 23.8901 55.3439 23.6997C55.4381 23.5092 55.5693 23.3606 55.7375 23.2537C55.9068 23.1469 56.1047 23.0934 56.3311 23.0934C56.4686 23.0934 56.6019 23.1162 56.731 23.1617C56.8601 23.2072 56.976 23.2786 57.0786 23.3759C57.1812 23.4733 57.2622 23.5997 57.3214 23.7552C57.3806 23.9097 57.4103 24.0975 57.4103 24.3186V24.4869H55.4725V24.1314H56.9453C56.9453 24.0065 56.9199 23.8959 56.8691 23.7997C56.8183 23.7023 56.7469 23.6256 56.6548 23.5695C56.5639 23.5135 56.457 23.4854 56.3343 23.4854C56.2009 23.4854 56.0846 23.5182 55.9851 23.5838C55.8867 23.6484 55.8105 23.733 55.7566 23.8377C55.7037 23.9414 55.6772 24.0541 55.6772 24.1758V24.4535C55.6772 24.6165 55.7058 24.7551 55.7629 24.8693C55.8211 24.9836 55.9021 25.0709 56.0057 25.1312C56.1094 25.1904 56.2306 25.2201 56.3692 25.2201C56.4591 25.2201 56.5411 25.2074 56.6152 25.182C56.6892 25.1555 56.7532 25.1164 56.8072 25.0645C56.8612 25.0127 56.9024 24.9487 56.931 24.8725L57.3801 24.9534C57.3441 25.0857 57.2796 25.2015 57.1865 25.301C57.0945 25.3994 56.9786 25.4761 56.8389 25.5311C56.7003 25.5851 56.5422 25.6121 56.3644 25.6121ZM56.1168 22.7998L56.4882 22.0682H56.9881L56.4961 22.7998H56.1168ZM57.9368 25.5629V23.1252H58.3954V23.5124H58.4208C58.4653 23.3812 58.5436 23.2781 58.6557 23.2029C58.7689 23.1268 58.8969 23.0887 59.0398 23.0887C59.0694 23.0887 59.1043 23.0897 59.1445 23.0918C59.1858 23.094 59.2181 23.0966 59.2413 23.0998V23.5537C59.2223 23.5484 59.1884 23.5426 59.1398 23.5362C59.0911 23.5288 59.0424 23.5251 58.9937 23.5251C58.8816 23.5251 58.7816 23.5489 58.6938 23.5965C58.607 23.6431 58.5383 23.7081 58.4875 23.7917C58.4367 23.8743 58.4113 23.9684 58.4113 24.0742V25.5629H57.9368ZM60.5915 25.6121C60.363 25.6121 60.1635 25.5597 59.9932 25.4549C59.8228 25.3502 59.6906 25.2037 59.5964 25.0153C59.5023 24.827 59.4552 24.6069 59.4552 24.3551C59.4552 24.1023 59.5023 23.8811 59.5964 23.6917C59.6906 23.5024 59.8228 23.3553 59.9932 23.2505C60.1635 23.1458 60.363 23.0934 60.5915 23.0934C60.82 23.0934 61.0195 23.1458 61.1898 23.2505C61.3602 23.3553 61.4924 23.5024 61.5866 23.6917C61.6807 23.8811 61.7278 24.1023 61.7278 24.3551C61.7278 24.6069 61.6807 24.827 61.5866 25.0153C61.4924 25.2037 61.3602 25.3502 61.1898 25.4549C61.0195 25.5597 60.82 25.6121 60.5915 25.6121ZM60.5931 25.2137C60.7412 25.2137 60.8639 25.1746 60.9613 25.0963C61.0586 25.018 61.1306 24.9138 61.1771 24.7836C61.2247 24.6535 61.2485 24.5101 61.2485 24.3535C61.2485 24.198 61.2247 24.0552 61.1771 23.925C61.1306 23.7938 61.0586 23.6886 60.9613 23.6092C60.8639 23.5299 60.7412 23.4902 60.5931 23.4902C60.4439 23.4902 60.3201 23.5299 60.2217 23.6092C60.1244 23.6886 60.0519 23.7938 60.0043 23.925C59.9577 24.0552 59.9345 24.198 59.9345 24.3535C59.9345 24.5101 59.9577 24.6535 60.0043 24.7836C60.0519 24.9138 60.1244 25.018 60.2217 25.0963C60.3201 25.1746 60.4439 25.2137 60.5931 25.2137ZM49.7829 30.6121C49.5428 30.6121 49.3359 30.5608 49.1624 30.4581C48.9899 30.3544 48.8566 30.209 48.7625 30.0217C48.6694 29.8334 48.6228 29.6128 48.6228 29.3599C48.6228 29.1102 48.6694 28.8901 48.7625 28.6997C48.8566 28.5092 48.9878 28.3606 49.1561 28.2537C49.3253 28.1469 49.5232 28.0934 49.7496 28.0934C49.8872 28.0934 50.0205 28.1162 50.1495 28.1617C50.2786 28.2072 50.3945 28.2786 50.4971 28.3759C50.5997 28.4733 50.6807 28.5997 50.7399 28.7552C50.7992 28.9097 50.8288 29.0975 50.8288 29.3186V29.4869H48.891V29.1314H50.3638C50.3638 29.0065 50.3384 28.8959 50.2876 28.7997C50.2368 28.7023 50.1654 28.6256 50.0734 28.5695C49.9824 28.5135 49.8755 28.4854 49.7528 28.4854C49.6195 28.4854 49.5031 28.5182 49.4036 28.5838C49.3052 28.6484 49.2291 28.733 49.1751 28.8377C49.1222 28.9414 49.0958 29.0541 49.0958 29.1758V29.4535C49.0958 29.6165 49.1243 29.7551 49.1815 29.8693C49.2396 29.9836 49.3206 30.0709 49.4243 30.1312C49.528 30.1904 49.6491 30.2201 49.7877 30.2201C49.8776 30.2201 49.9596 30.2074 50.0337 30.182C50.1078 30.1555 50.1718 30.1164 50.2257 30.0645C50.2797 30.0127 50.3209 29.9487 50.3495 29.8725L50.7986 29.9534C50.7627 30.0857 50.6981 30.2015 50.605 30.301C50.513 30.3994 50.3971 30.4761 50.2575 30.5311C50.1189 30.5851 49.9607 30.6121 49.7829 30.6121ZM49.5354 27.7998L49.9067 27.0682H50.4066L49.9147 27.7998H49.5354ZM51.8298 29.1155V30.5629H51.3553V28.1252H51.8108V28.5219H51.8409C51.897 28.3928 51.9848 28.2892 52.1044 28.2109C52.225 28.1326 52.3768 28.0934 52.5599 28.0934C52.726 28.0934 52.8715 28.1283 52.9963 28.1982C53.1212 28.2669 53.218 28.3696 53.2867 28.5061C53.3555 28.6425 53.3899 28.8113 53.3899 29.0123V30.5629H52.9154V29.0695C52.9154 28.8928 52.8693 28.7547 52.7773 28.6552C52.6852 28.5547 52.5588 28.5045 52.398 28.5045C52.288 28.5045 52.1901 28.5283 52.1044 28.5759C52.0197 28.6235 51.9526 28.6933 51.9028 28.7854C51.8542 28.8764 51.8298 28.9864 51.8298 29.1155ZM55.0769 30.6121C54.8368 30.6121 54.6299 30.5608 54.4564 30.4581C54.2839 30.3544 54.1506 30.209 54.0565 30.0217C53.9633 29.8334 53.9168 29.6128 53.9168 29.3599C53.9168 29.1102 53.9633 28.8901 54.0565 28.6997C54.1506 28.5092 54.2818 28.3606 54.45 28.2537C54.6193 28.1469 54.8172 28.0934 55.0436 28.0934C55.1811 28.0934 55.3145 28.1162 55.4435 28.1617C55.5726 28.2072 55.6885 28.2786 55.7911 28.3759C55.8937 28.4733 55.9747 28.5997 56.0339 28.7552C56.0932 28.9097 56.1228 29.0975 56.1228 29.3186V29.4869H54.185V29.1314H55.6578C55.6578 29.0065 55.6324 28.8959 55.5816 28.7997C55.5308 28.7023 55.4594 28.6256 55.3674 28.5695C55.2764 28.5135 55.1695 28.4854 55.0468 28.4854C54.9135 28.4854 54.7971 28.5182 54.6976 28.5838C54.5992 28.6484 54.523 28.733 54.4691 28.8377C54.4162 28.9414 54.3897 29.0541 54.3897 29.1758V29.4535C54.3897 29.6165 54.4183 29.7551 54.4754 29.8693C54.5336 29.9836 54.6146 30.0709 54.7183 30.1312C54.8219 30.1904 54.9431 30.2201 55.0817 30.2201C55.1716 30.2201 55.2536 30.2074 55.3277 30.182C55.4017 30.1555 55.4657 30.1164 55.5197 30.0645C55.5737 30.0127 55.6149 29.9487 55.6435 29.8725L56.0926 29.9534C56.0567 30.0857 55.9921 30.2015 55.899 30.301C55.807 30.3994 55.6911 30.4761 55.5514 30.5311C55.4128 30.5851 55.2547 30.6121 55.0769 30.6121ZM56.6493 30.5629V28.1252H57.1079V28.5124H57.1333C57.1778 28.3812 57.2561 28.2781 57.3682 28.2029C57.4814 28.1268 57.6094 28.0887 57.7523 28.0887C57.7819 28.0887 57.8168 28.0897 57.857 28.0918C57.8983 28.094 57.9306 28.0966 57.9538 28.0998V28.5537C57.9348 28.5484 57.9009 28.5426 57.8523 28.5362C57.8036 28.5288 57.7549 28.5251 57.7063 28.5251C57.5941 28.5251 57.4941 28.5489 57.4063 28.5965C57.3195 28.6431 57.2508 28.7081 57.2 28.7917C57.1492 28.8743 57.1238 28.9684 57.1238 29.0742V30.5629H56.6493ZM59.2993 31.5278C59.1056 31.5278 58.939 31.5024 58.7993 31.4516C58.6607 31.4008 58.5475 31.3336 58.4597 31.2501C58.3719 31.1665 58.3063 31.075 58.2629 30.9755L58.6708 30.8073C58.6994 30.8538 58.7374 30.903 58.7851 30.9549C58.8337 31.0078 58.8993 31.0527 58.9818 31.0898C59.0654 31.1268 59.1728 31.1453 59.304 31.1453C59.4839 31.1453 59.6325 31.1014 59.75 31.0136C59.8674 30.9268 59.9261 30.7882 59.9261 30.5978V30.1185H59.896C59.8674 30.1703 59.8262 30.228 59.7722 30.2915C59.7193 30.355 59.6463 30.41 59.5532 30.4565C59.4601 30.5031 59.3389 30.5264 59.1897 30.5264C58.9972 30.5264 58.8237 30.4814 58.6692 30.3915C58.5158 30.3005 58.3941 30.1666 58.3042 29.9899C58.2153 29.8122 58.1709 29.5937 58.1709 29.3345C58.1709 29.0753 58.2148 28.8531 58.3026 28.6679C58.3915 28.4828 58.5131 28.341 58.6676 28.2426C58.8221 28.1432 58.9972 28.0934 59.1929 28.0934C59.3442 28.0934 59.4664 28.1188 59.5595 28.1696C59.6526 28.2193 59.7251 28.2775 59.777 28.3442C59.8299 28.4108 59.8706 28.4696 59.8992 28.5203H59.9341V28.1252H60.3991V30.6168C60.3991 30.8263 60.3504 30.9982 60.2531 31.1326C60.1557 31.267 60.024 31.3664 59.8579 31.431C59.6928 31.4955 59.5066 31.5278 59.2993 31.5278ZM59.2945 30.1328C59.431 30.1328 59.5463 30.101 59.6405 30.0376C59.7357 29.973 59.8076 29.881 59.8563 29.7614C59.906 29.6408 59.9309 29.4964 59.9309 29.3281C59.9309 29.1642 59.9066 29.0197 59.8579 28.8949C59.8092 28.77 59.7378 28.6727 59.6436 28.6029C59.5495 28.532 59.4331 28.4965 59.2945 28.4965C59.1517 28.4965 59.0326 28.5336 58.9374 28.6076C58.8422 28.6806 58.7702 28.7801 58.7216 28.906C58.674 29.0319 58.6502 29.1726 58.6502 29.3281C58.6502 29.4879 58.6745 29.6281 58.7232 29.7487C58.7718 29.8693 58.8438 29.9635 58.939 30.0312C59.0353 30.0989 59.1538 30.1328 59.2945 30.1328ZM61.0355 30.5629V28.1252H61.51V30.5629H61.0355ZM61.2751 27.749C61.1926 27.749 61.1217 27.7215 61.0625 27.6665C61.0043 27.6104 60.9752 27.5438 60.9752 27.4665C60.9752 27.3882 61.0043 27.3216 61.0625 27.2666C61.1217 27.2105 61.1926 27.1825 61.2751 27.1825C61.3576 27.1825 61.428 27.2105 61.4862 27.2666C61.5455 27.3216 61.5751 27.3882 61.5751 27.4665C61.5751 27.5438 61.5455 27.6104 61.4862 27.6665C61.428 27.7215 61.3576 27.749 61.2751 27.749ZM63.199 30.6121C62.9588 30.6121 62.752 30.5608 62.5785 30.4581C62.406 30.3544 62.2727 30.209 62.1785 30.0217C62.0854 29.8334 62.0389 29.6128 62.0389 29.3599C62.0389 29.1102 62.0854 28.8901 62.1785 28.6997C62.2727 28.5092 62.4039 28.3606 62.5721 28.2537C62.7414 28.1469 62.9393 28.0934 63.1657 28.0934C63.3032 28.0934 63.4365 28.1162 63.5656 28.1617C63.6947 28.2072 63.8106 28.2786 63.9132 28.3759C64.0158 28.4733 64.0968 28.5997 64.156 28.7552C64.2153 28.9097 64.2449 29.0975 64.2449 29.3186V29.4869H62.3071V29.1314H63.7799C63.7799 29.0065 63.7545 28.8959 63.7037 28.7997C63.6529 28.7023 63.5815 28.6256 63.4894 28.5695C63.3985 28.5135 63.2916 28.4854 63.1689 28.4854C63.0356 28.4854 62.9192 28.5182 62.8197 28.5838C62.7213 28.6484 62.6451 28.733 62.5912 28.8377C62.5383 28.9414 62.5118 29.0541 62.5118 29.1758V29.4535C62.5118 29.6165 62.5404 29.7551 62.5975 29.8693C62.6557 29.9836 62.7367 30.0709 62.8403 30.1312C62.944 30.1904 63.0652 30.2201 63.2038 30.2201C63.2937 30.2201 63.3757 30.2074 63.4498 30.182C63.5238 30.1555 63.5878 30.1164 63.6418 30.0645C63.6958 30.0127 63.737 29.9487 63.7656 29.8725L64.2147 29.9534C64.1788 30.0857 64.1142 30.2015 64.0211 30.301C63.9291 30.3994 63.8132 30.4761 63.6735 30.5311C63.5349 30.5851 63.3768 30.6121 63.199 30.6121ZM65.084 30.593C64.9973 30.593 64.9227 30.5623 64.8603 30.501C64.7978 30.4385 64.7666 30.3634 64.7666 30.2756C64.7666 30.1889 64.7978 30.1148 64.8603 30.0534C64.9227 29.991 64.9973 29.9598 65.084 29.9598C65.1708 29.9598 65.2454 29.991 65.3078 30.0534C65.3702 30.1148 65.4014 30.1889 65.4014 30.2756C65.4014 30.3338 65.3866 30.3872 65.357 30.4359C65.3284 30.4835 65.2903 30.5216 65.2427 30.5502C65.1951 30.5787 65.1422 30.593 65.084 30.593ZM47.9874 32.3126L48.892 34.9598H48.9285L49.8331 32.3126H50.3632L49.1936 35.5629H48.627L47.4573 32.3126H47.9874ZM50.7945 35.5629V33.1252H51.2531V33.5124H51.2785C51.323 33.3812 51.4013 33.2781 51.5134 33.2029C51.6266 33.1268 51.7546 33.0887 51.8975 33.0887C51.9271 33.0887 51.962 33.0897 52.0022 33.0918C52.0435 33.094 52.0758 33.0966 52.099 33.0998V33.5537C52.08 33.5484 52.0461 33.5426 51.9975 33.5362C51.9488 33.5288 51.9001 33.5251 51.8515 33.5251C51.7393 33.5251 51.6393 33.5489 51.5515 33.5965C51.4647 33.6431 51.396 33.7081 51.3452 33.7917C51.2944 33.8743 51.269 33.9684 51.269 34.0742V35.5629H50.7945ZM53.1973 35.6168C53.0428 35.6168 52.9031 35.5883 52.7783 35.5311C52.6534 35.4729 52.5545 35.3888 52.4815 35.2788C52.4096 35.1688 52.3736 35.0339 52.3736 34.8741C52.3736 34.7365 52.4 34.6233 52.4529 34.5345C52.5058 34.4456 52.5773 34.3752 52.6672 34.3234C52.7571 34.2715 52.8576 34.2324 52.9687 34.2059C53.0798 34.1795 53.193 34.1594 53.3084 34.1456C53.4544 34.1287 53.5729 34.115 53.6639 34.1044C53.7548 34.0927 53.821 34.0742 53.8622 34.0488C53.9035 34.0234 53.9241 33.9822 53.9241 33.925V33.9139C53.9241 33.7753 53.885 33.6679 53.8067 33.5918C53.7295 33.5156 53.6141 33.4775 53.4607 33.4775C53.301 33.4775 53.175 33.5129 53.083 33.5838C52.992 33.6537 52.9291 33.7314 52.8941 33.8171L52.4482 33.7155C52.5011 33.5674 52.5783 33.4479 52.6799 33.3569C52.7825 33.2648 52.9005 33.1982 53.0338 33.1569C53.1671 33.1146 53.3073 33.0934 53.4544 33.0934C53.5517 33.0934 53.6549 33.1051 53.7638 33.1283C53.8739 33.1506 53.9765 33.1918 54.0717 33.2521C54.168 33.3124 54.2468 33.3987 54.3082 33.5108C54.3696 33.6219 54.4002 33.7663 54.4002 33.9441V35.5629H53.9368V35.2296H53.9178C53.8871 35.291 53.8411 35.3513 53.7797 35.4105C53.7183 35.4698 53.6395 35.519 53.5432 35.5581C53.447 35.5973 53.3316 35.6168 53.1973 35.6168ZM53.3004 35.2359C53.4316 35.2359 53.5438 35.21 53.6369 35.1582C53.731 35.1063 53.8025 35.0386 53.8511 34.955C53.9009 34.8704 53.9257 34.7799 53.9257 34.6836V34.3694C53.9088 34.3863 53.876 34.4022 53.8273 34.417C53.7797 34.4308 53.7252 34.4429 53.6639 34.4535C53.6025 34.463 53.5427 34.472 53.4845 34.4805C53.4263 34.4879 53.3777 34.4943 53.3385 34.4995C53.2465 34.5112 53.1624 34.5308 53.0862 34.5583C53.0111 34.5858 52.9507 34.6255 52.9053 34.6773C52.8608 34.7281 52.8386 34.7958 52.8386 34.8804C52.8386 34.9979 52.882 35.0868 52.9687 35.1471C53.0555 35.2063 53.1661 35.2359 53.3004 35.2359ZM55.0323 35.5629V33.1252H55.5068V35.5629H55.0323ZM55.2719 32.749C55.1894 32.749 55.1185 32.7215 55.0593 32.6665C55.0011 32.6104 54.972 32.5438 54.972 32.4665C54.972 32.3882 55.0011 32.3216 55.0593 32.2666C55.1185 32.2105 55.1894 32.1825 55.2719 32.1825C55.3545 32.1825 55.4248 32.2105 55.483 32.2666C55.5423 32.3216 55.5719 32.3882 55.5719 32.4665C55.5719 32.5438 55.5423 32.6104 55.483 32.6665C55.4248 32.7215 55.3545 32.749 55.2719 32.749ZM56.1452 35.5629V33.1252H56.6007V33.5219H56.6308C56.6816 33.3876 56.7647 33.2828 56.88 33.2077C56.9953 33.1315 57.1334 33.0934 57.2942 33.0934C57.4572 33.0934 57.5936 33.1315 57.7037 33.2077C57.8148 33.2839 57.8968 33.3886 57.9497 33.5219H57.9751C58.0333 33.3918 58.1258 33.2881 58.2528 33.2109C58.3798 33.1326 58.5311 33.0934 58.7067 33.0934C58.9278 33.0934 59.1082 33.1627 59.2479 33.3013C59.3886 33.4399 59.459 33.6489 59.459 33.9282V35.5629H58.9844V33.9726C58.9844 33.8076 58.9395 33.688 58.8495 33.614C58.7596 33.5399 58.6522 33.5029 58.5274 33.5029C58.3729 33.5029 58.2528 33.5505 58.1671 33.6457C58.0814 33.7399 58.0385 33.861 58.0385 34.0092V35.5629H57.5656V33.9425C57.5656 33.8102 57.5243 33.7039 57.4418 33.6235C57.3593 33.5431 57.2519 33.5029 57.1196 33.5029C57.0297 33.5029 56.9467 33.5267 56.8705 33.5743C56.7954 33.6209 56.7345 33.6859 56.688 33.7695C56.6425 33.8531 56.6197 33.9499 56.6197 34.0599V35.5629H56.1452ZM61.1456 35.6121C60.9054 35.6121 60.6986 35.5608 60.525 35.4581C60.3526 35.3544 60.2193 35.209 60.1251 35.0217C60.032 34.8334 59.9855 34.6128 59.9855 34.3599C59.9855 34.1102 60.032 33.8901 60.1251 33.6997C60.2193 33.5092 60.3505 33.3606 60.5187 33.2537C60.688 33.1469 60.8858 33.0934 61.1123 33.0934C61.2498 33.0934 61.3831 33.1162 61.5122 33.1617C61.6413 33.2072 61.7571 33.2786 61.8598 33.3759C61.9624 33.4733 62.0433 33.5997 62.1026 33.7552C62.1618 33.9097 62.1914 34.0975 62.1914 34.3186V34.4869H60.2537V34.1314H61.7264C61.7264 34.0065 61.701 33.8959 61.6503 33.7997C61.5995 33.7023 61.5281 33.6256 61.436 33.5695C61.345 33.5135 61.2382 33.4854 61.1154 33.4854C60.9821 33.4854 60.8657 33.5182 60.7663 33.5838C60.6679 33.6484 60.5917 33.733 60.5377 33.8377C60.4848 33.9414 60.4584 34.0541 60.4584 34.1758V34.4535C60.4584 34.6165 60.487 34.7551 60.5441 34.8693C60.6023 34.9836 60.6832 35.0709 60.7869 35.1312C60.8906 35.1904 61.0117 35.2201 61.1503 35.2201C61.2403 35.2201 61.3223 35.2074 61.3963 35.182C61.4704 35.1555 61.5344 35.1164 61.5884 35.0645C61.6423 35.0127 61.6836 34.9487 61.7122 34.8725L62.1613 34.9534C62.1253 35.0857 62.0608 35.2015 61.9677 35.301C61.8756 35.3994 61.7598 35.4761 61.6201 35.5311C61.4815 35.5851 61.3233 35.6121 61.1456 35.6121ZM63.1925 34.1155V35.5629H62.7179V33.1252H63.1734V33.5219H63.2036C63.2597 33.3928 63.3475 33.2892 63.467 33.2109C63.5876 33.1326 63.7395 33.0934 63.9225 33.0934C64.0886 33.0934 64.2341 33.1283 64.3589 33.1982C64.4838 33.2669 64.5806 33.3696 64.6494 33.5061C64.7181 33.6425 64.7525 33.8113 64.7525 34.0123V35.5629H64.278V34.0695C64.278 33.8928 64.232 33.7547 64.1399 33.6552C64.0479 33.5547 63.9215 33.5045 63.7606 33.5045C63.6506 33.5045 63.5527 33.5283 63.467 33.5759C63.3824 33.6235 63.3152 33.6933 63.2655 33.7854C63.2168 33.8764 63.1925 33.9864 63.1925 34.1155ZM66.5269 33.1252V33.5061H65.1953V33.1252H66.5269ZM65.5524 32.5411H66.0269V34.8471C66.0269 34.9392 66.0407 35.0085 66.0682 35.055C66.0957 35.1005 66.1311 35.1317 66.1745 35.1486C66.219 35.1645 66.2671 35.1725 66.319 35.1725C66.357 35.1725 66.3904 35.1698 66.4189 35.1645C66.4475 35.1592 66.4697 35.155 66.4856 35.1518L66.5713 35.5438C66.5438 35.5544 66.5046 35.565 66.4538 35.5756C66.4031 35.5872 66.3396 35.5935 66.2634 35.5946C66.1386 35.5967 66.0222 35.5745 65.9143 35.528C65.8063 35.4814 65.719 35.4095 65.6524 35.3121C65.5857 35.2148 65.5524 35.0926 65.5524 34.9455V32.5411ZM52.005 40.5629V40.2375L53.3254 38.56V38.5378H52.0479V38.1252H53.9174V38.4711L52.6478 40.128V40.1502H53.9618V40.5629H52.005ZM55.5024 40.6121C55.2623 40.6121 55.0554 40.5608 54.8819 40.4581C54.7095 40.3544 54.5761 40.209 54.482 40.0217C54.3889 39.8334 54.3423 39.6128 54.3423 39.3599C54.3423 39.1102 54.3889 38.8901 54.482 38.6997C54.5761 38.5092 54.7073 38.3606 54.8756 38.2537C55.0449 38.1469 55.2427 38.0934 55.4691 38.0934C55.6067 38.0934 55.74 38.1162 55.8691 38.1617C55.9981 38.2072 56.114 38.2786 56.2166 38.3759C56.3192 38.4733 56.4002 38.5997 56.4594 38.7552C56.5187 38.9097 56.5483 39.0975 56.5483 39.3186V39.4869H54.6105V39.1314H56.0833C56.0833 39.0065 56.0579 38.8959 56.0071 38.7997C55.9563 38.7023 55.8849 38.6256 55.7929 38.5695C55.7019 38.5135 55.595 38.4854 55.4723 38.4854C55.339 38.4854 55.2226 38.5182 55.1231 38.5838C55.0247 38.6484 54.9486 38.733 54.8946 38.8377C54.8417 38.9414 54.8153 39.0541 54.8153 39.1758V39.4535C54.8153 39.6165 54.8438 39.7551 54.901 39.8693C54.9592 39.9836 55.0401 40.0709 55.1438 40.1312C55.2475 40.1904 55.3686 40.2201 55.5072 40.2201C55.5971 40.2201 55.6791 40.2074 55.7532 40.182C55.8273 40.1555 55.8913 40.1164 55.9452 40.0645C55.9992 40.0127 56.0405 39.9487 56.069 39.8725L56.5182 39.9534C56.4822 40.0857 56.4176 40.2015 56.3245 40.301C56.2325 40.3994 56.1166 40.4761 55.977 40.5311C55.8384 40.5851 55.6802 40.6121 55.5024 40.6121ZM55.2549 37.7998L55.6262 37.0682H56.1262L55.6342 37.7998H55.2549ZM57.0748 40.5629V38.1252H57.5335V38.5124H57.5589C57.6033 38.3812 57.6816 38.2781 57.7937 38.2029C57.907 38.1268 58.035 38.0887 58.1778 38.0887C58.2074 38.0887 58.2423 38.0897 58.2826 38.0918C58.3238 38.094 58.3561 38.0966 58.3794 38.0998V38.5537C58.3603 38.5484 58.3265 38.5426 58.2778 38.5362C58.2291 38.5288 58.1805 38.5251 58.1318 38.5251C58.0196 38.5251 57.9196 38.5489 57.8318 38.5965C57.7451 38.6431 57.6763 38.7081 57.6255 38.7917C57.5747 38.8743 57.5493 38.9684 57.5493 39.0742V40.5629H57.0748ZM59.7295 40.6121C59.501 40.6121 59.3016 40.5597 59.1312 40.4549C58.9609 40.3502 58.8286 40.2037 58.7345 40.0153C58.6403 39.827 58.5932 39.6069 58.5932 39.3551C58.5932 39.1023 58.6403 38.8811 58.7345 38.6917C58.8286 38.5024 58.9609 38.3553 59.1312 38.2505C59.3016 38.1458 59.501 38.0934 59.7295 38.0934C59.9581 38.0934 60.1575 38.1458 60.3279 38.2505C60.4982 38.3553 60.6305 38.5024 60.7246 38.6917C60.8188 38.8811 60.8659 39.1023 60.8659 39.3551C60.8659 39.6069 60.8188 39.827 60.7246 40.0153C60.6305 40.2037 60.4982 40.3502 60.3279 40.4549C60.1575 40.5597 59.9581 40.6121 59.7295 40.6121ZM59.7311 40.2137C59.8793 40.2137 60.002 40.1746 60.0993 40.0963C60.1967 40.018 60.2686 39.9138 60.3152 39.7836C60.3628 39.6535 60.3866 39.5101 60.3866 39.3535C60.3866 39.198 60.3628 39.0552 60.3152 38.925C60.2686 38.7938 60.1967 38.6886 60.0993 38.6092C60.002 38.5299 59.8793 38.4902 59.7311 38.4902C59.5819 38.4902 59.4582 38.5299 59.3598 38.6092C59.2624 38.6886 59.1899 38.7938 59.1423 38.925C59.0958 39.0552 59.0725 39.198 59.0725 39.3535C59.0725 39.5101 59.0958 39.6535 59.1423 39.7836C59.1899 39.9138 59.2624 40.018 59.3598 40.0963C59.4582 40.1746 59.5819 40.2137 59.7311 40.2137ZM61.7082 40.593C61.6214 40.593 61.5468 40.5623 61.4844 40.501C61.422 40.4385 61.3908 40.3634 61.3908 40.2756C61.3908 40.1889 61.422 40.1148 61.4844 40.0534C61.5468 39.991 61.6214 39.9598 61.7082 39.9598C61.7949 39.9598 61.8695 39.991 61.932 40.0534C61.9944 40.1148 62.0256 40.1889 62.0256 40.2756C62.0256 40.3338 62.0108 40.3872 61.9812 40.4359C61.9526 40.4835 61.9145 40.5216 61.8669 40.5502C61.8193 40.5787 61.7664 40.593 61.7082 40.593Z" fill="black"/>
</svg>
