<svg width="674" height="668" viewBox="0 0 674 668" fill="none" xmlns="http://www.w3.org/2000/svg">
<path d="M331.009 162.322C474.798 133.028 540.182 165.165 540.182 165.165C539.717 165.165 539.279 165.206 538.867 165.279C546.083 167.168 553.404 169.528 560.736 172.372C590.895 184.072 615.14 201.588 629.294 219.976C656.79 242.695 667.681 285.817 671.531 307.165C678.571 342.21 670.501 373.033 647.951 385.199C646.49 385.987 644.992 386.681 643.463 387.288C618.573 421.9 623.602 470.155 640.096 500.562C656.748 531.259 658.5 557.692 603.285 613.118C548.071 668.544 417.484 688.156 180.85 642.963C-35.0846 601.723 -1.06214 455.041 6.54224 429.694C7.86037 406.387 18.7316 378.067 38.2815 351.668C39.9523 349.412 41.6559 347.209 43.3899 345.063C84.7586 276.774 195.902 189.848 331.009 162.322Z" fill="#D9DCB9"/>
<path d="M339.679 445.011L354.955 460.49L377.566 442.14L361.2 421.982L339.679 445.011Z" fill="#FF9981"/>
<path d="M133.762 466.428H282.903C291.293 466.428 298.096 459.625 298.096 451.232V311.844C298.096 303.453 291.293 296.65 282.903 296.65H133.762C125.371 296.65 118.569 303.453 118.569 311.844V451.232C118.569 459.625 125.371 466.428 133.762 466.428Z" fill="#D5BD99"/>
<path d="M165.404 466.428H314.545C322.936 466.428 329.738 459.625 329.738 451.232V311.844C329.738 303.453 322.936 296.65 314.545 296.65H165.404C157.013 296.65 150.211 303.453 150.211 311.844V451.232C150.211 459.625 157.013 466.428 165.404 466.428Z" fill="#F3E1CA"/>
<path d="M118.84 460.473V470.681C118.84 473.362 119.007 475.973 119.34 478.466C120.999 491.099 126.61 500.397 133.278 500.397H295.901C302.569 500.397 308.186 491.099 309.852 478.466C310.178 475.973 310.351 473.362 310.351 470.681V460.473C310.351 444.066 303.882 430.757 295.901 430.757H133.278C125.303 430.757 118.84 444.066 118.84 460.473Z" fill="#D5BD99"/>
<path d="M208 394.922C208 394.922 276.056 368.994 300.178 369C324.301 369 369.029 423.086 369.029 423.086L334.824 448.112L283.256 413.728L208 394.922Z" fill="#E6CFB0"/>
<path d="M350.376 417.562C350.645 417.562 350.875 417.351 350.894 417.082C350.939 416.634 351.785 406.065 345.822 400.499C340.672 395.701 335.413 396.938 333.953 397.424C333.03 396.278 329.61 392.595 324.357 393.139C318.189 393.773 316.031 404.758 315.941 405.226C315.89 405.508 316.075 405.783 316.357 405.841C316.639 405.892 316.921 405.706 316.972 405.425C316.998 405.316 319.073 394.741 324.466 394.183C329.949 393.639 333.306 398.308 333.338 398.353C333.485 398.558 333.748 398.629 333.978 398.532C334.209 398.43 339.596 396.137 345.098 401.274C350.689 406.481 349.857 416.884 349.85 416.992C349.825 417.281 350.036 417.53 350.324 417.556C350.344 417.563 350.356 417.562 350.376 417.562Z" fill="#FCF9F5"/>
<path d="M275.889 348.079C275.889 348.079 291.742 339.919 288.796 327.32C285.85 314.714 272.892 326.071 272.892 326.071L267.121 342.084L275.889 348.079Z" fill="#FF9981"/>
<path d="M284.651 339.892L272.423 336.119C271.123 335.716 270.393 334.338 270.796 333.038L278.592 307.776C278.995 306.475 280.379 305.745 281.679 306.149L293.907 309.922C295.207 310.325 295.937 311.702 295.534 313.009L287.732 338.265C287.335 339.565 285.951 340.295 284.651 339.892Z" fill="#E6CFB0"/>
<path d="M282.788 339.322L270.567 335.549C269.267 335.145 268.537 333.762 268.94 332.462L276.735 307.199C277.139 305.899 278.522 305.169 279.823 305.572L292.044 309.345C293.351 309.748 294.075 311.132 293.677 312.432L285.876 337.688C285.472 338.995 284.095 339.725 282.788 339.322Z" fill="#80BAFF"/>
<path d="M279.772 334.005C279.42 335.158 278.299 335.837 277.274 335.516C276.243 335.203 275.698 334.011 276.057 332.858C276.409 331.705 277.53 331.033 278.561 331.347C279.586 331.667 280.131 332.858 279.772 334.005Z" fill="#E6CFB0"/>
<path d="M261.311 333.134C261.311 333.134 266.281 321.707 268.382 320.265C270.49 318.824 282.275 314.321 284.383 316.153C286.484 317.985 277.644 323.372 277.644 323.372C277.644 323.372 275.96 340.711 269.228 341.973C262.489 343.235 261.311 333.134 261.311 333.134Z" fill="#FF9981"/>
<path d="M220.76 326.942C220.76 326.942 245.357 341.04 246.759 340.341C248.162 339.643 260.095 331.291 260.095 331.291L281.143 347.009C281.143 347.009 265.245 387.106 242.474 386.158C219.704 385.217 212.222 358.231 212.222 358.231L220.76 326.942Z" fill="#889782"/>
<path d="M141.898 460.896V471.104C141.898 473.784 142.071 476.395 142.411 478.889C144.115 491.521 149.854 500.82 156.688 500.82H323.264C330.092 500.82 335.844 491.521 337.554 478.889C337.887 476.395 338.06 473.784 338.06 471.104V460.896C338.06 444.488 331.437 431.18 323.264 431.18H156.688C148.521 431.18 141.898 444.488 141.898 460.896Z" fill="#D5BD99"/>
<path d="M298.596 427.995C298.596 443.711 311.336 456.45 327.048 456.45C342.767 456.45 355.5 443.711 355.5 427.995C355.5 412.278 342.767 399.538 327.048 399.538C311.336 399.538 298.596 412.278 298.596 427.995Z" fill="#F3E1CA"/>
<path d="M314.417 427.996C314.417 434.973 320.073 440.629 327.048 440.629C334.023 440.629 339.679 434.973 339.679 427.996C339.679 421.022 334.023 415.366 327.048 415.366C320.073 415.366 314.417 421.022 314.417 427.996Z" fill="#D5BD99"/>
<path d="M308.056 528.646H309.254C312.188 528.646 314.673 526.475 315.063 523.566L319.233 492.631H300.869L302.202 523.04C302.336 526.174 304.918 528.646 308.056 528.646Z" fill="#D7D7E2"/>
<path d="M272.072 528.646H273.27C276.204 528.646 278.689 526.475 279.08 523.566L283.25 492.631H264.886L266.218 523.04C266.352 526.174 268.934 528.646 272.072 528.646Z" fill="#D5BD99"/>
<path d="M171.075 528.646H169.877C166.944 528.646 164.459 526.475 164.068 523.566L159.904 492.631H178.268L176.93 523.04C176.795 526.174 174.214 528.646 171.075 528.646Z" fill="#D5BD99"/>
<path d="M134.71 526.506H133.512C130.578 526.506 128.093 524.335 127.702 521.425L123.532 490.492H141.896L140.564 520.899C140.423 524.035 137.842 526.506 134.71 526.506Z" fill="#364568"/>
<path d="M181.899 441.237C181.899 445.685 202.53 449.29 227.984 449.29C253.433 449.29 274.064 445.685 274.064 441.237C274.064 436.791 253.433 433.185 227.984 433.185C202.53 433.185 181.899 436.791 181.899 441.237Z" fill="#D5BD99"/>
<path d="M281.142 508.838L283.25 530.484H312.362V504.524L281.142 508.838Z" fill="#FF9981"/>
<path d="M174.252 398.706C174.252 398.706 171.254 429.344 179.677 433.265C188.094 437.186 244.633 443.173 247.759 445.624C250.878 448.074 271.83 516.207 271.83 516.207L323.085 511.625C323.085 511.625 304.599 421.9 286.62 406.95C274.065 396.509 223.56 395.593 223.56 395.593L174.252 398.706Z" fill="#E6CFB0"/>
<path d="M253.258 434.462C253.392 434.462 253.636 434.537 253.975 434.965C254.449 435.568 254.629 436.264 254.532 437.094C254.199 439.82 250.958 443.027 249.203 444.585C250.1 440.194 251.733 434.836 253.149 434.478C253.175 434.472 253.207 434.462 253.258 434.462ZM248.409 446.47C248.524 446.47 248.64 446.433 248.729 446.358C248.992 446.158 255.071 441.395 255.577 437.222C255.711 436.116 255.449 435.136 254.802 434.313C254.071 433.391 253.36 433.338 252.886 433.457C250.081 434.166 248.23 443.906 247.89 445.852C247.852 446.067 247.948 446.281 248.134 446.395C248.223 446.445 248.313 446.47 248.409 446.47Z" fill="white"/>
<path d="M293.555 399.173C293.863 399.173 294.273 399.289 294.727 399.865C295.163 400.416 295.285 400.941 295.112 401.479C294.465 403.452 290.193 405.239 287.624 406.091C288.905 403.58 291.41 399.423 293.382 399.186C293.434 399.18 293.491 399.173 293.555 399.173ZM286.618 407.475C286.67 407.475 286.715 407.468 286.759 407.455C287.605 407.218 295.048 405.066 296.111 401.806C296.393 400.928 296.201 400.038 295.554 399.218C294.753 398.193 293.863 398.072 293.261 398.142C289.968 398.539 286.522 405.893 286.144 406.732C286.055 406.917 286.087 407.135 286.221 407.295C286.324 407.411 286.471 407.475 286.618 407.475Z" fill="#FCF9F5"/>
<path d="M180.983 292.712C180.983 292.712 162.793 280.113 149.726 308.245C136.659 336.383 153.024 352.204 171.677 343.403C190.329 334.602 182.649 300.513 182.649 300.513L180.983 292.712Z" fill="black"/>
<path d="M206.956 301.133C206.956 301.133 209.493 293.722 208.666 290.616C207.84 287.516 194.658 279.195 184.583 285.018C174.507 290.834 175.013 304.714 177.883 310.216C185.274 324.397 197.361 316.512 197.361 316.512C197.361 316.512 217.025 308.583 206.956 301.133Z" fill="black"/>
<path d="M177.146 400.891C177.146 400.891 168.543 344.018 171.317 339.663C179.874 326.224 208.256 320.229 221.733 327.422C230.169 331.925 227.51 347.413 231.008 372.836C232.974 387.139 233.198 392.378 233.198 392.378L177.146 400.891Z" fill="#889782"/>
<path d="M206.596 317.927L206.628 318.215L207.089 323.602L207.461 327.823C207.461 327.823 207.947 328.752 203.015 329.066C196.412 329.47 193.933 326.927 193.933 326.927L192.376 317.127L194.413 317.242L206.596 317.927Z" fill="#FF9981"/>
<path d="M206.63 318.216L207.092 323.603C203.857 323.628 197.881 323.001 194.896 318.299C194.659 317.915 194.492 317.563 194.415 317.268L206.605 318.133L206.63 318.216Z" fill="black"/>
<path d="M205.38 292.32C205.38 292.32 213.278 305.47 212.105 313.586C210.927 321.701 203.631 321.4 199.16 320.439C194.696 319.478 192.377 317.115 192.377 317.115C192.377 317.115 188.566 318.985 185.415 315.629C182.263 312.266 183.352 307.795 185.504 306.521C187.656 305.246 190.577 306.54 190.577 306.54L187.926 302.767C187.926 302.767 194.184 281.015 205.38 292.32Z" fill="#FF9981"/>
<path d="M190.577 306.539C190.577 306.539 196.278 302.67 197.944 298.014C199.609 293.357 199.417 291.147 199.417 291.147C199.417 291.147 200.666 293.914 202.965 294.318C205.271 294.721 206.661 294.625 206.661 294.625L208.583 298.539L206.456 288.905C206.456 288.905 200.044 286.433 199.244 286.529C198.437 286.632 188.502 289.7 187.99 290.385C187.477 291.07 185.242 299.359 185.242 299.359L185.46 302.952L190.577 306.539Z" fill="black"/>
<path d="M237.574 443.835C237.612 443.835 237.651 443.832 237.683 443.823C237.971 443.763 238.15 443.484 238.093 443.2C237.177 438.852 232.424 437.938 230.887 437.755C230.758 436.124 230.06 430.673 226.525 427.6C222.323 423.936 216.129 427.389 215.86 427.539C215.61 427.682 215.52 428.003 215.661 428.255C215.815 428.508 216.129 428.596 216.379 428.453C216.443 428.419 222.195 425.217 225.833 428.393C229.586 431.657 229.862 438.189 229.862 438.256C229.875 438.528 230.092 438.748 230.361 438.763C230.419 438.766 236.152 439.122 237.061 443.417C237.113 443.665 237.33 443.835 237.574 443.835Z" fill="white"/>
<path d="M118.568 456.45H191.793V399.538H118.568V456.45Z" fill="#D5BD99"/>
<path d="M163.344 427.995C163.344 443.711 176.084 456.45 191.796 456.45C207.514 456.45 220.254 443.711 220.254 427.995C220.254 412.278 207.514 399.538 191.796 399.538C176.084 399.538 163.344 412.278 163.344 427.995Z" fill="#F3E1CA"/>
<path d="M179.165 427.996C179.165 434.973 184.82 440.629 191.796 440.629C198.777 440.629 204.433 434.973 204.433 427.996C204.433 421.022 198.777 415.366 191.796 415.366C184.82 415.366 179.165 421.022 179.165 427.996Z" fill="#D5BD99"/>
<path d="M201.94 329.727C206.43 329.727 209.467 328.042 209.652 327.933C209.908 327.786 209.992 327.465 209.851 327.216C209.704 326.959 209.39 326.876 209.133 327.017C209.069 327.056 202.337 330.777 194.177 326.844C193.908 326.716 193.601 326.831 193.473 327.088C193.351 327.35 193.46 327.664 193.722 327.792C196.739 329.246 199.545 329.727 201.94 329.727Z" fill="#FCA235"/>
<path d="M231.335 375.531C231.7 375.48 231.898 375.211 231.86 374.923L229.906 362.061C230.169 361.286 231.367 357.379 230.477 351.569C229.509 345.202 224.206 338.054 223.982 337.753C223.809 337.516 223.476 337.471 223.245 337.644C223.014 337.817 222.963 338.144 223.136 338.381C223.194 338.451 228.51 345.625 229.439 351.729C230.368 357.808 228.888 361.779 228.869 361.818C228.837 361.901 228.83 361.997 228.843 362.087L230.816 375.083C230.854 375.345 231.079 375.531 231.335 375.531Z" fill="black"/>
<path d="M79.6769 427.304C86.8443 441.731 98.6684 450.437 106.092 446.751C113.509 443.066 113.721 428.382 106.553 413.957C99.3858 399.532 87.5617 390.821 80.138 394.51C72.7207 398.193 72.5158 412.881 79.6769 427.304Z" fill="white"/>
<path d="M156.232 426.267C142.198 434.169 134.114 446.427 138.175 453.647C142.243 460.868 156.917 460.315 170.951 452.412C184.991 444.51 193.075 432.252 189.007 425.032C184.946 417.813 170.272 418.364 156.232 426.267Z" fill="white"/>
<path d="M159.173 484.576C170.978 482.794 179.811 476.426 178.895 470.352C177.979 464.278 167.66 460.798 155.855 462.579C144.044 464.362 135.217 470.73 136.133 476.804C137.049 482.878 147.362 486.357 159.173 484.576Z" fill="white"/>
<path d="M91.0156 442.977C78.1538 433.281 63.6842 430.786 58.6945 437.402C53.7112 444.019 60.0909 457.242 72.9591 466.938C85.8209 476.633 100.29 479.129 105.28 472.512C110.263 465.896 103.884 452.673 91.0156 442.977Z" fill="white"/>
<path d="M122.744 495.532C122.969 495.532 123.18 495.387 123.251 495.161C131.718 467.75 160.958 471.88 161.247 471.925C161.528 471.96 161.804 471.772 161.849 471.484C161.893 471.197 161.695 470.93 161.407 470.885C161.106 470.835 130.982 466.587 122.245 494.85C122.155 495.128 122.315 495.423 122.591 495.509C122.642 495.525 122.693 495.532 122.744 495.532Z" fill="#DDD7E0"/>
<path d="M120.305 493.47C120.548 493.47 120.76 493.306 120.817 493.062C128.632 459.534 157.885 440.501 158.179 440.312C158.423 440.156 158.493 439.83 158.339 439.585C158.179 439.341 157.853 439.27 157.609 439.426C157.315 439.616 127.709 458.868 119.792 492.824C119.728 493.107 119.901 493.39 120.183 493.456C120.222 493.465 120.266 493.47 120.305 493.47Z" fill="#DDD7E0"/>
<path d="M122.282 506.985C122.545 506.985 122.769 506.791 122.807 506.526C127.009 473.622 92.6575 414.495 92.3116 413.905C92.1643 413.655 91.8441 413.572 91.5943 413.713C91.3445 413.86 91.2612 414.187 91.4022 414.437C91.748 415.026 125.914 473.843 121.763 506.392C121.725 506.681 121.93 506.944 122.218 506.982C122.244 506.985 122.263 506.985 122.282 506.985Z" fill="#DDD7E0"/>
<path d="M118.84 491.053C119.199 491.009 119.398 490.744 119.359 490.456C119.327 490.212 115.638 465.755 76.1365 447.623C75.8739 447.501 75.56 447.617 75.4383 447.881C75.3166 448.145 75.4383 448.458 75.7009 448.579C114.626 466.448 118.29 490.357 118.315 490.596C118.354 490.861 118.578 491.053 118.84 491.053Z" fill="#DDD7E0"/>
<path d="M99.7711 541.949H132.982C134.782 541.949 136.288 540.667 136.467 538.985L141.546 490.607C141.751 488.673 140.131 486.997 138.062 486.997H94.6917C92.6228 486.997 91.0087 488.673 91.2073 490.607L96.2866 538.985C96.4659 540.667 97.9712 541.949 99.7711 541.949Z" fill="#D5BD99"/>
<path d="M107.122 541.949H140.327C142.134 541.949 143.639 540.667 143.812 538.985L148.898 490.607C149.096 488.673 147.482 486.997 145.413 486.997H102.043C99.9741 486.997 98.3535 488.673 98.5585 490.607L103.638 538.985C103.817 540.667 105.323 541.949 107.122 541.949Z" fill="#F3E1CA"/>
<path d="M191.267 313.393C191.421 313.393 191.568 313.329 191.677 313.2C191.857 312.976 191.825 312.643 191.6 312.457L186.861 308.569C186.636 308.384 186.303 308.416 186.118 308.64C185.938 308.864 185.97 309.197 186.194 309.383L190.934 313.271C191.03 313.354 191.152 313.393 191.267 313.393Z" fill="black"/>
<path d="M186.49 312.746C186.58 312.74 189.853 312.144 189.853 312.144C190.141 312.093 190.327 311.824 190.276 311.535C190.225 311.247 189.968 311.062 189.667 311.113L186.394 311.702C186.106 311.753 185.92 312.029 185.972 312.317C186.016 312.567 186.234 312.746 186.49 312.746Z" fill="black"/>
<path d="M197.503 299.577C197.561 299.577 197.619 299.571 197.676 299.552L201.077 298.379C201.353 298.283 201.494 297.982 201.404 297.707C201.302 297.431 201 297.29 200.731 297.38L197.33 298.552C197.055 298.648 196.914 298.949 197.004 299.225C197.08 299.443 197.286 299.577 197.503 299.577Z" fill="black"/>
<path d="M275.946 402.498C276.176 402.498 276.388 402.344 276.452 402.107C276.478 402.011 279.078 392.275 270.905 389.098C263.936 386.389 258.6 391.449 257.217 392.941C256.134 392.121 252.996 390.072 248.864 390.001C248.794 389.995 248.723 389.995 248.653 389.995C243.561 389.995 242.651 393.338 242.613 393.486C242.542 393.768 242.715 394.049 242.997 394.12C243.273 394.197 243.561 394.024 243.638 393.742C243.663 393.633 244.413 391.052 248.653 391.052C248.717 391.052 248.781 391.052 248.845 391.052C253.508 391.135 256.909 394.03 256.941 394.062C257.05 394.158 257.191 394.197 257.332 394.184C257.479 394.171 257.608 394.101 257.697 393.992C257.921 393.71 263.174 387.221 270.527 390.078C277.803 392.909 275.536 401.467 275.433 401.825C275.363 402.107 275.523 402.396 275.805 402.472C275.85 402.492 275.901 402.498 275.946 402.498Z" fill="#FCF9F5"/>
<path d="M205.392 298.065C205.43 298.065 208.03 297.867 208.03 297.867C208.319 297.848 208.537 297.591 208.517 297.303C208.492 297.015 208.248 296.778 207.954 296.816L205.353 297.015C205.065 297.034 204.847 297.29 204.866 297.579C204.892 297.854 205.116 298.065 205.392 298.065Z" fill="black"/>
<path d="M206.073 309.498C206.304 309.498 206.515 309.351 206.579 309.12C207.565 305.661 204.978 302.632 204.869 302.503C204.683 302.286 204.343 302.26 204.126 302.452C203.908 302.644 203.882 302.971 204.075 303.195C204.1 303.221 206.393 305.924 205.567 308.832C205.49 309.107 205.65 309.402 205.932 309.479C205.977 309.492 206.028 309.498 206.073 309.498Z" fill="black"/>
<path d="M200.057 305.521C200.096 305.521 200.141 305.514 200.185 305.501C200.467 305.431 200.64 305.143 200.563 304.861L199.968 302.51L200.986 301.408C201.185 301.191 201.172 300.857 200.961 300.665C200.743 300.467 200.41 300.48 200.211 300.691L199.001 302.004C198.879 302.132 198.828 302.318 198.872 302.491L199.545 305.123C199.603 305.36 199.82 305.521 200.057 305.521Z" fill="black"/>
<path d="M208.268 303.964C208.313 303.964 208.352 303.957 208.396 303.945C208.678 303.874 208.851 303.592 208.774 303.311L208.179 300.953L209.197 299.852C209.396 299.64 209.383 299.307 209.171 299.109C208.954 298.91 208.627 298.923 208.422 299.134L207.212 300.447C207.09 300.576 207.045 300.761 207.09 300.934L207.756 303.567C207.82 303.804 208.031 303.964 208.268 303.964Z" fill="black"/>
<path d="M318.489 523.51C318.489 523.51 316.74 513.92 312.186 513.464C307.638 513.007 301.118 523.51 301.118 523.51C301.118 523.51 283.337 522.14 282.081 523.51C280.826 524.88 280.826 555.017 282.081 555.473C283.337 555.929 357.068 555.929 360.424 555.473C363.774 555.017 358.976 539.491 352.366 536.752C345.762 534.012 338.64 534.003 338.64 534.003L318.489 523.51Z" fill="#FFAF45"/>
<path d="M376.016 430.985C376.016 430.985 368.663 424.59 364.82 427.074C360.983 429.559 362.45 441.833 362.45 441.833C362.45 441.833 347.711 451.865 347.583 453.719C347.455 455.574 366.274 479.113 367.542 478.685C368.81 478.256 426.394 432.213 428.732 429.764C431.063 427.314 417.619 418.184 410.752 420.17C403.873 422.156 398.313 426.596 398.313 426.596L376.016 430.985Z" fill="#FFAF45"/>
<path d="M296.001 419.318C296.097 419.318 296.193 419.293 296.283 419.235C296.527 419.088 296.603 418.761 296.45 418.511C296.11 417.967 288.078 405.111 281.301 402.979C274.672 400.897 246.706 396.189 245.515 395.99C245.233 395.946 244.958 396.138 244.913 396.42C244.862 396.708 245.054 396.977 245.342 397.028C245.637 397.079 274.428 401.922 280.981 403.984C287.393 406.002 295.476 418.94 295.553 419.069C295.655 419.229 295.828 419.318 296.001 419.318Z" fill="#D5BD99"/>
<path d="M243.743 425.696C250.936 425.698 254.132 416.769 254.779 414.713C256.137 414.745 260.717 414.546 262.389 411.1C264.349 407.071 258.161 400.781 257.892 400.518C257.693 400.313 257.354 400.307 257.149 400.512C256.944 400.717 256.944 401.05 257.149 401.261C258.802 402.927 262.798 407.852 261.44 410.645C259.801 414.008 254.478 413.643 254.433 413.643C254.17 413.636 253.946 413.79 253.882 414.027C253.85 414.142 250.769 425.256 243.07 424.615C235.435 423.962 234.897 413.118 234.891 413.009C234.884 412.797 234.75 412.605 234.551 412.535C234.34 412.464 234.116 412.516 233.981 412.676C233.956 412.695 231.758 415.071 229.164 415.161C227.915 415.219 226.846 414.745 225.84 413.79C221.997 410.133 227.826 401.268 227.883 401.178C228.043 400.935 227.986 400.608 227.742 400.448C227.499 400.288 227.172 400.352 227.012 400.595C226.75 400.992 220.639 410.299 225.116 414.552C226.34 415.712 227.762 416.269 229.209 416.218C231.233 416.141 232.976 414.956 233.949 414.142C234.327 417.095 235.992 425.063 242.974 425.666C243.237 425.685 243.493 425.696 243.743 425.696Z" fill="white"/>
<path d="M221.391 384.505C221.391 384.505 228.277 385.947 231.691 386.536C236.847 387.426 247.006 391.622 251.086 393.319C255.166 395.01 263.397 403.913 261.674 404.797C259.957 405.675 251.112 400.307 251.112 400.307C251.112 400.307 256.358 410.024 254.654 411.017C252.956 412.016 250.586 409.371 250.586 409.371C250.586 409.371 252.284 412.311 249.671 412.343C247.057 412.381 240.306 403.029 240.306 403.029C240.306 403.029 242.106 411.094 240.255 411.273C238.404 411.446 234.272 403.311 234.272 403.311C234.272 403.311 224.6 406.437 221.353 400.704C218.099 394.978 218.041 391.276 218.041 391.276L221.391 384.505Z" fill="#FF9981"/>
<path d="M180.534 331.29C180.534 331.29 145.023 352.972 157.514 386.645C166.744 411.536 218.043 400.307 218.043 400.307L231.821 379.003C231.821 379.003 199.442 364.008 196.912 363.086C192.019 361.305 180.534 331.29 180.534 331.29Z" fill="#889782"/>
<path d="M202.201 373.143C202.425 373.143 202.637 372.995 202.707 372.771C202.79 372.489 202.63 372.201 202.355 372.111C202.252 372.079 191.741 368.909 175.837 365.546C175.542 365.488 175.273 365.668 175.216 365.949C175.152 366.238 175.337 366.513 175.619 366.577C191.479 369.927 201.945 373.091 202.048 373.123C202.099 373.136 202.15 373.143 202.201 373.143Z" fill="black"/>
<path d="M180.084 361.684C181.705 361.684 184.491 364.56 186.618 367.288C182.634 364.861 179.604 362.516 179.598 361.786C179.61 361.786 179.649 361.767 179.719 361.741C179.834 361.703 179.956 361.684 180.084 361.684ZM188.552 369.556C188.699 369.556 188.84 369.498 188.936 369.389C189.103 369.21 189.129 368.934 188.988 368.736C188.347 367.801 182.646 359.679 179.386 360.742C178.72 360.966 178.579 361.421 178.553 361.671C178.361 363.644 185.298 367.794 188.296 369.492C188.373 369.536 188.462 369.556 188.552 369.556Z" fill="black"/>
<path d="M250.581 409.896C250.671 409.896 250.76 409.876 250.837 409.831C251.093 409.691 251.183 409.37 251.042 409.114L244.765 397.796C244.618 397.54 244.297 397.45 244.048 397.591C243.791 397.732 243.702 398.052 243.843 398.302L250.126 409.626C250.222 409.799 250.402 409.896 250.581 409.896Z" fill="black"/>
<path d="M251.112 400.832C251.202 400.832 251.285 400.806 251.368 400.762C251.624 400.621 251.714 400.3 251.573 400.051L249.312 395.977C249.171 395.721 248.851 395.631 248.601 395.772C248.345 395.913 248.255 396.233 248.396 396.489L250.651 400.557C250.747 400.729 250.926 400.832 251.112 400.832Z" fill="black"/>
<path d="M247.027 342.685C248.462 346.964 249.788 352.37 248.84 353.888C248.718 354.087 248.571 354.183 248.36 354.202C248.148 354.228 247.969 354.157 247.796 353.978C246.432 352.562 246.669 346.58 247.027 342.685ZM248.289 355.259C248.347 355.259 248.405 355.252 248.462 355.246C249 355.195 249.442 354.919 249.737 354.445C251.479 351.646 247.694 341.321 247.252 340.155C247.168 339.931 246.963 339.796 246.701 339.816C246.457 339.848 246.271 340.033 246.239 340.27C246.073 341.494 244.715 352.293 247.04 354.708C247.386 355.067 247.815 355.259 248.289 355.259Z" fill="black"/>
<path d="M270.72 338.591C275.78 337.656 277.58 327.465 277.65 327.029C277.702 326.741 277.51 326.472 277.221 326.421C276.939 326.37 276.664 326.568 276.619 326.85C276.6 326.952 274.871 336.753 270.618 337.547C270.336 337.598 270.144 337.873 270.201 338.162C270.246 338.411 270.47 338.591 270.72 338.591Z" fill="black"/>
<path d="M271.835 517.151C271.976 517.151 272.117 517.094 272.226 516.981C272.527 516.649 279.656 508.752 278.669 499.571C277.849 491.951 271.899 490.051 269.644 489.604C271.316 486.956 276.562 477.308 271.182 468.013C264.828 457.041 254.272 462.007 254.163 462.059C253.9 462.186 253.791 462.5 253.919 462.762C254.047 463.024 254.368 463.127 254.624 463.006C255.021 462.813 264.411 458.427 270.266 468.541C276.203 478.788 268.408 489.578 268.331 489.686C268.216 489.841 268.197 490.045 268.274 490.218C268.357 490.393 268.523 490.51 268.716 490.524C269.042 490.547 276.709 491.195 277.625 499.684C278.56 508.385 271.521 516.191 271.444 516.269C271.252 516.484 271.265 516.816 271.476 517.012C271.579 517.105 271.707 517.151 271.835 517.151Z" fill="white"/>
<path d="M290.102 450.07C290.063 450.07 290.025 450.074 289.986 450.083C289.794 450.126 289.647 450.271 289.596 450.459C289.557 450.584 286.124 462.941 278.912 461.378C277.394 461.05 276.241 460.238 275.478 458.964C273.102 454.999 275.12 447.832 275.139 447.76C275.184 447.597 275.152 447.421 275.043 447.287C274.934 447.153 274.767 447.086 274.601 447.09C274.511 447.093 264.942 447.565 261.284 443.744C260.215 442.622 259.773 441.272 259.933 439.615C260.765 431.231 275.619 430.041 275.767 430.031C276.055 430.01 276.266 429.764 276.253 429.478C276.125 426.966 276.285 420.016 278.585 418.075C279.136 417.608 279.776 417.461 280.551 417.634C285.74 418.78 286.13 428.009 286.13 428.102C286.137 428.263 286.22 428.412 286.348 428.508C286.476 428.603 286.649 428.629 286.797 428.591C286.88 428.568 295.066 426.391 297.89 432.257C300.696 438.077 294.259 441.911 293.99 442.072C293.836 442.159 293.74 442.314 293.727 442.485C293.714 442.657 293.785 442.824 293.919 442.934C293.996 442.998 301.695 449.394 299.453 453.996C299.075 454.761 298.576 455.175 297.922 455.257C295.559 455.555 291.773 451.747 290.505 450.256C290.403 450.137 290.255 450.07 290.102 450.07ZM280.212 462.574C286.239 462.575 289.423 454.431 290.332 451.64C291.773 453.176 295.315 456.654 298.057 456.301C299.075 456.172 299.863 455.552 300.395 454.457C302.649 449.846 296.949 444.223 295.117 442.582C296.846 441.347 301.516 437.349 298.838 431.8C296.123 426.169 289.256 427.026 287.142 427.436C286.957 425.185 285.951 417.749 280.776 416.602C279.687 416.359 278.719 416.583 277.906 417.268C275.126 419.626 275.126 427.001 275.184 429.027C272.423 429.312 259.721 431.079 258.889 439.512C258.69 441.465 259.241 443.134 260.529 444.473C263.943 448.043 271.59 448.204 273.948 448.163C273.48 450.145 272.397 455.869 274.575 459.504C275.491 461.037 276.875 462.015 278.694 462.406C279.219 462.52 279.725 462.574 280.212 462.574Z" fill="white"/>
<path d="M318.661 512.924C318.859 512.924 319.058 512.921 319.256 512.914C319.545 512.902 319.775 512.659 319.762 512.368C319.75 512.078 319.525 511.869 319.218 511.861C316.143 511.982 313.838 511.168 312.364 509.471C309.706 506.41 310.564 501.382 310.571 501.331C310.622 501.052 310.443 500.783 310.161 500.724C310.046 500.699 298.254 498.13 296.505 492.884C294.788 487.713 303.359 481.241 303.448 481.175C303.57 481.086 303.647 480.95 303.653 480.799C303.666 480.651 303.615 480.502 303.512 480.394C303.48 480.356 299.983 476.611 300.194 473.805C300.252 473.047 300.579 472.444 301.194 471.964C303.98 469.787 311.468 474.19 314.113 476.071C314.35 476.236 314.683 476.183 314.85 475.945C315.016 475.709 314.959 475.38 314.722 475.211C314.312 474.917 304.524 468.035 300.547 471.134C299.695 471.798 299.227 472.671 299.144 473.727C298.939 476.409 301.392 479.55 302.366 480.685C300.502 482.176 293.776 488.017 295.506 493.217C297.248 498.448 307.131 501.087 309.463 501.644C309.296 503.083 309.072 507.279 311.564 510.157C313.159 511.994 315.548 512.924 318.661 512.924Z" fill="white"/>
<path d="M287.677 386.761C287.971 386.761 288.272 386.742 288.58 386.697C293.755 385.999 295.51 382.802 296.035 381.432C298.303 382.463 306.732 385.928 309.192 381.809C311.889 377.3 308.122 369.998 307.962 369.691C307.821 369.434 307.507 369.332 307.245 369.467C306.988 369.601 306.892 369.921 307.027 370.177C307.065 370.248 310.684 377.268 308.289 381.271C306.386 384.461 298.738 381.604 295.946 380.234C295.805 380.157 295.632 380.157 295.491 380.227C295.344 380.298 295.235 380.432 295.203 380.586C295.164 380.765 294.165 384.878 288.439 385.659C282.745 386.396 279.568 377.96 279.536 377.877C279.478 377.716 279.343 377.595 279.183 377.55C279.017 377.505 278.844 377.537 278.709 377.646C278.696 377.659 277.37 378.684 275.609 378.376C274.014 378.101 272.522 376.871 271.164 374.725C271.01 374.482 270.683 374.405 270.44 374.559C270.19 374.719 270.12 375.039 270.274 375.289C271.798 377.71 273.54 379.094 275.449 379.414C276.935 379.664 278.12 379.196 278.786 378.837C279.625 380.797 282.591 386.761 287.677 386.761Z" fill="#FCF9F5"/>
<path d="M362.429 474.105C362.545 474.105 362.66 474.07 362.756 473.995L425.483 425.019C425.714 424.84 425.752 424.513 425.573 424.283C425.393 424.052 425.067 424.007 424.836 424.193L362.103 473.164C361.879 473.343 361.834 473.674 362.013 473.903C362.122 474.036 362.276 474.105 362.429 474.105Z" fill="white"/>
<path d="M281.307 549.144H360.694C360.982 549.144 361.219 548.908 361.219 548.617C361.219 548.326 360.982 548.091 360.694 548.091H281.307C281.013 548.091 280.776 548.326 280.776 548.617C280.776 548.908 281.013 549.144 281.307 549.144Z" fill="white"/>
<path d="M218.043 400.832C218.203 400.832 218.363 400.762 218.465 400.621C218.638 400.396 218.594 400.063 218.369 399.884C218.344 399.871 216.236 398.231 216.544 396.605C216.582 396.374 216.698 396.207 216.903 396.073C217.71 395.535 219.516 395.778 220.137 395.913C220.4 395.964 220.643 395.829 220.739 395.592C220.835 395.349 220.739 395.08 220.515 394.946C220.477 394.92 216.441 392.537 216.646 389.86C216.666 389.61 216.781 389.411 217.005 389.245C218.523 388.13 223.538 388.937 225.345 389.347C225.569 389.392 225.806 389.296 225.921 389.091C226.037 388.893 226.005 388.643 225.844 388.47C224.768 387.33 222.11 383.871 222.712 381.674C222.795 381.36 222.988 381.136 223.295 380.988C224.864 380.213 228.65 381.475 229.976 382.026C230.245 382.141 230.552 382.007 230.668 381.738C230.776 381.469 230.648 381.161 230.379 381.053C229.848 380.828 225.101 378.932 222.834 380.04C222.257 380.322 221.86 380.796 221.694 381.398C221.079 383.647 222.898 386.471 224.102 388.034C221.912 387.663 217.998 387.208 216.384 388.399C215.91 388.745 215.641 389.226 215.596 389.783C215.442 391.813 217.044 393.588 218.35 394.683C217.646 394.702 216.883 394.824 216.326 395.189C215.884 395.484 215.602 395.906 215.506 396.412C215.084 398.673 217.62 400.64 217.729 400.723C217.819 400.794 217.934 400.832 218.043 400.832Z" fill="black"/>
<path d="M274.577 350.198C277.696 350.198 281.277 347.559 281.456 347.431C281.687 347.252 281.738 346.925 281.565 346.695C281.392 346.458 281.059 346.413 280.829 346.586C280.777 346.624 275.986 350.147 273.226 348.879C272.771 348.674 272.47 348.341 272.31 347.867C271.746 346.221 272.957 343.313 273.475 342.326C273.565 342.147 273.552 341.929 273.43 341.769C273.309 341.609 273.117 341.525 272.905 341.564C271.317 341.878 266.814 342.486 265.123 341.615C264.912 341.506 264.79 341.346 264.732 341.103C264.425 339.802 266.071 337.151 266.737 336.241C266.865 336.062 266.872 335.818 266.743 335.633C266.615 335.447 266.391 335.364 266.173 335.421C264.028 336.011 260.658 336.401 260.229 335.389C259.512 333.724 260.556 331.54 260.562 331.514C260.69 331.258 260.582 330.938 260.319 330.816C260.063 330.688 259.749 330.797 259.621 331.059C259.563 331.162 258.359 333.698 259.262 335.806C259.986 337.497 263.208 337.138 265.142 336.747C264.386 337.996 263.381 339.982 263.707 341.346C263.835 341.884 264.156 342.301 264.642 342.55C266.436 343.473 270.286 343.044 272.111 342.768C271.554 344.081 270.727 346.49 271.31 348.206C271.573 348.962 272.066 349.513 272.79 349.84C273.347 350.089 273.956 350.198 274.577 350.198Z" fill="black"/>
<path d="M204.665 314.575C204.388 314.575 204.128 314.399 204.034 314.121C203.918 313.773 204.107 313.397 204.455 313.279L208.195 312.033C208.546 311.92 208.92 312.106 209.036 312.455C209.152 312.803 208.964 313.178 208.616 313.295L204.875 314.542C204.805 314.565 204.736 314.575 204.665 314.575Z" fill="black"/>
<path d="M594.105 544.4L609.31 555.246L618.254 553.905L620.948 544.4L602.825 530.651L594.105 544.4Z" fill="#EDEDED"/>
<path d="M497.734 586.327L496.615 574.985L479.344 571.345L481.411 584.867L496.84 586.327" fill="#EDEDED"/>
<path d="M473.252 271.459C464.856 273.439 460.232 325.411 456.702 328.87C454.725 330.808 411.09 342.225 409.835 342.409C406.151 342.949 408.587 355.404 412.197 355.213C413.285 355.157 465.463 346.685 468.885 344.78C472.307 342.874 482.021 316.86 482.52 300.573C482.73 293.766 482.674 274.219 473.252 271.459Z" fill="#FFA383"/>
<path d="M474.305 314.198C474.305 314.198 465.687 313.903 460.692 309.631C460.78 308.599 460.919 307.404 461.102 306.093C461.166 305.635 459.761 304.268 459.837 303.784C461.579 292.526 466.238 274.386 472.2 271.066L481.552 286.406L474.305 314.198Z" fill="#E6CFB0"/>
<path d="M616.897 539.741C618.481 537.763 619.515 540.994 620.755 541.826C621.611 542.4 627.979 544.615 631.862 545.947C633.623 546.544 633.901 547.609 633.879 549.078C633.736 557.699 622.117 585.646 611.001 584.848C607.746 584.618 606.576 577.808 608.532 569.486C609.751 564.306 607.679 561.524 604.986 555.223C604.01 552.934 606.289 551.713 614.034 552.392C619.653 552.885 615.314 541.719 616.897 539.741Z" fill="black"/>
<path d="M506.475 422.061C508.993 442.453 527.46 493.78 532.353 501.633C536.157 507.739 571.685 529.331 587.285 540.123C587.932 540.571 588.527 542.601 589.104 542.996C591.897 544.921 593.82 546.22 594.442 546.63C598.292 549.165 608.318 534.238 605.425 530.531C605.021 530.013 603.856 528.79 602.148 527.053C601.636 526.535 600.074 526.375 599.472 525.766C587.658 513.877 564.341 483.957 554.822 478.79C550.603 440.16 550.855 407.121 544.241 384.084C544.241 384.084 511.661 394.692 474.064 389.033C469.666 428.286 467.203 472.676 467.465 491.445C467.572 499.202 475.343 538.731 478.646 561.311C478.768 562.146 477.607 562.844 477.719 563.629C478.186 566.883 478.57 569.699 478.838 571.908C479.821 573.918 499.663 579.703 499.129 576.365C498.692 573.631 498.328 570.865 498.022 568.085C497.953 567.473 496.344 566.202 496.282 565.59C493.941 542.435 499.094 515.644 496.014 496.149L506.475 422.061Z" fill="#E6CFB0"/>
<path d="M500.203 261.079L519.617 261.033L542.186 268.85L544.783 314.883C546.447 342.605 543.43 372.665 550.711 399.476C551.933 403.983 471.156 404.334 471.965 399.27C474.588 382.846 474.928 358.829 474.313 342.27C473.587 322.767 473.211 303.248 472.593 283.741C472.565 282.869 471.598 271.273 472.201 271.068C472.207 271.065 490.352 264.908 490.352 264.908L500.203 261.079Z" fill="#E6CFB0"/>
<path d="M473.824 325.463L472.845 306.644L475.499 291.741C475.499 291.741 474.204 339.94 474.71 355.023L473.824 325.463Z" fill="#EDEDED"/>
<path d="M499.715 586.706C499.733 588.731 499.715 586.706 499.607 588.114C499.534 589.086 500.667 595.362 501.377 599.18C501.702 600.906 501.122 602.19 499.75 602.288C493.407 602.741 476.457 604.001 472.494 604.071C467.678 604.159 458.615 603.999 457.729 602.134C456.407 599.344 457.091 594.103 466.653 590.986C471.441 589.43 477.003 584.042 477.021 585.084C477.021 585.084 478.127 576.046 481.83 576.723C485.974 577.479 487.026 583.716 492.333 583.15C498.252 582.522 499.687 583.175 499.715 586.706Z" fill="black"/>
<path d="M476.969 600.066C479.455 601.555 482.692 602.113 486.619 598.352C490.546 594.593 500.94 596.803 500.722 595.587C500.95 596.862 501.18 598.117 501.377 599.181C501.702 600.906 501.122 602.19 499.75 602.288C493.407 602.741 476.457 604.001 472.494 604.071C467.678 604.159 458.615 603.999 457.729 602.134C457.176 600.969 456.986 599.374 457.635 597.69C457.469 599.733 474.579 598.633 476.969 600.066Z" fill="#EDEDED"/>
<path d="M618.107 573.421C621.299 568.65 624.378 569.004 625.752 565.702C627.124 562.398 623.184 559.601 624.15 556.512C625.116 553.423 629.18 545.033 627.404 544.399C628.969 544.952 630.557 545.499 631.863 545.947C633.624 546.544 633.902 547.609 633.88 549.078C633.737 557.699 622.118 585.646 611.002 584.849C609.576 584.748 608.55 583.383 608.013 581.182C610.295 582.371 614.916 578.191 618.107 573.421Z" fill="#EDEDED"/>
<path opacity="0.5" d="M521.306 261.62C521.306 261.62 524.48 264.214 523.105 273.153C521.731 282.09 515.096 284.269 511.263 283.012C505.49 281.119 505.353 274.398 505.353 274.398C505.353 274.398 505.713 282.843 499.939 283.573C494.737 284.231 487.693 274.976 493.846 264.056L508.132 260.935L521.306 261.62Z" fill="#C1C1C1"/>
<path d="M517.603 239.507C516.189 248.464 516.126 254.787 519.616 261.034C519.616 261.034 515.852 274.208 505.356 274.399C494.86 274.59 495.39 264.421 495.378 262.955L497.261 262.224C497.261 262.224 497.551 261.028 496.977 255.805C496.354 250.163 501.18 236.919 501.18 236.919L517.603 239.507Z" fill="#FFA383"/>
<path d="M496.975 255.803C500.012 255.824 510.126 248.579 510.722 246.642C511.316 244.704 512.778 240.806 512.778 240.806C512.778 240.806 513.239 249.972 509.511 254.584C505.496 259.549 497.329 261.202 497.329 261.202C497.329 261.202 497.08 256.871 496.975 255.803Z" fill="#E5886E"/>
<path d="M520.599 229.415C520.033 238.875 511.907 246.084 502.45 245.519C492.989 244.952 485.6 235.898 486.165 226.438C486.285 224.396 486.321 221.077 487.083 219.301C491.711 208.528 508.753 206.531 517.541 216.556C520.609 220.055 520.853 225.156 520.599 229.415Z" fill="#FFA383"/>
<path d="M486.421 230.324C486.417 239.386 490.481 254.713 498.471 256.548C502.223 257.408 511.718 251.416 512.569 245.132C513.424 238.853 514.313 231.992 514.313 231.992" fill="#FFA383"/>
<path d="M500.466 235.237C500.526 236.494 501.341 237.477 502.275 237.43C503.212 237.381 503.914 236.322 503.853 235.065C503.788 233.804 502.98 232.822 502.043 232.87C501.112 232.919 500.403 233.976 500.466 235.237Z" fill="black"/>
<path d="M487.804 235.955C487.864 237.211 488.679 238.196 489.613 238.147C490.55 238.099 491.252 237.038 491.189 235.782C491.126 234.521 490.316 233.539 489.381 233.587C488.448 233.636 487.741 234.694 487.804 235.955Z" fill="black"/>
<path d="M492.3 244.265C492.615 244.414 494.3 245.005 494.841 244.904C495.387 244.809 497.674 243.896 497.795 243.621C497.919 243.349 491.707 243.983 492.3 244.265Z" fill="#E5886E"/>
<path d="M500.589 229.689C500.577 229.697 500.73 229.649 500.877 229.658C501.021 229.654 501.23 229.641 501.488 229.614C501.608 229.591 501.738 229.584 501.874 229.584C502.007 229.578 502.138 229.532 502.276 229.542C502.549 229.563 502.829 229.469 503.111 229.528C503.253 229.543 503.395 229.547 503.542 229.535C503.686 229.56 503.823 229.619 503.967 229.64C504.115 229.665 504.258 229.687 504.394 229.71C504.536 229.726 504.658 229.806 504.782 229.845C505.282 230.01 505.691 230.1 505.691 230.1L505.876 230.14C506.258 230.223 506.635 229.979 506.718 229.598C506.761 229.399 506.715 229.201 506.609 229.045C506.609 229.045 506.349 228.666 505.841 228.131C505.704 228.01 505.579 227.851 505.399 227.734C505.206 227.63 505.003 227.521 504.794 227.408C504.578 227.297 504.35 227.194 504.111 227.104C503.858 227.046 503.594 227.002 503.329 226.97C503.065 226.938 502.799 226.886 502.538 226.935C502.278 226.974 502.023 227.013 501.777 227.051C501.31 227.206 500.886 227.387 500.582 227.627C500.28 227.855 500.043 228.089 499.896 228.296C499.736 228.489 499.743 228.588 499.726 228.589C499.422 228.827 499.369 229.268 499.608 229.571C499.846 229.875 500.285 229.928 500.589 229.689Z" fill="black"/>
<path d="M490.992 229.045C490.992 229.045 490.927 228.995 490.817 228.906C490.715 228.831 490.336 228.687 490.002 228.612C489.718 228.577 489.378 228.504 489.012 228.524C488.648 228.524 488.251 228.599 487.862 228.728C487.666 228.773 487.473 228.869 487.293 228.978C487.113 229.086 486.928 229.18 486.771 229.301C486.48 229.595 486.225 229.891 486.072 230.168C485.815 230.77 485.781 231.175 485.781 231.175C485.751 231.551 486.032 231.881 486.406 231.912C486.542 231.923 486.672 231.894 486.784 231.834L487.089 231.672C487.089 231.672 487.364 231.525 487.571 231.295C487.626 231.238 487.726 231.216 487.802 231.172C487.884 231.135 487.947 231.076 488.02 231.021C488.217 230.961 488.367 230.833 488.585 230.761C488.799 230.691 489.012 230.593 489.245 230.556C489.467 230.465 489.684 230.455 489.874 230.412C490.01 230.396 490.031 230.289 490.189 230.307C490.336 230.316 490.42 230.322 490.42 230.322L490.498 230.326C490.894 230.351 491.236 230.051 491.262 229.655C491.278 229.412 491.168 229.188 490.992 229.045Z" fill="black"/>
<path d="M492.273 248.416C492.516 247.841 500.764 247.526 501.344 247.81C501.927 248.095 498.933 251.41 497.077 251.556C495.637 251.668 491.982 249.097 492.273 248.416Z" fill="white"/>
<path d="M517.925 257.229C519.667 258.667 521.84 260.756 521.994 265.59C522.117 269.409 521.499 277.57 515.819 280.157C508.34 283.562 505.355 274.397 505.355 274.397C505.355 274.397 520.656 272.339 517.925 257.229Z" fill="#E6CFB0"/>
<path d="M497.277 260.307C497.277 260.307 495.285 261.41 493.846 264.057C492.356 266.799 490.825 278.045 496.923 281.109C503.024 284.174 505.355 274.399 505.355 274.399C505.355 274.399 498.359 274.795 496.362 268.532C495.364 265.399 495.972 262.583 497.26 262.224C497.33 261.203 497.277 260.307 497.277 260.307Z" fill="#E6CFB0"/>
<path opacity="0.5" d="M531.694 282.216L519.455 310.594L520.328 327.145C520.328 327.145 516.166 347.844 514.755 349.1C513.345 350.354 475.284 355.922 475.284 355.922L516.505 352.154L536.511 303.026L531.694 282.216Z" fill="#C1C1C1"/>
<path d="M459.836 303.784C459.836 303.784 468.881 308.561 472.902 309.716C472.902 309.716 462.107 306.577 461.102 306.093C461.156 305.627 459.748 304.344 459.836 303.784Z" fill="#EDEDED"/>
<path d="M512.748 238.811C510.565 238.307 512.117 226.521 508.599 224.646C508.599 224.646 518.542 218.602 520.313 231.852C521.156 233.541 516.94 244.511 516.94 244.511L516.351 239.673C516.351 239.673 520.467 235.935 520.077 233.331C519.727 230.993 517.642 230.431 516.702 230.872C514.315 231.992 513.819 236.448 513.728 237.757C513.637 239.066 512.748 238.811 512.748 238.811Z" fill="#102B51"/>
<path d="M520.569 236.643C519.983 239.667 517.383 243.434 515.188 242.121C513.421 241.061 514.839 231.935 517.295 231.591C519.936 231.223 521.159 233.616 520.569 236.643Z" fill="#E5886E"/>
<path d="M520.311 231.854C519.882 228.484 518.574 223.441 510.031 224.73C490.008 227.754 478.965 226.572 477.05 225.024C474.451 222.919 487.079 219.3 487.079 219.3C487.079 219.3 489.231 207.591 504.126 207.013C511.198 206.738 516.636 210.871 519.489 215.235C522.646 220.065 522.562 227.19 520.311 231.854Z" fill="#E6CFB0"/>
<path opacity="0.5" d="M487.083 219.3C486.04 222.503 500.976 223.497 510.728 221.893C510.728 221.893 486.23 219.905 489.581 213.953C489.581 213.953 487.14 217.344 487.083 219.3Z" fill="#C1C1C1"/>
<path d="M383.003 319.029H469.369V392.813H383.003V319.029Z" fill="#EF9E62"/>
<path d="M445.402 319.029H499.482V392.813H445.402V319.029Z" fill="#FFBC80"/>
<path opacity="0.5" d="M545.374 324.778C545.374 324.778 532.355 364.774 528.09 366.899C523.826 369.025 459.552 372.872 459.552 372.872L525.055 356.914L539.544 320.794L545.374 324.778Z" fill="#C1C1C1"/>
<path d="M533.574 287.194C525.178 289.174 518.287 345.639 514.758 349.099C512.779 351.038 462.112 358.494 460.856 358.679C460.023 358.802 456.464 358.781 455.414 358.441C454.649 361.129 456.024 370.766 458.907 373.037C461.167 372.409 463.608 372.296 464.157 372.267C465.244 372.209 523.517 366.915 526.94 365.009C530.362 363.103 542.343 332.595 542.843 316.31C543.051 309.501 542.996 289.955 533.574 287.194Z" fill="#FFA383"/>
<path d="M542.182 268.849C537.276 266.346 526.567 291.544 522.186 310.047C522.002 310.833 522.818 313.329 522.652 314.082C522.361 315.405 522.101 316.671 521.879 317.866C521.855 322.147 544.229 330.651 544.548 325.62C544.804 324.367 545.689 322.812 546.047 320.675C546.153 320.037 549.277 316.753 549.385 316.052C551.704 301.15 553.943 274.853 542.182 268.849Z" fill="#E6CFB0"/>
<path opacity="0.5" d="M549.388 316.055C544.187 316.871 524.42 312.242 522.164 310.358C522.164 310.358 529.999 316.85 536.795 318.695C543.509 320.52 546.048 320.678 546.048 320.678C546.048 320.678 546.033 320.498 546.269 320.188C547.141 319.048 549.344 316.339 549.388 316.055Z" fill="#C1C1C1"/>
<path d="M424.966 327.166H465.999V338.056H424.966V327.166Z" fill="white"/>
<path d="M426.799 336V328.727H429.391C429.957 328.727 430.426 328.83 430.798 329.036C431.169 329.242 431.447 329.524 431.632 329.881C431.817 330.237 431.909 330.637 431.909 331.082C431.909 331.529 431.816 331.932 431.629 332.289C431.444 332.644 431.165 332.926 430.79 333.134C430.419 333.34 429.951 333.443 429.388 333.443H427.605V332.513H429.288C429.646 332.513 429.936 332.451 430.158 332.328C430.381 332.203 430.544 332.032 430.648 331.817C430.753 331.601 430.805 331.356 430.805 331.082C430.805 330.807 430.753 330.563 430.648 330.35C430.544 330.137 430.38 329.97 430.155 329.849C429.932 329.729 429.639 329.668 429.274 329.668H427.896V336H426.799ZM433.038 336H431.874L434.491 328.727H435.759L438.376 336H437.211L435.155 330.048H435.098L433.038 336ZM433.234 333.152H437.012V334.075H433.234V333.152ZM439.426 336V328.727H442.018C442.582 328.727 443.049 328.824 443.421 329.018C443.795 329.213 444.074 329.481 444.259 329.825C444.444 330.165 444.536 330.56 444.536 331.007C444.536 331.452 444.443 331.844 444.256 332.183C444.071 332.519 443.791 332.78 443.417 332.967C443.046 333.154 442.578 333.248 442.015 333.248H440.051V332.303H441.915C442.27 332.303 442.559 332.252 442.782 332.151C443.007 332.049 443.171 331.901 443.275 331.707C443.38 331.513 443.432 331.279 443.432 331.007C443.432 330.732 443.378 330.495 443.272 330.293C443.168 330.092 443.003 329.938 442.778 329.832C442.556 329.723 442.263 329.668 441.901 329.668H440.523V336H439.426ZM443.016 332.719L444.813 336H443.563L441.802 332.719H443.016ZM451.912 331.092H450.804C450.761 330.856 450.682 330.647 450.566 330.467C450.45 330.287 450.308 330.135 450.14 330.009C449.972 329.884 449.783 329.789 449.575 329.725C449.369 329.661 449.15 329.629 448.918 329.629C448.499 329.629 448.124 329.735 447.792 329.945C447.463 330.156 447.203 330.465 447.011 330.872C446.822 331.279 446.727 331.777 446.727 332.364C446.727 332.955 446.822 333.455 447.011 333.862C447.203 334.269 447.465 334.577 447.796 334.786C448.127 334.994 448.5 335.098 448.915 335.098C449.144 335.098 449.362 335.067 449.568 335.006C449.776 334.942 449.965 334.848 450.133 334.725C450.301 334.602 450.443 334.452 450.559 334.274C450.677 334.094 450.759 333.888 450.804 333.656L451.912 333.66C451.853 334.017 451.738 334.346 451.567 334.647C451.399 334.945 451.183 335.203 450.917 335.421C450.655 335.637 450.354 335.804 450.015 335.922C449.677 336.04 449.308 336.099 448.907 336.099C448.278 336.099 447.717 335.95 447.224 335.652C446.732 335.351 446.344 334.922 446.059 334.363C445.778 333.804 445.637 333.138 445.637 332.364C445.637 331.587 445.779 330.921 446.063 330.364C446.347 329.806 446.735 329.377 447.228 329.079C447.72 328.778 448.28 328.628 448.907 328.628C449.293 328.628 449.653 328.683 449.987 328.795C450.323 328.904 450.625 329.065 450.893 329.278C451.16 329.488 451.381 329.746 451.557 330.052C451.732 330.355 451.85 330.702 451.912 331.092ZM453.225 336V328.727H457.784V329.672H454.322V331.888H457.547V332.829H454.322V335.055H457.827V336H453.225ZM459.25 336V328.727H460.347V335.055H463.643V336H459.25Z" fill="black"/>
<path opacity="0.5" d="M472.169 403.683C473.398 404.977 490.087 413.484 508.086 409.405C527.864 404.924 542.705 401.861 547.688 402.716L547.188 400.418L472.757 400.155L472.169 403.683Z" fill="#C1C1C1"/>
<path d="M588.011 138.385C574.843 153.763 560.754 145.875 556.633 140.386C526.892 154.371 511.302 128.79 511.756 115.387C493.643 117.059 494.951 98.9022 501.954 94.6752C486.725 86.0019 496.995 70.7647 506.212 72.2017C503.612 58.968 513.77 55.8997 519.173 56.0197C523.124 42.2079 537.923 44.7079 540.818 50.5741C553.937 35.737 564.978 47.481 567.635 55.1921C592.233 35.4183 604.968 63.1191 600.874 71.9171C606.217 72.9093 606.684 78.5866 606.249 81.3012C627.515 74.6303 634.359 102.809 620.316 110.14C628.619 136.527 601.317 146.042 588.011 138.385Z" fill="white"/>
<path d="M533.613 157.446C535.267 160.716 532.192 167.248 527.51 168.31C522.829 169.373 518.126 166.321 517.126 161.916C516.127 157.512 517.791 153.562 522.291 152.54C526.791 151.519 532.614 153.041 533.613 157.446Z" fill="white"/>
<path d="M521.076 178.521C521.816 180.176 520.292 183.256 517.898 183.8C515.505 184.343 513.362 182.285 512.927 180.37C512.493 178.455 513.102 176.32 516.128 175.998C518.555 175.447 520.856 176.748 521.076 178.521Z" fill="white"/>
<path d="M563.917 55.6748L556.906 68.4194L555.139 67.4472L553.802 54.537L553.684 54.472L548.543 63.8188L546.62 62.7611L553.63 50.0165L555.41 50.9955L556.746 63.9216L556.864 63.9867L562.013 54.6274L563.917 55.6748ZM559.562 69.8802L564.82 60.3217L566.68 61.3452L561.423 70.9037L559.562 69.8802ZM566.571 59.3638C566.247 59.1858 566.028 58.925 565.915 58.5815C565.808 58.2361 565.837 57.912 566.004 57.6091C566.173 57.3021 566.431 57.1035 566.777 57.0133C567.131 56.9212 567.469 56.9642 567.793 57.1422C568.116 57.3202 568.332 57.5819 568.439 57.9273C568.553 58.2708 568.525 58.5961 568.356 58.9031C568.19 59.2059 567.93 59.4034 567.576 59.4955C567.23 59.5857 566.894 59.5418 566.571 59.3638ZM567.846 74.6882C566.921 74.1793 566.24 73.5317 565.802 72.7452C565.371 71.957 565.181 71.0934 565.233 70.1545C565.285 69.2157 565.574 68.2671 566.101 67.3087C566.635 66.338 567.289 65.5817 568.063 65.0399C568.839 64.494 569.674 64.1941 570.568 64.1402C571.462 64.0863 572.359 64.3069 573.26 64.8021C573.986 65.2015 574.559 65.6923 574.979 66.2746C575.401 66.8528 575.654 67.4783 575.738 68.1512C575.826 68.8265 575.726 69.5038 575.439 70.1834L573.628 69.1873C573.775 68.6845 573.759 68.1731 573.58 67.6533C573.405 67.1357 573.021 66.7138 572.428 66.3874C571.91 66.1022 571.38 65.9892 570.839 66.0485C570.305 66.1059 569.792 66.3263 569.3 66.7096C568.811 67.0888 568.379 67.6186 568.005 68.2989C567.621 68.9959 567.396 69.6557 567.329 70.2782C567.263 70.9007 567.346 71.457 567.579 71.9472C567.816 72.4397 568.198 72.8308 568.724 73.1207C569.077 73.3146 569.432 73.426 569.789 73.4549C570.152 73.4819 570.499 73.4266 570.828 73.2891C571.162 73.1539 571.463 72.9358 571.731 72.6348L573.542 73.6309C573.136 74.2125 572.631 74.6536 572.028 74.9542C571.425 75.2547 570.765 75.3888 570.048 75.3564C569.335 75.3263 568.601 75.1035 567.846 74.6882ZM577.363 75.449L578.6 73.1707L578.924 73.3487L584.957 71.3987L587.185 72.6242L580.308 74.8399L580.016 74.679L577.363 75.449ZM573.869 77.7498L580.879 65.0052L582.74 66.0287L575.729 78.7733L573.869 77.7498ZM579.905 81.0701L578.981 74.6447L580.978 74.0493L582.189 82.3264L579.905 81.0701ZM587.243 85.3579C586.301 84.8398 585.601 84.1925 585.142 83.4158C584.689 82.6373 584.48 81.7793 584.515 80.8419C584.556 79.9026 584.849 78.9372 585.395 77.9457C585.933 76.9666 586.59 76.2041 587.366 75.6582C588.146 75.1145 588.981 74.8146 589.871 74.7585C590.766 74.7046 591.657 74.9218 592.545 75.4102C593.084 75.7068 593.558 76.0836 593.966 76.5404C594.374 76.9972 594.674 77.5271 594.866 78.1301C595.059 78.7331 595.103 79.4035 595 80.1411C594.899 80.8746 594.611 81.6749 594.134 82.5419L593.771 83.2016L586.173 79.022L586.939 77.6281L592.714 80.8047C592.983 80.3151 593.122 79.8268 593.131 79.3398C593.142 78.8486 593.027 78.3938 592.787 77.9753C592.551 77.5592 592.193 77.2188 591.712 76.9541C591.189 76.6665 590.662 76.5441 590.13 76.5868C589.605 76.6277 589.124 76.7952 588.686 77.0896C588.255 77.382 587.909 77.7668 587.646 78.2439L587.047 79.3329C586.696 79.9718 586.509 80.5769 586.486 81.1482C586.468 81.7217 586.597 82.2386 586.874 82.6987C587.152 83.1547 587.564 83.5321 588.107 83.8311C588.46 84.025 588.809 84.1521 589.154 84.2123C589.501 84.2683 589.837 84.2529 590.16 84.166C590.483 84.0791 590.783 83.9171 591.06 83.68L592.646 84.9661C592.22 85.4071 591.717 85.7221 591.137 85.9113C590.564 86.0986 589.944 86.1495 589.278 86.064C588.618 85.9766 587.94 85.7412 587.243 85.3579ZM602.385 76.8352L595.375 89.5798L593.514 88.5563L600.525 75.8117L602.385 76.8352ZM599.039 91.7493C598.699 91.5622 598.473 91.281 598.36 90.9057C598.25 90.5263 598.29 90.1645 598.479 89.8201C598.666 89.4799 598.948 89.2568 599.325 89.1509C599.705 89.0407 600.065 89.0792 600.405 89.2664C600.745 89.4535 600.97 89.7368 601.08 90.1162C601.193 90.4914 601.155 90.8492 600.968 91.1893C600.843 91.4175 600.669 91.5951 600.448 91.722C600.234 91.8471 600.002 91.9143 599.754 91.9236C599.505 91.9329 599.267 91.8748 599.039 91.7493ZM537.256 76.7011C536.507 78.0618 535.615 79.0948 534.578 79.8001C533.544 80.5012 532.449 80.8767 531.292 80.9266C530.141 80.9747 529.016 80.6963 527.917 80.0916C526.814 79.4846 525.972 78.6812 525.393 77.6815C524.819 76.68 524.553 75.5528 524.594 74.2999C524.635 73.0469 525.028 71.7422 525.774 70.3856C526.523 69.0248 527.414 67.9939 528.448 67.2928C529.485 66.5876 530.578 66.2109 531.729 66.1629C532.885 66.1129 534.016 66.3915 535.119 66.9985C536.219 67.6033 537.055 68.4064 537.628 69.4079C538.207 70.4076 538.477 71.5339 538.436 72.7868C538.398 74.0356 538.004 75.3403 537.256 76.7011ZM535.351 75.6536C535.922 74.6165 536.234 73.6508 536.289 72.7565C536.349 71.8604 536.189 71.07 535.809 70.3855C535.436 69.6991 534.884 69.155 534.154 68.7534C533.42 68.3495 532.663 68.1735 531.883 68.2255C531.105 68.2734 530.352 68.5617 529.624 69.0904C528.902 69.6173 528.255 70.3993 527.685 71.4365C527.114 72.4736 526.799 73.4403 526.738 74.3364C526.684 75.2306 526.844 76.021 527.217 76.7074C527.593 77.3897 528.148 77.9328 528.882 78.3367C529.613 78.7384 530.366 78.9152 531.144 78.8674C531.928 78.8176 532.681 78.5293 533.403 78.0025C534.131 77.4737 534.781 76.6908 535.351 75.6536ZM545.805 77.2538L544.984 78.7473L539.582 75.7761L540.404 74.2826L545.805 77.2538ZM536.627 84.6557L542.494 73.9896C542.823 73.3922 543.226 72.9683 543.704 72.7179C544.185 72.4634 544.694 72.3574 545.233 72.3997C545.774 72.4379 546.298 72.5962 546.804 72.8746C547.177 73.08 547.479 73.2868 547.711 73.4951C547.944 73.6992 548.112 73.8616 548.213 73.9821L546.949 75.2484C546.875 75.1756 546.779 75.085 546.661 74.9765C546.544 74.8638 546.389 74.7539 546.194 74.6466C545.742 74.3979 545.356 74.3319 545.038 74.4487C544.724 74.5677 544.451 74.8388 544.218 75.262L538.488 85.6792L536.627 84.6557ZM551.338 76.1471L544.328 88.8917L542.467 87.8682L549.478 75.1236L551.338 76.1471ZM550.845 92.7276C549.903 92.2096 549.202 91.5622 548.743 90.7856C548.291 90.007 548.082 89.1491 548.117 88.2117C548.158 87.2724 548.451 86.307 548.996 85.3155C549.535 84.3364 550.192 83.5739 550.968 83.0279C551.748 82.4843 552.583 82.1844 553.473 82.1282C554.367 82.0743 555.258 82.2916 556.146 82.7799C556.686 83.0766 557.159 83.4533 557.567 83.9101C557.975 84.3669 558.276 84.8968 558.468 85.4999C558.66 86.1029 558.705 86.7732 558.602 87.5109C558.501 88.2444 558.212 89.0446 557.735 89.9117L557.372 90.5713L549.774 86.3918L550.541 84.9978L556.316 88.1744C556.585 87.6849 556.724 87.1966 556.733 86.7095C556.743 86.2183 556.629 85.7635 556.389 85.3451C556.153 84.929 555.794 84.5885 555.313 84.3238C554.791 84.0363 554.263 83.9139 553.732 83.9566C553.207 83.9974 552.726 84.165 552.288 84.4593C551.857 84.7518 551.51 85.1366 551.248 85.6137L550.649 86.7027C550.297 87.3416 550.111 87.9467 550.088 88.5179C550.07 89.0915 550.199 89.6083 550.475 90.0684C550.754 90.5244 551.165 90.9019 551.709 91.2008C552.061 91.3948 552.41 91.5219 552.755 91.582C553.103 91.6381 553.438 91.6226 553.762 91.5357C554.085 91.4488 554.385 91.2868 554.661 91.0497L556.248 92.3358C555.822 92.7768 555.319 93.0919 554.739 93.281C554.166 93.4683 553.546 93.5192 552.88 93.4337C552.22 93.3464 551.542 93.111 550.845 92.7276ZM557.116 95.9261L562.374 86.3676L564.16 87.3501L563.304 88.9058L563.422 88.9708C563.911 88.5535 564.463 88.3219 565.077 88.2761C565.694 88.2261 566.317 88.3746 566.948 88.7215C567.587 89.0729 568.04 89.5166 568.307 90.0527C568.578 90.591 568.674 91.1786 568.594 91.8154L568.693 91.8702C569.202 91.4854 569.789 91.2785 570.453 91.2495C571.12 91.2163 571.798 91.3892 572.486 91.768C573.353 92.2449 573.911 92.9057 574.16 93.7504C574.413 94.5974 574.238 95.5685 573.635 96.6638L570.11 103.073L568.249 102.05L571.679 95.8145C572.035 95.1673 572.116 94.6016 571.923 94.1172C571.731 93.6328 571.389 93.256 570.9 92.9867C570.294 92.6535 569.721 92.5812 569.179 92.7697C568.64 92.9541 568.211 93.3367 567.891 93.9175L564.54 100.01L562.686 98.9897L566.181 92.6361C566.466 92.1175 566.533 91.6116 566.383 91.1183C566.233 90.625 565.899 90.2357 565.38 89.9505C565.027 89.7565 564.65 89.6707 564.249 89.6931C563.854 89.7136 563.475 89.8375 563.112 90.0648C562.754 90.2945 562.456 90.625 562.218 91.0564L558.977 96.9496L557.116 95.9261ZM581.255 109.455C580.313 108.937 579.612 108.29 579.153 107.513C578.701 106.735 578.492 105.877 578.527 104.939C578.568 104 578.861 103.035 579.406 102.043C579.945 101.064 580.602 100.301 581.378 99.7555C582.158 99.2119 582.993 98.912 583.883 98.8558C584.777 98.8019 585.668 99.0191 586.556 99.5075C587.096 99.8042 587.569 100.181 587.977 100.638C588.385 101.094 588.685 101.624 588.878 102.227C589.07 102.83 589.115 103.501 589.012 104.238C588.911 104.972 588.622 105.772 588.145 106.639L587.782 107.299L580.184 103.119L580.951 101.725L586.726 104.902C586.995 104.412 587.134 103.924 587.143 103.437C587.153 102.946 587.039 102.491 586.799 102.073C586.563 101.657 586.204 101.316 585.723 101.051C585.2 100.764 584.673 100.641 584.142 100.684C583.617 100.725 583.136 100.893 582.698 101.187C582.267 101.479 581.92 101.864 581.658 102.341L581.059 103.43C580.707 104.069 580.52 104.674 580.498 105.246C580.48 105.819 580.609 106.336 580.885 106.796C581.164 107.252 581.575 107.629 582.119 107.928C582.471 108.122 582.82 108.249 583.165 108.31C583.513 108.366 583.848 108.35 584.172 108.263C584.495 108.176 584.795 108.014 585.071 107.777L586.658 109.063C586.232 109.504 585.729 109.819 585.149 110.009C584.576 110.196 583.956 110.247 583.29 110.161C582.63 110.074 581.952 109.839 581.255 109.455ZM598.663 109.369L596.812 108.74C596.86 108.485 596.861 108.218 596.815 107.939C596.773 107.662 596.657 107.39 596.469 107.124C596.28 106.858 595.993 106.619 595.607 106.407C595.08 106.117 594.575 105.994 594.092 106.036C593.612 106.074 593.27 106.278 593.067 106.647C592.891 106.967 592.868 107.289 592.997 107.614C593.127 107.939 593.42 108.309 593.879 108.723L595.206 109.907C595.973 110.594 596.456 111.268 596.655 111.928C596.854 112.589 596.767 113.257 596.395 113.933C596.08 114.506 595.634 114.925 595.055 115.19C594.483 115.454 593.833 115.55 593.105 115.479C592.381 115.411 591.633 115.164 590.861 114.74C589.791 114.151 589.043 113.442 588.618 112.614C588.195 111.781 588.14 110.9 588.452 109.969L590.401 110.685C590.255 111.215 590.29 111.696 590.506 112.129C590.724 112.557 591.114 112.925 591.674 113.233C592.284 113.568 592.841 113.71 593.345 113.658C593.852 113.601 594.206 113.389 594.409 113.019C594.574 112.721 594.6 112.408 594.488 112.082C594.38 111.757 594.126 111.418 593.727 111.063L592.304 109.818C591.524 109.124 591.042 108.438 590.859 107.759C590.68 107.082 590.777 106.404 591.152 105.723C591.462 105.159 591.891 104.752 592.439 104.503C592.987 104.253 593.604 104.163 594.29 104.232C594.979 104.297 595.682 104.527 596.399 104.922C597.432 105.49 598.122 106.161 598.469 106.936C598.818 107.706 598.883 108.517 598.663 109.369ZM606.641 110.717L605.819 112.211L600.598 109.339L601.42 107.846L606.641 110.717ZM604.08 106.326L605.94 107.349L600.967 116.391C600.768 116.752 600.672 117.053 600.68 117.295C600.69 117.533 600.761 117.732 600.895 117.892C601.035 118.05 601.207 118.185 601.41 118.297C601.559 118.379 601.696 118.44 601.819 118.481C601.942 118.522 602.039 118.553 602.108 118.575L601.598 120.297C601.468 120.279 601.291 120.236 601.069 120.168C600.845 120.104 600.583 119.992 600.282 119.832C599.787 119.571 599.379 119.233 599.056 118.818C598.734 118.402 598.546 117.932 598.495 117.407C598.444 116.881 598.576 116.33 598.894 115.753L604.08 106.326ZM515.678 100.775C514.737 100.257 514.036 99.6098 513.577 98.8331C513.125 98.0545 512.916 97.1966 512.951 96.2592C512.992 95.3199 513.285 94.3545 513.83 93.363C514.369 92.3839 515.026 91.6214 515.802 91.0755C516.582 90.5318 517.417 90.2319 518.307 90.1757C519.201 90.1218 520.092 90.3391 520.98 90.8274C521.52 91.1241 521.993 91.5008 522.401 91.9576C522.809 92.4144 523.109 92.9443 523.302 93.5474C523.494 94.1504 523.539 94.8207 523.436 95.5584C523.335 96.2919 523.046 97.0921 522.569 97.9592L522.206 98.6188L514.608 94.4393L515.375 93.0454L521.15 96.222C521.419 95.7324 521.558 95.2441 521.567 94.7571C521.577 94.2658 521.463 93.811 521.223 93.3926C520.987 92.9765 520.628 92.6361 520.147 92.3713C519.624 92.0838 519.097 91.9614 518.566 92.0041C518.041 92.0449 517.56 92.2125 517.122 92.5068C516.691 92.7993 516.344 93.1841 516.082 93.6612L515.483 94.7502C515.131 95.3891 514.944 95.9942 514.922 96.5654C514.904 97.139 515.033 97.6559 515.309 98.116C515.588 98.5719 515.999 98.9494 516.543 99.2483C516.895 99.4423 517.244 99.5694 517.589 99.6295C517.937 99.6856 518.272 99.6701 518.596 99.5832C518.919 99.4963 519.219 99.3343 519.495 99.0973L521.082 100.383C520.655 100.824 520.152 101.139 519.573 101.329C519 101.516 518.38 101.567 517.714 101.481C517.054 101.394 516.375 101.159 515.678 100.775ZM526.932 99.3218L523.811 104.997L521.95 103.974L527.208 94.4152L528.994 95.3976L528.138 96.9533L528.256 97.0183C528.755 96.6332 529.323 96.416 529.96 96.3669C530.602 96.32 531.282 96.494 531.999 96.8888C532.651 97.2471 533.146 97.6978 533.485 98.2408C533.826 98.7798 533.984 99.391 533.96 100.075C533.935 100.758 533.706 101.494 533.272 102.282L529.928 108.362L528.067 107.338L531.288 101.483C531.669 100.79 531.787 100.149 531.64 99.5607C531.496 98.968 531.109 98.4982 530.478 98.1514C530.047 97.914 529.612 97.7963 529.173 97.7981C528.738 97.8023 528.324 97.9312 527.931 98.1849C527.544 98.4367 527.211 98.8156 526.932 99.3218ZM546.868 105.229L546.046 106.723L540.645 103.752L541.466 102.258L546.868 105.229ZM537.689 112.631L543.556 101.965C543.885 101.368 544.288 100.944 544.767 100.694C545.247 100.439 545.757 100.333 546.295 100.375C546.836 100.414 547.36 100.572 547.866 100.85C548.239 101.056 548.542 101.262 548.773 101.471C549.007 101.675 549.174 101.837 549.275 101.958L548.011 103.224C547.938 103.151 547.842 103.061 547.723 102.952C547.607 102.839 547.451 102.73 547.256 102.622C546.804 102.374 546.419 102.308 546.1 102.424C545.786 102.543 545.513 102.814 545.28 103.238L539.55 113.655L537.689 112.631ZM547.073 118.044C546.177 117.551 545.508 116.916 545.066 116.138C544.624 115.36 544.422 114.5 544.459 113.558C544.495 112.617 544.786 111.652 545.329 110.665C545.874 109.673 546.536 108.908 547.313 108.368C548.091 107.829 548.927 107.537 549.821 107.494C550.715 107.451 551.61 107.676 552.506 108.169C553.402 108.662 554.071 109.297 554.513 110.075C554.955 110.853 555.156 111.715 555.117 112.661C555.078 113.607 554.785 114.575 554.24 115.567C553.697 116.554 553.038 117.315 552.262 117.851C551.487 118.386 550.652 118.676 549.758 118.719C548.864 118.762 547.969 118.537 547.073 118.044ZM547.939 116.486C548.519 116.805 549.085 116.917 549.636 116.82C550.186 116.722 550.693 116.469 551.156 116.059C551.624 115.652 552.026 115.141 552.364 114.527C552.699 113.917 552.914 113.305 553.008 112.693C553.109 112.078 553.054 111.51 552.843 110.989C552.633 110.468 552.237 110.047 551.656 109.728C551.071 109.406 550.5 109.295 549.943 109.393C549.39 109.495 548.879 109.751 548.409 110.163C547.946 110.573 547.547 111.083 547.211 111.692C546.874 112.306 546.656 112.919 546.558 113.529C546.464 114.142 546.523 114.707 546.736 115.224C546.953 115.744 547.354 116.164 547.939 116.486ZM553.712 121.445L558.97 111.886L560.768 112.876L559.933 114.394L560.032 114.449C560.49 114.03 561.019 113.795 561.621 113.742C562.229 113.687 562.813 113.814 563.373 114.122C563.49 114.186 563.624 114.266 563.777 114.361C563.934 114.458 564.055 114.538 564.14 114.601L563.161 116.38C563.097 116.319 562.977 116.223 562.8 116.093C562.625 115.959 562.442 115.839 562.252 115.734C561.812 115.492 561.368 115.37 560.921 115.367C560.481 115.363 560.071 115.47 559.691 115.688C559.314 115.902 559.012 116.216 558.783 116.631L555.573 122.468L553.712 121.445ZM560.437 125.144L565.695 115.586L567.481 116.568L566.625 118.124L566.744 118.189C567.233 117.772 567.784 117.54 568.398 117.494C569.015 117.444 569.638 117.593 570.269 117.94C570.908 118.291 571.361 118.735 571.628 119.271C571.899 119.809 571.995 120.397 571.915 121.034L572.014 121.088C572.523 120.704 573.11 120.497 573.774 120.468C574.441 120.435 575.119 120.607 575.807 120.986C576.674 121.463 577.232 122.124 577.481 122.969C577.734 123.816 577.559 124.787 576.957 125.882L573.431 132.292L571.57 131.268L575 125.033C575.356 124.386 575.438 123.82 575.245 123.335C575.052 122.851 574.711 122.474 574.221 122.205C573.615 121.872 573.042 121.799 572.5 121.988C571.961 122.172 571.532 122.555 571.212 123.136L567.861 129.228L566.007 128.208L569.502 121.854C569.787 121.336 569.855 120.83 569.704 120.336C569.554 119.843 569.22 119.454 568.701 119.169C568.349 118.975 567.972 118.889 567.57 118.911C567.175 118.932 566.796 119.056 566.434 119.283C566.075 119.513 565.777 119.843 565.54 120.275L562.298 126.168L560.437 125.144ZM579.938 136.122C578.996 135.604 578.296 134.957 577.837 134.18C577.384 133.402 577.175 132.544 577.21 131.606C577.251 130.667 577.545 129.702 578.09 128.71C578.629 127.731 579.286 126.969 580.062 126.423C580.842 125.879 581.677 125.579 582.567 125.523C583.461 125.469 584.352 125.686 585.24 126.175C585.779 126.471 586.253 126.848 586.661 127.305C587.069 127.762 587.369 128.292 587.562 128.895C587.754 129.498 587.799 130.168 587.696 130.906C587.595 131.639 587.306 132.439 586.829 133.306L586.466 133.966L578.868 129.787L579.635 128.393L585.409 131.569C585.679 131.08 585.818 130.591 585.826 130.104C585.837 129.613 585.722 129.158 585.482 128.74C585.247 128.324 584.888 127.983 584.407 127.719C583.884 127.431 583.357 127.309 582.826 127.351C582.3 127.392 581.819 127.56 581.382 127.854C580.951 128.147 580.604 128.531 580.341 129.008L579.742 130.097C579.391 130.736 579.204 131.341 579.182 131.913C579.163 132.486 579.292 133.003 579.569 133.463C579.848 133.919 580.259 134.297 580.802 134.596C581.155 134.79 581.504 134.917 581.849 134.977C582.196 135.033 582.532 135.017 582.855 134.93C583.179 134.844 583.479 134.682 583.755 134.445L585.341 135.731C584.915 136.172 584.412 136.487 583.833 136.676C583.259 136.863 582.64 136.914 581.973 136.828C581.314 136.741 580.635 136.506 579.938 136.122ZM587.371 140.113C587.03 139.926 586.804 139.645 586.692 139.27C586.581 138.89 586.621 138.529 586.811 138.184C586.998 137.844 587.28 137.621 587.657 137.515C588.036 137.405 588.396 137.443 588.736 137.63C589.077 137.818 589.302 138.101 589.412 138.48C589.524 138.856 589.487 139.213 589.3 139.553C589.174 139.782 589.001 139.959 588.78 140.086C588.565 140.211 588.334 140.278 588.085 140.288C587.837 140.297 587.599 140.239 587.371 140.113Z" fill="black"/>
<path d="M271.422 173.333C270.044 195.195 252.136 198.149 244.751 196.341C227.631 228.299 196.439 217.418 187.797 205.857C172.749 219.573 161.66 203.44 165.061 195.131C145.605 198.201 144.491 178.428 153.693 173.369C142.437 164.026 149.437 154.546 154.344 150.973C148.548 136.692 163.452 128.732 169.997 131.689C171.697 110.316 189.486 112.67 197.064 117.338C205.683 84.0171 235.757 98.6172 238.039 108.787C243.481 105.988 247.73 110.437 249.174 113.012C263.663 92.9561 288.798 111.962 281.205 127.662C306.433 144.171 288.474 170.718 271.422 173.333Z" fill="white"/>
<path d="M197.823 227.058C200.153 230.241 197.73 237.755 192.699 239.736C187.667 241.717 181.988 239.322 180.213 234.813C178.437 230.305 179.685 225.797 184.522 223.892C189.359 221.987 196.048 222.55 197.823 227.058Z" fill="white"/>
<path d="M187.107 251.778C188.179 253.406 186.955 256.963 184.382 257.976C181.809 258.99 179.12 257.188 178.348 255.227C177.576 253.267 177.929 250.883 181.237 249.99C183.846 248.963 186.594 249.93 187.107 251.778Z" fill="white"/>
<path d="M188.093 144.338L187.477 143.011L189.704 129.638L182.708 132.885L181.913 131.171L191.345 126.795L191.96 128.122L189.733 141.495L196.729 138.248L197.525 139.962L188.093 144.338ZM204.224 137.096C203.249 137.549 202.313 137.73 201.415 137.64C200.52 137.544 199.705 137.205 198.97 136.622C198.237 136.033 197.632 135.225 197.156 134.198C196.686 133.185 196.46 132.204 196.479 131.255C196.503 130.305 196.756 129.454 197.237 128.703C197.723 127.951 198.426 127.361 199.345 126.935C199.903 126.676 200.487 126.517 201.097 126.459C201.707 126.4 202.311 126.472 202.911 126.674C203.511 126.875 204.078 127.236 204.612 127.756C205.143 128.271 205.617 128.978 206.034 129.876L206.35 130.559L198.484 134.209L197.814 132.765L203.793 129.991C203.558 129.485 203.247 129.084 202.859 128.788C202.47 128.489 202.035 128.312 201.556 128.258C201.081 128.201 200.594 128.289 200.096 128.52C199.555 128.771 199.144 129.124 198.864 129.577C198.586 130.025 198.436 130.512 198.415 131.038C198.395 131.559 198.5 132.066 198.729 132.56L199.252 133.688C199.559 134.349 199.936 134.858 200.383 135.214C200.835 135.568 201.328 135.77 201.862 135.82C202.395 135.865 202.942 135.757 203.505 135.496C203.87 135.327 204.179 135.121 204.432 134.878C204.683 134.631 204.869 134.352 204.99 134.04C205.112 133.728 205.159 133.39 205.131 133.027L207.107 132.51C207.21 133.114 207.166 133.706 206.975 134.285C206.787 134.858 206.461 135.388 205.998 135.874C205.537 136.354 204.946 136.762 204.224 137.096ZM197.922 126.146L198.052 122.477L200.081 121.535L199.462 125.432L197.922 126.146ZM210.514 133.935L205.923 124.039L207.785 123.175L208.514 124.747L208.617 124.699C208.551 124.083 208.674 123.517 208.988 123.001C209.304 122.478 209.752 122.083 210.332 121.813C210.452 121.758 210.596 121.696 210.763 121.629C210.934 121.56 211.07 121.51 211.171 121.479L212.026 123.322C211.939 123.336 211.79 123.376 211.581 123.442C211.369 123.504 211.165 123.58 210.967 123.672C210.512 123.883 210.151 124.168 209.884 124.527C209.619 124.879 209.463 125.273 209.414 125.708C209.363 126.138 209.438 126.569 209.637 126.998L212.441 133.041L210.514 133.935ZM221.384 129.134C220.456 129.565 219.548 129.728 218.659 129.624C217.77 129.519 216.957 129.173 216.22 128.586C215.483 127.999 214.878 127.194 214.403 126.172C213.927 125.146 213.702 124.159 213.727 123.213C213.753 122.267 214.013 121.421 214.507 120.675C215.001 119.929 215.712 119.341 216.64 118.91C217.568 118.48 218.476 118.317 219.365 118.421C220.253 118.525 221.067 118.873 221.806 119.465C222.545 120.056 223.153 120.865 223.629 121.892C224.104 122.914 224.327 123.896 224.299 124.838C224.272 125.78 224.011 126.624 223.517 127.37C223.023 128.116 222.312 128.704 221.384 129.134ZM220.64 127.514C221.241 127.235 221.666 126.845 221.913 126.344C222.161 125.843 222.257 125.284 222.201 124.668C222.149 124.05 221.976 123.424 221.681 122.788C221.388 122.157 221.022 121.622 220.584 121.183C220.147 120.738 219.657 120.446 219.113 120.307C218.568 120.169 217.995 120.239 217.394 120.518C216.788 120.799 216.36 121.193 216.11 121.7C215.865 122.206 215.769 122.77 215.823 123.392C215.879 124.008 216.053 124.632 216.346 125.263C216.641 125.899 217.006 126.437 217.44 126.877C217.878 127.316 218.369 127.603 218.911 127.737C219.458 127.87 220.034 127.795 220.64 127.514ZM187.608 171.264C186.633 171.716 185.697 171.897 184.799 171.807C183.904 171.711 183.089 171.372 182.354 170.789C181.621 170.2 181.017 169.392 180.54 168.366C180.07 167.352 179.844 166.371 179.864 165.422C179.887 164.472 180.14 163.621 180.621 162.871C181.107 162.118 181.81 161.528 182.729 161.102C183.287 160.843 183.871 160.684 184.481 160.626C185.091 160.567 185.696 160.639 186.296 160.841C186.895 161.043 187.462 161.403 187.996 161.923C188.527 162.439 189.001 163.145 189.418 164.043L189.735 164.726L181.868 168.376L181.199 166.933L187.177 164.159C186.942 163.652 186.631 163.251 186.243 162.956C185.854 162.656 185.419 162.479 184.94 162.425C184.465 162.369 183.978 162.456 183.48 162.687C182.939 162.938 182.528 163.291 182.248 163.744C181.97 164.192 181.82 164.679 181.799 165.206C181.779 165.726 181.884 166.233 182.113 166.727L182.636 167.855C182.943 168.516 183.32 169.025 183.768 169.381C184.219 169.736 184.712 169.938 185.246 169.987C185.779 170.032 186.327 169.924 186.889 169.663C187.254 169.494 187.563 169.288 187.816 169.045C188.067 168.798 188.253 168.519 188.374 168.207C188.496 167.895 188.543 167.557 188.515 167.194L190.491 166.677C190.594 167.281 190.55 167.873 190.36 168.452C190.171 169.025 189.845 169.555 189.382 170.041C188.921 170.521 188.33 170.929 187.608 171.264ZM181.306 160.314L181.436 156.644L183.465 155.703L182.846 159.599L181.306 160.314ZM193.099 161.333L195.825 167.208L193.899 168.102L189.307 158.206L191.156 157.349L191.903 158.959L192.026 158.902C192.01 158.273 192.171 157.686 192.509 157.143C192.851 156.598 193.394 156.153 194.137 155.809C194.811 155.496 195.468 155.364 196.106 155.412C196.742 155.456 197.329 155.69 197.865 156.115C198.401 156.539 198.859 157.16 199.237 157.976L202.158 164.27L200.232 165.164L197.419 159.101C197.086 158.384 196.639 157.91 196.078 157.68C195.515 157.445 194.907 157.479 194.254 157.782C193.808 157.99 193.455 158.27 193.197 158.625C192.943 158.978 192.802 159.388 192.773 159.855C192.747 160.316 192.856 160.809 193.099 161.333ZM209.099 161.292C208.124 161.744 207.188 161.926 206.29 161.836C205.395 161.74 204.579 161.4 203.844 160.818C203.112 160.228 202.507 159.421 202.031 158.394C201.561 157.38 201.335 156.399 201.354 155.451C201.378 154.5 201.63 153.65 202.112 152.899C202.598 152.147 203.301 151.557 204.22 151.131C204.778 150.871 205.362 150.713 205.972 150.654C206.581 150.596 207.186 150.667 207.786 150.869C208.386 151.071 208.953 151.432 209.486 151.952C210.018 152.467 210.492 153.174 210.908 154.071L211.225 154.754L203.359 158.404L202.689 156.961L208.668 154.187C208.433 153.68 208.121 153.279 207.734 152.984C207.344 152.685 206.91 152.508 206.431 152.453C205.956 152.397 205.469 152.485 204.971 152.716C204.43 152.967 204.019 153.319 203.739 153.773C203.461 154.22 203.311 154.707 203.289 155.234C203.27 155.755 203.375 156.262 203.604 156.756L204.127 157.883C204.434 158.545 204.811 159.054 205.258 159.41C205.71 159.764 206.203 159.966 206.737 160.016C207.27 160.061 207.817 159.953 208.38 159.692C208.745 159.522 209.054 159.316 209.307 159.074C209.558 158.827 209.744 158.547 209.865 158.235C209.987 157.923 210.034 157.586 210.006 157.223L211.982 156.705C212.085 157.31 212.041 157.902 211.85 158.481C211.662 159.054 211.336 159.583 210.873 160.07C210.412 160.55 209.821 160.957 209.099 161.292ZM215.389 158.131L210.798 148.235L212.66 147.371L213.389 148.943L213.492 148.895C213.425 148.279 213.549 147.713 213.863 147.196C214.179 146.674 214.627 146.278 215.207 146.009C215.327 145.953 215.471 145.892 215.638 145.825C215.809 145.756 215.945 145.706 216.046 145.675L216.901 147.517C216.813 147.532 216.665 147.572 216.455 147.638C216.244 147.699 216.039 147.776 215.842 147.868C215.387 148.079 215.025 148.364 214.759 148.723C214.494 149.075 214.338 149.469 214.289 149.904C214.238 150.334 214.312 150.764 214.512 151.194L217.316 157.237L215.389 158.131ZM227.964 157.056C227.178 157.421 226.454 157.632 225.791 157.689C225.133 157.744 224.547 157.684 224.033 157.51C223.519 157.336 223.08 157.088 222.717 156.766L224.056 155.315C224.259 155.45 224.507 155.578 224.798 155.699C225.095 155.822 225.446 155.881 225.851 155.876C226.26 155.869 226.731 155.742 227.263 155.495C227.993 155.156 228.514 154.698 228.825 154.12C229.139 153.547 229.116 152.873 228.757 152.1L227.855 150.155L227.732 150.211C227.714 150.476 227.655 150.788 227.555 151.147C227.46 151.504 227.268 151.865 226.977 152.229C226.687 152.594 226.239 152.916 225.633 153.197C224.852 153.56 224.063 153.704 223.266 153.63C222.472 153.55 221.726 153.236 221.028 152.688C220.333 152.134 219.741 151.33 219.252 150.278C218.764 149.226 218.524 148.241 218.532 147.324C218.544 146.405 218.771 145.6 219.212 144.91C219.652 144.215 220.269 143.684 221.064 143.315C221.678 143.03 222.222 142.903 222.695 142.934C223.167 142.96 223.571 143.06 223.907 143.233C224.247 143.404 224.523 143.565 224.735 143.718L224.877 143.652L224.132 142.048L226.02 141.172L230.713 151.287C231.108 152.137 231.234 152.927 231.092 153.656C230.95 154.384 230.602 155.036 230.05 155.611C229.501 156.184 228.806 156.666 227.964 157.056ZM225.317 151.402C225.871 151.145 226.28 150.799 226.542 150.364C226.807 149.923 226.926 149.414 226.898 148.837C226.873 148.253 226.702 147.62 226.385 146.937C226.076 146.272 225.706 145.731 225.273 145.316C224.84 144.901 224.367 144.64 223.853 144.534C223.337 144.424 222.798 144.499 222.235 144.76C221.656 145.029 221.242 145.404 220.995 145.884C220.746 146.359 220.641 146.899 220.681 147.501C220.725 148.102 220.893 148.718 221.186 149.35C221.487 149.998 221.85 150.521 222.275 150.919C222.699 151.317 223.169 151.564 223.683 151.66C224.201 151.753 224.746 151.667 225.317 151.402ZM233.195 149.869L228.603 139.973L230.53 139.08L235.121 148.975L233.195 149.869ZM228.868 137.995C228.533 138.151 228.193 138.172 227.849 138.061C227.507 137.943 227.263 137.727 227.118 137.413C226.971 137.095 226.963 136.77 227.096 136.437C227.231 136.098 227.466 135.851 227.801 135.695C228.136 135.54 228.474 135.521 228.816 135.639C229.16 135.751 229.406 135.965 229.553 136.283C229.699 136.597 229.704 136.923 229.569 137.262C229.437 137.595 229.203 137.84 228.868 137.995ZM242.07 145.994C241.095 146.446 240.159 146.627 239.261 146.538C238.366 146.441 237.551 146.102 236.816 145.519C236.083 144.93 235.479 144.122 235.002 143.096C234.532 142.082 234.306 141.101 234.326 140.152C234.349 139.202 234.602 138.351 235.083 137.601C235.569 136.848 236.272 136.259 237.191 135.832C237.749 135.573 238.333 135.414 238.943 135.356C239.553 135.297 240.158 135.369 240.758 135.571C241.358 135.773 241.924 136.134 242.458 136.653C242.989 137.169 243.463 137.875 243.88 138.773L244.197 139.456L236.33 143.106L235.661 141.663L241.639 138.889C241.404 138.382 241.093 137.981 240.705 137.686C240.316 137.386 239.881 137.209 239.402 137.155C238.927 137.099 238.441 137.186 237.942 137.417C237.401 137.669 236.99 138.021 236.71 138.475C236.432 138.922 236.283 139.409 236.261 139.936C236.241 140.456 236.346 140.964 236.575 141.458L237.099 142.585C237.405 143.246 237.783 143.755 238.23 144.111C238.681 144.466 239.174 144.668 239.709 144.717C240.241 144.762 240.789 144.654 241.351 144.393C241.716 144.224 242.025 144.018 242.278 143.775C242.529 143.529 242.715 143.249 242.837 142.937C242.958 142.625 243.005 142.287 242.977 141.924L244.953 141.407C245.056 142.012 245.012 142.603 244.822 143.182C244.633 143.755 244.308 144.285 243.844 144.771C243.383 145.251 242.792 145.659 242.07 145.994ZM249.687 142.366C249.334 142.529 248.974 142.545 248.605 142.414C248.234 142.278 247.966 142.032 247.8 141.675C247.637 141.323 247.624 140.964 247.762 140.597C247.898 140.226 248.142 139.959 248.494 139.795C248.846 139.632 249.208 139.618 249.579 139.754C249.948 139.885 250.214 140.127 250.377 140.479C250.487 140.716 250.527 140.96 250.499 141.214C250.473 141.461 250.39 141.687 250.25 141.893C250.111 142.099 249.923 142.256 249.687 142.366ZM184.206 183.022L192.864 192.064L193.013 191.996L191.699 179.546L193.85 178.547L195.224 193.945L192.924 195.012L182.054 184.021L184.206 183.022ZM201.723 190.929L197.132 181.033L198.994 180.17L199.723 181.742L199.826 181.694C199.759 181.077 199.883 180.511 200.197 179.995C200.513 179.473 200.961 179.077 201.541 178.808C201.661 178.752 201.805 178.69 201.972 178.623C202.143 178.554 202.279 178.504 202.38 178.473L203.235 180.316C203.147 180.33 202.999 180.37 202.789 180.436C202.578 180.498 202.373 180.574 202.176 180.666C201.721 180.877 201.359 181.162 201.093 181.521C200.828 181.873 200.672 182.267 200.623 182.702C200.572 183.133 200.646 183.563 200.846 183.992L203.65 190.035L201.723 190.929ZM211.579 186.622C210.952 186.913 210.331 187.061 209.717 187.064C209.1 187.063 208.54 186.908 208.037 186.598C207.537 186.287 207.137 185.807 206.836 185.159C206.577 184.6 206.471 184.091 206.519 183.631C206.566 183.17 206.723 182.75 206.991 182.37C207.258 181.99 207.593 181.642 207.994 181.326C208.395 181.009 208.817 180.714 209.259 180.441C209.82 180.097 210.275 179.818 210.624 179.604C210.972 179.385 211.205 179.186 211.325 179.005C211.445 178.824 211.451 178.618 211.343 178.386L211.322 178.341C211.061 177.778 210.7 177.416 210.239 177.254C209.782 177.09 209.242 177.153 208.619 177.442C207.97 177.743 207.526 178.124 207.286 178.585C207.048 179.04 206.939 179.474 206.959 179.888L204.957 180.315C204.893 179.614 204.981 178.983 205.222 178.423C205.465 177.856 205.819 177.363 206.282 176.944C206.743 176.522 207.273 176.172 207.87 175.895C208.265 175.711 208.706 175.564 209.192 175.453C209.68 175.336 210.175 175.311 210.675 175.376C211.179 175.439 211.662 175.641 212.122 175.981C212.58 176.316 212.977 176.845 213.312 177.566L216.361 184.138L214.48 185.01L213.852 183.658L213.774 183.693C213.766 184 213.692 184.332 213.555 184.688C213.417 185.044 213.19 185.392 212.873 185.732C212.556 186.073 212.124 186.369 211.579 186.622ZM211.28 184.882C211.813 184.635 212.219 184.318 212.5 183.933C212.784 183.545 212.947 183.135 212.987 182.704C213.029 182.267 212.96 181.853 212.778 181.462L212.187 180.187C212.15 180.287 212.046 180.413 211.877 180.565C211.709 180.711 211.511 180.863 211.282 181.021C211.051 181.175 210.825 181.325 210.605 181.469C210.382 181.608 210.197 181.726 210.048 181.821C209.696 182.042 209.392 182.279 209.134 182.535C208.881 182.788 208.711 183.062 208.624 183.359C208.539 183.648 208.576 183.965 208.736 184.309C208.957 184.785 209.301 185.065 209.766 185.146C210.23 185.223 210.735 185.135 211.28 184.882ZM218.927 182.947L214.335 173.051L216.261 172.158L220.853 182.053L218.927 182.947ZM214.599 171.073C214.264 171.229 213.925 171.25 213.581 171.139C213.239 171.021 212.995 170.805 212.85 170.491C212.702 170.173 212.695 169.848 212.827 169.515C212.962 169.176 213.197 168.929 213.532 168.773C213.867 168.618 214.206 168.599 214.547 168.717C214.892 168.829 215.137 169.043 215.285 169.361C215.43 169.675 215.436 170.001 215.301 170.34C215.168 170.673 214.934 170.918 214.599 171.073ZM223.444 180.851L218.853 170.955L220.702 170.097L221.449 171.708L221.572 171.651C221.525 171.01 221.665 170.428 221.991 169.906C222.316 169.38 222.805 168.965 223.457 168.662C224.119 168.355 224.745 168.253 225.335 168.355C225.929 168.455 226.459 168.725 226.925 169.167L227.028 169.119C227.02 168.481 227.2 167.886 227.57 167.333C227.938 166.776 228.478 166.332 229.191 166.002C230.089 165.585 230.952 165.527 231.78 165.826C232.612 166.124 233.291 166.84 233.817 167.973L236.896 174.609L234.97 175.503L231.975 169.048C231.664 168.378 231.256 167.977 230.752 167.846C230.247 167.714 229.741 167.766 229.235 168.002C228.607 168.292 228.21 168.712 228.041 169.26C227.871 169.804 227.925 170.376 228.204 170.977L231.13 177.285L229.21 178.175L226.158 171.598C225.909 171.061 225.541 170.707 225.055 170.536C224.569 170.365 224.057 170.404 223.52 170.653C223.155 170.822 222.863 171.075 222.643 171.412C222.426 171.743 222.301 172.121 222.27 172.548C222.243 172.973 222.333 173.409 222.54 173.856L225.371 179.957L223.444 180.851ZM243.836 171.632C242.861 172.084 241.925 172.266 241.027 172.176C240.132 172.08 239.316 171.74 238.581 171.158C237.849 170.568 237.244 169.761 236.768 168.734C236.298 167.72 236.072 166.739 236.091 165.791C236.115 164.84 236.367 163.99 236.849 163.239C237.335 162.487 238.037 161.897 238.957 161.471C239.515 161.211 240.099 161.053 240.709 160.994C241.318 160.936 241.923 161.008 242.523 161.209C243.123 161.411 243.69 161.772 244.223 162.292C244.755 162.807 245.229 163.514 245.645 164.411L245.962 165.094L238.096 168.744L237.426 167.301L243.405 164.527C243.17 164.02 242.858 163.619 242.471 163.324C242.081 163.025 241.647 162.848 241.168 162.793C240.693 162.737 240.206 162.825 239.708 163.056C239.167 163.307 238.756 163.659 238.476 164.113C238.198 164.56 238.048 165.047 238.026 165.574C238.007 166.095 238.112 166.602 238.341 167.096L238.864 168.223C239.171 168.885 239.548 169.394 239.995 169.75C240.447 170.104 240.94 170.306 241.474 170.356C242.007 170.401 242.554 170.293 243.117 170.032C243.482 169.862 243.791 169.656 244.044 169.414C244.295 169.167 244.481 168.887 244.602 168.575C244.723 168.263 244.77 167.926 244.743 167.563L246.719 167.045C246.822 167.65 246.778 168.242 246.587 168.821C246.399 169.394 246.073 169.923 245.61 170.41C245.149 170.89 244.557 171.297 243.836 171.632ZM249.326 161.701L252.053 167.577L250.126 168.471L245.535 158.575L247.384 157.717L248.131 159.328L248.253 159.271C248.238 158.641 248.399 158.055 248.737 157.512C249.079 156.967 249.622 156.522 250.365 156.177C251.039 155.864 251.695 155.732 252.334 155.78C252.97 155.824 253.556 156.059 254.093 156.483C254.629 156.908 255.086 157.528 255.465 158.344L258.386 164.638L256.459 165.532L253.646 159.47C253.313 158.753 252.867 158.279 252.306 158.048C251.743 157.814 251.135 157.848 250.482 158.151C250.035 158.358 249.683 158.639 249.424 158.994C249.171 159.346 249.029 159.756 249.001 160.224C248.975 160.685 249.083 161.177 249.326 161.701ZM260.997 151.401L261.714 152.947L256.309 155.455L255.591 153.909L260.997 151.401ZM255.941 150.865L257.867 149.971L262.211 159.332C262.384 159.706 262.57 159.962 262.77 160.099C262.967 160.232 263.17 160.292 263.378 160.279C263.588 160.259 263.799 160.201 264.009 160.103C264.164 160.031 264.294 159.958 264.4 159.883C264.506 159.807 264.588 159.748 264.647 159.706L265.733 161.135C265.641 161.23 265.502 161.347 265.316 161.486C265.132 161.628 264.886 161.774 264.579 161.922C264.076 162.165 263.562 162.294 263.036 162.309C262.51 162.323 262.02 162.195 261.566 161.926C261.112 161.656 260.747 161.223 260.47 160.626L255.941 150.865ZM219.308 209.228L218.695 207.907L220.895 198.61L220.854 198.52L215.667 200.926L214.89 199.251L222.479 195.73L223.131 197.134L221.098 206.252L221.14 206.342L226.474 203.867L227.251 205.542L219.308 209.228ZM233.598 202.84C232.623 203.292 231.687 203.474 230.789 203.384C229.894 203.288 229.079 202.948 228.344 202.365C227.611 201.776 227.006 200.968 226.53 199.942C226.06 198.928 225.834 197.947 225.854 196.999C225.877 196.048 226.13 195.198 226.611 194.447C227.097 193.694 227.8 193.105 228.719 192.678C229.277 192.419 229.861 192.261 230.471 192.202C231.081 192.144 231.685 192.215 232.285 192.417C232.885 192.619 233.452 192.98 233.986 193.5C234.517 194.015 234.991 194.722 235.408 195.619L235.724 196.302L227.858 199.952L227.188 198.509L233.167 195.735C232.932 195.228 232.621 194.827 232.233 194.532C231.844 194.232 231.409 194.056 230.93 194.001C230.455 193.945 229.968 194.033 229.47 194.264C228.929 194.515 228.518 194.867 228.238 195.321C227.96 195.768 227.81 196.255 227.789 196.782C227.769 197.303 227.874 197.81 228.103 198.304L228.626 199.431C228.933 200.093 229.31 200.602 229.757 200.958C230.209 201.312 230.702 201.514 231.236 201.563C231.769 201.609 232.316 201.501 232.879 201.24C233.244 201.07 233.553 200.864 233.806 200.622C234.057 200.375 234.243 200.095 234.364 199.783C234.486 199.471 234.533 199.134 234.505 198.771L236.481 198.253C236.584 198.858 236.54 199.45 236.349 200.029C236.161 200.602 235.835 201.131 235.372 201.618C234.911 202.098 234.32 202.505 233.598 202.84ZM227.296 191.89L227.426 188.221L229.455 187.279L228.836 191.176L227.296 191.89ZM239.888 199.679L235.297 189.783L237.159 188.919L237.888 190.491L237.991 190.443C237.925 189.827 238.048 189.261 238.362 188.744C238.678 188.222 239.126 187.826 239.706 187.557C239.826 187.501 239.97 187.44 240.137 187.373C240.308 187.304 240.444 187.254 240.545 187.223L241.4 189.065C241.313 189.08 241.164 189.12 240.955 189.186C240.743 189.247 240.539 189.324 240.341 189.415C239.886 189.627 239.525 189.912 239.258 190.27C238.993 190.623 238.837 191.016 238.788 191.451C238.737 191.882 238.812 192.312 239.011 192.742L241.815 198.785L239.888 199.679ZM250.758 194.878C249.83 195.308 248.922 195.471 248.033 195.367C247.144 195.263 246.331 194.917 245.594 194.33C244.857 193.743 244.252 192.938 243.778 191.916C243.301 190.889 243.076 189.903 243.101 188.957C243.127 188.011 243.387 187.164 243.881 186.418C244.375 185.672 245.086 185.084 246.014 184.654C246.942 184.223 247.85 184.06 248.739 184.165C249.627 184.269 250.441 184.617 251.18 185.208C251.919 185.8 252.527 186.609 253.003 187.635C253.478 188.657 253.701 189.639 253.673 190.581C253.646 191.523 253.385 192.367 252.891 193.113C252.397 193.859 251.686 194.448 250.758 194.878ZM250.014 193.258C250.615 192.979 251.04 192.589 251.287 192.088C251.535 191.586 251.631 191.028 251.575 190.412C251.523 189.794 251.35 189.167 251.055 188.531C250.762 187.9 250.396 187.365 249.958 186.926C249.521 186.482 249.031 186.19 248.487 186.051C247.942 185.912 247.369 185.982 246.768 186.261C246.162 186.542 245.734 186.937 245.484 187.444C245.239 187.949 245.143 188.513 245.197 189.136C245.253 189.752 245.427 190.375 245.72 191.007C246.015 191.642 246.38 192.18 246.814 192.621C247.252 193.06 247.743 193.346 248.285 193.481C248.832 193.613 249.408 193.539 250.014 193.258Z" fill="black"/>
</svg>
